<svg width="469" height="242" viewBox="0 0 469 242" fill="none" xmlns="http://www.w3.org/2000/svg">
<g filter="url(#filter0_d_8778_512)">
<rect y="29" width="247" height="84" rx="12" fill="white" shape-rendering="crispEdges"/>
<path d="M41 58.4375V78C41 78.5625 40.5 79 40 79C39.4375 79 39 78.5625 39 78V58.4375L32.6875 64.75C32.3125 65.125 31.625 65.125 31.25 64.75C30.875 64.375 30.875 63.6875 31.25 63.3125L39.25 55.3125C39.625 54.9375 40.3125 54.9375 40.6875 55.3125L48.6875 63.3125C49.0625 63.6875 49.0625 64.375 48.6875 64.75C48.3125 65.125 47.625 65.125 47.25 64.75L41 58.4375ZM37 77H28C26.875 77 26 77.9375 26 79V83C26 84.125 26.875 85 28 85H52C53.0625 85 54 84.125 54 83V79C54 77.9375 53.0625 77 52 77H43V75H52C54.1875 75 56 76.8125 56 79V83C56 85.25 54.1875 87 52 87H28C25.75 87 24 85.25 24 83V79C24 76.8125 25.75 75 28 75H37V77ZM48 81C48 80.1875 48.625 79.5 49.5 79.5C50.3125 79.5 51 80.1875 51 81C51 81.875 50.3125 82.5 49.5 82.5C48.625 82.5 48 81.875 48 81Z" fill="#4D4F57"/>
<path opacity="0.6" d="M75.2 66V57.48H80.48V58.464H75.704L76.232 57.96V61.872L75.704 61.344H80.264V62.328H75.704L76.232 61.8V66H75.2ZM81.9153 66V57.48H84.5073C85.4033 57.48 86.1113 57.708 86.6313 58.164C87.1513 58.612 87.4113 59.232 87.4113 60.024C87.4113 60.424 87.3193 60.78 87.1353 61.092C86.9513 61.396 86.7153 61.636 86.4273 61.812C86.1393 61.988 85.8433 62.088 85.5393 62.112L85.4913 61.968C86.0593 62 86.4833 62.136 86.7633 62.376C87.0513 62.616 87.2193 63.008 87.2673 63.552L87.4833 66H86.4513L86.2473 63.684C86.2233 63.42 86.1593 63.208 86.0553 63.048C85.9593 62.88 85.8033 62.76 85.5873 62.688C85.3793 62.608 85.0913 62.568 84.7233 62.568H82.9473V66H81.9153ZM82.9473 61.56H84.5073C85.0993 61.56 85.5513 61.428 85.8633 61.164C86.1753 60.892 86.3313 60.512 86.3313 60.024C86.3313 59.528 86.1753 59.148 85.8633 58.884C85.5513 58.62 85.0993 58.488 84.5073 58.488H82.9473V61.56ZM91.7506 66.192C91.0786 66.192 90.5066 66.02 90.0346 65.676C89.5706 65.332 89.2146 64.828 88.9666 64.164C88.7266 63.5 88.6066 62.696 88.6066 61.752C88.6066 60.792 88.7266 59.98 88.9666 59.316C89.2146 58.652 89.5706 58.148 90.0346 57.804C90.5066 57.46 91.0786 57.288 91.7506 57.288C92.4226 57.288 92.9906 57.46 93.4546 57.804C93.9266 58.148 94.2826 58.652 94.5226 59.316C94.7706 59.98 94.8946 60.792 94.8946 61.752C94.8946 62.696 94.7706 63.5 94.5226 64.164C94.2826 64.828 93.9266 65.332 93.4546 65.676C92.9906 66.02 92.4226 66.192 91.7506 66.192ZM91.7506 65.184C92.1906 65.184 92.5626 65.056 92.8666 64.8C93.1786 64.536 93.4146 64.148 93.5746 63.636C93.7346 63.124 93.8146 62.496 93.8146 61.752C93.8146 61.008 93.7346 60.38 93.5746 59.868C93.4146 59.348 93.1786 58.956 92.8666 58.692C92.5626 58.428 92.1906 58.296 91.7506 58.296C91.3106 58.296 90.9346 58.428 90.6226 58.692C90.3186 58.956 90.0866 59.348 89.9266 59.868C89.7666 60.38 89.6866 61.008 89.6866 61.752C89.6866 62.496 89.7666 63.124 89.9266 63.636C90.0866 64.148 90.3186 64.536 90.6226 64.8C90.9346 65.056 91.3106 65.184 91.7506 65.184ZM98.3699 65.04L96.7619 58.44H96.8579V66H95.8259V57.48H97.3859L99.0659 64.488H98.5859L100.266 57.48H101.826V66H100.794V58.44H100.89L99.2819 65.04H98.3699ZM110.457 66V57.48H112.473C113.209 57.48 113.849 57.648 114.393 57.984C114.945 58.312 115.369 58.796 115.665 59.436C115.969 60.068 116.121 60.84 116.121 61.752C116.121 62.664 115.969 63.436 115.665 64.068C115.369 64.7 114.945 65.18 114.393 65.508C113.849 65.836 113.209 66 112.473 66H110.457ZM111.489 64.992H112.413C113.245 64.992 113.889 64.724 114.345 64.188C114.809 63.644 115.041 62.832 115.041 61.752C115.041 60.672 114.809 59.86 114.345 59.316C113.889 58.764 113.245 58.488 112.413 58.488H111.489V64.992ZM120.052 66.192C119.38 66.192 118.808 66.02 118.336 65.676C117.872 65.332 117.516 64.828 117.268 64.164C117.028 63.5 116.908 62.696 116.908 61.752C116.908 60.792 117.028 59.98 117.268 59.316C117.516 58.652 117.872 58.148 118.336 57.804C118.808 57.46 119.38 57.288 120.052 57.288C120.724 57.288 121.292 57.46 121.756 57.804C122.228 58.148 122.584 58.652 122.824 59.316C123.072 59.98 123.196 60.792 123.196 61.752C123.196 62.696 123.072 63.5 122.824 64.164C122.584 64.828 122.228 65.332 121.756 65.676C121.292 66.02 120.724 66.192 120.052 66.192ZM120.052 65.184C120.492 65.184 120.864 65.056 121.168 64.8C121.48 64.536 121.716 64.148 121.876 63.636C122.036 63.124 122.116 62.496 122.116 61.752C122.116 61.008 122.036 60.38 121.876 59.868C121.716 59.348 121.48 58.956 121.168 58.692C120.864 58.428 120.492 58.296 120.052 58.296C119.612 58.296 119.236 58.428 118.924 58.692C118.62 58.956 118.388 59.348 118.228 59.868C118.068 60.38 117.988 61.008 117.988 61.752C117.988 62.496 118.068 63.124 118.228 63.636C118.388 64.148 118.62 64.536 118.924 64.8C119.236 65.056 119.612 65.184 120.052 65.184ZM127.151 66.192C126.471 66.192 125.895 66.012 125.423 65.652C124.951 65.292 124.591 64.78 124.343 64.116C124.103 63.452 123.983 62.664 123.983 61.752C123.983 60.832 124.103 60.04 124.343 59.376C124.591 58.712 124.951 58.2 125.423 57.84C125.895 57.472 126.471 57.288 127.151 57.288C127.903 57.288 128.543 57.536 129.071 58.032C129.599 58.52 129.951 59.204 130.127 60.084L129.023 60.156C128.887 59.54 128.651 59.076 128.315 58.764C127.987 58.452 127.599 58.296 127.151 58.296C126.695 58.296 126.311 58.432 125.999 58.704C125.695 58.968 125.463 59.36 125.303 59.88C125.143 60.392 125.063 61.016 125.063 61.752C125.063 62.48 125.143 63.1 125.303 63.612C125.463 64.124 125.695 64.516 125.999 64.788C126.311 65.052 126.695 65.184 127.151 65.184C127.647 65.184 128.067 65.012 128.411 64.668C128.755 64.324 128.987 63.812 129.107 63.132L130.199 63.192C130.047 64.128 129.703 64.864 129.167 65.4C128.631 65.928 127.959 66.192 127.151 66.192ZM134.203 66.192C133.307 66.192 132.603 65.908 132.091 65.34C131.579 64.772 131.323 64 131.323 63.024V57.48H132.355V63.024C132.355 63.728 132.511 64.264 132.823 64.632C133.143 65 133.603 65.184 134.203 65.184C134.803 65.184 135.259 65 135.571 64.632C135.891 64.264 136.051 63.728 136.051 63.024V57.48H137.083V63.024C137.083 64 136.827 64.772 136.315 65.34C135.803 65.908 135.099 66.192 134.203 66.192ZM140.822 65.04L139.214 58.44H139.31V66H138.278V57.48H139.838L141.518 64.488H141.038L142.718 57.48H144.278V66H143.246V58.44H143.342L141.734 65.04H140.822ZM145.833 66V57.48H151.017V58.488H146.865V61.236H150.873V62.22H146.865V64.992H151.113V66H145.833ZM152.668 66V57.48H154.132L157.156 64.824V57.48H158.188V66H156.724L153.7 58.656V66H152.668ZM161.988 66V58.488H159.384V57.48H165.624V58.488H163.02V66H161.988ZM169.711 66.192C169.111 66.192 168.579 66.068 168.115 65.82C167.651 65.572 167.279 65.232 166.999 64.8C166.719 64.36 166.555 63.852 166.507 63.276L167.587 63.204C167.643 63.628 167.763 63.988 167.947 64.284C168.139 64.58 168.383 64.804 168.679 64.956C168.983 65.108 169.335 65.184 169.735 65.184C170.135 65.184 170.471 65.136 170.743 65.04C171.015 64.936 171.219 64.788 171.355 64.596C171.499 64.396 171.571 64.16 171.571 63.888C171.571 63.616 171.507 63.38 171.379 63.18C171.259 62.972 171.027 62.78 170.683 62.604C170.347 62.428 169.847 62.248 169.183 62.064C168.591 61.896 168.111 61.712 167.743 61.512C167.383 61.312 167.119 61.068 166.951 60.78C166.791 60.492 166.711 60.136 166.711 59.712C166.711 59.232 166.823 58.812 167.047 58.452C167.279 58.084 167.607 57.8 168.031 57.6C168.455 57.392 168.959 57.288 169.543 57.288C170.127 57.288 170.627 57.408 171.043 57.648C171.459 57.88 171.787 58.2 172.027 58.608C172.275 59.016 172.431 59.48 172.495 60L171.415 60.072C171.367 59.728 171.267 59.424 171.115 59.16C170.963 58.888 170.755 58.676 170.491 58.524C170.227 58.372 169.903 58.296 169.519 58.296C168.991 58.296 168.571 58.424 168.259 58.68C167.947 58.928 167.791 59.256 167.791 59.664C167.791 59.928 167.847 60.148 167.959 60.324C168.079 60.492 168.287 60.644 168.583 60.78C168.879 60.908 169.295 61.048 169.831 61.2C170.527 61.392 171.079 61.608 171.487 61.848C171.903 62.088 172.199 62.376 172.375 62.712C172.559 63.04 172.651 63.44 172.651 63.912C172.651 64.36 172.527 64.756 172.279 65.1C172.031 65.444 171.687 65.712 171.247 65.904C170.807 66.096 170.295 66.192 169.711 66.192ZM183.214 66V58.488H180.61V57.48H186.85V58.488H184.246V66H183.214ZM190.805 66.192C190.133 66.192 189.561 66.02 189.089 65.676C188.625 65.332 188.269 64.828 188.021 64.164C187.781 63.5 187.661 62.696 187.661 61.752C187.661 60.792 187.781 59.98 188.021 59.316C188.269 58.652 188.625 58.148 189.089 57.804C189.561 57.46 190.133 57.288 190.805 57.288C191.477 57.288 192.045 57.46 192.509 57.804C192.981 58.148 193.337 58.652 193.577 59.316C193.825 59.98 193.949 60.792 193.949 61.752C193.949 62.696 193.825 63.5 193.577 64.164C193.337 64.828 192.981 65.332 192.509 65.676C192.045 66.02 191.477 66.192 190.805 66.192ZM190.805 65.184C191.245 65.184 191.617 65.056 191.921 64.8C192.233 64.536 192.469 64.148 192.629 63.636C192.789 63.124 192.869 62.496 192.869 61.752C192.869 61.008 192.789 60.38 192.629 59.868C192.469 59.348 192.233 58.956 191.921 58.692C191.617 58.428 191.245 58.296 190.805 58.296C190.365 58.296 189.989 58.428 189.677 58.692C189.373 58.956 189.141 59.348 188.981 59.868C188.821 60.38 188.741 61.008 188.741 61.752C188.741 62.496 188.821 63.124 188.981 63.636C189.141 64.148 189.373 64.536 189.677 64.8C189.989 65.056 190.365 65.184 190.805 65.184ZM77.576 84.192C76.976 84.192 76.44 84.028 75.968 83.7C75.504 83.364 75.136 82.868 74.864 82.212C74.592 81.548 74.456 80.728 74.456 79.752C74.456 78.832 74.58 78.04 74.828 77.376C75.084 76.712 75.448 76.2 75.92 75.84C76.392 75.472 76.96 75.288 77.624 75.288C78.144 75.288 78.604 75.404 79.004 75.636C79.412 75.868 79.752 76.192 80.024 76.608C80.296 77.016 80.492 77.488 80.612 78.024L79.532 78.096C79.396 77.568 79.168 77.136 78.848 76.8C78.536 76.464 78.128 76.296 77.624 76.296C77.184 76.296 76.808 76.432 76.496 76.704C76.184 76.968 75.944 77.36 75.776 77.88C75.616 78.392 75.536 79.016 75.536 79.752C75.536 80.48 75.62 81.1 75.788 81.612C75.956 82.124 76.196 82.516 76.508 82.788C76.828 83.052 77.216 83.184 77.672 83.184C78.08 83.184 78.428 83.08 78.716 82.872C79.012 82.656 79.244 82.36 79.412 81.984C79.58 81.6 79.672 81.164 79.688 80.676H77.648V79.692H80.648V84H79.688L79.64 81.984L79.928 82.08C79.816 82.488 79.66 82.852 79.46 83.172C79.268 83.492 79.016 83.744 78.704 83.928C78.4 84.104 78.024 84.192 77.576 84.192ZM82.1553 84V75.48H87.3393V76.488H83.1873V79.236H87.1953V80.22H83.1873V82.992H87.4353V84H82.1553ZM88.9906 84V75.48H90.4546L93.4786 82.824V75.48H94.5106V84H93.0466L90.0226 76.656V84H88.9906ZM96.1859 84V82.992H98.3099V76.488H96.1859V75.48H101.466V76.488H99.3419V82.992H101.466V84H96.1859ZM105.901 84.192C105.005 84.192 104.301 83.908 103.789 83.34C103.277 82.772 103.021 82 103.021 81.024V75.48H104.053V81.024C104.053 81.728 104.209 82.264 104.521 82.632C104.841 83 105.301 83.184 105.901 83.184C106.501 83.184 106.957 83 107.269 82.632C107.589 82.264 107.749 81.728 107.749 81.024V75.48H108.781V81.024C108.781 82 108.525 82.772 108.013 83.34C107.501 83.908 106.797 84.192 105.901 84.192ZM113.109 84.192C112.509 84.192 111.977 84.068 111.513 83.82C111.049 83.572 110.677 83.232 110.397 82.8C110.117 82.36 109.953 81.852 109.905 81.276L110.985 81.204C111.041 81.628 111.161 81.988 111.345 82.284C111.537 82.58 111.781 82.804 112.077 82.956C112.381 83.108 112.733 83.184 113.133 83.184C113.533 83.184 113.869 83.136 114.141 83.04C114.413 82.936 114.617 82.788 114.753 82.596C114.897 82.396 114.969 82.16 114.969 81.888C114.969 81.616 114.905 81.38 114.777 81.18C114.657 80.972 114.425 80.78 114.081 80.604C113.745 80.428 113.245 80.248 112.581 80.064C111.989 79.896 111.509 79.712 111.141 79.512C110.781 79.312 110.517 79.068 110.349 78.78C110.189 78.492 110.109 78.136 110.109 77.712C110.109 77.232 110.221 76.812 110.445 76.452C110.677 76.084 111.005 75.8 111.429 75.6C111.853 75.392 112.357 75.288 112.941 75.288C113.525 75.288 114.025 75.408 114.441 75.648C114.857 75.88 115.185 76.2 115.425 76.608C115.673 77.016 115.829 77.48 115.893 78L114.813 78.072C114.765 77.728 114.665 77.424 114.513 77.16C114.361 76.888 114.153 76.676 113.889 76.524C113.625 76.372 113.301 76.296 112.917 76.296C112.389 76.296 111.969 76.424 111.657 76.68C111.345 76.928 111.189 77.256 111.189 77.664C111.189 77.928 111.245 78.148 111.357 78.324C111.477 78.492 111.685 78.644 111.981 78.78C112.277 78.908 112.693 79.048 113.229 79.2C113.925 79.392 114.477 79.608 114.885 79.848C115.301 80.088 115.597 80.376 115.773 80.712C115.957 81.04 116.049 81.44 116.049 81.912C116.049 82.36 115.925 82.756 115.677 83.1C115.429 83.444 115.085 83.712 114.645 83.904C114.205 84.096 113.693 84.192 113.109 84.192ZM124.487 84V82.992H126.611V76.488H124.487V75.48H129.767V76.488H127.643V82.992H129.767V84H124.487ZM131.443 84V75.48H132.907L135.931 82.824V75.48H136.963V84H135.499L132.475 76.656V84H131.443ZM148.161 84V77.688H145.929V76.8H147.081C147.385 76.8 147.629 76.756 147.813 76.668C148.005 76.58 148.141 76.44 148.221 76.248C148.309 76.056 148.353 75.8 148.353 75.48H149.193V84H148.161ZM145.473 84V82.992H151.233V84H145.473ZM162.528 84.192C161.848 84.192 161.272 84.012 160.8 83.652C160.328 83.292 159.968 82.78 159.72 82.116C159.48 81.452 159.36 80.664 159.36 79.752C159.36 78.832 159.48 78.04 159.72 77.376C159.968 76.712 160.328 76.2 160.8 75.84C161.272 75.472 161.848 75.288 162.528 75.288C163.28 75.288 163.92 75.536 164.448 76.032C164.976 76.52 165.328 77.204 165.504 78.084L164.4 78.156C164.264 77.54 164.028 77.076 163.692 76.764C163.364 76.452 162.976 76.296 162.528 76.296C162.072 76.296 161.688 76.432 161.376 76.704C161.072 76.968 160.84 77.36 160.68 77.88C160.52 78.392 160.44 79.016 160.44 79.752C160.44 80.48 160.52 81.1 160.68 81.612C160.84 82.124 161.072 82.516 161.376 82.788C161.688 83.052 162.072 83.184 162.528 83.184C163.024 83.184 163.444 83.012 163.788 82.668C164.132 82.324 164.364 81.812 164.484 81.132L165.576 81.192C165.424 82.128 165.08 82.864 164.544 83.4C164.008 83.928 163.336 84.192 162.528 84.192ZM167.179 84V75.48H168.211V83.52L167.695 82.992H172.459V84H167.179ZM174.014 84V82.992H176.138V76.488H174.014V75.48H179.294V76.488H177.17V82.992H179.294V84H174.014ZM183.754 84.192C183.074 84.192 182.498 84.012 182.026 83.652C181.554 83.292 181.194 82.78 180.946 82.116C180.706 81.452 180.586 80.664 180.586 79.752C180.586 78.832 180.706 78.04 180.946 77.376C181.194 76.712 181.554 76.2 182.026 75.84C182.498 75.472 183.074 75.288 183.754 75.288C184.506 75.288 185.146 75.536 185.674 76.032C186.202 76.52 186.554 77.204 186.73 78.084L185.626 78.156C185.49 77.54 185.254 77.076 184.918 76.764C184.59 76.452 184.202 76.296 183.754 76.296C183.298 76.296 182.914 76.432 182.602 76.704C182.298 76.968 182.066 77.36 181.906 77.88C181.746 78.392 181.666 79.016 181.666 79.752C181.666 80.48 181.746 81.1 181.906 81.612C182.066 82.124 182.298 82.516 182.602 82.788C182.914 83.052 183.298 83.184 183.754 83.184C184.25 83.184 184.67 83.012 185.014 82.668C185.358 82.324 185.59 81.812 185.71 81.132L186.802 81.192C186.65 82.128 186.306 82.864 185.77 83.4C185.234 83.928 184.562 84.192 183.754 84.192ZM188.837 81.288V79.896L192.533 75.48H193.805L188.837 81.288ZM187.925 84V75.48H188.957V84H187.925ZM192.653 84L189.677 79.68L190.397 78.936L193.925 84H192.653Z" fill="black"/>
</g>
<g filter="url(#filter1_d_8778_512)">
<rect x="259" y="29" width="247" height="84" rx="12" fill="white" shape-rendering="crispEdges"/>
<path d="M302.812 81.4375C303.438 80.1875 304 78.75 304.375 77.0625H299.938L300.688 75.0625H304.688C304.875 73.75 305 72.4375 305 71.0625C305 69.625 304.875 68.3125 304.688 67.0625H293.25C293.125 68 293 69 293 70.0625L291 70.8125C291 69.5 291.062 68.25 291.25 67.0625H285.562C285.188 68.3125 284.938 69.625 284.938 71.0625C284.938 71.6875 285 72.3125 285.125 72.9375L284.5 73.1875C284 73.375 283.562 73.625 283.25 74.0625C283.062 73.0625 283 72.0625 283 71C283 62.1875 290.125 55 299 55C307.812 55 315 62.1875 315 71C315 79.875 307.812 87 299 87C297.938 87 296.938 86.9375 295.938 86.75C296.375 86.4375 296.625 86 296.812 85.5L297.25 84.3125C297.875 84.8125 298.5 85 299 85C300 85 301.5 84.125 302.812 81.4375ZM295.125 60.625C294.5 61.875 293.938 63.3125 293.625 65H304.375C304 63.3125 303.438 61.875 302.812 60.625C301.5 57.9375 300 57 299 57C297.938 57 296.438 57.9375 295.125 60.625ZM307 71C307 72.4375 306.875 73.75 306.75 75H312.375C312.75 73.75 313 72.4375 313 71C313 69.625 312.75 68.3125 312.375 67H306.75C306.875 68.3125 307 69.625 307 71ZM306.375 65H311.625C310 61.625 307.062 59 303.438 57.75C304.75 59.5 305.812 62.0625 306.375 65ZM286.312 65H291.562C292.188 62.0625 293.188 59.5 294.5 57.75C290.875 59 287.938 61.625 286.312 65ZM306.375 77C305.812 80 304.75 82.5 303.438 84.3125C307.062 83.0625 310 80.4375 311.625 77H306.375ZM299.938 71.375L294.938 84.8125C294.812 85.1875 294.438 85.4375 294.062 85.4375C293.625 85.5 293.25 85.25 293.125 84.875L291.188 80.25L284.688 86.75C284.312 87.125 283.625 87.125 283.25 86.75C282.875 86.375 282.875 85.6875 283.25 85.3125L289.75 78.8125L285.125 76.875C284.75 76.75 284.5 76.375 284.562 75.9375C284.562 75.5625 284.812 75.1875 285.188 75.0625L298.625 70.0625C299 69.9375 299.375 70.0625 299.688 70.3125C299.938 70.625 300.062 71 299.938 71.375ZM291.938 77.5C292.188 77.625 292.375 77.8125 292.5 78.0625L294 81.6875L297.312 72.6875L288.312 76L291.938 77.5Z" fill="#4D4F57"/>
<path opacity="0.6" d="M336.096 66V62.52L333.48 57.48H334.656L336.6 61.464L338.544 57.48H339.72L337.128 62.52V66H336.096ZM343.675 66.192C343.003 66.192 342.431 66.02 341.959 65.676C341.495 65.332 341.139 64.828 340.891 64.164C340.651 63.5 340.531 62.696 340.531 61.752C340.531 60.792 340.651 59.98 340.891 59.316C341.139 58.652 341.495 58.148 341.959 57.804C342.431 57.46 343.003 57.288 343.675 57.288C344.347 57.288 344.915 57.46 345.379 57.804C345.851 58.148 346.207 58.652 346.447 59.316C346.695 59.98 346.819 60.792 346.819 61.752C346.819 62.696 346.695 63.5 346.447 64.164C346.207 64.828 345.851 65.332 345.379 65.676C344.915 66.02 344.347 66.192 343.675 66.192ZM343.675 65.184C344.115 65.184 344.487 65.056 344.791 64.8C345.103 64.536 345.339 64.148 345.499 63.636C345.659 63.124 345.739 62.496 345.739 61.752C345.739 61.008 345.659 60.38 345.499 59.868C345.339 59.348 345.103 58.956 344.791 58.692C344.487 58.428 344.115 58.296 343.675 58.296C343.235 58.296 342.859 58.428 342.547 58.692C342.243 58.956 342.011 59.348 341.851 59.868C341.691 60.38 341.611 61.008 341.611 61.752C341.611 62.496 341.691 63.124 341.851 63.636C342.011 64.148 342.243 64.536 342.547 64.8C342.859 65.056 343.235 65.184 343.675 65.184ZM350.751 66.192C349.855 66.192 349.151 65.908 348.639 65.34C348.127 64.772 347.871 64 347.871 63.024V57.48H348.903V63.024C348.903 63.728 349.059 64.264 349.371 64.632C349.691 65 350.151 65.184 350.751 65.184C351.351 65.184 351.807 65 352.119 64.632C352.439 64.264 352.599 63.728 352.599 63.024V57.48H353.631V63.024C353.631 64 353.375 64.772 352.863 65.34C352.351 65.908 351.647 66.192 350.751 66.192ZM355.066 66V57.48H357.658C358.554 57.48 359.262 57.708 359.782 58.164C360.302 58.612 360.562 59.232 360.562 60.024C360.562 60.424 360.47 60.78 360.286 61.092C360.102 61.396 359.866 61.636 359.578 61.812C359.29 61.988 358.994 62.088 358.69 62.112L358.642 61.968C359.21 62 359.634 62.136 359.914 62.376C360.202 62.616 360.37 63.008 360.418 63.552L360.634 66H359.602L359.398 63.684C359.374 63.42 359.31 63.208 359.206 63.048C359.11 62.88 358.954 62.76 358.738 62.688C358.53 62.608 358.242 62.568 357.874 62.568H356.098V66H355.066ZM356.098 61.56H357.658C358.25 61.56 358.702 61.428 359.014 61.164C359.326 60.892 359.482 60.512 359.482 60.024C359.482 59.528 359.326 59.148 359.014 58.884C358.702 58.62 358.25 58.488 357.658 58.488H356.098V61.56ZM369.673 66L368.737 57.48H369.817L370.609 65.4H370.489L371.425 58.44H372.529L373.465 65.4H373.345L374.137 57.48H375.217L374.281 66H372.721L371.833 59.28H372.121L371.233 66H369.673ZM376.532 66V57.48H381.716V58.488H377.564V61.236H381.572V62.22H377.564V64.992H381.812V66H376.532ZM383.607 66V57.48H386.007C386.943 57.48 387.647 57.688 388.119 58.104C388.599 58.52 388.839 59.088 388.839 59.808C388.839 60.16 388.755 60.476 388.587 60.756C388.419 61.036 388.183 61.256 387.879 61.416C387.575 61.576 387.223 61.656 386.823 61.656V61.584C387.319 61.584 387.743 61.668 388.095 61.836C388.455 62.004 388.727 62.24 388.911 62.544C389.103 62.848 389.199 63.208 389.199 63.624C389.199 64.36 388.943 64.94 388.431 65.364C387.919 65.788 387.211 66 386.307 66H383.607ZM384.639 64.992H386.319C386.935 64.992 387.387 64.872 387.675 64.632C387.971 64.392 388.119 64.056 388.119 63.624C388.119 63.168 387.967 62.812 387.663 62.556C387.359 62.3 386.911 62.172 386.319 62.172H384.639V64.992ZM384.639 61.164H386.055C386.647 61.164 387.079 61.048 387.351 60.816C387.623 60.584 387.759 60.256 387.759 59.832C387.759 59.4 387.623 59.068 387.351 58.836C387.079 58.604 386.647 58.488 386.055 58.488H384.639V61.164ZM393.335 66.192C392.735 66.192 392.203 66.068 391.739 65.82C391.275 65.572 390.903 65.232 390.623 64.8C390.343 64.36 390.179 63.852 390.131 63.276L391.211 63.204C391.267 63.628 391.387 63.988 391.571 64.284C391.763 64.58 392.007 64.804 392.303 64.956C392.607 65.108 392.959 65.184 393.359 65.184C393.759 65.184 394.095 65.136 394.367 65.04C394.639 64.936 394.843 64.788 394.979 64.596C395.123 64.396 395.195 64.16 395.195 63.888C395.195 63.616 395.131 63.38 395.003 63.18C394.883 62.972 394.651 62.78 394.307 62.604C393.971 62.428 393.471 62.248 392.807 62.064C392.215 61.896 391.735 61.712 391.367 61.512C391.007 61.312 390.743 61.068 390.575 60.78C390.415 60.492 390.335 60.136 390.335 59.712C390.335 59.232 390.447 58.812 390.671 58.452C390.903 58.084 391.231 57.8 391.655 57.6C392.079 57.392 392.583 57.288 393.167 57.288C393.751 57.288 394.251 57.408 394.667 57.648C395.083 57.88 395.411 58.2 395.651 58.608C395.899 59.016 396.055 59.48 396.119 60L395.039 60.072C394.991 59.728 394.891 59.424 394.739 59.16C394.587 58.888 394.379 58.676 394.115 58.524C393.851 58.372 393.527 58.296 393.143 58.296C392.615 58.296 392.195 58.424 391.883 58.68C391.571 58.928 391.415 59.256 391.415 59.664C391.415 59.928 391.471 60.148 391.583 60.324C391.703 60.492 391.911 60.644 392.207 60.78C392.503 60.908 392.919 61.048 393.455 61.2C394.151 61.392 394.703 61.608 395.111 61.848C395.527 62.088 395.823 62.376 395.999 62.712C396.183 63.04 396.275 63.44 396.275 63.912C396.275 64.36 396.151 64.756 395.903 65.1C395.655 65.444 395.311 65.712 394.871 65.904C394.431 66.096 393.919 66.192 393.335 66.192ZM397.638 66V64.992H399.762V58.488H397.638V57.48H402.918V58.488H400.794V64.992H402.918V66H397.638ZM406.837 66V58.488H404.233V57.48H410.473V58.488H407.869V66H406.837ZM411.908 66V57.48H417.092V58.488H412.94V61.236H416.948V62.22H412.94V64.992H417.188V66H411.908ZM420.868 67.872L421.432 66H420.784V64.536H422.224V65.832L421.468 67.872H420.868ZM435.138 66V58.488H432.534V57.48H438.774V58.488H436.17V66H435.138ZM442.73 66.192C442.058 66.192 441.486 66.02 441.014 65.676C440.55 65.332 440.194 64.828 439.946 64.164C439.706 63.5 439.586 62.696 439.586 61.752C439.586 60.792 439.706 59.98 439.946 59.316C440.194 58.652 440.55 58.148 441.014 57.804C441.486 57.46 442.058 57.288 442.73 57.288C443.402 57.288 443.97 57.46 444.434 57.804C444.906 58.148 445.262 58.652 445.502 59.316C445.75 59.98 445.874 60.792 445.874 61.752C445.874 62.696 445.75 63.5 445.502 64.164C445.262 64.828 444.906 65.332 444.434 65.676C443.97 66.02 443.402 66.192 442.73 66.192ZM442.73 65.184C443.17 65.184 443.542 65.056 443.846 64.8C444.158 64.536 444.394 64.148 444.554 63.636C444.714 63.124 444.794 62.496 444.794 61.752C444.794 61.008 444.714 60.38 444.554 59.868C444.394 59.348 444.158 58.956 443.846 58.692C443.542 58.428 443.17 58.296 442.73 58.296C442.29 58.296 441.914 58.428 441.602 58.692C441.298 58.956 441.066 59.348 440.906 59.868C440.746 60.38 440.666 61.008 440.666 61.752C440.666 62.496 440.746 63.124 440.906 63.636C441.066 64.148 441.298 64.536 441.602 64.8C441.914 65.056 442.29 65.184 442.73 65.184ZM333.312 84L335.904 75.48H337.296L339.888 84H338.784L336.6 76.416L334.416 84H333.312ZM334.62 81.576L334.98 80.568H338.22L338.58 81.576H334.62ZM343.651 84.192C343.051 84.192 342.515 84.028 342.043 83.7C341.579 83.364 341.211 82.868 340.939 82.212C340.667 81.548 340.531 80.728 340.531 79.752C340.531 78.832 340.655 78.04 340.903 77.376C341.159 76.712 341.523 76.2 341.995 75.84C342.467 75.472 343.035 75.288 343.699 75.288C344.219 75.288 344.679 75.404 345.079 75.636C345.487 75.868 345.827 76.192 346.099 76.608C346.371 77.016 346.567 77.488 346.687 78.024L345.607 78.096C345.471 77.568 345.243 77.136 344.923 76.8C344.611 76.464 344.203 76.296 343.699 76.296C343.259 76.296 342.883 76.432 342.571 76.704C342.259 76.968 342.019 77.36 341.851 77.88C341.691 78.392 341.611 79.016 341.611 79.752C341.611 80.48 341.695 81.1 341.863 81.612C342.031 82.124 342.271 82.516 342.583 82.788C342.903 83.052 343.291 83.184 343.747 83.184C344.155 83.184 344.503 83.08 344.791 82.872C345.087 82.656 345.319 82.36 345.487 81.984C345.655 81.6 345.747 81.164 345.763 80.676H343.723V79.692H346.723V84H345.763L345.715 81.984L346.003 82.08C345.891 82.488 345.735 82.852 345.535 83.172C345.343 83.492 345.091 83.744 344.779 83.928C344.475 84.104 344.099 84.192 343.651 84.192ZM348.231 84V75.48H353.415V76.488H349.263V79.236H353.271V80.22H349.263V82.992H353.511V84H348.231ZM355.066 84V75.48H356.53L359.554 82.824V75.48H360.586V84H359.122L356.098 76.656V84H355.066ZM364.385 84V76.488H361.781V75.48H368.021V76.488H365.417V84H364.385ZM371.617 79.404L371.449 76.392V75.48H372.505V76.392L372.337 79.404H371.617ZM379.184 84.192C378.584 84.192 378.052 84.068 377.588 83.82C377.124 83.572 376.752 83.232 376.472 82.8C376.192 82.36 376.028 81.852 375.98 81.276L377.06 81.204C377.116 81.628 377.236 81.988 377.42 82.284C377.612 82.58 377.856 82.804 378.152 82.956C378.456 83.108 378.808 83.184 379.208 83.184C379.608 83.184 379.944 83.136 380.216 83.04C380.488 82.936 380.692 82.788 380.828 82.596C380.972 82.396 381.044 82.16 381.044 81.888C381.044 81.616 380.98 81.38 380.852 81.18C380.732 80.972 380.5 80.78 380.156 80.604C379.82 80.428 379.32 80.248 378.656 80.064C378.064 79.896 377.584 79.712 377.216 79.512C376.856 79.312 376.592 79.068 376.424 78.78C376.264 78.492 376.184 78.136 376.184 77.712C376.184 77.232 376.296 76.812 376.52 76.452C376.752 76.084 377.08 75.8 377.504 75.6C377.928 75.392 378.432 75.288 379.016 75.288C379.6 75.288 380.1 75.408 380.516 75.648C380.932 75.88 381.26 76.2 381.5 76.608C381.748 77.016 381.904 77.48 381.968 78L380.888 78.072C380.84 77.728 380.74 77.424 380.588 77.16C380.436 76.888 380.228 76.676 379.964 76.524C379.7 76.372 379.376 76.296 378.992 76.296C378.464 76.296 378.044 76.424 377.732 76.68C377.42 76.928 377.264 77.256 377.264 77.664C377.264 77.928 377.32 78.148 377.432 78.324C377.552 78.492 377.76 78.644 378.056 78.78C378.352 78.908 378.768 79.048 379.304 79.2C380 79.392 380.552 79.608 380.96 79.848C381.376 80.088 381.672 80.376 381.848 80.712C382.032 81.04 382.124 81.44 382.124 81.912C382.124 82.36 382 82.756 381.752 83.1C381.504 83.444 381.16 83.712 380.72 83.904C380.28 84.096 379.768 84.192 379.184 84.192ZM390.683 84V75.48H393.083C394.019 75.48 394.723 75.688 395.195 76.104C395.675 76.52 395.915 77.088 395.915 77.808C395.915 78.16 395.831 78.476 395.663 78.756C395.495 79.036 395.259 79.256 394.955 79.416C394.651 79.576 394.299 79.656 393.899 79.656V79.584C394.395 79.584 394.819 79.668 395.171 79.836C395.531 80.004 395.803 80.24 395.987 80.544C396.179 80.848 396.275 81.208 396.275 81.624C396.275 82.36 396.019 82.94 395.507 83.364C394.995 83.788 394.287 84 393.383 84H390.683ZM391.715 82.992H393.395C394.011 82.992 394.463 82.872 394.751 82.632C395.047 82.392 395.195 82.056 395.195 81.624C395.195 81.168 395.043 80.812 394.739 80.556C394.435 80.3 393.987 80.172 393.395 80.172H391.715V82.992ZM391.715 79.164H393.131C393.723 79.164 394.155 79.048 394.427 78.816C394.699 78.584 394.835 78.256 394.835 77.832C394.835 77.4 394.699 77.068 394.427 76.836C394.155 76.604 393.723 76.488 393.131 76.488H391.715V79.164ZM397.518 84V75.48H400.11C401.006 75.48 401.714 75.708 402.234 76.164C402.754 76.612 403.014 77.232 403.014 78.024C403.014 78.424 402.922 78.78 402.738 79.092C402.554 79.396 402.318 79.636 402.03 79.812C401.742 79.988 401.446 80.088 401.142 80.112L401.094 79.968C401.662 80 402.086 80.136 402.366 80.376C402.654 80.616 402.822 81.008 402.87 81.552L403.086 84H402.054L401.85 81.684C401.826 81.42 401.762 81.208 401.658 81.048C401.562 80.88 401.406 80.76 401.19 80.688C400.982 80.608 400.694 80.568 400.326 80.568H398.55V84H397.518ZM398.55 79.56H400.11C400.702 79.56 401.154 79.428 401.466 79.164C401.778 78.892 401.934 78.512 401.934 78.024C401.934 77.528 401.778 77.148 401.466 76.884C401.154 76.62 400.702 76.488 400.11 76.488H398.55V79.56ZM404.065 84L406.657 75.48H408.049L410.641 84H409.537L407.353 76.416L405.169 84H404.065ZM405.373 81.576L405.733 80.568H408.973L409.333 81.576H405.373ZM411.788 84V82.992H413.912V76.488H411.788V75.48H417.068V76.488H414.944V82.992H417.068V84H411.788ZM418.744 84V75.48H420.208L423.232 82.824V75.48H424.264V84H422.8L419.776 76.656V84H418.744Z" fill="black"/>
</g>
<g filter="url(#filter2_d_8778_512)">
<rect y="129" width="247" height="84" rx="12" fill="white" shape-rendering="crispEdges"/>
<path d="M22 166C22 168.375 23.125 170.312 24.8125 172.062C25.0625 172.375 25.125 172.875 24.9375 173.25C24.25 174.5 23.5 175.812 22.625 177C24.5625 176.812 26.5625 176.125 28.3125 175.375C28.6875 175.188 29.0625 175 29.4375 174.812C29.625 174.688 29.875 174.688 30.0625 174.688C31.0625 174.938 32 175 33 175C39.375 175 44 170.688 44 166C44 161.375 39.375 157 33 157C26.5625 157 22 161.375 22 166ZM33 155C40.125 155 46 159.938 46 166.062C46 172.125 40.125 177.062 33 177.062C31.9375 177.062 31 176.938 30.0625 176.75C29.75 176.875 29.4375 177.062 29.125 177.188C26.875 178.188 24.1875 179 21.5 179C20.875 179 20.3125 178.688 20.125 178.125C19.875 177.562 19.9375 176.938 20.375 176.5C21.375 175.438 22.125 174.188 22.875 172.875C21.1875 171.062 20 168.812 20 166C20 159.938 25.8125 155 33 155ZM47.9375 165.062C47.875 164.375 47.75 163.688 47.5625 163.062C54.5 163.312 60 168.125 60 174.062C60 176.812 58.75 179.062 57.125 180.938C57.8125 182.25 58.625 183.438 59.5625 184.5C60 184.938 60.0625 185.562 59.875 186.125C59.625 186.688 59.0625 187 58.5 187C55.8125 187 53.0625 186.188 50.8125 185.188C50.5 185 50.1875 184.875 49.9375 184.75C48.9375 184.938 48 185 47 185C41.8125 185 37.4375 182.5 35.3125 178.875C36 178.75 36.6875 178.625 37.375 178.438C39.25 181.125 42.6875 183 47 183C47.9375 183 48.875 182.938 49.875 182.688C50.0625 182.688 50.3125 182.688 50.5 182.812C50.875 183 51.25 183.188 51.625 183.375C53.375 184.125 55.375 184.812 57.375 185C56.4375 183.75 55.6875 182.5 55 181.25C54.8125 180.875 54.875 180.375 55.125 180.062C56.875 178.312 58 176.375 58 174C58 169.562 53.8125 165.438 47.9375 165.062Z" fill="#4D4F57"/>
<path opacity="0.6" d="M77.096 166V162.52L74.48 157.48H75.656L77.6 161.464L79.544 157.48H80.72L78.128 162.52V166H77.096ZM84.6753 166.192C84.0033 166.192 83.4313 166.02 82.9593 165.676C82.4953 165.332 82.1393 164.828 81.8913 164.164C81.6513 163.5 81.5313 162.696 81.5313 161.752C81.5313 160.792 81.6513 159.98 81.8913 159.316C82.1393 158.652 82.4953 158.148 82.9593 157.804C83.4313 157.46 84.0033 157.288 84.6753 157.288C85.3473 157.288 85.9153 157.46 86.3793 157.804C86.8513 158.148 87.2073 158.652 87.4473 159.316C87.6953 159.98 87.8193 160.792 87.8193 161.752C87.8193 162.696 87.6953 163.5 87.4473 164.164C87.2073 164.828 86.8513 165.332 86.3793 165.676C85.9153 166.02 85.3473 166.192 84.6753 166.192ZM84.6753 165.184C85.1153 165.184 85.4873 165.056 85.7913 164.8C86.1033 164.536 86.3393 164.148 86.4993 163.636C86.6593 163.124 86.7393 162.496 86.7393 161.752C86.7393 161.008 86.6593 160.38 86.4993 159.868C86.3393 159.348 86.1033 158.956 85.7913 158.692C85.4873 158.428 85.1153 158.296 84.6753 158.296C84.2353 158.296 83.8593 158.428 83.5473 158.692C83.2433 158.956 83.0113 159.348 82.8513 159.868C82.6913 160.38 82.6113 161.008 82.6113 161.752C82.6113 162.496 82.6913 163.124 82.8513 163.636C83.0113 164.148 83.2433 164.536 83.5473 164.8C83.8593 165.056 84.2353 165.184 84.6753 165.184ZM91.7506 166.192C90.8546 166.192 90.1506 165.908 89.6386 165.34C89.1266 164.772 88.8706 164 88.8706 163.024V157.48H89.9026V163.024C89.9026 163.728 90.0586 164.264 90.3706 164.632C90.6906 165 91.1506 165.184 91.7506 165.184C92.3506 165.184 92.8066 165 93.1186 164.632C93.4386 164.264 93.5986 163.728 93.5986 163.024V157.48H94.6306V163.024C94.6306 164 94.3746 164.772 93.8626 165.34C93.3506 165.908 92.6466 166.192 91.7506 166.192ZM96.0659 166V157.48H98.6579C99.5539 157.48 100.262 157.708 100.782 158.164C101.302 158.612 101.562 159.232 101.562 160.024C101.562 160.424 101.47 160.78 101.286 161.092C101.102 161.396 100.866 161.636 100.578 161.812C100.29 161.988 99.9939 162.088 99.6899 162.112L99.6419 161.968C100.21 162 100.634 162.136 100.914 162.376C101.202 162.616 101.37 163.008 101.418 163.552L101.634 166H100.602L100.398 163.684C100.374 163.42 100.31 163.208 100.206 163.048C100.11 162.88 99.9539 162.76 99.7379 162.688C99.5299 162.608 99.2419 162.568 98.8739 162.568H97.0979V166H96.0659ZM97.0979 161.56H98.6579C99.2499 161.56 99.7019 161.428 100.014 161.164C100.326 160.892 100.482 160.512 100.482 160.024C100.482 159.528 100.326 159.148 100.014 158.884C99.7019 158.62 99.2499 158.488 98.6579 158.488H97.0979V161.56ZM111.009 163.288V161.896L114.705 157.48H115.977L111.009 163.288ZM110.097 166V157.48H111.129V166H110.097ZM114.825 166L111.849 161.68L112.569 160.936L116.097 166H114.825ZM117.292 166V157.48H118.756L121.78 164.824V157.48H122.812V166H121.348L118.324 158.656V166H117.292ZM127.127 166.192C126.455 166.192 125.883 166.02 125.411 165.676C124.947 165.332 124.591 164.828 124.343 164.164C124.103 163.5 123.983 162.696 123.983 161.752C123.983 160.792 124.103 159.98 124.343 159.316C124.591 158.652 124.947 158.148 125.411 157.804C125.883 157.46 126.455 157.288 127.127 157.288C127.799 157.288 128.367 157.46 128.831 157.804C129.303 158.148 129.659 158.652 129.899 159.316C130.147 159.98 130.271 160.792 130.271 161.752C130.271 162.696 130.147 163.5 129.899 164.164C129.659 164.828 129.303 165.332 128.831 165.676C128.367 166.02 127.799 166.192 127.127 166.192ZM127.127 165.184C127.567 165.184 127.939 165.056 128.243 164.8C128.555 164.536 128.791 164.148 128.951 163.636C129.111 163.124 129.191 162.496 129.191 161.752C129.191 161.008 129.111 160.38 128.951 159.868C128.791 159.348 128.555 158.956 128.243 158.692C127.939 158.428 127.567 158.296 127.127 158.296C126.687 158.296 126.311 158.428 125.999 158.692C125.695 158.956 125.463 159.348 125.303 159.868C125.143 160.38 125.063 161.008 125.063 161.752C125.063 162.496 125.143 163.124 125.303 163.636C125.463 164.148 125.695 164.536 125.999 164.8C126.311 165.056 126.687 165.184 127.127 165.184ZM131.899 166L130.963 157.48H132.043L132.835 165.4H132.715L133.651 158.44H134.755L135.691 165.4H135.571L136.363 157.48H137.443L136.507 166H134.947L134.059 159.28H134.347L133.459 166H131.899ZM138.878 166V157.48H139.91V165.52L139.394 164.992H144.158V166H138.878ZM145.833 166V157.48H151.017V158.488H146.865V161.236H150.873V162.22H146.865V164.992H151.113V166H145.833ZM152.908 166V157.48H154.924C155.66 157.48 156.3 157.648 156.844 157.984C157.396 158.312 157.82 158.796 158.116 159.436C158.42 160.068 158.572 160.84 158.572 161.752C158.572 162.664 158.42 163.436 158.116 164.068C157.82 164.7 157.396 165.18 156.844 165.508C156.3 165.836 155.66 166 154.924 166H152.908ZM153.94 164.992H154.864C155.696 164.992 156.34 164.724 156.796 164.188C157.26 163.644 157.492 162.832 157.492 161.752C157.492 160.672 157.26 159.86 156.796 159.316C156.34 158.764 155.696 158.488 154.864 158.488H153.94V164.992ZM162.48 166.192C161.88 166.192 161.344 166.028 160.872 165.7C160.408 165.364 160.04 164.868 159.768 164.212C159.496 163.548 159.36 162.728 159.36 161.752C159.36 160.832 159.484 160.04 159.732 159.376C159.988 158.712 160.352 158.2 160.824 157.84C161.296 157.472 161.864 157.288 162.528 157.288C163.048 157.288 163.508 157.404 163.908 157.636C164.316 157.868 164.656 158.192 164.928 158.608C165.2 159.016 165.396 159.488 165.516 160.024L164.436 160.096C164.3 159.568 164.072 159.136 163.752 158.8C163.44 158.464 163.032 158.296 162.528 158.296C162.088 158.296 161.712 158.432 161.4 158.704C161.088 158.968 160.848 159.36 160.68 159.88C160.52 160.392 160.44 161.016 160.44 161.752C160.44 162.48 160.524 163.1 160.692 163.612C160.86 164.124 161.1 164.516 161.412 164.788C161.732 165.052 162.12 165.184 162.576 165.184C162.984 165.184 163.332 165.08 163.62 164.872C163.916 164.656 164.148 164.36 164.316 163.984C164.484 163.6 164.576 163.164 164.592 162.676H162.552V161.692H165.552V166H164.592L164.544 163.984L164.832 164.08C164.72 164.488 164.564 164.852 164.364 165.172C164.172 165.492 163.92 165.744 163.608 165.928C163.304 166.104 162.928 166.192 162.48 166.192ZM167.059 166V157.48H172.243V158.488H168.091V161.236H172.099V162.22H168.091V164.992H172.339V166H167.059ZM181.09 166V164.992H183.214V158.488H181.09V157.48H186.37V158.488H184.246V164.992H186.37V166H181.09ZM190.937 166.192C190.337 166.192 189.805 166.068 189.341 165.82C188.877 165.572 188.505 165.232 188.225 164.8C187.945 164.36 187.781 163.852 187.733 163.276L188.813 163.204C188.869 163.628 188.989 163.988 189.173 164.284C189.365 164.58 189.609 164.804 189.905 164.956C190.209 165.108 190.561 165.184 190.961 165.184C191.361 165.184 191.697 165.136 191.969 165.04C192.241 164.936 192.445 164.788 192.581 164.596C192.725 164.396 192.797 164.16 192.797 163.888C192.797 163.616 192.733 163.38 192.605 163.18C192.485 162.972 192.253 162.78 191.909 162.604C191.573 162.428 191.073 162.248 190.409 162.064C189.817 161.896 189.337 161.712 188.969 161.512C188.609 161.312 188.345 161.068 188.177 160.78C188.017 160.492 187.937 160.136 187.937 159.712C187.937 159.232 188.049 158.812 188.273 158.452C188.505 158.084 188.833 157.8 189.257 157.6C189.681 157.392 190.185 157.288 190.769 157.288C191.353 157.288 191.853 157.408 192.269 157.648C192.685 157.88 193.013 158.2 193.253 158.608C193.501 159.016 193.657 159.48 193.721 160L192.641 160.072C192.593 159.728 192.493 159.424 192.341 159.16C192.189 158.888 191.981 158.676 191.717 158.524C191.453 158.372 191.129 158.296 190.745 158.296C190.217 158.296 189.797 158.424 189.485 158.68C189.173 158.928 189.017 159.256 189.017 159.664C189.017 159.928 189.073 160.148 189.185 160.324C189.305 160.492 189.513 160.644 189.809 160.78C190.105 160.908 190.521 161.048 191.057 161.2C191.753 161.392 192.305 161.608 192.713 161.848C193.129 162.088 193.425 162.376 193.601 162.712C193.785 163.04 193.877 163.44 193.877 163.912C193.877 164.36 193.753 164.756 193.505 165.1C193.257 165.444 192.913 165.712 192.473 165.904C192.033 166.096 191.521 166.192 190.937 166.192ZM77.096 184V180.52L74.48 175.48H75.656L77.6 179.464L79.544 175.48H80.72L78.128 180.52V184H77.096ZM84.6753 184.192C84.0033 184.192 83.4313 184.02 82.9593 183.676C82.4953 183.332 82.1393 182.828 81.8913 182.164C81.6513 181.5 81.5313 180.696 81.5313 179.752C81.5313 178.792 81.6513 177.98 81.8913 177.316C82.1393 176.652 82.4953 176.148 82.9593 175.804C83.4313 175.46 84.0033 175.288 84.6753 175.288C85.3473 175.288 85.9153 175.46 86.3793 175.804C86.8513 176.148 87.2073 176.652 87.4473 177.316C87.6953 177.98 87.8193 178.792 87.8193 179.752C87.8193 180.696 87.6953 181.5 87.4473 182.164C87.2073 182.828 86.8513 183.332 86.3793 183.676C85.9153 184.02 85.3473 184.192 84.6753 184.192ZM84.6753 183.184C85.1153 183.184 85.4873 183.056 85.7913 182.8C86.1033 182.536 86.3393 182.148 86.4993 181.636C86.6593 181.124 86.7393 180.496 86.7393 179.752C86.7393 179.008 86.6593 178.38 86.4993 177.868C86.3393 177.348 86.1033 176.956 85.7913 176.692C85.4873 176.428 85.1153 176.296 84.6753 176.296C84.2353 176.296 83.8593 176.428 83.5473 176.692C83.2433 176.956 83.0113 177.348 82.8513 177.868C82.6913 178.38 82.6113 179.008 82.6113 179.752C82.6113 180.496 82.6913 181.124 82.8513 181.636C83.0113 182.148 83.2433 182.536 83.5473 182.8C83.8593 183.056 84.2353 183.184 84.6753 183.184ZM91.7506 184.192C90.8546 184.192 90.1506 183.908 89.6386 183.34C89.1266 182.772 88.8706 182 88.8706 181.024V175.48H89.9026V181.024C89.9026 181.728 90.0586 182.264 90.3706 182.632C90.6906 183 91.1506 183.184 91.7506 183.184C92.3506 183.184 92.8066 183 93.1186 182.632C93.4386 182.264 93.5986 181.728 93.5986 181.024V175.48H94.6306V181.024C94.6306 182 94.3746 182.772 93.8626 183.34C93.3506 183.908 92.6466 184.192 91.7506 184.192ZM96.0659 184V175.48H98.6579C99.5539 175.48 100.262 175.708 100.782 176.164C101.302 176.612 101.562 177.232 101.562 178.024C101.562 178.424 101.47 178.78 101.286 179.092C101.102 179.396 100.866 179.636 100.578 179.812C100.29 179.988 99.9939 180.088 99.6899 180.112L99.6419 179.968C100.21 180 100.634 180.136 100.914 180.376C101.202 180.616 101.37 181.008 101.418 181.552L101.634 184H100.602L100.398 181.684C100.374 181.42 100.31 181.208 100.206 181.048C100.11 180.88 99.9539 180.76 99.7379 180.688C99.5299 180.608 99.2419 180.568 98.8739 180.568H97.0979V184H96.0659ZM97.0979 179.56H98.6579C99.2499 179.56 99.7019 179.428 100.014 179.164C100.326 178.892 100.482 178.512 100.482 178.024C100.482 177.528 100.326 177.148 100.014 176.884C99.7019 176.62 99.2499 176.488 98.6579 176.488H97.0979V179.56ZM113.001 184.192C112.321 184.192 111.745 184.012 111.273 183.652C110.801 183.292 110.441 182.78 110.193 182.116C109.953 181.452 109.833 180.664 109.833 179.752C109.833 178.832 109.953 178.04 110.193 177.376C110.441 176.712 110.801 176.2 111.273 175.84C111.745 175.472 112.321 175.288 113.001 175.288C113.753 175.288 114.393 175.536 114.921 176.032C115.449 176.52 115.801 177.204 115.977 178.084L114.873 178.156C114.737 177.54 114.501 177.076 114.165 176.764C113.837 176.452 113.449 176.296 113.001 176.296C112.545 176.296 112.161 176.432 111.849 176.704C111.545 176.968 111.313 177.36 111.153 177.88C110.993 178.392 110.913 179.016 110.913 179.752C110.913 180.48 110.993 181.1 111.153 181.612C111.313 182.124 111.545 182.516 111.849 182.788C112.161 183.052 112.545 183.184 113.001 183.184C113.497 183.184 113.917 183.012 114.261 182.668C114.605 182.324 114.837 181.812 114.957 181.132L116.049 181.192C115.897 182.128 115.553 182.864 115.017 183.4C114.481 183.928 113.809 184.192 113.001 184.192ZM120.052 184.192C119.38 184.192 118.808 184.02 118.336 183.676C117.872 183.332 117.516 182.828 117.268 182.164C117.028 181.5 116.908 180.696 116.908 179.752C116.908 178.792 117.028 177.98 117.268 177.316C117.516 176.652 117.872 176.148 118.336 175.804C118.808 175.46 119.38 175.288 120.052 175.288C120.724 175.288 121.292 175.46 121.756 175.804C122.228 176.148 122.584 176.652 122.824 177.316C123.072 177.98 123.196 178.792 123.196 179.752C123.196 180.696 123.072 181.5 122.824 182.164C122.584 182.828 122.228 183.332 121.756 183.676C121.292 184.02 120.724 184.192 120.052 184.192ZM120.052 183.184C120.492 183.184 120.864 183.056 121.168 182.8C121.48 182.536 121.716 182.148 121.876 181.636C122.036 181.124 122.116 180.496 122.116 179.752C122.116 179.008 122.036 178.38 121.876 177.868C121.716 177.348 121.48 176.956 121.168 176.692C120.864 176.428 120.492 176.296 120.052 176.296C119.612 176.296 119.236 176.428 118.924 176.692C118.62 176.956 118.388 177.348 118.228 177.868C118.068 178.38 117.988 179.008 117.988 179.752C117.988 180.496 118.068 181.124 118.228 181.636C118.388 182.148 118.62 182.536 118.924 182.8C119.236 183.056 119.612 183.184 120.052 183.184ZM126.671 183.04L125.063 176.44H125.159V184H124.127V175.48H125.687L127.367 182.488H126.887L128.567 175.48H130.127V184H129.095V176.44H129.191L127.583 183.04H126.671ZM131.683 184V175.48H134.275C134.867 175.48 135.383 175.584 135.823 175.792C136.263 176 136.603 176.3 136.843 176.692C137.083 177.076 137.203 177.54 137.203 178.084C137.203 178.628 137.083 179.096 136.843 179.488C136.603 179.872 136.263 180.168 135.823 180.376C135.383 180.584 134.867 180.688 134.275 180.688H132.715V184H131.683ZM132.715 179.68H134.155C134.827 179.68 135.323 179.544 135.643 179.272C135.963 178.992 136.123 178.596 136.123 178.084C136.123 177.564 135.963 177.168 135.643 176.896C135.323 176.624 134.827 176.488 134.155 176.488H132.715V179.68ZM138.758 184V175.48H143.942V176.488H139.79V179.236H143.798V180.22H139.79V182.992H144.038V184H138.758ZM147.837 184V176.488H145.233V175.48H151.473V176.488H148.869V184H147.837ZM152.788 184V182.992H154.912V176.488H152.788V175.48H158.068V176.488H155.944V182.992H158.068V184H152.788ZM161.988 184V176.488H159.384V175.48H165.624V176.488H163.02V184H161.988ZM166.939 184V182.992H169.063V176.488H166.939V175.48H172.219V176.488H170.095V182.992H172.219V184H166.939ZM175.982 184L173.414 175.48H174.518L176.798 183.328H176.51L178.79 175.48H179.894L177.326 184H175.982ZM181.21 184V175.48H186.394V176.488H182.242V179.236H186.25V180.22H182.242V182.992H186.49V184H181.21ZM195.36 184V175.48H200.544V176.488H196.392V179.236H200.4V180.22H196.392V182.992H200.64V184H195.36ZM202.436 184V175.48H204.452C205.188 175.48 205.828 175.648 206.372 175.984C206.924 176.312 207.348 176.796 207.644 177.436C207.948 178.068 208.1 178.84 208.1 179.752C208.1 180.664 207.948 181.436 207.644 182.068C207.348 182.7 206.924 183.18 206.372 183.508C205.828 183.836 205.188 184 204.452 184H202.436ZM203.468 182.992H204.392C205.224 182.992 205.868 182.724 206.324 182.188C206.788 181.644 207.02 180.832 207.02 179.752C207.02 178.672 206.788 177.86 206.324 177.316C205.868 176.764 205.224 176.488 204.392 176.488H203.468V182.992ZM212.007 184.192C211.407 184.192 210.871 184.028 210.399 183.7C209.935 183.364 209.567 182.868 209.295 182.212C209.023 181.548 208.887 180.728 208.887 179.752C208.887 178.832 209.011 178.04 209.259 177.376C209.515 176.712 209.879 176.2 210.351 175.84C210.823 175.472 211.391 175.288 212.055 175.288C212.575 175.288 213.035 175.404 213.435 175.636C213.843 175.868 214.183 176.192 214.455 176.608C214.727 177.016 214.923 177.488 215.043 178.024L213.963 178.096C213.827 177.568 213.599 177.136 213.279 176.8C212.967 176.464 212.559 176.296 212.055 176.296C211.615 176.296 211.239 176.432 210.927 176.704C210.615 176.968 210.375 177.36 210.207 177.88C210.047 178.392 209.967 179.016 209.967 179.752C209.967 180.48 210.051 181.1 210.219 181.612C210.387 182.124 210.627 182.516 210.939 182.788C211.259 183.052 211.647 183.184 212.103 183.184C212.511 183.184 212.859 183.08 213.147 182.872C213.443 182.656 213.675 182.36 213.843 181.984C214.011 181.6 214.103 181.164 214.119 180.676H212.079V179.692H215.079V184H214.119L214.071 181.984L214.359 182.08C214.247 182.488 214.091 182.852 213.891 183.172C213.699 183.492 213.447 183.744 213.135 183.928C212.831 184.104 212.455 184.192 212.007 184.192ZM216.586 184V175.48H221.77V176.488H217.618V179.236H221.626V180.22H217.618V182.992H221.866V184H216.586Z" fill="black"/>
</g>
<g filter="url(#filter3_d_8778_512)">
<rect x="259" y="129" width="247" height="84" rx="12" fill="white" shape-rendering="crispEdges"/>
<path d="M285 171C285 178.75 291.25 185 299 185C306.688 185 313 178.75 313 171C313 170.5 313.438 170 314 170C314.5 170 315 170.5 315 171C315 179.875 307.812 187 299 187C290.125 187 283 179.875 283 171C283 162.188 290.125 155 299 155C303 155 306.75 156.562 309.562 159L312.25 156.312C312.625 155.938 313.312 155.938 313.688 156.312C314.062 156.688 314.062 157.375 313.688 157.75L299.688 171.75C299.312 172.125 298.625 172.125 298.25 171.75C297.875 171.375 297.875 170.688 298.25 170.312L301 167.562C300.438 167.25 299.688 167 299 167C296.75 167 295 168.812 295 171C295 173.25 296.75 175 299 175C301.188 175 303 173.25 303 171C303 170.5 303.438 170 304 170C304.5 170 305 170.5 305 171C305 174.312 302.312 177 299 177C295.688 177 293 174.312 293 171C293 167.688 295.688 165 299 165C300.25 165 301.438 165.438 302.438 166.125L304.625 164C303.062 162.75 301.125 162 299 162C295.312 162 292.125 164.25 290.75 167.438C290.5 167.938 289.938 168.188 289.438 167.938C288.875 167.75 288.688 167.125 288.875 166.625C290.562 162.75 294.438 160 299 160C301.625 160 304.125 161 306 162.562L308.125 160.438C305.688 158.312 302.5 157 299 157C291.25 157 285 163.312 285 171ZM309 170C309.5 170 310 170.5 310 171C310 175.562 307.25 179.438 303.375 181.125C302.875 181.312 302.25 181.125 302.062 180.625C301.812 180.062 302.062 179.5 302.562 179.25C305.75 177.875 308 174.688 308 171C308 170.5 308.438 170 309 170ZM289.375 174.125C289.875 173.875 290.5 174.125 290.688 174.625C291.625 176.688 293.312 178.375 295.375 179.25C295.875 179.5 296.125 180.062 295.875 180.562C295.688 181.125 295.062 181.312 294.562 181.125C292 180 290 177.938 288.875 175.438C288.688 174.938 288.875 174.312 289.375 174.125ZM290.5 171C290.5 171.875 289.812 172.5 289 172.5C288.125 172.5 287.5 171.875 287.5 171C287.5 170.188 288.125 169.5 289 169.5C289.812 169.5 290.5 170.188 290.5 171ZM299 182.5C298.125 182.5 297.5 181.875 297.5 181C297.5 180.188 298.125 179.5 299 179.5C299.812 179.5 300.5 180.188 300.5 181C300.5 181.875 299.812 182.5 299 182.5Z" fill="#4D4F57"/>
<path opacity="0.6" d="M333.312 166L335.904 157.48H337.296L339.888 166H338.784L336.6 158.416L334.416 166H333.312ZM334.62 163.576L334.98 162.568H338.22L338.58 163.576H334.62ZM340.915 166V157.48H342.379L345.403 164.824V157.48H346.435V166H344.971L341.947 158.656V166H340.915ZM354.538 166L357.13 157.48H358.522L361.114 166H360.01L357.826 158.416L355.642 166H354.538ZM355.846 163.576L356.206 162.568H359.446L359.806 163.576H355.846ZM362.261 166V164.992H364.385V158.488H362.261V157.48H367.541V158.488H365.417V164.992H367.541V166H362.261ZM376.292 166V157.48H378.884C379.78 157.48 380.488 157.708 381.008 158.164C381.528 158.612 381.788 159.232 381.788 160.024C381.788 160.424 381.696 160.78 381.512 161.092C381.328 161.396 381.092 161.636 380.804 161.812C380.516 161.988 380.22 162.088 379.916 162.112L379.868 161.968C380.436 162 380.86 162.136 381.14 162.376C381.428 162.616 381.596 163.008 381.644 163.552L381.86 166H380.828L380.624 163.684C380.6 163.42 380.536 163.208 380.432 163.048C380.336 162.88 380.18 162.76 379.964 162.688C379.756 162.608 379.468 162.568 379.1 162.568H377.324V166H376.292ZM377.324 161.56H378.884C379.476 161.56 379.928 161.428 380.24 161.164C380.552 160.892 380.708 160.512 380.708 160.024C380.708 159.528 380.552 159.148 380.24 158.884C379.928 158.62 379.476 158.488 378.884 158.488H377.324V161.56ZM383.607 166V157.48H388.791V158.488H384.639V161.236H388.647V162.22H384.639V164.992H388.887V166H383.607ZM393.335 166.192C392.735 166.192 392.203 166.068 391.739 165.82C391.275 165.572 390.903 165.232 390.623 164.8C390.343 164.36 390.179 163.852 390.131 163.276L391.211 163.204C391.267 163.628 391.387 163.988 391.571 164.284C391.763 164.58 392.007 164.804 392.303 164.956C392.607 165.108 392.959 165.184 393.359 165.184C393.759 165.184 394.095 165.136 394.367 165.04C394.639 164.936 394.843 164.788 394.979 164.596C395.123 164.396 395.195 164.16 395.195 163.888C395.195 163.616 395.131 163.38 395.003 163.18C394.883 162.972 394.651 162.78 394.307 162.604C393.971 162.428 393.471 162.248 392.807 162.064C392.215 161.896 391.735 161.712 391.367 161.512C391.007 161.312 390.743 161.068 390.575 160.78C390.415 160.492 390.335 160.136 390.335 159.712C390.335 159.232 390.447 158.812 390.671 158.452C390.903 158.084 391.231 157.8 391.655 157.6C392.079 157.392 392.583 157.288 393.167 157.288C393.751 157.288 394.251 157.408 394.667 157.648C395.083 157.88 395.411 158.2 395.651 158.608C395.899 159.016 396.055 159.48 396.119 160L395.039 160.072C394.991 159.728 394.891 159.424 394.739 159.16C394.587 158.888 394.379 158.676 394.115 158.524C393.851 158.372 393.527 158.296 393.143 158.296C392.615 158.296 392.195 158.424 391.883 158.68C391.571 158.928 391.415 159.256 391.415 159.664C391.415 159.928 391.471 160.148 391.583 160.324C391.703 160.492 391.911 160.644 392.207 160.78C392.503 160.908 392.919 161.048 393.455 161.2C394.151 161.392 394.703 161.608 395.111 161.848C395.527 162.088 395.823 162.376 395.999 162.712C396.183 163.04 396.275 163.44 396.275 163.912C396.275 164.36 396.151 164.756 395.903 165.1C395.655 165.444 395.311 165.712 394.871 165.904C394.431 166.096 393.919 166.192 393.335 166.192ZM397.758 166V157.48H402.942V158.488H398.79V161.236H402.798V162.22H398.79V164.992H403.038V166H397.758ZM404.065 166L406.657 157.48H408.049L410.641 166H409.537L407.353 158.416L405.169 166H404.065ZM405.373 163.576L405.733 162.568H408.973L409.333 163.576H405.373ZM411.668 166V157.48H414.26C415.156 157.48 415.864 157.708 416.384 158.164C416.904 158.612 417.164 159.232 417.164 160.024C417.164 160.424 417.072 160.78 416.888 161.092C416.704 161.396 416.468 161.636 416.18 161.812C415.892 161.988 415.596 162.088 415.292 162.112L415.244 161.968C415.812 162 416.236 162.136 416.516 162.376C416.804 162.616 416.972 163.008 417.02 163.552L417.236 166H416.204L416 163.684C415.976 163.42 415.912 163.208 415.808 163.048C415.712 162.88 415.556 162.76 415.34 162.688C415.132 162.608 414.844 162.568 414.476 162.568H412.7V166H411.668ZM412.7 161.56H414.26C414.852 161.56 415.304 161.428 415.616 161.164C415.928 160.892 416.084 160.512 416.084 160.024C416.084 159.528 415.928 159.148 415.616 158.884C415.304 158.62 414.852 158.488 414.26 158.488H412.7V161.56ZM421.528 166.192C420.848 166.192 420.272 166.012 419.8 165.652C419.328 165.292 418.968 164.78 418.72 164.116C418.48 163.452 418.36 162.664 418.36 161.752C418.36 160.832 418.48 160.04 418.72 159.376C418.968 158.712 419.328 158.2 419.8 157.84C420.272 157.472 420.848 157.288 421.528 157.288C422.28 157.288 422.92 157.536 423.448 158.032C423.976 158.52 424.328 159.204 424.504 160.084L423.4 160.156C423.264 159.54 423.028 159.076 422.692 158.764C422.364 158.452 421.976 158.296 421.528 158.296C421.072 158.296 420.688 158.432 420.376 158.704C420.072 158.968 419.84 159.36 419.68 159.88C419.52 160.392 419.44 161.016 419.44 161.752C419.44 162.48 419.52 163.1 419.68 163.612C419.84 164.124 420.072 164.516 420.376 164.788C420.688 165.052 421.072 165.184 421.528 165.184C422.024 165.184 422.444 165.012 422.788 164.668C423.132 164.324 423.364 163.812 423.484 163.132L424.576 163.192C424.424 164.128 424.08 164.864 423.544 165.4C423.008 165.928 422.336 166.192 421.528 166.192ZM425.699 166V157.48H426.731V161.62L426.203 161.212H430.955L430.427 161.62V157.48H431.459V166H430.427V161.812L430.955 162.22H426.203L426.731 161.812V166H425.699ZM433.134 166V157.48H438.318V158.488H434.166V161.236H438.174V162.22H434.166V164.992H438.414V166H433.134ZM439.97 166V157.48H442.562C443.458 157.48 444.166 157.708 444.686 158.164C445.206 158.612 445.466 159.232 445.466 160.024C445.466 160.424 445.374 160.78 445.19 161.092C445.006 161.396 444.77 161.636 444.482 161.812C444.194 161.988 443.898 162.088 443.594 162.112L443.546 161.968C444.114 162 444.538 162.136 444.818 162.376C445.106 162.616 445.274 163.008 445.322 163.552L445.538 166H444.506L444.302 163.684C444.278 163.42 444.214 163.208 444.11 163.048C444.014 162.88 443.858 162.76 443.642 162.688C443.434 162.608 443.146 162.568 442.778 162.568H441.002V166H439.97ZM441.002 161.56H442.562C443.154 161.56 443.606 161.428 443.918 161.164C444.23 160.892 444.386 160.512 444.386 160.024C444.386 159.528 444.23 159.148 443.918 158.884C443.606 158.62 443.154 158.488 442.562 158.488H441.002V161.56ZM336.084 184V176.488H333.48V175.48H339.72V176.488H337.116V184H336.084ZM340.795 184V175.48H341.827V179.62L341.299 179.212H346.051L345.523 179.62V175.48H346.555V184H345.523V179.812L346.051 180.22H341.299L341.827 179.812V184H340.795ZM347.463 184L350.055 175.48H351.447L354.039 184H352.935L350.751 176.416L348.567 184H347.463ZM348.771 181.576L349.131 180.568H352.371L352.731 181.576H348.771ZM357.31 184V176.488H354.706V175.48H360.946V176.488H358.342V184H357.31ZM369.217 184V175.48H370.681L373.705 182.824V175.48H374.737V184H373.273L370.249 176.656V184H369.217ZM376.532 184V175.48H381.716V176.488H377.564V179.236H381.572V180.22H377.564V182.992H381.812V184H376.532ZM385.455 184L382.887 175.48H383.991L386.271 183.328H385.983L388.263 175.48H389.367L386.799 184H385.455ZM390.683 184V175.48H395.867V176.488H391.715V179.236H395.723V180.22H391.715V182.992H395.963V184H390.683ZM397.518 184V175.48H400.11C401.006 175.48 401.714 175.708 402.234 176.164C402.754 176.612 403.014 177.232 403.014 178.024C403.014 178.424 402.922 178.78 402.738 179.092C402.554 179.396 402.318 179.636 402.03 179.812C401.742 179.988 401.446 180.088 401.142 180.112L401.094 179.968C401.662 180 402.086 180.136 402.366 180.376C402.654 180.616 402.822 181.008 402.87 181.552L403.086 184H402.054L401.85 181.684C401.826 181.42 401.762 181.208 401.658 181.048C401.562 180.88 401.406 180.76 401.19 180.688C400.982 180.608 400.694 180.568 400.326 180.568H398.55V184H397.518ZM398.55 179.56H400.11C400.702 179.56 401.154 179.428 401.466 179.164C401.778 178.892 401.934 178.512 401.934 178.024C401.934 177.528 401.778 177.148 401.466 176.884C401.154 176.62 400.702 176.488 400.11 176.488H398.55V179.56ZM414.56 184.192C413.96 184.192 413.428 184.068 412.964 183.82C412.5 183.572 412.128 183.232 411.848 182.8C411.568 182.36 411.404 181.852 411.356 181.276L412.436 181.204C412.492 181.628 412.612 181.988 412.796 182.284C412.988 182.58 413.232 182.804 413.528 182.956C413.832 183.108 414.184 183.184 414.584 183.184C414.984 183.184 415.32 183.136 415.592 183.04C415.864 182.936 416.068 182.788 416.204 182.596C416.348 182.396 416.42 182.16 416.42 181.888C416.42 181.616 416.356 181.38 416.228 181.18C416.108 180.972 415.876 180.78 415.532 180.604C415.196 180.428 414.696 180.248 414.032 180.064C413.44 179.896 412.96 179.712 412.592 179.512C412.232 179.312 411.968 179.068 411.8 178.78C411.64 178.492 411.56 178.136 411.56 177.712C411.56 177.232 411.672 176.812 411.896 176.452C412.128 176.084 412.456 175.8 412.88 175.6C413.304 175.392 413.808 175.288 414.392 175.288C414.976 175.288 415.476 175.408 415.892 175.648C416.308 175.88 416.636 176.2 416.876 176.608C417.124 177.016 417.28 177.48 417.344 178L416.264 178.072C416.216 177.728 416.116 177.424 415.964 177.16C415.812 176.888 415.604 176.676 415.34 176.524C415.076 176.372 414.752 176.296 414.368 176.296C413.84 176.296 413.42 176.424 413.108 176.68C412.796 176.928 412.64 177.256 412.64 177.664C412.64 177.928 412.696 178.148 412.808 178.324C412.928 178.492 413.136 178.644 413.432 178.78C413.728 178.908 414.144 179.048 414.68 179.2C415.376 179.392 415.928 179.608 416.336 179.848C416.752 180.088 417.048 180.376 417.224 180.712C417.408 181.04 417.5 181.44 417.5 181.912C417.5 182.36 417.376 182.756 417.128 183.1C416.88 183.444 416.536 183.712 416.096 183.904C415.656 184.096 415.144 184.192 414.56 184.192ZM419.104 184V175.48H420.136V183.52L419.62 182.992H424.384V184H419.104ZM426.059 184V175.48H431.243V176.488H427.091V179.236H431.099V180.22H427.091V182.992H431.339V184H426.059ZM433.134 184V175.48H438.318V176.488H434.166V179.236H438.174V180.22H434.166V182.992H438.414V184H433.134ZM440.21 184V175.48H442.802C443.394 175.48 443.91 175.584 444.35 175.792C444.79 176 445.13 176.3 445.37 176.692C445.61 177.076 445.73 177.54 445.73 178.084C445.73 178.628 445.61 179.096 445.37 179.488C445.13 179.872 444.79 180.168 444.35 180.376C443.91 180.584 443.394 180.688 442.802 180.688H441.242V184H440.21ZM441.242 179.68H442.682C443.354 179.68 443.85 179.544 444.17 179.272C444.49 178.992 444.65 178.596 444.65 178.084C444.65 177.564 444.49 177.168 444.17 176.896C443.85 176.624 443.354 176.488 442.682 176.488H441.242V179.68ZM449.937 184.192C449.337 184.192 448.805 184.068 448.341 183.82C447.877 183.572 447.505 183.232 447.225 182.8C446.945 182.36 446.781 181.852 446.733 181.276L447.813 181.204C447.869 181.628 447.989 181.988 448.173 182.284C448.365 182.58 448.609 182.804 448.905 182.956C449.209 183.108 449.561 183.184 449.961 183.184C450.361 183.184 450.697 183.136 450.969 183.04C451.241 182.936 451.445 182.788 451.581 182.596C451.725 182.396 451.797 182.16 451.797 181.888C451.797 181.616 451.733 181.38 451.605 181.18C451.485 180.972 451.253 180.78 450.909 180.604C450.573 180.428 450.073 180.248 449.409 180.064C448.817 179.896 448.337 179.712 447.969 179.512C447.609 179.312 447.345 179.068 447.177 178.78C447.017 178.492 446.937 178.136 446.937 177.712C446.937 177.232 447.049 176.812 447.273 176.452C447.505 176.084 447.833 175.8 448.257 175.6C448.681 175.392 449.185 175.288 449.769 175.288C450.353 175.288 450.853 175.408 451.269 175.648C451.685 175.88 452.013 176.2 452.253 176.608C452.501 177.016 452.657 177.48 452.721 178L451.641 178.072C451.593 177.728 451.493 177.424 451.341 177.16C451.189 176.888 450.981 176.676 450.717 176.524C450.453 176.372 450.129 176.296 449.745 176.296C449.217 176.296 448.797 176.424 448.485 176.68C448.173 176.928 448.017 177.256 448.017 177.664C448.017 177.928 448.073 178.148 448.185 178.324C448.305 178.492 448.513 178.644 448.809 178.78C449.105 178.908 449.521 179.048 450.057 179.2C450.753 179.392 451.305 179.608 451.713 179.848C452.129 180.088 452.425 180.376 452.601 180.712C452.785 181.04 452.877 181.44 452.877 181.912C452.877 182.36 452.753 182.756 452.505 183.1C452.257 183.444 451.913 183.712 451.473 183.904C451.033 184.096 450.521 184.192 449.937 184.192Z" fill="black"/>
</g>
<defs>
<filter id="filter0_d_8778_512" x="-4" y="25" width="263" height="100" filterUnits="userSpaceOnUse" color-interpolation-filters="sRGB">
<feFlood flood-opacity="0" result="BackgroundImageFix"/>
<feColorMatrix in="SourceAlpha" type="matrix" values="0 0 0 0 0 0 0 0 0 0 0 0 0 0 0 0 0 0 127 0" result="hardAlpha"/>
<feOffset dx="4" dy="4"/>
<feGaussianBlur stdDeviation="4"/>
<feComposite in2="hardAlpha" operator="out"/>
<feColorMatrix type="matrix" values="0 0 0 0 0 0 0 0 0 0 0 0 0 0 0 0 0 0 0.04 0"/>
<feBlend mode="normal" in2="BackgroundImageFix" result="effect1_dropShadow_8778_512"/>
<feBlend mode="normal" in="SourceGraphic" in2="effect1_dropShadow_8778_512" result="shape"/>
</filter>
<filter id="filter1_d_8778_512" x="255" y="25" width="263" height="100" filterUnits="userSpaceOnUse" color-interpolation-filters="sRGB">
<feFlood flood-opacity="0" result="BackgroundImageFix"/>
<feColorMatrix in="SourceAlpha" type="matrix" values="0 0 0 0 0 0 0 0 0 0 0 0 0 0 0 0 0 0 127 0" result="hardAlpha"/>
<feOffset dx="4" dy="4"/>
<feGaussianBlur stdDeviation="4"/>
<feComposite in2="hardAlpha" operator="out"/>
<feColorMatrix type="matrix" values="0 0 0 0 0 0 0 0 0 0 0 0 0 0 0 0 0 0 0.04 0"/>
<feBlend mode="normal" in2="BackgroundImageFix" result="effect1_dropShadow_8778_512"/>
<feBlend mode="normal" in="SourceGraphic" in2="effect1_dropShadow_8778_512" result="shape"/>
</filter>
<filter id="filter2_d_8778_512" x="-4" y="125" width="263" height="100" filterUnits="userSpaceOnUse" color-interpolation-filters="sRGB">
<feFlood flood-opacity="0" result="BackgroundImageFix"/>
<feColorMatrix in="SourceAlpha" type="matrix" values="0 0 0 0 0 0 0 0 0 0 0 0 0 0 0 0 0 0 127 0" result="hardAlpha"/>
<feOffset dx="4" dy="4"/>
<feGaussianBlur stdDeviation="4"/>
<feComposite in2="hardAlpha" operator="out"/>
<feColorMatrix type="matrix" values="0 0 0 0 0 0 0 0 0 0 0 0 0 0 0 0 0 0 0.04 0"/>
<feBlend mode="normal" in2="BackgroundImageFix" result="effect1_dropShadow_8778_512"/>
<feBlend mode="normal" in="SourceGraphic" in2="effect1_dropShadow_8778_512" result="shape"/>
</filter>
<filter id="filter3_d_8778_512" x="255" y="125" width="263" height="100" filterUnits="userSpaceOnUse" color-interpolation-filters="sRGB">
<feFlood flood-opacity="0" result="BackgroundImageFix"/>
<feColorMatrix in="SourceAlpha" type="matrix" values="0 0 0 0 0 0 0 0 0 0 0 0 0 0 0 0 0 0 127 0" result="hardAlpha"/>
<feOffset dx="4" dy="4"/>
<feGaussianBlur stdDeviation="4"/>
<feComposite in2="hardAlpha" operator="out"/>
<feColorMatrix type="matrix" values="0 0 0 0 0 0 0 0 0 0 0 0 0 0 0 0 0 0 0.04 0"/>
<feBlend mode="normal" in2="BackgroundImageFix" result="effect1_dropShadow_8778_512"/>
<feBlend mode="normal" in="SourceGraphic" in2="effect1_dropShadow_8778_512" result="shape"/>
</filter>
</defs>
</svg>
