<svg width="469" height="216" viewBox="0 0 469 216" fill="none" xmlns="http://www.w3.org/2000/svg">
<g filter="url(#filter0_d_8778_596)">
<rect width="247" height="64" rx="12" fill="white" shape-rendering="crispEdges"/>
<path d="M22.0235 28V36H29.9765V28H22.0235ZM41.9765 36C39.7647 36 37.9765 34.2118 37.9765 32C37.9765 29.7882 39.7647 28 41.9765 28C44.1882 28 45.9765 29.7882 45.9765 32C45.9765 34.2118 44.1882 36 41.9765 36ZM37.9765 36V44H29.9765V36H37.9765ZM37.9765 20V28H29.9765V20H37.9765Z" fill="black"/>
<path opacity="0.6" d="M62.312 36L64.904 27.48H66.296L68.888 36H67.784L65.6 28.416L63.416 36H62.312ZM63.62 33.576L63.98 32.568H67.22L67.58 33.576H63.62ZM72.6873 36.192C72.0873 36.192 71.5553 36.068 71.0913 35.82C70.6273 35.572 70.2553 35.232 69.9753 34.8C69.6953 34.36 69.5313 33.852 69.4833 33.276L70.5633 33.204C70.6193 33.628 70.7393 33.988 70.9233 34.284C71.1153 34.58 71.3593 34.804 71.6553 34.956C71.9593 35.108 72.3113 35.184 72.7113 35.184C73.1113 35.184 73.4473 35.136 73.7193 35.04C73.9913 34.936 74.1953 34.788 74.3313 34.596C74.4753 34.396 74.5473 34.16 74.5473 33.888C74.5473 33.616 74.4833 33.38 74.3553 33.18C74.2353 32.972 74.0033 32.78 73.6593 32.604C73.3233 32.428 72.8233 32.248 72.1593 32.064C71.5673 31.896 71.0873 31.712 70.7193 31.512C70.3593 31.312 70.0953 31.068 69.9273 30.78C69.7673 30.492 69.6873 30.136 69.6873 29.712C69.6873 29.232 69.7993 28.812 70.0233 28.452C70.2553 28.084 70.5833 27.8 71.0073 27.6C71.4313 27.392 71.9353 27.288 72.5193 27.288C73.1033 27.288 73.6033 27.408 74.0193 27.648C74.4353 27.88 74.7633 28.2 75.0033 28.608C75.2513 29.016 75.4073 29.48 75.4713 30L74.3913 30.072C74.3433 29.728 74.2433 29.424 74.0913 29.16C73.9393 28.888 73.7313 28.676 73.4673 28.524C73.2033 28.372 72.8793 28.296 72.4953 28.296C71.9673 28.296 71.5473 28.424 71.2353 28.68C70.9233 28.928 70.7673 29.256 70.7673 29.664C70.7673 29.928 70.8233 30.148 70.9353 30.324C71.0553 30.492 71.2633 30.644 71.5593 30.78C71.8553 30.908 72.2713 31.048 72.8073 31.2C73.5033 31.392 74.0553 31.608 74.4633 31.848C74.8793 32.088 75.1753 32.376 75.3513 32.712C75.5353 33.04 75.6273 33.44 75.6273 33.912C75.6273 34.36 75.5033 34.756 75.2553 35.1C75.0073 35.444 74.6633 35.712 74.2233 35.904C73.7833 36.096 73.2713 36.192 72.6873 36.192ZM76.8706 36V34.992H78.9946V28.488H76.8706V27.48H82.1506V28.488H80.0266V34.992H82.1506V36H76.8706ZM85.7219 36V34.536H87.2099V36H85.7219ZM85.7219 31.368V29.904H87.2099V31.368H85.7219ZM93.4213 36.192C92.7493 36.192 92.1773 36.02 91.7053 35.676C91.2413 35.332 90.8853 34.828 90.6373 34.164C90.3973 33.5 90.2773 32.696 90.2773 31.752C90.2773 30.792 90.3973 29.98 90.6373 29.316C90.8853 28.652 91.2413 28.148 91.7053 27.804C92.1773 27.46 92.7493 27.288 93.4213 27.288C94.0933 27.288 94.6613 27.46 95.1253 27.804C95.5973 28.148 95.9533 28.652 96.1933 29.316C96.4413 29.98 96.5653 30.792 96.5653 31.752C96.5653 32.696 96.4413 33.5 96.1933 34.164C95.9533 34.828 95.5973 35.332 95.1253 35.676C94.6613 36.02 94.0933 36.192 93.4213 36.192ZM93.4213 35.184C93.8613 35.184 94.2333 35.056 94.5373 34.8C94.8493 34.536 95.0853 34.148 95.2453 33.636C95.4053 33.124 95.4853 32.496 95.4853 31.752C95.4853 31.008 95.4053 30.38 95.2453 29.868C95.0853 29.348 94.8493 28.956 94.5373 28.692C94.2333 28.428 93.8613 28.296 93.4213 28.296C92.9813 28.296 92.6053 28.428 92.2933 28.692C91.9893 28.956 91.7573 29.348 91.5973 29.868C91.4373 30.38 91.3573 31.008 91.3573 31.752C91.3573 32.496 91.4373 33.124 91.5973 33.636C91.7573 34.148 91.9893 34.536 92.2933 34.8C92.6053 35.056 92.9813 35.184 93.4213 35.184ZM97.6166 36V27.48H99.0806L102.105 34.824V27.48H103.137V36H101.673L98.6486 28.656V36H97.6166ZM104.812 36V27.48H109.996V28.488H105.844V31.236H109.852V32.22H105.844V34.992H110.092V36H104.812ZM118.723 36V27.48H121.315C121.907 27.48 122.423 27.584 122.863 27.792C123.303 28 123.643 28.3 123.883 28.692C124.123 29.076 124.243 29.54 124.243 30.084C124.243 30.628 124.123 31.096 123.883 31.488C123.643 31.872 123.303 32.168 122.863 32.376C122.423 32.584 121.907 32.688 121.315 32.688H119.755V36H118.723ZM119.755 31.68H121.195C121.867 31.68 122.363 31.544 122.683 31.272C123.003 30.992 123.163 30.596 123.163 30.084C123.163 29.564 123.003 29.168 122.683 28.896C122.363 28.624 121.867 28.488 121.195 28.488H119.755V31.68ZM128.198 36.192C127.302 36.192 126.598 35.908 126.086 35.34C125.574 34.772 125.318 34 125.318 33.024V27.48H126.35V33.024C126.35 33.728 126.506 34.264 126.818 34.632C127.138 35 127.598 35.184 128.198 35.184C128.798 35.184 129.254 35 129.566 34.632C129.886 34.264 130.046 33.728 130.046 33.024V27.48H131.078V33.024C131.078 34 130.822 34.772 130.31 35.34C129.798 35.908 129.094 36.192 128.198 36.192ZM132.633 36V27.48H135.033C135.969 27.48 136.673 27.688 137.145 28.104C137.625 28.52 137.865 29.088 137.865 29.808C137.865 30.16 137.781 30.476 137.613 30.756C137.445 31.036 137.209 31.256 136.905 31.416C136.601 31.576 136.249 31.656 135.849 31.656V31.584C136.345 31.584 136.769 31.668 137.121 31.836C137.481 32.004 137.753 32.24 137.937 32.544C138.129 32.848 138.225 33.208 138.225 33.624C138.225 34.36 137.969 34.94 137.457 35.364C136.945 35.788 136.237 36 135.333 36H132.633ZM133.665 34.992H135.345C135.961 34.992 136.413 34.872 136.701 34.632C136.997 34.392 137.145 34.056 137.145 33.624C137.145 33.168 136.993 32.812 136.689 32.556C136.385 32.3 135.937 32.172 135.345 32.172H133.665V34.992ZM133.665 31.164H135.081C135.673 31.164 136.105 31.048 136.377 30.816C136.649 30.584 136.785 30.256 136.785 29.832C136.785 29.4 136.649 29.068 136.377 28.836C136.105 28.604 135.673 28.488 135.081 28.488H133.665V31.164ZM139.708 36V27.48H140.74V35.52L140.224 34.992H144.988V36H139.708ZM146.424 36V34.992H148.548V28.488H146.424V27.48H151.704V28.488H149.58V34.992H151.704V36H146.424ZM156.151 36.192C155.551 36.192 155.019 36.068 154.555 35.82C154.091 35.572 153.719 35.232 153.439 34.8C153.159 34.36 152.995 33.852 152.947 33.276L154.027 33.204C154.083 33.628 154.203 33.988 154.387 34.284C154.579 34.58 154.823 34.804 155.119 34.956C155.423 35.108 155.775 35.184 156.175 35.184C156.575 35.184 156.911 35.136 157.183 35.04C157.455 34.936 157.659 34.788 157.795 34.596C157.939 34.396 158.011 34.16 158.011 33.888C158.011 33.616 157.947 33.38 157.819 33.18C157.699 32.972 157.467 32.78 157.123 32.604C156.787 32.428 156.287 32.248 155.623 32.064C155.031 31.896 154.551 31.712 154.183 31.512C153.823 31.312 153.559 31.068 153.391 30.78C153.231 30.492 153.151 30.136 153.151 29.712C153.151 29.232 153.263 28.812 153.487 28.452C153.719 28.084 154.047 27.8 154.471 27.6C154.895 27.392 155.399 27.288 155.983 27.288C156.567 27.288 157.067 27.408 157.483 27.648C157.899 27.88 158.227 28.2 158.467 28.608C158.715 29.016 158.871 29.48 158.935 30L157.855 30.072C157.807 29.728 157.707 29.424 157.555 29.16C157.403 28.888 157.195 28.676 156.931 28.524C156.667 28.372 156.343 28.296 155.959 28.296C155.431 28.296 155.011 28.424 154.699 28.68C154.387 28.928 154.231 29.256 154.231 29.664C154.231 29.928 154.287 30.148 154.399 30.324C154.519 30.492 154.727 30.644 155.023 30.78C155.319 30.908 155.735 31.048 156.271 31.2C156.967 31.392 157.519 31.608 157.927 31.848C158.343 32.088 158.639 32.376 158.815 32.712C158.999 33.04 159.091 33.44 159.091 33.912C159.091 34.36 158.967 34.756 158.719 35.1C158.471 35.444 158.127 35.712 157.687 35.904C157.247 36.096 156.735 36.192 156.151 36.192ZM160.094 36V27.48H161.126V31.62L160.598 31.212H165.35L164.822 31.62V27.48H165.854V36H164.822V31.812L165.35 32.22H160.598L161.126 31.812V36H160.094ZM167.29 36V34.992H169.414V28.488H167.29V27.48H172.57V28.488H170.446V34.992H172.57V36H167.29ZM174.125 36V27.48H175.589L178.613 34.824V27.48H179.645V36H178.181L175.157 28.656V36H174.125ZM183.816 36.192C183.216 36.192 182.68 36.028 182.208 35.7C181.744 35.364 181.376 34.868 181.104 34.212C180.832 33.548 180.696 32.728 180.696 31.752C180.696 30.832 180.82 30.04 181.068 29.376C181.324 28.712 181.688 28.2 182.16 27.84C182.632 27.472 183.2 27.288 183.864 27.288C184.384 27.288 184.844 27.404 185.244 27.636C185.652 27.868 185.992 28.192 186.264 28.608C186.536 29.016 186.732 29.488 186.852 30.024L185.772 30.096C185.636 29.568 185.408 29.136 185.088 28.8C184.776 28.464 184.368 28.296 183.864 28.296C183.424 28.296 183.048 28.432 182.736 28.704C182.424 28.968 182.184 29.36 182.016 29.88C181.856 30.392 181.776 31.016 181.776 31.752C181.776 32.48 181.86 33.1 182.028 33.612C182.196 34.124 182.436 34.516 182.748 34.788C183.068 35.052 183.456 35.184 183.912 35.184C184.32 35.184 184.668 35.08 184.956 34.872C185.252 34.656 185.484 34.36 185.652 33.984C185.82 33.6 185.912 33.164 185.928 32.676H183.888V31.692H186.888V36H185.928L185.88 33.984L186.168 34.08C186.056 34.488 185.9 34.852 185.7 35.172C185.508 35.492 185.256 35.744 184.944 35.928C184.64 36.104 184.264 36.192 183.816 36.192Z" fill="black"/>
</g>
<g filter="url(#filter1_d_8778_596)">
<rect x="259" width="247" height="64" rx="12" fill="white" shape-rendering="crispEdges"/>
<path d="M295.145 38.1211C295.496 37.418 295.813 36.6094 296.023 35.6602H293.527L293.949 34.5352H296.199C296.305 33.7969 296.375 33.0586 296.375 32.2852C296.375 31.4766 296.305 30.7383 296.199 30.0352H289.766C289.695 30.5625 289.625 31.125 289.625 31.7227L288.5 32.1445C288.5 31.4062 288.535 30.7031 288.641 30.0352H285.441C285.23 30.7383 285.09 31.4766 285.09 32.2852C285.09 32.6367 285.125 32.9883 285.195 33.3398L284.844 33.4805C284.563 33.5859 284.316 33.7266 284.141 33.9727C284.035 33.4102 284 32.8477 284 32.25C284 27.293 288.008 23.25 293 23.25C297.957 23.25 302 27.293 302 32.25C302 37.2422 297.957 41.25 293 41.25C292.402 41.25 291.84 41.2148 291.277 41.1094C291.523 40.9336 291.664 40.6875 291.77 40.4062L292.016 39.7383C292.367 40.0195 292.719 40.125 293 40.125C293.563 40.125 294.406 39.6328 295.145 38.1211ZM290.82 26.4141C290.469 27.1172 290.152 27.9258 289.977 28.875H296.023C295.813 27.9258 295.496 27.1172 295.145 26.4141C294.406 24.9023 293.563 24.375 293 24.375C292.402 24.375 291.559 24.9023 290.82 26.4141ZM297.5 32.25C297.5 33.0586 297.43 33.7969 297.359 34.5H300.523C300.734 33.7969 300.875 33.0586 300.875 32.25C300.875 31.4766 300.734 30.7383 300.523 30H297.359C297.43 30.7383 297.5 31.4766 297.5 32.25ZM297.148 28.875H300.102C299.188 26.9766 297.535 25.5 295.496 24.7969C296.234 25.7812 296.832 27.2227 297.148 28.875ZM285.863 28.875H288.816C289.168 27.2227 289.73 25.7812 290.469 24.7969C288.43 25.5 286.777 26.9766 285.863 28.875ZM297.148 35.625C296.832 37.3125 296.234 38.7188 295.496 39.7383C297.535 39.0352 299.188 37.5586 300.102 35.625H297.148ZM293.527 32.4609L290.715 40.0195C290.645 40.2305 290.434 40.3711 290.223 40.3711C289.977 40.4062 289.766 40.2656 289.695 40.0547L288.605 37.4531L284.949 41.1094C284.738 41.3203 284.352 41.3203 284.141 41.1094C283.93 40.8984 283.93 40.5117 284.141 40.3008L287.797 36.6445L285.195 35.5547C284.984 35.4844 284.844 35.2734 284.879 35.0273C284.879 34.8164 285.02 34.6055 285.23 34.5352L292.789 31.7227C293 31.6523 293.211 31.7227 293.387 31.8633C293.527 32.0391 293.598 32.25 293.527 32.4609ZM289.027 35.9062C289.168 35.9766 289.273 36.082 289.344 36.2227L290.188 38.2617L292.051 33.1992L286.988 35.0625L289.027 35.9062Z" fill="black"/>
<path opacity="0.6" d="M322.296 36L321.36 27.48H322.44L323.232 35.4H323.112L324.048 28.44H325.152L326.088 35.4H325.968L326.76 27.48H327.84L326.904 36H325.344L324.456 29.28H324.744L323.856 36H322.296ZM329.035 36V27.48H334.219V28.488H330.067V31.236H334.075V32.22H330.067V34.992H334.315V36H329.035ZM335.991 36V27.48H338.391C339.327 27.48 340.031 27.688 340.503 28.104C340.983 28.52 341.223 29.088 341.223 29.808C341.223 30.16 341.139 30.476 340.971 30.756C340.803 31.036 340.567 31.256 340.263 31.416C339.959 31.576 339.607 31.656 339.207 31.656V31.584C339.703 31.584 340.127 31.668 340.479 31.836C340.839 32.004 341.111 32.24 341.295 32.544C341.487 32.848 341.583 33.208 341.583 33.624C341.583 34.36 341.327 34.94 340.815 35.364C340.303 35.788 339.595 36 338.691 36H335.991ZM337.023 34.992H338.703C339.319 34.992 339.771 34.872 340.059 34.632C340.355 34.392 340.503 34.056 340.503 33.624C340.503 33.168 340.351 32.812 340.047 32.556C339.743 32.3 339.295 32.172 338.703 32.172H337.023V34.992ZM337.023 31.164H338.439C339.031 31.164 339.463 31.048 339.735 30.816C340.007 30.584 340.143 30.256 340.143 29.832C340.143 29.4 340.007 29.068 339.735 28.836C339.463 28.604 339.031 28.488 338.439 28.488H337.023V31.164ZM352.553 36.192C351.953 36.192 351.421 36.068 350.957 35.82C350.493 35.572 350.121 35.232 349.841 34.8C349.561 34.36 349.397 33.852 349.349 33.276L350.429 33.204C350.485 33.628 350.605 33.988 350.789 34.284C350.981 34.58 351.225 34.804 351.521 34.956C351.825 35.108 352.177 35.184 352.577 35.184C352.977 35.184 353.313 35.136 353.585 35.04C353.857 34.936 354.061 34.788 354.197 34.596C354.341 34.396 354.413 34.16 354.413 33.888C354.413 33.616 354.349 33.38 354.221 33.18C354.101 32.972 353.869 32.78 353.525 32.604C353.189 32.428 352.689 32.248 352.025 32.064C351.433 31.896 350.953 31.712 350.585 31.512C350.225 31.312 349.961 31.068 349.793 30.78C349.633 30.492 349.553 30.136 349.553 29.712C349.553 29.232 349.665 28.812 349.889 28.452C350.121 28.084 350.449 27.8 350.873 27.6C351.297 27.392 351.801 27.288 352.385 27.288C352.969 27.288 353.469 27.408 353.885 27.648C354.301 27.88 354.629 28.2 354.869 28.608C355.117 29.016 355.273 29.48 355.337 30L354.257 30.072C354.209 29.728 354.109 29.424 353.957 29.16C353.805 28.888 353.597 28.676 353.333 28.524C353.069 28.372 352.745 28.296 352.361 28.296C351.833 28.296 351.413 28.424 351.101 28.68C350.789 28.928 350.633 29.256 350.633 29.664C350.633 29.928 350.689 30.148 350.801 30.324C350.921 30.492 351.129 30.644 351.425 30.78C351.721 30.908 352.137 31.048 352.673 31.2C353.369 31.392 353.921 31.608 354.329 31.848C354.745 32.088 355.041 32.376 355.217 32.712C355.401 33.04 355.493 33.44 355.493 33.912C355.493 34.36 355.369 34.756 355.121 35.1C354.873 35.444 354.529 35.712 354.089 35.904C353.649 36.096 353.137 36.192 352.553 36.192ZM356.857 36V27.48H362.041V28.488H357.889V31.236H361.897V32.22H357.889V34.992H362.137V36H356.857ZM363.044 36L365.636 27.48H367.028L369.62 36H368.516L366.332 28.416L364.148 36H363.044ZM364.352 33.576L364.712 32.568H367.952L368.312 33.576H364.352ZM370.527 36V27.48H373.119C374.015 27.48 374.723 27.708 375.243 28.164C375.763 28.612 376.023 29.232 376.023 30.024C376.023 30.424 375.931 30.78 375.747 31.092C375.563 31.396 375.327 31.636 375.039 31.812C374.751 31.988 374.455 32.088 374.151 32.112L374.103 31.968C374.671 32 375.095 32.136 375.375 32.376C375.663 32.616 375.831 33.008 375.879 33.552L376.095 36H375.063L374.859 33.684C374.835 33.42 374.771 33.208 374.667 33.048C374.571 32.88 374.415 32.76 374.199 32.688C373.991 32.608 373.703 32.568 373.335 32.568H371.559V36H370.527ZM371.559 31.56H373.119C373.711 31.56 374.163 31.428 374.475 31.164C374.787 30.892 374.943 30.512 374.943 30.024C374.943 29.528 374.787 29.148 374.475 28.884C374.163 28.62 373.711 28.488 373.119 28.488H371.559V31.56ZM380.267 36.192C379.587 36.192 379.011 36.012 378.539 35.652C378.067 35.292 377.707 34.78 377.459 34.116C377.219 33.452 377.099 32.664 377.099 31.752C377.099 30.832 377.219 30.04 377.459 29.376C377.707 28.712 378.067 28.2 378.539 27.84C379.011 27.472 379.587 27.288 380.267 27.288C381.019 27.288 381.659 27.536 382.187 28.032C382.715 28.52 383.067 29.204 383.243 30.084L382.139 30.156C382.003 29.54 381.767 29.076 381.431 28.764C381.103 28.452 380.715 28.296 380.267 28.296C379.811 28.296 379.427 28.432 379.115 28.704C378.811 28.968 378.579 29.36 378.419 29.88C378.259 30.392 378.179 31.016 378.179 31.752C378.179 32.48 378.259 33.1 378.419 33.612C378.579 34.124 378.811 34.516 379.115 34.788C379.427 35.052 379.811 35.184 380.267 35.184C380.763 35.184 381.183 35.012 381.527 34.668C381.871 34.324 382.103 33.812 382.223 33.132L383.315 33.192C383.163 34.128 382.819 34.864 382.283 35.4C381.747 35.928 381.075 36.192 380.267 36.192ZM384.318 36V27.48H385.35V31.62L384.822 31.212H389.574L389.046 31.62V27.48H390.078V36H389.046V31.812L389.574 32.22H384.822L385.35 31.812V36H384.318ZM400.592 36V28.488H397.988V27.48H404.228V28.488H401.624V36H400.592ZM408.064 36.192C407.392 36.192 406.82 36.02 406.348 35.676C405.884 35.332 405.528 34.828 405.28 34.164C405.04 33.5 404.92 32.696 404.92 31.752C404.92 30.792 405.04 29.98 405.28 29.316C405.528 28.652 405.884 28.148 406.348 27.804C406.82 27.46 407.392 27.288 408.064 27.288C408.736 27.288 409.304 27.46 409.768 27.804C410.24 28.148 410.596 28.652 410.836 29.316C411.084 29.98 411.208 30.792 411.208 31.752C411.208 32.696 411.084 33.5 410.836 34.164C410.596 34.828 410.24 35.332 409.768 35.676C409.304 36.02 408.736 36.192 408.064 36.192ZM408.064 35.184C408.504 35.184 408.876 35.056 409.18 34.8C409.492 34.536 409.728 34.148 409.888 33.636C410.048 33.124 410.128 32.496 410.128 31.752C410.128 31.008 410.048 30.38 409.888 29.868C409.728 29.348 409.492 28.956 409.18 28.692C408.876 28.428 408.504 28.296 408.064 28.296C407.624 28.296 407.248 28.428 406.936 28.692C406.632 28.956 406.4 29.348 406.24 29.868C406.08 30.38 406 31.008 406 31.752C406 32.496 406.08 33.124 406.24 33.636C406.4 34.148 406.632 34.536 406.936 34.8C407.248 35.056 407.624 35.184 408.064 35.184ZM415.019 36.192C414.347 36.192 413.775 36.02 413.303 35.676C412.839 35.332 412.483 34.828 412.235 34.164C411.995 33.5 411.875 32.696 411.875 31.752C411.875 30.792 411.995 29.98 412.235 29.316C412.483 28.652 412.839 28.148 413.303 27.804C413.775 27.46 414.347 27.288 415.019 27.288C415.691 27.288 416.259 27.46 416.723 27.804C417.195 28.148 417.551 28.652 417.791 29.316C418.039 29.98 418.163 30.792 418.163 31.752C418.163 32.696 418.039 33.5 417.791 34.164C417.551 34.828 417.195 35.332 416.723 35.676C416.259 36.02 415.691 36.192 415.019 36.192ZM415.019 35.184C415.459 35.184 415.831 35.056 416.135 34.8C416.447 34.536 416.683 34.148 416.843 33.636C417.003 33.124 417.083 32.496 417.083 31.752C417.083 31.008 417.003 30.38 416.843 29.868C416.683 29.348 416.447 28.956 416.135 28.692C415.831 28.428 415.459 28.296 415.019 28.296C414.579 28.296 414.203 28.428 413.891 28.692C413.587 28.956 413.355 29.348 413.195 29.868C413.035 30.38 412.955 31.008 412.955 31.752C412.955 32.496 413.035 33.124 413.195 33.636C413.355 34.148 413.587 34.536 413.891 34.8C414.203 35.056 414.579 35.184 415.019 35.184ZM419.574 36V27.48H420.606V35.52L420.09 34.992H424.854V36H419.574Z" fill="black"/>
</g>
<g filter="url(#filter2_d_8778_596)">
<rect y="76" width="247" height="64" rx="12" fill="white" shape-rendering="crispEdges"/>
<path d="M25.75 97.5H30.25C31.4688 97.5 32.5 98.5312 32.5 99.75V104.25C32.5 105.516 31.4688 106.5 30.25 106.5H25.75C24.4844 106.5 23.5 105.516 23.5 104.25V99.75C23.5 98.5312 24.4844 97.5 25.75 97.5ZM25.75 109.5H30.25C31.4688 109.5 32.5 110.531 32.5 111.75V116.25C32.5 117.516 31.4688 118.5 30.25 118.5H25.75C24.4844 118.5 23.5 117.516 23.5 116.25V111.75C23.5 110.531 24.4844 109.5 25.75 109.5ZM35.5 99.75C35.5 98.5312 36.4844 97.5 37.75 97.5H42.25C43.4688 97.5 44.5 98.5312 44.5 99.75V104.25C44.5 105.516 43.4688 106.5 42.25 106.5H37.75C36.4844 106.5 35.5 105.516 35.5 104.25V99.75ZM40 108.75C40.6094 108.75 41.125 109.266 41.125 109.875V112.875H44.125C44.7344 112.875 45.25 113.391 45.25 114C45.25 114.656 44.7344 115.125 44.125 115.125H41.125V118.125C41.125 118.781 40.6094 119.25 40 119.25C39.3438 119.25 38.875 118.781 38.875 118.125V115.125H35.875C35.2188 115.125 34.75 114.656 34.75 114C34.75 113.391 35.2188 112.875 35.875 112.875H38.875V109.875C38.875 109.266 39.3438 108.75 40 108.75Z" fill="black"/>
<path opacity="0.6" d="M65.624 112.192C64.944 112.192 64.368 112.012 63.896 111.652C63.424 111.292 63.064 110.78 62.816 110.116C62.576 109.452 62.456 108.664 62.456 107.752C62.456 106.832 62.576 106.04 62.816 105.376C63.064 104.712 63.424 104.2 63.896 103.84C64.368 103.472 64.944 103.288 65.624 103.288C66.376 103.288 67.016 103.536 67.544 104.032C68.072 104.52 68.424 105.204 68.6 106.084L67.496 106.156C67.36 105.54 67.124 105.076 66.788 104.764C66.46 104.452 66.072 104.296 65.624 104.296C65.168 104.296 64.784 104.432 64.472 104.704C64.168 104.968 63.936 105.36 63.776 105.88C63.616 106.392 63.536 107.016 63.536 107.752C63.536 108.48 63.616 109.1 63.776 109.612C63.936 110.124 64.168 110.516 64.472 110.788C64.784 111.052 65.168 111.184 65.624 111.184C66.12 111.184 66.54 111.012 66.884 110.668C67.228 110.324 67.46 109.812 67.58 109.132L68.672 109.192C68.52 110.128 68.176 110.864 67.64 111.4C67.104 111.928 66.432 112.192 65.624 112.192ZM69.6753 112V103.48H70.7073V107.62L70.1793 107.212H74.9313L74.4033 107.62V103.48H75.4353V112H74.4033V107.812L74.9313 108.22H70.1793L70.7073 107.812V112H69.6753ZM76.2226 112L78.8146 103.48H80.2066L82.7986 112H81.6946L79.5106 104.416L77.3266 112H76.2226ZM77.5306 109.576L77.8906 108.568H81.1306L81.4906 109.576H77.5306ZM85.9499 112V104.488H83.3459V103.48H89.5859V104.488H86.9819V112H85.9499ZM98.0726 112L97.1366 103.48H98.2166L99.0086 111.4H98.8886L99.8246 104.44H100.929L101.865 111.4H101.745L102.537 103.48H103.617L102.681 112H101.121L100.233 105.28H100.521L99.6326 112H98.0726ZM104.692 112V110.992H106.816V104.488H104.692V103.48H109.972V104.488H107.848V110.992H109.972V112H104.692ZM111.767 112V103.48H113.783C114.519 103.48 115.159 103.648 115.703 103.984C116.255 104.312 116.679 104.796 116.975 105.436C117.279 106.068 117.431 106.84 117.431 107.752C117.431 108.664 117.279 109.436 116.975 110.068C116.679 110.7 116.255 111.18 115.703 111.508C115.159 111.836 114.519 112 113.783 112H111.767ZM112.799 110.992H113.723C114.555 110.992 115.199 110.724 115.655 110.188C116.119 109.644 116.351 108.832 116.351 107.752C116.351 106.672 116.119 105.86 115.655 105.316C115.199 104.764 114.555 104.488 113.723 104.488H112.799V110.992ZM121.219 112.192C120.619 112.192 120.083 112.028 119.611 111.7C119.147 111.364 118.779 110.868 118.507 110.212C118.235 109.548 118.099 108.728 118.099 107.752C118.099 106.832 118.223 106.04 118.471 105.376C118.727 104.712 119.091 104.2 119.563 103.84C120.035 103.472 120.603 103.288 121.267 103.288C121.787 103.288 122.247 103.404 122.647 103.636C123.055 103.868 123.395 104.192 123.667 104.608C123.939 105.016 124.135 105.488 124.255 106.024L123.175 106.096C123.039 105.568 122.811 105.136 122.491 104.8C122.179 104.464 121.771 104.296 121.267 104.296C120.827 104.296 120.451 104.432 120.139 104.704C119.827 104.968 119.587 105.36 119.419 105.88C119.259 106.392 119.179 107.016 119.179 107.752C119.179 108.48 119.263 109.1 119.431 109.612C119.599 110.124 119.839 110.516 120.151 110.788C120.471 111.052 120.859 111.184 121.315 111.184C121.723 111.184 122.071 111.08 122.359 110.872C122.655 110.656 122.887 110.36 123.055 109.984C123.223 109.6 123.315 109.164 123.331 108.676H121.291V107.692H124.291V112H123.331L123.283 109.984L123.571 110.08C123.459 110.488 123.303 110.852 123.103 111.172C122.911 111.492 122.659 111.744 122.347 111.928C122.043 112.104 121.667 112.192 121.219 112.192ZM125.678 112V103.48H130.862V104.488H126.71V107.236H130.718V108.22H126.71V110.992H130.958V112H125.678ZM134.637 112V104.488H132.033V103.48H138.273V104.488H135.669V112H134.637Z" fill="black"/>
</g>
<g filter="url(#filter3_d_8778_596)">
<rect x="259" y="76" width="247" height="64" rx="12" fill="white" shape-rendering="crispEdges"/>
<path d="M294.722 108.144C294.722 107.2 293.943 106.421 293 106.421C292.057 106.421 291.278 107.2 291.278 108.144C291.278 109.087 292.057 109.866 293 109.866C293.943 109.866 294.722 109.087 294.722 108.144ZM287.752 108.021C288.736 108.021 289.556 108.841 289.556 109.866C289.556 110.891 288.736 111.711 287.752 111.711C286.768 111.711 285.948 110.891 285.948 109.866C285.948 108.841 286.768 108.021 287.752 108.021ZM298.248 108.021C299.232 108.021 300.052 108.841 300.052 109.866C300.052 110.891 299.232 111.711 298.248 111.711C297.223 111.711 296.444 110.891 296.444 109.866C296.444 108.841 297.223 108.021 298.248 108.021ZM287.752 102.731C288.531 102.731 289.146 103.346 289.146 104.125C289.146 104.863 288.49 105.519 287.752 105.519C287.014 105.519 286.399 104.863 286.399 104.125C286.399 103.346 287.014 102.731 287.752 102.731ZM285.169 99C285.784 99 286.276 99.533 286.276 100.148C286.276 100.763 285.784 101.255 285.169 101.255C284.554 101.255 284.062 100.763 284.062 100.148C284.062 99.533 284.554 99 285.169 99ZM284.595 112.777C285.743 112.777 286.686 113.72 286.686 114.909C286.686 116.057 285.743 117 284.595 117C283.405 117 282.503 116.057 282.503 114.909C282.503 113.72 283.405 112.777 284.595 112.777ZM301.364 112.777C302.554 112.777 303.497 113.72 303.497 114.909C303.497 116.057 302.554 117 301.364 117C300.216 117 299.273 116.057 299.273 114.909C299.273 113.72 300.216 112.777 301.364 112.777ZM293 112.777C294.148 112.777 295.091 113.72 295.091 114.909C295.091 116.057 294.148 117 293 117C291.852 117 290.909 116.057 290.909 114.909C290.909 113.72 291.852 112.777 293 112.777ZM296.895 104.125C296.895 103.346 297.51 102.731 298.248 102.731C299.027 102.731 299.642 103.346 299.642 104.125C299.642 104.863 299.027 105.478 298.248 105.478C297.51 105.478 296.895 104.863 296.895 104.125ZM299.765 100.148C299.765 99.492 300.298 99 300.872 99C301.487 99 301.979 99.533 301.979 100.148C301.979 100.763 301.487 101.255 300.872 101.255C300.298 101.255 299.765 100.763 299.765 100.148Z" fill="black"/>
<path opacity="0.6" d="M321.312 112L323.904 103.48H325.296L327.888 112H326.784L324.6 104.416L322.416 112H321.312ZM322.62 109.576L322.98 108.568H326.22L326.58 109.576H322.62ZM331.531 112.192C330.931 112.192 330.395 112.028 329.923 111.7C329.459 111.364 329.091 110.868 328.819 110.212C328.547 109.548 328.411 108.728 328.411 107.752C328.411 106.832 328.535 106.04 328.783 105.376C329.039 104.712 329.403 104.2 329.875 103.84C330.347 103.472 330.915 103.288 331.579 103.288C332.099 103.288 332.559 103.404 332.959 103.636C333.367 103.868 333.707 104.192 333.979 104.608C334.251 105.016 334.447 105.488 334.567 106.024L333.487 106.096C333.351 105.568 333.123 105.136 332.803 104.8C332.491 104.464 332.083 104.296 331.579 104.296C331.139 104.296 330.763 104.432 330.451 104.704C330.139 104.968 329.899 105.36 329.731 105.88C329.571 106.392 329.491 107.016 329.491 107.752C329.491 108.48 329.575 109.1 329.743 109.612C329.911 110.124 330.151 110.516 330.463 110.788C330.783 111.052 331.171 111.184 331.627 111.184C332.035 111.184 332.383 111.08 332.671 110.872C332.967 110.656 333.199 110.36 333.367 109.984C333.535 109.6 333.627 109.164 333.643 108.676H331.603V107.692H334.603V112H333.643L333.595 109.984L333.883 110.08C333.771 110.488 333.615 110.852 333.415 111.172C333.223 111.492 332.971 111.744 332.659 111.928C332.355 112.104 331.979 112.192 331.531 112.192ZM335.991 112V103.48H341.175V104.488H337.023V107.236H341.031V108.22H337.023V110.992H341.271V112H335.991ZM342.706 112V103.48H344.17L347.194 110.824V103.48H348.226V112H346.762L343.738 104.656V112H342.706ZM351.905 112V104.488H349.301V103.48H355.541V104.488H352.937V112H351.905ZM358.705 112L356.137 103.48H357.241L359.521 111.328H359.233L361.513 103.48H362.617L360.049 112H358.705ZM363.812 112V103.48H368.996V104.488H364.844V107.236H368.852V108.22H364.844V110.992H369.092V112H363.812ZM370.527 112V103.48H373.119C374.015 103.48 374.723 103.708 375.243 104.164C375.763 104.612 376.023 105.232 376.023 106.024C376.023 106.424 375.931 106.78 375.747 107.092C375.563 107.396 375.327 107.636 375.039 107.812C374.751 107.988 374.455 108.088 374.151 108.112L374.103 107.968C374.671 108 375.095 108.136 375.375 108.376C375.663 108.616 375.831 109.008 375.879 109.552L376.095 112H375.063L374.859 109.684C374.835 109.42 374.771 109.208 374.667 109.048C374.571 108.88 374.415 108.76 374.199 108.688C373.991 108.608 373.703 108.568 373.335 108.568H371.559V112H370.527ZM371.559 107.56H373.119C373.711 107.56 374.163 107.428 374.475 107.164C374.787 106.892 374.943 106.512 374.943 106.024C374.943 105.528 374.787 105.148 374.475 104.884C374.163 104.62 373.711 104.488 373.119 104.488H371.559V107.56ZM380.375 112.192C379.775 112.192 379.243 112.068 378.779 111.82C378.315 111.572 377.943 111.232 377.663 110.8C377.383 110.36 377.219 109.852 377.171 109.276L378.251 109.204C378.307 109.628 378.427 109.988 378.611 110.284C378.803 110.58 379.047 110.804 379.343 110.956C379.647 111.108 379.999 111.184 380.399 111.184C380.799 111.184 381.135 111.136 381.407 111.04C381.679 110.936 381.883 110.788 382.019 110.596C382.163 110.396 382.235 110.16 382.235 109.888C382.235 109.616 382.171 109.38 382.043 109.18C381.923 108.972 381.691 108.78 381.347 108.604C381.011 108.428 380.511 108.248 379.847 108.064C379.255 107.896 378.775 107.712 378.407 107.512C378.047 107.312 377.783 107.068 377.615 106.78C377.455 106.492 377.375 106.136 377.375 105.712C377.375 105.232 377.487 104.812 377.711 104.452C377.943 104.084 378.271 103.8 378.695 103.6C379.119 103.392 379.623 103.288 380.207 103.288C380.791 103.288 381.291 103.408 381.707 103.648C382.123 103.88 382.451 104.2 382.691 104.608C382.939 105.016 383.095 105.48 383.159 106L382.079 106.072C382.031 105.728 381.931 105.424 381.779 105.16C381.627 104.888 381.419 104.676 381.155 104.524C380.891 104.372 380.567 104.296 380.183 104.296C379.655 104.296 379.235 104.424 378.923 104.68C378.611 104.928 378.455 105.256 378.455 105.664C378.455 105.928 378.511 106.148 378.623 106.324C378.743 106.492 378.951 106.644 379.247 106.78C379.543 106.908 379.959 107.048 380.495 107.2C381.191 107.392 381.743 107.608 382.151 107.848C382.567 108.088 382.863 108.376 383.039 108.712C383.223 109.04 383.315 109.44 383.315 109.912C383.315 110.36 383.191 110.756 382.943 111.1C382.695 111.444 382.351 111.712 381.911 111.904C381.471 112.096 380.959 112.192 380.375 112.192ZM384.678 112V103.48H389.862V104.488H385.71V107.236H389.718V108.22H385.71V110.992H389.958V112H384.678Z" fill="black"/>
</g>
<g filter="url(#filter4_d_8778_596)">
<rect y="152" width="247" height="64" rx="12" fill="white" shape-rendering="crispEdges"/>
<path d="M34 174.812C39.3125 174.812 43.6875 179.188 43.6875 184.5C43.6875 189.852 39.3125 194.188 34 194.188C28.6484 194.188 24.3125 189.852 24.3125 184.5C24.3125 179.188 28.6484 174.812 34 174.812ZM38.4531 181.414C38.4922 181.297 38.4922 181.18 38.4531 181.023C38.4531 180.945 38.375 180.828 38.3359 180.789C38.2188 180.672 38.0234 180.672 37.9453 180.672C37.5938 180.672 37.0078 180.867 34.3125 182C33.375 182.391 31.5 183.172 28.6875 184.422C28.2188 184.617 27.9844 184.773 27.9453 184.969C27.9063 185.281 28.4141 185.398 29 185.594C29.5078 185.75 30.1719 185.945 30.5234 185.945C30.8359 185.945 31.1875 185.828 31.5781 185.555C34.1953 183.758 35.5625 182.859 35.6406 182.859C35.7188 182.859 35.7969 182.82 35.8359 182.859C35.9141 182.938 35.9141 183.016 35.875 183.055C35.8359 183.25 33.375 185.516 33.2188 185.672C32.6719 186.219 32.0469 186.57 33.0234 187.195C33.8438 187.742 34.3125 188.094 35.1719 188.641C35.7188 188.992 36.1484 189.422 36.6953 189.383C36.9688 189.344 37.2422 189.109 37.3594 188.367C37.7109 186.688 38.3359 182.938 38.4531 181.414Z" fill="black"/>
<path opacity="0.6" d="M65.084 188V180.488H62.48V179.48H68.72V180.488H66.116V188H65.084ZM70.1553 188V179.48H75.3393V180.488H71.1873V183.236H75.1953V184.22H71.1873V186.992H75.4353V188H70.1553ZM77.3506 188V179.48H78.3826V187.52L77.8666 186.992H82.6306V188H77.3506ZM84.3059 188V179.48H89.4899V180.488H85.3379V183.236H89.3459V184.22H85.3379V186.992H89.5859V188H84.3059ZM93.8773 188.192C93.2773 188.192 92.7413 188.028 92.2693 187.7C91.8053 187.364 91.4373 186.868 91.1653 186.212C90.8933 185.548 90.7573 184.728 90.7573 183.752C90.7573 182.832 90.8813 182.04 91.1293 181.376C91.3853 180.712 91.7493 180.2 92.2213 179.84C92.6933 179.472 93.2613 179.288 93.9253 179.288C94.4453 179.288 94.9053 179.404 95.3053 179.636C95.7133 179.868 96.0533 180.192 96.3253 180.608C96.5973 181.016 96.7933 181.488 96.9133 182.024L95.8333 182.096C95.6973 181.568 95.4693 181.136 95.1493 180.8C94.8373 180.464 94.4293 180.296 93.9253 180.296C93.4853 180.296 93.1093 180.432 92.7973 180.704C92.4853 180.968 92.2453 181.36 92.0773 181.88C91.9173 182.392 91.8373 183.016 91.8373 183.752C91.8373 184.48 91.9213 185.1 92.0893 185.612C92.2573 186.124 92.4973 186.516 92.8093 186.788C93.1293 187.052 93.5173 187.184 93.9733 187.184C94.3813 187.184 94.7293 187.08 95.0173 186.872C95.3133 186.656 95.5453 186.36 95.7133 185.984C95.8813 185.6 95.9733 185.164 95.9893 184.676H93.9493V183.692H96.9493V188H95.9893L95.9413 185.984L96.2293 186.08C96.1173 186.488 95.9613 186.852 95.7613 187.172C95.5693 187.492 95.3173 187.744 95.0053 187.928C94.7013 188.104 94.3253 188.192 93.8773 188.192ZM98.2166 188V179.48H100.809C101.705 179.48 102.413 179.708 102.933 180.164C103.453 180.612 103.713 181.232 103.713 182.024C103.713 182.424 103.621 182.78 103.437 183.092C103.253 183.396 103.017 183.636 102.729 183.812C102.441 183.988 102.145 184.088 101.841 184.112L101.793 183.968C102.361 184 102.785 184.136 103.065 184.376C103.353 184.616 103.521 185.008 103.569 185.552L103.785 188H102.753L102.549 185.684C102.525 185.42 102.461 185.208 102.357 185.048C102.261 184.88 102.105 184.76 101.889 184.688C101.681 184.608 101.393 184.568 101.025 184.568H99.2486V188H98.2166ZM99.2486 183.56H100.809C101.401 183.56 101.853 183.428 102.165 183.164C102.477 182.892 102.633 182.512 102.633 182.024C102.633 181.528 102.477 181.148 102.165 180.884C101.853 180.62 101.401 180.488 100.809 180.488H99.2486V183.56ZM104.764 188L107.356 179.48H108.748L111.34 188H110.236L108.052 180.416L105.868 188H104.764ZM106.072 185.576L106.432 184.568H109.672L110.032 185.576H106.072ZM114.671 187.04L113.063 180.44H113.159V188H112.127V179.48H113.687L115.367 186.488H114.887L116.567 179.48H118.127V188H117.095V180.44H117.191L115.583 187.04H114.671ZM129.302 188.192C128.622 188.192 128.046 188.012 127.574 187.652C127.102 187.292 126.742 186.78 126.494 186.116C126.254 185.452 126.134 184.664 126.134 183.752C126.134 182.832 126.254 182.04 126.494 181.376C126.742 180.712 127.102 180.2 127.574 179.84C128.046 179.472 128.622 179.288 129.302 179.288C130.054 179.288 130.694 179.536 131.222 180.032C131.75 180.52 132.102 181.204 132.278 182.084L131.174 182.156C131.038 181.54 130.802 181.076 130.466 180.764C130.138 180.452 129.75 180.296 129.302 180.296C128.846 180.296 128.462 180.432 128.15 180.704C127.846 180.968 127.614 181.36 127.454 181.88C127.294 182.392 127.214 183.016 127.214 183.752C127.214 184.48 127.294 185.1 127.454 185.612C127.614 186.124 127.846 186.516 128.15 186.788C128.462 187.052 128.846 187.184 129.302 187.184C129.798 187.184 130.218 187.012 130.562 186.668C130.906 186.324 131.138 185.812 131.258 185.132L132.35 185.192C132.198 186.128 131.854 186.864 131.318 187.4C130.782 187.928 130.11 188.192 129.302 188.192ZM136.353 188.192C135.681 188.192 135.109 188.02 134.637 187.676C134.173 187.332 133.817 186.828 133.569 186.164C133.329 185.5 133.209 184.696 133.209 183.752C133.209 182.792 133.329 181.98 133.569 181.316C133.817 180.652 134.173 180.148 134.637 179.804C135.109 179.46 135.681 179.288 136.353 179.288C137.025 179.288 137.593 179.46 138.057 179.804C138.529 180.148 138.885 180.652 139.125 181.316C139.373 181.98 139.497 182.792 139.497 183.752C139.497 184.696 139.373 185.5 139.125 186.164C138.885 186.828 138.529 187.332 138.057 187.676C137.593 188.02 137.025 188.192 136.353 188.192ZM136.353 187.184C136.793 187.184 137.165 187.056 137.469 186.8C137.781 186.536 138.017 186.148 138.177 185.636C138.337 185.124 138.417 184.496 138.417 183.752C138.417 183.008 138.337 182.38 138.177 181.868C138.017 181.348 137.781 180.956 137.469 180.692C137.165 180.428 136.793 180.296 136.353 180.296C135.913 180.296 135.537 180.428 135.225 180.692C134.921 180.956 134.689 181.348 134.529 181.868C134.369 182.38 134.289 183.008 134.289 183.752C134.289 184.496 134.369 185.124 134.529 185.636C134.689 186.148 134.921 186.536 135.225 186.8C135.537 187.056 135.913 187.184 136.353 187.184ZM140.668 188V179.48H142.132L145.156 186.824V179.48H146.188V188H144.724L141.7 180.656V188H140.668ZM147.744 188V179.48H149.208L152.232 186.824V179.48H153.264V188H151.8L148.776 180.656V188H147.744ZM155.059 188V179.48H160.243V180.488H156.091V183.236H160.099V184.22H156.091V186.992H160.339V188H155.059ZM164.678 188.192C163.998 188.192 163.422 188.012 162.95 187.652C162.478 187.292 162.118 186.78 161.87 186.116C161.63 185.452 161.51 184.664 161.51 183.752C161.51 182.832 161.63 182.04 161.87 181.376C162.118 180.712 162.478 180.2 162.95 179.84C163.422 179.472 163.998 179.288 164.678 179.288C165.43 179.288 166.07 179.536 166.598 180.032C167.126 180.52 167.478 181.204 167.654 182.084L166.55 182.156C166.414 181.54 166.178 181.076 165.842 180.764C165.514 180.452 165.126 180.296 164.678 180.296C164.222 180.296 163.838 180.432 163.526 180.704C163.222 180.968 162.99 181.36 162.83 181.88C162.67 182.392 162.59 183.016 162.59 183.752C162.59 184.48 162.67 185.1 162.83 185.612C162.99 186.124 163.222 186.516 163.526 186.788C163.838 187.052 164.222 187.184 164.678 187.184C165.174 187.184 165.594 187.012 165.938 186.668C166.282 186.324 166.514 185.812 166.634 185.132L167.726 185.192C167.574 186.128 167.23 186.864 166.694 187.4C166.158 187.928 165.486 188.192 164.678 188.192ZM171.214 188V180.488H168.61V179.48H174.85V180.488H172.246V188H171.214ZM176.165 188V186.992H178.289V180.488H176.165V179.48H181.445V180.488H179.321V186.992H181.445V188H176.165ZM185.88 188.192C185.208 188.192 184.636 188.02 184.164 187.676C183.7 187.332 183.344 186.828 183.096 186.164C182.856 185.5 182.736 184.696 182.736 183.752C182.736 182.792 182.856 181.98 183.096 181.316C183.344 180.652 183.7 180.148 184.164 179.804C184.636 179.46 185.208 179.288 185.88 179.288C186.552 179.288 187.12 179.46 187.584 179.804C188.056 180.148 188.412 180.652 188.652 181.316C188.9 181.98 189.024 182.792 189.024 183.752C189.024 184.696 188.9 185.5 188.652 186.164C188.412 186.828 188.056 187.332 187.584 187.676C187.12 188.02 186.552 188.192 185.88 188.192ZM185.88 187.184C186.32 187.184 186.692 187.056 186.996 186.8C187.308 186.536 187.544 186.148 187.704 185.636C187.864 185.124 187.944 184.496 187.944 183.752C187.944 183.008 187.864 182.38 187.704 181.868C187.544 181.348 187.308 180.956 186.996 180.692C186.692 180.428 186.32 180.296 185.88 180.296C185.44 180.296 185.064 180.428 184.752 180.692C184.448 180.956 184.216 181.348 184.056 181.868C183.896 182.38 183.816 183.008 183.816 183.752C183.816 184.496 183.896 185.124 184.056 185.636C184.216 186.148 184.448 186.536 184.752 186.8C185.064 187.056 185.44 187.184 185.88 187.184ZM190.196 188V179.48H191.66L194.684 186.824V179.48H195.716V188H194.252L191.228 180.656V188H190.196Z" fill="black"/>
</g>
<g filter="url(#filter5_d_8778_596)">
<rect x="259" y="152" width="247" height="64" rx="12" fill="white" shape-rendering="crispEdges"/>
<path d="M300.969 177.234C303.547 181.062 304.836 185.359 304.367 190.32C304.367 190.32 304.367 190.359 304.328 190.359C302.609 191.648 300.656 192.625 298.586 193.25C298.547 193.289 298.547 193.25 298.508 193.25C298.078 192.625 297.688 192 297.336 191.336C297.336 191.297 297.336 191.297 297.336 191.258L297.375 191.219C298 190.984 298.586 190.711 299.172 190.359C299.172 190.359 299.211 190.359 299.211 190.32C299.211 190.281 299.211 190.281 299.172 190.242C299.055 190.164 298.938 190.086 298.82 189.969C298.781 189.969 298.781 189.969 298.742 189.969C295.031 191.688 290.969 191.688 287.219 189.969C287.18 189.969 287.141 189.969 287.141 189.969C287.023 190.086 286.906 190.164 286.789 190.242C286.75 190.281 286.75 190.281 286.75 190.32C286.75 190.359 286.75 190.359 286.789 190.359C287.336 190.711 287.961 190.984 288.586 191.219C288.586 191.219 288.586 191.258 288.625 191.258C288.625 191.297 288.625 191.297 288.625 191.336C288.273 192 287.883 192.625 287.453 193.25C287.414 193.25 287.375 193.289 287.375 193.25C285.305 192.625 283.352 191.648 281.633 190.359C281.594 190.359 281.594 190.32 281.594 190.32C281.203 186.023 282.023 181.688 284.992 177.234C284.992 177.234 284.992 177.234 285.031 177.234C286.516 176.531 288.078 176.062 289.68 175.789C289.719 175.75 289.758 175.789 289.758 175.789C289.992 176.18 290.188 176.609 290.344 177C292.102 176.727 293.859 176.727 295.617 177C295.773 176.609 295.969 176.18 296.203 175.789C296.203 175.789 296.242 175.75 296.281 175.789C297.883 176.062 299.445 176.531 300.93 177.234C300.969 177.234 300.969 177.234 300.969 177.234ZM289.172 187.703C290.305 187.703 291.242 186.648 291.242 185.398C291.242 184.109 290.344 183.094 289.172 183.094C288.039 183.094 287.102 184.109 287.102 185.398C287.102 186.648 288.039 187.703 289.172 187.703ZM296.789 187.703C297.961 187.703 298.859 186.648 298.859 185.398C298.898 184.109 297.961 183.094 296.789 183.094C295.656 183.094 294.758 184.109 294.758 185.398C294.758 186.648 295.656 187.703 296.789 187.703Z" fill="black"/>
<path opacity="0.6" d="M322.08 188V179.48H324.096C324.832 179.48 325.472 179.648 326.016 179.984C326.568 180.312 326.992 180.796 327.288 181.436C327.592 182.068 327.744 182.84 327.744 183.752C327.744 184.664 327.592 185.436 327.288 186.068C326.992 186.7 326.568 187.18 326.016 187.508C325.472 187.836 324.832 188 324.096 188H322.08ZM323.112 186.992H324.036C324.868 186.992 325.512 186.724 325.968 186.188C326.432 185.644 326.664 184.832 326.664 183.752C326.664 182.672 326.432 181.86 325.968 181.316C325.512 180.764 324.868 180.488 324.036 180.488H323.112V186.992ZM329.035 188V186.992H331.159V180.488H329.035V179.48H334.315V180.488H332.191V186.992H334.315V188H329.035ZM338.883 188.192C338.283 188.192 337.751 188.068 337.287 187.82C336.823 187.572 336.451 187.232 336.171 186.8C335.891 186.36 335.727 185.852 335.679 185.276L336.759 185.204C336.815 185.628 336.935 185.988 337.119 186.284C337.311 186.58 337.555 186.804 337.851 186.956C338.155 187.108 338.507 187.184 338.907 187.184C339.307 187.184 339.643 187.136 339.915 187.04C340.187 186.936 340.391 186.788 340.527 186.596C340.671 186.396 340.743 186.16 340.743 185.888C340.743 185.616 340.679 185.38 340.551 185.18C340.431 184.972 340.199 184.78 339.855 184.604C339.519 184.428 339.019 184.248 338.355 184.064C337.763 183.896 337.283 183.712 336.915 183.512C336.555 183.312 336.291 183.068 336.123 182.78C335.963 182.492 335.883 182.136 335.883 181.712C335.883 181.232 335.995 180.812 336.219 180.452C336.451 180.084 336.779 179.8 337.203 179.6C337.627 179.392 338.131 179.288 338.715 179.288C339.299 179.288 339.799 179.408 340.215 179.648C340.631 179.88 340.959 180.2 341.199 180.608C341.447 181.016 341.603 181.48 341.667 182L340.587 182.072C340.539 181.728 340.439 181.424 340.287 181.16C340.135 180.888 339.927 180.676 339.663 180.524C339.399 180.372 339.075 180.296 338.691 180.296C338.163 180.296 337.743 180.424 337.431 180.68C337.119 180.928 336.963 181.256 336.963 181.664C336.963 181.928 337.019 182.148 337.131 182.324C337.251 182.492 337.459 182.644 337.755 182.78C338.051 182.908 338.467 183.048 339.003 183.2C339.699 183.392 340.251 183.608 340.659 183.848C341.075 184.088 341.371 184.376 341.547 184.712C341.731 185.04 341.823 185.44 341.823 185.912C341.823 186.36 341.699 186.756 341.451 187.1C341.203 187.444 340.859 187.712 340.419 187.904C339.979 188.096 339.467 188.192 338.883 188.192ZM345.85 188.192C345.17 188.192 344.594 188.012 344.122 187.652C343.65 187.292 343.29 186.78 343.042 186.116C342.802 185.452 342.682 184.664 342.682 183.752C342.682 182.832 342.802 182.04 343.042 181.376C343.29 180.712 343.65 180.2 344.122 179.84C344.594 179.472 345.17 179.288 345.85 179.288C346.602 179.288 347.242 179.536 347.77 180.032C348.298 180.52 348.65 181.204 348.826 182.084L347.722 182.156C347.586 181.54 347.35 181.076 347.014 180.764C346.686 180.452 346.298 180.296 345.85 180.296C345.394 180.296 345.01 180.432 344.698 180.704C344.394 180.968 344.162 181.36 344.002 181.88C343.842 182.392 343.762 183.016 343.762 183.752C343.762 184.48 343.842 185.1 344.002 185.612C344.162 186.124 344.394 186.516 344.698 186.788C345.01 187.052 345.394 187.184 345.85 187.184C346.346 187.184 346.766 187.012 347.11 186.668C347.454 186.324 347.686 185.812 347.806 185.132L348.898 185.192C348.746 186.128 348.402 186.864 347.866 187.4C347.33 187.928 346.658 188.192 345.85 188.192ZM352.901 188.192C352.229 188.192 351.657 188.02 351.185 187.676C350.721 187.332 350.365 186.828 350.117 186.164C349.877 185.5 349.757 184.696 349.757 183.752C349.757 182.792 349.877 181.98 350.117 181.316C350.365 180.652 350.721 180.148 351.185 179.804C351.657 179.46 352.229 179.288 352.901 179.288C353.573 179.288 354.141 179.46 354.605 179.804C355.077 180.148 355.433 180.652 355.673 181.316C355.921 181.98 356.045 182.792 356.045 183.752C356.045 184.696 355.921 185.5 355.673 186.164C355.433 186.828 355.077 187.332 354.605 187.676C354.141 188.02 353.573 188.192 352.901 188.192ZM352.901 187.184C353.341 187.184 353.713 187.056 354.017 186.8C354.329 186.536 354.565 186.148 354.725 185.636C354.885 185.124 354.965 184.496 354.965 183.752C354.965 183.008 354.885 182.38 354.725 181.868C354.565 181.348 354.329 180.956 354.017 180.692C353.713 180.428 353.341 180.296 352.901 180.296C352.461 180.296 352.085 180.428 351.773 180.692C351.469 180.956 351.237 181.348 351.077 181.868C350.917 182.38 350.837 183.008 350.837 183.752C350.837 184.496 350.917 185.124 351.077 185.636C351.237 186.148 351.469 186.536 351.773 186.8C352.085 187.056 352.461 187.184 352.901 187.184ZM357.217 188V179.48H359.809C360.705 179.48 361.413 179.708 361.933 180.164C362.453 180.612 362.713 181.232 362.713 182.024C362.713 182.424 362.621 182.78 362.437 183.092C362.253 183.396 362.017 183.636 361.729 183.812C361.441 183.988 361.145 184.088 360.841 184.112L360.793 183.968C361.361 184 361.785 184.136 362.065 184.376C362.353 184.616 362.521 185.008 362.569 185.552L362.785 188H361.753L361.549 185.684C361.525 185.42 361.461 185.208 361.357 185.048C361.261 184.88 361.105 184.76 360.889 184.688C360.681 184.608 360.393 184.568 360.025 184.568H358.249V188H357.217ZM358.249 183.56H359.809C360.401 183.56 360.853 183.428 361.165 183.164C361.477 182.892 361.633 182.512 361.633 182.024C361.633 181.528 361.477 181.148 361.165 180.884C360.853 180.62 360.401 180.488 359.809 180.488H358.249V183.56ZM364.532 188V179.48H366.548C367.284 179.48 367.924 179.648 368.468 179.984C369.02 180.312 369.444 180.796 369.74 181.436C370.044 182.068 370.196 182.84 370.196 183.752C370.196 184.664 370.044 185.436 369.74 186.068C369.444 186.7 369.02 187.18 368.468 187.508C367.924 187.836 367.284 188 366.548 188H364.532ZM365.564 186.992H366.488C367.32 186.992 367.964 186.724 368.42 186.188C368.884 185.644 369.116 184.832 369.116 183.752C369.116 182.672 368.884 181.86 368.42 181.316C367.964 180.764 367.32 180.488 366.488 180.488H365.564V186.992ZM381.227 188.192C380.547 188.192 379.971 188.012 379.499 187.652C379.027 187.292 378.667 186.78 378.419 186.116C378.179 185.452 378.059 184.664 378.059 183.752C378.059 182.832 378.179 182.04 378.419 181.376C378.667 180.712 379.027 180.2 379.499 179.84C379.971 179.472 380.547 179.288 381.227 179.288C381.979 179.288 382.619 179.536 383.147 180.032C383.675 180.52 384.027 181.204 384.203 182.084L383.099 182.156C382.963 181.54 382.727 181.076 382.391 180.764C382.063 180.452 381.675 180.296 381.227 180.296C380.771 180.296 380.387 180.432 380.075 180.704C379.771 180.968 379.539 181.36 379.379 181.88C379.219 182.392 379.139 183.016 379.139 183.752C379.139 184.48 379.219 185.1 379.379 185.612C379.539 186.124 379.771 186.516 380.075 186.788C380.387 187.052 380.771 187.184 381.227 187.184C381.723 187.184 382.143 187.012 382.487 186.668C382.831 186.324 383.063 185.812 383.183 185.132L384.275 185.192C384.123 186.128 383.779 186.864 383.243 187.4C382.707 187.928 382.035 188.192 381.227 188.192ZM388.278 188.192C387.606 188.192 387.034 188.02 386.562 187.676C386.098 187.332 385.742 186.828 385.494 186.164C385.254 185.5 385.134 184.696 385.134 183.752C385.134 182.792 385.254 181.98 385.494 181.316C385.742 180.652 386.098 180.148 386.562 179.804C387.034 179.46 387.606 179.288 388.278 179.288C388.95 179.288 389.518 179.46 389.982 179.804C390.454 180.148 390.81 180.652 391.05 181.316C391.298 181.98 391.422 182.792 391.422 183.752C391.422 184.696 391.298 185.5 391.05 186.164C390.81 186.828 390.454 187.332 389.982 187.676C389.518 188.02 388.95 188.192 388.278 188.192ZM388.278 187.184C388.718 187.184 389.09 187.056 389.394 186.8C389.706 186.536 389.942 186.148 390.102 185.636C390.262 185.124 390.342 184.496 390.342 183.752C390.342 183.008 390.262 182.38 390.102 181.868C389.942 181.348 389.706 180.956 389.394 180.692C389.09 180.428 388.718 180.296 388.278 180.296C387.838 180.296 387.462 180.428 387.15 180.692C386.846 180.956 386.614 181.348 386.454 181.868C386.294 182.38 386.214 183.008 386.214 183.752C386.214 184.496 386.294 185.124 386.454 185.636C386.614 186.148 386.846 186.536 387.15 186.8C387.462 187.056 387.838 187.184 388.278 187.184ZM392.593 188V179.48H394.057L397.081 186.824V179.48H398.113V188H396.649L393.625 180.656V188H392.593ZM399.668 188V179.48H401.132L404.156 186.824V179.48H405.188V188H403.724L400.7 180.656V188H399.668ZM406.984 188V179.48H412.168V180.488H408.016V183.236H412.024V184.22H408.016V186.992H412.264V188H406.984ZM416.603 188.192C415.923 188.192 415.347 188.012 414.875 187.652C414.403 187.292 414.043 186.78 413.795 186.116C413.555 185.452 413.435 184.664 413.435 183.752C413.435 182.832 413.555 182.04 413.795 181.376C414.043 180.712 414.403 180.2 414.875 179.84C415.347 179.472 415.923 179.288 416.603 179.288C417.355 179.288 417.995 179.536 418.523 180.032C419.051 180.52 419.403 181.204 419.579 182.084L418.475 182.156C418.339 181.54 418.103 181.076 417.767 180.764C417.439 180.452 417.051 180.296 416.603 180.296C416.147 180.296 415.763 180.432 415.451 180.704C415.147 180.968 414.915 181.36 414.755 181.88C414.595 182.392 414.515 183.016 414.515 183.752C414.515 184.48 414.595 185.1 414.755 185.612C414.915 186.124 415.147 186.516 415.451 186.788C415.763 187.052 416.147 187.184 416.603 187.184C417.099 187.184 417.519 187.012 417.863 186.668C418.207 186.324 418.439 185.812 418.559 185.132L419.651 185.192C419.499 186.128 419.155 186.864 418.619 187.4C418.083 187.928 417.411 188.192 416.603 188.192ZM423.138 188V180.488H420.534V179.48H426.774V180.488H424.17V188H423.138ZM428.09 188V186.992H430.214V180.488H428.09V179.48H433.37V180.488H431.246V186.992H433.37V188H428.09ZM437.805 188.192C437.133 188.192 436.561 188.02 436.089 187.676C435.625 187.332 435.269 186.828 435.021 186.164C434.781 185.5 434.661 184.696 434.661 183.752C434.661 182.792 434.781 181.98 435.021 181.316C435.269 180.652 435.625 180.148 436.089 179.804C436.561 179.46 437.133 179.288 437.805 179.288C438.477 179.288 439.045 179.46 439.509 179.804C439.981 180.148 440.337 180.652 440.577 181.316C440.825 181.98 440.949 182.792 440.949 183.752C440.949 184.696 440.825 185.5 440.577 186.164C440.337 186.828 439.981 187.332 439.509 187.676C439.045 188.02 438.477 188.192 437.805 188.192ZM437.805 187.184C438.245 187.184 438.617 187.056 438.921 186.8C439.233 186.536 439.469 186.148 439.629 185.636C439.789 185.124 439.869 184.496 439.869 183.752C439.869 183.008 439.789 182.38 439.629 181.868C439.469 181.348 439.233 180.956 438.921 180.692C438.617 180.428 438.245 180.296 437.805 180.296C437.365 180.296 436.989 180.428 436.677 180.692C436.373 180.956 436.141 181.348 435.981 181.868C435.821 182.38 435.741 183.008 435.741 183.752C435.741 184.496 435.821 185.124 435.981 185.636C436.141 186.148 436.373 186.536 436.677 186.8C436.989 187.056 437.365 187.184 437.805 187.184ZM442.12 188V179.48H443.584L446.608 186.824V179.48H447.64V188H446.176L443.152 180.656V188H442.12Z" fill="black"/>
</g>
<defs>
<filter id="filter0_d_8778_596" x="-4" y="-4" width="263" height="80" filterUnits="userSpaceOnUse" color-interpolation-filters="sRGB">
<feFlood flood-opacity="0" result="BackgroundImageFix"/>
<feColorMatrix in="SourceAlpha" type="matrix" values="0 0 0 0 0 0 0 0 0 0 0 0 0 0 0 0 0 0 127 0" result="hardAlpha"/>
<feOffset dx="4" dy="4"/>
<feGaussianBlur stdDeviation="4"/>
<feComposite in2="hardAlpha" operator="out"/>
<feColorMatrix type="matrix" values="0 0 0 0 0 0 0 0 0 0 0 0 0 0 0 0 0 0 0.04 0"/>
<feBlend mode="normal" in2="BackgroundImageFix" result="effect1_dropShadow_8778_596"/>
<feBlend mode="normal" in="SourceGraphic" in2="effect1_dropShadow_8778_596" result="shape"/>
</filter>
<filter id="filter1_d_8778_596" x="255" y="-4" width="263" height="80" filterUnits="userSpaceOnUse" color-interpolation-filters="sRGB">
<feFlood flood-opacity="0" result="BackgroundImageFix"/>
<feColorMatrix in="SourceAlpha" type="matrix" values="0 0 0 0 0 0 0 0 0 0 0 0 0 0 0 0 0 0 127 0" result="hardAlpha"/>
<feOffset dx="4" dy="4"/>
<feGaussianBlur stdDeviation="4"/>
<feComposite in2="hardAlpha" operator="out"/>
<feColorMatrix type="matrix" values="0 0 0 0 0 0 0 0 0 0 0 0 0 0 0 0 0 0 0.04 0"/>
<feBlend mode="normal" in2="BackgroundImageFix" result="effect1_dropShadow_8778_596"/>
<feBlend mode="normal" in="SourceGraphic" in2="effect1_dropShadow_8778_596" result="shape"/>
</filter>
<filter id="filter2_d_8778_596" x="-4" y="72" width="263" height="80" filterUnits="userSpaceOnUse" color-interpolation-filters="sRGB">
<feFlood flood-opacity="0" result="BackgroundImageFix"/>
<feColorMatrix in="SourceAlpha" type="matrix" values="0 0 0 0 0 0 0 0 0 0 0 0 0 0 0 0 0 0 127 0" result="hardAlpha"/>
<feOffset dx="4" dy="4"/>
<feGaussianBlur stdDeviation="4"/>
<feComposite in2="hardAlpha" operator="out"/>
<feColorMatrix type="matrix" values="0 0 0 0 0 0 0 0 0 0 0 0 0 0 0 0 0 0 0.04 0"/>
<feBlend mode="normal" in2="BackgroundImageFix" result="effect1_dropShadow_8778_596"/>
<feBlend mode="normal" in="SourceGraphic" in2="effect1_dropShadow_8778_596" result="shape"/>
</filter>
<filter id="filter3_d_8778_596" x="255" y="72" width="263" height="80" filterUnits="userSpaceOnUse" color-interpolation-filters="sRGB">
<feFlood flood-opacity="0" result="BackgroundImageFix"/>
<feColorMatrix in="SourceAlpha" type="matrix" values="0 0 0 0 0 0 0 0 0 0 0 0 0 0 0 0 0 0 127 0" result="hardAlpha"/>
<feOffset dx="4" dy="4"/>
<feGaussianBlur stdDeviation="4"/>
<feComposite in2="hardAlpha" operator="out"/>
<feColorMatrix type="matrix" values="0 0 0 0 0 0 0 0 0 0 0 0 0 0 0 0 0 0 0.04 0"/>
<feBlend mode="normal" in2="BackgroundImageFix" result="effect1_dropShadow_8778_596"/>
<feBlend mode="normal" in="SourceGraphic" in2="effect1_dropShadow_8778_596" result="shape"/>
</filter>
<filter id="filter4_d_8778_596" x="-4" y="148" width="263" height="80" filterUnits="userSpaceOnUse" color-interpolation-filters="sRGB">
<feFlood flood-opacity="0" result="BackgroundImageFix"/>
<feColorMatrix in="SourceAlpha" type="matrix" values="0 0 0 0 0 0 0 0 0 0 0 0 0 0 0 0 0 0 127 0" result="hardAlpha"/>
<feOffset dx="4" dy="4"/>
<feGaussianBlur stdDeviation="4"/>
<feComposite in2="hardAlpha" operator="out"/>
<feColorMatrix type="matrix" values="0 0 0 0 0 0 0 0 0 0 0 0 0 0 0 0 0 0 0.04 0"/>
<feBlend mode="normal" in2="BackgroundImageFix" result="effect1_dropShadow_8778_596"/>
<feBlend mode="normal" in="SourceGraphic" in2="effect1_dropShadow_8778_596" result="shape"/>
</filter>
<filter id="filter5_d_8778_596" x="255" y="148" width="263" height="80" filterUnits="userSpaceOnUse" color-interpolation-filters="sRGB">
<feFlood flood-opacity="0" result="BackgroundImageFix"/>
<feColorMatrix in="SourceAlpha" type="matrix" values="0 0 0 0 0 0 0 0 0 0 0 0 0 0 0 0 0 0 127 0" result="hardAlpha"/>
<feOffset dx="4" dy="4"/>
<feGaussianBlur stdDeviation="4"/>
<feComposite in2="hardAlpha" operator="out"/>
<feColorMatrix type="matrix" values="0 0 0 0 0 0 0 0 0 0 0 0 0 0 0 0 0 0 0.04 0"/>
<feBlend mode="normal" in2="BackgroundImageFix" result="effect1_dropShadow_8778_596"/>
<feBlend mode="normal" in="SourceGraphic" in2="effect1_dropShadow_8778_596" result="shape"/>
</filter>
</defs>
</svg>
