<svg width="496" height="156" viewBox="0 0 496 156" fill="none" xmlns="http://www.w3.org/2000/svg">
<g clip-path="url(#clip0_436_2261)">
<path d="M0 12.5C0 5.87258 5.37258 0.5 12 0.5H484C490.627 0.5 496 5.87258 496 12.5V143.5C496 150.127 490.627 155.5 484 155.5H12C5.37257 155.5 0 150.127 0 143.5V12.5Z" fill="#FAFAFA"/>
<mask id="path-2-inside-1_436_2261" fill="white">
<path d="M0 12.5C0 5.87258 5.37258 0.5 12 0.5H484C490.627 0.5 496 5.87258 496 12.5V45.5H0V12.5Z"/>
</mask>
<path d="M0 0.5H496H0ZM496 46.5H0V44.5H496V46.5ZM0 45.5V0.5V45.5ZM496 0.5V45.5V0.5Z" fill="#E8E8E8" mask="url(#path-2-inside-1_436_2261)"/>
<path d="M18.5625 18.2188V23.0312C18.5625 23.4141 18.8359 23.6875 19.2188 23.6875H20.5312C20.8867 23.6875 21.1875 23.9883 21.1875 24.3438V24.8906L22.7734 23.7969C22.8828 23.7422 23.0195 23.6875 23.1562 23.6875H26.6562C27.0117 23.6875 27.3125 23.4141 27.3125 23.0312V18.2188C27.3125 17.8633 27.0117 17.5625 26.6562 17.5625H19.2188C18.8359 17.5625 18.5625 17.8633 18.5625 18.2188ZM19.2188 16.25H26.6562C27.7227 16.25 28.625 17.1523 28.625 18.2188V23.0312C28.625 24.125 27.7227 25 26.6562 25H23.3477L20.8867 26.6406C20.6953 26.7773 20.4219 26.8047 20.2031 26.6953C19.9844 26.5586 19.875 26.3398 19.875 26.0938V25H19.2188C18.125 25 17.25 24.125 17.25 23.0312V18.2188C17.25 17.1523 18.125 16.25 19.2188 16.25ZM24.25 26.5312V25.875H25.5625V26.5312C25.5625 26.9141 25.8359 27.1875 26.2188 27.1875H28.8438C28.9531 27.1875 29.0898 27.2422 29.1992 27.2969L30.8125 28.3906V27.8438C30.8125 27.4883 31.0859 27.1875 31.4688 27.1875H32.7812C33.1367 27.1875 33.4375 26.9141 33.4375 26.5312V21.7188C33.4375 21.3633 33.1367 21.0625 32.7812 21.0625H29.5V19.75H32.7812C33.8477 19.75 34.75 20.6523 34.75 21.7188V26.5312C34.75 27.625 33.8477 28.5 32.7812 28.5H32.125V29.5938C32.125 29.8398 31.9883 30.0586 31.7695 30.1953C31.5508 30.3047 31.3047 30.2773 31.0859 30.1406L28.625 28.5H26.2188C25.125 28.5 24.25 27.625 24.25 26.5312Z" fill="#A1A3A3"/>
<path d="M49.208 27.682C48.3027 27.682 47.5047 27.472 46.814 27.052C46.1327 26.632 45.6007 26.0393 45.218 25.274C44.8353 24.5087 44.644 23.622 44.644 22.614C44.644 21.606 44.8353 20.724 45.218 19.968C45.6007 19.2027 46.1327 18.61 46.814 18.19C47.5047 17.77 48.3027 17.56 49.208 17.56C50.2067 17.56 51.07 17.8073 51.798 18.302C52.5353 18.7967 53.0627 19.4827 53.38 20.36L52.05 20.85C51.8167 20.2433 51.4573 19.772 50.972 19.436C50.4867 19.0907 49.8987 18.918 49.208 18.918C48.5733 18.918 48.018 19.072 47.542 19.38C47.0753 19.6787 46.7113 20.1033 46.45 20.654C46.198 21.1953 46.072 21.8487 46.072 22.614C46.072 23.3793 46.198 24.0373 46.45 24.588C46.7113 25.1387 47.0753 25.568 47.542 25.876C48.018 26.1747 48.5733 26.324 49.208 26.324C49.8987 26.324 50.4867 26.156 50.972 25.82C51.4573 25.4747 51.8167 24.9987 52.05 24.392L53.38 24.868C53.0627 25.736 52.5353 26.422 51.798 26.926C51.07 27.43 50.2067 27.682 49.208 27.682ZM57.9168 27.626C57.2634 27.626 56.6801 27.472 56.1668 27.164C55.6534 26.856 55.2474 26.4313 54.9488 25.89C54.6594 25.3487 54.5148 24.7327 54.5148 24.042C54.5148 23.3513 54.6594 22.74 54.9488 22.208C55.2381 21.6667 55.6394 21.242 56.1528 20.934C56.6754 20.626 57.2634 20.472 57.9168 20.472C58.5794 20.472 59.1628 20.626 59.6668 20.934C60.1708 21.242 60.5674 21.6667 60.8568 22.208C61.1554 22.74 61.3048 23.3513 61.3048 24.042C61.3048 24.7327 61.1554 25.3487 60.8568 25.89C60.5674 26.422 60.1661 26.8467 59.6528 27.164C59.1488 27.472 58.5701 27.626 57.9168 27.626ZM57.9168 26.408C58.3274 26.408 58.6821 26.31 58.9808 26.114C59.2888 25.918 59.5221 25.6427 59.6808 25.288C59.8488 24.9333 59.9328 24.518 59.9328 24.042C59.9328 23.5567 59.8488 23.1367 59.6808 22.782C59.5221 22.4273 59.2888 22.1567 58.9808 21.97C58.6821 21.774 58.3274 21.676 57.9168 21.676C57.4968 21.676 57.1328 21.774 56.8248 21.97C56.5261 22.166 56.2928 22.4413 56.1248 22.796C55.9661 23.1413 55.8868 23.5567 55.8868 24.042C55.8868 24.518 55.9661 24.9333 56.1248 25.288C56.2928 25.6427 56.5261 25.918 56.8248 26.114C57.1328 26.31 57.4968 26.408 57.9168 26.408ZM62.8895 27.5V20.598H64.2755V22.096L63.9955 22.18C64.1168 21.7973 64.2895 21.4847 64.5135 21.242C64.7468 20.99 65.0175 20.7987 65.3255 20.668C65.6428 20.5373 65.9835 20.472 66.3475 20.472C67.1128 20.472 67.7102 20.696 68.1395 21.144C68.5782 21.5827 68.7975 22.2267 68.7975 23.076V27.5H67.4255V23.58C67.4255 22.9173 67.3042 22.432 67.0615 22.124C66.8282 21.816 66.4642 21.662 65.9695 21.662C65.5962 21.662 65.2835 21.746 65.0315 21.914C64.7888 22.082 64.6022 22.348 64.4715 22.712C64.3408 23.076 64.2755 23.538 64.2755 24.098V27.5H62.8895ZM72.606 27.5L69.778 20.598H71.29L73.166 25.722L75.07 20.598H76.554L73.754 27.5H72.606ZM80.5821 27.626C80.0221 27.626 79.5368 27.5327 79.1261 27.346C78.7154 27.1593 78.3748 26.9027 78.1041 26.576C77.8334 26.24 77.6281 25.862 77.4881 25.442C77.3574 25.0127 77.2921 24.5647 77.2921 24.098C77.2921 23.6313 77.3574 23.1833 77.4881 22.754C77.6188 22.3153 77.8148 21.928 78.0761 21.592C78.3374 21.2467 78.6641 20.976 79.0561 20.78C79.4574 20.5747 79.9288 20.472 80.4701 20.472C81.0114 20.472 81.4781 20.5653 81.8701 20.752C82.2621 20.9293 82.5841 21.1813 82.8361 21.508C83.0881 21.8253 83.2748 22.1847 83.3961 22.586C83.5268 22.9873 83.5921 23.412 83.5921 23.86C83.5921 23.9067 83.5874 23.9953 83.5781 24.126C83.5781 24.2473 83.5688 24.364 83.5501 24.476H78.6641C78.6921 25.092 78.8788 25.568 79.2241 25.904C79.5788 26.2307 80.0454 26.394 80.6241 26.394C81.0161 26.394 81.3661 26.3333 81.6741 26.212C81.9821 26.0813 82.2668 25.8807 82.5281 25.61L83.3681 26.478C83.0974 26.7487 82.8174 26.968 82.5281 27.136C82.2481 27.304 81.9494 27.4253 81.6321 27.5C81.3241 27.584 80.9741 27.626 80.5821 27.626ZM82.2341 23.79C82.2528 23.7153 82.2621 23.6407 82.2621 23.566C82.2714 23.4913 82.2761 23.4167 82.2761 23.342C82.2761 23.1273 82.2388 22.9173 82.1641 22.712C82.0894 22.5067 81.9774 22.3247 81.8281 22.166C81.6788 21.998 81.4921 21.8673 81.2681 21.774C81.0534 21.6713 80.8014 21.62 80.5121 21.62C80.1294 21.62 79.8028 21.7087 79.5321 21.886C79.2614 22.054 79.0514 22.278 78.9021 22.558C78.7621 22.838 78.6781 23.1413 78.6501 23.468H82.6821L82.2341 23.79ZM85.1747 27.5V20.598H86.5607V22.46L86.2667 22.516C86.3133 22.1053 86.4533 21.7507 86.6867 21.452C86.9293 21.144 87.214 20.906 87.5407 20.738C87.8673 20.5607 88.1893 20.472 88.5067 20.472C88.7307 20.472 88.9407 20.5 89.1367 20.556C89.342 20.6027 89.5473 20.6867 89.7527 20.808L89.0807 22.04C88.978 21.984 88.8473 21.9373 88.6887 21.9C88.53 21.8627 88.3807 21.844 88.2407 21.844C88.026 21.844 87.816 21.8813 87.6107 21.956C87.4053 22.0307 87.2187 22.152 87.0507 22.32C86.892 22.488 86.7707 22.7073 86.6867 22.978C86.6493 23.1087 86.6167 23.2813 86.5887 23.496C86.57 23.7013 86.5607 23.986 86.5607 24.35V27.5H85.1747ZM93.0768 27.626C92.5914 27.626 92.1621 27.556 91.7888 27.416C91.4154 27.2667 91.0934 27.08 90.8228 26.856C90.5614 26.6227 90.3514 26.3847 90.1928 26.142L91.1308 25.33C91.3081 25.6473 91.5601 25.9227 91.8868 26.156C92.2228 26.38 92.6241 26.492 93.0908 26.492C93.5014 26.492 93.8234 26.408 94.0568 26.24C94.2994 26.0627 94.4208 25.834 94.4208 25.554C94.4208 25.33 94.3461 25.1527 94.1968 25.022C94.0474 24.882 93.8514 24.77 93.6088 24.686C93.3661 24.5927 93.1001 24.5133 92.8108 24.448C92.5494 24.3733 92.2834 24.2893 92.0128 24.196C91.7421 24.1027 91.4948 23.986 91.2708 23.846C91.0561 23.6967 90.8788 23.51 90.7388 23.286C90.6081 23.0527 90.5428 22.768 90.5428 22.432C90.5428 21.844 90.7668 21.3727 91.2148 21.018C91.6721 20.654 92.2741 20.472 93.0208 20.472C93.5528 20.472 94.0381 20.584 94.4768 20.808C94.9154 21.0227 95.2561 21.3447 95.4988 21.774L94.6448 22.432C94.4581 22.124 94.2154 21.9 93.9168 21.76C93.6274 21.62 93.3101 21.55 92.9648 21.55C92.6381 21.55 92.3628 21.62 92.1388 21.76C91.9241 21.8907 91.8168 22.0727 91.8168 22.306C91.8168 22.474 91.8634 22.614 91.9568 22.726C92.0594 22.8287 92.2134 22.922 92.4188 23.006C92.6334 23.0807 92.8948 23.1553 93.2028 23.23C93.4921 23.2953 93.7861 23.3747 94.0848 23.468C94.3834 23.5613 94.6588 23.6827 94.9108 23.832C95.1628 23.9813 95.3681 24.182 95.5268 24.434C95.6854 24.686 95.7648 25.0127 95.7648 25.414C95.7648 25.8527 95.6528 26.24 95.4288 26.576C95.2048 26.9027 94.8921 27.1593 94.4908 27.346C94.0894 27.5327 93.6181 27.626 93.0768 27.626ZM101.851 27.5L101.739 26.226V23.16C101.739 22.6747 101.599 22.3013 101.319 22.04C101.039 21.7787 100.633 21.648 100.101 21.648C99.7273 21.648 99.368 21.7227 99.0226 21.872C98.6866 22.0213 98.3646 22.264 98.0566 22.6L97.2026 21.718C97.6133 21.2887 98.066 20.976 98.5606 20.78C99.0646 20.5747 99.6106 20.472 100.199 20.472C101.123 20.472 101.837 20.71 102.341 21.186C102.854 21.6527 103.111 22.3107 103.111 23.16V27.5H101.851ZM99.6246 27.626C99.1113 27.626 98.6586 27.5327 98.2666 27.346C97.8746 27.1593 97.5713 26.9027 97.3566 26.576C97.142 26.24 97.0346 25.8527 97.0346 25.414C97.0346 25.0313 97.114 24.7047 97.2726 24.434C97.4313 24.154 97.6366 23.9393 97.8886 23.79C98.122 23.6407 98.388 23.538 98.6866 23.482C98.9946 23.4167 99.3213 23.384 99.6666 23.384H101.865V24.42H99.8626C99.676 24.42 99.48 24.4387 99.2746 24.476C99.0786 24.504 98.9106 24.5693 98.7706 24.672C98.6586 24.756 98.57 24.8633 98.5046 24.994C98.4393 25.1153 98.4066 25.26 98.4066 25.428C98.4066 25.7547 98.5326 26.016 98.7846 26.212C99.0366 26.408 99.3726 26.506 99.7926 26.506C100.147 26.506 100.469 26.4267 100.759 26.268C101.057 26.1 101.295 25.876 101.473 25.596C101.65 25.3067 101.739 24.98 101.739 24.616L102.229 25.26C102.145 25.7453 101.981 26.17 101.739 26.534C101.496 26.8887 101.193 27.1593 100.829 27.346C100.474 27.5327 100.073 27.626 99.6246 27.626ZM107.339 27.626C107.003 27.626 106.69 27.5607 106.401 27.43C106.121 27.2993 105.897 27.0893 105.729 26.8C105.57 26.5013 105.491 26.1187 105.491 25.652V18.834L106.877 18.064V25.288C106.877 25.6707 106.933 25.9693 107.045 26.184C107.166 26.3893 107.385 26.492 107.703 26.492C107.796 26.492 107.903 26.4827 108.025 26.464C108.155 26.436 108.295 26.4033 108.445 26.366V27.43C108.258 27.4953 108.071 27.542 107.885 27.57C107.698 27.6073 107.516 27.626 107.339 27.626ZM104.119 21.662V20.598H108.445V21.662H104.119ZM109.852 27.5V20.598H111.224V27.5H109.852ZM109.754 19.408V17.742H111.308V19.408H109.754ZM116.2 27.626C115.547 27.626 114.963 27.472 114.45 27.164C113.937 26.856 113.531 26.4313 113.232 25.89C112.943 25.3487 112.798 24.7327 112.798 24.042C112.798 23.3513 112.943 22.74 113.232 22.208C113.521 21.6667 113.923 21.242 114.436 20.934C114.959 20.626 115.547 20.472 116.2 20.472C116.863 20.472 117.446 20.626 117.95 20.934C118.454 21.242 118.851 21.6667 119.14 22.208C119.439 22.74 119.588 23.3513 119.588 24.042C119.588 24.7327 119.439 25.3487 119.14 25.89C118.851 26.422 118.449 26.8467 117.936 27.164C117.432 27.472 116.853 27.626 116.2 27.626ZM116.2 26.408C116.611 26.408 116.965 26.31 117.264 26.114C117.572 25.918 117.805 25.6427 117.964 25.288C118.132 24.9333 118.216 24.518 118.216 24.042C118.216 23.5567 118.132 23.1367 117.964 22.782C117.805 22.4273 117.572 22.1567 117.264 21.97C116.965 21.774 116.611 21.676 116.2 21.676C115.78 21.676 115.416 21.774 115.108 21.97C114.809 22.166 114.576 22.4413 114.408 22.796C114.249 23.1413 114.17 23.5567 114.17 24.042C114.17 24.518 114.249 24.9333 114.408 25.288C114.576 25.6427 114.809 25.918 115.108 26.114C115.416 26.31 115.78 26.408 116.2 26.408ZM121.173 27.5V20.598H122.559V22.096L122.279 22.18C122.4 21.7973 122.573 21.4847 122.797 21.242C123.03 20.99 123.301 20.7987 123.609 20.668C123.926 20.5373 124.267 20.472 124.631 20.472C125.396 20.472 125.993 20.696 126.423 21.144C126.861 21.5827 127.081 22.2267 127.081 23.076V27.5H125.709V23.58C125.709 22.9173 125.587 22.432 125.345 22.124C125.111 21.816 124.747 21.662 124.253 21.662C123.879 21.662 123.567 21.746 123.315 21.914C123.072 22.082 122.885 22.348 122.755 22.712C122.624 23.076 122.559 23.538 122.559 24.098V27.5H121.173ZM134.018 27.5L131.946 20.598H133.402L134.718 25.414L136.244 20.598H137.434L138.96 25.386L140.29 20.598H141.746L139.66 27.5H138.414L136.846 22.516L135.278 27.5H134.018ZM143.034 27.5V20.598H144.406V27.5H143.034ZM142.936 19.408V17.742H144.49V19.408H142.936ZM148.71 27.626C148.374 27.626 148.061 27.5607 147.772 27.43C147.492 27.2993 147.268 27.0893 147.1 26.8C146.941 26.5013 146.862 26.1187 146.862 25.652V18.834L148.248 18.064V25.288C148.248 25.6707 148.304 25.9693 148.416 26.184C148.537 26.3893 148.756 26.492 149.074 26.492C149.167 26.492 149.274 26.4827 149.396 26.464C149.526 26.436 149.666 26.4033 149.816 26.366V27.43C149.629 27.4953 149.442 27.542 149.256 27.57C149.069 27.6073 148.887 27.626 148.71 27.626ZM145.49 21.662V20.598H149.816V21.662H145.49ZM151.237 27.5V17.742H152.623V22.096L152.329 22.194C152.45 21.8113 152.628 21.494 152.861 21.242C153.104 20.99 153.379 20.7987 153.687 20.668C154.004 20.5373 154.34 20.472 154.695 20.472C155.46 20.472 156.058 20.696 156.487 21.144C156.926 21.5827 157.145 22.2267 157.145 23.076V27.5H155.773V23.58C155.773 22.9173 155.652 22.432 155.409 22.124C155.176 21.816 154.812 21.662 154.317 21.662C153.766 21.662 153.346 21.858 153.057 22.25C152.768 22.6327 152.623 23.2487 152.623 24.098V27.5H151.237ZM162.71 27.5V17.742H165.93C166.873 17.742 167.61 17.9567 168.142 18.386C168.683 18.8153 168.954 19.4173 168.954 20.192C168.954 20.6587 168.851 21.074 168.646 21.438C168.441 21.7927 168.151 22.068 167.778 22.264C168.338 22.432 168.758 22.726 169.038 23.146C169.318 23.5567 169.458 24.0793 169.458 24.714C169.458 25.5913 169.183 26.2773 168.632 26.772C168.081 27.2573 167.307 27.5 166.308 27.5H162.71ZM164.138 26.184H166.21C167.433 26.184 168.044 25.6707 168.044 24.644C168.044 24.1493 167.899 23.7667 167.61 23.496C167.33 23.2253 166.933 23.09 166.42 23.09H164.138V26.184ZM164.138 21.816H166.098C166.527 21.816 166.873 21.69 167.134 21.438C167.405 21.186 167.54 20.8407 167.54 20.402C167.54 19.9727 167.4 19.6413 167.12 19.408C166.84 19.1747 166.443 19.058 165.93 19.058H164.138V21.816ZM174.141 27.626C173.488 27.626 172.905 27.472 172.391 27.164C171.878 26.856 171.472 26.4313 171.173 25.89C170.884 25.3487 170.739 24.7327 170.739 24.042C170.739 23.3513 170.884 22.74 171.173 22.208C171.463 21.6667 171.864 21.242 172.377 20.934C172.9 20.626 173.488 20.472 174.141 20.472C174.804 20.472 175.387 20.626 175.891 20.934C176.395 21.242 176.792 21.6667 177.081 22.208C177.38 22.74 177.529 23.3513 177.529 24.042C177.529 24.7327 177.38 25.3487 177.081 25.89C176.792 26.422 176.391 26.8467 175.877 27.164C175.373 27.472 174.795 27.626 174.141 27.626ZM174.141 26.408C174.552 26.408 174.907 26.31 175.205 26.114C175.513 25.918 175.747 25.6427 175.905 25.288C176.073 24.9333 176.157 24.518 176.157 24.042C176.157 23.5567 176.073 23.1367 175.905 22.782C175.747 22.4273 175.513 22.1567 175.205 21.97C174.907 21.774 174.552 21.676 174.141 21.676C173.721 21.676 173.357 21.774 173.049 21.97C172.751 22.166 172.517 22.4413 172.349 22.796C172.191 23.1413 172.111 23.5567 172.111 24.042C172.111 24.518 172.191 24.9333 172.349 25.288C172.517 25.6427 172.751 25.918 173.049 26.114C173.357 26.31 173.721 26.408 174.141 26.408ZM182.194 27.626C181.541 27.626 180.957 27.472 180.444 27.164C179.931 26.856 179.525 26.4313 179.226 25.89C178.937 25.3487 178.792 24.7327 178.792 24.042C178.792 23.3513 178.937 22.74 179.226 22.208C179.515 21.6667 179.917 21.242 180.43 20.934C180.953 20.626 181.541 20.472 182.194 20.472C182.857 20.472 183.44 20.626 183.944 20.934C184.448 21.242 184.845 21.6667 185.134 22.208C185.433 22.74 185.582 23.3513 185.582 24.042C185.582 24.7327 185.433 25.3487 185.134 25.89C184.845 26.422 184.443 26.8467 183.93 27.164C183.426 27.472 182.847 27.626 182.194 27.626ZM182.194 26.408C182.605 26.408 182.959 26.31 183.258 26.114C183.566 25.918 183.799 25.6427 183.958 25.288C184.126 24.9333 184.21 24.518 184.21 24.042C184.21 23.5567 184.126 23.1367 183.958 22.782C183.799 22.4273 183.566 22.1567 183.258 21.97C182.959 21.774 182.605 21.676 182.194 21.676C181.774 21.676 181.41 21.774 181.102 21.97C180.803 22.166 180.57 22.4413 180.402 22.796C180.243 23.1413 180.164 23.5567 180.164 24.042C180.164 24.518 180.243 24.9333 180.402 25.288C180.57 25.6427 180.803 25.918 181.102 26.114C181.41 26.31 181.774 26.408 182.194 26.408ZM191.871 27.5L189.673 24.084L188.399 25.456V23.706L191.409 20.598H193.159L190.667 23.16L193.495 27.5H191.871ZM187.167 27.5V17.742H188.553V27.5H187.167ZM194.727 27.5V20.598H196.099V27.5H194.727ZM194.629 19.408V17.742H196.183V19.408H194.629ZM197.995 27.5V20.598H199.381V22.096L199.101 22.18C199.222 21.7973 199.395 21.4847 199.619 21.242C199.852 20.99 200.123 20.7987 200.431 20.668C200.748 20.5373 201.089 20.472 201.453 20.472C202.218 20.472 202.816 20.696 203.245 21.144C203.684 21.5827 203.903 22.2267 203.903 23.076V27.5H202.531V23.58C202.531 22.9173 202.41 22.432 202.167 22.124C201.934 21.816 201.57 21.662 201.075 21.662C200.702 21.662 200.389 21.746 200.137 21.914C199.894 22.082 199.708 22.348 199.577 22.712C199.446 23.076 199.381 23.538 199.381 24.098V27.5H197.995ZM208.561 30.482C207.563 30.482 206.769 30.3 206.181 29.936C205.603 29.572 205.313 29.068 205.313 28.424C205.313 28.3773 205.313 28.3167 205.313 28.242C205.323 28.1673 205.337 28.0927 205.355 28.018L207.147 26.786L207.567 27.136L206.615 28.312C206.606 28.3493 206.601 28.3773 206.601 28.396C206.601 28.424 206.601 28.452 206.601 28.48C206.601 28.816 206.788 29.068 207.161 29.236C207.535 29.404 208.001 29.488 208.561 29.488C209.056 29.488 209.457 29.418 209.765 29.278C210.073 29.1473 210.227 28.9327 210.227 28.634C210.227 28.4753 210.181 28.3447 210.087 28.242C209.994 28.1393 209.854 28.0553 209.667 27.99C209.481 27.934 209.257 27.8827 208.995 27.836C208.743 27.7987 208.449 27.7567 208.113 27.71C207.684 27.6447 207.269 27.5513 206.867 27.43C206.466 27.3087 206.135 27.1313 205.873 26.898C205.612 26.6553 205.481 26.338 205.481 25.946C205.481 25.61 205.598 25.302 205.831 25.022C206.074 24.7327 206.387 24.4993 206.769 24.322L207.553 24.868C207.264 24.9333 207.054 25.0407 206.923 25.19C206.793 25.33 206.727 25.5027 206.727 25.708C206.727 25.876 206.788 26.0113 206.909 26.114C207.04 26.2167 207.222 26.296 207.455 26.352C207.689 26.408 207.969 26.4593 208.295 26.506C208.753 26.5713 209.177 26.6413 209.569 26.716C209.971 26.7907 210.321 26.898 210.619 27.038C210.927 27.1687 211.161 27.346 211.319 27.57C211.487 27.8033 211.571 28.102 211.571 28.466C211.571 29.1193 211.305 29.6187 210.773 29.964C210.251 30.3093 209.513 30.482 208.561 30.482ZM208.407 25.414C207.857 25.414 207.371 25.3113 206.951 25.106C206.541 24.8913 206.219 24.602 205.985 24.238C205.752 23.8647 205.635 23.44 205.635 22.964C205.635 22.4693 205.757 22.0353 205.999 21.662C206.242 21.2887 206.569 20.9993 206.979 20.794C207.399 20.5793 207.861 20.472 208.365 20.472C208.851 20.472 209.299 20.5793 209.709 20.794C210.129 20.9993 210.461 21.2933 210.703 21.676C210.955 22.0587 211.081 22.5067 211.081 23.02C211.081 23.5053 210.965 23.93 210.731 24.294C210.507 24.6487 210.195 24.924 209.793 25.12C209.392 25.316 208.93 25.414 208.407 25.414ZM208.379 24.322C208.809 24.322 209.14 24.1913 209.373 23.93C209.607 23.6593 209.723 23.3327 209.723 22.95C209.723 22.5393 209.597 22.2127 209.345 21.97C209.103 21.718 208.781 21.592 208.379 21.592C207.959 21.592 207.623 21.718 207.371 21.97C207.119 22.222 206.993 22.544 206.993 22.936C206.993 23.328 207.115 23.6593 207.357 23.93C207.6 24.1913 207.941 24.322 208.379 24.322ZM210.633 21.942L209.639 21.284L211.151 20.066L211.837 20.92L210.633 21.942ZM215.846 27.5L219.64 17.742H220.746L224.526 27.5H222.972L220.2 19.814L217.414 27.5H215.846ZM218.086 25.33L218.52 24.056H221.852L222.328 25.33H218.086ZM228.522 30.482C227.524 30.482 226.73 30.3 226.142 29.936C225.564 29.572 225.274 29.068 225.274 28.424C225.274 28.3773 225.274 28.3167 225.274 28.242C225.284 28.1673 225.298 28.0927 225.316 28.018L227.108 26.786L227.528 27.136L226.576 28.312C226.567 28.3493 226.562 28.3773 226.562 28.396C226.562 28.424 226.562 28.452 226.562 28.48C226.562 28.816 226.749 29.068 227.122 29.236C227.496 29.404 227.962 29.488 228.522 29.488C229.017 29.488 229.418 29.418 229.726 29.278C230.034 29.1473 230.188 28.9327 230.188 28.634C230.188 28.4753 230.142 28.3447 230.048 28.242C229.955 28.1393 229.815 28.0553 229.628 27.99C229.442 27.934 229.218 27.8827 228.956 27.836C228.704 27.7987 228.41 27.7567 228.074 27.71C227.645 27.6447 227.23 27.5513 226.828 27.43C226.427 27.3087 226.096 27.1313 225.834 26.898C225.573 26.6553 225.442 26.338 225.442 25.946C225.442 25.61 225.559 25.302 225.792 25.022C226.035 24.7327 226.348 24.4993 226.73 24.322L227.514 24.868C227.225 24.9333 227.015 25.0407 226.884 25.19C226.754 25.33 226.688 25.5027 226.688 25.708C226.688 25.876 226.749 26.0113 226.87 26.114C227.001 26.2167 227.183 26.296 227.416 26.352C227.65 26.408 227.93 26.4593 228.256 26.506C228.714 26.5713 229.138 26.6413 229.53 26.716C229.932 26.7907 230.282 26.898 230.58 27.038C230.888 27.1687 231.122 27.346 231.28 27.57C231.448 27.8033 231.532 28.102 231.532 28.466C231.532 29.1193 231.266 29.6187 230.734 29.964C230.212 30.3093 229.474 30.482 228.522 30.482ZM228.368 25.414C227.818 25.414 227.332 25.3113 226.912 25.106C226.502 24.8913 226.18 24.602 225.946 24.238C225.713 23.8647 225.596 23.44 225.596 22.964C225.596 22.4693 225.718 22.0353 225.96 21.662C226.203 21.2887 226.53 20.9993 226.94 20.794C227.36 20.5793 227.822 20.472 228.326 20.472C228.812 20.472 229.26 20.5793 229.67 20.794C230.09 20.9993 230.422 21.2933 230.664 21.676C230.916 22.0587 231.042 22.5067 231.042 23.02C231.042 23.5053 230.926 23.93 230.692 24.294C230.468 24.6487 230.156 24.924 229.754 25.12C229.353 25.316 228.891 25.414 228.368 25.414ZM228.34 24.322C228.77 24.322 229.101 24.1913 229.334 23.93C229.568 23.6593 229.684 23.3327 229.684 22.95C229.684 22.5393 229.558 22.2127 229.306 21.97C229.064 21.718 228.742 21.592 228.34 21.592C227.92 21.592 227.584 21.718 227.332 21.97C227.08 22.222 226.954 22.544 226.954 22.936C226.954 23.328 227.076 23.6593 227.318 23.93C227.561 24.1913 227.902 24.322 228.34 24.322ZM230.594 21.942L229.6 21.284L231.112 20.066L231.798 20.92L230.594 21.942ZM235.758 27.626C235.198 27.626 234.713 27.5327 234.302 27.346C233.891 27.1593 233.551 26.9027 233.28 26.576C233.009 26.24 232.804 25.862 232.664 25.442C232.533 25.0127 232.468 24.5647 232.468 24.098C232.468 23.6313 232.533 23.1833 232.664 22.754C232.795 22.3153 232.991 21.928 233.252 21.592C233.513 21.2467 233.84 20.976 234.232 20.78C234.633 20.5747 235.105 20.472 235.646 20.472C236.187 20.472 236.654 20.5653 237.046 20.752C237.438 20.9293 237.76 21.1813 238.012 21.508C238.264 21.8253 238.451 22.1847 238.572 22.586C238.703 22.9873 238.768 23.412 238.768 23.86C238.768 23.9067 238.763 23.9953 238.754 24.126C238.754 24.2473 238.745 24.364 238.726 24.476H233.84C233.868 25.092 234.055 25.568 234.4 25.904C234.755 26.2307 235.221 26.394 235.8 26.394C236.192 26.394 236.542 26.3333 236.85 26.212C237.158 26.0813 237.443 25.8807 237.704 25.61L238.544 26.478C238.273 26.7487 237.993 26.968 237.704 27.136C237.424 27.304 237.125 27.4253 236.808 27.5C236.5 27.584 236.15 27.626 235.758 27.626ZM237.41 23.79C237.429 23.7153 237.438 23.6407 237.438 23.566C237.447 23.4913 237.452 23.4167 237.452 23.342C237.452 23.1273 237.415 22.9173 237.34 22.712C237.265 22.5067 237.153 22.3247 237.004 22.166C236.855 21.998 236.668 21.8673 236.444 21.774C236.229 21.6713 235.977 21.62 235.688 21.62C235.305 21.62 234.979 21.7087 234.708 21.886C234.437 22.054 234.227 22.278 234.078 22.558C233.938 22.838 233.854 23.1413 233.826 23.468H237.858L237.41 23.79ZM240.35 27.5V20.598H241.736V22.096L241.456 22.18C241.578 21.7973 241.75 21.4847 241.974 21.242C242.208 20.99 242.478 20.7987 242.786 20.668C243.104 20.5373 243.444 20.472 243.808 20.472C244.574 20.472 245.171 20.696 245.6 21.144C246.039 21.5827 246.258 22.2267 246.258 23.076V27.5H244.886V23.58C244.886 22.9173 244.765 22.432 244.522 22.124C244.289 21.816 243.925 21.662 243.43 21.662C243.057 21.662 242.744 21.746 242.492 21.914C242.25 22.082 242.063 22.348 241.932 22.712C241.802 23.076 241.736 23.538 241.736 24.098V27.5H240.35ZM250.497 27.626C250.161 27.626 249.848 27.5607 249.559 27.43C249.279 27.2993 249.055 27.0893 248.887 26.8C248.728 26.5013 248.649 26.1187 248.649 25.652V18.834L250.035 18.064V25.288C250.035 25.6707 250.091 25.9693 250.203 26.184C250.324 26.3893 250.543 26.492 250.861 26.492C250.954 26.492 251.061 26.4827 251.183 26.464C251.313 26.436 251.453 26.4033 251.603 26.366V27.43C251.416 27.4953 251.229 27.542 251.043 27.57C250.856 27.6073 250.674 27.626 250.497 27.626ZM247.277 21.662V20.598H251.603V21.662H247.277Z" fill="#151A1A"/>
<path d="M471.066 20.7539L474.758 17.0625H472.406C472.023 17.0625 471.75 16.7891 471.75 16.4062C471.75 16.0508 472.023 15.75 472.406 15.75H476.316C476.699 15.75 476.973 16.0508 476.973 16.4062V20.3438C476.973 20.7266 476.699 21 476.316 21C475.961 21 475.66 20.7266 475.66 20.3438V17.9922L471.969 21.6836C471.723 21.957 471.312 21.957 471.066 21.6836C470.793 21.4375 470.793 21.0273 471.066 20.7539ZM468.934 24.7461L465.215 28.4375H467.594C467.949 28.4375 468.25 28.7383 468.25 29.0938C468.25 29.4766 467.949 29.75 467.594 29.75H463.656C463.273 29.75 463 29.4766 463 29.0938V25.1562C463 24.8008 463.273 24.5 463.656 24.5C464.012 24.5 464.312 24.8008 464.312 25.1562V27.5352L468.004 23.8438C468.25 23.5703 468.66 23.5703 468.934 23.8438C469.18 24.0898 469.18 24.5 468.934 24.7461Z" fill="#444848"/>
<rect x="16" y="61.5" width="24" height="24" rx="12" fill="#B1FCAB"/>
<path d="M27.72 77.14C27.0667 77.14 26.4933 76.99 26 76.69C25.5067 76.39 25.12 75.9667 24.84 75.42C24.5667 74.8733 24.43 74.2367 24.43 73.51C24.43 72.7833 24.5667 72.15 24.84 71.61C25.12 71.0633 25.5067 70.64 26 70.34C26.4933 70.04 27.0667 69.89 27.72 69.89C28.4467 69.89 29.0733 70.07 29.6 70.43C30.1333 70.79 30.5167 71.29 30.75 71.93L29.67 72.32C29.51 71.9 29.2633 71.5733 28.93 71.34C28.5967 71.1067 28.1933 70.99 27.72 70.99C27.2867 70.99 26.91 71.0933 26.59 71.3C26.27 71.5067 26.02 71.7967 25.84 72.17C25.6667 72.5433 25.58 72.99 25.58 73.51C25.58 74.03 25.6667 74.48 25.84 74.86C26.02 75.2333 26.27 75.5233 26.59 75.73C26.91 75.9367 27.2867 76.04 27.72 76.04C28.1933 76.04 28.5967 75.9233 28.93 75.69C29.2633 75.45 29.51 75.1233 29.67 74.71L30.75 75.1C30.5167 75.7267 30.1333 76.2233 29.6 76.59C29.0733 76.9567 28.4467 77.14 27.72 77.14Z" fill="#496A59"/>
<path d="M53.208 76.682C52.3027 76.682 51.5047 76.472 50.814 76.052C50.1327 75.632 49.6007 75.0393 49.218 74.274C48.8353 73.5087 48.644 72.622 48.644 71.614C48.644 70.606 48.8353 69.724 49.218 68.968C49.6007 68.2027 50.1327 67.61 50.814 67.19C51.5047 66.77 52.3027 66.56 53.208 66.56C54.2067 66.56 55.07 66.8073 55.798 67.302C56.5353 67.7967 57.0627 68.4827 57.38 69.36L56.05 69.85C55.8167 69.2433 55.4573 68.772 54.972 68.436C54.4867 68.0907 53.8987 67.918 53.208 67.918C52.5733 67.918 52.018 68.072 51.542 68.38C51.0753 68.6787 50.7113 69.1033 50.45 69.654C50.198 70.1953 50.072 70.8487 50.072 71.614C50.072 72.3793 50.198 73.0373 50.45 73.588C50.7113 74.1387 51.0753 74.568 51.542 74.876C52.018 75.1747 52.5733 75.324 53.208 75.324C53.8987 75.324 54.4867 75.156 54.972 74.82C55.4573 74.4747 55.8167 73.9987 56.05 73.392L57.38 73.868C57.0627 74.736 56.5353 75.422 55.798 75.926C55.07 76.43 54.2067 76.682 53.208 76.682ZM60.3068 76.626C59.8681 76.626 59.5088 76.4907 59.2288 76.22C58.9488 75.9493 58.8088 75.52 58.8088 74.932V66.742H60.1668V74.666C60.1668 74.9087 60.2181 75.086 60.3208 75.198C60.4328 75.3007 60.5774 75.352 60.7548 75.352C60.8294 75.352 60.9134 75.3473 61.0068 75.338C61.1094 75.3193 61.2121 75.2913 61.3148 75.254V76.416C61.1468 76.4907 60.9694 76.542 60.7828 76.57C60.6054 76.6073 60.4468 76.626 60.3068 76.626ZM62.5825 76.5V69.598H63.9545V76.5H62.5825ZM62.4845 68.408V66.742H64.0385V68.408H62.4845ZM68.0064 76.5L65.1784 69.598H66.6904L68.5664 74.722L70.4704 69.598H71.9544L69.1544 76.5H68.0064ZM75.9825 76.626C75.4225 76.626 74.9372 76.5327 74.5265 76.346C74.1158 76.1593 73.7752 75.9027 73.5045 75.576C73.2338 75.24 73.0285 74.862 72.8885 74.442C72.7578 74.0127 72.6925 73.5647 72.6925 73.098C72.6925 72.6313 72.7578 72.1833 72.8885 71.754C73.0192 71.3153 73.2152 70.928 73.4765 70.592C73.7378 70.2467 74.0645 69.976 74.4565 69.78C74.8578 69.5747 75.3292 69.472 75.8705 69.472C76.4118 69.472 76.8785 69.5653 77.2705 69.752C77.6625 69.9293 77.9845 70.1813 78.2365 70.508C78.4885 70.8253 78.6752 71.1847 78.7965 71.586C78.9272 71.9873 78.9925 72.412 78.9925 72.86C78.9925 72.9067 78.9878 72.9953 78.9785 73.126C78.9785 73.2473 78.9692 73.364 78.9505 73.476H74.0645C74.0925 74.092 74.2792 74.568 74.6245 74.904C74.9792 75.2307 75.4458 75.394 76.0245 75.394C76.4165 75.394 76.7665 75.3333 77.0745 75.212C77.3825 75.0813 77.6672 74.8807 77.9285 74.61L78.7685 75.478C78.4978 75.7487 78.2178 75.968 77.9285 76.136C77.6485 76.304 77.3498 76.4253 77.0325 76.5C76.7245 76.584 76.3745 76.626 75.9825 76.626ZM77.6345 72.79C77.6532 72.7153 77.6625 72.6407 77.6625 72.566C77.6718 72.4913 77.6765 72.4167 77.6765 72.342C77.6765 72.1273 77.6392 71.9173 77.5645 71.712C77.4898 71.5067 77.3778 71.3247 77.2285 71.166C77.0792 70.998 76.8925 70.8673 76.6685 70.774C76.4538 70.6713 76.2018 70.62 75.9125 70.62C75.5298 70.62 75.2032 70.7087 74.9325 70.886C74.6618 71.054 74.4518 71.278 74.3025 71.558C74.1625 71.838 74.0785 72.1413 74.0505 72.468H78.0825L77.6345 72.79ZM83.4558 76.5L87.2498 66.742H88.3558L92.1358 76.5H90.5818L87.8098 68.814L85.0238 76.5H83.4558ZM85.6958 74.33L86.1298 73.056H89.4618L89.9378 74.33H85.6958ZM96.1316 79.482C95.1329 79.482 94.3396 79.3 93.7516 78.936C93.1729 78.572 92.8836 78.068 92.8836 77.424C92.8836 77.3773 92.8836 77.3167 92.8836 77.242C92.8929 77.1673 92.9069 77.0927 92.9256 77.018L94.7176 75.786L95.1376 76.136L94.1856 77.312C94.1762 77.3493 94.1716 77.3773 94.1716 77.396C94.1716 77.424 94.1716 77.452 94.1716 77.48C94.1716 77.816 94.3582 78.068 94.7316 78.236C95.1049 78.404 95.5716 78.488 96.1316 78.488C96.6262 78.488 97.0276 78.418 97.3356 78.278C97.6436 78.1473 97.7976 77.9327 97.7976 77.634C97.7976 77.4753 97.7509 77.3447 97.6576 77.242C97.5642 77.1393 97.4242 77.0553 97.2376 76.99C97.0509 76.934 96.8269 76.8827 96.5656 76.836C96.3136 76.7987 96.0196 76.7567 95.6836 76.71C95.2542 76.6447 94.8389 76.5513 94.4376 76.43C94.0362 76.3087 93.7049 76.1313 93.4436 75.898C93.1822 75.6553 93.0516 75.338 93.0516 74.946C93.0516 74.61 93.1682 74.302 93.4016 74.022C93.6442 73.7327 93.9569 73.4993 94.3396 73.322L95.1236 73.868C94.8342 73.9333 94.6242 74.0407 94.4936 74.19C94.3629 74.33 94.2976 74.5027 94.2976 74.708C94.2976 74.876 94.3582 75.0113 94.4796 75.114C94.6102 75.2167 94.7922 75.296 95.0256 75.352C95.2589 75.408 95.5389 75.4593 95.8656 75.506C96.3229 75.5713 96.7476 75.6413 97.1396 75.716C97.5409 75.7907 97.8909 75.898 98.1896 76.038C98.4976 76.1687 98.7309 76.346 98.8896 76.57C99.0576 76.8033 99.1416 77.102 99.1416 77.466C99.1416 78.1193 98.8756 78.6187 98.3436 78.964C97.8209 79.3093 97.0836 79.482 96.1316 79.482ZM95.9776 74.414C95.4269 74.414 94.9416 74.3113 94.5216 74.106C94.1109 73.8913 93.7889 73.602 93.5556 73.238C93.3222 72.8647 93.2056 72.44 93.2056 71.964C93.2056 71.4693 93.3269 71.0353 93.5696 70.662C93.8122 70.2887 94.1389 69.9993 94.5496 69.794C94.9696 69.5793 95.4316 69.472 95.9356 69.472C96.4209 69.472 96.8689 69.5793 97.2796 69.794C97.6996 69.9993 98.0309 70.2933 98.2736 70.676C98.5256 71.0587 98.6516 71.5067 98.6516 72.02C98.6516 72.5053 98.5349 72.93 98.3016 73.294C98.0776 73.6487 97.7649 73.924 97.3636 74.12C96.9622 74.316 96.5002 74.414 95.9776 74.414ZM95.9496 73.322C96.3789 73.322 96.7102 73.1913 96.9436 72.93C97.1769 72.6593 97.2936 72.3327 97.2936 71.95C97.2936 71.5393 97.1676 71.2127 96.9156 70.97C96.6729 70.718 96.3509 70.592 95.9496 70.592C95.5296 70.592 95.1936 70.718 94.9416 70.97C94.6896 71.222 94.5636 71.544 94.5636 71.936C94.5636 72.328 94.6849 72.6593 94.9276 72.93C95.1702 73.1913 95.5109 73.322 95.9496 73.322ZM98.2036 70.942L97.2096 70.284L98.7216 69.066L99.4076 69.92L98.2036 70.942ZM103.367 76.626C102.807 76.626 102.322 76.5327 101.911 76.346C101.501 76.1593 101.16 75.9027 100.889 75.576C100.619 75.24 100.413 74.862 100.273 74.442C100.143 74.0127 100.077 73.5647 100.077 73.098C100.077 72.6313 100.143 72.1833 100.273 71.754C100.404 71.3153 100.6 70.928 100.861 70.592C101.123 70.2467 101.449 69.976 101.841 69.78C102.243 69.5747 102.714 69.472 103.255 69.472C103.797 69.472 104.263 69.5653 104.655 69.752C105.047 69.9293 105.369 70.1813 105.621 70.508C105.873 70.8253 106.06 71.1847 106.181 71.586C106.312 71.9873 106.377 72.412 106.377 72.86C106.377 72.9067 106.373 72.9953 106.363 73.126C106.363 73.2473 106.354 73.364 106.335 73.476H101.449C101.477 74.092 101.664 74.568 102.009 74.904C102.364 75.2307 102.831 75.394 103.409 75.394C103.801 75.394 104.151 75.3333 104.459 75.212C104.767 75.0813 105.052 74.8807 105.313 74.61L106.153 75.478C105.883 75.7487 105.603 75.968 105.313 76.136C105.033 76.304 104.735 76.4253 104.417 76.5C104.109 76.584 103.759 76.626 103.367 76.626ZM105.019 72.79C105.038 72.7153 105.047 72.6407 105.047 72.566C105.057 72.4913 105.061 72.4167 105.061 72.342C105.061 72.1273 105.024 71.9173 104.949 71.712C104.875 71.5067 104.763 71.3247 104.613 71.166C104.464 70.998 104.277 70.8673 104.053 70.774C103.839 70.6713 103.587 70.62 103.297 70.62C102.915 70.62 102.588 70.7087 102.317 70.886C102.047 71.054 101.837 71.278 101.687 71.558C101.547 71.838 101.463 72.1413 101.435 72.468H105.467L105.019 72.79ZM107.96 76.5V69.598H109.346V71.096L109.066 71.18C109.187 70.7973 109.36 70.4847 109.584 70.242C109.817 69.99 110.088 69.7987 110.396 69.668C110.713 69.5373 111.054 69.472 111.418 69.472C112.183 69.472 112.78 69.696 113.21 70.144C113.648 70.5827 113.868 71.2267 113.868 72.076V76.5H112.496V72.58C112.496 71.9173 112.374 71.432 112.132 71.124C111.898 70.816 111.534 70.662 111.04 70.662C110.666 70.662 110.354 70.746 110.102 70.914C109.859 71.082 109.672 71.348 109.542 71.712C109.411 72.076 109.346 72.538 109.346 73.098V76.5H107.96ZM118.106 76.626C117.77 76.626 117.457 76.5607 117.168 76.43C116.888 76.2993 116.664 76.0893 116.496 75.8C116.337 75.5013 116.258 75.1187 116.258 74.652V67.834L117.644 67.064V74.288C117.644 74.6707 117.7 74.9693 117.812 75.184C117.933 75.3893 118.153 75.492 118.47 75.492C118.563 75.492 118.671 75.4827 118.792 75.464C118.923 75.436 119.063 75.4033 119.212 75.366V76.43C119.025 76.4953 118.839 76.542 118.652 76.57C118.465 76.6073 118.283 76.626 118.106 76.626ZM114.886 70.662V69.598H119.212V70.662H114.886Z" fill="#151A1A"/>
<path d="M53.208 97.668C52.312 97.668 51.5233 97.458 50.842 97.038C50.17 96.618 49.6427 96.03 49.26 95.274C48.8867 94.5087 48.7 93.622 48.7 92.614C48.7 91.606 48.8867 90.724 49.26 89.968C49.6427 89.212 50.17 88.624 50.842 88.204C51.5233 87.784 52.312 87.574 53.208 87.574C54.188 87.574 55.0373 87.8167 55.756 88.302C56.4747 88.7873 56.9927 89.4593 57.31 90.318L56.162 90.752C55.9193 90.1173 55.546 89.6273 55.042 89.282C54.538 88.9273 53.9267 88.75 53.208 88.75C52.5453 88.75 51.9667 88.9087 51.472 89.226C50.9773 89.5433 50.5947 89.9913 50.324 90.57C50.0627 91.1393 49.932 91.8207 49.932 92.614C49.932 93.4073 50.0627 94.0933 50.324 94.672C50.5947 95.2507 50.9773 95.6987 51.472 96.016C51.9667 96.3333 52.5453 96.492 53.208 96.492C53.9267 96.492 54.538 96.3147 55.042 95.96C55.546 95.6053 55.9193 95.1153 56.162 94.49L57.31 94.91C56.9927 95.7593 56.4747 96.4313 55.756 96.926C55.0373 97.4207 54.188 97.668 53.208 97.668ZM63.4014 97.5L63.3174 96.114V93.174C63.3174 92.642 63.1681 92.2313 62.8694 91.942C62.5801 91.6527 62.1461 91.508 61.5674 91.508C61.1941 91.508 60.8441 91.5873 60.5174 91.746C60.1908 91.8953 59.8734 92.152 59.5654 92.516L58.7114 91.788C59.0941 91.34 59.5328 91.0133 60.0274 90.808C60.5221 90.5933 61.0634 90.486 61.6514 90.486C62.5568 90.486 63.2568 90.7193 63.7514 91.186C64.2461 91.6527 64.4934 92.3153 64.4934 93.174V97.5H63.4014ZM61.1194 97.612C60.5968 97.612 60.1394 97.5233 59.7474 97.346C59.3648 97.1593 59.0661 96.9027 58.8514 96.576C58.6461 96.2493 58.5434 95.8713 58.5434 95.442C58.5434 95.0593 58.6181 94.7373 58.7674 94.476C58.9261 94.2053 59.1268 93.9953 59.3694 93.846C59.6121 93.6873 59.8874 93.58 60.1954 93.524C60.5128 93.4587 60.8441 93.426 61.1894 93.426H63.4294V94.322H61.3574C61.1521 94.322 60.9374 94.3407 60.7134 94.378C60.4894 94.4153 60.2934 94.4947 60.1254 94.616C60.0041 94.7093 59.9061 94.826 59.8314 94.966C59.7661 95.106 59.7334 95.2693 59.7334 95.456C59.7334 95.82 59.8688 96.1093 60.1394 96.324C60.4101 96.5387 60.7741 96.646 61.2314 96.646C61.6141 96.646 61.9594 96.5573 62.2674 96.38C62.5848 96.2027 62.8368 95.96 63.0234 95.652C63.2194 95.3347 63.3174 94.98 63.3174 94.588L63.8074 95.092C63.7514 95.5867 63.6021 96.0253 63.3594 96.408C63.1168 96.7907 62.8041 97.0893 62.4214 97.304C62.0481 97.5093 61.6141 97.612 61.1194 97.612ZM66.426 97.5V90.598H67.616V92.068L67.336 92.166C67.4666 91.8113 67.644 91.5127 67.868 91.27C68.092 91.018 68.3626 90.8267 68.68 90.696C68.9973 90.556 69.3473 90.486 69.73 90.486C70.486 90.486 71.0786 90.71 71.508 91.158C71.9373 91.5967 72.152 92.25 72.152 93.118V97.5H70.962V93.552C70.962 92.852 70.8313 92.3387 70.57 92.012C70.318 91.676 69.9306 91.508 69.408 91.508C69.0253 91.508 68.6986 91.5967 68.428 91.774C68.1666 91.9513 67.966 92.2313 67.826 92.614C67.686 92.9873 67.616 93.468 67.616 94.056V97.5H66.426ZM78.4049 100.342L79.7209 97.164L77.0329 90.598H78.3349L80.3509 95.974L82.3809 90.598H83.6689L79.6929 100.342H78.4049ZM87.8663 97.612C87.2223 97.612 86.6436 97.4627 86.1303 97.164C85.6263 96.856 85.2296 96.4313 84.9403 95.89C84.651 95.3487 84.5063 94.7327 84.5063 94.042C84.5063 93.3513 84.6463 92.74 84.9263 92.208C85.2156 91.6667 85.6123 91.2467 86.1163 90.948C86.6296 90.64 87.213 90.486 87.8663 90.486C88.5196 90.486 89.0936 90.64 89.5883 90.948C90.0923 91.2467 90.489 91.6667 90.7783 92.208C91.0676 92.74 91.2123 93.3513 91.2123 94.042C91.2123 94.7327 91.0676 95.3487 90.7783 95.89C90.489 96.422 90.0923 96.842 89.5883 97.15C89.0843 97.458 88.5103 97.612 87.8663 97.612ZM87.8663 96.562C88.305 96.562 88.683 96.4593 89.0003 96.254C89.327 96.0393 89.579 95.7453 89.7563 95.372C89.9336 94.9893 90.0223 94.546 90.0223 94.042C90.0223 93.5287 89.9336 93.0853 89.7563 92.712C89.579 92.3293 89.327 92.0353 89.0003 91.83C88.683 91.6247 88.305 91.522 87.8663 91.522C87.4183 91.522 87.031 91.6293 86.7043 91.844C86.3776 92.0493 86.1256 92.3387 85.9483 92.712C85.771 93.0853 85.6823 93.5287 85.6823 94.042C85.6823 94.546 85.771 94.9893 85.9483 95.372C86.1256 95.7453 86.3776 96.0393 86.7043 96.254C87.031 96.4593 87.4183 96.562 87.8663 96.562ZM95.2324 97.612C94.7377 97.612 94.3084 97.514 93.9444 97.318C93.5804 97.1127 93.3004 96.814 93.1044 96.422C92.9177 96.03 92.8244 95.5447 92.8244 94.966V90.598H94.0004V94.546C94.0004 95.0033 94.0564 95.386 94.1684 95.694C94.2897 95.9927 94.4671 96.2167 94.7004 96.366C94.9337 96.506 95.2231 96.576 95.5684 96.576C95.9511 96.576 96.2731 96.4873 96.5344 96.31C96.8051 96.1233 97.0104 95.8433 97.1504 95.47C97.2904 95.0967 97.3604 94.616 97.3604 94.028V90.598H98.5364V97.5H97.3604V96.03H97.6544C97.4584 96.5433 97.1457 96.9353 96.7164 97.206C96.2871 97.4767 95.7924 97.612 95.2324 97.612ZM104.201 97.5V90.598H105.391V92.446L105.083 92.516C105.149 92.1053 105.303 91.7507 105.545 91.452C105.797 91.144 106.087 90.906 106.413 90.738C106.749 90.57 107.076 90.486 107.393 90.486C107.608 90.486 107.813 90.5093 108.009 90.556C108.205 90.6027 108.406 90.682 108.611 90.794L108.023 91.858C107.911 91.802 107.776 91.7553 107.617 91.718C107.468 91.6807 107.323 91.662 107.183 91.662C106.959 91.662 106.735 91.704 106.511 91.788C106.297 91.872 106.101 92.0027 105.923 92.18C105.746 92.3573 105.611 92.5953 105.517 92.894C105.48 93.0247 105.447 93.1973 105.419 93.412C105.401 93.6173 105.391 93.902 105.391 94.266V97.5H104.201ZM112.418 97.612C111.877 97.612 111.401 97.5233 110.99 97.346C110.589 97.1593 110.253 96.9027 109.982 96.576C109.721 96.2493 109.52 95.876 109.38 95.456C109.249 95.0267 109.184 94.574 109.184 94.098C109.184 93.622 109.249 93.1693 109.38 92.74C109.511 92.3013 109.702 91.914 109.954 91.578C110.215 91.242 110.542 90.976 110.934 90.78C111.326 90.584 111.783 90.486 112.306 90.486C112.838 90.486 113.295 90.5793 113.678 90.766C114.07 90.9433 114.387 91.1907 114.63 91.508C114.882 91.8253 115.069 92.18 115.19 92.572C115.311 92.964 115.372 93.37 115.372 93.79C115.372 93.8273 115.367 93.916 115.358 94.056C115.358 94.1867 115.349 94.3033 115.33 94.406H110.36C110.388 95.078 110.584 95.6007 110.948 95.974C111.312 96.3473 111.807 96.534 112.432 96.534C112.833 96.534 113.183 96.4687 113.482 96.338C113.781 96.2073 114.061 95.9973 114.322 95.708L115.148 96.436C114.896 96.7067 114.63 96.9307 114.35 97.108C114.07 97.276 113.771 97.402 113.454 97.486C113.146 97.57 112.801 97.612 112.418 97.612ZM114.196 93.804C114.215 93.7293 114.224 93.6547 114.224 93.58C114.233 93.5053 114.238 93.4307 114.238 93.356C114.238 93.132 114.196 92.908 114.112 92.684C114.037 92.46 113.921 92.2593 113.762 92.082C113.613 91.8953 113.417 91.7507 113.174 91.648C112.941 91.536 112.661 91.48 112.334 91.48C111.933 91.48 111.587 91.5733 111.298 91.76C111.009 91.9467 110.785 92.194 110.626 92.502C110.467 92.81 110.374 93.1507 110.346 93.524H114.588L114.196 93.804ZM119.937 97.612C119.423 97.612 118.966 97.5187 118.565 97.332C118.173 97.1453 117.841 96.8887 117.571 96.562C117.3 96.226 117.095 95.8433 116.955 95.414C116.815 94.9847 116.745 94.5273 116.745 94.042C116.745 93.566 116.815 93.1133 116.955 92.684C117.095 92.2547 117.3 91.8767 117.571 91.55C117.841 91.214 118.173 90.9527 118.565 90.766C118.966 90.5793 119.423 90.486 119.937 90.486C120.59 90.486 121.159 90.6447 121.645 90.962C122.139 91.2793 122.503 91.7647 122.737 92.418L121.687 92.824C121.556 92.432 121.346 92.1147 121.057 91.872C120.767 91.6293 120.394 91.508 119.937 91.508C119.479 91.508 119.101 91.6293 118.803 91.872C118.504 92.1147 118.28 92.4273 118.131 92.81C117.991 93.1927 117.921 93.6033 117.921 94.042C117.921 94.4807 117.991 94.896 118.131 95.288C118.28 95.6707 118.504 95.9833 118.803 96.226C119.101 96.4593 119.479 96.576 119.937 96.576C120.394 96.576 120.767 96.4593 121.057 96.226C121.346 95.9833 121.556 95.6613 121.687 95.26L122.737 95.666C122.503 96.3193 122.139 96.8093 121.645 97.136C121.159 97.4533 120.59 97.612 119.937 97.612ZM127.351 97.612C126.707 97.612 126.128 97.4627 125.615 97.164C125.111 96.856 124.714 96.4313 124.425 95.89C124.135 95.3487 123.991 94.7327 123.991 94.042C123.991 93.3513 124.131 92.74 124.411 92.208C124.7 91.6667 125.097 91.2467 125.601 90.948C126.114 90.64 126.697 90.486 127.351 90.486C128.004 90.486 128.578 90.64 129.073 90.948C129.577 91.2467 129.973 91.6667 130.263 92.208C130.552 92.74 130.697 93.3513 130.697 94.042C130.697 94.7327 130.552 95.3487 130.263 95.89C129.973 96.422 129.577 96.842 129.073 97.15C128.569 97.458 127.995 97.612 127.351 97.612ZM127.351 96.562C127.789 96.562 128.167 96.4593 128.485 96.254C128.811 96.0393 129.063 95.7453 129.241 95.372C129.418 94.9893 129.507 94.546 129.507 94.042C129.507 93.5287 129.418 93.0853 129.241 92.712C129.063 92.3293 128.811 92.0353 128.485 91.83C128.167 91.6247 127.789 91.522 127.351 91.522C126.903 91.522 126.515 91.6293 126.189 91.844C125.862 92.0493 125.61 92.3387 125.433 92.712C125.255 93.0853 125.167 93.5287 125.167 94.042C125.167 94.546 125.255 94.9893 125.433 95.372C125.61 95.7453 125.862 96.0393 126.189 96.254C126.515 96.4593 126.903 96.562 127.351 96.562ZM132.393 97.5V90.598H133.583V92.376H133.345C133.429 92.0493 133.541 91.7693 133.681 91.536C133.83 91.2933 134.003 91.0973 134.199 90.948C134.395 90.7893 134.605 90.6727 134.829 90.598C135.062 90.5233 135.305 90.486 135.557 90.486C135.977 90.486 136.345 90.5653 136.663 90.724C136.98 90.8827 137.241 91.1253 137.447 91.452C137.652 91.7693 137.792 92.1753 137.867 92.67L137.195 92.712C137.335 92.236 137.512 91.8347 137.727 91.508C137.941 91.172 138.207 90.92 138.525 90.752C138.851 90.5747 139.239 90.486 139.687 90.486C140.256 90.486 140.713 90.6167 141.059 90.878C141.404 91.13 141.656 91.4707 141.815 91.9C141.973 92.32 142.053 92.7867 142.053 93.3V97.5H140.877V93.58C140.877 93.1507 140.825 92.782 140.723 92.474C140.629 92.166 140.475 91.928 140.261 91.76C140.055 91.592 139.775 91.508 139.421 91.508C139.085 91.508 138.795 91.592 138.553 91.76C138.319 91.928 138.137 92.1847 138.007 92.53C137.885 92.866 137.825 93.286 137.825 93.79V97.5H136.635V93.482C136.635 92.8193 136.513 92.3247 136.271 91.998C136.028 91.6713 135.673 91.508 135.207 91.508C134.871 91.508 134.581 91.5967 134.339 91.774C134.096 91.942 133.909 92.194 133.779 92.53C133.648 92.866 133.583 93.286 133.583 93.79V97.5H132.393ZM143.987 97.5V90.598H145.177V92.376H144.939C145.023 92.0493 145.135 91.7693 145.275 91.536C145.424 91.2933 145.597 91.0973 145.793 90.948C145.989 90.7893 146.199 90.6727 146.423 90.598C146.656 90.5233 146.899 90.486 147.151 90.486C147.571 90.486 147.939 90.5653 148.257 90.724C148.574 90.8827 148.835 91.1253 149.041 91.452C149.246 91.7693 149.386 92.1753 149.461 92.67L148.789 92.712C148.929 92.236 149.106 91.8347 149.321 91.508C149.535 91.172 149.801 90.92 150.119 90.752C150.445 90.5747 150.833 90.486 151.281 90.486C151.85 90.486 152.307 90.6167 152.653 90.878C152.998 91.13 153.25 91.4707 153.409 91.9C153.567 92.32 153.647 92.7867 153.647 93.3V97.5H152.471V93.58C152.471 93.1507 152.419 92.782 152.317 92.474C152.223 92.166 152.069 91.928 151.855 91.76C151.649 91.592 151.369 91.508 151.015 91.508C150.679 91.508 150.389 91.592 150.147 91.76C149.913 91.928 149.731 92.1847 149.601 92.53C149.479 92.866 149.419 93.286 149.419 93.79V97.5H148.229V93.482C148.229 92.8193 148.107 92.3247 147.865 91.998C147.622 91.6713 147.267 91.508 146.801 91.508C146.465 91.508 146.175 91.5967 145.933 91.774C145.69 91.942 145.503 92.194 145.373 92.53C145.242 92.866 145.177 93.286 145.177 93.79V97.5H143.987ZM158.492 97.612C157.951 97.612 157.475 97.5233 157.064 97.346C156.663 97.1593 156.327 96.9027 156.056 96.576C155.795 96.2493 155.594 95.876 155.454 95.456C155.324 95.0267 155.258 94.574 155.258 94.098C155.258 93.622 155.324 93.1693 155.454 92.74C155.585 92.3013 155.776 91.914 156.028 91.578C156.29 91.242 156.616 90.976 157.008 90.78C157.4 90.584 157.858 90.486 158.38 90.486C158.912 90.486 159.37 90.5793 159.752 90.766C160.144 90.9433 160.462 91.1907 160.704 91.508C160.956 91.8253 161.143 92.18 161.264 92.572C161.386 92.964 161.446 93.37 161.446 93.79C161.446 93.8273 161.442 93.916 161.432 94.056C161.432 94.1867 161.423 94.3033 161.404 94.406H156.434C156.462 95.078 156.658 95.6007 157.022 95.974C157.386 96.3473 157.881 96.534 158.506 96.534C158.908 96.534 159.258 96.4687 159.556 96.338C159.855 96.2073 160.135 95.9973 160.396 95.708L161.222 96.436C160.97 96.7067 160.704 96.9307 160.424 97.108C160.144 97.276 159.846 97.402 159.528 97.486C159.22 97.57 158.875 97.612 158.492 97.612ZM160.27 93.804C160.289 93.7293 160.298 93.6547 160.298 93.58C160.308 93.5053 160.312 93.4307 160.312 93.356C160.312 93.132 160.27 92.908 160.186 92.684C160.112 92.46 159.995 92.2593 159.836 92.082C159.687 91.8953 159.491 91.7507 159.248 91.648C159.015 91.536 158.735 91.48 158.408 91.48C158.007 91.48 157.662 91.5733 157.372 91.76C157.083 91.9467 156.859 92.194 156.7 92.502C156.542 92.81 156.448 93.1507 156.42 93.524H160.662L160.27 93.804ZM163.141 97.5V90.598H164.331V92.068L164.051 92.166C164.181 91.8113 164.359 91.5127 164.583 91.27C164.807 91.018 165.077 90.8267 165.395 90.696C165.712 90.556 166.062 90.486 166.445 90.486C167.201 90.486 167.793 90.71 168.223 91.158C168.652 91.5967 168.867 92.25 168.867 93.118V97.5H167.677V93.552C167.677 92.852 167.546 92.3387 167.285 92.012C167.033 91.676 166.645 91.508 166.123 91.508C165.74 91.508 165.413 91.5967 165.143 91.774C164.881 91.9513 164.681 92.2313 164.541 92.614C164.401 92.9873 164.331 93.468 164.331 94.056V97.5H163.141ZM173.611 97.612C172.986 97.612 172.435 97.458 171.959 97.15C171.492 96.8327 171.128 96.4033 170.867 95.862C170.606 95.3207 170.475 94.714 170.475 94.042C170.475 93.314 170.615 92.684 170.895 92.152C171.175 91.62 171.553 91.2093 172.029 90.92C172.505 90.6307 173.032 90.486 173.611 90.486C174.05 90.486 174.442 90.5747 174.787 90.752C175.132 90.92 175.422 91.1533 175.655 91.452C175.898 91.7413 176.066 92.068 176.159 92.432L175.823 92.656V87.742H176.999V97.5H175.823V95.442L176.215 95.568C176.094 95.9693 175.912 96.324 175.669 96.632C175.426 96.94 175.132 97.1827 174.787 97.36C174.442 97.528 174.05 97.612 173.611 97.612ZM173.807 96.52C174.227 96.52 174.596 96.4173 174.913 96.212C175.23 95.9973 175.478 95.7033 175.655 95.33C175.832 94.9567 175.921 94.5273 175.921 94.042C175.921 93.5567 175.832 93.1273 175.655 92.754C175.478 92.3807 175.23 92.0913 174.913 91.886C174.596 91.6713 174.227 91.564 173.807 91.564C173.387 91.564 173.014 91.6713 172.687 91.886C172.37 92.0913 172.118 92.3807 171.931 92.754C171.754 93.1273 171.665 93.5567 171.665 94.042C171.665 94.5273 171.754 94.9567 171.931 95.33C172.118 95.7033 172.37 95.9973 172.687 96.212C173.014 96.4173 173.387 96.52 173.807 96.52ZM187.187 97.5L187.103 96.114V93.174C187.103 92.642 186.953 92.2313 186.655 91.942C186.365 91.6527 185.931 91.508 185.353 91.508C184.979 91.508 184.629 91.5873 184.303 91.746C183.976 91.8953 183.659 92.152 183.351 92.516L182.497 91.788C182.879 91.34 183.318 91.0133 183.813 90.808C184.307 90.5933 184.849 90.486 185.437 90.486C186.342 90.486 187.042 90.7193 187.537 91.186C188.031 91.6527 188.279 92.3153 188.279 93.174V97.5H187.187ZM184.905 97.612C184.382 97.612 183.925 97.5233 183.533 97.346C183.15 97.1593 182.851 96.9027 182.637 96.576C182.431 96.2493 182.329 95.8713 182.329 95.442C182.329 95.0593 182.403 94.7373 182.553 94.476C182.711 94.2053 182.912 93.9953 183.155 93.846C183.397 93.6873 183.673 93.58 183.981 93.524C184.298 93.4587 184.629 93.426 184.975 93.426H187.215V94.322H185.143C184.937 94.322 184.723 94.3407 184.499 94.378C184.275 94.4153 184.079 94.4947 183.911 94.616C183.789 94.7093 183.691 94.826 183.617 94.966C183.551 95.106 183.519 95.2693 183.519 95.456C183.519 95.82 183.654 96.1093 183.925 96.324C184.195 96.5387 184.559 96.646 185.017 96.646C185.399 96.646 185.745 96.5573 186.053 96.38C186.37 96.2027 186.622 95.96 186.809 95.652C187.005 95.3347 187.103 94.98 187.103 94.588L187.593 95.092C187.537 95.5867 187.387 96.0253 187.145 96.408C186.902 96.7907 186.589 97.0893 186.207 97.304C185.833 97.5093 185.399 97.612 184.905 97.612ZM196.718 97.612C196.205 97.612 195.747 97.5187 195.346 97.332C194.954 97.1453 194.623 96.8887 194.352 96.562C194.081 96.226 193.876 95.8433 193.736 95.414C193.596 94.9847 193.526 94.5273 193.526 94.042C193.526 93.566 193.596 93.1133 193.736 92.684C193.876 92.2547 194.081 91.8767 194.352 91.55C194.623 91.214 194.954 90.9527 195.346 90.766C195.747 90.5793 196.205 90.486 196.718 90.486C197.371 90.486 197.941 90.6447 198.426 90.962C198.921 91.2793 199.285 91.7647 199.518 92.418L198.468 92.824C198.337 92.432 198.127 92.1147 197.838 91.872C197.549 91.6293 197.175 91.508 196.718 91.508C196.261 91.508 195.883 91.6293 195.584 91.872C195.285 92.1147 195.061 92.4273 194.912 92.81C194.772 93.1927 194.702 93.6033 194.702 94.042C194.702 94.4807 194.772 94.896 194.912 95.288C195.061 95.6707 195.285 95.9833 195.584 96.226C195.883 96.4593 196.261 96.576 196.718 96.576C197.175 96.576 197.549 96.4593 197.838 96.226C198.127 95.9833 198.337 95.6613 198.468 95.26L199.518 95.666C199.285 96.3193 198.921 96.8093 198.426 97.136C197.941 97.4533 197.371 97.612 196.718 97.612ZM204.006 97.612C203.465 97.612 202.989 97.5233 202.578 97.346C202.177 97.1593 201.841 96.9027 201.57 96.576C201.309 96.2493 201.108 95.876 200.968 95.456C200.837 95.0267 200.772 94.574 200.772 94.098C200.772 93.622 200.837 93.1693 200.968 92.74C201.099 92.3013 201.29 91.914 201.542 91.578C201.803 91.242 202.13 90.976 202.522 90.78C202.914 90.584 203.371 90.486 203.894 90.486C204.426 90.486 204.883 90.5793 205.266 90.766C205.658 90.9433 205.975 91.1907 206.218 91.508C206.47 91.8253 206.657 92.18 206.778 92.572C206.899 92.964 206.96 93.37 206.96 93.79C206.96 93.8273 206.955 93.916 206.946 94.056C206.946 94.1867 206.937 94.3033 206.918 94.406H201.948C201.976 95.078 202.172 95.6007 202.536 95.974C202.9 96.3473 203.395 96.534 204.02 96.534C204.421 96.534 204.771 96.4687 205.07 96.338C205.369 96.2073 205.649 95.9973 205.91 95.708L206.736 96.436C206.484 96.7067 206.218 96.9307 205.938 97.108C205.658 97.276 205.359 97.402 205.042 97.486C204.734 97.57 204.389 97.612 204.006 97.612ZM205.784 93.804C205.803 93.7293 205.812 93.6547 205.812 93.58C205.821 93.5053 205.826 93.4307 205.826 93.356C205.826 93.132 205.784 92.908 205.7 92.684C205.625 92.46 205.509 92.2593 205.35 92.082C205.201 91.8953 205.005 91.7507 204.762 91.648C204.529 91.536 204.249 91.48 203.922 91.48C203.521 91.48 203.175 91.5733 202.886 91.76C202.597 91.9467 202.373 92.194 202.214 92.502C202.055 92.81 201.962 93.1507 201.934 93.524H206.176L205.784 93.804ZM208.654 97.5V90.598H209.844V92.068L209.564 92.166C209.695 91.8113 209.872 91.5127 210.096 91.27C210.32 91.018 210.591 90.8267 210.908 90.696C211.226 90.556 211.576 90.486 211.958 90.486C212.714 90.486 213.307 90.71 213.736 91.158C214.166 91.5967 214.38 92.25 214.38 93.118V97.5H213.19V93.552C213.19 92.852 213.06 92.3387 212.798 92.012C212.546 91.676 212.159 91.508 211.636 91.508C211.254 91.508 210.927 91.5967 210.656 91.774C210.395 91.9513 210.194 92.2313 210.054 92.614C209.914 92.9873 209.844 93.468 209.844 94.056V97.5H208.654ZM218.607 97.612C218.28 97.612 217.981 97.5513 217.711 97.43C217.449 97.2993 217.244 97.094 217.095 96.814C216.945 96.534 216.871 96.1747 216.871 95.736V88.75L218.075 88.078V95.428C218.075 95.8107 218.135 96.1093 218.257 96.324C218.378 96.5293 218.597 96.632 218.915 96.632C219.008 96.632 219.12 96.6227 219.251 96.604C219.381 96.576 219.521 96.5433 219.671 96.506V97.43C219.493 97.4953 219.311 97.542 219.125 97.57C218.947 97.598 218.775 97.612 218.607 97.612ZM215.443 91.522V90.598H219.671V91.522H215.443ZM221.151 97.5V90.598H222.341V92.446L222.033 92.516C222.098 92.1053 222.252 91.7507 222.495 91.452C222.747 91.144 223.036 90.906 223.363 90.738C223.699 90.57 224.025 90.486 224.343 90.486C224.557 90.486 224.763 90.5093 224.959 90.556C225.155 90.6027 225.355 90.682 225.561 90.794L224.973 91.858C224.861 91.802 224.725 91.7553 224.567 91.718C224.417 91.6807 224.273 91.662 224.133 91.662C223.909 91.662 223.685 91.704 223.461 91.788C223.246 91.872 223.05 92.0027 222.873 92.18C222.695 92.3573 222.56 92.5953 222.467 92.894C222.429 93.0247 222.397 93.1973 222.369 93.412C222.35 93.6173 222.341 93.902 222.341 94.266V97.5H221.151ZM231.21 97.5L231.126 96.114V93.174C231.126 92.642 230.977 92.2313 230.678 91.942C230.389 91.6527 229.955 91.508 229.376 91.508C229.003 91.508 228.653 91.5873 228.326 91.746C227.999 91.8953 227.682 92.152 227.374 92.516L226.52 91.788C226.903 91.34 227.341 91.0133 227.836 90.808C228.331 90.5933 228.872 90.486 229.46 90.486C230.365 90.486 231.065 90.7193 231.56 91.186C232.055 91.6527 232.302 92.3153 232.302 93.174V97.5H231.21ZM228.928 97.612C228.405 97.612 227.948 97.5233 227.556 97.346C227.173 97.1593 226.875 96.9027 226.66 96.576C226.455 96.2493 226.352 95.8713 226.352 95.442C226.352 95.0593 226.427 94.7373 226.576 94.476C226.735 94.2053 226.935 93.9953 227.178 93.846C227.421 93.6873 227.696 93.58 228.004 93.524C228.321 93.4587 228.653 93.426 228.998 93.426H231.238V94.322H229.166C228.961 94.322 228.746 94.3407 228.522 94.378C228.298 94.4153 228.102 94.4947 227.934 94.616C227.813 94.7093 227.715 94.826 227.64 94.966C227.575 95.106 227.542 95.2693 227.542 95.456C227.542 95.82 227.677 96.1093 227.948 96.324C228.219 96.5387 228.583 96.646 229.04 96.646C229.423 96.646 229.768 96.5573 230.076 96.38C230.393 96.2027 230.645 95.96 230.832 95.652C231.028 95.3347 231.126 94.98 231.126 94.588L231.616 95.092C231.56 95.5867 231.411 96.0253 231.168 96.408C230.925 96.7907 230.613 97.0893 230.23 97.304C229.857 97.5093 229.423 97.612 228.928 97.612ZM235.621 97.612C235.201 97.612 234.86 97.4813 234.599 97.22C234.337 96.9587 234.207 96.5433 234.207 95.974V87.742H235.383V95.75C235.383 96.0207 235.439 96.2167 235.551 96.338C235.663 96.4593 235.812 96.52 235.999 96.52C236.083 96.52 236.176 96.5107 236.279 96.492C236.381 96.4733 236.489 96.4453 236.601 96.408V97.416C236.442 97.4813 236.274 97.528 236.097 97.556C235.919 97.5933 235.761 97.612 235.621 97.612ZM239.326 97.612C238.906 97.612 238.565 97.4813 238.304 97.22C238.042 96.9587 237.912 96.5433 237.912 95.974V87.742H239.088V95.75C239.088 96.0207 239.144 96.2167 239.256 96.338C239.368 96.4593 239.517 96.52 239.704 96.52C239.788 96.52 239.881 96.5107 239.984 96.492C240.086 96.4733 240.194 96.4453 240.306 96.408V97.416C240.147 97.4813 239.979 97.528 239.802 97.556C239.624 97.5933 239.466 97.612 239.326 97.612ZM242.331 100.342L243.647 97.164L240.959 90.598H242.261L244.277 95.974L246.307 90.598H247.595L243.619 100.342H242.331ZM253.968 97.612C253.548 97.612 253.208 97.4813 252.946 97.22C252.685 96.9587 252.554 96.5433 252.554 95.974V87.742H253.73V95.75C253.73 96.0207 253.786 96.2167 253.898 96.338C254.01 96.4593 254.16 96.52 254.346 96.52C254.43 96.52 254.524 96.5107 254.626 96.492C254.729 96.4733 254.836 96.4453 254.948 96.408V97.416C254.79 97.4813 254.622 97.528 254.444 97.556C254.267 97.5933 254.108 97.612 253.968 97.612ZM259.325 97.612C258.681 97.612 258.103 97.4627 257.589 97.164C257.085 96.856 256.689 96.4313 256.399 95.89C256.11 95.3487 255.965 94.7327 255.965 94.042C255.965 93.3513 256.105 92.74 256.385 92.208C256.675 91.6667 257.071 91.2467 257.575 90.948C258.089 90.64 258.672 90.486 259.325 90.486C259.979 90.486 260.553 90.64 261.047 90.948C261.551 91.2467 261.948 91.6667 262.237 92.208C262.527 92.74 262.671 93.3513 262.671 94.042C262.671 94.7327 262.527 95.3487 262.237 95.89C261.948 96.422 261.551 96.842 261.047 97.15C260.543 97.458 259.969 97.612 259.325 97.612ZM259.325 96.562C259.764 96.562 260.142 96.4593 260.459 96.254C260.786 96.0393 261.038 95.7453 261.215 95.372C261.393 94.9893 261.481 94.546 261.481 94.042C261.481 93.5287 261.393 93.0853 261.215 92.712C261.038 92.3293 260.786 92.0353 260.459 91.83C260.142 91.6247 259.764 91.522 259.325 91.522C258.877 91.522 258.49 91.6293 258.163 91.844C257.837 92.0493 257.585 92.3387 257.407 92.712C257.23 93.0853 257.141 93.5287 257.141 94.042C257.141 94.546 257.23 94.9893 257.407 95.372C257.585 95.7453 257.837 96.0393 258.163 96.254C258.49 96.4593 258.877 96.562 259.325 96.562ZM267.237 97.612C266.724 97.612 266.267 97.5187 265.865 97.332C265.473 97.1453 265.142 96.8887 264.871 96.562C264.601 96.226 264.395 95.8433 264.255 95.414C264.115 94.9847 264.045 94.5273 264.045 94.042C264.045 93.566 264.115 93.1133 264.255 92.684C264.395 92.2547 264.601 91.8767 264.871 91.55C265.142 91.214 265.473 90.9527 265.865 90.766C266.267 90.5793 266.724 90.486 267.237 90.486C267.891 90.486 268.46 90.6447 268.945 90.962C269.44 91.2793 269.804 91.7647 270.037 92.418L268.987 92.824C268.857 92.432 268.647 92.1147 268.357 91.872C268.068 91.6293 267.695 91.508 267.237 91.508C266.78 91.508 266.402 91.6293 266.103 91.872C265.805 92.1147 265.581 92.4273 265.431 92.81C265.291 93.1927 265.221 93.6033 265.221 94.042C265.221 94.4807 265.291 94.896 265.431 95.288C265.581 95.6707 265.805 95.9833 266.103 96.226C266.402 96.4593 266.78 96.576 267.237 96.576C267.695 96.576 268.068 96.4593 268.357 96.226C268.647 95.9833 268.857 95.6613 268.987 95.26L270.037 95.666C269.804 96.3193 269.44 96.8093 268.945 97.136C268.46 97.4533 267.891 97.612 267.237 97.612ZM276.149 97.5L276.065 96.114V93.174C276.065 92.642 275.916 92.2313 275.617 91.942C275.328 91.6527 274.894 91.508 274.315 91.508C273.942 91.508 273.592 91.5873 273.265 91.746C272.939 91.8953 272.621 92.152 272.313 92.516L271.459 91.788C271.842 91.34 272.281 91.0133 272.775 90.808C273.27 90.5933 273.811 90.486 274.399 90.486C275.305 90.486 276.005 90.7193 276.499 91.186C276.994 91.6527 277.241 92.3153 277.241 93.174V97.5H276.149ZM273.867 97.612C273.345 97.612 272.887 97.5233 272.495 97.346C272.113 97.1593 271.814 96.9027 271.599 96.576C271.394 96.2493 271.291 95.8713 271.291 95.442C271.291 95.0593 271.366 94.7373 271.515 94.476C271.674 94.2053 271.875 93.9953 272.117 93.846C272.36 93.6873 272.635 93.58 272.943 93.524C273.261 93.4587 273.592 93.426 273.937 93.426H276.177V94.322H274.105C273.9 94.322 273.685 94.3407 273.461 94.378C273.237 94.4153 273.041 94.4947 272.873 94.616C272.752 94.7093 272.654 94.826 272.579 94.966C272.514 95.106 272.481 95.2693 272.481 95.456C272.481 95.82 272.617 96.1093 272.887 96.324C273.158 96.5387 273.522 96.646 273.979 96.646C274.362 96.646 274.707 96.5573 275.015 96.38C275.333 96.2027 275.585 95.96 275.771 95.652C275.967 95.3347 276.065 94.98 276.065 94.588L276.555 95.092C276.499 95.5867 276.35 96.0253 276.107 96.408C275.865 96.7907 275.552 97.0893 275.169 97.304C274.796 97.5093 274.362 97.612 273.867 97.612ZM281.47 97.612C281.143 97.612 280.845 97.5513 280.574 97.43C280.313 97.2993 280.107 97.094 279.958 96.814C279.809 96.534 279.734 96.1747 279.734 95.736V88.75L280.938 88.078V95.428C280.938 95.8107 280.999 96.1093 281.12 96.324C281.241 96.5293 281.461 96.632 281.778 96.632C281.871 96.632 281.983 96.6227 282.114 96.604C282.245 96.576 282.385 96.5433 282.534 96.506V97.43C282.357 97.4953 282.175 97.542 281.988 97.57C281.811 97.598 281.638 97.612 281.47 97.612ZM278.306 91.522V90.598H282.534V91.522H278.306ZM286.789 97.612C286.248 97.612 285.772 97.5233 285.361 97.346C284.96 97.1593 284.624 96.9027 284.353 96.576C284.092 96.2493 283.891 95.876 283.751 95.456C283.62 95.0267 283.555 94.574 283.555 94.098C283.555 93.622 283.62 93.1693 283.751 92.74C283.882 92.3013 284.073 91.914 284.325 91.578C284.586 91.242 284.913 90.976 285.305 90.78C285.697 90.584 286.154 90.486 286.677 90.486C287.209 90.486 287.666 90.5793 288.049 90.766C288.441 90.9433 288.758 91.1907 289.001 91.508C289.253 91.8253 289.44 92.18 289.561 92.572C289.682 92.964 289.743 93.37 289.743 93.79C289.743 93.8273 289.738 93.916 289.729 94.056C289.729 94.1867 289.72 94.3033 289.701 94.406H284.731C284.759 95.078 284.955 95.6007 285.319 95.974C285.683 96.3473 286.178 96.534 286.803 96.534C287.204 96.534 287.554 96.4687 287.853 96.338C288.152 96.2073 288.432 95.9973 288.693 95.708L289.519 96.436C289.267 96.7067 289.001 96.9307 288.721 97.108C288.441 97.276 288.142 97.402 287.825 97.486C287.517 97.57 287.172 97.612 286.789 97.612ZM288.567 93.804C288.586 93.7293 288.595 93.6547 288.595 93.58C288.604 93.5053 288.609 93.4307 288.609 93.356C288.609 93.132 288.567 92.908 288.483 92.684C288.408 92.46 288.292 92.2593 288.133 92.082C287.984 91.8953 287.788 91.7507 287.545 91.648C287.312 91.536 287.032 91.48 286.705 91.48C286.304 91.48 285.958 91.5733 285.669 91.76C285.38 91.9467 285.156 92.194 284.997 92.502C284.838 92.81 284.745 93.1507 284.717 93.524H288.959L288.567 93.804ZM294.252 97.612C293.626 97.612 293.076 97.458 292.6 97.15C292.133 96.8327 291.769 96.4033 291.508 95.862C291.246 95.3207 291.116 94.714 291.116 94.042C291.116 93.314 291.256 92.684 291.536 92.152C291.816 91.62 292.194 91.2093 292.67 90.92C293.146 90.6307 293.673 90.486 294.252 90.486C294.69 90.486 295.082 90.5747 295.428 90.752C295.773 90.92 296.062 91.1533 296.296 91.452C296.538 91.7413 296.706 92.068 296.8 92.432L296.464 92.656V87.742H297.64V97.5H296.464V95.442L296.856 95.568C296.734 95.9693 296.552 96.324 296.31 96.632C296.067 96.94 295.773 97.1827 295.428 97.36C295.082 97.528 294.69 97.612 294.252 97.612ZM294.448 96.52C294.868 96.52 295.236 96.4173 295.554 96.212C295.871 95.9973 296.118 95.7033 296.296 95.33C296.473 94.9567 296.562 94.5273 296.562 94.042C296.562 93.5567 296.473 93.1273 296.296 92.754C296.118 92.3807 295.871 92.0913 295.554 91.886C295.236 91.6713 294.868 91.564 294.448 91.564C294.028 91.564 293.654 91.6713 293.328 91.886C293.01 92.0913 292.758 92.3807 292.572 92.754C292.394 93.1273 292.306 93.5567 292.306 94.042C292.306 94.5273 292.394 94.9567 292.572 95.33C292.758 95.7033 293.01 95.9973 293.328 96.212C293.654 96.4173 294.028 96.52 294.448 96.52ZM306.175 97.612C305.606 97.612 305.079 97.4907 304.593 97.248C304.117 97.0053 303.721 96.6693 303.403 96.24C303.095 95.8107 302.89 95.3207 302.787 94.77L303.949 94.56C304.015 94.9147 304.141 95.2413 304.327 95.54C304.523 95.8293 304.775 96.058 305.083 96.226C305.401 96.394 305.76 96.478 306.161 96.478C306.628 96.478 307.025 96.3707 307.351 96.156C307.678 95.932 307.925 95.6427 308.093 95.288C308.271 94.9333 308.359 94.5553 308.359 94.154C308.359 93.762 308.275 93.4073 308.107 93.09C307.949 92.7633 307.711 92.5067 307.393 92.32C307.085 92.124 306.703 92.026 306.245 92.026C305.835 92.026 305.461 92.1193 305.125 92.306C304.789 92.4927 304.5 92.7633 304.257 93.118L303.095 92.796L304.005 87.742H309.157V88.848H304.439L305.069 88.344L304.383 92.124L304.047 92.054C304.411 91.6247 304.794 91.326 305.195 91.158C305.606 90.99 306.012 90.906 306.413 90.906C307.039 90.906 307.589 91.0553 308.065 91.354C308.551 91.6433 308.929 92.0353 309.199 92.53C309.47 93.0247 309.605 93.566 309.605 94.154C309.605 94.6207 309.521 95.064 309.353 95.484C309.185 95.8947 308.947 96.2633 308.639 96.59C308.331 96.9073 307.967 97.1593 307.547 97.346C307.127 97.5233 306.67 97.612 306.175 97.612ZM310.677 93.692V92.81H314.149V93.692H310.677ZM317.987 97.612C317.521 97.612 317.101 97.542 316.727 97.402C316.354 97.262 316.032 97.0753 315.761 96.842C315.5 96.6087 315.29 96.3613 315.131 96.1L315.957 95.4C316.135 95.7547 316.396 96.0487 316.741 96.282C317.096 96.506 317.516 96.618 318.001 96.618C318.44 96.618 318.79 96.5247 319.051 96.338C319.313 96.1513 319.443 95.8993 319.443 95.582C319.443 95.3207 319.364 95.1153 319.205 94.966C319.047 94.8167 318.837 94.6953 318.575 94.602C318.314 94.5087 318.029 94.4247 317.721 94.35C317.46 94.2847 317.194 94.2053 316.923 94.112C316.662 94.0187 316.424 93.902 316.209 93.762C315.995 93.622 315.822 93.44 315.691 93.216C315.561 92.992 315.495 92.7167 315.495 92.39C315.495 91.8207 315.715 91.3633 316.153 91.018C316.601 90.6633 317.185 90.486 317.903 90.486C318.426 90.486 318.902 90.598 319.331 90.822C319.77 91.0367 320.111 91.3633 320.353 91.802L319.597 92.362C319.411 92.0353 319.163 91.802 318.855 91.662C318.557 91.5127 318.225 91.438 317.861 91.438C317.497 91.438 317.194 91.5127 316.951 91.662C316.709 91.8113 316.587 92.0167 316.587 92.278C316.587 92.474 316.643 92.6327 316.755 92.754C316.867 92.8753 317.031 92.978 317.245 93.062C317.469 93.146 317.74 93.2253 318.057 93.3C318.347 93.3653 318.641 93.4447 318.939 93.538C319.238 93.6313 319.513 93.7527 319.765 93.902C320.017 94.0513 320.218 94.252 320.367 94.504C320.526 94.7467 320.605 95.064 320.605 95.456C320.605 95.8853 320.498 96.2633 320.283 96.59C320.069 96.9167 319.765 97.1687 319.373 97.346C318.981 97.5233 318.519 97.612 317.987 97.612ZM324.577 97.612C324.251 97.612 323.952 97.5513 323.681 97.43C323.42 97.2993 323.215 97.094 323.065 96.814C322.916 96.534 322.841 96.1747 322.841 95.736V88.75L324.045 88.078V95.428C324.045 95.8107 324.106 96.1093 324.227 96.324C324.349 96.5293 324.568 96.632 324.885 96.632C324.979 96.632 325.091 96.6227 325.221 96.604C325.352 96.576 325.492 96.5433 325.641 96.506V97.43C325.464 97.4953 325.282 97.542 325.095 97.57C324.918 97.598 324.745 97.612 324.577 97.612ZM321.413 91.522V90.598H325.641V91.522H321.413ZM331.657 97.5L331.573 96.114V93.174C331.573 92.642 331.424 92.2313 331.125 91.942C330.836 91.6527 330.402 91.508 329.823 91.508C329.45 91.508 329.1 91.5873 328.773 91.746C328.447 91.8953 328.129 92.152 327.821 92.516L326.967 91.788C327.35 91.34 327.789 91.0133 328.283 90.808C328.778 90.5933 329.319 90.486 329.907 90.486C330.813 90.486 331.513 90.7193 332.007 91.186C332.502 91.6527 332.749 92.3153 332.749 93.174V97.5H331.657ZM329.375 97.612C328.853 97.612 328.395 97.5233 328.003 97.346C327.621 97.1593 327.322 96.9027 327.107 96.576C326.902 96.2493 326.799 95.8713 326.799 95.442C326.799 95.0593 326.874 94.7373 327.023 94.476C327.182 94.2053 327.383 93.9953 327.625 93.846C327.868 93.6873 328.143 93.58 328.451 93.524C328.769 93.4587 329.1 93.426 329.445 93.426H331.685V94.322H329.613C329.408 94.322 329.193 94.3407 328.969 94.378C328.745 94.4153 328.549 94.4947 328.381 94.616C328.26 94.7093 328.162 94.826 328.087 94.966C328.022 95.106 327.989 95.2693 327.989 95.456C327.989 95.82 328.125 96.1093 328.395 96.324C328.666 96.5387 329.03 96.646 329.487 96.646C329.87 96.646 330.215 96.5573 330.523 96.38C330.841 96.2027 331.093 95.96 331.279 95.652C331.475 95.3347 331.573 94.98 331.573 94.588L332.063 95.092C332.007 95.5867 331.858 96.0253 331.615 96.408C331.373 96.7907 331.06 97.0893 330.677 97.304C330.304 97.5093 329.87 97.612 329.375 97.612ZM334.682 97.5V90.598H335.872V92.446L335.564 92.516C335.629 92.1053 335.783 91.7507 336.026 91.452C336.278 91.144 336.567 90.906 336.894 90.738C337.23 90.57 337.556 90.486 337.874 90.486C338.088 90.486 338.294 90.5093 338.49 90.556C338.686 90.6027 338.886 90.682 339.092 90.794L338.504 91.858C338.392 91.802 338.256 91.7553 338.098 91.718C337.948 91.6807 337.804 91.662 337.664 91.662C337.44 91.662 337.216 91.704 336.992 91.788C336.777 91.872 336.581 92.0027 336.404 92.18C336.226 92.3573 336.091 92.5953 335.998 92.894C335.96 93.0247 335.928 93.1973 335.9 93.412C335.881 93.6173 335.872 93.902 335.872 94.266V97.5H334.682ZM344.02 97.5V87.742H345.21V92.068L344.916 92.18C345.046 91.8253 345.228 91.522 345.462 91.27C345.695 91.018 345.97 90.8267 346.288 90.696C346.605 90.556 346.95 90.486 347.324 90.486C348.08 90.486 348.672 90.71 349.102 91.158C349.531 91.5967 349.746 92.25 349.746 93.118V97.5H348.556V93.552C348.556 92.852 348.425 92.3387 348.164 92.012C347.912 91.676 347.524 91.508 347.002 91.508C346.432 91.508 345.989 91.7133 345.672 92.124C345.364 92.5253 345.21 93.1693 345.21 94.056V97.5H344.02ZM354.714 97.612C354.07 97.612 353.491 97.4627 352.978 97.164C352.474 96.856 352.077 96.4313 351.788 95.89C351.499 95.3487 351.354 94.7327 351.354 94.042C351.354 93.3513 351.494 92.74 351.774 92.208C352.063 91.6667 352.46 91.2467 352.964 90.948C353.477 90.64 354.061 90.486 354.714 90.486C355.367 90.486 355.941 90.64 356.436 90.948C356.94 91.2467 357.337 91.6667 357.626 92.208C357.915 92.74 358.06 93.3513 358.06 94.042C358.06 94.7327 357.915 95.3487 357.626 95.89C357.337 96.422 356.94 96.842 356.436 97.15C355.932 97.458 355.358 97.612 354.714 97.612ZM354.714 96.562C355.153 96.562 355.531 96.4593 355.848 96.254C356.175 96.0393 356.427 95.7453 356.604 95.372C356.781 94.9893 356.87 94.546 356.87 94.042C356.87 93.5287 356.781 93.0853 356.604 92.712C356.427 92.3293 356.175 92.0353 355.848 91.83C355.531 91.6247 355.153 91.522 354.714 91.522C354.266 91.522 353.879 91.6293 353.552 91.844C353.225 92.0493 352.973 92.3387 352.796 92.712C352.619 93.0853 352.53 93.5287 352.53 94.042C352.53 94.546 352.619 94.9893 352.796 95.372C352.973 95.7453 353.225 96.0393 353.552 96.254C353.879 96.4593 354.266 96.562 354.714 96.562ZM361.902 97.612C361.575 97.612 361.276 97.5513 361.006 97.43C360.744 97.2993 360.539 97.094 360.39 96.814C360.24 96.534 360.166 96.1747 360.166 95.736V88.75L361.37 88.078V95.428C361.37 95.8107 361.43 96.1093 361.552 96.324C361.673 96.5293 361.892 96.632 362.21 96.632C362.303 96.632 362.415 96.6227 362.546 96.604C362.676 96.576 362.816 96.5433 362.966 96.506V97.43C362.788 97.4953 362.606 97.542 362.42 97.57C362.242 97.598 362.07 97.612 361.902 97.612ZM358.738 91.522V90.598H362.966V91.522H358.738ZM367.221 97.612C366.679 97.612 366.203 97.5233 365.793 97.346C365.391 97.1593 365.055 96.9027 364.785 96.576C364.523 96.2493 364.323 95.876 364.183 95.456C364.052 95.0267 363.987 94.574 363.987 94.098C363.987 93.622 364.052 93.1693 364.183 92.74C364.313 92.3013 364.505 91.914 364.757 91.578C365.018 91.242 365.345 90.976 365.737 90.78C366.129 90.584 366.586 90.486 367.109 90.486C367.641 90.486 368.098 90.5793 368.481 90.766C368.873 90.9433 369.19 91.1907 369.433 91.508C369.685 91.8253 369.871 92.18 369.993 92.572C370.114 92.964 370.175 93.37 370.175 93.79C370.175 93.8273 370.17 93.916 370.161 94.056C370.161 94.1867 370.151 94.3033 370.133 94.406H365.163C365.191 95.078 365.387 95.6007 365.751 95.974C366.115 96.3473 366.609 96.534 367.235 96.534C367.636 96.534 367.986 96.4687 368.285 96.338C368.583 96.2073 368.863 95.9973 369.125 95.708L369.951 96.436C369.699 96.7067 369.433 96.9307 369.153 97.108C368.873 97.276 368.574 97.402 368.257 97.486C367.949 97.57 367.603 97.612 367.221 97.612ZM368.999 93.804C369.017 93.7293 369.027 93.6547 369.027 93.58C369.036 93.5053 369.041 93.4307 369.041 93.356C369.041 93.132 368.999 92.908 368.915 92.684C368.84 92.46 368.723 92.2593 368.565 92.082C368.415 91.8953 368.219 91.7507 367.977 91.648C367.743 91.536 367.463 91.48 367.137 91.48C366.735 91.48 366.39 91.5733 366.101 91.76C365.811 91.9467 365.587 92.194 365.429 92.502C365.27 92.81 365.177 93.1507 365.149 93.524H369.391L368.999 93.804ZM373.255 97.612C372.835 97.612 372.495 97.4813 372.233 97.22C371.972 96.9587 371.841 96.5433 371.841 95.974V87.742H373.017V95.75C373.017 96.0207 373.073 96.2167 373.185 96.338C373.297 96.4593 373.447 96.52 373.633 96.52C373.717 96.52 373.811 96.5107 373.913 96.492C374.016 96.4733 374.123 96.4453 374.235 96.408V97.416C374.077 97.4813 373.909 97.528 373.731 97.556C373.554 97.5933 373.395 97.612 373.255 97.612ZM379.197 97.5V90.598H380.373V97.5H379.197ZM379.085 89.352V87.742H380.485V89.352H379.085ZM382.369 97.5V90.598H383.559V92.068L383.279 92.166C383.41 91.8113 383.587 91.5127 383.811 91.27C384.035 91.018 384.306 90.8267 384.623 90.696C384.941 90.556 385.291 90.486 385.673 90.486C386.429 90.486 387.022 90.71 387.451 91.158C387.881 91.5967 388.095 92.25 388.095 93.118V97.5H386.905V93.552C386.905 92.852 386.775 92.3387 386.513 92.012C386.261 91.676 385.874 91.508 385.351 91.508C384.969 91.508 384.642 91.5967 384.371 91.774C384.11 91.9513 383.909 92.2313 383.769 92.614C383.629 92.9873 383.559 93.468 383.559 94.056V97.5H382.369ZM392.892 97.5L396.616 87.742H397.596L401.32 97.5H399.976L397.12 89.506L394.25 97.5H392.892ZM394.964 95.204L395.342 94.098H398.87L399.276 95.204H394.964ZM402.576 97.5V90.598H403.766V92.376H403.528C403.612 92.0493 403.724 91.7693 403.864 91.536C404.014 91.2933 404.186 91.0973 404.382 90.948C404.578 90.7893 404.788 90.6727 405.012 90.598C405.246 90.5233 405.488 90.486 405.74 90.486C406.16 90.486 406.529 90.5653 406.846 90.724C407.164 90.8827 407.425 91.1253 407.63 91.452C407.836 91.7693 407.976 92.1753 408.05 92.67L407.378 92.712C407.518 92.236 407.696 91.8347 407.91 91.508C408.125 91.172 408.391 90.92 408.708 90.752C409.035 90.5747 409.422 90.486 409.87 90.486C410.44 90.486 410.897 90.6167 411.242 90.878C411.588 91.13 411.84 91.4707 411.998 91.9C412.157 92.32 412.236 92.7867 412.236 93.3V97.5H411.06V93.58C411.06 93.1507 411.009 92.782 410.906 92.474C410.813 92.166 410.659 91.928 410.444 91.76C410.239 91.592 409.959 91.508 409.604 91.508C409.268 91.508 408.979 91.592 408.736 91.76C408.503 91.928 408.321 92.1847 408.19 92.53C408.069 92.866 408.008 93.286 408.008 93.79V97.5H406.818V93.482C406.818 92.8193 406.697 92.3247 406.454 91.998C406.212 91.6713 405.857 91.508 405.39 91.508C405.054 91.508 404.765 91.5967 404.522 91.774C404.28 91.942 404.093 92.194 403.962 92.53C403.832 92.866 403.766 93.286 403.766 93.79V97.5H402.576ZM416.452 97.612C415.985 97.612 415.565 97.542 415.192 97.402C414.819 97.262 414.497 97.0753 414.226 96.842C413.965 96.6087 413.755 96.3613 413.596 96.1L414.422 95.4C414.599 95.7547 414.861 96.0487 415.206 96.282C415.561 96.506 415.981 96.618 416.466 96.618C416.905 96.618 417.255 96.5247 417.516 96.338C417.777 96.1513 417.908 95.8993 417.908 95.582C417.908 95.3207 417.829 95.1153 417.67 94.966C417.511 94.8167 417.301 94.6953 417.04 94.602C416.779 94.5087 416.494 94.4247 416.186 94.35C415.925 94.2847 415.659 94.2053 415.388 94.112C415.127 94.0187 414.889 93.902 414.674 93.762C414.459 93.622 414.287 93.44 414.156 93.216C414.025 92.992 413.96 92.7167 413.96 92.39C413.96 91.8207 414.179 91.3633 414.618 91.018C415.066 90.6633 415.649 90.486 416.368 90.486C416.891 90.486 417.367 90.598 417.796 90.822C418.235 91.0367 418.575 91.3633 418.818 91.802L418.062 92.362C417.875 92.0353 417.628 91.802 417.32 91.662C417.021 91.5127 416.69 91.438 416.326 91.438C415.962 91.438 415.659 91.5127 415.416 91.662C415.173 91.8113 415.052 92.0167 415.052 92.278C415.052 92.474 415.108 92.6327 415.22 92.754C415.332 92.8753 415.495 92.978 415.71 93.062C415.934 93.146 416.205 93.2253 416.522 93.3C416.811 93.3653 417.105 93.4447 417.404 93.538C417.703 93.6313 417.978 93.7527 418.23 93.902C418.482 94.0513 418.683 94.252 418.832 94.504C418.991 94.7467 419.07 95.064 419.07 95.456C419.07 95.8853 418.963 96.2633 418.748 96.59C418.533 96.9167 418.23 97.1687 417.838 97.346C417.446 97.5233 416.984 97.612 416.452 97.612ZM423.042 97.612C422.716 97.612 422.417 97.5513 422.146 97.43C421.885 97.2993 421.68 97.094 421.53 96.814C421.381 96.534 421.306 96.1747 421.306 95.736V88.75L422.51 88.078V95.428C422.51 95.8107 422.571 96.1093 422.692 96.324C422.814 96.5293 423.033 96.632 423.35 96.632C423.444 96.632 423.556 96.6227 423.686 96.604C423.817 96.576 423.957 96.5433 424.106 96.506V97.43C423.929 97.4953 423.747 97.542 423.56 97.57C423.383 97.598 423.21 97.612 423.042 97.612ZM419.878 91.522V90.598H424.106V91.522H419.878ZM428.361 97.612C427.82 97.612 427.344 97.5233 426.933 97.346C426.532 97.1593 426.196 96.9027 425.925 96.576C425.664 96.2493 425.463 95.876 425.323 95.456C425.193 95.0267 425.127 94.574 425.127 94.098C425.127 93.622 425.193 93.1693 425.323 92.74C425.454 92.3013 425.645 91.914 425.897 91.578C426.159 91.242 426.485 90.976 426.877 90.78C427.269 90.584 427.727 90.486 428.249 90.486C428.781 90.486 429.239 90.5793 429.621 90.766C430.013 90.9433 430.331 91.1907 430.573 91.508C430.825 91.8253 431.012 92.18 431.133 92.572C431.255 92.964 431.315 93.37 431.315 93.79C431.315 93.8273 431.311 93.916 431.301 94.056C431.301 94.1867 431.292 94.3033 431.273 94.406H426.303C426.331 95.078 426.527 95.6007 426.891 95.974C427.255 96.3473 427.75 96.534 428.375 96.534C428.777 96.534 429.127 96.4687 429.425 96.338C429.724 96.2073 430.004 95.9973 430.265 95.708L431.091 96.436C430.839 96.7067 430.573 96.9307 430.293 97.108C430.013 97.276 429.715 97.402 429.397 97.486C429.089 97.57 428.744 97.612 428.361 97.612ZM430.139 93.804C430.158 93.7293 430.167 93.6547 430.167 93.58C430.177 93.5053 430.181 93.4307 430.181 93.356C430.181 93.132 430.139 92.908 430.055 92.684C429.981 92.46 429.864 92.2593 429.705 92.082C429.556 91.8953 429.36 91.7507 429.117 91.648C428.884 91.536 428.604 91.48 428.277 91.48C427.876 91.48 427.531 91.5733 427.241 91.76C426.952 91.9467 426.728 92.194 426.569 92.502C426.411 92.81 426.317 93.1507 426.289 93.524H430.531L430.139 93.804ZM433.01 97.5V90.598H434.2V92.446L433.892 92.516C433.957 92.1053 434.111 91.7507 434.354 91.452C434.606 91.144 434.895 90.906 435.222 90.738C435.558 90.57 435.885 90.486 436.202 90.486C436.417 90.486 436.622 90.5093 436.818 90.556C437.014 90.6027 437.215 90.682 437.42 90.794L436.832 91.858C436.72 91.802 436.585 91.7553 436.426 91.718C436.277 91.6807 436.132 91.662 435.992 91.662C435.768 91.662 435.544 91.704 435.32 91.788C435.105 91.872 434.909 92.0027 434.732 92.18C434.555 92.3573 434.419 92.5953 434.326 92.894C434.289 93.0247 434.256 93.1973 434.228 93.412C434.209 93.6173 434.2 93.902 434.2 94.266V97.5H433.01ZM441.129 97.612C440.503 97.612 439.953 97.458 439.477 97.15C439.01 96.8327 438.646 96.4033 438.385 95.862C438.123 95.3207 437.993 94.714 437.993 94.042C437.993 93.314 438.133 92.684 438.413 92.152C438.693 91.62 439.071 91.2093 439.547 90.92C440.023 90.6307 440.55 90.486 441.129 90.486C441.567 90.486 441.959 90.5747 442.305 90.752C442.65 90.92 442.939 91.1533 443.173 91.452C443.415 91.7413 443.583 92.068 443.677 92.432L443.341 92.656V87.742H444.517V97.5H443.341V95.442L443.733 95.568C443.611 95.9693 443.429 96.324 443.187 96.632C442.944 96.94 442.65 97.1827 442.305 97.36C441.959 97.528 441.567 97.612 441.129 97.612ZM441.325 96.52C441.745 96.52 442.113 96.4173 442.431 96.212C442.748 95.9973 442.995 95.7033 443.173 95.33C443.35 94.9567 443.439 94.5273 443.439 94.042C443.439 93.5567 443.35 93.1273 443.173 92.754C442.995 92.3807 442.748 92.0913 442.431 91.886C442.113 91.6713 441.745 91.564 441.325 91.564C440.905 91.564 440.531 91.6713 440.205 91.886C439.887 92.0913 439.635 92.3807 439.449 92.754C439.271 93.1273 439.183 93.5567 439.183 94.042C439.183 94.5273 439.271 94.9567 439.449 95.33C439.635 95.7033 439.887 95.9973 440.205 96.212C440.531 96.4173 440.905 96.52 441.325 96.52ZM451.067 97.5L450.983 96.114V93.174C450.983 92.642 450.834 92.2313 450.535 91.942C450.246 91.6527 449.812 91.508 449.233 91.508C448.86 91.508 448.51 91.5873 448.183 91.746C447.857 91.8953 447.539 92.152 447.231 92.516L446.377 91.788C446.76 91.34 447.199 91.0133 447.693 90.808C448.188 90.5933 448.729 90.486 449.317 90.486C450.223 90.486 450.923 90.7193 451.417 91.186C451.912 91.6527 452.159 92.3153 452.159 93.174V97.5H451.067ZM448.785 97.612C448.263 97.612 447.805 97.5233 447.413 97.346C447.031 97.1593 446.732 96.9027 446.517 96.576C446.312 96.2493 446.209 95.8713 446.209 95.442C446.209 95.0593 446.284 94.7373 446.433 94.476C446.592 94.2053 446.793 93.9953 447.035 93.846C447.278 93.6873 447.553 93.58 447.861 93.524C448.179 93.4587 448.51 93.426 448.855 93.426H451.095V94.322H449.023C448.818 94.322 448.603 94.3407 448.379 94.378C448.155 94.4153 447.959 94.4947 447.791 94.616C447.67 94.7093 447.572 94.826 447.497 94.966C447.432 95.106 447.399 95.2693 447.399 95.456C447.399 95.82 447.535 96.1093 447.805 96.324C448.076 96.5387 448.44 96.646 448.897 96.646C449.28 96.646 449.625 96.5573 449.933 96.38C450.251 96.2027 450.503 95.96 450.689 95.652C450.885 95.3347 450.983 94.98 450.983 94.588L451.473 95.092C451.417 95.5867 451.268 96.0253 451.025 96.408C450.783 96.7907 450.47 97.0893 450.087 97.304C449.714 97.5093 449.28 97.612 448.785 97.612ZM454.092 97.5V90.598H455.282V92.376H455.044C455.128 92.0493 455.24 91.7693 455.38 91.536C455.529 91.2933 455.702 91.0973 455.898 90.948C456.094 90.7893 456.304 90.6727 456.528 90.598C456.761 90.5233 457.004 90.486 457.256 90.486C457.676 90.486 458.045 90.5653 458.362 90.724C458.679 90.8827 458.941 91.1253 459.146 91.452C459.351 91.7693 459.491 92.1753 459.566 92.67L458.894 92.712C459.034 92.236 459.211 91.8347 459.426 91.508C459.641 91.172 459.907 90.92 460.224 90.752C460.551 90.5747 460.938 90.486 461.386 90.486C461.955 90.486 462.413 90.6167 462.758 90.878C463.103 91.13 463.355 91.4707 463.514 91.9C463.673 92.32 463.752 92.7867 463.752 93.3V97.5H462.576V93.58C462.576 93.1507 462.525 92.782 462.422 92.474C462.329 92.166 462.175 91.928 461.96 91.76C461.755 91.592 461.475 91.508 461.12 91.508C460.784 91.508 460.495 91.592 460.252 91.76C460.019 91.928 459.837 92.1847 459.706 92.53C459.585 92.866 459.524 93.286 459.524 93.79V97.5H458.334V93.482C458.334 92.8193 458.213 92.3247 457.97 91.998C457.727 91.6713 457.373 91.508 456.906 91.508C456.57 91.508 456.281 91.5967 456.038 91.774C455.795 91.942 455.609 92.194 455.478 92.53C455.347 92.866 455.282 93.286 455.282 93.79V97.5H454.092ZM467.128 94.7V93.902C467.128 93.5287 467.184 93.2207 467.296 92.978C467.418 92.726 467.567 92.5113 467.744 92.334C467.931 92.1567 468.127 91.998 468.332 91.858C468.547 91.7087 468.743 91.5593 468.92 91.41C469.107 91.2607 469.256 91.088 469.368 90.892C469.49 90.6867 469.55 90.4393 469.55 90.15C469.55 89.6553 469.382 89.2773 469.046 89.016C468.72 88.7547 468.262 88.624 467.674 88.624C467.058 88.624 466.578 88.7873 466.232 89.114C465.896 89.4313 465.728 89.8793 465.728 90.458H464.678C464.688 89.8513 464.818 89.338 465.07 88.918C465.332 88.498 465.686 88.1807 466.134 87.966C466.592 87.742 467.11 87.63 467.688 87.63C468.239 87.63 468.734 87.7233 469.172 87.91C469.611 88.0873 469.956 88.3627 470.208 88.736C470.46 89.1093 470.586 89.5853 470.586 90.164C470.586 90.5653 470.526 90.9013 470.404 91.172C470.292 91.4427 470.143 91.6713 469.956 91.858C469.77 92.0447 469.574 92.208 469.368 92.348C469.163 92.488 468.967 92.628 468.78 92.768C468.594 92.908 468.44 93.076 468.318 93.272C468.206 93.4587 468.15 93.6967 468.15 93.986V94.7H467.128ZM466.96 97.5V95.876H468.36V97.5H466.96Z" fill="#151A1A"/>
<path d="M69.5586 123.066C69.8047 123.34 69.8047 123.75 69.5586 123.996L62.3398 131.215C62.0664 131.488 61.6562 131.488 61.4102 131.215L57.6914 127.496C57.418 127.25 57.418 126.84 57.6914 126.594C57.9375 126.32 58.3477 126.32 58.5938 126.594L61.8477 129.848L68.6289 123.066C68.875 122.82 69.2852 122.82 69.5312 123.066H69.5586Z" fill="#A1A3A3"/>
<path d="M81.05 132.5V122.742H84.06C84.8253 122.742 85.446 122.854 85.922 123.078C86.4073 123.302 86.762 123.624 86.986 124.044C87.2193 124.455 87.336 124.945 87.336 125.514C87.336 126.354 87.0933 127.012 86.608 127.488C86.132 127.964 85.4413 128.239 84.536 128.314C84.3773 128.323 84.1953 128.328 83.99 128.328C83.7847 128.328 83.5933 128.328 83.416 128.328H82.478V132.5H81.05ZM86.454 132.5L83.948 128.16L85.404 127.978L88.092 132.5H86.454ZM82.478 127.068H83.92C84.312 127.068 84.6527 127.021 84.942 126.928C85.2407 126.825 85.4787 126.662 85.656 126.438C85.8333 126.214 85.922 125.911 85.922 125.528C85.922 125.145 85.8333 124.847 85.656 124.632C85.4787 124.408 85.2407 124.249 84.942 124.156C84.6433 124.063 84.3027 124.016 83.92 124.016H82.478V127.068ZM92.0548 132.626C91.4948 132.626 91.0094 132.533 90.5988 132.346C90.1881 132.159 89.8474 131.903 89.5768 131.576C89.3061 131.24 89.1008 130.862 88.9608 130.442C88.8301 130.013 88.7648 129.565 88.7648 129.098C88.7648 128.631 88.8301 128.183 88.9608 127.754C89.0914 127.315 89.2874 126.928 89.5488 126.592C89.8101 126.247 90.1368 125.976 90.5288 125.78C90.9301 125.575 91.4014 125.472 91.9428 125.472C92.4841 125.472 92.9508 125.565 93.3428 125.752C93.7348 125.929 94.0568 126.181 94.3088 126.508C94.5608 126.825 94.7474 127.185 94.8688 127.586C94.9994 127.987 95.0648 128.412 95.0648 128.86C95.0648 128.907 95.0601 128.995 95.0508 129.126C95.0508 129.247 95.0414 129.364 95.0228 129.476H90.1368C90.1648 130.092 90.3514 130.568 90.6968 130.904C91.0514 131.231 91.5181 131.394 92.0968 131.394C92.4888 131.394 92.8388 131.333 93.1468 131.212C93.4548 131.081 93.7394 130.881 94.0008 130.61L94.8408 131.478C94.5701 131.749 94.2901 131.968 94.0008 132.136C93.7208 132.304 93.4221 132.425 93.1048 132.5C92.7968 132.584 92.4468 132.626 92.0548 132.626ZM93.7068 128.79C93.7254 128.715 93.7348 128.641 93.7348 128.566C93.7441 128.491 93.7488 128.417 93.7488 128.342C93.7488 128.127 93.7114 127.917 93.6368 127.712C93.5621 127.507 93.4501 127.325 93.3008 127.166C93.1514 126.998 92.9648 126.867 92.7408 126.774C92.5261 126.671 92.2741 126.62 91.9848 126.62C91.6021 126.62 91.2754 126.709 91.0048 126.886C90.7341 127.054 90.5241 127.278 90.3748 127.558C90.2348 127.838 90.1508 128.141 90.1228 128.468H94.1548L93.7068 128.79ZM101.155 132.5L101.043 131.226V128.16C101.043 127.675 100.903 127.301 100.623 127.04C100.343 126.779 99.9373 126.648 99.4053 126.648C99.032 126.648 98.6726 126.723 98.3273 126.872C97.9913 127.021 97.6693 127.264 97.3613 127.6L96.5073 126.718C96.918 126.289 97.3706 125.976 97.8653 125.78C98.3693 125.575 98.9153 125.472 99.5033 125.472C100.427 125.472 101.141 125.71 101.645 126.186C102.159 126.653 102.415 127.311 102.415 128.16V132.5H101.155ZM98.9293 132.626C98.416 132.626 97.9633 132.533 97.5713 132.346C97.1793 132.159 96.876 131.903 96.6613 131.576C96.4466 131.24 96.3393 130.853 96.3393 130.414C96.3393 130.031 96.4186 129.705 96.5773 129.434C96.736 129.154 96.9413 128.939 97.1933 128.79C97.4266 128.641 97.6926 128.538 97.9913 128.482C98.2993 128.417 98.626 128.384 98.9713 128.384H101.169V129.42H99.1673C98.9806 129.42 98.7846 129.439 98.5793 129.476C98.3833 129.504 98.2153 129.569 98.0753 129.672C97.9633 129.756 97.8746 129.863 97.8093 129.994C97.744 130.115 97.7113 130.26 97.7113 130.428C97.7113 130.755 97.8373 131.016 98.0893 131.212C98.3413 131.408 98.6773 131.506 99.0973 131.506C99.452 131.506 99.774 131.427 100.063 131.268C100.362 131.1 100.6 130.876 100.777 130.596C100.955 130.307 101.043 129.98 101.043 129.616L101.533 130.26C101.449 130.745 101.286 131.17 101.043 131.534C100.801 131.889 100.497 132.159 100.133 132.346C99.7786 132.533 99.3773 132.626 98.9293 132.626ZM106.559 132.626C106.074 132.626 105.645 132.556 105.271 132.416C104.898 132.267 104.576 132.08 104.305 131.856C104.044 131.623 103.834 131.385 103.675 131.142L104.613 130.33C104.791 130.647 105.043 130.923 105.369 131.156C105.705 131.38 106.107 131.492 106.573 131.492C106.984 131.492 107.306 131.408 107.539 131.24C107.782 131.063 107.903 130.834 107.903 130.554C107.903 130.33 107.829 130.153 107.679 130.022C107.53 129.882 107.334 129.77 107.091 129.686C106.849 129.593 106.583 129.513 106.293 129.448C106.032 129.373 105.766 129.289 105.495 129.196C105.225 129.103 104.977 128.986 104.753 128.846C104.539 128.697 104.361 128.51 104.221 128.286C104.091 128.053 104.025 127.768 104.025 127.432C104.025 126.844 104.249 126.373 104.697 126.018C105.155 125.654 105.757 125.472 106.503 125.472C107.035 125.472 107.521 125.584 107.959 125.808C108.398 126.023 108.739 126.345 108.981 126.774L108.127 127.432C107.941 127.124 107.698 126.9 107.399 126.76C107.11 126.62 106.793 126.55 106.447 126.55C106.121 126.55 105.845 126.62 105.621 126.76C105.407 126.891 105.299 127.073 105.299 127.306C105.299 127.474 105.346 127.614 105.439 127.726C105.542 127.829 105.696 127.922 105.901 128.006C106.116 128.081 106.377 128.155 106.685 128.23C106.975 128.295 107.269 128.375 107.567 128.468C107.866 128.561 108.141 128.683 108.393 128.832C108.645 128.981 108.851 129.182 109.009 129.434C109.168 129.686 109.247 130.013 109.247 130.414C109.247 130.853 109.135 131.24 108.911 131.576C108.687 131.903 108.375 132.159 107.973 132.346C107.572 132.533 107.101 132.626 106.559 132.626ZM113.905 132.626C113.252 132.626 112.668 132.472 112.155 132.164C111.642 131.856 111.236 131.431 110.937 130.89C110.648 130.349 110.503 129.733 110.503 129.042C110.503 128.351 110.648 127.74 110.937 127.208C111.226 126.667 111.628 126.242 112.141 125.934C112.664 125.626 113.252 125.472 113.905 125.472C114.568 125.472 115.151 125.626 115.655 125.934C116.159 126.242 116.556 126.667 116.845 127.208C117.144 127.74 117.293 128.351 117.293 129.042C117.293 129.733 117.144 130.349 116.845 130.89C116.556 131.422 116.154 131.847 115.641 132.164C115.137 132.472 114.558 132.626 113.905 132.626ZM113.905 131.408C114.316 131.408 114.67 131.31 114.969 131.114C115.277 130.918 115.51 130.643 115.669 130.288C115.837 129.933 115.921 129.518 115.921 129.042C115.921 128.557 115.837 128.137 115.669 127.782C115.51 127.427 115.277 127.157 114.969 126.97C114.67 126.774 114.316 126.676 113.905 126.676C113.485 126.676 113.121 126.774 112.813 126.97C112.514 127.166 112.281 127.441 112.113 127.796C111.954 128.141 111.875 128.557 111.875 129.042C111.875 129.518 111.954 129.933 112.113 130.288C112.281 130.643 112.514 130.918 112.813 131.114C113.121 131.31 113.485 131.408 113.905 131.408ZM118.878 132.5V125.598H120.264V127.096L119.984 127.18C120.105 126.797 120.278 126.485 120.502 126.242C120.735 125.99 121.006 125.799 121.314 125.668C121.631 125.537 121.972 125.472 122.336 125.472C123.101 125.472 123.698 125.696 124.128 126.144C124.566 126.583 124.786 127.227 124.786 128.076V132.5H123.414V128.58C123.414 127.917 123.292 127.432 123.05 127.124C122.816 126.816 122.452 126.662 121.958 126.662C121.584 126.662 121.272 126.746 121.02 126.914C120.777 127.082 120.59 127.348 120.46 127.712C120.329 128.076 120.264 128.538 120.264 129.098V132.5H118.878ZM129.584 132.626C129.024 132.626 128.539 132.533 128.128 132.346C127.717 132.159 127.377 131.903 127.106 131.576C126.835 131.24 126.63 130.862 126.49 130.442C126.359 130.013 126.294 129.565 126.294 129.098C126.294 128.631 126.359 128.183 126.49 127.754C126.621 127.315 126.817 126.928 127.078 126.592C127.339 126.247 127.666 125.976 128.058 125.78C128.459 125.575 128.931 125.472 129.472 125.472C130.013 125.472 130.48 125.565 130.872 125.752C131.264 125.929 131.586 126.181 131.838 126.508C132.09 126.825 132.277 127.185 132.398 127.586C132.529 127.987 132.594 128.412 132.594 128.86C132.594 128.907 132.589 128.995 132.58 129.126C132.58 129.247 132.571 129.364 132.552 129.476H127.666C127.694 130.092 127.881 130.568 128.226 130.904C128.581 131.231 129.047 131.394 129.626 131.394C130.018 131.394 130.368 131.333 130.676 131.212C130.984 131.081 131.269 130.881 131.53 130.61L132.37 131.478C132.099 131.749 131.819 131.968 131.53 132.136C131.25 132.304 130.951 132.425 130.634 132.5C130.326 132.584 129.976 132.626 129.584 132.626ZM131.236 128.79C131.255 128.715 131.264 128.641 131.264 128.566C131.273 128.491 131.278 128.417 131.278 128.342C131.278 128.127 131.241 127.917 131.166 127.712C131.091 127.507 130.979 127.325 130.83 127.166C130.681 126.998 130.494 126.867 130.27 126.774C130.055 126.671 129.803 126.62 129.514 126.62C129.131 126.62 128.805 126.709 128.534 126.886C128.263 127.054 128.053 127.278 127.904 127.558C127.764 127.838 127.68 128.141 127.652 128.468H131.684L131.236 128.79ZM136.935 132.626C136.309 132.626 135.768 132.472 135.311 132.164C134.853 131.847 134.494 131.417 134.233 130.876C133.981 130.325 133.855 129.714 133.855 129.042C133.855 128.305 133.99 127.67 134.261 127.138C134.541 126.606 134.914 126.195 135.381 125.906C135.847 125.617 136.365 125.472 136.935 125.472C137.345 125.472 137.719 125.556 138.055 125.724C138.4 125.892 138.689 126.125 138.923 126.424C139.156 126.723 139.319 127.073 139.413 127.474L139.063 127.586V122.742H140.421V132.5H139.063V130.512L139.469 130.526C139.347 130.974 139.165 131.357 138.923 131.674C138.68 131.982 138.386 132.22 138.041 132.388C137.705 132.547 137.336 132.626 136.935 132.626ZM137.215 131.366C137.616 131.366 137.961 131.268 138.251 131.072C138.549 130.876 138.778 130.605 138.937 130.26C139.105 129.905 139.189 129.499 139.189 129.042C139.189 128.585 139.105 128.183 138.937 127.838C138.778 127.483 138.549 127.213 138.251 127.026C137.961 126.83 137.616 126.732 137.215 126.732C136.823 126.732 136.477 126.83 136.179 127.026C135.88 127.213 135.647 127.483 135.479 127.838C135.32 128.183 135.241 128.585 135.241 129.042C135.241 129.499 135.32 129.905 135.479 130.26C135.647 130.605 135.88 130.876 136.179 131.072C136.477 131.268 136.823 131.366 137.215 131.366Z" fill="#737676"/>
</g>
<defs>
<clipPath id="clip0_436_2261">
<path d="M0 12.5C0 5.87258 5.37258 0.5 12 0.5H484C490.627 0.5 496 5.87258 496 12.5V143.5C496 150.127 490.627 155.5 484 155.5H12C5.37257 155.5 0 150.127 0 143.5V12.5Z" fill="white"/>
</clipPath>
</defs>
</svg>
