<svg width="32" height="32" viewBox="0 0 32 32" fill="none" xmlns="http://www.w3.org/2000/svg">
<g clip-path="url(#clip0_8555_2153)">
<path d="M20.3028 23.8148L18.9387 30.4856C18.7332 31.4666 17.7709 32.1113 16.7899 31.9057L1.45834 28.7759C0.477342 28.5703 -0.167312 27.608 0.0382299 26.627L1.73862 18.3026C1.94416 17.3216 2.90647 16.6769 3.88747 16.8825L7.78342 17.6766" stroke="black" stroke-width="1.4" stroke-miterlimit="10" stroke-linejoin="round"/>
<path d="M26.3289 14.9206L26.2075 20.8346C26.1701 22.4695 24.8154 23.7589 23.1897 23.7215L10.9787 23.4505C9.34367 23.4132 8.05436 22.0585 8.09173 20.4328L8.21319 14.9392C8.25056 13.3042 9.60527 12.0149 11.2309 12.0523L13.7441 12.1177" stroke="black" stroke-width="1.4" stroke-miterlimit="10" stroke-linejoin="round"/>
<path d="M21.492 4.72484L17.8518 5.61738C15.0235 6.25737 13.2495 9.06902 13.8894 11.8974L13.8915 11.9065C14.5315 14.7349 17.3432 16.5089 20.1715 15.8689L26.2131 14.5018C28.6669 13.9466 30.3272 11.7567 30.3059 9.3394" stroke="black" stroke-width="1.4" stroke-miterlimit="10" stroke-linejoin="round"/>
<path d="M26.7587 10.5385C29.6534 10.5385 32 8.19193 32 5.29723C32 2.40253 29.6534 0.0559082 26.7587 0.0559082C23.864 0.0559082 21.5173 2.40253 21.5173 5.29723C21.5173 8.19193 23.864 10.5385 26.7587 10.5385Z" fill="black" stroke="black" stroke-width="1.4" stroke-miterlimit="10" stroke-linejoin="round"/>
</g>
<defs>
<clipPath id="clip0_8555_2153">
<rect width="32" height="31.888" fill="white" transform="translate(0 0.0559082)"/>
</clipPath>
</defs>
</svg>
