<svg width="25" height="24" viewBox="0 0 25 24" fill="none" xmlns="http://www.w3.org/2000/svg">
<g clip-path="url(#clip0_8555_2472)">
<path d="M0.578247 12.7343V11.2703C1.22274 1.36988 12.8587 -3.6836 20.2385 3.11693C27.978 10.2489 23.2993 23.4968 12.8675 23.9936C11.8711 24.041 9.35685 23.8268 8.50918 23.3225C7.74525 22.8681 7.81096 21.6877 8.63575 21.3564C9.17378 21.1402 9.7581 21.4751 10.3083 21.5941C19.8768 23.6632 25.9919 11.4906 18.8485 4.78281C12.1638 -1.49424 1.45592 4.40355 2.81898 13.5099C2.89966 14.0489 3.16413 14.6932 3.20881 15.1829C3.33099 16.5223 1.62094 16.8933 1.15008 15.7117C0.861035 14.9864 0.624396 13.51 0.578247 12.7343Z" fill="black"/>
<path d="M17.5069 12.4821L15.1249 16.4454L7.87456 16.4937C6.37881 17.2656 7.11681 19.2763 6.92837 20.6301C6.86673 21.073 6.42694 21.3742 6.01368 21.4164C5.54038 21.4647 4.44601 21.471 3.97865 21.4171C3.4464 21.3558 3.11317 20.962 3.06093 20.432C3.01844 20.001 3.00874 18.4881 3.12401 18.1248C3.4708 17.0317 5.23964 17.5363 6.11472 17.4302C6.21517 17.418 6.36094 17.3692 6.43366 17.3002C6.53698 17.2021 6.969 16.4383 7.02089 16.2819C7.13497 15.9382 7.14831 15.5376 7.266 15.1681C7.75932 13.6194 9.23952 12.55 10.8303 12.4823L17.5069 12.4821Z" fill="black"/>
<path d="M17.5072 7.53469L15.0994 11.4722H7.08163C7.03329 9.71588 8.26699 8.11904 9.92224 7.67186C10.0405 7.63991 10.4444 7.53467 10.532 7.53467L17.5072 7.53469Z" fill="black"/>
</g>
<defs>
<clipPath id="clip0_8555_2472">
<rect width="23.5102" height="24" fill="white" transform="translate(0.578247)"/>
</clipPath>
</defs>
</svg>
