<svg width="32" height="24" viewBox="0 0 32 24" fill="none" xmlns="http://www.w3.org/2000/svg">
<g clip-path="url(#clip0_8555_2053)">
<rect x="7.52844" y="1.89819" width="16.443" height="9.91786" rx="0.591543" stroke="black" stroke-width="1.40116"/>
<rect x="0.919434" width="19.8518" height="13.7865" rx="0.591543" fill="white" stroke="black" stroke-width="1.40116"/>
<path d="M1.36658 0.504395L10.3389 9.0138C10.5644 9.22769 10.917 9.23055 11.146 9.02035L20.4225 0.504395" stroke="black" stroke-width="1.40116"/>
<path d="M20.3856 13.3818L13.7284 6.72461" stroke="black" stroke-width="1.40116"/>
<path d="M1.36675 13.3818L8.02393 6.72461" stroke="black" stroke-width="1.40116"/>
<circle cx="22.4042" cy="15.3242" r="8.67578" fill="white" stroke="black" stroke-width="1.40116"/>
<path d="M3.62793 19.0376H8.02417" stroke="black" stroke-width="1.40116"/>
<path d="M26.6842 3.37964H31.0804" stroke="black" stroke-width="1.40116"/>
<path d="M27.3634 14.8003L19.8508 10.8634C19.4097 10.6323 18.8978 11.0163 18.9964 11.5044L19.7437 15.2072C19.7593 15.2845 19.7593 15.364 19.7437 15.4413L18.9964 19.1441C18.8978 19.6322 19.4097 20.0162 19.8508 19.7851L27.3634 15.8482C27.786 15.6267 27.786 15.0218 27.3634 14.8003Z" stroke="black" stroke-width="1.40116"/>
<path d="M19.9523 15.3706H27.9936" stroke="black" stroke-width="1.40116"/>
</g>
<defs>
<clipPath id="clip0_8555_2053">
<rect width="30.1609" height="24" fill="white" transform="translate(0.919434)"/>
</clipPath>
</defs>
</svg>
