<svg width="27" height="24" viewBox="0 0 27 24" fill="none" xmlns="http://www.w3.org/2000/svg">
<g clip-path="url(#clip0_8555_2035)">
<path d="M9.00452 0C13.8421 0 17.7643 2.88634 17.7643 6.44629C17.764 10.006 13.8419 12.8916 9.00452 12.8916C8.34591 12.8916 7.7045 12.8371 7.08749 12.7354C6.93701 12.7106 6.78257 12.7426 6.6543 12.8251C5.43511 13.6091 4.10961 14.143 2.8464 14.3572C2.32346 14.4459 2.04914 13.7833 2.35543 13.3502C2.67963 12.8918 2.96459 12.3818 3.20716 11.8574C3.32731 11.5977 3.22483 11.2942 2.98991 11.1308C1.30042 9.95589 0.24589 8.29193 0.245728 6.44629C0.245728 2.88643 4.16714 0.00014261 9.00452 0Z" fill="white"/>
<path d="M9.00452 0V-0.7H9.0045L9.00452 0ZM17.7643 6.44629L18.4643 6.44635V6.44629H17.7643ZM9.00452 12.8916L9.0045 13.5916H9.00452V12.8916ZM0.245728 6.44629H-0.454272V6.44635L0.245728 6.44629ZM3.20716 11.8574L2.57186 11.5635L3.20716 11.8574ZM2.98991 11.1308L2.59025 11.7055L2.98991 11.1308ZM2.8464 14.3572L2.72934 13.6671L2.8464 14.3572ZM2.35543 13.3502L1.78393 12.946L2.35543 13.3502ZM7.08749 12.7354L6.9737 13.4261L7.08749 12.7354ZM6.6543 12.8251L7.03291 13.4138L6.6543 12.8251ZM9.00452 0V0.7C11.2895 0.7 13.3305 1.38263 14.7836 2.45196C16.237 3.52152 17.0643 4.94185 17.0643 6.44629H17.7643H18.4643C18.4643 4.39078 17.3305 2.58797 15.6134 1.32437C13.896 0.0605353 11.5571 -0.7 9.00452 -0.7V0ZM17.7643 6.44629L17.0643 6.44623C17.0641 7.95057 16.2368 9.37067 14.7834 10.44C13.3304 11.5091 11.2895 12.1916 9.00452 12.1916V12.8916V13.5916C11.5569 13.5916 13.8957 12.8313 15.6131 11.5677C17.3302 10.3043 18.4641 8.50176 18.4643 6.44635L17.7643 6.44629ZM9.00452 12.8916L9.00454 12.1916C8.38453 12.1916 7.78116 12.1403 7.20127 12.0447L7.08749 12.7354L6.9737 13.4261C7.62784 13.5339 8.3073 13.5916 9.0045 13.5916L9.00452 12.8916ZM6.6543 12.8251L6.27569 12.2363C5.12529 12.976 3.88769 13.4706 2.72934 13.6671L2.8464 14.3572L2.96347 15.0474C4.33154 14.8153 5.74493 14.2421 7.03291 13.4138L6.6543 12.8251ZM2.35543 13.3502L2.92693 13.7544C3.27998 13.2553 3.58542 12.707 3.84247 12.1513L3.20716 11.8574L2.57186 11.5635C2.34376 12.0565 2.07929 12.5284 1.78393 12.946L2.35543 13.3502ZM2.98991 11.1308L3.38957 10.5561C1.8357 9.47551 0.945865 8.00543 0.945728 6.44623L0.245728 6.44629L-0.454272 6.44635C-0.454085 8.57843 0.76514 10.4363 2.59025 11.7055L2.98991 11.1308ZM0.245728 6.44629H0.945728C0.945728 4.94184 1.77286 3.52154 3.22603 2.45202C4.67889 1.38272 6.71961 0.700067 9.00454 0.7L9.00452 0L9.0045 -0.7C6.45204 -0.699925 4.11337 0.0606372 2.39617 1.32448C0.679297 2.5881 -0.454272 4.39087 -0.454272 6.44629H0.245728ZM3.20716 11.8574L3.84247 12.1513C4.12331 11.5443 3.86662 10.8879 3.38957 10.5561L2.98991 11.1308L2.59025 11.7055C2.58097 11.6991 2.56987 11.6871 2.56315 11.6655C2.55556 11.6411 2.55395 11.6022 2.57186 11.5635L3.20716 11.8574ZM2.8464 14.3572L2.72934 13.6671C2.74079 13.6652 2.76189 13.6637 2.78926 13.6688C2.81656 13.6738 2.84254 13.6839 2.86492 13.6972C2.90889 13.7235 2.9238 13.7523 2.9263 13.7577C2.92884 13.7633 2.92696 13.7613 2.9274 13.7554C2.92769 13.7517 2.92841 13.7523 2.92693 13.7544L2.35543 13.3502L1.78393 12.946C1.47588 13.3815 1.46194 13.9229 1.65361 14.341C1.85502 14.7805 2.33152 15.1546 2.96347 15.0474L2.8464 14.3572ZM7.08749 12.7354L7.20127 12.0447C6.87974 11.9918 6.54983 12.06 6.27569 12.2363L6.6543 12.8251L7.03291 13.4138C7.01531 13.4252 6.99428 13.4295 6.9737 13.4261L7.08749 12.7354Z" fill="black"/>
<path d="M17.9956 9.63428C13.1581 9.63428 9.23584 12.5206 9.23584 16.0806C9.23615 19.6403 13.1583 22.5259 17.9956 22.5259C18.6542 22.5259 19.2956 22.4713 19.9126 22.3697C20.0631 22.3449 20.2176 22.3769 20.3458 22.4593C21.565 23.2433 22.8905 23.7773 24.1537 23.9915C24.6767 24.0802 24.951 23.4175 24.6447 22.9845C24.3205 22.5261 24.0355 22.016 23.793 21.4917C23.6728 21.232 23.7753 20.9285 24.0102 20.7651C25.6997 19.5902 26.7542 17.9262 26.7544 16.0806C26.7544 12.5207 22.833 9.63442 17.9956 9.63428Z" fill="white"/>
<path d="M17.9956 9.63428V8.93428H17.9956L17.9956 9.63428ZM9.23584 16.0806L8.53584 16.0806V16.0806H9.23584ZM17.9956 22.5259L17.9956 23.2259H17.9956V22.5259ZM26.7544 16.0806H27.4544V16.0806L26.7544 16.0806ZM23.793 21.4917L24.4283 21.1978L23.793 21.4917ZM24.0102 20.7651L24.4099 21.3398L24.0102 20.7651ZM24.1537 23.9915L24.2708 23.3014L24.1537 23.9915ZM24.6447 22.9845L25.2162 22.5803L24.6447 22.9845ZM19.9126 22.3697L20.0264 23.0604L19.9126 22.3697ZM20.3458 22.4593L19.9672 23.0481L20.3458 22.4593ZM17.9956 9.63428V10.3343C15.7106 10.3343 13.6696 11.0169 12.2165 12.0862C10.7631 13.1558 9.93584 14.5761 9.93584 16.0806H9.23584H8.53584C8.53584 14.0251 9.66966 12.2222 11.3868 10.9586C13.1042 9.69481 15.4431 8.93428 17.9956 8.93428V9.63428ZM9.23584 16.0806L9.93584 16.0805C9.93597 17.5849 10.7633 19.005 12.2167 20.0743C13.6698 21.1434 15.7107 21.8259 17.9956 21.8259V22.5259V23.2259C15.4432 23.2259 13.1044 22.4656 11.387 21.202C9.66991 19.9386 8.53602 18.136 8.53584 16.0806L9.23584 16.0806ZM17.9956 22.5259L17.9956 21.8259C18.6156 21.8259 19.219 21.7745 19.7989 21.679L19.9126 22.3697L20.0264 23.0604C19.3723 23.1681 18.6928 23.2259 17.9956 23.2259L17.9956 22.5259ZM20.3458 22.4593L20.7244 21.8706C21.8748 22.6103 23.1124 23.1049 24.2708 23.3014L24.1537 23.9915L24.0367 24.6817C22.6686 24.4496 21.2552 23.8763 19.9672 23.0481L20.3458 22.4593ZM24.6447 22.9845L24.0732 23.3887C23.7201 22.8895 23.4147 22.3412 23.1577 21.7856L23.793 21.4917L24.4283 21.1978C24.6564 21.6908 24.9208 22.1627 25.2162 22.5803L24.6447 22.9845ZM24.0102 20.7651L23.6106 20.1904C25.1644 19.1098 26.0543 17.6397 26.0544 16.0805L26.7544 16.0806L27.4544 16.0806C27.4542 18.2127 26.235 20.0705 24.4099 21.3398L24.0102 20.7651ZM26.7544 16.0806H26.0544C26.0544 14.5761 25.2273 13.1558 23.7741 12.0863C22.3212 11.017 20.2805 10.3343 17.9956 10.3343L17.9956 9.63428L17.9956 8.93428C20.5481 8.93435 22.8868 9.69491 24.6039 10.9588C26.3208 12.2224 27.4544 14.0252 27.4544 16.0806H26.7544ZM23.793 21.4917L23.1577 21.7856C22.8768 21.1786 23.1335 20.5222 23.6106 20.1904L24.0102 20.7651L24.4099 21.3398C24.4192 21.3333 24.4303 21.3214 24.437 21.2998C24.4446 21.2753 24.4462 21.2365 24.4283 21.1978L23.793 21.4917ZM24.1537 23.9915L24.2708 23.3014C24.2593 23.2994 24.2382 23.298 24.2109 23.303C24.1836 23.3081 24.1576 23.3181 24.1352 23.3315C24.0912 23.3578 24.0763 23.3865 24.0738 23.392C24.0713 23.3975 24.0732 23.3956 24.0727 23.3897C24.0724 23.386 24.0717 23.3866 24.0732 23.3887L24.6447 22.9845L25.2162 22.5803C25.5242 23.0158 25.5382 23.5571 25.3465 23.9753C25.1451 24.4147 24.6686 24.7889 24.0367 24.6817L24.1537 23.9915ZM19.9126 22.3697L19.7989 21.679C20.1204 21.626 20.4503 21.6943 20.7244 21.8706L20.3458 22.4593L19.9672 23.0481C19.9848 23.0594 20.0058 23.0638 20.0264 23.0604L19.9126 22.3697Z" fill="black"/>
<path d="M4.88245 5.18628H9.67686" stroke="black" stroke-width="1.4"/>
<path d="M22.1178 14.8206H17.3234" stroke="black" stroke-width="1.4"/>
<path d="M4.88245 7.59595H13.5902" stroke="black" stroke-width="1.4"/>
<path d="M22.1178 17.2305H13.41" stroke="black" stroke-width="1.4"/>
<path d="M22.9249 4.81714H26.7542" stroke="black" stroke-width="1.4"/>
<path d="M2.17542 19.0762H6.00473" stroke="black" stroke-width="1.4"/>
</g>
<defs>
<clipPath id="clip0_8555_2035">
<rect width="26.5087" height="23.9996" fill="white" transform="translate(0.245728)"/>
</clipPath>
</defs>
</svg>
