<svg width="32" height="32" viewBox="0 0 32 32" fill="none" xmlns="http://www.w3.org/2000/svg">
<g clip-path="url(#clip0_8555_2109)">
<path d="M21.3413 9.25195V25.115C21.3413 25.8332 20.7573 26.4104 20.0459 26.4104H16.4885C15.7703 26.4104 15.1931 25.8265 15.1931 25.115L15.1931 15.9021" stroke="black" stroke-width="1.4" stroke-miterlimit="10" stroke-linejoin="round"/>
<path d="M20.596 6.52229C19.4415 5.28056 17.495 5.20673 16.2465 6.36121L4.73537 17.0535C4.21183 17.5435 4.17827 18.3624 4.66825 18.8859L7.0913 21.4902C7.58128 22.0137 8.40015 22.0473 8.92369 21.5573L20.4349 10.865C21.6766 9.71052 21.7504 7.76402 20.596 6.51558V6.52229Z" fill="black" stroke="black" stroke-width="1.4" stroke-miterlimit="10" stroke-linejoin="round"/>
<path d="M0.739746 23.115V31.2834H8.3931" stroke="black" stroke-width="1.4" stroke-miterlimit="10" stroke-linejoin="round"/>
<path d="M31.2603 8.88477L31.2603 0.716309L23.6069 0.716309" stroke="black" stroke-width="1.4" stroke-miterlimit="10" stroke-linejoin="round"/>
</g>
<defs>
<clipPath id="clip0_8555_2109">
<rect width="30.5205" height="30.5671" fill="white" transform="translate(0.739746 0.716309)"/>
</clipPath>
</defs>
</svg>
