<svg width="32" height="32" viewBox="0 0 32 32" fill="none" xmlns="http://www.w3.org/2000/svg">
<g clip-path="url(#clip0_8555_2142)">
<path d="M30.0092 0H1.87775C0.843249 0 0 0.843937 0 1.87928V30.0598C0 31.13 0.869329 32 1.9386 32H29.9832C31.0959 32 32 31.0952 32 29.9815V1.99239C32 0.887439 31.1046 0 30.0092 0Z" stroke="black" stroke-width="1.4" stroke-miterlimit="10" stroke-linejoin="round"/>
<path d="M0.799805 31.3215L9.07753 23.037M31.5827 0.513428L22.8824 9.24678M19.6194 12.4866L11.8224 20.2898" stroke="black" stroke-width="1.4" stroke-miterlimit="10" stroke-linejoin="round"/>
<path d="M13.4663 8.39581C13.0577 7.87378 12.4578 7.58667 11.8058 7.58667C11.2495 7.58667 10.7192 7.80418 10.3193 8.2044L3.82541 14.6949C3.02562 15.4953 3.02562 16.7917 3.82541 17.5921L10.3628 24.1348C10.7453 24.5176 11.2582 24.7264 11.7972 24.7264C12.3361 24.7264 12.849 24.5176 13.2315 24.1348C13.6141 23.752 13.8227 23.2387 13.8227 22.6992C13.8227 22.1598 13.6141 21.6465 13.2315 21.2637L8.21552 16.2435L13.2055 11.2495C13.9705 10.4839 14.127 9.24844 13.4576 8.39581H13.4663Z" fill="black"/>
<path d="M21.4384 8.19561C21.0385 7.79539 20.5169 7.57788 19.9519 7.57788C19.3086 7.57788 18.7087 7.86499 18.3002 8.38702C17.6308 9.23095 17.7786 10.4751 18.5436 11.2407L23.5335 16.2348L18.5175 21.2549C18.135 21.6377 17.9263 22.151 17.9263 22.6904C17.9263 23.2299 18.135 23.7432 18.5175 24.126C18.9 24.5088 19.4129 24.7176 19.9519 24.7176C20.4909 24.7176 21.0038 24.5088 21.3863 24.126L27.9236 17.5833C28.7234 16.7829 28.7234 15.4865 27.9236 14.6861L21.4297 8.18691L21.4384 8.19561Z" fill="black"/>
</g>
<defs>
<clipPath id="clip0_8555_2142">
<rect width="32" height="32" fill="white"/>
</clipPath>
</defs>
</svg>
