<svg width="15" height="15" viewBox="0 0 15 15" fill="none" xmlns="http://www.w3.org/2000/svg">
<path d="M8.35498 1.40625C8.35498 1.05078 8.62842 0.75 9.01123 0.75H13.3589C13.7417 0.75 14.0151 1.05078 14.0151 1.40625V5.78125C14.0151 6.16406 13.7417 6.4375 13.3589 6.4375C13.0034 6.4375 12.7026 6.16406 12.7026 5.78125V2.99219L6.60498 9.08984C6.35889 9.36328 5.94873 9.36328 5.70264 9.08984C5.4292 8.84375 5.4292 8.43359 5.70264 8.16016L11.8003 2.0625H9.01123C8.62842 2.0625 8.35498 1.78906 8.35498 1.40625ZM2.01123 1.625H5.51123C5.8667 1.625 6.16748 1.92578 6.16748 2.28125C6.16748 2.66406 5.8667 2.9375 5.51123 2.9375H2.01123C1.62842 2.9375 1.35498 3.23828 1.35498 3.59375V12.7812C1.35498 13.1641 1.62842 13.4375 2.01123 13.4375H11.1987C11.5542 13.4375 11.855 13.1641 11.855 12.7812V9.28125C11.855 8.92578 12.1284 8.625 12.5112 8.625C12.8667 8.625 13.1675 8.92578 13.1675 9.28125V12.7812C13.1675 13.875 12.2651 14.75 11.1987 14.75H2.01123C0.91748 14.75 0.0424805 13.875 0.0424805 12.7812V3.59375C0.0424805 2.52734 0.91748 1.625 2.01123 1.625Z" fill="#8A9FB8"/>
</svg>
