<svg width="25" height="24" viewBox="0 0 25 24" fill="none" xmlns="http://www.w3.org/2000/svg">
<path d="M18.7464 7.90302C18.6339 8.00565 18.4876 8.06332 18.3354 8.06502H3.91337C3.40137 8.06502 3.14337 7.48002 3.49737 7.13702L5.86637 4.85402C5.97628 4.74703 6.12299 4.6862 6.27637 4.68402H20.7534C21.2704 4.68402 21.5234 5.27502 21.1634 5.61902L18.7464 7.90302ZM18.7464 19.158C18.6332 19.2588 18.487 19.3147 18.3354 19.315H3.91337C3.40137 19.315 3.14337 18.735 3.49737 18.393L5.86637 16.103C5.97737 15.9986 6.12396 15.9403 6.27637 15.94H20.7534C21.2704 15.94 21.5234 16.525 21.1634 16.868L18.7464 19.158ZM18.7464 10.472C18.6332 10.3712 18.487 10.3154 18.3354 10.315H3.91337C3.40137 10.315 3.14337 10.895 3.49737 11.237L5.86637 13.527C5.97737 13.6315 6.12396 13.6897 6.27637 13.69H20.7534C21.2704 13.69 21.5234 13.105 21.1634 12.762L18.7464 10.472Z" fill="black"/>
</svg>
