<svg width="592" height="451" viewBox="0 0 592 451" fill="none" xmlns="http://www.w3.org/2000/svg">
<g clip-path="url(#clip0_127_8291)">
<rect y="0.184326" width="592" height="450" rx="12" fill="#20222C"/>
<path d="M49.291 -44.0293V512.336" stroke="#3E4C5C" stroke-width="2"/>
<path d="M98.6769 -44.0293V512.336" stroke="#3E4C5C" stroke-width="2"/>
<path d="M148.062 -44.0293V512.336" stroke="#3E4C5C" stroke-width="2"/>
<path d="M197.448 -44.0293V512.336" stroke="#3E4C5C" stroke-width="2"/>
<path d="M246.834 -44.0293V512.336" stroke="#3E4C5C" stroke-width="2"/>
<path d="M296.22 -44.0293V512.336" stroke="#3E4C5C" stroke-width="2"/>
<path d="M345.605 -44.0293V512.336" stroke="#3E4C5C" stroke-width="2"/>
<path d="M394.99 -44.0293V512.336" stroke="#3E4C5C" stroke-width="2"/>
<path d="M444.376 -44.0293V512.336" stroke="#3E4C5C" stroke-width="2"/>
<path d="M493.762 -44.0293V512.336" stroke="#3E4C5C" stroke-width="2"/>
<path d="M543.148 -44.0293V512.336" stroke="#3E4C5C" stroke-width="2"/>
<path d="M18.0361 431.696L574.402 431.696" stroke="#3E4C5C" stroke-width="2"/>
<path d="M18.0361 382.311L574.402 382.311" stroke="#3E4C5C" stroke-width="2"/>
<path d="M18.0361 332.925L574.402 332.925" stroke="#3E4C5C" stroke-width="2"/>
<path d="M18.0361 283.539L574.402 283.539" stroke="#3E4C5C" stroke-width="2"/>
<path d="M18.0361 234.153L574.402 234.153" stroke="#3E4C5C" stroke-width="2"/>
<path d="M18.0361 184.768L574.402 184.768" stroke="#3E4C5C" stroke-width="2"/>
<path d="M18.0361 135.382L574.402 135.382" stroke="#3E4C5C" stroke-width="2"/>
<path d="M18.0361 85.9963L574.402 85.9963" stroke="#3E4C5C" stroke-width="2"/>
<path d="M18.0361 36.6106L574.402 36.6106" stroke="#3E4C5C" stroke-width="2"/>
<rect y="0.184128" width="592" height="450" fill="url(#paint0_radial_127_8291)"/>
<path d="M344.384 283.539L439.609 283.539" stroke="url(#paint1_linear_127_8291)" stroke-width="1.96698"/>
<path d="M151.609 36.6107L197.448 36.6107" stroke="url(#paint2_linear_127_8291)" stroke-width="1.96698"/>
<rect x="439.13" y="278.293" width="10.4924" height="10.4924" fill="#DCE2EA"/>
<rect x="147.188" y="29.1913" width="10.4924" height="10.4924" transform="rotate(45 147.188 29.1913)" fill="#DCE2EA"/>
<circle cx="345.605" cy="283.539" r="5.50171" fill="#DCE2EA"/>
<rect x="192.202" y="278.548" width="10.4924" height="10.4924" fill="#556578"/>
<rect x="438.151" y="36.6106" width="10.4924" height="10.4924" transform="rotate(-45 438.151 36.6106)" fill="#556578"/>
<g opacity="0.7" filter="url(#filter1_f_127_8291)">
<rect x="484.926" y="395.684" width="214.352" height="133.957" transform="rotate(-24.5108 484.926 395.684)" fill="#A1B2C6"/>
</g>
<g opacity="0.7" filter="url(#filter2_f_127_8291)">
<rect x="487.519" y="464.115" width="173.11" height="97.5782" transform="rotate(-24.5108 487.519 464.115)" fill="#B1FCAB"/>
</g>
<g style="mix-blend-mode:difference" opacity="0.6" filter="url(#filter3_f_127_8291)">
<rect x="445.308" y="44.0298" width="202.385" height="178.466" fill="#A1B2C6"/>
</g>
<g style="mix-blend-mode:difference" opacity="0.6" filter="url(#filter4_f_127_8291)">
<rect x="-15.3848" y="108.263" width="202.385" height="178.466" fill="#A1B2C6"/>
</g>
</g>
<defs>
<filter id="filter1_f_127_8291" x="234.926" y="56.7575" width="750.609" height="710.812" filterUnits="userSpaceOnUse" color-interpolation-filters="sRGB">
<feFlood flood-opacity="0" result="BackgroundImageFix"/>
<feBlend mode="normal" in="SourceGraphic" in2="BackgroundImageFix" result="shape"/>
<feGaussianBlur stdDeviation="125" result="effect1_foregroundBlur_127_8291"/>
</filter>
<filter id="filter2_f_127_8291" x="237.519" y="142.298" width="697.991" height="660.602" filterUnits="userSpaceOnUse" color-interpolation-filters="sRGB">
<feFlood flood-opacity="0" result="BackgroundImageFix"/>
<feBlend mode="normal" in="SourceGraphic" in2="BackgroundImageFix" result="shape"/>
<feGaussianBlur stdDeviation="125" result="effect1_foregroundBlur_127_8291"/>
</filter>
<filter id="filter3_f_127_8291" x="325.308" y="-75.9702" width="442.385" height="418.466" filterUnits="userSpaceOnUse" color-interpolation-filters="sRGB">
<feFlood flood-opacity="0" result="BackgroundImageFix"/>
<feBlend mode="normal" in="SourceGraphic" in2="BackgroundImageFix" result="shape"/>
<feGaussianBlur stdDeviation="60" result="effect1_foregroundBlur_127_8291"/>
</filter>
<filter id="filter4_f_127_8291" x="-135.385" y="-11.7366" width="442.385" height="418.466" filterUnits="userSpaceOnUse" color-interpolation-filters="sRGB">
<feFlood flood-opacity="0" result="BackgroundImageFix"/>
<feBlend mode="normal" in="SourceGraphic" in2="BackgroundImageFix" result="shape"/>
<feGaussianBlur stdDeviation="60" result="effect1_foregroundBlur_127_8291"/>
</filter>
<radialGradient id="paint0_radial_127_8291" cx="0" cy="0" r="1" gradientUnits="userSpaceOnUse" gradientTransform="translate(296 218.5) rotate(90) scale(231.684 325.407)">
<stop stop-color="#20222C" stop-opacity="0"/>
<stop offset="1" stop-color="#20222C"/>
</radialGradient>
<linearGradient id="paint1_linear_127_8291" x1="309.611" y1="283.539" x2="424.865" y2="290.122" gradientUnits="userSpaceOnUse">
<stop offset="0.33408" stop-color="#DCE2EA"/>
<stop offset="0.943574" stop-color="#DCE2EA" stop-opacity="0"/>
</linearGradient>
<linearGradient id="paint2_linear_127_8291" x1="134.87" y1="36.6107" x2="190.49" y2="38.1401" gradientUnits="userSpaceOnUse">
<stop offset="0.33408" stop-color="#DCE2EA"/>
<stop offset="0.943574" stop-color="#DCE2EA" stop-opacity="0"/>
</linearGradient>
<clipPath id="clip0_127_8291">
<rect y="0.184326" width="592" height="450" rx="12" fill="white"/>
</clipPath>
</defs>
</svg>
