<svg width="1200" height="863" viewBox="0 0 1200 863" fill="none" xmlns="http://www.w3.org/2000/svg">
<g clip-path="url(#clip0_33_310)">
<rect width="1200" height="862.192" transform="translate(0 0.203125)" fill="white"/>
<rect x="34.4836" y="33.1769" width="1131.03" height="796.245" rx="19.6346" fill="url(#paint0_linear_33_310)" stroke="url(#paint1_linear_33_310)" stroke-width="0.730827"/>
<rect x="178.799" y="859.105" width="694.278" height="32.6079" fill="white"/>
<path d="M608.439 284.78V348.888" stroke="#010E3E" stroke-width="1.6"/>
<g opacity="0.3" filter="url(#filter0_f_33_310)">
<ellipse cx="608.362" cy="413.411" rx="153.284" ry="131.638" fill="#2DE376"/>
</g>
<g filter="url(#filter1_bd_33_310)">
<rect x="539.547" y="333.501" width="137.629" height="168.771" rx="20" fill="url(#paint2_linear_33_310)" shape-rendering="crispEdges"/>
<rect x="540.047" y="334.001" width="136.629" height="167.771" rx="19.5" stroke="url(#paint3_linear_33_310)" shape-rendering="crispEdges"/>
</g>
<rect x="562.478" y="406.396" width="91.7684" height="14.0308" rx="7.01539" fill="white" fill-opacity="0.5"/>
<rect x="562.478" y="434.369" width="91.7684" height="14.0308" rx="7.01539" fill="white" fill-opacity="0.5"/>
<rect x="562.478" y="462.343" width="91.7684" height="14.0308" rx="7.01539" fill="white" fill-opacity="0.5"/>
<path d="M559.05 376.358L564.992 361.011H567.403L573.301 376.358H570.78L567.272 367.106C567.228 367.004 567.14 366.755 567.009 366.361C566.892 365.966 566.753 365.528 566.592 365.045C566.431 364.563 566.285 364.124 566.154 363.73C566.022 363.32 565.934 363.057 565.89 362.94L566.395 362.918C566.307 363.167 566.197 363.481 566.066 363.861C565.949 364.241 565.817 364.643 565.671 365.067C565.54 365.491 565.408 365.893 565.277 366.273C565.145 366.638 565.035 366.945 564.948 367.194L561.462 376.358H559.05ZM561.681 372.543L562.558 370.263H569.53L570.539 372.543H561.681ZM574.774 376.358V374.166H577.252V363.204H574.774V361.011H582.097V363.204H579.62V374.166H582.097V376.358H574.774ZM590.644 376.358V361.011H600.313V363.291H593.012V374.078H600.313V376.358H590.644ZM591.718 369.627V367.347H599.107V369.627H591.718ZM602.883 376.358V364.848H605.142V367.216L604.747 367.479C604.893 366.967 605.178 366.5 605.602 366.076C606.026 365.637 606.53 365.286 607.115 365.023C607.7 364.746 608.299 364.607 608.913 364.607C609.79 364.607 610.521 364.782 611.105 365.133C611.69 365.469 612.128 365.988 612.421 366.69C612.713 367.391 612.859 368.275 612.859 369.342V376.358H610.601V369.496C610.601 368.838 610.513 368.297 610.338 367.873C610.162 367.435 609.892 367.121 609.527 366.931C609.161 366.726 608.708 366.638 608.167 366.668C607.729 366.668 607.327 366.741 606.961 366.887C606.596 367.018 606.274 367.208 605.997 367.457C605.734 367.705 605.522 367.998 605.361 368.334C605.215 368.655 605.142 369.006 605.142 369.386V376.358H604.024C603.834 376.358 603.643 376.358 603.453 376.358C603.263 376.358 603.073 376.358 602.883 376.358ZM620.417 381.401C619.599 381.401 618.78 381.27 617.962 381.006C617.158 380.758 616.507 380.429 616.01 380.02L616.844 378.266C617.136 378.485 617.479 378.675 617.874 378.836C618.269 379.011 618.685 379.143 619.124 379.231C619.562 379.333 619.993 379.384 620.417 379.384C621.221 379.384 621.894 379.252 622.434 378.989C622.975 378.726 623.384 378.339 623.662 377.827C623.94 377.316 624.079 376.68 624.079 375.92V373.705L624.32 373.859C624.247 374.312 624.006 374.751 623.596 375.174C623.202 375.584 622.705 375.92 622.105 376.183C621.506 376.446 620.892 376.578 620.264 376.578C619.168 376.578 618.188 376.322 617.326 375.81C616.478 375.284 615.806 374.575 615.309 373.684C614.812 372.777 614.563 371.747 614.563 370.592C614.563 369.437 614.805 368.414 615.287 367.523C615.784 366.616 616.456 365.908 617.304 365.396C618.166 364.87 619.131 364.607 620.198 364.607C620.637 364.607 621.06 364.665 621.47 364.782C621.879 364.884 622.259 365.038 622.61 365.243C622.961 365.433 623.275 365.644 623.553 365.878C623.83 366.112 624.057 366.361 624.232 366.624C624.408 366.887 624.517 367.135 624.561 367.369L624.079 367.545V364.848H626.337V375.657C626.337 376.578 626.198 377.389 625.92 378.09C625.657 378.807 625.27 379.406 624.758 379.888C624.247 380.385 623.626 380.758 622.895 381.006C622.164 381.27 621.338 381.401 620.417 381.401ZM620.505 374.495C621.221 374.495 621.857 374.327 622.412 373.991C622.968 373.654 623.399 373.194 623.706 372.609C624.013 372.025 624.166 371.352 624.166 370.592C624.166 369.832 624.006 369.16 623.684 368.575C623.377 367.976 622.946 367.508 622.391 367.172C621.85 366.836 621.221 366.668 620.505 366.668C619.803 366.668 619.175 366.843 618.619 367.194C618.079 367.53 617.647 367.998 617.326 368.597C617.019 369.182 616.865 369.847 616.865 370.592C616.865 371.338 617.019 372.01 617.326 372.609C617.647 373.194 618.079 373.654 618.619 373.991C619.175 374.327 619.803 374.495 620.505 374.495ZM629.218 376.358V364.848H631.476V376.358H629.218ZM630.314 362.305C629.832 362.305 629.459 362.18 629.196 361.932C628.933 361.683 628.802 361.333 628.802 360.879C628.802 360.456 628.933 360.112 629.196 359.849C629.474 359.586 629.847 359.454 630.314 359.454C630.797 359.454 631.17 359.579 631.433 359.827C631.696 360.076 631.827 360.426 631.827 360.879C631.827 361.303 631.688 361.647 631.411 361.91C631.148 362.173 630.782 362.305 630.314 362.305ZM634.29 376.358V364.848H636.548V367.216L636.153 367.479C636.3 366.967 636.585 366.5 637.009 366.076C637.432 365.637 637.937 365.286 638.521 365.023C639.106 364.746 639.705 364.607 640.319 364.607C641.196 364.607 641.927 364.782 642.512 365.133C643.096 365.469 643.535 365.988 643.827 366.69C644.119 367.391 644.266 368.275 644.266 369.342V376.358H642.007V369.496C642.007 368.838 641.92 368.297 641.744 367.873C641.569 367.435 641.298 367.121 640.933 366.931C640.568 366.726 640.115 366.638 639.574 366.668C639.135 366.668 638.733 366.741 638.368 366.887C638.002 367.018 637.681 367.208 637.403 367.457C637.14 367.705 636.928 367.998 636.767 368.334C636.621 368.655 636.548 369.006 636.548 369.386V376.358H635.43C635.24 376.358 635.05 376.358 634.86 376.358C634.67 376.358 634.48 376.358 634.29 376.358ZM652.043 376.578C650.859 376.578 649.807 376.329 648.886 375.832C647.98 375.321 647.263 374.626 646.737 373.749C646.226 372.872 645.97 371.864 645.97 370.724C645.97 369.817 646.116 368.992 646.408 368.246C646.701 367.501 647.103 366.858 647.614 366.317C648.14 365.761 648.762 365.338 649.478 365.045C650.209 364.738 650.998 364.585 651.846 364.585C652.591 364.585 653.285 364.731 653.928 365.023C654.572 365.301 655.127 365.688 655.595 366.185C656.077 366.682 656.443 367.274 656.691 367.961C656.954 368.634 657.078 369.372 657.064 370.176L657.042 371.14H647.636L647.132 369.342H655.091L654.762 369.715V369.189C654.718 368.707 654.557 368.275 654.279 367.895C654.002 367.515 653.651 367.216 653.227 366.997C652.803 366.777 652.343 366.668 651.846 366.668C651.056 366.668 650.391 366.821 649.85 367.128C649.31 367.42 648.9 367.859 648.623 368.444C648.345 369.014 648.206 369.722 648.206 370.57C648.206 371.374 648.374 372.076 648.71 372.675C649.047 373.26 649.522 373.713 650.135 374.034C650.749 374.356 651.458 374.517 652.262 374.517C652.832 374.517 653.358 374.422 653.841 374.232C654.338 374.042 654.871 373.698 655.441 373.201L656.581 374.802C656.231 375.153 655.799 375.459 655.288 375.723C654.791 375.986 654.257 376.198 653.687 376.358C653.132 376.505 652.584 376.578 652.043 376.578Z" fill="#010E3E"/>
<circle cx="10.3457" cy="10.3457" r="10.3457" transform="matrix(-4.37114e-08 1 1 4.37114e-08 598.016 323.155)" fill="#010E3E"/>
<path d="M603.694 331.824L608.362 336.313L613.03 331.824" stroke="white" stroke-width="1.79537" stroke-linecap="round" stroke-linejoin="round"/>
<path opacity="0.5" d="M415.246 601.331C415.246 588.628 425.544 578.331 438.246 578.331H870.246C882.949 578.331 893.246 588.628 893.246 601.331V648.457C893.246 651.218 891.008 653.457 888.246 653.457H438.246C425.544 653.457 415.246 643.159 415.246 630.457V601.331Z" fill="url(#paint4_linear_33_310)" stroke="url(#paint5_linear_33_310)" stroke-width="2"/>
<g opacity="0.5" filter="url(#filter2_d_33_310)">
<path d="M308.745 208.842C308.745 197.796 317.699 188.842 328.745 188.842H770.696C781.741 188.842 790.696 197.796 790.696 208.842V244.631C790.696 255.676 781.741 264.631 770.696 264.631H314.745C311.431 264.631 308.745 261.944 308.745 258.631V208.842Z" fill="url(#paint6_linear_33_310)" shape-rendering="crispEdges"/>
</g>
<circle cx="10.3457" cy="10.3457" r="10.3457" transform="matrix(-4.37114e-08 1 1 4.37114e-08 598.016 491.926)" fill="#010E3E"/>
<path d="M603.694 500.595L608.362 505.083L613.03 500.595" stroke="white" stroke-width="1.79537" stroke-linecap="round" stroke-linejoin="round"/>
<path d="M608.362 509.597L608.362 555.538" stroke="#010E3E" stroke-width="1.6"/>
<circle cx="267.424" cy="262.877" r="15.2625" fill="#CDDCE1"/>
<g filter="url(#filter3_d_33_310)">
<path d="M293.15 223.044C293.15 211.999 302.104 203.044 313.15 203.044H755.101C766.146 203.044 775.101 211.999 775.101 223.044V258.833C775.101 269.879 766.146 278.833 755.101 278.833H299.15C295.836 278.833 293.15 276.147 293.15 272.833V223.044Z" fill="white"/>
<path d="M293.65 223.044C293.65 212.275 302.38 203.544 313.15 203.544H755.101C765.87 203.544 774.601 212.275 774.601 223.044V258.833C774.601 269.603 765.87 278.333 755.101 278.333H299.15C296.112 278.333 293.65 275.871 293.65 272.833V223.044Z" stroke="#EBEBEB"/>
</g>
<path d="M408.464 248.736V233.389H410.831V248.736H408.464ZM398.444 248.736V233.389H400.812V248.736H398.444ZM399.474 242.225V239.944H409.516V242.225H399.474ZM419.267 248.956C418.083 248.956 417.031 248.707 416.11 248.21C415.203 247.699 414.487 247.004 413.961 246.127C413.449 245.25 413.194 244.242 413.194 243.102C413.194 242.195 413.34 241.37 413.632 240.624C413.925 239.879 414.326 239.236 414.838 238.695C415.364 238.139 415.985 237.715 416.702 237.423C417.433 237.116 418.222 236.963 419.07 236.963C419.815 236.963 420.509 237.109 421.152 237.401C421.796 237.679 422.351 238.066 422.819 238.563C423.301 239.06 423.666 239.652 423.915 240.339C424.178 241.011 424.302 241.75 424.288 242.554L424.266 243.518H414.86L414.356 241.72H422.314L421.986 242.093V241.567C421.942 241.085 421.781 240.653 421.503 240.273C421.225 239.893 420.875 239.594 420.451 239.374C420.027 239.155 419.567 239.046 419.07 239.046C418.28 239.046 417.615 239.199 417.074 239.506C416.534 239.798 416.124 240.237 415.847 240.821C415.569 241.392 415.43 242.1 415.43 242.948C415.43 243.752 415.598 244.454 415.934 245.053C416.27 245.638 416.746 246.091 417.359 246.412C417.973 246.734 418.682 246.895 419.486 246.895C420.056 246.895 420.582 246.8 421.065 246.61C421.562 246.42 422.095 246.076 422.665 245.579L423.805 247.18C423.455 247.53 423.023 247.837 422.512 248.101C422.015 248.364 421.481 248.576 420.911 248.736C420.356 248.882 419.808 248.956 419.267 248.956ZM426.128 248.736V232.512H428.386V248.736H426.128ZM430.973 248.736V232.512H433.231V248.736H430.973ZM440.734 248.956C439.609 248.956 438.6 248.7 437.708 248.188C436.831 247.662 436.137 246.953 435.626 246.062C435.114 245.155 434.858 244.125 434.858 242.97C434.858 241.815 435.114 240.792 435.626 239.901C436.137 238.994 436.831 238.286 437.708 237.774C438.6 237.248 439.609 236.985 440.734 236.985C441.845 236.985 442.839 237.248 443.716 237.774C444.607 238.286 445.309 238.994 445.821 239.901C446.332 240.792 446.588 241.815 446.588 242.97C446.588 244.125 446.332 245.155 445.821 246.062C445.309 246.953 444.607 247.662 443.716 248.188C442.839 248.7 441.845 248.956 440.734 248.956ZM440.734 246.895C441.421 246.895 442.035 246.727 442.576 246.39C443.116 246.04 443.54 245.572 443.847 244.987C444.154 244.388 444.3 243.716 444.286 242.97C444.3 242.21 444.154 241.538 443.847 240.953C443.54 240.354 443.116 239.886 442.576 239.55C442.035 239.214 441.421 239.046 440.734 239.046C440.047 239.046 439.426 239.221 438.87 239.572C438.33 239.908 437.906 240.376 437.599 240.975C437.292 241.56 437.146 242.225 437.16 242.97C437.146 243.716 437.292 244.388 437.599 244.987C437.906 245.572 438.33 246.04 438.87 246.39C439.426 246.727 440.047 246.895 440.734 246.895ZM448.742 252.661L447.909 251.652C448.42 251.36 448.837 251.024 449.158 250.644C449.48 250.264 449.641 249.935 449.641 249.657C449.641 249.511 449.604 249.365 449.531 249.219C449.458 249.087 449.304 248.897 449.071 248.649C448.778 248.371 448.588 248.137 448.501 247.947C448.413 247.757 448.369 247.552 448.369 247.333C448.369 246.982 448.493 246.705 448.742 246.5C448.99 246.281 449.312 246.171 449.706 246.171C450.072 246.171 450.401 246.281 450.693 246.5C451 246.705 451.234 246.997 451.395 247.377C451.57 247.742 451.658 248.166 451.658 248.649C451.658 249.087 451.585 249.511 451.438 249.92C451.292 250.33 451.088 250.71 450.825 251.06C450.561 251.411 450.255 251.725 449.904 252.003C449.553 252.281 449.166 252.5 448.742 252.661ZM459.438 248.736V237.226H461.697V248.736H459.438ZM460.534 234.683C460.052 234.683 459.679 234.558 459.416 234.31C459.153 234.061 459.022 233.711 459.022 233.257C459.022 232.834 459.153 232.49 459.416 232.227C459.694 231.964 460.067 231.832 460.534 231.832C461.017 231.832 461.39 231.957 461.653 232.205C461.916 232.454 462.047 232.804 462.047 233.257C462.047 233.681 461.908 234.025 461.631 234.288C461.368 234.551 461.002 234.683 460.534 234.683ZM468.347 248.956C467.382 248.956 466.512 248.787 465.738 248.451C464.963 248.115 464.32 247.618 463.808 246.96L465.343 245.645C465.782 246.157 466.257 246.529 466.768 246.763C467.294 246.982 467.886 247.092 468.544 247.092C468.807 247.092 469.048 247.063 469.268 247.004C469.501 246.931 469.699 246.829 469.86 246.697C470.035 246.566 470.167 246.412 470.254 246.237C470.342 246.047 470.386 245.842 470.386 245.623C470.386 245.243 470.247 244.936 469.969 244.702C469.823 244.6 469.589 244.49 469.268 244.373C468.961 244.242 468.559 244.11 468.062 243.979C467.214 243.759 466.52 243.511 465.979 243.233C465.438 242.955 465.021 242.641 464.729 242.29C464.51 242.013 464.349 241.713 464.247 241.392C464.144 241.055 464.093 240.69 464.093 240.295C464.093 239.813 464.196 239.374 464.4 238.98C464.62 238.571 464.912 238.22 465.277 237.927C465.657 237.62 466.096 237.387 466.593 237.226C467.104 237.065 467.645 236.985 468.215 236.985C468.756 236.985 469.29 237.058 469.816 237.204C470.357 237.35 470.853 237.562 471.307 237.84C471.76 238.117 472.14 238.446 472.447 238.826L471.153 240.251C470.875 239.974 470.568 239.733 470.232 239.528C469.911 239.309 469.582 239.141 469.246 239.024C468.909 238.907 468.603 238.848 468.325 238.848C468.018 238.848 467.74 238.877 467.492 238.936C467.243 238.994 467.031 239.082 466.856 239.199C466.695 239.316 466.571 239.462 466.483 239.638C466.395 239.813 466.352 240.01 466.352 240.23C466.366 240.42 466.41 240.602 466.483 240.778C466.571 240.938 466.688 241.077 466.834 241.194C466.995 241.311 467.236 241.435 467.557 241.567C467.879 241.698 468.288 241.823 468.785 241.94C469.516 242.13 470.115 242.342 470.583 242.575C471.065 242.795 471.445 243.05 471.723 243.343C472.015 243.621 472.22 243.942 472.337 244.308C472.454 244.673 472.512 245.082 472.512 245.535C472.512 246.193 472.322 246.785 471.942 247.311C471.577 247.823 471.08 248.225 470.452 248.517C469.823 248.809 469.121 248.956 468.347 248.956ZM479.787 248.736V237.226H482.067V239.681L481.65 239.944C481.767 239.564 481.95 239.199 482.199 238.848C482.462 238.497 482.776 238.19 483.141 237.927C483.521 237.65 483.923 237.43 484.347 237.27C484.786 237.109 485.232 237.028 485.685 237.028C486.342 237.028 486.92 237.138 487.417 237.357C487.914 237.577 488.323 237.905 488.644 238.344C488.966 238.782 489.2 239.331 489.346 239.988L488.995 239.901L489.149 239.528C489.31 239.192 489.529 238.877 489.807 238.585C490.099 238.278 490.428 238.008 490.793 237.774C491.159 237.54 491.546 237.357 491.955 237.226C492.364 237.094 492.766 237.028 493.161 237.028C494.023 237.028 494.732 237.204 495.288 237.555C495.858 237.905 496.282 238.439 496.559 239.155C496.852 239.871 496.998 240.763 496.998 241.83V248.736H494.718V241.962C494.718 241.304 494.63 240.77 494.455 240.361C494.294 239.937 494.045 239.623 493.709 239.418C493.373 239.214 492.942 239.111 492.416 239.111C492.006 239.111 491.619 239.184 491.254 239.331C490.903 239.462 490.596 239.652 490.333 239.901C490.07 240.149 489.865 240.441 489.719 240.778C489.573 241.099 489.5 241.457 489.5 241.852V248.736H487.219V241.918C487.219 241.318 487.132 240.814 486.956 240.405C486.781 239.981 486.525 239.659 486.189 239.44C485.853 239.221 485.443 239.111 484.961 239.111C484.552 239.111 484.172 239.184 483.821 239.331C483.47 239.462 483.163 239.652 482.9 239.901C482.637 240.134 482.432 240.42 482.286 240.756C482.14 241.077 482.067 241.428 482.067 241.808V248.736H479.787ZM501.186 253.779L503.51 248.407L503.532 250.205L497.787 237.226H500.418L504.014 245.689C504.087 245.835 504.175 246.062 504.277 246.368C504.38 246.661 504.467 246.953 504.54 247.245L503.97 247.377C504.087 247.07 504.197 246.763 504.299 246.456C504.416 246.149 504.526 245.842 504.628 245.535L507.632 237.226H510.307L505.571 248.736L503.619 253.779H501.186ZM522 248.956C520.874 248.956 519.866 248.7 518.974 248.188C518.097 247.662 517.403 246.953 516.891 246.062C516.38 245.155 516.124 244.125 516.124 242.97C516.124 241.815 516.38 240.792 516.891 239.901C517.403 238.994 518.097 238.286 518.974 237.774C519.866 237.248 520.874 236.985 522 236.985C523.111 236.985 524.104 237.248 524.981 237.774C525.873 238.286 526.575 238.994 527.086 239.901C527.598 240.792 527.854 241.815 527.854 242.97C527.854 244.125 527.598 245.155 527.086 246.062C526.575 246.953 525.873 247.662 524.981 248.188C524.104 248.7 523.111 248.956 522 248.956ZM522 246.895C522.687 246.895 523.301 246.727 523.841 246.39C524.382 246.04 524.806 245.572 525.113 244.987C525.42 244.388 525.566 243.716 525.551 242.97C525.566 242.21 525.42 241.538 525.113 240.953C524.806 240.354 524.382 239.886 523.841 239.55C523.301 239.214 522.687 239.046 522 239.046C521.313 239.046 520.691 239.221 520.136 239.572C519.595 239.908 519.171 240.376 518.864 240.975C518.557 241.56 518.411 242.225 518.426 242.97C518.411 243.716 518.557 244.388 518.864 244.987C519.171 245.572 519.595 246.04 520.136 246.39C520.691 246.727 521.313 246.895 522 246.895ZM529.657 248.736V237.226H531.937V240.843L531.717 239.966C531.878 239.411 532.149 238.907 532.529 238.454C532.923 238 533.369 237.642 533.866 237.379C534.378 237.116 534.904 236.985 535.445 236.985C535.693 236.985 535.927 237.007 536.146 237.05C536.38 237.094 536.563 237.145 536.694 237.204L536.102 239.659C535.927 239.586 535.73 239.528 535.51 239.484C535.306 239.426 535.101 239.396 534.897 239.396C534.502 239.396 534.122 239.477 533.756 239.638C533.406 239.784 533.091 239.996 532.814 240.273C532.551 240.536 532.339 240.851 532.178 241.216C532.017 241.567 531.937 241.954 531.937 242.378V248.736H529.657ZM542.151 248.956C541.098 248.956 540.155 248.7 539.322 248.188C538.504 247.662 537.853 246.953 537.371 246.062C536.889 245.155 536.647 244.125 536.647 242.97C536.647 241.815 536.881 240.792 537.349 239.901C537.831 238.994 538.482 238.286 539.3 237.774C540.119 237.248 541.047 236.985 542.085 236.985C542.655 236.985 543.203 237.08 543.729 237.27C544.27 237.445 544.752 237.694 545.176 238.015C545.6 238.322 545.929 238.666 546.163 239.046C546.411 239.411 546.536 239.784 546.536 240.164L545.878 240.208V232.512H548.136V248.736H545.878V245.996H546.316C546.316 246.347 546.199 246.697 545.966 247.048C545.732 247.384 545.417 247.699 545.023 247.991C544.643 248.283 544.197 248.517 543.685 248.692C543.188 248.868 542.677 248.956 542.151 248.956ZM542.458 247.004C543.145 247.004 543.751 246.829 544.277 246.478C544.804 246.127 545.213 245.652 545.505 245.053C545.812 244.439 545.966 243.745 545.966 242.97C545.966 242.195 545.812 241.508 545.505 240.909C545.213 240.295 544.804 239.813 544.277 239.462C543.751 239.111 543.145 238.936 542.458 238.936C541.771 238.936 541.164 239.111 540.638 239.462C540.112 239.813 539.695 240.295 539.388 240.909C539.096 241.508 538.95 242.195 538.95 242.97C538.95 243.745 539.096 244.439 539.388 245.053C539.695 245.652 540.112 246.127 540.638 246.478C541.164 246.829 541.771 247.004 542.458 247.004ZM555.959 248.956C554.775 248.956 553.722 248.707 552.801 248.21C551.895 247.699 551.179 247.004 550.653 246.127C550.141 245.25 549.885 244.242 549.885 243.102C549.885 242.195 550.032 241.37 550.324 240.624C550.616 239.879 551.018 239.236 551.53 238.695C552.056 238.139 552.677 237.715 553.393 237.423C554.124 237.116 554.914 236.963 555.761 236.963C556.507 236.963 557.201 237.109 557.844 237.401C558.487 237.679 559.043 238.066 559.51 238.563C559.993 239.06 560.358 239.652 560.607 240.339C560.87 241.011 560.994 241.75 560.979 242.554L560.957 243.518H551.552L551.047 241.72H559.006L558.677 242.093V241.567C558.633 241.085 558.473 240.653 558.195 240.273C557.917 239.893 557.566 239.594 557.143 239.374C556.719 239.155 556.258 239.046 555.761 239.046C554.972 239.046 554.307 239.199 553.766 239.506C553.225 239.798 552.816 240.237 552.538 240.821C552.261 241.392 552.122 242.1 552.122 242.948C552.122 243.752 552.29 244.454 552.626 245.053C552.962 245.638 553.437 246.091 554.051 246.412C554.665 246.734 555.374 246.895 556.178 246.895C556.748 246.895 557.274 246.8 557.756 246.61C558.253 246.42 558.787 246.076 559.357 245.579L560.497 247.18C560.146 247.53 559.715 247.837 559.203 248.101C558.707 248.364 558.173 248.576 557.603 248.736C557.048 248.882 556.499 248.956 555.959 248.956ZM562.776 248.736V237.226H565.056V240.843L564.837 239.966C564.998 239.411 565.268 238.907 565.648 238.454C566.043 238 566.488 237.642 566.985 237.379C567.497 237.116 568.023 236.985 568.564 236.985C568.812 236.985 569.046 237.007 569.266 237.05C569.499 237.094 569.682 237.145 569.814 237.204L569.222 239.659C569.046 239.586 568.849 239.528 568.63 239.484C568.425 239.426 568.221 239.396 568.016 239.396C567.621 239.396 567.241 239.477 566.876 239.638C566.525 239.784 566.211 239.996 565.933 240.273C565.67 240.536 565.458 240.851 565.297 241.216C565.136 241.567 565.056 241.954 565.056 242.378V248.736H562.776ZM581.337 248.956C580.27 248.956 579.313 248.692 578.465 248.166C577.632 247.64 576.967 246.924 576.47 246.018C575.988 245.111 575.746 244.096 575.746 242.97C575.746 241.845 575.988 240.829 576.47 239.923C576.967 239.016 577.632 238.3 578.465 237.774C579.313 237.248 580.27 236.985 581.337 236.985C582.36 236.985 583.289 237.197 584.122 237.62C584.969 238.03 585.613 238.592 586.051 239.309L584.801 240.843C584.568 240.507 584.268 240.2 583.902 239.923C583.537 239.645 583.15 239.426 582.74 239.265C582.331 239.104 581.937 239.024 581.557 239.024C580.855 239.024 580.226 239.199 579.671 239.55C579.13 239.886 578.699 240.354 578.377 240.953C578.056 241.552 577.895 242.225 577.895 242.97C577.895 243.716 578.063 244.388 578.399 244.987C578.736 245.572 579.181 246.04 579.737 246.39C580.292 246.741 580.906 246.917 581.578 246.917C581.973 246.917 582.353 246.851 582.719 246.719C583.099 246.588 583.464 246.39 583.815 246.127C584.166 245.864 584.494 245.543 584.801 245.163L586.051 246.697C585.583 247.355 584.911 247.896 584.034 248.32C583.172 248.744 582.273 248.956 581.337 248.956ZM592.698 248.956C591.572 248.956 590.564 248.7 589.672 248.188C588.795 247.662 588.101 246.953 587.589 246.062C587.078 245.155 586.822 244.125 586.822 242.97C586.822 241.815 587.078 240.792 587.589 239.901C588.101 238.994 588.795 238.286 589.672 237.774C590.564 237.248 591.572 236.985 592.698 236.985C593.809 236.985 594.803 237.248 595.68 237.774C596.571 238.286 597.273 238.994 597.784 239.901C598.296 240.792 598.552 241.815 598.552 242.97C598.552 244.125 598.296 245.155 597.784 246.062C597.273 246.953 596.571 247.662 595.68 248.188C594.803 248.7 593.809 248.956 592.698 248.956ZM592.698 246.895C593.385 246.895 593.999 246.727 594.539 246.39C595.08 246.04 595.504 245.572 595.811 244.987C596.118 244.388 596.264 243.716 596.25 242.97C596.264 242.21 596.118 241.538 595.811 240.953C595.504 240.354 595.08 239.886 594.539 239.55C593.999 239.214 593.385 239.046 592.698 239.046C592.011 239.046 591.39 239.221 590.834 239.572C590.293 239.908 589.869 240.376 589.562 240.975C589.256 241.56 589.109 242.225 589.124 242.97C589.109 243.716 589.256 244.388 589.562 244.987C589.869 245.572 590.293 246.04 590.834 246.39C591.39 246.727 592.011 246.895 592.698 246.895ZM600.355 248.736V237.226H602.613V239.594L602.218 239.857C602.364 239.345 602.649 238.877 603.073 238.454C603.497 238.015 604.001 237.664 604.586 237.401C605.171 237.123 605.77 236.985 606.384 236.985C607.261 236.985 607.992 237.16 608.576 237.511C609.161 237.847 609.6 238.366 609.892 239.067C610.184 239.769 610.33 240.653 610.33 241.72V248.736H608.072V241.874C608.072 241.216 607.984 240.675 607.809 240.251C607.634 239.813 607.363 239.499 606.998 239.309C606.632 239.104 606.179 239.016 605.639 239.046C605.2 239.046 604.798 239.119 604.433 239.265C604.067 239.396 603.746 239.586 603.468 239.835C603.205 240.083 602.993 240.376 602.832 240.712C602.686 241.033 602.613 241.384 602.613 241.764V248.736H601.495C601.305 248.736 601.115 248.736 600.925 248.736C600.735 248.736 600.545 248.736 600.355 248.736ZM613.986 248.736V235.932C613.986 235.274 614.132 234.69 614.424 234.178C614.717 233.667 615.119 233.265 615.63 232.972C616.142 232.68 616.734 232.534 617.406 232.534C617.874 232.534 618.312 232.622 618.722 232.797C619.131 232.972 619.46 233.206 619.708 233.499L618.941 235.231C618.751 235.055 618.539 234.916 618.305 234.814C618.086 234.697 617.874 234.639 617.669 234.639C617.362 234.639 617.099 234.69 616.88 234.792C616.675 234.88 616.522 235.026 616.42 235.231C616.317 235.421 616.266 235.655 616.266 235.932V248.736H615.126C614.936 248.736 614.746 248.736 614.556 248.736C614.366 248.736 614.176 248.736 613.986 248.736ZM612.144 239.506V237.423H618.985V239.506H612.144ZM621.725 248.736V237.226H623.984V248.736H621.725ZM622.822 234.683C622.339 234.683 621.966 234.558 621.703 234.31C621.44 234.061 621.309 233.711 621.309 233.257C621.309 232.834 621.44 232.49 621.703 232.227C621.981 231.964 622.354 231.832 622.822 231.832C623.304 231.832 623.677 231.957 623.94 232.205C624.203 232.454 624.334 232.804 624.334 233.257C624.334 233.681 624.196 234.025 623.918 234.288C623.655 234.551 623.289 234.683 622.822 234.683ZM626.788 248.736V237.226H629.068V240.843L628.849 239.966C629.009 239.411 629.28 238.907 629.66 238.454C630.055 238 630.5 237.642 630.997 237.379C631.509 237.116 632.035 236.985 632.576 236.985C632.824 236.985 633.058 237.007 633.277 237.05C633.511 237.094 633.694 237.145 633.826 237.204L633.234 239.659C633.058 239.586 632.861 239.528 632.642 239.484C632.437 239.426 632.232 239.396 632.028 239.396C631.633 239.396 631.253 239.477 630.888 239.638C630.537 239.784 630.223 239.996 629.945 240.273C629.682 240.536 629.47 240.851 629.309 241.216C629.148 241.567 629.068 241.954 629.068 242.378V248.736H626.788ZM634.929 248.736V237.226H637.209V239.681L636.792 239.944C636.909 239.564 637.092 239.199 637.341 238.848C637.604 238.497 637.918 238.19 638.283 237.927C638.663 237.65 639.065 237.43 639.489 237.27C639.928 237.109 640.374 237.028 640.827 237.028C641.484 237.028 642.062 237.138 642.559 237.357C643.056 237.577 643.465 237.905 643.786 238.344C644.108 238.782 644.342 239.331 644.488 239.988L644.137 239.901L644.291 239.528C644.452 239.192 644.671 238.877 644.948 238.585C645.241 238.278 645.57 238.008 645.935 237.774C646.301 237.54 646.688 237.357 647.097 237.226C647.506 237.094 647.908 237.028 648.303 237.028C649.165 237.028 649.874 237.204 650.43 237.555C651 237.905 651.424 238.439 651.701 239.155C651.994 239.871 652.14 240.763 652.14 241.83V248.736H649.86V241.962C649.86 241.304 649.772 240.77 649.597 240.361C649.436 239.937 649.187 239.623 648.851 239.418C648.515 239.214 648.084 239.111 647.558 239.111C647.148 239.111 646.761 239.184 646.396 239.331C646.045 239.462 645.738 239.652 645.475 239.901C645.212 240.149 645.007 240.441 644.861 240.778C644.715 241.099 644.642 241.457 644.642 241.852V248.736H642.361V241.918C642.361 241.318 642.274 240.814 642.098 240.405C641.923 239.981 641.667 239.659 641.331 239.44C640.995 239.221 640.585 239.111 640.103 239.111C639.694 239.111 639.314 239.184 638.963 239.331C638.612 239.462 638.305 239.652 638.042 239.901C637.779 240.134 637.574 240.42 637.428 240.756C637.282 241.077 637.209 241.428 637.209 241.808V248.736H634.929ZM659.877 248.956C658.693 248.956 657.641 248.707 656.72 248.21C655.814 247.699 655.097 247.004 654.571 246.127C654.06 245.25 653.804 244.242 653.804 243.102C653.804 242.195 653.95 241.37 654.242 240.624C654.535 239.879 654.937 239.236 655.448 238.695C655.974 238.139 656.596 237.715 657.312 237.423C658.043 237.116 658.832 236.963 659.68 236.963C660.425 236.963 661.119 237.109 661.763 237.401C662.406 237.679 662.961 238.066 663.429 238.563C663.911 239.06 664.277 239.652 664.525 240.339C664.788 241.011 664.912 241.75 664.898 242.554L664.876 243.518H655.47L654.966 241.72H662.925L662.596 242.093V241.567C662.552 241.085 662.391 240.653 662.113 240.273C661.836 239.893 661.485 239.594 661.061 239.374C660.637 239.155 660.177 239.046 659.68 239.046C658.89 239.046 658.225 239.199 657.685 239.506C657.144 239.798 656.734 240.237 656.457 240.821C656.179 241.392 656.04 242.1 656.04 242.948C656.04 243.752 656.208 244.454 656.544 245.053C656.881 245.638 657.356 246.091 657.97 246.412C658.583 246.734 659.292 246.895 660.096 246.895C660.666 246.895 661.193 246.8 661.675 246.61C662.172 246.42 662.705 246.076 663.275 245.579L664.415 247.18C664.065 247.53 663.633 247.837 663.122 248.101C662.625 248.364 662.091 248.576 661.521 248.736C660.966 248.882 660.418 248.956 659.877 248.956ZM671.496 248.956C670.443 248.956 669.501 248.7 668.668 248.188C667.849 247.662 667.199 246.953 666.716 246.062C666.234 245.155 665.993 244.125 665.993 242.97C665.993 241.815 666.227 240.792 666.694 239.901C667.177 238.994 667.827 238.286 668.646 237.774C669.464 237.248 670.392 236.985 671.43 236.985C672 236.985 672.548 237.08 673.074 237.27C673.615 237.445 674.098 237.694 674.521 238.015C674.945 238.322 675.274 238.666 675.508 239.046C675.757 239.411 675.881 239.784 675.881 240.164L675.223 240.208V232.512H677.481V248.736H675.223V245.996H675.662C675.662 246.347 675.545 246.697 675.311 247.048C675.077 247.384 674.763 247.699 674.368 247.991C673.988 248.283 673.542 248.517 673.031 248.692C672.534 248.868 672.022 248.956 671.496 248.956ZM671.803 247.004C672.49 247.004 673.096 246.829 673.623 246.478C674.149 246.127 674.558 245.652 674.85 245.053C675.157 244.439 675.311 243.745 675.311 242.97C675.311 242.195 675.157 241.508 674.85 240.909C674.558 240.295 674.149 239.813 673.623 239.462C673.096 239.111 672.49 238.936 671.803 238.936C671.116 238.936 670.509 239.111 669.983 239.462C669.457 239.813 669.04 240.295 668.733 240.909C668.441 241.508 668.295 242.195 668.295 242.97C668.295 243.745 668.441 244.439 668.733 245.053C669.04 245.652 669.457 246.127 669.983 246.478C670.509 246.829 671.116 247.004 671.803 247.004ZM682.585 244.11L682.015 241.019C682.585 240.873 683.097 240.712 683.55 240.536C684.003 240.346 684.39 240.149 684.712 239.944C685.048 239.725 685.326 239.491 685.545 239.243C685.764 238.994 685.925 238.731 686.027 238.454C686.144 238.161 686.203 237.854 686.203 237.533C686.203 237.109 686.086 236.729 685.852 236.393C685.633 236.056 685.326 235.793 684.931 235.603C684.536 235.413 684.091 235.318 683.594 235.318C683.009 235.318 682.439 235.523 681.884 235.932C681.343 236.327 680.875 236.89 680.48 237.62L678.836 236.239C679.464 235.274 680.21 234.529 681.072 234.003C681.949 233.462 682.863 233.192 683.813 233.192C684.734 233.192 685.56 233.382 686.29 233.762C687.021 234.142 687.599 234.661 688.022 235.318C688.461 235.976 688.68 236.714 688.68 237.533C688.68 238.015 688.578 238.49 688.373 238.958C688.183 239.411 687.906 239.842 687.54 240.251C687.175 240.661 686.744 241.026 686.247 241.348C685.764 241.669 685.231 241.932 684.646 242.137L684.273 244.11H682.585ZM681.818 247.333C681.818 246.851 681.957 246.456 682.234 246.149C682.512 245.842 682.877 245.689 683.331 245.689C683.813 245.689 684.186 245.835 684.449 246.127C684.712 246.405 684.843 246.807 684.843 247.333C684.843 247.815 684.705 248.21 684.427 248.517C684.149 248.824 683.784 248.978 683.331 248.978C682.848 248.978 682.476 248.839 682.212 248.561C681.949 248.269 681.818 247.859 681.818 247.333Z" fill="#010E3E"/>
<circle cx="10.3457" cy="10.3457" r="10.3457" transform="matrix(-4.37114e-08 1 1 4.37114e-08 598.016 267.793)" fill="#010E3E"/>
<path d="M603.694 276.462L608.362 280.951L613.03 276.462" stroke="white" stroke-width="1.79537" stroke-linecap="round" stroke-linejoin="round"/>
<g opacity="0.3" filter="url(#filter4_f_33_310)">
<ellipse cx="425.527" cy="600.755" rx="104.688" ry="131.638" fill="#5F38FB"/>
</g>
<g filter="url(#filter5_b_33_310)">
<path d="M425.527 586.192C425.527 572.937 436.272 562.192 449.527 562.192H881.527C894.782 562.192 905.527 572.937 905.527 586.192V633.318C905.527 636.632 902.84 639.318 899.527 639.318H449.527C436.272 639.318 425.527 628.573 425.527 615.318V586.192Z" fill="url(#paint7_linear_33_310)"/>
<path d="M426.527 586.192C426.527 573.489 436.824 563.192 449.527 563.192H881.527C894.229 563.192 904.527 573.489 904.527 586.192V633.318C904.527 636.08 902.288 638.318 899.527 638.318H449.527C436.824 638.318 426.527 628.021 426.527 615.318V586.192Z" stroke="url(#paint8_linear_33_310)" stroke-width="2"/>
</g>
<path d="M552.536 608.508C551.454 608.508 550.453 608.31 549.532 607.916C548.626 607.521 547.829 606.973 547.142 606.271C546.47 605.555 545.943 604.722 545.563 603.772C545.198 602.807 545.015 601.755 545.015 600.615C545.015 599.475 545.198 598.43 545.563 597.48C545.943 596.515 546.47 595.682 547.142 594.98C547.829 594.264 548.626 593.709 549.532 593.314C550.453 592.919 551.454 592.722 552.536 592.722C553.617 592.722 554.611 592.919 555.517 593.314C556.438 593.709 557.235 594.264 557.907 594.98C558.594 595.696 559.12 596.537 559.486 597.502C559.866 598.452 560.056 599.489 560.056 600.615C560.056 601.74 559.866 602.785 559.486 603.75C559.12 604.7 558.594 605.533 557.907 606.25C557.235 606.966 556.438 607.521 555.517 607.916C554.611 608.31 553.617 608.508 552.536 608.508ZM552.536 606.206C553.281 606.206 553.961 606.067 554.575 605.789C555.203 605.511 555.744 605.124 556.197 604.627C556.65 604.116 557.001 603.524 557.249 602.851C557.512 602.164 557.644 601.419 557.644 600.615C557.644 599.811 557.512 599.073 557.249 598.4C557.001 597.714 556.65 597.122 556.197 596.625C555.744 596.113 555.203 595.718 554.575 595.441C553.961 595.163 553.281 595.024 552.536 595.024C551.79 595.024 551.103 595.163 550.475 595.441C549.861 595.718 549.32 596.106 548.852 596.603C548.399 597.1 548.048 597.692 547.8 598.379C547.551 599.051 547.427 599.796 547.427 600.615C547.427 601.419 547.551 602.164 547.8 602.851C548.048 603.538 548.399 604.13 548.852 604.627C549.32 605.124 549.861 605.511 550.475 605.789C551.103 606.067 551.79 606.206 552.536 606.206ZM562.034 608.289V596.778H564.314V600.396L564.095 599.519C564.256 598.963 564.526 598.459 564.906 598.006C565.301 597.553 565.747 597.195 566.244 596.932C566.755 596.668 567.281 596.537 567.822 596.537C568.071 596.537 568.304 596.559 568.524 596.603C568.758 596.647 568.94 596.698 569.072 596.756L568.48 599.212C568.304 599.139 568.107 599.08 567.888 599.036C567.683 598.978 567.479 598.949 567.274 598.949C566.879 598.949 566.499 599.029 566.134 599.19C565.783 599.336 565.469 599.548 565.191 599.826C564.928 600.089 564.716 600.403 564.555 600.768C564.395 601.119 564.314 601.507 564.314 601.93V608.289H562.034ZM574.528 608.508C573.476 608.508 572.533 608.252 571.7 607.74C570.881 607.214 570.231 606.505 569.748 605.614C569.266 604.708 569.025 603.677 569.025 602.522C569.025 601.368 569.259 600.344 569.726 599.453C570.209 598.547 570.859 597.838 571.678 597.326C572.496 596.8 573.424 596.537 574.462 596.537C575.032 596.537 575.58 596.632 576.107 596.822C576.647 596.997 577.13 597.246 577.554 597.567C577.978 597.874 578.306 598.218 578.54 598.598C578.789 598.963 578.913 599.336 578.913 599.716L578.255 599.76V592.064H580.513V608.289H578.255V605.548H578.694C578.694 605.899 578.577 606.25 578.343 606.6C578.109 606.937 577.795 607.251 577.4 607.543C577.02 607.835 576.574 608.069 576.063 608.245C575.566 608.42 575.054 608.508 574.528 608.508ZM574.835 606.557C575.522 606.557 576.129 606.381 576.655 606.03C577.181 605.68 577.59 605.204 577.883 604.605C578.189 603.991 578.343 603.297 578.343 602.522C578.343 601.748 578.189 601.061 577.883 600.461C577.59 599.848 577.181 599.365 576.655 599.014C576.129 598.664 575.522 598.488 574.835 598.488C574.148 598.488 573.541 598.664 573.015 599.014C572.489 599.365 572.072 599.848 571.765 600.461C571.473 601.061 571.327 601.748 571.327 602.522C571.327 603.297 571.473 603.991 571.765 604.605C572.072 605.204 572.489 605.68 573.015 606.03C573.541 606.381 574.148 606.557 574.835 606.557ZM588.336 608.508C587.152 608.508 586.1 608.259 585.179 607.762C584.273 607.251 583.556 606.557 583.03 605.68C582.519 604.803 582.263 603.794 582.263 602.654C582.263 601.748 582.409 600.922 582.701 600.176C582.994 599.431 583.396 598.788 583.907 598.247C584.433 597.692 585.055 597.268 585.771 596.975C586.502 596.668 587.291 596.515 588.139 596.515C588.884 596.515 589.578 596.661 590.222 596.953C590.865 597.231 591.42 597.619 591.888 598.115C592.37 598.612 592.736 599.204 592.984 599.891C593.247 600.564 593.371 601.302 593.357 602.106L593.335 603.07H583.929L583.425 601.273H591.384L591.055 601.645V601.119C591.011 600.637 590.85 600.206 590.572 599.826C590.295 599.446 589.944 599.146 589.52 598.927C589.096 598.707 588.636 598.598 588.139 598.598C587.349 598.598 586.684 598.751 586.144 599.058C585.603 599.351 585.193 599.789 584.916 600.374C584.638 600.944 584.499 601.653 584.499 602.5C584.499 603.304 584.667 604.006 585.003 604.605C585.34 605.19 585.815 605.643 586.429 605.965C587.042 606.286 587.751 606.447 588.555 606.447C589.125 606.447 589.652 606.352 590.134 606.162C590.631 605.972 591.164 605.628 591.734 605.131L592.874 606.732C592.524 607.083 592.092 607.39 591.581 607.653C591.084 607.916 590.55 608.128 589.98 608.289C589.425 608.435 588.877 608.508 588.336 608.508ZM595.153 608.289V596.778H597.433V600.396L597.214 599.519C597.375 598.963 597.645 598.459 598.025 598.006C598.42 597.553 598.866 597.195 599.363 596.932C599.874 596.668 600.401 596.537 600.941 596.537C601.19 596.537 601.424 596.559 601.643 596.603C601.877 596.647 602.06 596.698 602.191 596.756L601.599 599.212C601.424 599.139 601.226 599.08 601.007 599.036C600.803 598.978 600.598 598.949 600.393 598.949C599.999 598.949 599.619 599.029 599.253 599.19C598.902 599.336 598.588 599.548 598.31 599.826C598.047 600.089 597.835 600.403 597.675 600.768C597.514 601.119 597.433 601.507 597.433 601.93V608.289H595.153ZM618.735 608.289L613.978 601.404L607.883 592.941H610.886L615.534 599.738L621.739 608.289H618.735ZM607.773 608.289L613.627 599.935L615.096 601.667L610.557 608.289H607.773ZM615.885 601.163L614.438 599.497L618.735 592.941H621.52L615.885 601.163ZM633.087 608.289L628.329 601.404L622.234 592.941H625.238L629.886 599.738L636.09 608.289H633.087ZM622.124 608.289L627.978 599.935L629.447 601.667L624.909 608.289H622.124ZM630.237 601.163L628.79 599.497L633.087 592.941H635.871L630.237 601.163ZM640.707 607.214V594.761L641.518 595.375L638.493 596.975L637.857 594.914L641.957 592.722H643.097V607.214H640.707ZM638.274 608.289V606.008H645.596V608.289H638.274ZM648.293 608.289L647.57 606.491L652.262 601.207C652.51 600.944 652.766 600.644 653.029 600.308C653.307 599.957 653.57 599.599 653.818 599.234C654.067 598.868 654.264 598.51 654.41 598.159C654.571 597.794 654.651 597.45 654.651 597.129C654.651 596.661 654.556 596.266 654.366 595.945C654.191 595.609 653.928 595.353 653.577 595.178C653.241 595.002 652.832 594.914 652.349 594.914C651.925 594.914 651.509 595.039 651.1 595.287C650.69 595.536 650.318 595.886 649.981 596.34C649.645 596.793 649.382 597.319 649.192 597.918L647.372 596.778C647.621 595.93 647.994 595.207 648.49 594.607C649.002 593.994 649.609 593.526 650.31 593.204C651.026 592.883 651.801 592.722 652.634 592.722C653.497 592.722 654.264 592.905 654.936 593.27C655.609 593.621 656.135 594.118 656.515 594.761C656.895 595.389 657.085 596.12 657.085 596.953C657.085 597.29 657.048 597.633 656.975 597.984C656.902 598.335 656.785 598.7 656.625 599.08C656.464 599.446 656.259 599.833 656.011 600.242C655.762 600.637 655.463 601.053 655.112 601.492C654.776 601.93 654.388 602.391 653.95 602.873L650.464 606.666L650.025 606.008H657.567V608.289H648.293ZM664.897 608.289V595.923L665.445 596.055L660.403 602.215L660.315 601.952H669.852V604.123H658.846L657.837 602.15L665.358 592.941H667.177V608.289H664.897ZM676.454 608.354C675.504 608.354 674.634 608.157 673.845 607.762C673.07 607.353 672.449 606.812 671.982 606.14C671.514 605.468 671.28 604.722 671.28 603.904C671.28 603.451 671.338 603.027 671.455 602.632C671.587 602.223 671.777 601.85 672.025 601.514C672.288 601.178 672.603 600.871 672.968 600.593C673.334 600.315 673.757 600.067 674.24 599.848L674.108 600.308C673.728 600.162 673.385 599.986 673.078 599.782C672.785 599.563 672.53 599.314 672.31 599.036C672.091 598.759 671.923 598.459 671.806 598.137C671.704 597.816 671.653 597.48 671.653 597.129C671.653 596.354 671.865 595.653 672.288 595.024C672.727 594.396 673.304 593.891 674.021 593.511C674.751 593.131 675.563 592.941 676.454 592.941C677.346 592.941 678.15 593.131 678.866 593.511C679.597 593.891 680.174 594.396 680.598 595.024C681.036 595.653 681.256 596.354 681.256 597.129C681.256 597.48 681.197 597.816 681.08 598.137C680.978 598.459 680.825 598.751 680.62 599.014C680.415 599.277 680.152 599.519 679.831 599.738C679.524 599.957 679.173 600.147 678.778 600.308L678.712 599.935C679.151 600.111 679.546 600.337 679.896 600.615C680.262 600.893 680.576 601.207 680.839 601.558C681.102 601.908 681.3 602.281 681.431 602.676C681.577 603.07 681.65 603.48 681.65 603.904C681.65 604.737 681.417 605.49 680.949 606.162C680.481 606.834 679.853 607.368 679.063 607.762C678.289 608.157 677.419 608.354 676.454 608.354ZM676.454 606.162C676.995 606.162 677.477 606.06 677.901 605.855C678.34 605.65 678.683 605.373 678.932 605.022C679.18 604.671 679.304 604.269 679.304 603.816C679.304 603.334 679.18 602.91 678.932 602.544C678.683 602.164 678.34 601.865 677.901 601.645C677.477 601.426 676.995 601.316 676.454 601.316C675.913 601.316 675.431 601.426 675.007 601.645C674.583 601.865 674.247 602.164 673.999 602.544C673.75 602.91 673.626 603.334 673.626 603.816C673.626 604.254 673.75 604.649 673.999 605C674.247 605.351 674.583 605.636 675.007 605.855C675.431 606.06 675.913 606.162 676.454 606.162ZM676.454 599.212C676.922 599.212 677.339 599.124 677.704 598.949C678.084 598.773 678.376 598.539 678.581 598.247C678.8 597.94 678.91 597.589 678.91 597.195C678.91 596.8 678.8 596.449 678.581 596.142C678.376 595.835 678.084 595.594 677.704 595.419C677.339 595.229 676.922 595.134 676.454 595.134C675.986 595.134 675.563 595.229 675.183 595.419C674.817 595.594 674.525 595.835 674.306 596.142C674.101 596.449 673.999 596.8 673.999 597.195C673.999 597.589 674.101 597.94 674.306 598.247C674.525 598.539 674.817 598.773 675.183 598.949C675.563 599.124 675.986 599.212 676.454 599.212ZM689.787 608.508C689.29 608.508 688.793 608.427 688.296 608.267C687.813 608.106 687.368 607.894 686.958 607.631C686.564 607.353 686.228 607.053 685.95 606.732C685.687 606.396 685.511 606.06 685.424 605.723L685.994 605.416V608.223H683.735V592.064H685.994V599.409L685.643 599.212C685.716 598.876 685.877 598.554 686.125 598.247C686.374 597.925 686.688 597.64 687.068 597.392C687.463 597.129 687.887 596.924 688.34 596.778C688.793 596.617 689.253 596.537 689.721 596.537C690.759 596.537 691.68 596.793 692.483 597.304C693.287 597.816 693.923 598.525 694.391 599.431C694.859 600.323 695.093 601.346 695.093 602.5C695.093 603.655 694.859 604.686 694.391 605.592C693.938 606.498 693.309 607.214 692.505 607.74C691.701 608.252 690.795 608.508 689.787 608.508ZM689.414 606.447C690.086 606.447 690.686 606.279 691.212 605.943C691.738 605.592 692.155 605.124 692.462 604.539C692.768 603.94 692.922 603.26 692.922 602.5C692.922 601.755 692.768 601.09 692.462 600.505C692.169 599.906 691.76 599.438 691.234 599.102C690.708 598.766 690.101 598.598 689.414 598.598C688.727 598.598 688.12 598.766 687.594 599.102C687.068 599.438 686.651 599.906 686.345 600.505C686.038 601.09 685.884 601.755 685.884 602.5C685.884 603.26 686.038 603.94 686.345 604.539C686.651 605.124 687.068 605.592 687.594 605.943C688.12 606.279 688.727 606.447 689.414 606.447ZM702.748 608.289V596.778H705.006V608.289H702.748ZM703.844 594.235C703.362 594.235 702.989 594.111 702.726 593.862C702.463 593.614 702.331 593.263 702.331 592.81C702.331 592.386 702.463 592.042 702.726 591.779C703.003 591.516 703.376 591.385 703.844 591.385C704.326 591.385 704.699 591.509 704.962 591.757C705.225 592.006 705.357 592.357 705.357 592.81C705.357 593.234 705.218 593.577 704.94 593.84C704.677 594.103 704.312 594.235 703.844 594.235ZM711.656 608.508C710.692 608.508 709.822 608.34 709.047 608.004C708.272 607.667 707.629 607.17 707.118 606.513L708.652 605.197C709.091 605.709 709.566 606.081 710.078 606.315C710.604 606.535 711.196 606.644 711.854 606.644C712.117 606.644 712.358 606.615 712.577 606.557C712.811 606.483 713.008 606.381 713.169 606.25C713.344 606.118 713.476 605.965 713.564 605.789C713.651 605.599 713.695 605.394 713.695 605.175C713.695 604.795 713.556 604.488 713.279 604.254C713.132 604.152 712.899 604.042 712.577 603.926C712.27 603.794 711.868 603.662 711.371 603.531C710.523 603.312 709.829 603.063 709.288 602.785C708.748 602.508 708.331 602.193 708.039 601.843C707.819 601.565 707.659 601.265 707.556 600.944C707.454 600.608 707.403 600.242 707.403 599.848C707.403 599.365 707.505 598.927 707.71 598.532C707.929 598.123 708.221 597.772 708.587 597.48C708.967 597.173 709.405 596.939 709.902 596.778C710.414 596.617 710.955 596.537 711.525 596.537C712.065 596.537 712.599 596.61 713.125 596.756C713.666 596.902 714.163 597.114 714.616 597.392C715.069 597.67 715.449 597.999 715.756 598.379L714.463 599.804C714.185 599.526 713.878 599.285 713.542 599.08C713.22 598.861 712.891 598.693 712.555 598.576C712.219 598.459 711.912 598.4 711.634 598.4C711.327 598.4 711.05 598.43 710.801 598.488C710.553 598.547 710.341 598.634 710.165 598.751C710.005 598.868 709.88 599.014 709.793 599.19C709.705 599.365 709.661 599.563 709.661 599.782C709.676 599.972 709.72 600.154 709.793 600.33C709.88 600.491 709.997 600.63 710.143 600.746C710.304 600.863 710.545 600.988 710.867 601.119C711.188 601.251 711.598 601.375 712.095 601.492C712.826 601.682 713.425 601.894 713.893 602.128C714.375 602.347 714.755 602.603 715.033 602.895C715.325 603.173 715.53 603.494 715.647 603.86C715.763 604.225 715.822 604.634 715.822 605.088C715.822 605.745 715.632 606.337 715.252 606.863C714.886 607.375 714.389 607.777 713.761 608.069C713.132 608.362 712.431 608.508 711.656 608.508ZM728.029 608.508C726.962 608.508 726.005 608.245 725.157 607.719C724.324 607.192 723.659 606.476 723.162 605.57C722.68 604.664 722.439 603.648 722.439 602.522C722.439 601.397 722.68 600.381 723.162 599.475C723.659 598.569 724.324 597.852 725.157 597.326C726.005 596.8 726.962 596.537 728.029 596.537C729.053 596.537 729.981 596.749 730.814 597.173C731.662 597.582 732.305 598.145 732.743 598.861L731.494 600.396C731.26 600.059 730.96 599.753 730.595 599.475C730.229 599.197 729.842 598.978 729.433 598.817C729.023 598.656 728.629 598.576 728.249 598.576C727.547 598.576 726.919 598.751 726.363 599.102C725.822 599.438 725.391 599.906 725.07 600.505C724.748 601.105 724.587 601.777 724.587 602.522C724.587 603.268 724.755 603.94 725.091 604.539C725.428 605.124 725.873 605.592 726.429 605.943C726.984 606.293 727.598 606.469 728.271 606.469C728.665 606.469 729.045 606.403 729.411 606.271C729.791 606.14 730.156 605.943 730.507 605.68C730.858 605.416 731.187 605.095 731.494 604.715L732.743 606.25C732.276 606.907 731.603 607.448 730.726 607.872C729.864 608.296 728.965 608.508 728.029 608.508ZM739.39 608.508C738.264 608.508 737.256 608.252 736.364 607.74C735.487 607.214 734.793 606.505 734.281 605.614C733.77 604.708 733.514 603.677 733.514 602.522C733.514 601.368 733.77 600.344 734.281 599.453C734.793 598.547 735.487 597.838 736.364 597.326C737.256 596.8 738.264 596.537 739.39 596.537C740.501 596.537 741.495 596.8 742.372 597.326C743.263 597.838 743.965 598.547 744.476 599.453C744.988 600.344 745.244 601.368 745.244 602.522C745.244 603.677 744.988 604.708 744.476 605.614C743.965 606.505 743.263 607.214 742.372 607.74C741.495 608.252 740.501 608.508 739.39 608.508ZM739.39 606.447C740.077 606.447 740.691 606.279 741.232 605.943C741.772 605.592 742.196 605.124 742.503 604.539C742.81 603.94 742.956 603.268 742.942 602.522C742.956 601.762 742.81 601.09 742.503 600.505C742.196 599.906 741.772 599.438 741.232 599.102C740.691 598.766 740.077 598.598 739.39 598.598C738.703 598.598 738.082 598.773 737.526 599.124C736.985 599.46 736.562 599.928 736.255 600.527C735.948 601.112 735.802 601.777 735.816 602.522C735.802 603.268 735.948 603.94 736.255 604.539C736.562 605.124 736.985 605.592 737.526 605.943C738.082 606.279 738.703 606.447 739.39 606.447ZM747.047 608.289V596.778H749.305V599.146L748.91 599.409C749.057 598.897 749.342 598.43 749.765 598.006C750.189 597.567 750.694 597.217 751.278 596.953C751.863 596.676 752.462 596.537 753.076 596.537C753.953 596.537 754.684 596.712 755.269 597.063C755.853 597.399 756.292 597.918 756.584 598.62C756.876 599.321 757.023 600.206 757.023 601.273V608.289H754.764V601.426C754.764 600.768 754.677 600.228 754.501 599.804C754.326 599.365 754.055 599.051 753.69 598.861C753.325 598.656 752.871 598.569 752.331 598.598C751.892 598.598 751.49 598.671 751.125 598.817C750.759 598.949 750.438 599.139 750.16 599.387C749.897 599.636 749.685 599.928 749.524 600.264C749.378 600.586 749.305 600.936 749.305 601.316V608.289H748.187C747.997 608.289 747.807 608.289 747.617 608.289C747.427 608.289 747.237 608.289 747.047 608.289ZM760.678 608.289V595.484C760.678 594.827 760.824 594.242 761.116 593.731C761.409 593.219 761.811 592.817 762.322 592.525C762.834 592.232 763.426 592.086 764.098 592.086C764.566 592.086 765.004 592.174 765.414 592.349C765.823 592.525 766.152 592.759 766.4 593.051L765.633 594.783C765.443 594.607 765.231 594.469 764.997 594.366C764.778 594.249 764.566 594.191 764.361 594.191C764.054 594.191 763.791 594.242 763.572 594.344C763.367 594.432 763.214 594.578 763.112 594.783C763.009 594.973 762.958 595.207 762.958 595.484V608.289H761.818C761.628 608.289 761.438 608.289 761.248 608.289C761.058 608.289 760.868 608.289 760.678 608.289ZM758.836 599.058V596.975H765.677V599.058H758.836ZM768.417 608.289V596.778H770.676V608.289H768.417ZM769.514 594.235C769.031 594.235 768.659 594.111 768.396 593.862C768.132 593.614 768.001 593.263 768.001 592.81C768.001 592.386 768.132 592.042 768.396 591.779C768.673 591.516 769.046 591.385 769.514 591.385C769.996 591.385 770.369 591.509 770.632 591.757C770.895 592.006 771.027 592.357 771.027 592.81C771.027 593.234 770.888 593.577 770.61 593.84C770.347 594.103 769.981 594.235 769.514 594.235ZM773.48 608.289V596.778H775.76V600.396L775.541 599.519C775.702 598.963 775.972 598.459 776.352 598.006C776.747 597.553 777.192 597.195 777.689 596.932C778.201 596.668 778.727 596.537 779.268 596.537C779.516 596.537 779.75 596.559 779.97 596.603C780.203 596.647 780.386 596.698 780.518 596.756L779.926 599.212C779.75 599.139 779.553 599.08 779.334 599.036C779.129 598.978 778.925 598.949 778.72 598.949C778.325 598.949 777.945 599.029 777.58 599.19C777.229 599.336 776.915 599.548 776.637 599.826C776.374 600.089 776.162 600.403 776.001 600.768C775.84 601.119 775.76 601.507 775.76 601.93V608.289H773.48ZM781.621 608.289V596.778H783.901V599.234L783.485 599.497C783.602 599.117 783.784 598.751 784.033 598.4C784.296 598.05 784.61 597.743 784.975 597.48C785.356 597.202 785.757 596.983 786.181 596.822C786.62 596.661 787.066 596.581 787.519 596.581C788.176 596.581 788.754 596.69 789.251 596.91C789.748 597.129 790.157 597.458 790.479 597.896C790.8 598.335 791.034 598.883 791.18 599.541L790.829 599.453L790.983 599.08C791.144 598.744 791.363 598.43 791.641 598.137C791.933 597.83 792.262 597.56 792.627 597.326C792.993 597.092 793.38 596.91 793.789 596.778C794.199 596.647 794.6 596.581 794.995 596.581C795.857 596.581 796.566 596.756 797.122 597.107C797.692 597.458 798.116 597.991 798.393 598.707C798.686 599.424 798.832 600.315 798.832 601.382V608.289H796.552V601.514C796.552 600.856 796.464 600.323 796.289 599.913C796.128 599.489 795.879 599.175 795.543 598.971C795.207 598.766 794.776 598.664 794.25 598.664C793.84 598.664 793.453 598.737 793.088 598.883C792.737 599.014 792.43 599.204 792.167 599.453C791.904 599.701 791.699 599.994 791.553 600.33C791.407 600.651 791.334 601.01 791.334 601.404V608.289H789.053V601.47C789.053 600.871 788.966 600.366 788.79 599.957C788.615 599.533 788.359 599.212 788.023 598.992C787.687 598.773 787.278 598.664 786.795 598.664C786.386 598.664 786.006 598.737 785.655 598.883C785.304 599.014 784.997 599.204 784.734 599.453C784.471 599.687 784.267 599.972 784.12 600.308C783.974 600.63 783.901 600.98 783.901 601.36V608.289H781.621ZM806.569 608.508C805.385 608.508 804.333 608.259 803.412 607.762C802.506 607.251 801.79 606.557 801.263 605.68C800.752 604.803 800.496 603.794 800.496 602.654C800.496 601.748 800.642 600.922 800.935 600.176C801.227 599.431 801.629 598.788 802.14 598.247C802.667 597.692 803.288 597.268 804.004 596.975C804.735 596.668 805.524 596.515 806.372 596.515C807.117 596.515 807.812 596.661 808.455 596.953C809.098 597.231 809.653 597.619 810.121 598.115C810.603 598.612 810.969 599.204 811.217 599.891C811.48 600.564 811.605 601.302 811.59 602.106L811.568 603.07H802.162L801.658 601.273H809.617L809.288 601.645V601.119C809.244 600.637 809.083 600.206 808.806 599.826C808.528 599.446 808.177 599.146 807.753 598.927C807.329 598.707 806.869 598.598 806.372 598.598C805.583 598.598 804.918 598.751 804.377 599.058C803.836 599.351 803.427 599.789 803.149 600.374C802.871 600.944 802.732 601.653 802.732 602.5C802.732 603.304 802.9 604.006 803.237 604.605C803.573 605.19 804.048 605.643 804.662 605.965C805.276 606.286 805.985 606.447 806.788 606.447C807.358 606.447 807.885 606.352 808.367 606.162C808.864 605.972 809.397 605.628 809.968 605.131L811.108 606.732C810.757 607.083 810.326 607.39 809.814 607.653C809.317 607.916 808.784 608.128 808.214 608.289C807.658 608.435 807.11 608.508 806.569 608.508ZM818.188 608.508C817.136 608.508 816.193 608.252 815.36 607.74C814.541 607.214 813.891 606.505 813.408 605.614C812.926 604.708 812.685 603.677 812.685 602.522C812.685 601.368 812.919 600.344 813.386 599.453C813.869 598.547 814.519 597.838 815.338 597.326C816.156 596.8 817.084 596.537 818.122 596.537C818.692 596.537 819.24 596.632 819.767 596.822C820.307 596.997 820.79 597.246 821.214 597.567C821.637 597.874 821.966 598.218 822.2 598.598C822.449 598.963 822.573 599.336 822.573 599.716L821.915 599.76V592.064H824.173V608.289H821.915V605.548H822.354C822.354 605.899 822.237 606.25 822.003 606.6C821.769 606.937 821.455 607.251 821.06 607.543C820.68 607.835 820.234 608.069 819.723 608.245C819.226 608.42 818.714 608.508 818.188 608.508ZM818.495 606.557C819.182 606.557 819.788 606.381 820.315 606.03C820.841 605.68 821.25 605.204 821.542 604.605C821.849 603.991 822.003 603.297 822.003 602.522C822.003 601.748 821.849 601.061 821.542 600.461C821.25 599.848 820.841 599.365 820.315 599.014C819.788 598.664 819.182 598.488 818.495 598.488C817.808 598.488 817.201 598.664 816.675 599.014C816.149 599.365 815.732 599.848 815.425 600.461C815.133 601.061 814.987 601.748 814.987 602.522C814.987 603.297 815.133 603.991 815.425 604.605C815.732 605.204 816.149 605.68 816.675 606.03C817.201 606.381 817.808 606.557 818.495 606.557Z" fill="white"/>
<circle cx="469.065" cy="600.289" r="24.9961" fill="white"/>
<g filter="url(#filter6_bd_33_310)">
<circle cx="469.065" cy="600.755" r="15.139" fill="url(#paint9_linear_33_310)" shape-rendering="crispEdges"/>
<circle cx="469.065" cy="600.755" r="14.639" stroke="url(#paint10_linear_33_310)" shape-rendering="crispEdges"/>
</g>
<path d="M461.573 599.548L467.048 605.023L476.557 595.514" stroke="white" stroke-width="2"/>
<circle cx="932.576" cy="624.056" r="15.2625" fill="#CDDCE1"/>
<circle cx="10.3457" cy="10.3457" r="10.3457" transform="matrix(-4.37114e-08 1 1 4.37114e-08 598.016 552.515)" fill="#010E3E"/>
<path d="M603.694 561.184L608.362 565.672L613.03 561.184" stroke="white" stroke-width="1.79537" stroke-linecap="round" stroke-linejoin="round"/>
<path d="M443.053 337.488V499.601" stroke="url(#paint11_linear_33_310)" stroke-width="1.6" stroke-dasharray="4 4"/>
<path d="M438.385 502.272L443.053 506.76L447.721 502.272" stroke="#010E3E" stroke-width="1.79537" stroke-linecap="round" stroke-linejoin="round"/>
<path d="M770.433 533.036V370.922" stroke="url(#paint12_linear_33_310)" stroke-width="1.6" stroke-dasharray="4 4"/>
<path d="M775.101 368.252L770.433 363.763L765.765 368.252" stroke="#010E3E" stroke-width="1.79537" stroke-linecap="round" stroke-linejoin="round"/>
</g>
<defs>
<filter id="filter0_f_33_310" x="243.078" y="69.7744" width="730.567" height="687.274" filterUnits="userSpaceOnUse" color-interpolation-filters="sRGB">
<feFlood flood-opacity="0" result="BackgroundImageFix"/>
<feBlend mode="normal" in="SourceGraphic" in2="BackgroundImageFix" result="shape"/>
<feGaussianBlur stdDeviation="106" result="effect1_foregroundBlur_33_310"/>
</filter>
<filter id="filter1_bd_33_310" x="519.547" y="313.501" width="197.629" height="228.771" filterUnits="userSpaceOnUse" color-interpolation-filters="sRGB">
<feFlood flood-opacity="0" result="BackgroundImageFix"/>
<feGaussianBlur in="BackgroundImageFix" stdDeviation="10"/>
<feComposite in2="SourceAlpha" operator="in" result="effect1_backgroundBlur_33_310"/>
<feColorMatrix in="SourceAlpha" type="matrix" values="0 0 0 0 0 0 0 0 0 0 0 0 0 0 0 0 0 0 127 0" result="hardAlpha"/>
<feOffset dx="10" dy="10"/>
<feGaussianBlur stdDeviation="15"/>
<feComposite in2="hardAlpha" operator="out"/>
<feColorMatrix type="matrix" values="0 0 0 0 0.0196078 0 0 0 0 0.6 0 0 0 0 0.290196 0 0 0 0.3 0"/>
<feBlend mode="normal" in2="effect1_backgroundBlur_33_310" result="effect2_dropShadow_33_310"/>
<feBlend mode="normal" in="SourceGraphic" in2="effect2_dropShadow_33_310" result="shape"/>
</filter>
<filter id="filter2_d_33_310" x="254.745" y="134.842" width="601.951" height="195.789" filterUnits="userSpaceOnUse" color-interpolation-filters="sRGB">
<feFlood flood-opacity="0" result="BackgroundImageFix"/>
<feColorMatrix in="SourceAlpha" type="matrix" values="0 0 0 0 0 0 0 0 0 0 0 0 0 0 0 0 0 0 127 0" result="hardAlpha"/>
<feOffset dx="6" dy="6"/>
<feGaussianBlur stdDeviation="30"/>
<feComposite in2="hardAlpha" operator="out"/>
<feColorMatrix type="matrix" values="0 0 0 0 0 0 0 0 0 0 0 0 0 0 0 0 0 0 0.16 0"/>
<feBlend mode="normal" in2="BackgroundImageFix" result="effect1_dropShadow_33_310"/>
<feBlend mode="normal" in="SourceGraphic" in2="effect1_dropShadow_33_310" result="shape"/>
</filter>
<filter id="filter3_d_33_310" x="239.15" y="149.044" width="601.951" height="195.789" filterUnits="userSpaceOnUse" color-interpolation-filters="sRGB">
<feFlood flood-opacity="0" result="BackgroundImageFix"/>
<feColorMatrix in="SourceAlpha" type="matrix" values="0 0 0 0 0 0 0 0 0 0 0 0 0 0 0 0 0 0 127 0" result="hardAlpha"/>
<feOffset dx="6" dy="6"/>
<feGaussianBlur stdDeviation="30"/>
<feComposite in2="hardAlpha" operator="out"/>
<feColorMatrix type="matrix" values="0 0 0 0 0 0 0 0 0 0 0 0 0 0 0 0 0 0 0.16 0"/>
<feBlend mode="normal" in2="BackgroundImageFix" result="effect1_dropShadow_33_310"/>
<feBlend mode="normal" in="SourceGraphic" in2="effect1_dropShadow_33_310" result="shape"/>
</filter>
<filter id="filter4_f_33_310" x="108.84" y="257.118" width="633.373" height="687.274" filterUnits="userSpaceOnUse" color-interpolation-filters="sRGB">
<feFlood flood-opacity="0" result="BackgroundImageFix"/>
<feBlend mode="normal" in="SourceGraphic" in2="BackgroundImageFix" result="shape"/>
<feGaussianBlur stdDeviation="106" result="effect1_foregroundBlur_33_310"/>
</filter>
<filter id="filter5_b_33_310" x="405.527" y="542.192" width="520" height="117.126" filterUnits="userSpaceOnUse" color-interpolation-filters="sRGB">
<feFlood flood-opacity="0" result="BackgroundImageFix"/>
<feGaussianBlur in="BackgroundImageFix" stdDeviation="10"/>
<feComposite in2="SourceAlpha" operator="in" result="effect1_backgroundBlur_33_310"/>
<feBlend mode="normal" in="SourceGraphic" in2="effect1_backgroundBlur_33_310" result="shape"/>
</filter>
<filter id="filter6_bd_33_310" x="433.926" y="565.616" width="90.2781" height="90.2778" filterUnits="userSpaceOnUse" color-interpolation-filters="sRGB">
<feFlood flood-opacity="0" result="BackgroundImageFix"/>
<feGaussianBlur in="BackgroundImageFix" stdDeviation="10"/>
<feComposite in2="SourceAlpha" operator="in" result="effect1_backgroundBlur_33_310"/>
<feColorMatrix in="SourceAlpha" type="matrix" values="0 0 0 0 0 0 0 0 0 0 0 0 0 0 0 0 0 0 127 0" result="hardAlpha"/>
<feOffset dx="10" dy="10"/>
<feGaussianBlur stdDeviation="15"/>
<feComposite in2="hardAlpha" operator="out"/>
<feColorMatrix type="matrix" values="0 0 0 0 0.0196078 0 0 0 0 0.6 0 0 0 0 0.290196 0 0 0 0.3 0"/>
<feBlend mode="normal" in2="effect1_backgroundBlur_33_310" result="effect2_dropShadow_33_310"/>
<feBlend mode="normal" in="SourceGraphic" in2="effect2_dropShadow_33_310" result="shape"/>
</filter>
<linearGradient id="paint0_linear_33_310" x1="-618.973" y1="1352.81" x2="1489.02" y2="977.73" gradientUnits="userSpaceOnUse">
<stop offset="0.247206" stop-color="#E9F0F2"/>
<stop offset="0.52907" stop-color="#E9F0F2" stop-opacity="0"/>
<stop offset="0.812916" stop-color="#E9F0F2" stop-opacity="0.878652"/>
</linearGradient>
<linearGradient id="paint1_linear_33_310" x1="-146.235" y1="-64.0259" x2="524.46" y2="1420.36" gradientUnits="userSpaceOnUse">
<stop stop-color="#D2E0E4"/>
<stop offset="0.660436" stop-color="#D2E0E4" stop-opacity="0"/>
</linearGradient>
<linearGradient id="paint2_linear_33_310" x1="542.209" y1="333.501" x2="719.253" y2="483.788" gradientUnits="userSpaceOnUse">
<stop offset="0.182224" stop-color="#2DE376" stop-opacity="0.5"/>
<stop offset="0.640234" stop-color="#2DE376" stop-opacity="0.9"/>
</linearGradient>
<linearGradient id="paint3_linear_33_310" x1="539.547" y1="313.863" x2="706.198" y2="475.623" gradientUnits="userSpaceOnUse">
<stop offset="0.249921" stop-color="#2DE376"/>
<stop offset="0.470896" stop-color="#2DE376" stop-opacity="0"/>
<stop offset="0.816545" stop-color="#35C168"/>
</linearGradient>
<linearGradient id="paint4_linear_33_310" x1="306.228" y1="654.457" x2="992.608" y2="568.276" gradientUnits="userSpaceOnUse">
<stop offset="0.240123" stop-color="#8566FF" stop-opacity="0.7"/>
<stop offset="0.839819" stop-color="#5D34FF" stop-opacity="0"/>
</linearGradient>
<linearGradient id="paint5_linear_33_310" x1="337.677" y1="664.982" x2="417.153" y2="830.016" gradientUnits="userSpaceOnUse">
<stop offset="0.260545" stop-color="#AF9BFD"/>
<stop offset="0.507722" stop-color="#5F38FB" stop-opacity="0"/>
<stop offset="0.82414" stop-color="#6C47FF" stop-opacity="0"/>
</linearGradient>
<linearGradient id="paint6_linear_33_310" x1="858.752" y1="170.711" x2="316.717" y2="289.027" gradientUnits="userSpaceOnUse">
<stop stop-color="white"/>
<stop offset="0.76234" stop-color="white" stop-opacity="0"/>
</linearGradient>
<linearGradient id="paint7_linear_33_310" x1="402.002" y1="545.989" x2="427.275" y2="760.198" gradientUnits="userSpaceOnUse">
<stop offset="0.240123" stop-color="#8566FF" stop-opacity="0.7"/>
<stop offset="0.620436" stop-color="#5D34FF" stop-opacity="0.7"/>
<stop offset="0.932669" stop-color="#5D34FF" stop-opacity="0.5"/>
</linearGradient>
<linearGradient id="paint8_linear_33_310" x1="382.86" y1="554.724" x2="405.988" y2="721.981" gradientUnits="userSpaceOnUse">
<stop offset="0.260545" stop-color="#AF9BFD"/>
<stop offset="0.507722" stop-color="#5F38FB" stop-opacity="0.1"/>
<stop offset="0.82414" stop-color="#6C47FF"/>
</linearGradient>
<linearGradient id="paint9_linear_33_310" x1="454.512" y1="585.616" x2="486.675" y2="619.096" gradientUnits="userSpaceOnUse">
<stop offset="0.182224" stop-color="#2DE376" stop-opacity="0.5"/>
<stop offset="0.640234" stop-color="#2DE376" stop-opacity="0.9"/>
</linearGradient>
<linearGradient id="paint10_linear_33_310" x1="453.926" y1="582.093" x2="483.389" y2="617.162" gradientUnits="userSpaceOnUse">
<stop offset="0.249921" stop-color="#2DE376"/>
<stop offset="0.470896" stop-color="#2DE376" stop-opacity="0"/>
<stop offset="0.816545" stop-color="#35C168"/>
</linearGradient>
<linearGradient id="paint11_linear_33_310" x1="443.053" y1="511.772" x2="443.053" y2="340.092" gradientUnits="userSpaceOnUse">
<stop offset="0.0778443" stop-color="#010E3E"/>
<stop offset="0.842767" stop-color="#010E3E" stop-opacity="0"/>
</linearGradient>
<linearGradient id="paint12_linear_33_310" x1="770.433" y1="358.751" x2="770.433" y2="530.431" gradientUnits="userSpaceOnUse">
<stop offset="0.0778443" stop-color="#010E3E"/>
<stop offset="0.842767" stop-color="#010E3E" stop-opacity="0"/>
</linearGradient>
<clipPath id="clip0_33_310">
<rect width="1200" height="862.192" fill="white" transform="translate(0 0.203125)"/>
</clipPath>
</defs>
</svg>
