<svg xmlns="http://www.w3.org/2000/svg" width="176" height="176" viewBox="0 0 176 176" fill="none">
    <rect width="176" height="176" rx="88" fill="white"/>
    <mask id="mask0_914_2922" style="mask-type:alpha" maskUnits="userSpaceOnUse" x="0" y="0" width="176" height="176">
        <path fill-rule="evenodd" clip-rule="evenodd" d="M88 176C136.601 176 176 136.601 176 88C176 39.3989 136.601 0 88 0C39.3989 0 0 39.3989 0 88C0 136.601 39.3989 176 88 176Z" fill="#DBDBDB"/>
    </mask>
    <g mask="url(#mask0_914_2922)">
        <path fill-rule="evenodd" clip-rule="evenodd" d="M88 0C39.424 0 0 39.424 0 88C0 136.576 39.424 176 88 176C136.576 176 176 136.576 176 88C176 39.424 136.576 0 88 0Z" fill="#F3F5F8"/>
    </g>
    <g filter="url(#filter0_bd_914_2922)">
        <path d="M57.6665 59.417C57.6665 46.8525 67.852 36.667 80.4165 36.667C92.981 36.667 103.167 46.8525 103.167 59.417V59.417C103.167 71.9815 92.981 82.167 80.4165 82.167C67.852 82.167 57.6665 71.9815 57.6665 59.417V59.417Z" fill="url(#paint0_linear_914_2922)"/>
        <path d="M80.4165 37.167C68.1282 37.167 58.1665 47.1286 58.1665 59.417V59.417C58.1665 71.7053 68.1282 81.667 80.4165 81.667C92.7048 81.667 102.667 71.7053 102.667 59.417V59.417C102.667 47.1286 92.7048 37.167 80.4165 37.167Z" stroke="url(#paint1_linear_914_2922)"/>
    </g>
    <g filter="url(#filter1_bd_914_2922)">
        <mask id="path-6-inside-1_914_2922" fill="white">
            <path fill-rule="evenodd" clip-rule="evenodd" d="M36.6748 128.73C36.4839 118.226 39.5176 94.2304 51.5184 81.1172C58.2287 89.7877 68.7371 95.37 80.5494 95.37C91.9706 95.37 102.173 90.1511 108.902 81.968C113.624 87.4795 116.886 94.7022 119.073 102.001H72V128.73H36.6748Z"/>
        </mask>
        <path fill-rule="evenodd" clip-rule="evenodd" d="M36.6748 128.73C36.4839 118.226 39.5176 94.2304 51.5184 81.1172C58.2287 89.7877 68.7371 95.37 80.5494 95.37C91.9706 95.37 102.173 90.1511 108.902 81.968C113.624 87.4795 116.886 94.7022 119.073 102.001H72V128.73H36.6748Z" fill="url(#paint2_linear_914_2922)"/>
        <path d="M51.5184 81.1172L52.3092 80.5051L51.5824 79.566L50.7807 80.4421L51.5184 81.1172ZM36.6748 128.73L35.675 128.748L35.6929 129.73H36.6748V128.73ZM108.902 81.968L109.661 81.3173L108.886 80.4126L108.129 81.3328L108.902 81.968ZM119.073 102.001V103.001H120.416L120.031 101.714L119.073 102.001ZM72 102.001V101.001H71V102.001H72ZM72 128.73V129.73H73V128.73H72ZM50.7807 80.4421C44.6191 87.1748 40.8072 96.6365 38.5545 105.66C36.2984 114.697 35.5779 123.409 35.675 128.748L37.6747 128.712C37.5808 123.547 38.2817 115.01 40.4949 106.144C42.7115 97.2656 46.4169 88.1727 52.2561 81.7923L50.7807 80.4421ZM80.5494 94.37C69.0597 94.37 58.8383 88.9414 52.3092 80.5051L50.7275 81.7292C57.6191 90.6339 68.4146 96.37 80.5494 96.37V94.37ZM108.129 81.3328C101.582 89.2949 91.6589 94.37 80.5494 94.37V96.37C92.2823 96.37 102.764 91.0073 109.674 82.6031L108.129 81.3328ZM120.031 101.714C117.822 94.3415 114.508 86.9739 109.661 81.3173L108.142 82.6186C112.74 87.9851 115.95 95.063 118.115 102.288L120.031 101.714ZM119.073 101.001H72V103.001H119.073V101.001ZM71 102.001V128.73H73V102.001H71ZM36.6748 129.73H72V127.73H36.6748V129.73Z" fill="url(#paint3_linear_914_2922)" mask="url(#path-6-inside-1_914_2922)"/>
    </g>
    <mask id="path-8-inside-2_914_2922" fill="white">
        <path fill-rule="evenodd" clip-rule="evenodd" d="M125 102H71V133H62V139H134V133H125V102Z"/>
    </mask>
    <path fill-rule="evenodd" clip-rule="evenodd" d="M125 102H71V133H62V139H134V133H125V102Z" fill="url(#paint4_linear_914_2922)"/>
    <path d="M71 102V101H70V102H71ZM125 102H126V101H125V102ZM71 133V134H72V133H71ZM62 133V132H61V133H62ZM62 139H61V140H62V139ZM134 139V140H135V139H134ZM134 133H135V132H134V133ZM125 133H124V134H125V133ZM71 103H125V101H71V103ZM72 133V102H70V133H72ZM71 132H62V134H71V132ZM61 133V139H63V133H61ZM62 140H134V138H62V140ZM135 139V133H133V139H135ZM134 132H125V134H134V132ZM124 102V133H126V102H124Z" fill="url(#paint5_linear_914_2922)" mask="url(#path-8-inside-2_914_2922)"/>
    <path d="M129.526 122.169C127.484 124.21 127.484 127.521 129.526 129.563C131.568 131.605 134.878 131.605 136.92 129.563L140.612 125.871C142.654 123.829 142.654 120.518 140.612 118.476C138.57 116.435 135.26 116.435 133.218 118.476L129.526 122.169Z" fill="#E7E0FF"/>
    <path d="M108.697 129.724L108.697 129.724C110.739 131.766 114.049 131.766 116.091 129.724L132.724 113.091C134.766 111.049 134.766 107.739 132.724 105.697L132.724 105.697C130.682 103.655 127.372 103.655 125.33 105.697L108.697 122.33C106.655 124.371 106.655 127.682 108.697 129.724Z" fill="#E7E0FF"/>
    <defs>
        <filter id="filter0_bd_914_2922" x="37.6665" y="16.667" width="105.5" height="105.5" filterUnits="userSpaceOnUse" color-interpolation-filters="sRGB">
            <feFlood flood-opacity="0" result="BackgroundImageFix"/>
            <feGaussianBlur in="BackgroundImageFix" stdDeviation="10"/>
            <feComposite in2="SourceAlpha" operator="in" result="effect1_backgroundBlur_914_2922"/>
            <feColorMatrix in="SourceAlpha" type="matrix" values="0 0 0 0 0 0 0 0 0 0 0 0 0 0 0 0 0 0 127 0" result="hardAlpha"/>
            <feOffset dx="10" dy="10"/>
            <feGaussianBlur stdDeviation="15"/>
            <feComposite in2="hardAlpha" operator="out"/>
            <feColorMatrix type="matrix" values="0 0 0 0 0.0196078 0 0 0 0 0.6 0 0 0 0 0.290196 0 0 0 0.3 0"/>
            <feBlend mode="normal" in2="effect1_backgroundBlur_914_2922" result="effect2_dropShadow_914_2922"/>
            <feBlend mode="normal" in="SourceGraphic" in2="effect2_dropShadow_914_2922" result="shape"/>
        </filter>
        <filter id="filter1_bd_914_2922" x="16.6665" y="61.1172" width="142.406" height="107.613" filterUnits="userSpaceOnUse" color-interpolation-filters="sRGB">
            <feFlood flood-opacity="0" result="BackgroundImageFix"/>
            <feGaussianBlur in="BackgroundImageFix" stdDeviation="10"/>
            <feComposite in2="SourceAlpha" operator="in" result="effect1_backgroundBlur_914_2922"/>
            <feColorMatrix in="SourceAlpha" type="matrix" values="0 0 0 0 0 0 0 0 0 0 0 0 0 0 0 0 0 0 127 0" result="hardAlpha"/>
            <feOffset dx="10" dy="10"/>
            <feGaussianBlur stdDeviation="15"/>
            <feComposite in2="hardAlpha" operator="out"/>
            <feColorMatrix type="matrix" values="0 0 0 0 0.0196078 0 0 0 0 0.6 0 0 0 0 0.290196 0 0 0 0.3 0"/>
            <feBlend mode="normal" in2="effect1_backgroundBlur_914_2922" result="effect2_dropShadow_914_2922"/>
            <feBlend mode="normal" in="SourceGraphic" in2="effect2_dropShadow_914_2922" result="shape"/>
        </filter>
        <linearGradient id="paint0_linear_914_2922" x1="102.286" y1="36.667" x2="53.9528" y2="86.9795" gradientUnits="userSpaceOnUse">
            <stop offset="0.182224" stop-color="#2DE376" stop-opacity="0.5"/>
            <stop offset="0.640234" stop-color="#2DE376" stop-opacity="0.9"/>
        </linearGradient>
        <linearGradient id="paint1_linear_914_2922" x1="103.167" y1="31.3726" x2="58.8914" y2="84.0724" gradientUnits="userSpaceOnUse">
            <stop offset="0.249921" stop-color="#2DE376"/>
            <stop offset="0.470896" stop-color="#2DE376" stop-opacity="0"/>
            <stop offset="0.816545" stop-color="#35C168"/>
        </linearGradient>
        <linearGradient id="paint2_linear_914_2922" x1="38.3367" y1="81.1172" x2="80.2175" y2="160.166" gradientUnits="userSpaceOnUse">
            <stop offset="0.182224" stop-color="#2DE376" stop-opacity="0.5"/>
            <stop offset="0.640234" stop-color="#2DE376" stop-opacity="0.9"/>
        </linearGradient>
        <linearGradient id="paint3_linear_914_2922" x1="36.6665" y1="75.5769" x2="72.5499" y2="153.023" gradientUnits="userSpaceOnUse">
            <stop offset="0.249921" stop-color="#2DE376"/>
            <stop offset="0.470896" stop-color="#2DE376" stop-opacity="0"/>
            <stop offset="0.816545" stop-color="#35C168"/>
        </linearGradient>
        <linearGradient id="paint4_linear_914_2922" x1="112.577" y1="166.274" x2="101.922" y2="81.4743" gradientUnits="userSpaceOnUse">
            <stop offset="0.0822725" stop-color="#8566FF" stop-opacity="0.3"/>
            <stop offset="0.423605" stop-color="#5F38FB" stop-opacity="0.5"/>
            <stop offset="0.762303" stop-color="#5F38FB" stop-opacity="0.7"/>
        </linearGradient>
        <linearGradient id="paint5_linear_914_2922" x1="98" y1="182.638" x2="95.5557" y2="73.5961" gradientUnits="userSpaceOnUse">
            <stop offset="0.137498" stop-color="#AF9BFD"/>
            <stop offset="0.410212" stop-color="#5F38FB" stop-opacity="0"/>
            <stop offset="0.835001" stop-color="#5F38FB"/>
        </linearGradient>
    </defs>
</svg>