<svg width="976" height="659" viewBox="0 0 976 659" fill="none" xmlns="http://www.w3.org/2000/svg">
<rect width="976" height="659" fill="#5A5A5A"/>
<rect x="-174" y="-8142" width="1324" height="10433" rx="30" fill="#121416"/>
<path d="M0 7.97528C0 3.57013 3.57108 -0.000976562 7.97624 -0.000976562H968.024C972.429 -0.000976562 976 3.57011 976 7.97526V650.823C976 655.228 972.429 658.799 968.024 658.799H7.97626C3.5711 658.799 0 655.228 0 650.823V7.97528Z" fill="white" fill-opacity="0.05"/>
<path d="M651.363 205.298C651.363 196.699 644.387 189.723 635.788 189.723H340.212C331.613 189.723 324.637 196.699 324.637 205.298V258.298C324.637 261.993 327.63 264.987 331.325 264.987H644.668C648.363 264.987 651.357 261.993 651.357 258.298V205.298H651.363Z" fill="#262E38"/>
<path d="M324.637 483.958C324.637 492.557 331.613 499.533 340.212 499.533H635.788C644.387 499.533 651.363 492.557 651.363 483.958V287.927C651.363 283.751 647.982 280.37 643.806 280.37H330.924C327.45 280.37 324.637 283.183 324.637 286.658V483.951V483.958Z" fill="#262E38"/>
<text fill="white" xml:space="preserve" style="white-space: pre" font-family="Lexend" font-size="19.3062" letter-spacing="0em"><tspan x="443.5" y="228.957">Mailroom</tspan></text>
<rect x="143.336" y="192.529" width="133.588" height="180.235" rx="15.1048" fill="#262E38"/>
<rect x="137.071" y="189.723" width="134.704" height="177.676" rx="12.0839" fill="#3E4C5C" stroke="#262E38" stroke-width="1.81258" stroke-miterlimit="10"/>
<rect x="145.09" y="198.373" width="118.668" height="100.884" rx="9.06289" fill="#1E2022"/>
<path d="M208.626 217.391H200.222C186.314 217.391 175.03 228.667 175.03 242.583V255.047C175.03 255.387 175.038 255.728 175.055 256.068C175.594 269.511 186.655 280.239 200.222 280.239H208.626C222.193 280.239 233.254 269.511 233.793 256.068C233.81 255.728 233.818 255.387 233.818 255.047V242.583C233.818 228.667 222.534 217.391 208.617 217.391H208.626Z" fill="#536375" stroke="url(#paint0_linear_4037_305)" stroke-width="1.81258" stroke-miterlimit="10"/>
<path d="M209.133 221.717H200.066C188.725 221.717 179.531 230.91 179.531 242.251V243.679C179.531 255.02 188.725 264.214 200.066 264.214H209.133C220.474 264.214 229.667 255.02 229.667 243.679V242.251C229.667 230.91 220.474 221.717 209.133 221.717Z" fill="#101418"/>
<path d="M195.466 242.409H190.392V237.336H195.466V242.409ZM190.384 242.409H185.311V247.483H190.384V242.409ZM200.539 242.409H195.466V247.483H200.539V242.409ZM218.749 237.336H213.675V242.409H218.749V237.336ZM213.675 242.409H208.602V247.483H213.675V242.409ZM223.83 242.409H218.757V247.483H223.83V242.409Z" fill="white"/>
<path d="M251.642 341.875C251.642 348.104 246.584 353.168 240.348 353.168H168.497C162.268 353.168 157.203 348.11 157.203 341.875C157.203 335.647 162.261 330.582 168.497 330.582H240.348C246.577 330.582 251.635 335.64 251.635 341.868L251.642 341.875Z" fill="#556475"/>
<text fill="white" xml:space="preserve" style="white-space: pre" font-family="Lexend" font-size="14.0172" letter-spacing="0em"><tspan x="169.482" y="346.591">3 requests</tspan></text>
<text fill="white" xml:space="preserve" style="white-space: pre" font-family="Lexend" font-size="14.0172" letter-spacing="0em"><tspan x="158.429" y="321.951">Daemon_542</tspan></text>
<rect x="705.341" y="192.529" width="133.588" height="180.235" rx="15.1048" fill="#262E38"/>
<rect x="699.076" y="189.723" width="134.704" height="177.676" rx="12.0839" fill="#536273" stroke="url(#paint1_linear_4037_305)" stroke-width="1.81258" stroke-miterlimit="10"/>
<rect x="707.096" y="198.373" width="118.668" height="100.884" rx="9.06289" fill="#2A333C"/>
<path d="M770.631 217.391H762.228C748.32 217.391 737.035 228.667 737.035 242.583V255.047C737.035 255.387 737.043 255.728 737.06 256.068C737.6 269.511 748.66 280.239 762.228 280.239H770.631C784.199 280.239 795.259 269.511 795.799 256.068C795.815 255.728 795.824 255.387 795.824 255.047V242.583C795.824 228.667 784.539 217.391 770.623 217.391H770.631Z" fill="#536375" stroke="url(#paint2_linear_4037_305)" stroke-width="1.81258" stroke-miterlimit="10"/>
<path d="M771.138 221.717H762.071C750.73 221.717 741.537 230.91 741.537 242.251V243.679C741.537 255.02 750.73 264.214 762.071 264.214H771.138C782.479 264.214 791.673 255.02 791.673 243.679V242.251C791.673 230.91 782.479 221.717 771.138 221.717Z" fill="#101418"/>
<path d="M757.471 242.409H752.398V237.336H757.471V242.409ZM752.389 242.409H747.316V247.483H752.389V242.409ZM762.544 242.409H757.471V247.483H762.544V242.409ZM780.754 237.336H775.681V242.409H780.754V237.336ZM775.681 242.409H770.607V247.483H775.681V242.409ZM785.836 242.409H780.762V247.483H785.836V242.409Z" fill="white"/>
<path d="M813.644 341.872C813.646 341.874 813.647 341.877 813.647 341.88C813.644 348.106 808.587 353.168 802.354 353.168H730.502C724.274 353.168 719.209 348.11 719.209 341.875C719.209 335.647 724.267 330.582 730.502 330.582H802.354C808.581 330.582 813.637 335.637 813.64 341.864C813.64 341.867 813.641 341.87 813.644 341.872Z" fill="#9F88FD" stroke="#BFAFFD" stroke-width="1.2" stroke-linecap="round" stroke-linejoin="round"/>
<text fill="#270E8D" xml:space="preserve" style="white-space: pre" font-family="Lexend" font-size="14.0172" letter-spacing="0em"><tspan x="731.488" y="346.591">3 requests</tspan></text>
<text fill="white" xml:space="preserve" style="white-space: pre" font-family="Lexend" font-size="14.0172" letter-spacing="0em"><tspan x="720.434" y="321.951">Ramon_2458</tspan></text>
<path d="M287 272.384C287 276.167 283.927 279.24 280.145 279.24L276.924 279.24L276.924 265.524L280.145 265.524C283.927 265.524 287 268.597 287 272.379L287 272.384Z" fill="white"/>
<path d="M280.052 269.691L282.663 272.302L280.052 274.913" fill="white"/>
<path d="M280.052 269.691L282.663 272.302L280.052 274.913" stroke="#101418" stroke-width="1.2" stroke-miterlimit="10"/>
<path d="M285.839 272.763H689.214" stroke="white" stroke-width="2" stroke-linecap="round" stroke-linejoin="round"/>
<path d="M688 272.379C688 268.597 691.073 265.524 694.855 265.524L698.076 265.524L698.076 279.239L694.855 279.239C691.073 279.239 688 276.166 688 272.384L688 272.379Z" fill="white"/>
<path d="M692.337 275.072L694.948 272.461L692.337 269.85" fill="white"/>
<path d="M692.337 275.072L694.948 272.461L692.337 269.85" stroke="#101418" stroke-width="1.2" stroke-miterlimit="10"/>
<path d="M629.475 372.764H346.525C339.685 372.764 334.141 378.308 334.141 385.148V473.62C334.141 480.46 339.685 486.005 346.525 486.005H629.475C636.315 486.005 641.859 480.46 641.859 473.62V385.148C641.859 378.308 636.315 372.764 629.475 372.764Z" fill="#3E4C5C" stroke="#262E38" stroke-width="1.2" stroke-miterlimit="10"/>
<path d="M418.656 407.601H345.543C343.391 407.601 341.647 409.345 341.647 411.497V423.762C341.647 425.914 343.391 427.658 345.543 427.658H418.656C420.808 427.658 422.552 425.914 422.552 423.762V411.497C422.552 409.345 420.808 407.601 418.656 407.601Z" fill="#536375" stroke="#6D8198" stroke-width="1.2" stroke-miterlimit="10"/>
<path d="M418.656 432.782H345.543C343.391 432.782 341.647 434.526 341.647 436.678V448.943C341.647 451.095 343.391 452.839 345.543 452.839H418.656C420.808 452.839 422.552 451.095 422.552 448.943V436.678C422.552 434.526 420.808 432.782 418.656 432.782Z" fill="#536375" stroke="#6D8198" stroke-width="1.2" stroke-miterlimit="10"/>
<path d="M386.825 415.353H377.367C376.11 415.353 375.091 416.372 375.091 417.63C375.091 418.887 376.11 419.906 377.367 419.906H386.825C388.082 419.906 389.102 418.887 389.102 417.63C389.102 416.372 388.082 415.353 386.825 415.353Z" fill="#3E4C5C"/>
<path d="M386.825 440.534H377.367C376.11 440.534 375.091 441.553 375.091 442.811C375.091 444.068 376.11 445.087 377.367 445.087H386.825C388.082 445.087 389.102 444.068 389.102 442.811C389.102 441.553 388.082 440.534 386.825 440.534Z" fill="#3E4C5C"/>
<path d="M418.656 381.703H345.543C343.391 381.703 341.647 383.447 341.647 385.599V397.864C341.647 400.015 343.391 401.76 345.543 401.76H418.656C420.808 401.76 422.552 400.015 422.552 397.864V385.599C422.552 383.447 420.808 381.703 418.656 381.703Z" fill="#536375" stroke="#6D8198" stroke-width="1.2" stroke-miterlimit="10"/>
<path d="M386.825 389.456H377.367C376.11 389.456 375.091 390.475 375.091 391.732C375.091 392.989 376.11 394.009 377.367 394.009H386.825C388.082 394.009 389.102 392.989 389.102 391.732C389.102 390.475 388.082 389.456 386.825 389.456Z" fill="#3E4C5C"/>
<path d="M524.371 407.601H451.258C449.106 407.601 447.362 409.345 447.362 411.497V423.762C447.362 425.914 449.106 427.658 451.258 427.658H524.371C526.523 427.658 528.267 425.914 528.267 423.762V411.497C528.267 409.345 526.523 407.601 524.371 407.601Z" fill="#536375" stroke="#6D8198" stroke-width="1.2" stroke-miterlimit="10"/>
<path d="M524.371 432.782H451.258C449.106 432.782 447.362 434.526 447.362 436.678V448.943C447.362 451.095 449.106 452.839 451.258 452.839H524.371C526.523 452.839 528.267 451.095 528.267 448.943V436.678C528.267 434.526 526.523 432.782 524.371 432.782Z" fill="#536375" stroke="#6D8198" stroke-width="1.2" stroke-miterlimit="10"/>
<path d="M492.54 415.353H483.082C481.825 415.353 480.806 416.372 480.806 417.63C480.806 418.887 481.825 419.906 483.082 419.906H492.54C493.797 419.906 494.816 418.887 494.816 417.63C494.816 416.372 493.797 415.353 492.54 415.353Z" fill="#3E4C5C"/>
<path d="M492.54 440.534H483.082C481.825 440.534 480.806 441.553 480.806 442.811C480.806 444.068 481.825 445.087 483.082 445.087H492.54C493.797 445.087 494.816 444.068 494.816 442.811C494.816 441.553 493.797 440.534 492.54 440.534Z" fill="#3E4C5C"/>
<path d="M524.371 381.703H451.258C449.106 381.703 447.362 383.447 447.362 385.599V397.864C447.362 400.015 449.106 401.76 451.258 401.76H524.371C526.523 401.76 528.267 400.015 528.267 397.864V385.599C528.267 383.447 526.523 381.703 524.371 381.703Z" fill="#536375" stroke="#6D8198" stroke-width="1.2" stroke-miterlimit="10"/>
<path d="M492.54 389.456H483.082C481.825 389.456 480.806 390.475 480.806 391.732C480.806 392.989 481.825 394.009 483.082 394.009H492.54C493.797 394.009 494.816 392.989 494.816 391.732C494.816 390.475 493.797 389.456 492.54 389.456Z" fill="#3E4C5C"/>
<path d="M629.913 407.601H556.799C554.648 407.601 552.903 409.345 552.903 411.497V423.762C552.903 425.914 554.648 427.658 556.799 427.658H629.913C632.064 427.658 633.809 425.914 633.809 423.762V411.497C633.809 409.345 632.064 407.601 629.913 407.601Z" fill="#536375" stroke="#6D8198" stroke-width="1.2" stroke-miterlimit="10"/>
<path d="M629.913 432.782H556.799C554.648 432.782 552.903 434.526 552.903 436.678V448.943C552.903 451.095 554.648 452.839 556.799 452.839H629.913C632.064 452.839 633.809 451.095 633.809 448.943V436.678C633.809 434.526 632.064 432.782 629.913 432.782Z" fill="#536375" stroke="#6D8198" stroke-width="1.2" stroke-miterlimit="10"/>
<path d="M598.081 415.353H588.624C587.366 415.353 586.347 416.372 586.347 417.63C586.347 418.887 587.366 419.906 588.624 419.906H598.081C599.339 419.906 600.358 418.887 600.358 417.63C600.358 416.372 599.339 415.353 598.081 415.353Z" fill="#3E4C5C"/>
<path d="M598.081 440.534H588.624C587.366 440.534 586.347 441.553 586.347 442.811C586.347 444.068 587.366 445.087 588.624 445.087H598.081C599.339 445.087 600.358 444.068 600.358 442.811C600.358 441.553 599.339 440.534 598.081 440.534Z" fill="#3E4C5C"/>
<path d="M418.656 458.455H345.543C343.391 458.455 341.647 460.199 341.647 462.351V474.616C341.647 476.767 343.391 478.512 345.543 478.512H418.656C420.808 478.512 422.552 476.767 422.552 474.616V462.351C422.552 460.199 420.808 458.455 418.656 458.455Z" fill="#536375" stroke="#6D8198" stroke-width="1.2" stroke-miterlimit="10"/>
<path d="M386.825 466.206H377.367C376.11 466.206 375.091 467.225 375.091 468.483C375.091 469.74 376.11 470.759 377.367 470.759H386.825C388.082 470.759 389.102 469.74 389.102 468.483C389.102 467.225 388.082 466.206 386.825 466.206Z" fill="#3E4C5C"/>
<path d="M524.371 458.455H451.258C449.106 458.455 447.362 460.199 447.362 462.351V474.616C447.362 476.767 449.106 478.512 451.258 478.512H524.371C526.523 478.512 528.267 476.767 528.267 474.616V462.351C528.267 460.199 526.523 458.455 524.371 458.455Z" fill="#536375" stroke="#6D8198" stroke-width="1.2" stroke-miterlimit="10"/>
<path d="M492.54 466.206H483.082C481.825 466.206 480.806 467.225 480.806 468.483C480.806 469.74 481.825 470.759 483.082 470.759H492.54C493.797 470.759 494.816 469.74 494.816 468.483C494.816 467.225 493.797 466.206 492.54 466.206Z" fill="#3E4C5C"/>
<path d="M629.913 458.455H556.799C554.648 458.455 552.903 460.199 552.903 462.351V474.616C552.903 476.767 554.648 478.512 556.799 478.512H629.913C632.064 478.512 633.809 476.767 633.809 474.616V462.351C633.809 460.199 632.064 458.455 629.913 458.455Z" fill="#536375" stroke="#6D8198" stroke-width="1.2" stroke-miterlimit="10"/>
<path d="M598.081 466.206H588.624C587.366 466.206 586.347 467.225 586.347 468.483C586.347 469.74 587.366 470.759 588.624 470.759H598.081C599.339 470.759 600.358 469.74 600.358 468.483C600.358 467.225 599.339 466.206 598.081 466.206Z" fill="#3E4C5C"/>
<path d="M629.913 381.703H556.799C554.648 381.703 552.903 383.447 552.903 385.599V397.864C552.903 400.015 554.648 401.76 556.799 401.76H629.913C632.064 401.76 633.809 400.015 633.809 397.864V385.599C633.809 383.447 632.064 381.703 629.913 381.703Z" fill="#536375" stroke="#6D8198" stroke-width="1.2" stroke-miterlimit="10"/>
<path d="M598.081 389.456H588.624C587.366 389.456 586.347 390.475 586.347 391.732C586.347 392.989 587.366 394.009 588.624 394.009H598.081C599.339 394.009 600.358 392.989 600.358 391.732C600.358 390.475 599.339 389.456 598.081 389.456Z" fill="#3E4C5C"/>
<path d="M350.441 486.09H369.98V491.188C369.98 492.548 368.879 493.65 367.518 493.65H352.91C351.549 493.65 350.448 492.548 350.448 491.188V486.09H350.441Z" fill="#1E2022"/>
<path d="M607.592 486.09H627.132V491.188C627.132 492.548 626.03 493.65 624.669 493.65H610.061C608.701 493.65 607.599 492.548 607.599 491.188V486.09H607.592Z" fill="#1E2022"/>
<path d="M522.88 251.008H453.12V294.518H522.88V251.008Z" fill="#536375" stroke="#262E38" stroke-width="1.4" stroke-miterlimit="10"/>
<path d="M453.12 251.008L483.58 273.638C486.6 275.878 490.74 275.838 493.71 273.538L522.87 251.008" fill="#667688"/>
<path d="M453.12 251.008L483.58 273.638C486.6 275.878 490.74 275.838 493.71 273.538L522.87 251.008" stroke="#262E38" stroke-width="1.4" stroke-miterlimit="10"/>
<path d="M522.87 294.518L499.74 268.788" stroke="#262E38" stroke-width="1.4" stroke-miterlimit="10"/>
<path d="M453.38 294.518L476.51 268.788" stroke="#262E38" stroke-width="1.4" stroke-miterlimit="10"/>
<path d="M416.98 314.539H347.22V358.049H416.98V314.539Z" fill="#3E4C5C" stroke="#262E38" stroke-width="1.4" stroke-miterlimit="10"/>
<path d="M347.22 314.539L377.68 337.169C380.7 339.409 384.84 339.369 387.81 337.069L416.97 314.539" fill="#505F72"/>
<path d="M347.22 314.539L377.68 337.169C380.7 339.409 384.84 339.369 387.81 337.069L416.97 314.539" stroke="#262E38" stroke-width="1.4" stroke-miterlimit="10"/>
<path d="M416.97 358.049L393.84 332.319" stroke="#262E38" stroke-width="1.4" stroke-miterlimit="10"/>
<path d="M347.479 358.049L370.609 332.319" stroke="#262E38" stroke-width="1.4" stroke-miterlimit="10"/>
<path d="M522.406 314.539H452.646V358.049H522.406V314.539Z" fill="#3E4C5C" stroke="#262E38" stroke-width="1.4" stroke-miterlimit="10"/>
<path d="M452.646 314.539L483.106 337.169C486.126 339.409 490.266 339.369 493.236 337.069L522.396 314.539" fill="#505F72"/>
<path d="M452.646 314.539L483.106 337.169C486.126 339.409 490.266 339.369 493.236 337.069L522.396 314.539" stroke="#262E38" stroke-width="1.4" stroke-miterlimit="10"/>
<path d="M522.397 358.049L499.267 332.319" stroke="#262E38" stroke-width="1.4" stroke-miterlimit="10"/>
<path d="M452.906 358.049L476.036 332.319" stroke="#262E38" stroke-width="1.4" stroke-miterlimit="10"/>
<path d="M627.833 314.539H558.073V358.049H627.833V314.539Z" fill="#3E4C5C" stroke="#262E38" stroke-width="1.4" stroke-miterlimit="10"/>
<path d="M558.073 314.539L588.533 337.169C591.553 339.409 595.693 339.369 598.663 337.069L627.823 314.539" fill="#505F72"/>
<path d="M558.073 314.539L588.533 337.169C591.553 339.409 595.693 339.369 598.663 337.069L627.823 314.539" stroke="#262E38" stroke-width="1.4" stroke-miterlimit="10"/>
<path d="M627.823 358.049L604.693 332.319" stroke="#262E38" stroke-width="1.4" stroke-miterlimit="10"/>
<path d="M558.333 358.049L581.463 332.319" stroke="#262E38" stroke-width="1.4" stroke-miterlimit="10"/>
<path d="M237.124 460.064H220.995C219.693 460.064 218.637 461.12 218.637 462.423C218.637 463.725 219.693 464.781 220.995 464.781H237.124C238.426 464.781 239.482 463.725 239.482 462.423C239.482 461.12 238.426 460.064 237.124 460.064Z" fill="#5F38FB"/>
<path d="M624.774 126.575H608.645C607.343 126.575 606.287 127.63 606.287 128.933C606.287 130.235 607.343 131.291 608.645 131.291H624.774C626.076 131.291 627.132 130.235 627.132 128.933C627.132 127.63 626.076 126.575 624.774 126.575Z" fill="#5F38FB"/>
<path d="M652.295 113.653H636.167C634.864 113.653 633.809 114.709 633.809 116.011C633.809 117.313 634.864 118.369 636.167 118.369H652.295C653.598 118.369 654.654 117.313 654.654 116.011C654.654 114.709 653.598 113.653 652.295 113.653Z" fill="#2D3642"/>
<path d="M435.467 540.429H419.338C418.036 540.429 416.98 541.485 416.98 542.787C416.98 544.09 418.036 545.145 419.338 545.145H435.467C436.769 545.145 437.825 544.09 437.825 542.787C437.825 541.485 436.769 540.429 435.467 540.429Z" fill="#2D3642"/>
<path d="M354.568 123.954H350.127C348.665 123.954 347.48 125.139 347.48 126.6V131.042C347.48 132.504 348.665 133.689 350.127 133.689H354.568C356.03 133.689 357.215 132.504 357.215 131.042V126.6C357.215 125.139 356.03 123.954 354.568 123.954Z" fill="#2D3642"/>
<path d="M753.535 450.33H749.094C747.632 450.33 746.447 451.515 746.447 452.976V457.418C746.447 458.88 747.632 460.065 749.094 460.065H753.535C754.997 460.065 756.182 458.88 756.182 457.418V452.976C756.182 451.515 754.997 450.33 753.535 450.33Z" fill="#2D3642"/>
<path d="M763.958 437.943H759.516C758.055 437.943 756.87 439.128 756.87 440.59V445.031C756.87 446.493 758.055 447.678 759.516 447.678H763.958C765.42 447.678 766.605 446.493 766.605 445.031V440.59C766.605 439.128 765.42 437.943 763.958 437.943Z" fill="#2D3642"/>
<defs>
<linearGradient id="paint0_linear_4037_305" x1="238.901" y1="217.391" x2="181.694" y2="277.768" gradientUnits="userSpaceOnUse">
<stop offset="0.399916" stop-color="#8A9FB8"/>
<stop offset="0.756539" stop-color="#536375"/>
</linearGradient>
<linearGradient id="paint1_linear_4037_305" x1="833.78" y1="180.654" x2="703.133" y2="363.099" gradientUnits="userSpaceOnUse">
<stop stop-color="#9F88FD"/>
<stop offset="0.389322" stop-color="#7A8A9B"/>
<stop offset="0.76047" stop-color="#7A8A9B"/>
<stop offset="0.826035" stop-color="#7A8A9B"/>
<stop offset="1" stop-color="#8E7AE0"/>
</linearGradient>
<linearGradient id="paint2_linear_4037_305" x1="800.906" y1="217.391" x2="743.7" y2="277.768" gradientUnits="userSpaceOnUse">
<stop offset="0.399916" stop-color="#8A9FB8"/>
<stop offset="0.756539" stop-color="#536375"/>
</linearGradient>
</defs>
</svg>
