<svg width="976" height="660" viewBox="0 0 976 660" fill="none" xmlns="http://www.w3.org/2000/svg">
<path d="M0 8.57587C0 4.17071 3.57108 0.599609 7.97624 0.599609H968.024C972.429 0.599609 976 4.17069 976 8.57585V651.423C976 655.828 972.429 659.4 968.024 659.4H7.97626C3.5711 659.4 0 655.828 0 651.423V8.57587Z" fill="white" fill-opacity="0.05"/>
<rect x="555.384" y="320.513" width="133.588" height="180.235" rx="15.1048" fill="#262E38"/>
<rect x="201.935" y="278.332" width="133.588" height="180.235" rx="15.1048" fill="#262E38"/>
<rect x="195.669" y="275.526" width="134.704" height="177.676" rx="12.0839" fill="#2F3B49" stroke="#262E38" stroke-width="1.81258" stroke-miterlimit="10"/>
<rect x="203.688" y="284.176" width="118.668" height="100.884" rx="9.06289" fill="#3E4B5B"/>
<path d="M267.224 303.193H258.821C244.913 303.193 233.628 314.469 233.628 328.386V340.85C233.628 341.19 233.637 341.53 233.653 341.871C234.193 355.314 245.253 366.042 258.821 366.042H267.224C280.792 366.042 291.852 355.314 292.392 341.871C292.409 341.53 292.417 341.19 292.417 340.85V328.386C292.417 314.469 281.132 303.193 267.216 303.193H267.224Z" fill="#4D5B6C"/>
<path d="M310.24 427.678C310.24 433.906 305.182 438.971 298.947 438.971H227.095C220.867 438.971 215.802 433.913 215.802 427.678C215.802 421.45 220.86 416.385 227.095 416.385H298.947C305.175 416.385 310.233 421.443 310.233 427.671L310.24 427.678Z" fill="#3E4B5B"/>
<rect x="657.735" y="233.993" width="133.588" height="180.235" rx="15.1048" fill="#262E38"/>
<rect x="651.471" y="231.187" width="134.704" height="177.676" rx="12.0839" fill="#2F3B49" stroke="#262E38" stroke-width="1.81258" stroke-miterlimit="10"/>
<rect x="659.49" y="239.837" width="118.668" height="100.884" rx="9.06289" fill="#3E4B5B"/>
<path d="M723.025 258.854H714.622C700.714 258.854 689.43 270.131 689.43 284.047V296.511C689.43 296.851 689.438 297.192 689.455 297.532C689.994 310.975 701.054 321.703 714.622 321.703H723.025C736.593 321.703 747.654 310.975 748.193 297.532C748.21 297.192 748.218 296.851 748.218 296.511V284.047C748.218 270.131 736.934 258.854 723.017 258.854H723.025Z" fill="#4D5B6C"/>
<path d="M766.042 383.339C766.042 389.567 760.984 394.632 754.748 394.632H682.896C676.668 394.632 671.603 389.574 671.603 383.339C671.603 377.111 676.661 372.046 682.896 372.046H754.748C760.977 372.046 766.035 377.104 766.035 383.332L766.042 383.339Z" fill="#3E4B5B"/>
<rect x="213.877" y="397.253" width="102.188" height="9.29297" rx="4.64648" fill="#3E4B5B"/>
<rect x="669.678" y="353.512" width="102.188" height="9.29297" rx="4.64648" fill="#3E4B5B"/>
<rect x="434.58" y="243.416" width="133.588" height="180.235" rx="15.1048" fill="#262E38"/>
<rect x="549.119" y="317.708" width="134.704" height="177.676" rx="12.0839" fill="#3E4C5C" stroke="#262E38" stroke-width="1.81258" stroke-miterlimit="10"/>
<rect x="557.138" y="326.357" width="118.668" height="100.884" rx="9.06289" fill="#1E2022"/>
<path d="M620.673 345.375H612.27C598.362 345.375 587.078 356.651 587.078 370.568V383.031C587.078 383.372 587.086 383.712 587.103 384.053C587.642 397.496 598.702 408.224 612.27 408.224H620.673C634.241 408.224 645.301 397.496 645.841 384.053C645.858 383.712 645.866 383.372 645.866 383.031V370.568C645.866 356.651 634.582 345.375 620.665 345.375H620.673Z" fill="#536375" stroke="url(#paint0_linear_4782_1401)" stroke-width="1.81258" stroke-miterlimit="10"/>
<path d="M621.181 349.701H612.114C600.773 349.701 591.579 358.895 591.579 370.236V371.664C591.579 383.005 600.773 392.198 612.114 392.198H621.181C632.522 392.198 641.715 383.005 641.715 371.664V370.236C641.715 358.895 632.522 349.701 621.181 349.701Z" fill="#101418"/>
<path d="M607.514 370.394H602.44V365.32H607.514V370.394ZM602.432 370.394H597.358V375.467H602.432V370.394ZM612.587 370.394H607.514V375.467H612.587V370.394ZM630.796 365.32H625.723V370.394H630.796V365.32ZM625.723 370.394H620.65V375.467H625.723V370.394ZM635.878 370.394H630.805V375.467H635.878V370.394Z" fill="white"/>
<path d="M666.919 469.86C666.919 476.088 661.861 481.153 655.626 481.153H583.774C577.546 481.153 572.481 476.095 572.481 469.86C572.481 463.631 577.539 458.566 583.774 458.566H655.626C661.855 458.566 666.913 463.624 666.913 469.853L666.919 469.86Z" fill="#556475"/>
<path d="M588.278 474.459C587.587 474.459 586.984 474.3 586.47 473.982C585.965 473.665 585.489 473.132 585.04 472.384L586.218 471.642C586.451 471.987 586.68 472.272 586.904 472.497C587.138 472.712 587.376 472.87 587.619 472.973C587.862 473.076 588.119 473.127 588.39 473.127C588.717 473.127 589.021 473.048 589.301 472.889C589.582 472.721 589.806 472.492 589.974 472.202C590.142 471.913 590.226 471.585 590.226 471.221C590.226 470.857 590.161 470.548 590.03 470.296C589.899 470.034 589.708 469.838 589.456 469.707C589.203 469.567 588.904 469.497 588.558 469.497C588.4 469.497 588.231 469.516 588.054 469.553C587.886 469.581 587.703 469.628 587.507 469.693C587.311 469.749 587.096 469.824 586.862 469.917L586.442 468.81L589.47 465.474L589.764 465.909H585.587V464.507H591.208L591.488 465.067L588.278 468.628L587.928 468.263C588.002 468.226 588.124 468.193 588.292 468.165C588.47 468.128 588.615 468.109 588.727 468.109C589.138 468.109 589.521 468.189 589.876 468.348C590.24 468.497 590.554 468.712 590.815 468.992C591.086 469.263 591.296 469.586 591.446 469.959C591.605 470.324 591.684 470.716 591.684 471.137C591.684 471.772 591.53 472.342 591.222 472.847C590.923 473.342 590.516 473.735 590.002 474.024C589.488 474.314 588.914 474.459 588.278 474.459ZM597.117 474.319V466.96H598.575V469.273L598.435 468.712C598.537 468.357 598.71 468.034 598.953 467.745C599.205 467.455 599.491 467.226 599.808 467.058C600.135 466.89 600.472 466.806 600.817 466.806C600.976 466.806 601.126 466.82 601.266 466.848C601.416 466.876 601.532 466.908 601.616 466.946L601.238 468.516C601.126 468.469 601 468.432 600.86 468.404C600.729 468.366 600.598 468.348 600.467 468.348C600.215 468.348 599.972 468.399 599.738 468.502C599.514 468.595 599.313 468.731 599.135 468.908C598.967 469.076 598.832 469.277 598.729 469.511C598.626 469.735 598.575 469.983 598.575 470.254V474.319H597.117ZM605.89 474.459C605.133 474.459 604.46 474.3 603.871 473.982C603.292 473.655 602.834 473.211 602.498 472.651C602.17 472.09 602.007 471.445 602.007 470.716C602.007 470.137 602.1 469.609 602.287 469.132C602.474 468.656 602.731 468.245 603.058 467.899C603.395 467.544 603.792 467.273 604.25 467.086C604.717 466.89 605.222 466.792 605.764 466.792C606.24 466.792 606.684 466.885 607.095 467.072C607.506 467.249 607.861 467.497 608.161 467.815C608.469 468.133 608.703 468.511 608.861 468.95C609.03 469.38 609.109 469.852 609.1 470.366L609.086 470.983H603.072L602.75 469.833H607.838L607.628 470.072V469.735C607.6 469.427 607.497 469.151 607.319 468.908C607.142 468.665 606.918 468.474 606.647 468.333C606.376 468.193 606.081 468.123 605.764 468.123C605.259 468.123 604.834 468.221 604.488 468.418C604.142 468.604 603.881 468.885 603.703 469.259C603.525 469.623 603.437 470.076 603.437 470.618C603.437 471.132 603.544 471.581 603.759 471.964C603.974 472.338 604.278 472.627 604.67 472.833C605.063 473.039 605.516 473.141 606.03 473.141C606.394 473.141 606.731 473.081 607.039 472.959C607.357 472.838 607.698 472.618 608.062 472.3L608.791 473.324C608.567 473.548 608.291 473.744 607.964 473.912C607.647 474.081 607.305 474.216 606.941 474.319C606.586 474.412 606.235 474.459 605.89 474.459ZM616.037 477.403V472.567H616.318C616.318 472.791 616.243 473.015 616.093 473.24C615.944 473.454 615.743 473.655 615.491 473.842C615.238 474.029 614.958 474.179 614.65 474.291C614.341 474.403 614.024 474.459 613.696 474.459C613.033 474.459 612.44 474.295 611.916 473.968C611.393 473.632 610.977 473.179 610.669 472.609C610.37 472.029 610.22 471.371 610.22 470.632C610.22 469.894 610.37 469.24 610.669 468.67C610.968 468.091 611.374 467.637 611.888 467.31C612.412 466.974 613 466.806 613.654 466.806C614.019 466.806 614.365 466.866 614.692 466.988C615.028 467.109 615.327 467.268 615.589 467.464C615.86 467.661 616.07 467.88 616.22 468.123C616.378 468.357 616.458 468.595 616.458 468.838L616.037 468.866V466.946H617.481V477.403H616.037ZM613.851 473.127C614.29 473.127 614.678 473.02 615.014 472.805C615.35 472.59 615.612 472.296 615.799 471.922C615.995 471.548 616.093 471.118 616.093 470.632C616.093 470.146 615.995 469.717 615.799 469.343C615.612 468.96 615.35 468.661 615.014 468.446C614.678 468.231 614.29 468.123 613.851 468.123C613.411 468.123 613.024 468.235 612.687 468.46C612.351 468.675 612.084 468.974 611.888 469.357C611.701 469.731 611.608 470.156 611.608 470.632C611.608 471.109 611.701 471.539 611.888 471.922C612.084 472.296 612.351 472.59 612.687 472.805C613.024 473.02 613.411 473.127 613.851 473.127ZM622.077 474.459C621.554 474.459 621.096 474.338 620.703 474.095C620.32 473.852 620.021 473.511 619.806 473.071C619.601 472.632 619.498 472.109 619.498 471.501V466.96H620.942V471.109C620.942 471.539 621.007 471.913 621.138 472.23C621.278 472.539 621.474 472.777 621.727 472.945C621.988 473.113 622.301 473.197 622.666 473.197C622.937 473.197 623.184 473.155 623.409 473.071C623.633 472.978 623.825 472.852 623.983 472.693C624.152 472.534 624.282 472.342 624.376 472.118C624.469 471.894 624.516 471.651 624.516 471.389V466.96H625.96V474.319H624.516V472.777L624.768 472.609C624.656 472.955 624.465 473.268 624.194 473.548C623.932 473.828 623.619 474.053 623.255 474.221C622.89 474.38 622.498 474.459 622.077 474.459ZM631.419 474.459C630.662 474.459 629.989 474.3 629.401 473.982C628.821 473.655 628.363 473.211 628.027 472.651C627.7 472.09 627.536 471.445 627.536 470.716C627.536 470.137 627.63 469.609 627.817 469.132C628.004 468.656 628.261 468.245 628.588 467.899C628.924 467.544 629.321 467.273 629.779 467.086C630.246 466.89 630.751 466.792 631.293 466.792C631.77 466.792 632.213 466.885 632.625 467.072C633.036 467.249 633.391 467.497 633.69 467.815C633.998 468.133 634.232 468.511 634.391 468.95C634.559 469.38 634.638 469.852 634.629 470.366L634.615 470.983H628.602L628.279 469.833H633.368L633.157 470.072V469.735C633.129 469.427 633.026 469.151 632.849 468.908C632.671 468.665 632.447 468.474 632.176 468.333C631.905 468.193 631.611 468.123 631.293 468.123C630.788 468.123 630.363 468.221 630.017 468.418C629.672 468.604 629.41 468.885 629.232 469.259C629.055 469.623 628.966 470.076 628.966 470.618C628.966 471.132 629.074 471.581 629.289 471.964C629.503 472.338 629.807 472.627 630.2 472.833C630.592 473.039 631.045 473.141 631.559 473.141C631.924 473.141 632.26 473.081 632.569 472.959C632.886 472.838 633.227 472.618 633.592 472.3L634.321 473.324C634.096 473.548 633.821 473.744 633.494 473.912C633.176 474.081 632.835 474.216 632.47 474.319C632.115 474.412 631.765 474.459 631.419 474.459ZM638.651 474.459C638.034 474.459 637.478 474.352 636.983 474.137C636.488 473.922 636.077 473.604 635.75 473.183L636.731 472.342C637.011 472.669 637.315 472.908 637.642 473.057C637.978 473.197 638.357 473.268 638.777 473.268C638.946 473.268 639.1 473.249 639.24 473.211C639.389 473.165 639.516 473.099 639.618 473.015C639.73 472.931 639.815 472.833 639.871 472.721C639.927 472.599 639.955 472.469 639.955 472.328C639.955 472.085 639.866 471.889 639.688 471.74C639.595 471.674 639.445 471.604 639.24 471.529C639.044 471.445 638.787 471.361 638.469 471.277C637.927 471.137 637.483 470.978 637.137 470.801C636.792 470.623 636.525 470.422 636.338 470.198C636.198 470.02 636.095 469.829 636.03 469.623C635.965 469.408 635.932 469.175 635.932 468.922C635.932 468.614 635.997 468.333 636.128 468.081C636.268 467.82 636.455 467.595 636.689 467.408C636.932 467.212 637.212 467.063 637.53 466.96C637.857 466.857 638.203 466.806 638.567 466.806C638.913 466.806 639.254 466.852 639.59 466.946C639.936 467.039 640.254 467.175 640.543 467.352C640.833 467.53 641.076 467.74 641.272 467.983L640.445 468.894C640.268 468.717 640.072 468.562 639.857 468.432C639.651 468.291 639.441 468.184 639.226 468.109C639.011 468.034 638.815 467.997 638.637 467.997C638.441 467.997 638.263 468.016 638.104 468.053C637.946 468.091 637.81 468.147 637.698 468.221C637.595 468.296 637.516 468.39 637.46 468.502C637.404 468.614 637.376 468.74 637.376 468.88C637.385 469.002 637.413 469.118 637.46 469.231C637.516 469.333 637.591 469.422 637.684 469.497C637.787 469.572 637.941 469.651 638.147 469.735C638.352 469.819 638.614 469.899 638.931 469.974C639.399 470.095 639.782 470.23 640.081 470.38C640.389 470.52 640.632 470.684 640.81 470.871C640.997 471.048 641.128 471.254 641.202 471.487C641.277 471.721 641.314 471.983 641.314 472.272C641.314 472.693 641.193 473.071 640.95 473.408C640.716 473.735 640.399 473.992 639.997 474.179C639.595 474.366 639.146 474.459 638.651 474.459ZM643.817 474.319V465.082H645.26V474.319H643.817ZM642.289 468.362V466.96H646.971V468.362H642.289ZM651.012 474.459C650.395 474.459 649.839 474.352 649.344 474.137C648.849 473.922 648.438 473.604 648.11 473.183L649.092 472.342C649.372 472.669 649.676 472.908 650.003 473.057C650.339 473.197 650.718 473.268 651.138 473.268C651.306 473.268 651.461 473.249 651.601 473.211C651.75 473.165 651.876 473.099 651.979 473.015C652.091 472.931 652.175 472.833 652.232 472.721C652.288 472.599 652.316 472.469 652.316 472.328C652.316 472.085 652.227 471.889 652.049 471.74C651.956 471.674 651.806 471.604 651.601 471.529C651.405 471.445 651.148 471.361 650.83 471.277C650.288 471.137 649.844 470.978 649.498 470.801C649.152 470.623 648.886 470.422 648.699 470.198C648.559 470.02 648.456 469.829 648.391 469.623C648.325 469.408 648.293 469.175 648.293 468.922C648.293 468.614 648.358 468.333 648.489 468.081C648.629 467.82 648.816 467.595 649.05 467.408C649.293 467.212 649.573 467.063 649.891 466.96C650.218 466.857 650.563 466.806 650.928 466.806C651.274 466.806 651.615 466.852 651.951 466.946C652.297 467.039 652.615 467.175 652.904 467.352C653.194 467.53 653.437 467.74 653.633 467.983L652.806 468.894C652.629 468.717 652.432 468.562 652.218 468.432C652.012 468.291 651.802 468.184 651.587 468.109C651.372 468.034 651.176 467.997 650.998 467.997C650.802 467.997 650.624 468.016 650.465 468.053C650.306 468.091 650.171 468.147 650.059 468.221C649.956 468.296 649.877 468.39 649.821 468.502C649.764 468.614 649.736 468.74 649.736 468.88C649.746 469.002 649.774 469.118 649.821 469.231C649.877 469.333 649.951 469.422 650.045 469.497C650.148 469.572 650.302 469.651 650.507 469.735C650.713 469.819 650.975 469.899 651.292 469.974C651.76 470.095 652.143 470.23 652.442 470.38C652.75 470.52 652.993 470.684 653.171 470.871C653.358 471.048 653.488 471.254 653.563 471.487C653.638 471.721 653.675 471.983 653.675 472.272C653.675 472.693 653.554 473.071 653.311 473.408C653.077 473.735 652.76 473.992 652.358 474.179C651.956 474.366 651.507 474.459 651.012 474.459Z" fill="white"/>
<path d="M582.844 449.679V439.867H586.685C587.386 439.867 588.017 439.984 588.577 440.218C589.147 440.451 589.633 440.788 590.035 441.227C590.437 441.666 590.745 442.185 590.96 442.783C591.175 443.381 591.283 444.044 591.283 444.773C591.283 445.502 591.175 446.17 590.96 446.778C590.745 447.376 590.437 447.894 590.035 448.334C589.643 448.763 589.161 449.095 588.591 449.329C588.021 449.562 587.386 449.679 586.685 449.679H582.844ZM584.358 448.376L584.316 448.221H586.615C587.11 448.221 587.55 448.142 587.933 447.983C588.325 447.824 588.652 447.6 588.914 447.31C589.185 447.011 589.39 446.647 589.531 446.217C589.671 445.787 589.741 445.306 589.741 444.773C589.741 444.241 589.671 443.764 589.531 443.343C589.39 442.914 589.185 442.549 588.914 442.25C588.643 441.951 588.316 441.722 587.933 441.563C587.55 441.404 587.11 441.325 586.615 441.325H584.274L584.358 441.199V448.376ZM596.4 449.819C595.643 449.819 594.97 449.661 594.381 449.343C593.802 449.016 593.344 448.572 593.008 448.011C592.68 447.45 592.517 446.806 592.517 446.077C592.517 445.497 592.61 444.969 592.797 444.493C592.984 444.016 593.241 443.605 593.568 443.259C593.905 442.904 594.302 442.633 594.76 442.446C595.227 442.25 595.732 442.152 596.274 442.152C596.75 442.152 597.194 442.245 597.605 442.432C598.016 442.61 598.371 442.857 598.67 443.175C598.979 443.493 599.212 443.871 599.371 444.311C599.54 444.74 599.619 445.212 599.61 445.726L599.596 446.343H593.582L593.26 445.194H598.348L598.138 445.432V445.096C598.11 444.787 598.007 444.512 597.829 444.269C597.652 444.026 597.428 443.834 597.157 443.694C596.886 443.554 596.591 443.484 596.274 443.484C595.769 443.484 595.344 443.582 594.998 443.778C594.652 443.965 594.391 444.245 594.213 444.619C594.035 444.983 593.947 445.437 593.947 445.979C593.947 446.493 594.054 446.941 594.269 447.324C594.484 447.698 594.788 447.988 595.18 448.193C595.573 448.399 596.026 448.502 596.54 448.502C596.904 448.502 597.241 448.441 597.549 448.32C597.867 448.198 598.208 447.978 598.572 447.661L599.301 448.684C599.077 448.908 598.801 449.104 598.474 449.273C598.157 449.441 597.815 449.576 597.451 449.679C597.096 449.773 596.745 449.819 596.4 449.819ZM603.453 449.679L600.341 442.32H601.897L604.14 447.829L603.873 447.955L606.27 442.32H607.756L604.49 449.679H603.453ZM611.703 449.819C611.096 449.819 610.54 449.651 610.035 449.315C609.54 448.978 609.143 448.52 608.844 447.941C608.545 447.362 608.395 446.708 608.395 445.979C608.395 445.24 608.545 444.586 608.844 444.016C609.152 443.437 609.563 442.984 610.077 442.657C610.601 442.33 611.185 442.166 611.829 442.166C612.213 442.166 612.563 442.222 612.881 442.334C613.198 442.446 613.474 442.605 613.708 442.811C613.951 443.007 614.147 443.236 614.296 443.498C614.455 443.759 614.553 444.04 614.591 444.339L614.268 444.227V442.32H615.726V449.679H614.268V447.927L614.605 447.829C614.549 448.081 614.432 448.329 614.254 448.572C614.086 448.805 613.867 449.016 613.596 449.203C613.334 449.39 613.04 449.539 612.712 449.651C612.395 449.763 612.058 449.819 611.703 449.819ZM612.082 448.488C612.521 448.488 612.909 448.38 613.245 448.165C613.582 447.95 613.843 447.656 614.03 447.282C614.226 446.899 614.324 446.465 614.324 445.979C614.324 445.502 614.226 445.077 614.03 444.703C613.843 444.329 613.582 444.035 613.245 443.82C612.909 443.605 612.521 443.498 612.082 443.498C611.652 443.498 611.269 443.605 610.932 443.82C610.605 444.035 610.344 444.329 610.147 444.703C609.96 445.077 609.867 445.502 609.867 445.979C609.867 446.465 609.96 446.899 610.147 447.282C610.344 447.656 610.605 447.95 610.932 448.165C611.269 448.38 611.652 448.488 612.082 448.488ZM617.476 451.922V450.829H625.662V451.922H617.476ZM631.345 449.679V441.773L631.695 441.858L628.471 445.796L628.415 445.628H634.513V447.016H627.476L626.831 445.754L631.639 439.867H632.803V449.679H631.345ZM638.705 449.777C638.061 449.777 637.477 449.632 636.953 449.343C636.43 449.044 635.995 448.619 635.65 448.067L636.491 447.128C636.93 447.614 637.313 447.946 637.64 448.123C637.967 448.301 638.322 448.39 638.705 448.39C639.089 448.39 639.434 448.306 639.743 448.137C640.051 447.969 640.294 447.74 640.472 447.45C640.658 447.161 640.752 446.838 640.752 446.483C640.752 446.109 640.663 445.778 640.486 445.488C640.317 445.189 640.088 444.955 639.799 444.787C639.509 444.61 639.182 444.521 638.818 444.521C638.64 444.521 638.472 444.535 638.313 444.563C638.154 444.582 637.962 444.633 637.738 444.717C637.514 444.801 637.22 444.932 636.855 445.11L636.056 444.03L636.631 439.867H641.929V441.269H637.584L637.878 441.003L637.416 444.114L637.065 443.708C637.159 443.614 637.318 443.526 637.542 443.442C637.766 443.348 638.014 443.273 638.285 443.217C638.565 443.152 638.832 443.119 639.084 443.119C639.682 443.119 640.215 443.259 640.682 443.54C641.158 443.811 641.532 444.189 641.803 444.675C642.084 445.161 642.224 445.717 642.224 446.343C642.224 446.988 642.07 447.572 641.761 448.095C641.453 448.609 641.032 449.02 640.5 449.329C639.967 449.628 639.369 449.777 638.705 449.777ZM644.64 449.679L648.705 440.82L648.873 441.269H643.911V439.867H649.98L650.177 440.834L646.266 449.679H644.64Z" fill="white"/>
<rect x="315.609" y="193.542" width="133.588" height="180.235" rx="15.1048" fill="#262E38"/>
<rect x="309.344" y="190.736" width="134.704" height="177.676" rx="12.0839" fill="#3E4C5C" stroke="#262E38" stroke-width="1.81258" stroke-miterlimit="10"/>
<rect x="317.363" y="199.386" width="118.668" height="100.884" rx="9.06289" fill="#1E2022"/>
<path d="M380.898 218.403H372.495C358.587 218.403 347.303 229.679 347.303 243.596V256.059C347.303 256.4 347.311 256.74 347.328 257.081C347.867 270.524 358.928 281.252 372.495 281.252H380.898C394.466 281.252 405.527 270.524 406.066 257.081C406.083 256.74 406.091 256.4 406.091 256.059V243.596C406.091 229.679 394.807 218.403 380.89 218.403H380.898Z" fill="#536375" stroke="url(#paint1_linear_4782_1401)" stroke-width="1.81258" stroke-miterlimit="10"/>
<path d="M381.406 222.729H372.339C360.998 222.729 351.804 231.923 351.804 243.264V244.692C351.804 256.033 360.998 265.227 372.339 265.227H381.406C392.747 265.227 401.94 256.033 401.94 244.692V243.264C401.94 231.923 392.747 222.729 381.406 222.729Z" fill="#101418"/>
<path d="M367.739 243.422H362.665V238.349H367.739V243.422ZM362.657 243.422H357.583V248.495H362.657V243.422ZM372.812 243.422H367.739V248.495H372.812V243.422ZM391.022 238.349H385.948V243.422H391.022V238.349ZM385.948 243.422H380.875V248.495H385.948V243.422ZM396.103 243.422H391.03V248.495H396.103V243.422Z" fill="white"/>
<path d="M423.915 342.888C423.915 349.116 418.857 354.181 412.622 354.181H340.77C334.542 354.181 329.477 349.123 329.477 342.888C329.477 336.66 334.535 331.595 340.77 331.595H412.622C418.85 331.595 423.908 336.653 423.908 342.881L423.915 342.888Z" fill="#556475"/>
<path d="M345.274 347.487C344.582 347.487 343.979 347.328 343.465 347.011C342.961 346.693 342.484 346.16 342.036 345.413L343.213 344.67C343.447 345.016 343.676 345.301 343.9 345.525C344.134 345.74 344.372 345.899 344.615 346.002C344.858 346.104 345.115 346.156 345.386 346.156C345.713 346.156 346.017 346.076 346.297 345.917C346.577 345.749 346.802 345.52 346.97 345.231C347.138 344.941 347.222 344.614 347.222 344.249C347.222 343.885 347.157 343.577 347.026 343.324C346.895 343.063 346.703 342.866 346.451 342.736C346.199 342.595 345.9 342.525 345.554 342.525C345.395 342.525 345.227 342.544 345.049 342.581C344.881 342.609 344.699 342.656 344.503 342.721C344.307 342.778 344.092 342.852 343.858 342.946L343.437 341.838L346.465 338.502L346.76 338.937H342.582V337.535H348.203L348.484 338.096L345.274 341.656L344.923 341.292C344.998 341.254 345.12 341.222 345.288 341.194C345.465 341.156 345.61 341.138 345.722 341.138C346.133 341.138 346.517 341.217 346.872 341.376C347.236 341.525 347.549 341.74 347.811 342.021C348.082 342.292 348.292 342.614 348.442 342.988C348.6 343.352 348.68 343.745 348.68 344.165C348.68 344.801 348.526 345.371 348.217 345.875C347.918 346.371 347.512 346.763 346.998 347.053C346.484 347.342 345.909 347.487 345.274 347.487ZM354.113 347.347V339.988H355.57V342.301L355.43 341.74C355.533 341.385 355.706 341.063 355.949 340.773C356.201 340.483 356.486 340.254 356.804 340.086C357.131 339.918 357.467 339.834 357.813 339.834C357.972 339.834 358.121 339.848 358.262 339.876C358.411 339.904 358.528 339.937 358.612 339.974L358.234 341.544C358.121 341.497 357.995 341.46 357.855 341.432C357.724 341.395 357.593 341.376 357.463 341.376C357.21 341.376 356.967 341.427 356.734 341.53C356.509 341.623 356.309 341.759 356.131 341.937C355.963 342.105 355.827 342.306 355.725 342.539C355.622 342.764 355.57 343.011 355.57 343.282V347.347H354.113ZM362.885 347.487C362.128 347.487 361.456 347.328 360.867 347.011C360.287 346.684 359.83 346.24 359.493 345.679C359.166 345.118 359.003 344.474 359.003 343.745C359.003 343.165 359.096 342.637 359.283 342.161C359.47 341.684 359.727 341.273 360.054 340.927C360.39 340.572 360.787 340.301 361.245 340.114C361.713 339.918 362.217 339.82 362.759 339.82C363.236 339.82 363.68 339.913 364.091 340.1C364.502 340.278 364.857 340.525 365.156 340.843C365.465 341.161 365.698 341.539 365.857 341.979C366.025 342.408 366.105 342.88 366.095 343.394L366.081 344.011H360.068L359.745 342.862H364.834L364.623 343.1V342.764C364.595 342.455 364.493 342.179 364.315 341.937C364.138 341.694 363.913 341.502 363.642 341.362C363.371 341.222 363.077 341.152 362.759 341.152C362.255 341.152 361.829 341.25 361.484 341.446C361.138 341.633 360.876 341.913 360.699 342.287C360.521 342.651 360.432 343.105 360.432 343.647C360.432 344.161 360.54 344.609 360.755 344.992C360.97 345.366 361.273 345.656 361.666 345.861C362.058 346.067 362.512 346.17 363.026 346.17C363.39 346.17 363.726 346.109 364.035 345.987C364.352 345.866 364.694 345.646 365.058 345.329L365.787 346.352C365.563 346.576 365.287 346.772 364.96 346.941C364.642 347.109 364.301 347.244 363.937 347.347C363.582 347.441 363.231 347.487 362.885 347.487ZM373.033 350.431V345.595H373.313C373.313 345.819 373.239 346.044 373.089 346.268C372.939 346.483 372.739 346.684 372.486 346.871C372.234 347.057 371.954 347.207 371.645 347.319C371.337 347.431 371.019 347.487 370.692 347.487C370.029 347.487 369.435 347.324 368.912 346.997C368.389 346.66 367.973 346.207 367.664 345.637C367.365 345.058 367.216 344.399 367.216 343.661C367.216 342.922 367.365 342.268 367.664 341.698C367.963 341.119 368.37 340.666 368.884 340.339C369.407 340.002 369.996 339.834 370.65 339.834C371.014 339.834 371.36 339.895 371.687 340.016C372.024 340.138 372.323 340.297 372.584 340.493C372.855 340.689 373.066 340.909 373.215 341.152C373.374 341.385 373.453 341.623 373.453 341.866L373.033 341.894V339.974H374.477V350.431H373.033ZM370.846 346.156C371.285 346.156 371.673 346.048 372.01 345.833C372.346 345.618 372.608 345.324 372.795 344.95C372.991 344.576 373.089 344.147 373.089 343.661C373.089 343.175 372.991 342.745 372.795 342.371C372.608 341.988 372.346 341.689 372.01 341.474C371.673 341.259 371.285 341.152 370.846 341.152C370.407 341.152 370.019 341.264 369.683 341.488C369.346 341.703 369.08 342.002 368.884 342.385C368.697 342.759 368.603 343.184 368.603 343.661C368.603 344.137 368.697 344.567 368.884 344.95C369.08 345.324 369.346 345.618 369.683 345.833C370.019 346.048 370.407 346.156 370.846 346.156ZM379.073 347.487C378.549 347.487 378.092 347.366 377.699 347.123C377.316 346.88 377.017 346.539 376.802 346.1C376.596 345.66 376.494 345.137 376.494 344.53V339.988H377.937V344.137C377.937 344.567 378.003 344.941 378.134 345.259C378.274 345.567 378.47 345.805 378.722 345.973C378.984 346.142 379.297 346.226 379.661 346.226C379.932 346.226 380.18 346.184 380.404 346.1C380.629 346.006 380.82 345.88 380.979 345.721C381.147 345.562 381.278 345.371 381.372 345.146C381.465 344.922 381.512 344.679 381.512 344.418V339.988H382.955V347.347H381.512V345.805L381.764 345.637C381.652 345.983 381.46 346.296 381.189 346.576C380.928 346.857 380.615 347.081 380.25 347.249C379.886 347.408 379.493 347.487 379.073 347.487ZM388.415 347.487C387.658 347.487 386.985 347.328 386.396 347.011C385.817 346.684 385.359 346.24 385.023 345.679C384.696 345.118 384.532 344.474 384.532 343.745C384.532 343.165 384.625 342.637 384.812 342.161C384.999 341.684 385.256 341.273 385.583 340.927C385.92 340.572 386.317 340.301 386.775 340.114C387.242 339.918 387.747 339.82 388.289 339.82C388.765 339.82 389.209 339.913 389.62 340.1C390.031 340.278 390.386 340.525 390.686 340.843C390.994 341.161 391.228 341.539 391.386 341.979C391.555 342.408 391.634 342.88 391.625 343.394L391.611 344.011H385.597L385.275 342.862H390.363L390.153 343.1V342.764C390.125 342.455 390.022 342.179 389.844 341.937C389.667 341.694 389.443 341.502 389.172 341.362C388.901 341.222 388.606 341.152 388.289 341.152C387.784 341.152 387.359 341.25 387.013 341.446C386.667 341.633 386.406 341.913 386.228 342.287C386.051 342.651 385.962 343.105 385.962 343.647C385.962 344.161 386.069 344.609 386.284 344.992C386.499 345.366 386.803 345.656 387.195 345.861C387.588 346.067 388.041 346.17 388.555 346.17C388.919 346.17 389.256 346.109 389.564 345.987C389.882 345.866 390.223 345.646 390.587 345.329L391.316 346.352C391.092 346.576 390.816 346.772 390.489 346.941C390.172 347.109 389.83 347.244 389.466 347.347C389.111 347.441 388.76 347.487 388.415 347.487ZM395.647 347.487C395.03 347.487 394.474 347.38 393.979 347.165C393.483 346.95 393.072 346.632 392.745 346.212L393.726 345.371C394.007 345.698 394.31 345.936 394.638 346.086C394.974 346.226 395.352 346.296 395.773 346.296C395.941 346.296 396.095 346.277 396.235 346.24C396.385 346.193 396.511 346.128 396.614 346.044C396.726 345.959 396.81 345.861 396.866 345.749C396.922 345.628 396.95 345.497 396.95 345.357C396.95 345.114 396.862 344.918 396.684 344.768C396.591 344.703 396.441 344.633 396.235 344.558C396.039 344.474 395.782 344.39 395.465 344.305C394.923 344.165 394.479 344.006 394.133 343.829C393.787 343.651 393.521 343.45 393.334 343.226C393.194 343.049 393.091 342.857 393.026 342.651C392.96 342.436 392.927 342.203 392.927 341.951C392.927 341.642 392.993 341.362 393.124 341.11C393.264 340.848 393.451 340.624 393.684 340.437C393.927 340.24 394.208 340.091 394.525 339.988C394.852 339.885 395.198 339.834 395.563 339.834C395.908 339.834 396.249 339.881 396.586 339.974C396.932 340.068 397.249 340.203 397.539 340.381C397.829 340.558 398.072 340.768 398.268 341.011L397.441 341.923C397.263 341.745 397.067 341.591 396.852 341.46C396.647 341.32 396.436 341.212 396.221 341.138C396.007 341.063 395.81 341.025 395.633 341.025C395.436 341.025 395.259 341.044 395.1 341.081C394.941 341.119 394.806 341.175 394.694 341.25C394.591 341.324 394.511 341.418 394.455 341.53C394.399 341.642 394.371 341.768 394.371 341.908C394.381 342.03 394.409 342.147 394.455 342.259C394.511 342.362 394.586 342.45 394.68 342.525C394.782 342.6 394.937 342.679 395.142 342.764C395.348 342.848 395.609 342.927 395.927 343.002C396.394 343.123 396.777 343.259 397.077 343.408C397.385 343.549 397.628 343.712 397.805 343.899C397.992 344.076 398.123 344.282 398.198 344.516C398.273 344.749 398.31 345.011 398.31 345.301C398.31 345.721 398.189 346.1 397.946 346.436C397.712 346.763 397.394 347.02 396.992 347.207C396.591 347.394 396.142 347.487 395.647 347.487ZM400.812 347.347V338.11H402.256V347.347H400.812ZM399.284 341.39V339.988H403.966V341.39H399.284ZM408.008 347.487C407.391 347.487 406.835 347.38 406.34 347.165C405.844 346.95 405.433 346.632 405.106 346.212L406.087 345.371C406.368 345.698 406.671 345.936 406.998 346.086C407.335 346.226 407.713 346.296 408.134 346.296C408.302 346.296 408.456 346.277 408.596 346.24C408.746 346.193 408.872 346.128 408.975 346.044C409.087 345.959 409.171 345.861 409.227 345.749C409.283 345.628 409.311 345.497 409.311 345.357C409.311 345.114 409.222 344.918 409.045 344.768C408.951 344.703 408.802 344.633 408.596 344.558C408.4 344.474 408.143 344.39 407.825 344.305C407.283 344.165 406.84 344.006 406.494 343.829C406.148 343.651 405.882 343.45 405.695 343.226C405.555 343.049 405.452 342.857 405.386 342.651C405.321 342.436 405.288 342.203 405.288 341.951C405.288 341.642 405.354 341.362 405.485 341.11C405.625 340.848 405.812 340.624 406.045 340.437C406.288 340.24 406.569 340.091 406.886 339.988C407.213 339.885 407.559 339.834 407.924 339.834C408.269 339.834 408.61 339.881 408.947 339.974C409.293 340.068 409.61 340.203 409.9 340.381C410.19 340.558 410.433 340.768 410.629 341.011L409.802 341.923C409.624 341.745 409.428 341.591 409.213 341.46C409.008 341.32 408.797 341.212 408.582 341.138C408.367 341.063 408.171 341.025 407.994 341.025C407.797 341.025 407.62 341.044 407.461 341.081C407.302 341.119 407.167 341.175 407.054 341.25C406.952 341.324 406.872 341.418 406.816 341.53C406.76 341.642 406.732 341.768 406.732 341.908C406.741 342.03 406.769 342.147 406.816 342.259C406.872 342.362 406.947 342.45 407.04 342.525C407.143 342.6 407.297 342.679 407.503 342.764C407.709 342.848 407.97 342.927 408.288 343.002C408.755 343.123 409.138 343.259 409.437 343.408C409.746 343.549 409.989 343.712 410.166 343.899C410.353 344.076 410.484 344.282 410.559 344.516C410.634 344.749 410.671 345.011 410.671 345.301C410.671 345.721 410.549 346.1 410.306 346.436C410.073 346.763 409.755 347.02 409.353 347.207C408.951 347.394 408.503 347.487 408.008 347.487Z" fill="white"/>
<path d="M332.075 322.708V312.895H335.916C336.617 312.895 337.248 313.012 337.808 313.246C338.378 313.48 338.864 313.816 339.266 314.255C339.668 314.694 339.976 315.213 340.191 315.811C340.406 316.409 340.514 317.073 340.514 317.801C340.514 318.53 340.406 319.199 340.191 319.806C339.976 320.404 339.668 320.923 339.266 321.362C338.874 321.792 338.392 322.123 337.822 322.357C337.252 322.591 336.617 322.708 335.916 322.708H332.075ZM333.589 321.404L333.547 321.25H335.846C336.341 321.25 336.78 321.17 337.164 321.011C337.556 320.853 337.883 320.628 338.145 320.339C338.416 320.04 338.621 319.675 338.762 319.245C338.902 318.815 338.972 318.334 338.972 317.801C338.972 317.269 338.902 316.792 338.762 316.372C338.621 315.942 338.416 315.577 338.145 315.278C337.874 314.979 337.547 314.75 337.164 314.592C336.78 314.433 336.341 314.353 335.846 314.353H333.505L333.589 314.227V321.404ZM345.028 322.848C344.42 322.848 343.864 322.679 343.36 322.343C342.865 322.007 342.467 321.549 342.168 320.969C341.869 320.39 341.72 319.736 341.72 319.007C341.72 318.269 341.869 317.615 342.168 317.045C342.477 316.465 342.888 316.012 343.402 315.685C343.925 315.358 344.509 315.194 345.154 315.194C345.537 315.194 345.888 315.25 346.205 315.362C346.523 315.475 346.799 315.633 347.032 315.839C347.275 316.035 347.472 316.264 347.621 316.526C347.78 316.788 347.878 317.068 347.915 317.367L347.593 317.255V315.348H349.051V322.708H347.593V320.955L347.929 320.857C347.873 321.11 347.757 321.357 347.579 321.6C347.411 321.834 347.191 322.044 346.92 322.231C346.659 322.418 346.364 322.567 346.037 322.679C345.719 322.792 345.383 322.848 345.028 322.848ZM345.406 321.516C345.846 321.516 346.233 321.409 346.57 321.194C346.906 320.979 347.168 320.684 347.355 320.311C347.551 319.927 347.649 319.493 347.649 319.007C347.649 318.53 347.551 318.105 347.355 317.731C347.168 317.358 346.906 317.063 346.57 316.848C346.233 316.633 345.846 316.526 345.406 316.526C344.977 316.526 344.593 316.633 344.257 316.848C343.93 317.063 343.668 317.358 343.472 317.731C343.285 318.105 343.192 318.53 343.192 319.007C343.192 319.493 343.285 319.927 343.472 320.311C343.668 320.684 343.93 320.979 344.257 321.194C344.593 321.409 344.977 321.516 345.406 321.516ZM354.501 322.848C353.744 322.848 353.071 322.689 352.482 322.371C351.903 322.044 351.445 321.6 351.109 321.039C350.782 320.479 350.618 319.834 350.618 319.105C350.618 318.526 350.712 317.998 350.898 317.521C351.085 317.045 351.342 316.633 351.669 316.288C352.006 315.933 352.403 315.662 352.861 315.475C353.328 315.278 353.833 315.18 354.375 315.18C354.851 315.18 355.295 315.274 355.706 315.461C356.118 315.638 356.473 315.886 356.772 316.204C357.08 316.521 357.314 316.9 357.473 317.339C357.641 317.769 357.72 318.241 357.711 318.755L357.697 319.371H351.683L351.361 318.222H356.449L356.239 318.46V318.124C356.211 317.816 356.108 317.54 355.931 317.297C355.753 317.054 355.529 316.862 355.258 316.722C354.987 316.582 354.692 316.512 354.375 316.512C353.87 316.512 353.445 316.61 353.099 316.806C352.753 316.993 352.492 317.274 352.314 317.647C352.137 318.012 352.048 318.465 352.048 319.007C352.048 319.521 352.155 319.969 352.37 320.353C352.585 320.726 352.889 321.016 353.281 321.222C353.674 321.427 354.127 321.53 354.641 321.53C355.006 321.53 355.342 321.469 355.65 321.348C355.968 321.226 356.309 321.007 356.674 320.689L357.402 321.712C357.178 321.937 356.903 322.133 356.575 322.301C356.258 322.469 355.917 322.605 355.552 322.708C355.197 322.801 354.847 322.848 354.501 322.848ZM359.252 322.708V315.348H360.71V316.918L360.443 317.087C360.518 316.844 360.635 316.61 360.794 316.386C360.962 316.161 361.163 315.965 361.397 315.797C361.639 315.619 361.896 315.479 362.167 315.377C362.448 315.274 362.733 315.222 363.023 315.222C363.443 315.222 363.812 315.292 364.13 315.433C364.448 315.573 364.709 315.783 364.915 316.063C365.12 316.344 365.27 316.694 365.363 317.115L365.139 317.059L365.237 316.82C365.34 316.605 365.48 316.404 365.658 316.218C365.845 316.021 366.055 315.848 366.289 315.699C366.522 315.549 366.77 315.433 367.031 315.348C367.293 315.264 367.55 315.222 367.802 315.222C368.354 315.222 368.807 315.334 369.162 315.559C369.527 315.783 369.797 316.124 369.975 316.582C370.162 317.04 370.255 317.61 370.255 318.292V322.708H368.798V318.376C368.798 317.956 368.742 317.615 368.629 317.353C368.527 317.082 368.368 316.881 368.153 316.75C367.938 316.619 367.662 316.554 367.326 316.554C367.064 316.554 366.817 316.601 366.583 316.694C366.359 316.778 366.162 316.9 365.994 317.059C365.826 317.217 365.695 317.404 365.602 317.619C365.508 317.825 365.462 318.054 365.462 318.306V322.708H364.004V318.348C364.004 317.965 363.948 317.643 363.836 317.381C363.723 317.11 363.56 316.904 363.345 316.764C363.13 316.624 362.868 316.554 362.56 316.554C362.298 316.554 362.055 316.601 361.831 316.694C361.607 316.778 361.411 316.9 361.242 317.059C361.074 317.208 360.943 317.39 360.85 317.605C360.756 317.811 360.71 318.035 360.71 318.278V322.708H359.252ZM375.496 322.848C374.777 322.848 374.132 322.684 373.562 322.357C373.001 322.021 372.557 321.567 372.23 320.997C371.903 320.418 371.74 319.759 371.74 319.021C371.74 318.283 371.903 317.629 372.23 317.059C372.557 316.479 373.001 316.026 373.562 315.699C374.132 315.362 374.777 315.194 375.496 315.194C376.207 315.194 376.842 315.362 377.403 315.699C377.973 316.026 378.421 316.479 378.748 317.059C379.075 317.629 379.239 318.283 379.239 319.021C379.239 319.759 379.075 320.418 378.748 320.997C378.421 321.567 377.973 322.021 377.403 322.357C376.842 322.684 376.207 322.848 375.496 322.848ZM375.496 321.53C375.936 321.53 376.328 321.423 376.674 321.208C377.02 320.983 377.291 320.684 377.487 320.311C377.683 319.927 377.777 319.498 377.767 319.021C377.777 318.535 377.683 318.105 377.487 317.731C377.291 317.348 377.02 317.049 376.674 316.834C376.328 316.619 375.936 316.512 375.496 316.512C375.057 316.512 374.66 316.624 374.305 316.848C373.959 317.063 373.688 317.362 373.492 317.745C373.296 318.119 373.202 318.544 373.212 319.021C373.202 319.498 373.296 319.927 373.492 320.311C373.688 320.684 373.959 320.983 374.305 321.208C374.66 321.423 375.057 321.53 375.496 321.53ZM380.812 322.708V315.348H382.256V316.862L382.004 317.031C382.097 316.703 382.279 316.404 382.55 316.133C382.821 315.853 383.144 315.629 383.518 315.461C383.891 315.283 384.274 315.194 384.667 315.194C385.228 315.194 385.695 315.306 386.069 315.531C386.442 315.746 386.723 316.077 386.91 316.526C387.097 316.974 387.19 317.54 387.19 318.222V322.708H385.746V318.32C385.746 317.9 385.69 317.554 385.578 317.283C385.466 317.003 385.293 316.802 385.059 316.68C384.826 316.549 384.536 316.493 384.19 316.512C383.91 316.512 383.653 316.559 383.419 316.652C383.186 316.736 382.98 316.858 382.803 317.017C382.634 317.175 382.499 317.362 382.396 317.577C382.303 317.783 382.256 318.007 382.256 318.25V322.708H381.541C381.42 322.708 381.298 322.708 381.177 322.708C381.055 322.708 380.934 322.708 380.812 322.708ZM388.882 324.95V323.857H397.068V324.95H388.882ZM401.42 322.806C400.775 322.806 400.191 322.661 399.668 322.371C399.144 322.072 398.71 321.647 398.364 321.096L399.205 320.156C399.644 320.642 400.027 320.974 400.354 321.152C400.681 321.329 401.037 321.418 401.42 321.418C401.803 321.418 402.149 321.334 402.457 321.166C402.765 320.997 403.008 320.768 403.186 320.479C403.373 320.189 403.466 319.867 403.466 319.512C403.466 319.138 403.377 318.806 403.2 318.516C403.032 318.217 402.803 317.984 402.513 317.816C402.223 317.638 401.896 317.549 401.532 317.549C401.354 317.549 401.186 317.563 401.027 317.591C400.868 317.61 400.677 317.661 400.453 317.745C400.228 317.83 399.934 317.96 399.569 318.138L398.77 317.059L399.345 312.895H404.644V314.297H400.298L400.593 314.031L400.13 317.143L399.78 316.736C399.873 316.643 400.032 316.554 400.256 316.47C400.481 316.376 400.728 316.302 400.999 316.246C401.28 316.18 401.546 316.147 401.798 316.147C402.396 316.147 402.929 316.288 403.396 316.568C403.873 316.839 404.247 317.217 404.518 317.703C404.798 318.189 404.938 318.745 404.938 319.371C404.938 320.016 404.784 320.6 404.475 321.124C404.167 321.638 403.747 322.049 403.214 322.357C402.681 322.656 402.083 322.806 401.42 322.806ZM410.718 322.708V314.802L411.069 314.886L407.845 318.825L407.789 318.657H413.886V320.044H406.849L406.205 318.783L411.013 312.895H412.176V322.708H410.718ZM415.506 322.708L415.044 321.558L418.043 318.18C418.202 318.012 418.366 317.82 418.534 317.605C418.712 317.381 418.88 317.152 419.039 316.918C419.197 316.685 419.324 316.456 419.417 316.232C419.52 315.998 419.571 315.778 419.571 315.573C419.571 315.274 419.511 315.021 419.389 314.816C419.277 314.601 419.109 314.437 418.884 314.325C418.669 314.213 418.408 314.157 418.099 314.157C417.828 314.157 417.562 314.236 417.3 314.395C417.039 314.554 416.801 314.778 416.586 315.068C416.371 315.358 416.202 315.694 416.081 316.077L414.918 315.348C415.076 314.806 415.315 314.344 415.632 313.961C415.959 313.568 416.347 313.269 416.796 313.064C417.254 312.858 417.749 312.755 418.282 312.755C418.833 312.755 419.324 312.872 419.753 313.106C420.183 313.33 420.52 313.648 420.763 314.059C421.006 314.461 421.127 314.928 421.127 315.461C421.127 315.676 421.104 315.895 421.057 316.119C421.01 316.344 420.936 316.577 420.833 316.82C420.73 317.054 420.599 317.302 420.44 317.563C420.281 317.816 420.09 318.082 419.866 318.362C419.651 318.643 419.403 318.937 419.123 319.245L416.894 321.67L416.614 321.25H421.436V322.708H415.506Z" fill="white"/>
<rect x="428.314" y="240.61" width="134.704" height="177.676" rx="12.0839" fill="#536273" stroke="url(#paint2_linear_4782_1401)" stroke-width="1.81258" stroke-miterlimit="10"/>
<rect x="436.334" y="249.26" width="118.668" height="100.884" rx="9.06289" fill="#2A333C"/>
<path d="M499.869 268.278H491.466C477.558 268.278 466.273 279.554 466.273 293.471V305.934C466.273 306.274 466.282 306.615 466.298 306.955C466.838 320.399 477.898 331.127 491.466 331.127H499.869C513.437 331.127 524.497 320.399 525.037 306.955C525.054 306.615 525.062 306.274 525.062 305.934V293.471C525.062 279.554 513.777 268.278 499.861 268.278H499.869Z" fill="#536375" stroke="url(#paint3_linear_4782_1401)" stroke-width="1.81258" stroke-miterlimit="10"/>
<path d="M500.377 272.604H491.309C479.969 272.604 470.775 281.798 470.775 293.138V294.567C470.775 305.907 479.969 315.101 491.309 315.101H500.377C511.718 315.101 520.911 305.907 520.911 294.567V293.138C520.911 281.798 511.718 272.604 500.377 272.604Z" fill="#101418"/>
<path d="M486.709 293.297H481.636V288.223H486.709V293.297ZM481.628 293.297H476.554V298.37H481.628V293.297ZM491.783 293.297H486.709V298.37H491.783V293.297ZM509.992 288.223H504.919V293.297H509.992V288.223ZM504.919 293.297H499.845V298.37H504.919V293.297ZM515.074 293.297H510.001V298.37H515.074V293.297Z" fill="white"/>
<path d="M542.882 392.759C542.885 392.761 542.886 392.764 542.886 392.767C542.883 398.993 537.826 404.056 531.593 404.056H459.741C453.512 404.056 448.447 398.998 448.447 392.762C448.447 386.534 453.505 381.469 459.741 381.469H531.593C537.819 381.469 542.876 386.525 542.879 392.751C542.879 392.754 542.88 392.757 542.882 392.759Z" fill="#9F88FD" stroke="#BFAFFD" stroke-width="1.2" stroke-linecap="round" stroke-linejoin="round"/>
<path d="M464.244 397.362C463.553 397.362 462.95 397.203 462.436 396.885C461.932 396.568 461.455 396.035 461.006 395.287L462.184 394.544C462.417 394.89 462.646 395.175 462.871 395.399C463.104 395.614 463.343 395.773 463.586 395.876C463.829 395.979 464.086 396.03 464.357 396.03C464.684 396.03 464.987 395.951 465.268 395.792C465.548 395.624 465.772 395.395 465.94 395.105C466.109 394.815 466.193 394.488 466.193 394.124C466.193 393.759 466.127 393.451 465.997 393.199C465.866 392.937 465.674 392.741 465.422 392.61C465.17 392.47 464.87 392.4 464.525 392.4C464.366 392.4 464.198 392.418 464.02 392.456C463.852 392.484 463.67 392.531 463.473 392.596C463.277 392.652 463.062 392.727 462.829 392.82L462.408 391.713L465.436 388.377L465.73 388.811H461.553V387.41H467.174L467.454 387.97L464.244 391.531L463.894 391.166C463.969 391.129 464.09 391.096 464.258 391.068C464.436 391.031 464.581 391.012 464.693 391.012C465.104 391.012 465.487 391.091 465.842 391.25C466.207 391.4 466.52 391.615 466.782 391.895C467.053 392.166 467.263 392.489 467.412 392.862C467.571 393.227 467.651 393.619 467.651 394.04C467.651 394.675 467.496 395.245 467.188 395.75C466.889 396.245 466.482 396.638 465.969 396.927C465.455 397.217 464.88 397.362 464.244 397.362ZM473.083 397.222V389.863H474.541V392.175L474.401 391.615C474.504 391.26 474.677 390.937 474.919 390.648C475.172 390.358 475.457 390.129 475.775 389.961C476.102 389.793 476.438 389.708 476.784 389.708C476.943 389.708 477.092 389.722 477.232 389.751C477.382 389.779 477.499 389.811 477.583 389.849L477.204 391.419C477.092 391.372 476.966 391.334 476.826 391.306C476.695 391.269 476.564 391.25 476.433 391.25C476.181 391.25 475.938 391.302 475.704 391.405C475.48 391.498 475.279 391.633 475.102 391.811C474.934 391.979 474.798 392.18 474.695 392.414C474.592 392.638 474.541 392.886 474.541 393.157V397.222H473.083ZM481.856 397.362C481.099 397.362 480.426 397.203 479.838 396.885C479.258 396.558 478.8 396.114 478.464 395.554C478.137 394.993 477.973 394.348 477.973 393.619C477.973 393.04 478.067 392.512 478.254 392.035C478.441 391.559 478.697 391.148 479.025 390.802C479.361 390.447 479.758 390.176 480.216 389.989C480.683 389.793 481.188 389.694 481.73 389.694C482.206 389.694 482.65 389.788 483.062 389.975C483.473 390.152 483.828 390.4 484.127 390.718C484.435 391.035 484.669 391.414 484.828 391.853C484.996 392.283 485.075 392.755 485.066 393.269L485.052 393.886H479.039L478.716 392.736H483.804L483.594 392.974V392.638C483.566 392.33 483.463 392.054 483.286 391.811C483.108 391.568 482.884 391.377 482.613 391.236C482.342 391.096 482.048 391.026 481.73 391.026C481.225 391.026 480.8 391.124 480.454 391.32C480.109 391.507 479.847 391.788 479.669 392.161C479.492 392.526 479.403 392.979 479.403 393.521C479.403 394.035 479.51 394.484 479.725 394.867C479.94 395.241 480.244 395.53 480.637 395.736C481.029 395.941 481.482 396.044 481.996 396.044C482.361 396.044 482.697 395.983 483.005 395.862C483.323 395.741 483.664 395.521 484.029 395.203L484.758 396.226C484.533 396.451 484.258 396.647 483.931 396.815C483.613 396.983 483.272 397.119 482.907 397.222C482.552 397.315 482.202 397.362 481.856 397.362ZM492.004 400.305V395.47H492.284C492.284 395.694 492.209 395.918 492.06 396.142C491.91 396.357 491.709 396.558 491.457 396.745C491.205 396.932 490.924 397.082 490.616 397.194C490.308 397.306 489.99 397.362 489.663 397.362C488.999 397.362 488.406 397.198 487.883 396.871C487.359 396.535 486.943 396.082 486.635 395.512C486.336 394.932 486.186 394.273 486.186 393.535C486.186 392.797 486.336 392.143 486.635 391.573C486.934 390.993 487.341 390.54 487.855 390.213C488.378 389.877 488.967 389.708 489.621 389.708C489.985 389.708 490.331 389.769 490.658 389.891C490.994 390.012 491.293 390.171 491.555 390.367C491.826 390.564 492.036 390.783 492.186 391.026C492.345 391.26 492.424 391.498 492.424 391.741L492.004 391.769V389.849H493.447V400.305H492.004ZM489.817 396.03C490.256 396.03 490.644 395.923 490.98 395.708C491.317 395.493 491.578 395.199 491.765 394.825C491.962 394.451 492.06 394.021 492.06 393.535C492.06 393.049 491.962 392.619 491.765 392.246C491.578 391.862 491.317 391.563 490.98 391.348C490.644 391.134 490.256 391.026 489.817 391.026C489.378 391.026 488.99 391.138 488.654 391.362C488.317 391.577 488.051 391.876 487.855 392.26C487.668 392.633 487.574 393.059 487.574 393.535C487.574 394.012 487.668 394.442 487.855 394.825C488.051 395.199 488.317 395.493 488.654 395.708C488.99 395.923 489.378 396.03 489.817 396.03ZM498.043 397.362C497.52 397.362 497.062 397.24 496.67 396.997C496.287 396.754 495.988 396.413 495.773 395.974C495.567 395.535 495.464 395.012 495.464 394.404V389.863H496.908V394.012C496.908 394.442 496.973 394.815 497.104 395.133C497.244 395.441 497.441 395.68 497.693 395.848C497.955 396.016 498.268 396.1 498.632 396.1C498.903 396.1 499.151 396.058 499.375 395.974C499.599 395.881 499.791 395.755 499.95 395.596C500.118 395.437 500.249 395.245 500.342 395.021C500.436 394.797 500.482 394.554 500.482 394.292V389.863H501.926V397.222H500.482V395.68L500.735 395.512C500.623 395.857 500.431 396.17 500.16 396.451C499.898 396.731 499.585 396.955 499.221 397.124C498.856 397.282 498.464 397.362 498.043 397.362ZM507.385 397.362C506.629 397.362 505.956 397.203 505.367 396.885C504.788 396.558 504.33 396.114 503.993 395.554C503.666 394.993 503.503 394.348 503.503 393.619C503.503 393.04 503.596 392.512 503.783 392.035C503.97 391.559 504.227 391.148 504.554 390.802C504.89 390.447 505.288 390.176 505.745 389.989C506.213 389.793 506.717 389.694 507.259 389.694C507.736 389.694 508.18 389.788 508.591 389.975C509.002 390.152 509.357 390.4 509.656 390.718C509.965 391.035 510.198 391.414 510.357 391.853C510.525 392.283 510.605 392.755 510.595 393.269L510.581 393.886H504.568L504.246 392.736H509.334L509.124 392.974V392.638C509.096 392.33 508.993 392.054 508.815 391.811C508.638 391.568 508.413 391.377 508.142 391.236C507.871 391.096 507.577 391.026 507.259 391.026C506.755 391.026 506.329 391.124 505.984 391.32C505.638 391.507 505.376 391.788 505.199 392.161C505.021 392.526 504.932 392.979 504.932 393.521C504.932 394.035 505.04 394.484 505.255 394.867C505.47 395.241 505.773 395.53 506.166 395.736C506.558 395.941 507.012 396.044 507.526 396.044C507.89 396.044 508.226 395.983 508.535 395.862C508.853 395.741 509.194 395.521 509.558 395.203L510.287 396.226C510.063 396.451 509.787 396.647 509.46 396.815C509.142 396.983 508.801 397.119 508.437 397.222C508.082 397.315 507.731 397.362 507.385 397.362ZM514.617 397.362C514.001 397.362 513.445 397.254 512.949 397.039C512.454 396.825 512.043 396.507 511.716 396.086L512.697 395.245C512.977 395.572 513.281 395.811 513.608 395.96C513.945 396.1 514.323 396.17 514.744 396.17C514.912 396.17 515.066 396.152 515.206 396.114C515.356 396.068 515.482 396.002 515.585 395.918C515.697 395.834 515.781 395.736 515.837 395.624C515.893 395.502 515.921 395.371 515.921 395.231C515.921 394.988 515.832 394.792 515.655 394.643C515.561 394.577 515.412 394.507 515.206 394.432C515.01 394.348 514.753 394.264 514.435 394.18C513.893 394.04 513.449 393.881 513.104 393.703C512.758 393.526 512.492 393.325 512.305 393.101C512.164 392.923 512.062 392.731 511.996 392.526C511.931 392.311 511.898 392.077 511.898 391.825C511.898 391.517 511.964 391.236 512.094 390.984C512.235 390.722 512.421 390.498 512.655 390.311C512.898 390.115 513.178 389.965 513.496 389.863C513.823 389.76 514.169 389.708 514.533 389.708C514.879 389.708 515.22 389.755 515.557 389.849C515.902 389.942 516.22 390.078 516.51 390.255C516.799 390.433 517.042 390.643 517.239 390.886L516.412 391.797C516.234 391.619 516.038 391.465 515.823 391.334C515.617 391.194 515.407 391.087 515.192 391.012C514.977 390.937 514.781 390.9 514.603 390.9C514.407 390.9 514.23 390.919 514.071 390.956C513.912 390.993 513.776 391.049 513.664 391.124C513.561 391.199 513.482 391.292 513.426 391.405C513.37 391.517 513.342 391.643 513.342 391.783C513.351 391.904 513.379 392.021 513.426 392.133C513.482 392.236 513.557 392.325 513.65 392.4C513.753 392.475 513.907 392.554 514.113 392.638C514.318 392.722 514.58 392.802 514.898 392.876C515.365 392.998 515.748 393.133 516.047 393.283C516.356 393.423 516.599 393.587 516.776 393.773C516.963 393.951 517.094 394.157 517.169 394.39C517.243 394.624 517.281 394.885 517.281 395.175C517.281 395.596 517.159 395.974 516.916 396.311C516.683 396.638 516.365 396.895 515.963 397.082C515.561 397.268 515.113 397.362 514.617 397.362ZM519.783 397.222V387.984H521.227V397.222H519.783ZM518.255 391.264V389.863H522.937V391.264H518.255ZM526.978 397.362C526.362 397.362 525.806 397.254 525.31 397.039C524.815 396.825 524.404 396.507 524.077 396.086L525.058 395.245C525.338 395.572 525.642 395.811 525.969 395.96C526.306 396.1 526.684 396.17 527.104 396.17C527.273 396.17 527.427 396.152 527.567 396.114C527.717 396.068 527.843 396.002 527.946 395.918C528.058 395.834 528.142 395.736 528.198 395.624C528.254 395.502 528.282 395.371 528.282 395.231C528.282 394.988 528.193 394.792 528.016 394.643C527.922 394.577 527.773 394.507 527.567 394.432C527.371 394.348 527.114 394.264 526.796 394.18C526.254 394.04 525.81 393.881 525.464 393.703C525.119 393.526 524.852 393.325 524.665 393.101C524.525 392.923 524.423 392.731 524.357 392.526C524.292 392.311 524.259 392.077 524.259 391.825C524.259 391.517 524.324 391.236 524.455 390.984C524.595 390.722 524.782 390.498 525.016 390.311C525.259 390.115 525.539 389.965 525.857 389.863C526.184 389.76 526.53 389.708 526.894 389.708C527.24 389.708 527.581 389.755 527.917 389.849C528.263 389.942 528.581 390.078 528.871 390.255C529.16 390.433 529.403 390.643 529.6 390.886L528.773 391.797C528.595 391.619 528.399 391.465 528.184 391.334C527.978 391.194 527.768 391.087 527.553 391.012C527.338 390.937 527.142 390.9 526.964 390.9C526.768 390.9 526.591 390.919 526.432 390.956C526.273 390.993 526.137 391.049 526.025 391.124C525.922 391.199 525.843 391.292 525.787 391.405C525.731 391.517 525.703 391.643 525.703 391.783C525.712 391.904 525.74 392.021 525.787 392.133C525.843 392.236 525.918 392.325 526.011 392.4C526.114 392.475 526.268 392.554 526.474 392.638C526.679 392.722 526.941 392.802 527.259 392.876C527.726 392.998 528.109 393.133 528.408 393.283C528.716 393.423 528.959 393.587 529.137 393.773C529.324 393.951 529.455 394.157 529.529 394.39C529.604 394.624 529.642 394.885 529.642 395.175C529.642 395.596 529.52 395.974 529.277 396.311C529.044 396.638 528.726 396.895 528.324 397.082C527.922 397.268 527.474 397.362 526.978 397.362Z" fill="#270E8D"/>
<path d="M451.046 372.582V362.77H455.223C455.784 362.77 456.298 362.91 456.765 363.19C457.242 363.461 457.62 363.835 457.9 364.312C458.181 364.779 458.321 365.307 458.321 365.896C458.321 366.428 458.181 366.924 457.9 367.382C457.62 367.84 457.246 368.209 456.779 368.489C456.312 368.76 455.793 368.896 455.223 368.896H452.56V372.582H451.046ZM456.877 372.582L454.382 368.153L455.938 367.802L458.713 372.596L456.877 372.582ZM452.56 367.438H455.363C455.634 367.438 455.877 367.372 456.092 367.241C456.307 367.101 456.475 366.914 456.597 366.681C456.718 366.438 456.779 366.171 456.779 365.882C456.779 365.555 456.7 365.27 456.541 365.027C456.391 364.774 456.176 364.578 455.896 364.438C455.625 364.298 455.317 364.228 454.971 364.228H452.56V367.438ZM462.986 372.722C462.378 372.722 461.822 372.554 461.318 372.218C460.822 371.881 460.425 371.423 460.126 370.844C459.827 370.265 459.678 369.61 459.678 368.881C459.678 368.143 459.827 367.489 460.126 366.919C460.435 366.34 460.846 365.886 461.36 365.559C461.883 365.232 462.467 365.069 463.112 365.069C463.495 365.069 463.845 365.125 464.163 365.237C464.481 365.349 464.756 365.508 464.99 365.714C465.233 365.91 465.429 366.139 465.579 366.4C465.738 366.662 465.836 366.942 465.873 367.241L465.551 367.129V365.223H467.009V372.582H465.551V370.83L465.887 370.732C465.831 370.984 465.714 371.232 465.537 371.475C465.369 371.708 465.149 371.919 464.878 372.105C464.616 372.292 464.322 372.442 463.995 372.554C463.677 372.666 463.341 372.722 462.986 372.722ZM463.364 371.391C463.803 371.391 464.191 371.283 464.528 371.068C464.864 370.853 465.126 370.559 465.313 370.185C465.509 369.802 465.607 369.367 465.607 368.881C465.607 368.405 465.509 367.98 465.313 367.606C465.126 367.232 464.864 366.938 464.528 366.723C464.191 366.508 463.803 366.4 463.364 366.4C462.934 366.4 462.551 366.508 462.215 366.723C461.888 366.938 461.626 367.232 461.43 367.606C461.243 367.98 461.149 368.405 461.149 368.881C461.149 369.367 461.243 369.802 461.43 370.185C461.626 370.559 461.888 370.853 462.215 371.068C462.551 371.283 462.934 371.391 463.364 371.391ZM468.996 372.582V365.223H470.454V366.793L470.188 366.961C470.263 366.718 470.379 366.485 470.538 366.26C470.707 366.036 470.907 365.84 471.141 365.672C471.384 365.494 471.641 365.354 471.912 365.251C472.192 365.148 472.477 365.097 472.767 365.097C473.188 365.097 473.557 365.167 473.874 365.307C474.192 365.447 474.454 365.658 474.659 365.938C474.865 366.218 475.014 366.569 475.108 366.989L474.884 366.933L474.982 366.695C475.085 366.48 475.225 366.279 475.402 366.092C475.589 365.896 475.799 365.723 476.033 365.573C476.267 365.424 476.514 365.307 476.776 365.223C477.038 365.139 477.295 365.097 477.547 365.097C478.098 365.097 478.551 365.209 478.907 365.433C479.271 365.658 479.542 365.999 479.72 366.457C479.906 366.914 480 367.484 480 368.167V372.582H478.542V368.251C478.542 367.83 478.486 367.489 478.374 367.227C478.271 366.956 478.112 366.756 477.897 366.625C477.682 366.494 477.407 366.428 477.07 366.428C476.809 366.428 476.561 366.475 476.327 366.569C476.103 366.653 475.907 366.774 475.739 366.933C475.57 367.092 475.44 367.279 475.346 367.494C475.253 367.699 475.206 367.928 475.206 368.181V372.582H473.748V368.223C473.748 367.84 473.692 367.517 473.58 367.255C473.468 366.984 473.304 366.779 473.089 366.639C472.875 366.499 472.613 366.428 472.304 366.428C472.043 366.428 471.8 366.475 471.576 366.569C471.351 366.653 471.155 366.774 470.987 366.933C470.819 367.083 470.688 367.265 470.594 367.48C470.501 367.685 470.454 367.91 470.454 368.153V372.582H468.996ZM485.241 372.722C484.521 372.722 483.877 372.559 483.307 372.232C482.746 371.895 482.302 371.442 481.975 370.872C481.648 370.293 481.484 369.634 481.484 368.896C481.484 368.157 481.648 367.503 481.975 366.933C482.302 366.354 482.746 365.9 483.307 365.573C483.877 365.237 484.521 365.069 485.241 365.069C485.951 365.069 486.587 365.237 487.147 365.573C487.717 365.9 488.166 366.354 488.493 366.933C488.82 367.503 488.984 368.157 488.984 368.896C488.984 369.634 488.82 370.293 488.493 370.872C488.166 371.442 487.717 371.895 487.147 372.232C486.587 372.559 485.951 372.722 485.241 372.722ZM485.241 371.405C485.68 371.405 486.073 371.297 486.418 371.082C486.764 370.858 487.035 370.559 487.231 370.185C487.428 369.802 487.521 369.372 487.512 368.896C487.521 368.41 487.428 367.98 487.231 367.606C487.035 367.223 486.764 366.924 486.418 366.709C486.073 366.494 485.68 366.386 485.241 366.386C484.802 366.386 484.405 366.499 484.049 366.723C483.704 366.938 483.433 367.237 483.236 367.62C483.04 367.994 482.947 368.419 482.956 368.896C482.947 369.372 483.04 369.802 483.236 370.185C483.433 370.559 483.704 370.858 484.049 371.082C484.405 371.297 484.802 371.405 485.241 371.405ZM490.557 372.582V365.223H492.001V366.737L491.748 366.905C491.842 366.578 492.024 366.279 492.295 366.008C492.566 365.728 492.888 365.503 493.262 365.335C493.636 365.158 494.019 365.069 494.411 365.069C494.972 365.069 495.439 365.181 495.813 365.405C496.187 365.62 496.467 365.952 496.654 366.4C496.841 366.849 496.935 367.414 496.935 368.097V372.582H495.491V368.195C495.491 367.774 495.435 367.428 495.323 367.157C495.21 366.877 495.038 366.676 494.804 366.555C494.57 366.424 494.281 366.368 493.935 366.386C493.655 366.386 493.398 366.433 493.164 366.527C492.93 366.611 492.725 366.732 492.547 366.891C492.379 367.05 492.243 367.237 492.141 367.452C492.047 367.657 492.001 367.882 492.001 368.125V372.582H491.286C491.164 372.582 491.043 372.582 490.921 372.582C490.8 372.582 490.678 372.582 490.557 372.582ZM498.627 374.825V373.731H506.813V374.825H498.627ZM508.865 372.582L508.403 371.433L511.403 368.054C511.561 367.886 511.725 367.695 511.893 367.48C512.071 367.255 512.239 367.027 512.398 366.793C512.557 366.559 512.683 366.33 512.776 366.106C512.879 365.872 512.93 365.653 512.93 365.447C512.93 365.148 512.87 364.896 512.748 364.69C512.636 364.475 512.468 364.312 512.244 364.2C512.029 364.088 511.767 364.032 511.459 364.032C511.188 364.032 510.921 364.111 510.66 364.27C510.398 364.429 510.16 364.653 509.945 364.943C509.73 365.232 509.562 365.569 509.44 365.952L508.277 365.223C508.436 364.681 508.674 364.218 508.992 363.835C509.319 363.443 509.706 363.144 510.155 362.938C510.613 362.733 511.108 362.63 511.641 362.63C512.192 362.63 512.683 362.747 513.113 362.98C513.543 363.205 513.879 363.522 514.122 363.933C514.365 364.335 514.486 364.802 514.486 365.335C514.486 365.55 514.463 365.77 514.416 365.994C514.37 366.218 514.295 366.452 514.192 366.695C514.089 366.928 513.958 367.176 513.799 367.438C513.641 367.69 513.449 367.956 513.225 368.237C513.01 368.517 512.762 368.811 512.482 369.12L510.253 371.545L509.973 371.124H514.795V372.582H508.865ZM519.901 372.582V364.676L520.252 364.76L517.028 368.699L516.972 368.531H523.069V369.919H516.033L515.388 368.657L520.196 362.77H521.359V372.582H519.901ZM527.262 372.68C526.617 372.68 526.033 372.535 525.51 372.246C524.987 371.947 524.552 371.521 524.206 370.97L525.047 370.031C525.487 370.517 525.87 370.849 526.197 371.026C526.524 371.204 526.879 371.292 527.262 371.292C527.645 371.292 527.991 371.208 528.299 371.04C528.608 370.872 528.851 370.643 529.028 370.353C529.215 370.064 529.309 369.741 529.309 369.386C529.309 369.012 529.22 368.681 529.042 368.391C528.874 368.092 528.645 367.858 528.355 367.69C528.066 367.512 527.739 367.424 527.374 367.424C527.197 367.424 527.029 367.438 526.87 367.466C526.711 367.484 526.519 367.536 526.295 367.62C526.071 367.704 525.776 367.835 525.412 368.012L524.613 366.933L525.188 362.77H530.486V364.172H526.141L526.435 363.905L525.973 367.017L525.622 366.611C525.716 366.517 525.874 366.428 526.099 366.344C526.323 366.251 526.571 366.176 526.842 366.12C527.122 366.055 527.388 366.022 527.641 366.022C528.239 366.022 528.771 366.162 529.239 366.442C529.715 366.713 530.089 367.092 530.36 367.578C530.64 368.064 530.78 368.62 530.78 369.246C530.78 369.891 530.626 370.475 530.318 370.998C530.01 371.512 529.589 371.923 529.056 372.232C528.524 372.531 527.926 372.68 527.262 372.68ZM535.678 372.624C535.07 372.624 534.514 372.498 534.009 372.246C533.514 371.984 533.117 371.638 532.818 371.208C532.519 370.778 532.369 370.302 532.369 369.779C532.369 369.489 532.407 369.218 532.482 368.966C532.566 368.704 532.687 368.466 532.846 368.251C533.014 368.036 533.215 367.84 533.449 367.662C533.682 367.484 533.953 367.326 534.262 367.185L534.178 367.48C533.935 367.386 533.715 367.274 533.519 367.143C533.332 367.003 533.168 366.844 533.028 366.667C532.888 366.489 532.781 366.298 532.706 366.092C532.64 365.886 532.608 365.672 532.608 365.447C532.608 364.952 532.743 364.503 533.014 364.102C533.295 363.7 533.664 363.377 534.122 363.134C534.589 362.891 535.107 362.77 535.678 362.77C536.248 362.77 536.762 362.891 537.219 363.134C537.687 363.377 538.056 363.7 538.327 364.102C538.607 364.503 538.747 364.952 538.747 365.447C538.747 365.672 538.71 365.886 538.635 366.092C538.57 366.298 538.472 366.485 538.341 366.653C538.21 366.821 538.042 366.975 537.836 367.115C537.64 367.255 537.416 367.377 537.163 367.48L537.121 367.241C537.402 367.354 537.654 367.498 537.878 367.676C538.112 367.854 538.313 368.054 538.481 368.279C538.649 368.503 538.775 368.741 538.859 368.994C538.953 369.246 539 369.508 539 369.779C539 370.311 538.85 370.792 538.551 371.222C538.252 371.652 537.85 371.993 537.346 372.246C536.85 372.498 536.294 372.624 535.678 372.624ZM535.678 371.222C536.023 371.222 536.332 371.157 536.603 371.026C536.883 370.895 537.103 370.718 537.261 370.493C537.42 370.269 537.5 370.012 537.5 369.723C537.5 369.414 537.42 369.143 537.261 368.91C537.103 368.667 536.883 368.475 536.603 368.335C536.332 368.195 536.023 368.125 535.678 368.125C535.332 368.125 535.023 368.195 534.752 368.335C534.481 368.475 534.266 368.667 534.108 368.91C533.949 369.143 533.869 369.414 533.869 369.723C533.869 370.003 533.949 370.255 534.108 370.479C534.266 370.704 534.481 370.886 534.752 371.026C535.023 371.157 535.332 371.222 535.678 371.222ZM535.678 366.779C535.977 366.779 536.243 366.723 536.476 366.611C536.719 366.499 536.906 366.349 537.037 366.162C537.177 365.966 537.247 365.742 537.247 365.489C537.247 365.237 537.177 365.013 537.037 364.816C536.906 364.62 536.719 364.466 536.476 364.354C536.243 364.232 535.977 364.172 535.678 364.172C535.378 364.172 535.107 364.232 534.865 364.354C534.631 364.466 534.444 364.62 534.304 364.816C534.173 365.013 534.108 365.237 534.108 365.489C534.108 365.742 534.173 365.966 534.304 366.162C534.444 366.349 534.631 366.499 534.865 366.611C535.107 366.723 535.378 366.779 535.678 366.779Z" fill="white"/>
<path d="M582.113 193.542H577.672C576.21 193.542 575.025 194.727 575.025 196.188V200.63C575.025 202.091 576.21 203.276 577.672 203.276H582.113C583.575 203.276 584.76 202.091 584.76 200.63V196.188C584.76 194.727 583.575 193.542 582.113 193.542Z" fill="#2D3642"/>
<path d="M230.982 212.995H226.54C225.079 212.995 223.894 214.18 223.894 215.641V220.083C223.894 221.545 225.079 222.73 226.54 222.73H230.982C232.443 222.73 233.629 221.545 233.629 220.083V215.641C233.629 214.18 232.443 212.995 230.982 212.995Z" fill="#2D3642"/>
<path d="M765.776 477.165H761.335C759.873 477.165 758.688 478.35 758.688 479.811V484.253C758.688 485.714 759.873 486.9 761.335 486.9H765.776C767.238 486.9 768.423 485.714 768.423 484.253V479.811C768.423 478.35 767.238 477.165 765.776 477.165Z" fill="#2D3642"/>
<path d="M775.511 464.967H771.07C769.608 464.967 768.423 466.152 768.423 467.614V472.055C768.423 473.517 769.608 474.702 771.07 474.702H775.511C776.973 474.702 778.158 473.517 778.158 472.055V467.614C778.158 466.152 776.973 464.967 775.511 464.967Z" fill="#2D3642"/>
<path d="M697.494 150.771H681.365C680.063 150.771 679.007 151.826 679.007 153.129C679.007 154.431 680.063 155.487 681.365 155.487H697.494C698.796 155.487 699.852 154.431 699.852 153.129C699.852 151.826 698.796 150.771 697.494 150.771Z" fill="#5F38FB"/>
<path d="M135.875 355.87L135.875 371.999C135.875 373.301 136.931 374.357 138.233 374.357C139.535 374.357 140.591 373.301 140.591 371.999L140.591 355.87C140.591 354.568 139.535 353.512 138.233 353.512C136.931 353.512 135.875 354.568 135.875 355.87Z" fill="#5F38FB"/>
<path d="M835.409 259.845L835.409 275.973C835.409 277.276 836.464 278.332 837.767 278.332C839.069 278.332 840.125 277.276 840.125 275.973L840.125 259.845C840.125 258.542 839.069 257.487 837.767 257.487C836.464 257.487 835.409 258.542 835.409 259.845Z" fill="#5F38FB"/>
<path d="M365.79 504.513H349.661C348.358 504.513 347.303 505.568 347.303 506.871C347.303 508.173 348.358 509.229 349.661 509.229H365.79C367.092 509.229 368.148 508.173 368.148 506.871C368.148 505.568 367.092 504.513 365.79 504.513Z" fill="#5F38FB"/>
<defs>
<linearGradient id="paint0_linear_4782_1401" x1="650.949" y1="345.375" x2="593.742" y2="405.752" gradientUnits="userSpaceOnUse">
<stop offset="0.399916" stop-color="#8A9FB8"/>
<stop offset="0.756539" stop-color="#536375"/>
</linearGradient>
<linearGradient id="paint1_linear_4782_1401" x1="411.174" y1="218.403" x2="353.967" y2="278.78" gradientUnits="userSpaceOnUse">
<stop offset="0.399916" stop-color="#8A9FB8"/>
<stop offset="0.756539" stop-color="#536375"/>
</linearGradient>
<linearGradient id="paint2_linear_4782_1401" x1="563.018" y1="231.541" x2="432.371" y2="413.986" gradientUnits="userSpaceOnUse">
<stop stop-color="#9F88FD"/>
<stop offset="0.389322" stop-color="#7A8A9B"/>
<stop offset="0.76047" stop-color="#7A8A9B"/>
<stop offset="0.826035" stop-color="#7A8A9B"/>
<stop offset="1" stop-color="#8E7AE0"/>
</linearGradient>
<linearGradient id="paint3_linear_4782_1401" x1="530.145" y1="268.278" x2="472.938" y2="328.655" gradientUnits="userSpaceOnUse">
<stop offset="0.399916" stop-color="#8A9FB8"/>
<stop offset="0.756539" stop-color="#536375"/>
</linearGradient>
</defs>
</svg>
