<svg width="976" height="660" viewBox="0 0 976 660" fill="none" xmlns="http://www.w3.org/2000/svg">
<path d="M0 8.77606C0 4.37091 3.57108 0.799805 7.97624 0.799805H968.024C972.429 0.799805 976 4.37089 976 8.77604V651.624C976 656.029 972.429 659.6 968.024 659.6H7.97626C3.5711 659.6 0 656.029 0 651.624V8.77606Z" fill="white" fill-opacity="0.05"/>
<path d="M725.071 122.598H252.852C245.246 122.598 239.08 128.764 239.08 136.37V162.932C239.08 170.539 245.246 176.705 252.852 176.705H725.071C732.677 176.705 738.843 170.539 738.843 162.932V136.37C738.843 128.764 732.677 122.598 725.071 122.598Z" fill="#262E38"/>
<path d="M725.07 168.164H252.859C249.97 168.164 247.628 165.815 247.628 162.933V136.37C247.628 133.481 249.977 131.139 252.859 131.139H725.07C727.96 131.139 730.302 133.488 730.302 136.37V162.925C730.302 165.815 727.953 168.157 725.07 168.157V168.164ZM252.859 133.986C251.543 133.986 250.475 135.054 250.475 136.37V162.925C250.475 164.242 251.543 165.31 252.859 165.31H725.07C726.387 165.31 727.455 164.242 727.455 162.925V136.37C727.455 135.054 726.387 133.986 725.07 133.986H252.859Z" fill="#101418"/>
<path d="M418.976 153.324V143.12H420.682L426.6 151.094L426.279 151.152C426.24 150.88 426.206 150.603 426.177 150.321C426.148 150.029 426.119 149.728 426.089 149.417C426.07 149.106 426.051 148.781 426.031 148.441C426.021 148.101 426.012 147.746 426.002 147.377C425.992 146.998 425.987 146.599 425.987 146.181V143.12H427.868V153.324H426.133L420.186 145.467L420.565 145.365C420.614 145.909 420.652 146.376 420.682 146.764C420.72 147.143 420.75 147.474 420.769 147.756C420.788 148.028 420.803 148.256 420.813 148.441C420.832 148.625 420.842 148.795 420.842 148.951C420.852 149.097 420.857 149.237 420.857 149.374V153.324H418.976ZM432.953 153.469C432.399 153.469 431.918 153.348 431.51 153.105C431.102 152.852 430.791 152.498 430.577 152.041C430.363 151.575 430.256 151.021 430.256 150.379V145.642H432.049V150C432.049 150.408 432.112 150.758 432.239 151.05C432.365 151.332 432.55 151.55 432.792 151.706C433.035 151.861 433.327 151.939 433.667 151.939C433.92 151.939 434.148 151.9 434.352 151.822C434.566 151.735 434.751 151.618 434.906 151.473C435.062 151.317 435.183 151.137 435.27 150.933C435.358 150.719 435.402 150.491 435.402 150.248V145.642H437.195V153.324H435.445L435.416 151.72L435.737 151.545C435.62 151.915 435.421 152.245 435.139 152.537C434.867 152.818 434.542 153.047 434.163 153.222C433.784 153.387 433.38 153.469 432.953 153.469ZM439.267 153.324V145.642H441.031L441.06 147.187L440.768 147.304C440.856 147.051 440.987 146.818 441.162 146.604C441.337 146.38 441.546 146.191 441.788 146.036C442.031 145.87 442.289 145.744 442.561 145.657C442.833 145.559 443.11 145.511 443.392 145.511C443.81 145.511 444.179 145.579 444.5 145.715C444.83 145.841 445.102 146.045 445.316 146.327C445.54 146.609 445.705 146.968 445.812 147.406L445.535 147.347L445.651 147.114C445.758 146.881 445.909 146.672 446.103 146.487C446.297 146.293 446.516 146.123 446.759 145.977C447.002 145.822 447.255 145.705 447.517 145.627C447.789 145.55 448.056 145.511 448.319 145.511C448.902 145.511 449.388 145.627 449.776 145.861C450.165 146.094 450.457 146.449 450.651 146.925C450.845 147.401 450.943 147.989 450.943 148.688V153.324H449.135V148.805C449.135 148.416 449.082 148.096 448.975 147.843C448.878 147.59 448.722 147.406 448.508 147.289C448.304 147.163 448.047 147.1 447.736 147.1C447.493 147.1 447.26 147.143 447.036 147.231C446.822 147.309 446.638 147.425 446.482 147.581C446.327 147.726 446.205 147.896 446.118 148.091C446.03 148.285 445.987 148.499 445.987 148.732V153.324H444.179V148.79C444.179 148.421 444.126 148.115 444.019 147.872C443.912 147.619 443.756 147.43 443.552 147.304C443.348 147.168 443.1 147.1 442.809 147.1C442.566 147.1 442.338 147.143 442.124 147.231C441.91 147.309 441.725 147.42 441.57 147.566C441.414 147.712 441.293 147.882 441.205 148.076C441.118 148.271 441.074 148.484 441.074 148.718V153.324H439.267ZM457.175 153.469C456.834 153.469 456.499 153.421 456.169 153.324C455.848 153.217 455.557 153.076 455.294 152.901C455.032 152.726 454.813 152.532 454.638 152.318C454.463 152.094 454.347 151.871 454.288 151.647L454.711 151.458L454.667 153.295H452.933V142.537H454.726V147.42L454.405 147.275C454.454 147.041 454.561 146.823 454.726 146.619C454.901 146.405 455.114 146.215 455.367 146.05C455.62 145.875 455.897 145.739 456.198 145.642C456.499 145.535 456.805 145.482 457.116 145.482C457.806 145.482 458.414 145.652 458.938 145.992C459.473 146.332 459.891 146.803 460.192 147.406C460.503 148.008 460.658 148.693 460.658 149.461C460.658 150.238 460.508 150.928 460.207 151.531C459.905 152.133 459.487 152.609 458.953 152.959C458.428 153.299 457.835 153.469 457.175 153.469ZM456.796 151.895C457.204 151.895 457.568 151.793 457.889 151.589C458.21 151.375 458.462 151.089 458.647 150.729C458.831 150.36 458.924 149.937 458.924 149.461C458.924 148.995 458.831 148.582 458.647 148.222C458.472 147.862 458.224 147.581 457.903 147.377C457.583 147.172 457.213 147.07 456.796 147.07C456.378 147.07 456.008 147.172 455.688 147.377C455.367 147.581 455.114 147.862 454.93 148.222C454.745 148.582 454.653 148.995 454.653 149.461C454.653 149.937 454.745 150.36 454.93 150.729C455.114 151.089 455.367 151.375 455.688 151.589C456.008 151.793 456.378 151.895 456.796 151.895ZM465.857 153.469C465.05 153.469 464.336 153.299 463.714 152.959C463.102 152.619 462.621 152.158 462.271 151.575C461.931 150.982 461.761 150.306 461.761 149.548C461.761 148.946 461.858 148.397 462.053 147.901C462.247 147.406 462.514 146.978 462.854 146.619C463.204 146.249 463.617 145.967 464.093 145.773C464.579 145.569 465.109 145.467 465.682 145.467C466.187 145.467 466.659 145.564 467.096 145.759C467.533 145.953 467.912 146.22 468.233 146.56C468.554 146.891 468.797 147.289 468.962 147.756C469.137 148.212 469.219 148.713 469.21 149.257L469.195 149.884H462.971L462.636 148.659H467.694L467.46 148.907V148.586C467.431 148.285 467.334 148.023 467.169 147.799C467.004 147.566 466.79 147.386 466.528 147.26C466.275 147.124 465.993 147.056 465.682 147.056C465.206 147.056 464.803 147.148 464.472 147.333C464.152 147.517 463.909 147.785 463.743 148.135C463.578 148.475 463.496 148.902 463.496 149.417C463.496 149.913 463.598 150.345 463.802 150.715C464.016 151.084 464.312 151.37 464.691 151.575C465.08 151.769 465.532 151.866 466.047 151.866C466.406 151.866 466.736 151.808 467.038 151.691C467.339 151.575 467.665 151.366 468.014 151.064L468.904 152.303C468.641 152.546 468.34 152.755 468 152.93C467.669 153.095 467.32 153.227 466.95 153.324C466.581 153.421 466.217 153.469 465.857 153.469ZM470.798 153.324V145.642H472.561L472.59 148.091L472.343 147.537C472.45 147.148 472.634 146.798 472.897 146.487C473.159 146.176 473.46 145.933 473.8 145.759C474.15 145.574 474.515 145.482 474.894 145.482C475.059 145.482 475.214 145.496 475.36 145.525C475.515 145.554 475.642 145.588 475.739 145.627L475.258 147.595C475.151 147.537 475.02 147.488 474.864 147.449C474.709 147.411 474.553 147.391 474.398 147.391C474.155 147.391 473.922 147.44 473.698 147.537C473.484 147.624 473.295 147.751 473.13 147.916C472.965 148.081 472.833 148.275 472.736 148.499C472.649 148.713 472.605 148.956 472.605 149.228V153.324H470.798ZM484.73 153.469C483.963 153.469 483.278 153.299 482.675 152.959C482.073 152.609 481.596 152.133 481.247 151.531C480.897 150.928 480.722 150.243 480.722 149.476C480.722 148.708 480.897 148.023 481.247 147.42C481.596 146.818 482.073 146.346 482.675 146.006C483.278 145.657 483.963 145.482 484.73 145.482C485.488 145.482 486.169 145.657 486.771 146.006C487.374 146.346 487.845 146.818 488.185 147.42C488.535 148.023 488.71 148.708 488.71 149.476C488.71 150.243 488.535 150.928 488.185 151.531C487.845 152.133 487.374 152.609 486.771 152.959C486.169 153.299 485.488 153.469 484.73 153.469ZM484.73 151.881C485.148 151.881 485.517 151.774 485.838 151.56C486.169 151.346 486.426 151.06 486.611 150.7C486.805 150.34 486.897 149.932 486.888 149.476C486.897 149.009 486.805 148.596 486.611 148.237C486.426 147.877 486.169 147.595 485.838 147.391C485.517 147.177 485.148 147.07 484.73 147.07C484.312 147.07 483.934 147.177 483.593 147.391C483.263 147.595 483.005 147.882 482.821 148.251C482.636 148.611 482.544 149.019 482.544 149.476C482.544 149.932 482.636 150.34 482.821 150.7C483.005 151.06 483.263 151.346 483.593 151.56C483.934 151.774 484.312 151.881 484.73 151.881ZM490.728 153.324V144.957C490.728 144.49 490.83 144.077 491.035 143.718C491.239 143.349 491.52 143.062 491.88 142.858C492.24 142.644 492.657 142.537 493.134 142.537C493.464 142.537 493.77 142.595 494.052 142.712C494.334 142.819 494.572 142.97 494.766 143.164L494.212 144.52C494.086 144.413 493.95 144.33 493.804 144.272C493.668 144.213 493.537 144.184 493.411 144.184C493.216 144.184 493.051 144.218 492.915 144.286C492.789 144.345 492.691 144.437 492.623 144.563C492.565 144.69 492.536 144.84 492.536 145.015V153.324H491.632C491.457 153.324 491.292 153.324 491.137 153.324C490.991 153.324 490.855 153.324 490.728 153.324ZM489.533 147.377V145.802H494.271V147.377H489.533ZM500.036 153.324V145.642H501.8L501.829 148.091L501.581 147.537C501.688 147.148 501.872 146.798 502.135 146.487C502.397 146.176 502.698 145.933 503.039 145.759C503.388 145.574 503.753 145.482 504.132 145.482C504.297 145.482 504.453 145.496 504.598 145.525C504.754 145.554 504.88 145.588 504.977 145.627L504.496 147.595C504.389 147.537 504.258 147.488 504.103 147.449C503.947 147.411 503.792 147.391 503.636 147.391C503.393 147.391 503.16 147.44 502.937 147.537C502.723 147.624 502.533 147.751 502.368 147.916C502.203 148.081 502.072 148.275 501.975 148.499C501.887 148.713 501.843 148.956 501.843 149.228V153.324H500.036ZM509.444 153.469C508.637 153.469 507.923 153.299 507.301 152.959C506.689 152.619 506.208 152.158 505.858 151.575C505.518 150.982 505.348 150.306 505.348 149.548C505.348 148.946 505.445 148.397 505.64 147.901C505.834 147.406 506.101 146.978 506.441 146.619C506.791 146.249 507.204 145.967 507.68 145.773C508.166 145.569 508.696 145.467 509.269 145.467C509.774 145.467 510.246 145.564 510.683 145.759C511.12 145.953 511.499 146.22 511.82 146.56C512.141 146.891 512.384 147.289 512.549 147.756C512.724 148.212 512.806 148.713 512.797 149.257L512.782 149.884H506.558L506.223 148.659H511.281L511.047 148.907V148.586C511.018 148.285 510.921 148.023 510.756 147.799C510.591 147.566 510.377 147.386 510.115 147.26C509.862 147.124 509.58 147.056 509.269 147.056C508.793 147.056 508.39 147.148 508.059 147.333C507.739 147.517 507.496 147.785 507.33 148.135C507.165 148.475 507.083 148.902 507.083 149.417C507.083 149.913 507.185 150.345 507.389 150.715C507.603 151.084 507.899 151.37 508.278 151.575C508.667 151.769 509.118 151.866 509.634 151.866C509.993 151.866 510.323 151.808 510.625 151.691C510.926 151.575 511.251 151.366 511.601 151.064L512.49 152.303C512.228 152.546 511.927 152.755 511.587 152.93C511.256 153.095 510.907 153.227 510.537 153.324C510.168 153.421 509.804 153.469 509.444 153.469ZM519.822 156.531V151.487L520.186 151.531C520.176 151.764 520.089 151.997 519.924 152.23C519.768 152.454 519.559 152.663 519.297 152.857C519.044 153.042 518.757 153.193 518.437 153.309C518.126 153.416 517.8 153.469 517.46 153.469C516.78 153.469 516.168 153.299 515.624 152.959C515.089 152.609 514.666 152.133 514.355 151.531C514.044 150.928 513.889 150.243 513.889 149.476C513.889 148.698 514.04 148.013 514.341 147.42C514.652 146.818 515.07 146.346 515.594 146.006C516.129 145.657 516.736 145.482 517.416 145.482C517.786 145.482 518.14 145.54 518.481 145.657C518.821 145.773 519.127 145.929 519.399 146.123C519.671 146.317 519.885 146.536 520.04 146.779C520.205 147.022 520.293 147.27 520.303 147.522L519.836 147.566L519.865 145.627H521.614V156.531H519.822ZM517.752 151.881C518.17 151.881 518.539 151.779 518.859 151.575C519.18 151.37 519.428 151.089 519.603 150.729C519.788 150.37 519.88 149.952 519.88 149.476C519.88 148.999 519.788 148.582 519.603 148.222C519.428 147.853 519.18 147.566 518.859 147.362C518.539 147.158 518.17 147.056 517.752 147.056C517.334 147.056 516.965 147.163 516.644 147.377C516.323 147.581 516.071 147.867 515.886 148.237C515.711 148.596 515.624 149.009 515.624 149.476C515.624 149.942 515.711 150.36 515.886 150.729C516.071 151.089 516.323 151.37 516.644 151.575C516.965 151.779 517.334 151.881 517.752 151.881ZM526.376 153.469C525.822 153.469 525.341 153.348 524.933 153.105C524.525 152.852 524.214 152.498 524 152.041C523.786 151.575 523.679 151.021 523.679 150.379V145.642H525.472V150C525.472 150.408 525.535 150.758 525.662 151.05C525.788 151.332 525.973 151.55 526.215 151.706C526.458 151.861 526.75 151.939 527.09 151.939C527.343 151.939 527.571 151.9 527.775 151.822C527.989 151.735 528.174 151.618 528.329 151.473C528.485 151.317 528.606 151.137 528.693 150.933C528.781 150.719 528.825 150.491 528.825 150.248V145.642H530.618V153.324H528.868L528.839 151.72L529.16 151.545C529.043 151.915 528.844 152.245 528.562 152.537C528.29 152.818 527.965 153.047 527.586 153.222C527.207 153.387 526.803 153.469 526.376 153.469ZM536.319 153.469C535.513 153.469 534.799 153.299 534.177 152.959C533.564 152.619 533.083 152.158 532.734 151.575C532.393 150.982 532.223 150.306 532.223 149.548C532.223 148.946 532.321 148.397 532.515 147.901C532.709 147.406 532.976 146.978 533.317 146.619C533.666 146.249 534.079 145.967 534.556 145.773C535.041 145.569 535.571 145.467 536.144 145.467C536.65 145.467 537.121 145.564 537.558 145.759C537.996 145.953 538.375 146.22 538.695 146.56C539.016 146.891 539.259 147.289 539.424 147.756C539.599 148.212 539.682 148.713 539.672 149.257L539.657 149.884H533.433L533.098 148.659H538.156L537.923 148.907V148.586C537.894 148.285 537.796 148.023 537.631 147.799C537.466 147.566 537.252 147.386 536.99 147.26C536.737 147.124 536.455 147.056 536.144 147.056C535.668 147.056 535.265 147.148 534.935 147.333C534.614 147.517 534.371 147.785 534.206 148.135C534.041 148.475 533.958 148.902 533.958 149.417C533.958 149.913 534.06 150.345 534.264 150.715C534.478 151.084 534.774 151.37 535.153 151.575C535.542 151.769 535.994 151.866 536.509 151.866C536.868 151.866 537.199 151.808 537.5 151.691C537.801 151.575 538.127 151.366 538.477 151.064L539.366 152.303C539.103 152.546 538.802 152.755 538.462 152.93C538.132 153.095 537.782 153.227 537.413 153.324C537.043 153.421 536.679 153.469 536.319 153.469ZM543.825 153.469C543.145 153.469 542.533 153.358 541.989 153.134C541.454 152.901 541.017 152.571 540.677 152.143L541.843 151.137C542.134 151.468 542.46 151.706 542.82 151.852C543.179 151.997 543.558 152.07 543.956 152.07C544.122 152.07 544.267 152.051 544.394 152.012C544.53 151.973 544.646 151.915 544.744 151.837C544.841 151.759 544.914 151.672 544.962 151.575C545.021 151.468 545.05 151.351 545.05 151.225C545.05 150.991 544.962 150.807 544.787 150.671C544.69 150.603 544.535 150.53 544.321 150.452C544.117 150.374 543.85 150.297 543.519 150.219C542.994 150.083 542.557 149.927 542.207 149.753C541.857 149.568 541.585 149.364 541.391 149.14C541.226 148.956 541.099 148.747 541.012 148.514C540.934 148.28 540.895 148.028 540.895 147.756C540.895 147.415 540.968 147.109 541.114 146.837C541.27 146.555 541.478 146.312 541.741 146.108C542.003 145.904 542.309 145.749 542.659 145.642C543.009 145.535 543.373 145.482 543.752 145.482C544.141 145.482 544.515 145.53 544.875 145.627C545.244 145.725 545.584 145.865 545.895 146.05C546.216 146.225 546.488 146.439 546.711 146.691L545.72 147.785C545.536 147.61 545.332 147.454 545.108 147.318C544.894 147.182 544.676 147.075 544.452 146.998C544.229 146.91 544.02 146.866 543.825 146.866C543.641 146.866 543.475 146.886 543.33 146.925C543.184 146.954 543.062 147.002 542.965 147.07C542.868 147.138 542.79 147.226 542.732 147.333C542.683 147.43 542.659 147.547 542.659 147.683C542.669 147.799 542.698 147.911 542.747 148.018C542.805 148.115 542.883 148.198 542.98 148.266C543.087 148.334 543.247 148.411 543.461 148.499C543.675 148.586 543.952 148.669 544.292 148.747C544.768 148.873 545.166 149.014 545.487 149.169C545.808 149.325 546.06 149.505 546.245 149.709C546.43 149.884 546.561 150.088 546.639 150.321C546.716 150.554 546.755 150.812 546.755 151.094C546.755 151.55 546.624 151.958 546.362 152.318C546.109 152.678 545.759 152.959 545.312 153.163C544.875 153.367 544.379 153.469 543.825 153.469ZM549.165 153.324V143.689H550.958V153.324H549.165ZM547.649 147.304V145.642H552.635V147.304H547.649ZM556.85 153.469C556.17 153.469 555.558 153.358 555.014 153.134C554.479 152.901 554.042 152.571 553.702 152.143L554.868 151.137C555.159 151.468 555.485 151.706 555.844 151.852C556.204 151.997 556.583 152.07 556.981 152.07C557.147 152.07 557.292 152.051 557.419 152.012C557.555 151.973 557.671 151.915 557.768 151.837C557.866 151.759 557.939 151.672 557.987 151.575C558.045 151.468 558.075 151.351 558.075 151.225C558.075 150.991 557.987 150.807 557.812 150.671C557.715 150.603 557.56 150.53 557.346 150.452C557.142 150.374 556.874 150.297 556.544 150.219C556.019 150.083 555.582 149.927 555.232 149.753C554.882 149.568 554.61 149.364 554.416 149.14C554.251 148.956 554.124 148.747 554.037 148.514C553.959 148.28 553.92 148.028 553.92 147.756C553.92 147.415 553.993 147.109 554.139 146.837C554.294 146.555 554.503 146.312 554.766 146.108C555.028 145.904 555.334 145.749 555.684 145.642C556.034 145.535 556.398 145.482 556.777 145.482C557.166 145.482 557.54 145.53 557.9 145.627C558.269 145.725 558.609 145.865 558.92 146.05C559.241 146.225 559.513 146.439 559.736 146.691L558.745 147.785C558.56 147.61 558.356 147.454 558.133 147.318C557.919 147.182 557.7 147.075 557.477 146.998C557.253 146.91 557.044 146.866 556.85 146.866C556.666 146.866 556.5 146.886 556.355 146.925C556.209 146.954 556.087 147.002 555.99 147.07C555.893 147.138 555.815 147.226 555.757 147.333C555.708 147.43 555.684 147.547 555.684 147.683C555.694 147.799 555.723 147.911 555.771 148.018C555.83 148.115 555.908 148.198 556.005 148.266C556.112 148.334 556.272 148.411 556.486 148.499C556.7 148.586 556.976 148.669 557.317 148.747C557.793 148.873 558.191 149.014 558.512 149.169C558.833 149.325 559.085 149.505 559.27 149.709C559.454 149.884 559.586 150.088 559.663 150.321C559.741 150.554 559.78 150.812 559.78 151.094C559.78 151.55 559.649 151.958 559.386 152.318C559.134 152.678 558.784 152.959 558.337 153.163C557.9 153.367 557.404 153.469 556.85 153.469Z" fill="white"/>
<path d="M364.539 132.591H253.23C251.037 132.591 249.265 134.363 249.265 136.555V162.79C249.265 164.982 251.037 166.754 253.23 166.754H372.645" stroke="url(#paint0_linear_4782_1280)" stroke-width="2.84696" stroke-linecap="round" stroke-linejoin="round"/>
<path d="M613.512 132.591H724.822C727.014 132.591 728.786 134.363 728.786 136.555V162.79C728.786 164.982 727.014 166.754 724.822 166.754H605.406" stroke="url(#paint1_linear_4782_1280)" stroke-width="2.84696" stroke-linecap="round" stroke-linejoin="round"/>
<path d="M397.841 166.598H415.997" stroke="#9F88FD" stroke-width="2.84696" stroke-linecap="round" stroke-linejoin="round"/>
<path d="M539.043 166.598H641.292" stroke="#9F88FD" stroke-width="2.84696" stroke-linecap="round" stroke-linejoin="round"/>
<path d="M578.523 132.62H596.679" stroke="#9F88FD" stroke-width="2.84696" stroke-linecap="round" stroke-linejoin="round"/>
<path d="M313.051 132.62H322.083" stroke="#9F88FD" stroke-width="2.84696" stroke-linecap="round" stroke-linejoin="round"/>
<path d="M361.229 323.025V286.083C361.229 279.777 356.118 274.666 349.812 274.666H312.87C306.565 274.666 301.453 279.777 301.453 286.083V323.025C301.453 329.33 306.565 334.442 312.87 334.442H349.812C356.118 334.442 361.229 329.33 361.229 323.025Z" fill="#262E38"/>
<path d="M349.817 277.964H312.876C308.392 277.964 304.756 281.599 304.756 286.083V323.025C304.756 327.509 308.392 331.144 312.876 331.144H349.817C354.301 331.144 357.936 327.509 357.936 323.025V286.083C357.936 281.599 354.301 277.964 349.817 277.964Z" fill="#1E2022"/>
<path d="M333.902 283.411H328.339C319.131 283.411 311.66 290.876 311.66 300.09V308.341C311.66 308.566 311.666 308.792 311.677 309.017C312.034 317.917 319.356 325.02 328.339 325.02H333.902C342.884 325.02 350.207 317.917 350.564 309.017C350.575 308.792 350.58 308.566 350.58 308.341V300.09C350.58 290.876 343.11 283.411 333.896 283.411H333.902Z" fill="#536375" stroke="url(#paint2_linear_4782_1280)" stroke-width="1.2" stroke-miterlimit="10"/>
<path d="M334.238 286.275H328.235C320.727 286.275 314.64 292.362 314.64 299.87V300.816C314.64 308.324 320.727 314.41 328.235 314.41H334.238C341.746 314.41 347.832 308.324 347.832 300.816V299.87C347.832 292.362 341.746 286.275 334.238 286.275Z" fill="#101418"/>
<path d="M325.189 299.975H321.831V296.616H325.189V299.975ZM321.825 299.975H318.466V303.333H321.825V299.975ZM328.548 299.975H325.189V303.333H328.548V299.975ZM340.604 296.616H337.245V299.975H340.604V296.616ZM337.245 299.975H333.886V303.333H337.245V299.975ZM343.968 299.975H340.609V303.333H343.968V299.975Z" fill="white"/>
<path d="M516.713 323.025V286.083C516.713 279.777 511.601 274.666 505.296 274.666H468.354C462.048 274.666 456.937 279.777 456.937 286.083V323.025C456.937 329.33 462.048 334.442 468.354 334.442H505.296C511.601 334.442 516.713 329.33 516.713 323.025Z" fill="#262E38"/>
<path d="M505.301 277.964H468.36C463.875 277.964 460.24 281.599 460.24 286.083V323.025C460.24 327.509 463.875 331.144 468.36 331.144H505.301C509.785 331.144 513.42 327.509 513.42 323.025V286.083C513.42 281.599 509.785 277.964 505.301 277.964Z" fill="#1E2022"/>
<path d="M489.386 283.411H483.823C474.615 283.411 467.144 290.876 467.144 300.09V308.341C467.144 308.566 467.15 308.792 467.161 309.017C467.518 317.917 474.84 325.02 483.823 325.02H489.386C498.368 325.02 505.691 317.917 506.048 309.017C506.059 308.792 506.064 308.566 506.064 308.341V300.09C506.064 290.876 498.594 283.411 489.38 283.411H489.386Z" fill="#536375" stroke="url(#paint3_linear_4782_1280)" stroke-width="1.2" stroke-miterlimit="10"/>
<path d="M489.722 286.275H483.719C476.211 286.275 470.124 292.362 470.124 299.87V300.816C470.124 308.324 476.211 314.41 483.719 314.41H489.722C497.23 314.41 503.316 308.324 503.316 300.816V299.87C503.316 292.362 497.23 286.275 489.722 286.275Z" fill="#101418"/>
<path d="M480.673 299.975H477.314V296.616H480.673V299.975ZM477.309 299.975H473.95V303.333H477.309V299.975ZM484.032 299.975H480.673V303.333H484.032V299.975ZM496.088 296.616H492.729V299.975H496.088V296.616ZM492.729 299.975H489.37V303.333H492.729V299.975ZM499.452 299.975H496.093V303.333H499.452V299.975Z" fill="white"/>
<path d="M673.46 323.025V286.083C673.46 279.777 668.349 274.666 662.043 274.666H625.101C618.796 274.666 613.684 279.777 613.684 286.083V323.025C613.684 329.33 618.796 334.442 625.101 334.442H662.043C668.349 334.442 673.46 329.33 673.46 323.025Z" fill="#262E38"/>
<path d="M662.048 277.964H625.107C620.622 277.964 616.987 281.599 616.987 286.083V323.025C616.987 327.509 620.622 331.144 625.107 331.144H662.048C666.532 331.144 670.167 327.509 670.167 323.025V286.083C670.167 281.599 666.532 277.964 662.048 277.964Z" fill="#1E2022"/>
<path d="M646.133 283.411H640.57C631.362 283.411 623.891 290.876 623.891 300.09V308.341C623.891 308.566 623.897 308.792 623.908 309.017C624.265 317.917 631.587 325.02 640.57 325.02H646.133C655.115 325.02 662.438 317.917 662.795 309.017C662.806 308.792 662.811 308.566 662.811 308.341V300.09C662.811 290.876 655.341 283.411 646.127 283.411H646.133Z" fill="#536375" stroke="url(#paint4_linear_4782_1280)" stroke-width="1.2" stroke-miterlimit="10"/>
<path d="M646.469 286.275H640.466C632.958 286.275 626.871 292.362 626.871 299.87V300.816C626.871 308.324 632.958 314.41 640.466 314.41H646.469C653.977 314.41 660.063 308.324 660.063 300.816V299.87C660.063 292.362 653.977 286.275 646.469 286.275Z" fill="#101418"/>
<path d="M637.42 299.975H634.062V296.616H637.42V299.975ZM634.056 299.975H630.697V303.333H634.056V299.975ZM640.779 299.975H637.42V303.333H640.779V299.975ZM652.835 296.616H649.476V299.975H652.835V296.616ZM649.476 299.975H646.117V303.333H649.476V299.975ZM656.199 299.975H652.84V303.333H656.199V299.975Z" fill="white"/>
<path fill-rule="evenodd" clip-rule="evenodd" d="M318.799 176.705C318.799 178.343 320.127 179.67 321.765 179.67C323.403 179.67 324.731 178.343 324.731 176.705L318.799 176.705Z" fill="#556578"/>
<path fill-rule="evenodd" clip-rule="evenodd" d="M640.385 176.705C640.385 178.343 641.713 179.67 643.351 179.67C644.989 179.67 646.316 178.343 646.316 176.705L640.385 176.705Z" fill="#556578"/>
<path fill-rule="evenodd" clip-rule="evenodd" d="M337.692 176.705C337.692 178.343 339.02 179.67 340.658 179.67C342.296 179.67 343.624 178.343 343.624 176.705L337.692 176.705Z" fill="#556578"/>
<path fill-rule="evenodd" clip-rule="evenodd" d="M467.144 176.705C467.144 178.343 468.472 179.67 470.11 179.67C471.747 179.67 473.075 178.343 473.075 176.705L467.144 176.705Z" fill="#556578"/>
<path fill-rule="evenodd" clip-rule="evenodd" d="M506.075 274.665C506.075 273.027 504.747 271.7 503.11 271.7C501.472 271.7 500.144 273.027 500.144 274.665L506.075 274.665Z" fill="#556578"/>
<path fill-rule="evenodd" clip-rule="evenodd" d="M478.144 176.705C478.144 178.343 479.471 179.67 481.109 179.67C482.747 179.67 484.075 178.343 484.075 176.705L478.144 176.705Z" fill="#556578"/>
<path fill-rule="evenodd" clip-rule="evenodd" d="M495.076 274.665C495.076 273.027 493.748 271.7 492.11 271.7C490.472 271.7 489.144 273.027 489.144 274.665L495.076 274.665Z" fill="#556578"/>
<path fill-rule="evenodd" clip-rule="evenodd" d="M489.144 176.705C489.144 178.343 490.472 179.67 492.11 179.67C493.747 179.67 495.075 178.343 495.075 176.705L489.144 176.705Z" fill="#556578"/>
<path fill-rule="evenodd" clip-rule="evenodd" d="M484.075 274.665C484.075 273.027 482.747 271.7 481.11 271.7C479.472 271.7 478.144 273.027 478.144 274.665L484.075 274.665Z" fill="#556578"/>
<path fill-rule="evenodd" clip-rule="evenodd" d="M500.144 176.705C500.144 178.343 501.472 179.67 503.11 179.67C504.747 179.67 506.075 178.343 506.075 176.705L500.144 176.705Z" fill="#556578"/>
<path fill-rule="evenodd" clip-rule="evenodd" d="M473.075 274.665C473.075 273.027 471.747 271.7 470.11 271.7C468.472 271.7 467.144 273.027 467.144 274.665L473.075 274.665Z" fill="#556578"/>
<path fill-rule="evenodd" clip-rule="evenodd" d="M324.73 274.665C324.73 273.027 323.403 271.7 321.765 271.7C320.127 271.7 318.799 273.027 318.799 274.665L324.73 274.665Z" fill="#556578"/>
<path fill-rule="evenodd" clip-rule="evenodd" d="M343.624 274.665C343.624 273.027 342.296 271.7 340.658 271.7C339.02 271.7 337.692 273.027 337.692 274.665L343.624 274.665Z" fill="#556578"/>
<path fill-rule="evenodd" clip-rule="evenodd" d="M646.316 274.665C646.316 273.027 644.989 271.7 643.351 271.7C641.713 271.7 640.385 273.027 640.385 274.665L646.316 274.665Z" fill="#556578"/>
<path d="M321.765 178.726V273.183" stroke="#556578" stroke-width="2" stroke-linecap="round" stroke-linejoin="round" stroke-dasharray="3 6"/>
<path d="M340.658 178.726V273.183" stroke="#556578" stroke-width="2" stroke-linecap="round" stroke-linejoin="round" stroke-dasharray="3 6"/>
<path d="M470.124 178.726V273.183" stroke="#556578" stroke-width="2" stroke-linecap="round" stroke-linejoin="round" stroke-dasharray="3 6"/>
<path d="M481.11 178.726V273.183" stroke="#556578" stroke-width="2" stroke-linecap="round" stroke-linejoin="round" stroke-dasharray="3 6"/>
<path d="M492.096 178.726V273.183" stroke="#556578" stroke-width="2" stroke-linecap="round" stroke-linejoin="round" stroke-dasharray="3 6"/>
<path d="M503.081 178.726V273.183" stroke="#556578" stroke-width="2" stroke-linecap="round" stroke-linejoin="round" stroke-dasharray="3 6"/>
<path d="M643.577 178.726V273.183" stroke="#556578" stroke-width="2" stroke-linecap="round" stroke-linejoin="round" stroke-dasharray="3 6"/>
<rect x="239.08" y="409.812" width="499.76" height="98.6133" rx="10" fill="#262E38"/>
<rect x="245.195" y="414.999" width="488.946" height="52.9146" rx="10" fill="#101418"/>
<rect x="285.62" y="351.554" width="91" height="26" rx="13" fill="#3C4856"/>
<path d="M296.93 369.554L296.465 368.399L299.478 365.006C299.638 364.837 299.802 364.645 299.971 364.429C300.149 364.203 300.318 363.973 300.478 363.739C300.637 363.504 300.764 363.274 300.858 363.049C300.961 362.814 301.013 362.594 301.013 362.387C301.013 362.087 300.952 361.833 300.83 361.627C300.717 361.411 300.548 361.247 300.323 361.134C300.107 361.021 299.844 360.965 299.534 360.965C299.262 360.965 298.995 361.045 298.732 361.204C298.469 361.364 298.23 361.589 298.014 361.88C297.798 362.171 297.629 362.509 297.507 362.894L296.338 362.162C296.498 361.617 296.737 361.153 297.056 360.768C297.385 360.374 297.774 360.073 298.225 359.867C298.685 359.66 299.182 359.557 299.717 359.557C300.271 359.557 300.764 359.674 301.196 359.909C301.628 360.134 301.965 360.453 302.21 360.866C302.454 361.27 302.576 361.739 302.576 362.274C302.576 362.49 302.552 362.711 302.505 362.936C302.458 363.161 302.383 363.396 302.28 363.64C302.177 363.875 302.045 364.124 301.886 364.386C301.726 364.64 301.534 364.907 301.308 365.189C301.093 365.471 300.844 365.766 300.562 366.076L298.323 368.512L298.042 368.089H302.885V369.554H296.93ZM308.294 369.554V362.162H309.758V364.485L309.617 363.922C309.721 363.565 309.894 363.241 310.138 362.95C310.392 362.659 310.678 362.429 310.997 362.26C311.326 362.091 311.664 362.007 312.011 362.007C312.171 362.007 312.321 362.021 312.461 362.049C312.612 362.077 312.729 362.11 312.813 362.148L312.433 363.725C312.321 363.678 312.194 363.64 312.053 363.612C311.922 363.574 311.79 363.556 311.659 363.556C311.406 363.556 311.161 363.607 310.927 363.711C310.702 363.804 310.5 363.941 310.321 364.119C310.152 364.288 310.016 364.49 309.913 364.724C309.81 364.95 309.758 365.198 309.758 365.471V369.554H308.294ZM317.106 369.695C316.346 369.695 315.67 369.535 315.078 369.216C314.496 368.887 314.036 368.441 313.699 367.878C313.37 367.315 313.206 366.667 313.206 365.935C313.206 365.353 313.3 364.823 313.487 364.344C313.675 363.865 313.933 363.452 314.262 363.105C314.6 362.748 314.999 362.476 315.459 362.288C315.928 362.091 316.435 361.993 316.979 361.993C317.458 361.993 317.904 362.087 318.317 362.274C318.73 362.453 319.086 362.701 319.387 363.021C319.697 363.34 319.931 363.72 320.091 364.161C320.26 364.593 320.34 365.067 320.33 365.583L320.316 366.203H314.276L313.952 365.048H319.063L318.852 365.287V364.95C318.824 364.64 318.72 364.363 318.542 364.119C318.364 363.875 318.138 363.682 317.866 363.542C317.594 363.401 317.298 363.33 316.979 363.33C316.472 363.33 316.045 363.429 315.698 363.626C315.351 363.814 315.088 364.095 314.909 364.471C314.731 364.837 314.642 365.292 314.642 365.837C314.642 366.353 314.75 366.803 314.966 367.188C315.182 367.564 315.487 367.855 315.881 368.061C316.275 368.268 316.73 368.371 317.247 368.371C317.613 368.371 317.951 368.31 318.26 368.188C318.58 368.066 318.922 367.845 319.288 367.526L320.02 368.554C319.795 368.779 319.518 368.976 319.19 369.145C318.871 369.314 318.528 369.45 318.162 369.554C317.805 369.648 317.453 369.695 317.106 369.695ZM327.299 372.651V367.794H327.581C327.581 368.019 327.505 368.244 327.355 368.47C327.205 368.685 327.003 368.887 326.75 369.075C326.496 369.263 326.215 369.413 325.905 369.526C325.595 369.638 325.276 369.695 324.948 369.695C324.281 369.695 323.685 369.53 323.159 369.202C322.634 368.864 322.216 368.409 321.906 367.836C321.606 367.254 321.456 366.592 321.456 365.851C321.456 365.109 321.606 364.452 321.906 363.879C322.207 363.298 322.615 362.842 323.131 362.514C323.657 362.176 324.248 362.007 324.905 362.007C325.271 362.007 325.619 362.068 325.947 362.19C326.285 362.312 326.586 362.471 326.848 362.669C327.121 362.866 327.332 363.086 327.482 363.33C327.642 363.565 327.721 363.804 327.721 364.048L327.299 364.077V362.148H328.749V372.651H327.299ZM325.102 368.357C325.544 368.357 325.933 368.249 326.271 368.033C326.609 367.817 326.872 367.522 327.06 367.146C327.257 366.771 327.355 366.339 327.355 365.851C327.355 365.363 327.257 364.931 327.06 364.555C326.872 364.17 326.609 363.87 326.271 363.654C325.933 363.438 325.544 363.33 325.102 363.33C324.661 363.33 324.272 363.443 323.934 363.668C323.596 363.884 323.328 364.185 323.131 364.569C322.944 364.945 322.85 365.372 322.85 365.851C322.85 366.329 322.944 366.761 323.131 367.146C323.328 367.522 323.596 367.817 323.934 368.033C324.272 368.249 324.661 368.357 325.102 368.357ZM333.366 369.695C332.84 369.695 332.38 369.572 331.986 369.328C331.601 369.084 331.301 368.742 331.085 368.301C330.878 367.859 330.775 367.334 330.775 366.724V362.162H332.225V366.329C332.225 366.761 332.291 367.137 332.422 367.456C332.563 367.766 332.76 368.005 333.014 368.174C333.277 368.343 333.591 368.427 333.957 368.427C334.229 368.427 334.478 368.385 334.703 368.301C334.929 368.207 335.121 368.08 335.281 367.92C335.45 367.761 335.581 367.568 335.675 367.343C335.769 367.118 335.816 366.874 335.816 366.611V362.162H337.266V369.554H335.816V368.005L336.069 367.836C335.956 368.183 335.764 368.498 335.492 368.779C335.229 369.061 334.915 369.286 334.548 369.455C334.182 369.615 333.788 369.695 333.366 369.695ZM342.75 369.695C341.989 369.695 341.313 369.535 340.722 369.216C340.14 368.887 339.68 368.441 339.342 367.878C339.014 367.315 338.849 366.667 338.849 365.935C338.849 365.353 338.943 364.823 339.131 364.344C339.319 363.865 339.577 363.452 339.905 363.105C340.243 362.748 340.642 362.476 341.102 362.288C341.572 362.091 342.078 361.993 342.623 361.993C343.102 361.993 343.547 362.087 343.96 362.274C344.373 362.453 344.73 362.701 345.031 363.021C345.34 363.34 345.575 363.72 345.735 364.161C345.903 364.593 345.983 365.067 345.974 365.583L345.96 366.203H339.919L339.596 365.048H344.707L344.495 365.287V364.95C344.467 364.64 344.364 364.363 344.186 364.119C344.007 363.875 343.782 363.682 343.51 363.542C343.238 363.401 342.942 363.33 342.623 363.33C342.116 363.33 341.689 363.429 341.342 363.626C340.994 363.814 340.731 364.095 340.553 364.471C340.375 364.837 340.286 365.292 340.286 365.837C340.286 366.353 340.394 366.803 340.609 367.188C340.825 367.564 341.13 367.855 341.525 368.061C341.919 368.268 342.374 368.371 342.89 368.371C343.256 368.371 343.594 368.31 343.904 368.188C344.223 368.066 344.566 367.845 344.932 367.526L345.664 368.554C345.439 368.779 345.162 368.976 344.833 369.145C344.514 369.314 344.172 369.45 343.806 369.554C343.449 369.648 343.097 369.695 342.75 369.695ZM350.014 369.695C349.394 369.695 348.836 369.587 348.338 369.371C347.841 369.155 347.428 368.836 347.099 368.413L348.085 367.568C348.367 367.897 348.672 368.136 349 368.287C349.338 368.427 349.718 368.498 350.141 368.498C350.31 368.498 350.464 368.479 350.605 368.441C350.755 368.394 350.882 368.329 350.985 368.244C351.098 368.16 351.183 368.061 351.239 367.949C351.295 367.827 351.323 367.695 351.323 367.554C351.323 367.31 351.234 367.113 351.056 366.963C350.962 366.897 350.812 366.827 350.605 366.752C350.408 366.667 350.15 366.583 349.831 366.498C349.286 366.358 348.841 366.198 348.493 366.02C348.146 365.841 347.878 365.639 347.691 365.414C347.55 365.236 347.447 365.043 347.381 364.837C347.315 364.621 347.282 364.386 347.282 364.133C347.282 363.823 347.348 363.542 347.48 363.288C347.62 363.025 347.808 362.8 348.043 362.612C348.287 362.415 348.568 362.265 348.888 362.162C349.216 362.058 349.563 362.007 349.929 362.007C350.277 362.007 350.619 362.054 350.957 362.148C351.305 362.242 351.624 362.378 351.915 362.556C352.206 362.734 352.45 362.946 352.647 363.19L351.816 364.105C351.638 363.926 351.441 363.772 351.225 363.64C351.018 363.499 350.807 363.391 350.591 363.316C350.375 363.241 350.178 363.204 350 363.204C349.803 363.204 349.624 363.222 349.465 363.26C349.305 363.298 349.169 363.354 349.057 363.429C348.953 363.504 348.873 363.598 348.817 363.711C348.761 363.823 348.733 363.95 348.733 364.091C348.742 364.213 348.77 364.33 348.817 364.443C348.873 364.546 348.949 364.635 349.042 364.71C349.146 364.785 349.301 364.865 349.507 364.95C349.714 365.034 349.976 365.114 350.296 365.189C350.765 365.311 351.15 365.447 351.45 365.597C351.76 365.738 352.004 365.902 352.182 366.09C352.37 366.268 352.501 366.475 352.576 366.71C352.652 366.944 352.689 367.207 352.689 367.498C352.689 367.92 352.567 368.301 352.323 368.639C352.088 368.967 351.769 369.225 351.366 369.413C350.962 369.601 350.511 369.695 350.014 369.695ZM355.203 369.554V360.275H356.653V369.554H355.203ZM353.668 363.57V362.162H358.371V363.57H353.668ZM362.43 369.695C361.811 369.695 361.252 369.587 360.755 369.371C360.257 369.155 359.844 368.836 359.516 368.413L360.501 367.568C360.783 367.897 361.088 368.136 361.416 368.287C361.754 368.427 362.134 368.498 362.557 368.498C362.726 368.498 362.881 368.479 363.022 368.441C363.172 368.394 363.298 368.329 363.402 368.244C363.514 368.16 363.599 368.061 363.655 367.949C363.711 367.827 363.74 367.695 363.74 367.554C363.74 367.31 363.65 367.113 363.472 366.963C363.378 366.897 363.228 366.827 363.022 366.752C362.824 366.667 362.566 366.583 362.247 366.498C361.703 366.358 361.257 366.198 360.91 366.02C360.562 365.841 360.295 365.639 360.107 365.414C359.966 365.236 359.863 365.043 359.797 364.837C359.731 364.621 359.699 364.386 359.699 364.133C359.699 363.823 359.764 363.542 359.896 363.288C360.037 363.025 360.224 362.8 360.459 362.612C360.703 362.415 360.985 362.265 361.304 362.162C361.632 362.058 361.98 362.007 362.346 362.007C362.693 362.007 363.036 362.054 363.374 362.148C363.721 362.242 364.04 362.378 364.331 362.556C364.622 362.734 364.866 362.946 365.063 363.19L364.232 364.105C364.054 363.926 363.857 363.772 363.641 363.64C363.435 363.499 363.223 363.391 363.007 363.316C362.792 363.241 362.594 363.204 362.416 363.204C362.219 363.204 362.041 363.222 361.881 363.26C361.721 363.298 361.585 363.354 361.473 363.429C361.369 363.504 361.29 363.598 361.233 363.711C361.177 363.823 361.149 363.95 361.149 364.091C361.158 364.213 361.186 364.33 361.233 364.443C361.29 364.546 361.365 364.635 361.459 364.71C361.562 364.785 361.717 364.865 361.923 364.95C362.13 365.034 362.393 365.114 362.712 365.189C363.181 365.311 363.566 365.447 363.866 365.597C364.176 365.738 364.42 365.902 364.598 366.09C364.786 366.268 364.918 366.475 364.993 366.71C365.068 366.944 365.105 367.207 365.105 367.498C365.105 367.92 364.983 368.301 364.739 368.639C364.505 368.967 364.185 369.225 363.782 369.413C363.378 369.601 362.928 369.695 362.43 369.695Z" fill="white"/>
<rect x="440.604" y="351.554" width="92" height="26" rx="13" fill="#3C4856"/>
<path d="M455.56 369.554V361.613L455.912 361.697L452.674 365.654L452.617 365.485H458.742V366.879H451.674L451.026 365.611L455.856 359.698H457.024V369.554H455.56ZM464.295 369.554V362.162H465.76V364.485L465.619 363.922C465.722 363.565 465.896 363.241 466.14 362.95C466.393 362.659 466.679 362.429 466.999 362.26C467.327 362.091 467.665 362.007 468.012 362.007C468.172 362.007 468.322 362.021 468.463 362.049C468.613 362.077 468.73 362.11 468.815 362.148L468.435 363.725C468.322 363.678 468.195 363.64 468.055 363.612C467.923 363.574 467.792 363.556 467.66 363.556C467.407 363.556 467.163 363.607 466.928 363.711C466.703 363.804 466.501 363.941 466.323 364.119C466.154 364.288 466.018 364.49 465.914 364.724C465.811 364.95 465.76 365.198 465.76 365.471V369.554H464.295ZM473.107 369.695C472.347 369.695 471.671 369.535 471.08 369.216C470.498 368.887 470.038 368.441 469.7 367.878C469.371 367.315 469.207 366.667 469.207 365.935C469.207 365.353 469.301 364.823 469.489 364.344C469.676 363.865 469.935 363.452 470.263 363.105C470.601 362.748 471 362.476 471.46 362.288C471.929 362.091 472.436 361.993 472.981 361.993C473.459 361.993 473.905 362.087 474.318 362.274C474.731 362.453 475.088 362.701 475.388 363.021C475.698 363.34 475.933 363.72 476.092 364.161C476.261 364.593 476.341 365.067 476.332 365.583L476.318 366.203H470.277L469.953 365.048H475.064L474.853 365.287V364.95C474.825 364.64 474.722 364.363 474.543 364.119C474.365 363.875 474.14 363.682 473.868 363.542C473.595 363.401 473.3 363.33 472.981 363.33C472.474 363.33 472.047 363.429 471.699 363.626C471.352 363.814 471.089 364.095 470.911 364.471C470.732 364.837 470.643 365.292 470.643 365.837C470.643 366.353 470.751 366.803 470.967 367.188C471.183 367.564 471.488 367.855 471.882 368.061C472.277 368.268 472.732 368.371 473.248 368.371C473.614 368.371 473.952 368.31 474.262 368.188C474.581 368.066 474.924 367.845 475.29 367.526L476.022 368.554C475.797 368.779 475.52 368.976 475.191 369.145C474.872 369.314 474.529 369.45 474.163 369.554C473.807 369.648 473.455 369.695 473.107 369.695ZM483.3 372.651V367.794H483.582C483.582 368.019 483.507 368.244 483.357 368.47C483.206 368.685 483.005 368.887 482.751 369.075C482.498 369.263 482.216 369.413 481.906 369.526C481.597 369.638 481.277 369.695 480.949 369.695C480.282 369.695 479.686 369.53 479.161 369.202C478.635 368.864 478.217 368.409 477.908 367.836C477.607 367.254 477.457 366.592 477.457 365.851C477.457 365.109 477.607 364.452 477.908 363.879C478.208 363.298 478.616 362.842 479.133 362.514C479.658 362.176 480.25 362.007 480.907 362.007C481.273 362.007 481.62 362.068 481.949 362.19C482.287 362.312 482.587 362.471 482.85 362.669C483.122 362.866 483.333 363.086 483.483 363.33C483.643 363.565 483.723 363.804 483.723 364.048L483.3 364.077V362.148H484.751V372.651H483.3ZM481.104 368.357C481.545 368.357 481.935 368.249 482.272 368.033C482.61 367.817 482.873 367.522 483.061 367.146C483.258 366.771 483.357 366.339 483.357 365.851C483.357 365.363 483.258 364.931 483.061 364.555C482.873 364.17 482.61 363.87 482.272 363.654C481.935 363.438 481.545 363.33 481.104 363.33C480.663 363.33 480.273 363.443 479.935 363.668C479.597 363.884 479.33 364.185 479.133 364.569C478.945 364.945 478.851 365.372 478.851 365.851C478.851 366.329 478.945 366.761 479.133 367.146C479.33 367.522 479.597 367.817 479.935 368.033C480.273 368.249 480.663 368.357 481.104 368.357ZM489.367 369.695C488.841 369.695 488.382 369.572 487.987 369.328C487.602 369.084 487.302 368.742 487.086 368.301C486.88 367.859 486.776 367.334 486.776 366.724V362.162H488.227V366.329C488.227 366.761 488.292 367.137 488.424 367.456C488.565 367.766 488.762 368.005 489.015 368.174C489.278 368.343 489.592 368.427 489.958 368.427C490.231 368.427 490.479 368.385 490.705 368.301C490.93 368.207 491.122 368.08 491.282 367.92C491.451 367.761 491.582 367.568 491.676 367.343C491.77 367.118 491.817 366.874 491.817 366.611V362.162H493.267V369.554H491.817V368.005L492.07 367.836C491.958 368.183 491.765 368.498 491.493 368.779C491.23 369.061 490.916 369.286 490.55 369.455C490.184 369.615 489.79 369.695 489.367 369.695ZM498.751 369.695C497.991 369.695 497.315 369.535 496.723 369.216C496.141 368.887 495.682 368.441 495.344 367.878C495.015 367.315 494.851 366.667 494.851 365.935C494.851 365.353 494.945 364.823 495.132 364.344C495.32 363.865 495.578 363.452 495.907 363.105C496.245 362.748 496.644 362.476 497.104 362.288C497.573 362.091 498.08 361.993 498.624 361.993C499.103 361.993 499.549 362.087 499.962 362.274C500.375 362.453 500.732 362.701 501.032 363.021C501.342 363.34 501.576 363.72 501.736 364.161C501.905 364.593 501.985 365.067 501.975 365.583L501.961 366.203H495.921L495.597 365.048H500.708L500.497 365.287V364.95C500.469 364.64 500.365 364.363 500.187 364.119C500.009 363.875 499.783 363.682 499.511 363.542C499.239 363.401 498.943 363.33 498.624 363.33C498.117 363.33 497.69 363.429 497.343 363.626C496.996 363.814 496.733 364.095 496.554 364.471C496.376 364.837 496.287 365.292 496.287 365.837C496.287 366.353 496.395 366.803 496.611 367.188C496.827 367.564 497.132 367.855 497.526 368.061C497.92 368.268 498.375 368.371 498.892 368.371C499.258 368.371 499.596 368.31 499.906 368.188C500.225 368.066 500.567 367.845 500.933 367.526L501.665 368.554C501.44 368.779 501.163 368.976 500.835 369.145C500.516 369.314 500.173 369.45 499.807 369.554C499.45 369.648 499.098 369.695 498.751 369.695ZM506.015 369.695C505.396 369.695 504.837 369.587 504.34 369.371C503.842 369.155 503.429 368.836 503.101 368.413L504.086 367.568C504.368 367.897 504.673 368.136 505.002 368.287C505.339 368.427 505.72 368.498 506.142 368.498C506.311 368.498 506.466 368.479 506.607 368.441C506.757 368.394 506.884 368.329 506.987 368.244C507.099 368.16 507.184 368.061 507.24 367.949C507.297 367.827 507.325 367.695 507.325 367.554C507.325 367.31 507.236 367.113 507.057 366.963C506.963 366.897 506.813 366.827 506.607 366.752C506.41 366.667 506.151 366.583 505.832 366.498C505.288 366.358 504.842 366.198 504.495 366.02C504.147 365.841 503.88 365.639 503.692 365.414C503.551 365.236 503.448 365.043 503.382 364.837C503.317 364.621 503.284 364.386 503.284 364.133C503.284 363.823 503.35 363.542 503.481 363.288C503.622 363.025 503.809 362.8 504.044 362.612C504.288 362.415 504.57 362.265 504.889 362.162C505.217 362.058 505.565 362.007 505.931 362.007C506.278 362.007 506.621 362.054 506.959 362.148C507.306 362.242 507.625 362.378 507.916 362.556C508.207 362.734 508.451 362.946 508.648 363.19L507.818 364.105C507.639 363.926 507.442 363.772 507.226 363.64C507.02 363.499 506.808 363.391 506.593 363.316C506.377 363.241 506.18 363.204 506.001 363.204C505.804 363.204 505.626 363.222 505.466 363.26C505.307 363.298 505.171 363.354 505.058 363.429C504.955 363.504 504.875 363.598 504.819 363.711C504.762 363.823 504.734 363.95 504.734 364.091C504.743 364.213 504.772 364.33 504.819 364.443C504.875 364.546 504.95 364.635 505.044 364.71C505.147 364.785 505.302 364.865 505.508 364.95C505.715 365.034 505.978 365.114 506.297 365.189C506.766 365.311 507.151 365.447 507.451 365.597C507.761 365.738 508.005 365.902 508.184 366.09C508.371 366.268 508.503 366.475 508.578 366.71C508.653 366.944 508.691 367.207 508.691 367.498C508.691 367.92 508.568 368.301 508.324 368.639C508.09 368.967 507.771 369.225 507.367 369.413C506.963 369.601 506.513 369.695 506.015 369.695ZM511.204 369.554V360.275H512.654V369.554H511.204ZM509.669 363.57V362.162H514.372V363.57H509.669ZM518.432 369.695C517.812 369.695 517.254 369.587 516.756 369.371C516.259 369.155 515.846 368.836 515.517 368.413L516.503 367.568C516.784 367.897 517.089 368.136 517.418 368.287C517.756 368.427 518.136 368.498 518.558 368.498C518.727 368.498 518.882 368.479 519.023 368.441C519.173 368.394 519.3 368.329 519.403 368.244C519.516 368.16 519.6 368.061 519.656 367.949C519.713 367.827 519.741 367.695 519.741 367.554C519.741 367.31 519.652 367.113 519.473 366.963C519.38 366.897 519.229 366.827 519.023 366.752C518.826 366.667 518.568 366.583 518.248 366.498C517.704 366.358 517.258 366.198 516.911 366.02C516.564 365.841 516.296 365.639 516.108 365.414C515.968 365.236 515.864 365.043 515.799 364.837C515.733 364.621 515.7 364.386 515.7 364.133C515.7 363.823 515.766 363.542 515.897 363.288C516.038 363.025 516.226 362.8 516.46 362.612C516.704 362.415 516.986 362.265 517.305 362.162C517.634 362.058 517.981 362.007 518.347 362.007C518.694 362.007 519.037 362.054 519.375 362.148C519.722 362.242 520.041 362.378 520.332 362.556C520.623 362.734 520.867 362.946 521.064 363.19L520.234 364.105C520.055 363.926 519.858 363.772 519.642 363.64C519.436 363.499 519.225 363.391 519.009 363.316C518.793 363.241 518.596 363.204 518.417 363.204C518.22 363.204 518.042 363.222 517.882 363.26C517.723 363.298 517.587 363.354 517.474 363.429C517.371 363.504 517.291 363.598 517.235 363.711C517.178 363.823 517.15 363.95 517.15 364.091C517.16 364.213 517.188 364.33 517.235 364.443C517.291 364.546 517.366 364.635 517.46 364.71C517.563 364.785 517.718 364.865 517.925 364.95C518.131 365.034 518.394 365.114 518.713 365.189C519.182 365.311 519.567 365.447 519.868 365.597C520.177 365.738 520.421 365.902 520.6 366.09C520.788 366.268 520.919 366.475 520.994 366.71C521.069 366.944 521.107 367.207 521.107 367.498C521.107 367.92 520.985 368.301 520.741 368.639C520.506 368.967 520.187 369.225 519.783 369.413C519.38 369.601 518.929 369.695 518.432 369.695Z" fill="white"/>
<rect x="602.077" y="351.554" width="83" height="26" rx="13" fill="#3C4856"/>
<path d="M615.132 368.864V360.866L615.653 361.261L613.71 362.288L613.302 360.965L615.935 359.557H616.667V368.864H615.132ZM613.57 369.554V368.089H618.272V369.554H613.57ZM624.077 369.554V362.162H625.541V364.485L625.401 363.922C625.504 363.565 625.678 363.241 625.922 362.95C626.175 362.659 626.461 362.429 626.78 362.26C627.109 362.091 627.447 362.007 627.794 362.007C627.954 362.007 628.104 362.021 628.245 362.049C628.395 362.077 628.512 362.11 628.597 362.148L628.217 363.725C628.104 363.678 627.977 363.64 627.836 363.612C627.705 363.574 627.574 363.556 627.442 363.556C627.189 363.556 626.945 363.607 626.71 363.711C626.485 363.804 626.283 363.941 626.105 364.119C625.936 364.288 625.8 364.49 625.696 364.724C625.593 364.95 625.541 365.198 625.541 365.471V369.554H624.077ZM632.889 369.695C632.129 369.695 631.453 369.535 630.862 369.216C630.28 368.887 629.82 368.441 629.482 367.878C629.153 367.315 628.989 366.667 628.989 365.935C628.989 365.353 629.083 364.823 629.271 364.344C629.458 363.865 629.717 363.452 630.045 363.105C630.383 362.748 630.782 362.476 631.242 362.288C631.711 362.091 632.218 361.993 632.762 361.993C633.241 361.993 633.687 362.087 634.1 362.274C634.513 362.453 634.87 362.701 635.17 363.021C635.48 363.34 635.715 363.72 635.874 364.161C636.043 364.593 636.123 365.067 636.113 365.583L636.099 366.203H630.059L629.735 365.048H634.846L634.635 365.287V364.95C634.607 364.64 634.504 364.363 634.325 364.119C634.147 363.875 633.922 363.682 633.65 363.542C633.377 363.401 633.082 363.33 632.762 363.33C632.256 363.33 631.828 363.429 631.481 363.626C631.134 363.814 630.871 364.095 630.693 364.471C630.514 364.837 630.425 365.292 630.425 365.837C630.425 366.353 630.533 366.803 630.749 367.188C630.965 367.564 631.27 367.855 631.664 368.061C632.058 368.268 632.514 368.371 633.03 368.371C633.396 368.371 633.734 368.31 634.044 368.188C634.363 368.066 634.706 367.845 635.072 367.526L635.804 368.554C635.578 368.779 635.302 368.976 634.973 369.145C634.654 369.314 634.311 369.45 633.945 369.554C633.588 369.648 633.236 369.695 632.889 369.695ZM643.082 372.651V367.794H643.364C643.364 368.019 643.289 368.244 643.139 368.47C642.988 368.685 642.787 368.887 642.533 369.075C642.28 369.263 641.998 369.413 641.688 369.526C641.379 369.638 641.059 369.695 640.731 369.695C640.064 369.695 639.468 369.53 638.943 369.202C638.417 368.864 637.999 368.409 637.69 367.836C637.389 367.254 637.239 366.592 637.239 365.851C637.239 365.109 637.389 364.452 637.69 363.879C637.99 363.298 638.398 362.842 638.915 362.514C639.44 362.176 640.032 362.007 640.689 362.007C641.055 362.007 641.402 362.068 641.731 362.19C642.068 362.312 642.369 362.471 642.632 362.669C642.904 362.866 643.115 363.086 643.265 363.33C643.425 363.565 643.505 363.804 643.505 364.048L643.082 364.077V362.148H644.532V372.651H643.082ZM640.886 368.357C641.327 368.357 641.716 368.249 642.054 368.033C642.392 367.817 642.655 367.522 642.843 367.146C643.04 366.771 643.139 366.339 643.139 365.851C643.139 365.363 643.04 364.931 642.843 364.555C642.655 364.17 642.392 363.87 642.054 363.654C641.716 363.438 641.327 363.33 640.886 363.33C640.445 363.33 640.055 363.443 639.717 363.668C639.379 363.884 639.112 364.185 638.915 364.569C638.727 364.945 638.633 365.372 638.633 365.851C638.633 366.329 638.727 366.761 638.915 367.146C639.112 367.522 639.379 367.817 639.717 368.033C640.055 368.249 640.445 368.357 640.886 368.357ZM649.149 369.695C648.623 369.695 648.163 369.572 647.769 369.328C647.384 369.084 647.084 368.742 646.868 368.301C646.662 367.859 646.558 367.334 646.558 366.724V362.162H648.009V366.329C648.009 366.761 648.074 367.137 648.206 367.456C648.346 367.766 648.544 368.005 648.797 368.174C649.06 368.343 649.374 368.427 649.74 368.427C650.013 368.427 650.261 368.385 650.487 368.301C650.712 368.207 650.904 368.08 651.064 367.92C651.233 367.761 651.364 367.568 651.458 367.343C651.552 367.118 651.599 366.874 651.599 366.611V362.162H653.049V369.554H651.599V368.005L651.852 367.836C651.74 368.183 651.547 368.498 651.275 368.779C651.012 369.061 650.698 369.286 650.332 369.455C649.966 369.615 649.571 369.695 649.149 369.695ZM658.533 369.695C657.773 369.695 657.097 369.535 656.505 369.216C655.923 368.887 655.463 368.441 655.126 367.878C654.797 367.315 654.633 366.667 654.633 365.935C654.633 365.353 654.727 364.823 654.914 364.344C655.102 363.865 655.36 363.452 655.689 363.105C656.027 362.748 656.426 362.476 656.885 362.288C657.355 362.091 657.862 361.993 658.406 361.993C658.885 361.993 659.331 362.087 659.744 362.274C660.157 362.453 660.513 362.701 660.814 363.021C661.124 363.34 661.358 363.72 661.518 364.161C661.687 364.593 661.767 365.067 661.757 365.583L661.743 366.203H655.703L655.379 365.048H660.49L660.279 365.287V364.95C660.251 364.64 660.147 364.363 659.969 364.119C659.791 363.875 659.565 363.682 659.293 363.542C659.021 363.401 658.725 363.33 658.406 363.33C657.899 363.33 657.472 363.429 657.125 363.626C656.778 363.814 656.515 364.095 656.336 364.471C656.158 364.837 656.069 365.292 656.069 365.837C656.069 366.353 656.177 366.803 656.393 367.188C656.609 367.564 656.914 367.855 657.308 368.061C657.702 368.268 658.157 368.371 658.674 368.371C659.04 368.371 659.378 368.31 659.687 368.188C660.007 368.066 660.349 367.845 660.715 367.526L661.447 368.554C661.222 368.779 660.945 368.976 660.617 369.145C660.298 369.314 659.955 369.45 659.589 369.554C659.232 369.648 658.88 369.695 658.533 369.695ZM665.797 369.695C665.178 369.695 664.619 369.587 664.122 369.371C663.624 369.155 663.211 368.836 662.883 368.413L663.868 367.568C664.15 367.897 664.455 368.136 664.783 368.287C665.121 368.427 665.502 368.498 665.924 368.498C666.093 368.498 666.248 368.479 666.389 368.441C666.539 368.394 666.665 368.329 666.769 368.244C666.881 368.16 666.966 368.061 667.022 367.949C667.078 367.827 667.107 367.695 667.107 367.554C667.107 367.31 667.017 367.113 666.839 366.963C666.745 366.897 666.595 366.827 666.389 366.752C666.191 366.667 665.933 366.583 665.614 366.498C665.07 366.358 664.624 366.198 664.277 366.02C663.929 365.841 663.662 365.639 663.474 365.414C663.333 365.236 663.23 365.043 663.164 364.837C663.099 364.621 663.066 364.386 663.066 364.133C663.066 363.823 663.131 363.542 663.263 363.288C663.404 363.025 663.591 362.8 663.826 362.612C664.07 362.415 664.352 362.265 664.671 362.162C664.999 362.058 665.347 362.007 665.713 362.007C666.06 362.007 666.403 362.054 666.741 362.148C667.088 362.242 667.407 362.378 667.698 362.556C667.989 362.734 668.233 362.946 668.43 363.19L667.599 364.105C667.421 363.926 667.224 363.772 667.008 363.64C666.802 363.499 666.59 363.391 666.374 363.316C666.159 363.241 665.961 363.204 665.783 363.204C665.586 363.204 665.408 363.222 665.248 363.26C665.089 363.298 664.952 363.354 664.84 363.429C664.737 363.504 664.657 363.598 664.6 363.711C664.544 363.823 664.516 363.95 664.516 364.091C664.525 364.213 664.553 364.33 664.6 364.443C664.657 364.546 664.732 364.635 664.826 364.71C664.929 364.785 665.084 364.865 665.29 364.95C665.497 365.034 665.76 365.114 666.079 365.189C666.548 365.311 666.933 365.447 667.233 365.597C667.543 365.738 667.787 365.902 667.966 366.09C668.153 366.268 668.285 366.475 668.36 366.71C668.435 366.944 668.472 367.207 668.472 367.498C668.472 367.92 668.35 368.301 668.106 368.639C667.872 368.967 667.553 369.225 667.149 369.413C666.745 369.601 666.295 369.695 665.797 369.695ZM670.986 369.554V360.275H672.436V369.554H670.986ZM669.451 363.57V362.162H674.154V363.57H669.451Z" fill="white"/>
<path d="M304.756 439.75V447.553C304.756 448.59 305.597 449.431 306.634 449.431C307.671 449.431 308.512 448.59 308.512 447.553V439.75C308.512 438.713 307.671 437.872 306.634 437.872C305.597 437.872 304.756 438.713 304.756 439.75Z" fill="#5F38FB"/>
<path d="M281.864 439.75V447.553C281.864 448.59 282.705 449.431 283.742 449.431C284.779 449.431 285.62 448.59 285.62 447.553V439.75C285.62 438.713 284.779 437.872 283.742 437.872C282.705 437.872 281.864 438.713 281.864 439.75Z" fill="#5F38FB"/>
<path d="M349.971 439.75V447.553C349.971 448.59 350.812 449.431 351.849 449.431C352.887 449.431 353.728 448.59 353.728 447.553V439.75C353.728 438.713 352.887 437.872 351.849 437.872C350.812 437.872 349.971 438.713 349.971 439.75Z" fill="#5F38FB"/>
<path d="M372.864 439.75V447.553C372.864 448.59 373.705 449.431 374.742 449.431C375.779 449.431 376.62 448.59 376.62 447.553V439.75C376.62 438.713 375.779 437.872 374.742 437.872C373.705 437.872 372.864 438.713 372.864 439.75Z" fill="#5F38FB"/>
<path d="M395.186 439.75V447.553C395.186 448.59 396.027 449.431 397.064 449.431C398.102 449.431 398.942 448.59 398.942 447.553V439.75C398.942 438.713 398.102 437.872 397.064 437.872C396.027 437.872 395.186 438.713 395.186 439.75Z" fill="#5F38FB"/>
<path d="M417.793 439.75V447.553C417.793 448.59 418.634 449.431 419.672 449.431C420.709 449.431 421.55 448.59 421.55 447.553V439.75C421.55 438.713 420.709 437.872 419.672 437.872C418.634 437.872 417.793 438.713 417.793 439.75Z" fill="#5F38FB"/>
<path d="M463.388 439.75V447.553C463.388 448.59 464.229 449.431 465.266 449.431C466.303 449.431 467.144 448.59 467.144 447.553V439.75C467.144 438.713 466.303 437.872 465.266 437.872C464.229 437.872 463.388 438.713 463.388 439.75Z" fill="#5F38FB"/>
<path d="M440.401 439.75V447.553C440.401 448.59 441.242 449.431 442.279 449.431C443.316 449.431 444.157 448.59 444.157 447.553V439.75C444.157 438.713 443.316 437.872 442.279 437.872C441.242 437.872 440.401 438.713 440.401 439.75Z" fill="#5F38FB"/>
<path d="M530.831 439.75V447.553C530.831 448.59 531.671 449.431 532.709 449.431C533.746 449.431 534.587 448.59 534.587 447.553V439.75C534.587 438.713 533.746 437.872 532.709 437.872C531.671 437.872 530.831 438.713 530.831 439.75Z" fill="#5F38FB"/>
<path d="M506.258 439.75V447.553C506.258 448.59 507.099 449.431 508.136 449.431C509.174 449.431 510.015 448.59 510.015 447.553V439.75C510.015 438.713 509.174 437.872 508.136 437.872C507.099 437.872 506.258 438.713 506.258 439.75Z" fill="#5F38FB"/>
<path d="M576.045 439.75V447.553C576.045 448.59 576.886 449.431 577.924 449.431C578.961 449.431 579.802 448.59 579.802 447.553V439.75C579.802 438.713 578.961 437.872 577.924 437.872C576.886 437.872 576.045 438.713 576.045 439.75Z" fill="#5F38FB"/>
<path d="M553.438 439.75V447.553C553.438 448.59 554.279 449.431 555.316 449.431C556.353 449.431 557.194 448.59 557.194 447.553V439.75C557.194 438.713 556.353 437.872 555.316 437.872C554.279 437.872 553.438 438.713 553.438 439.75Z" fill="#5F38FB"/>
<path d="M600.199 439.75V447.553C600.199 448.59 601.04 449.431 602.077 449.431C603.114 449.431 603.955 448.59 603.955 447.553V439.75C603.955 438.713 603.114 437.872 602.077 437.872C601.04 437.872 600.199 438.713 600.199 439.75Z" fill="#5F38FB"/>
<path d="M621.26 439.75V447.553C621.26 448.59 622.101 449.431 623.138 449.431C624.176 449.431 625.017 448.59 625.017 447.553V439.75C625.017 438.713 624.176 437.872 623.138 437.872C622.101 437.872 621.26 438.713 621.26 439.75Z" fill="#5F38FB"/>
<path d="M666.475 439.75V447.553C666.475 448.59 667.316 449.431 668.353 449.431C669.391 449.431 670.231 448.59 670.231 447.553V439.75C670.231 438.713 669.391 437.872 668.353 437.872C667.316 437.872 666.475 438.713 666.475 439.75Z" fill="#5F38FB"/>
<path d="M689.644 439.75V447.553C689.644 448.59 690.485 449.431 691.522 449.431C692.56 449.431 693.4 448.59 693.4 447.553V439.75C693.4 438.713 692.56 437.872 691.522 437.872C690.485 437.872 689.644 438.713 689.644 439.75Z" fill="#5F38FB"/>
<path d="M711.69 439.75V447.553C711.69 448.59 712.531 449.431 713.568 449.431C714.605 449.431 715.446 448.59 715.446 447.553V439.75C715.446 438.713 714.605 437.872 713.568 437.872C712.531 437.872 711.69 438.713 711.69 439.75Z" fill="#5F38FB"/>
<path d="M259.541 439.75V447.553C259.541 448.59 260.382 449.431 261.419 449.431C262.457 449.431 263.297 448.59 263.297 447.553V439.75C263.297 438.713 262.457 437.872 261.419 437.872C260.382 437.872 259.541 438.713 259.541 439.75Z" fill="#5F38FB"/>
<path d="M327.364 435.364V447.553C327.364 448.59 328.205 449.431 329.242 449.431C330.279 449.431 331.12 448.59 331.12 447.553V435.364C331.12 434.327 330.279 433.486 329.242 433.486C328.205 433.486 327.364 434.327 327.364 435.364Z" fill="#9F88FD"/>
<path d="M484.823 435.364V447.553C484.823 448.59 485.664 449.431 486.701 449.431C487.738 449.431 488.579 448.59 488.579 447.553V435.364C488.579 434.327 487.738 433.486 486.701 433.486C485.664 433.486 484.823 434.327 484.823 435.364Z" fill="#9F88FD"/>
<path d="M643.868 435.364V447.553C643.868 448.59 644.709 449.431 645.746 449.431C646.783 449.431 647.624 448.59 647.624 447.553V435.364C647.624 434.327 646.783 433.486 645.746 433.486C644.709 433.486 643.868 434.327 643.868 435.364Z" fill="#9F88FD"/>
<rect x="245.195" y="475.354" width="487.717" height="26.4395" rx="4" fill="#3E4C5C" stroke="#262E38" stroke-width="1.2" stroke-miterlimit="10"/>
<rect x="301.242" y="475.793" width="56" height="26" rx="4" fill="#9F88FD"/>
<rect x="301.242" y="475.793" width="56" height="26" rx="4" stroke="#BFAFFD" stroke-width="1.2" stroke-linecap="round" stroke-linejoin="round"/>
<path d="M315.508 493.934C314.757 493.934 314.109 493.728 313.565 493.315C313.03 492.902 312.617 492.32 312.326 491.569C312.035 490.809 311.889 489.907 311.889 488.865C311.889 487.824 312.035 486.927 312.326 486.176C312.617 485.416 313.03 484.829 313.565 484.416C314.109 484.003 314.757 483.797 315.508 483.797C316.259 483.797 316.907 484.003 317.451 484.416C317.995 484.829 318.413 485.416 318.704 486.176C318.995 486.927 319.141 487.824 319.141 488.865C319.141 489.907 318.995 490.809 318.704 491.569C318.413 492.32 317.995 492.902 317.451 493.315C316.907 493.728 316.259 493.934 315.508 493.934ZM315.508 492.554C316.193 492.554 316.723 492.235 317.099 491.597C317.474 490.949 317.662 490.039 317.662 488.865C317.662 487.692 317.474 486.786 317.099 486.148C316.723 485.5 316.193 485.177 315.508 485.177C314.823 485.177 314.292 485.5 313.917 486.148C313.541 486.786 313.354 487.692 313.354 488.865C313.354 490.039 313.541 490.949 313.917 491.597C314.292 492.235 314.823 492.554 315.508 492.554ZM324.06 493.934C323.309 493.934 322.662 493.728 322.117 493.315C321.582 492.902 321.169 492.32 320.878 491.569C320.587 490.809 320.442 489.907 320.442 488.865C320.442 487.824 320.587 486.927 320.878 486.176C321.169 485.416 321.582 484.829 322.117 484.416C322.662 484.003 323.309 483.797 324.06 483.797C324.811 483.797 325.459 484.003 326.003 484.416C326.548 484.829 326.966 485.416 327.257 486.176C327.548 486.927 327.693 487.824 327.693 488.865C327.693 489.907 327.548 490.809 327.257 491.569C326.966 492.32 326.548 492.902 326.003 493.315C325.459 493.728 324.811 493.934 324.06 493.934ZM324.06 492.554C324.746 492.554 325.276 492.235 325.651 491.597C326.027 490.949 326.215 490.039 326.215 488.865C326.215 487.692 326.027 486.786 325.651 486.148C325.276 485.5 324.746 485.177 324.06 485.177C323.375 485.177 322.845 485.5 322.469 486.148C322.094 486.786 321.906 487.692 321.906 488.865C321.906 490.039 322.094 490.949 322.469 491.597C322.845 492.235 323.375 492.554 324.06 492.554ZM329.952 493.934C329.642 493.934 329.403 493.845 329.234 493.667C329.065 493.479 328.98 493.216 328.98 492.878C328.98 492.569 329.069 492.315 329.248 492.118C329.426 491.921 329.661 491.822 329.952 491.822C330.262 491.822 330.501 491.916 330.67 492.104C330.839 492.282 330.923 492.54 330.923 492.878C330.923 493.188 330.834 493.441 330.656 493.639C330.477 493.836 330.243 493.934 329.952 493.934ZM329.952 488.373C329.642 488.373 329.403 488.284 329.234 488.105C329.065 487.917 328.98 487.655 328.98 487.317C328.98 487.007 329.069 486.753 329.248 486.556C329.426 486.359 329.661 486.261 329.952 486.261C330.262 486.261 330.501 486.355 330.67 486.542C330.839 486.721 330.923 486.979 330.923 487.317C330.923 487.626 330.834 487.88 330.656 488.077C330.477 488.274 330.243 488.373 329.952 488.373ZM335.817 493.934C335.066 493.934 334.418 493.728 333.874 493.315C333.339 492.902 332.926 492.32 332.635 491.569C332.344 490.809 332.198 489.907 332.198 488.865C332.198 487.824 332.344 486.927 332.635 486.176C332.926 485.416 333.339 484.829 333.874 484.416C334.418 484.003 335.066 483.797 335.817 483.797C336.568 483.797 337.215 484.003 337.76 484.416C338.304 484.829 338.722 485.416 339.013 486.176C339.304 486.927 339.449 487.824 339.449 488.865C339.449 489.907 339.304 490.809 339.013 491.569C338.722 492.32 338.304 492.902 337.76 493.315C337.215 493.728 336.568 493.934 335.817 493.934ZM335.817 492.554C336.502 492.554 337.032 492.235 337.408 491.597C337.783 490.949 337.971 490.039 337.971 488.865C337.971 487.692 337.783 486.786 337.408 486.148C337.032 485.5 336.502 485.177 335.817 485.177C335.131 485.177 334.601 485.5 334.226 486.148C333.85 486.786 333.662 487.692 333.662 488.865C333.662 490.039 333.85 490.949 334.226 491.597C334.601 492.235 335.131 492.554 335.817 492.554ZM343.158 493.104V485.106L343.679 485.5L341.736 486.528L341.328 485.205L343.961 483.797H344.693V493.104H343.158ZM341.595 493.793V492.329H346.298V493.793H341.595Z" fill="#270E8D"/>
<rect x="458.33" y="475.793" width="57" height="26" rx="4" fill="#9F88FD"/>
<rect x="458.33" y="475.793" width="57" height="26" rx="4" stroke="#BFAFFD" stroke-width="1.2" stroke-linecap="round" stroke-linejoin="round"/>
<path d="M472.596 493.934C471.845 493.934 471.198 493.728 470.653 493.315C470.118 492.902 469.705 492.32 469.414 491.569C469.123 490.809 468.978 489.907 468.978 488.865C468.978 487.824 469.123 486.927 469.414 486.176C469.705 485.416 470.118 484.829 470.653 484.416C471.198 484.003 471.845 483.797 472.596 483.797C473.347 483.797 473.995 484.003 474.539 484.416C475.084 484.829 475.501 485.416 475.792 486.176C476.083 486.927 476.229 487.824 476.229 488.865C476.229 489.907 476.083 490.809 475.792 491.569C475.501 492.32 475.084 492.902 474.539 493.315C473.995 493.728 473.347 493.934 472.596 493.934ZM472.596 492.554C473.282 492.554 473.812 492.235 474.187 491.597C474.563 490.949 474.751 490.039 474.751 488.865C474.751 487.692 474.563 486.786 474.187 486.148C473.812 485.5 473.282 485.177 472.596 485.177C471.911 485.177 471.381 485.5 471.005 486.148C470.63 486.786 470.442 487.692 470.442 488.865C470.442 490.039 470.63 490.949 471.005 491.597C471.381 492.235 471.911 492.554 472.596 492.554ZM481.149 493.934C480.398 493.934 479.75 493.728 479.206 493.315C478.671 492.902 478.258 492.32 477.967 491.569C477.676 490.809 477.53 489.907 477.53 488.865C477.53 487.824 477.676 486.927 477.967 486.176C478.258 485.416 478.671 484.829 479.206 484.416C479.75 484.003 480.398 483.797 481.149 483.797C481.9 483.797 482.547 484.003 483.092 484.416C483.636 484.829 484.054 485.416 484.345 486.176C484.636 486.927 484.781 487.824 484.781 488.865C484.781 489.907 484.636 490.809 484.345 491.569C484.054 492.32 483.636 492.902 483.092 493.315C482.547 493.728 481.9 493.934 481.149 493.934ZM481.149 492.554C481.834 492.554 482.364 492.235 482.74 491.597C483.115 490.949 483.303 490.039 483.303 488.865C483.303 487.692 483.115 486.786 482.74 486.148C482.364 485.5 481.834 485.177 481.149 485.177C480.464 485.177 479.933 485.5 479.558 486.148C479.182 486.786 478.995 487.692 478.995 488.865C478.995 490.039 479.182 490.949 479.558 491.597C479.933 492.235 480.464 492.554 481.149 492.554ZM487.04 493.934C486.73 493.934 486.491 493.845 486.322 493.667C486.153 493.479 486.069 493.216 486.069 492.878C486.069 492.569 486.158 492.315 486.336 492.118C486.514 491.921 486.749 491.822 487.04 491.822C487.35 491.822 487.589 491.916 487.758 492.104C487.927 492.282 488.012 492.54 488.012 492.878C488.012 493.188 487.922 493.441 487.744 493.639C487.566 493.836 487.331 493.934 487.04 493.934ZM487.04 488.373C486.73 488.373 486.491 488.284 486.322 488.105C486.153 487.917 486.069 487.655 486.069 487.317C486.069 487.007 486.158 486.753 486.336 486.556C486.514 486.359 486.749 486.261 487.04 486.261C487.35 486.261 487.589 486.355 487.758 486.542C487.927 486.721 488.012 486.979 488.012 487.317C488.012 487.626 487.922 487.88 487.744 488.077C487.566 488.274 487.331 488.373 487.04 488.373ZM492.173 493.934C491.478 493.934 490.873 493.775 490.357 493.456C489.85 493.136 489.371 492.601 488.92 491.85L490.103 491.104C490.338 491.451 490.568 491.738 490.793 491.963C491.028 492.179 491.267 492.339 491.511 492.442C491.755 492.545 492.013 492.597 492.285 492.597C492.614 492.597 492.919 492.517 493.201 492.357C493.482 492.188 493.708 491.958 493.876 491.667C494.045 491.376 494.13 491.048 494.13 490.682C494.13 490.316 494.064 490.006 493.933 489.753C493.801 489.49 493.609 489.293 493.356 489.161C493.102 489.02 492.802 488.95 492.454 488.95C492.295 488.95 492.126 488.969 491.948 489.006C491.779 489.034 491.596 489.081 491.398 489.147C491.201 489.203 490.985 489.278 490.751 489.372L490.328 488.26L493.37 484.909L493.665 485.345H489.469V483.937H495.116L495.397 484.501L492.173 488.077L491.821 487.711C491.896 487.673 492.018 487.641 492.187 487.612C492.365 487.575 492.511 487.556 492.623 487.556C493.036 487.556 493.421 487.636 493.778 487.795C494.144 487.946 494.458 488.161 494.721 488.443C494.994 488.715 495.205 489.039 495.355 489.415C495.514 489.781 495.594 490.175 495.594 490.597C495.594 491.236 495.439 491.808 495.13 492.315C494.829 492.813 494.421 493.207 493.905 493.498C493.388 493.789 492.811 493.934 492.173 493.934ZM500.357 493.934C499.607 493.934 498.959 493.728 498.414 493.315C497.879 492.902 497.466 492.32 497.175 491.569C496.884 490.809 496.739 489.907 496.739 488.865C496.739 487.824 496.884 486.927 497.175 486.176C497.466 485.416 497.879 484.829 498.414 484.416C498.959 484.003 499.607 483.797 500.357 483.797C501.108 483.797 501.756 484.003 502.3 484.416C502.845 484.829 503.263 485.416 503.554 486.176C503.845 486.927 503.99 487.824 503.99 488.865C503.99 489.907 503.845 490.809 503.554 491.569C503.263 492.32 502.845 492.902 502.3 493.315C501.756 493.728 501.108 493.934 500.357 493.934ZM500.357 492.554C501.043 492.554 501.573 492.235 501.948 491.597C502.324 490.949 502.512 490.039 502.512 488.865C502.512 487.692 502.324 486.786 501.948 486.148C501.573 485.5 501.043 485.177 500.357 485.177C499.672 485.177 499.142 485.5 498.766 486.148C498.391 486.786 498.203 487.692 498.203 488.865C498.203 490.039 498.391 490.949 498.766 491.597C499.142 492.235 499.672 492.554 500.357 492.554Z" fill="#270E8D"/>
<rect x="618.124" y="475.793" width="55" height="26" rx="4" fill="#9F88FD"/>
<rect x="618.124" y="475.793" width="55" height="26" rx="4" stroke="#BFAFFD" stroke-width="1.2" stroke-linecap="round" stroke-linejoin="round"/>
<path d="M632.39 493.934C631.639 493.934 630.992 493.728 630.447 493.315C629.912 492.902 629.499 492.32 629.208 491.569C628.917 490.809 628.772 489.907 628.772 488.865C628.772 487.824 628.917 486.927 629.208 486.176C629.499 485.416 629.912 484.829 630.447 484.416C630.992 484.003 631.639 483.797 632.39 483.797C633.141 483.797 633.789 484.003 634.333 484.416C634.878 484.829 635.295 485.416 635.586 486.176C635.877 486.927 636.023 487.824 636.023 488.865C636.023 489.907 635.877 490.809 635.586 491.569C635.295 492.32 634.878 492.902 634.333 493.315C633.789 493.728 633.141 493.934 632.39 493.934ZM632.39 492.554C633.075 492.554 633.606 492.235 633.981 491.597C634.357 490.949 634.544 490.039 634.544 488.865C634.544 487.692 634.357 486.786 633.981 486.148C633.606 485.5 633.075 485.177 632.39 485.177C631.705 485.177 631.175 485.5 630.799 486.148C630.424 486.786 630.236 487.692 630.236 488.865C630.236 490.039 630.424 490.949 630.799 491.597C631.175 492.235 631.705 492.554 632.39 492.554ZM639.732 493.104V485.106L640.253 485.5L638.31 486.528L637.901 485.205L640.534 483.797H641.267V493.104H639.732ZM638.169 493.793V492.329H642.872V493.793H638.169ZM645.322 493.934C645.012 493.934 644.772 493.845 644.604 493.667C644.435 493.479 644.35 493.216 644.35 492.878C644.35 492.569 644.439 492.315 644.618 492.118C644.796 491.921 645.031 491.822 645.322 491.822C645.631 491.822 645.871 491.916 646.04 492.104C646.209 492.282 646.293 492.54 646.293 492.878C646.293 493.188 646.204 493.441 646.026 493.639C645.847 493.836 645.613 493.934 645.322 493.934ZM645.322 488.373C645.012 488.373 644.772 488.284 644.604 488.105C644.435 487.917 644.35 487.655 644.35 487.317C644.35 487.007 644.439 486.753 644.618 486.556C644.796 486.359 645.031 486.261 645.322 486.261C645.631 486.261 645.871 486.355 646.04 486.542C646.209 486.721 646.293 486.979 646.293 487.317C646.293 487.626 646.204 487.88 646.026 488.077C645.847 488.274 645.613 488.373 645.322 488.373ZM649.976 493.104V485.106L650.497 485.5L648.553 486.528L648.145 485.205L650.778 483.797H651.51V493.104H649.976ZM648.413 493.793V492.329H653.115V493.793H648.413ZM658.226 493.934C657.475 493.934 656.828 493.728 656.283 493.315C655.748 492.902 655.335 492.32 655.044 491.569C654.753 490.809 654.608 489.907 654.608 488.865C654.608 487.824 654.753 486.927 655.044 486.176C655.335 485.416 655.748 484.829 656.283 484.416C656.828 484.003 657.475 483.797 658.226 483.797C658.977 483.797 659.625 484.003 660.169 484.416C660.714 484.829 661.132 485.416 661.423 486.176C661.714 486.927 661.859 487.824 661.859 488.865C661.859 489.907 661.714 490.809 661.423 491.569C661.132 492.32 660.714 492.902 660.169 493.315C659.625 493.728 658.977 493.934 658.226 493.934ZM658.226 492.554C658.912 492.554 659.442 492.235 659.817 491.597C660.193 490.949 660.381 490.039 660.381 488.865C660.381 487.692 660.193 486.786 659.817 486.148C659.442 485.5 658.912 485.177 658.226 485.177C657.541 485.177 657.011 485.5 656.635 486.148C656.26 486.786 656.072 487.692 656.072 488.865C656.072 490.039 656.26 490.949 656.635 491.597C657.011 492.235 657.541 492.554 658.226 492.554Z" fill="#270E8D"/>
<path d="M751.506 290.24H747.064C745.603 290.24 744.417 291.425 744.417 292.887V297.328C744.417 298.79 745.603 299.975 747.064 299.975H751.506C752.967 299.975 754.152 298.79 754.152 297.328V292.887C754.152 291.425 752.967 290.24 751.506 290.24Z" fill="#2D3642"/>
<path d="M204.354 231.72H199.912C198.451 231.72 197.266 232.905 197.266 234.367V238.808C197.266 240.27 198.451 241.455 199.912 241.455H204.354C205.816 241.455 207.001 240.27 207.001 238.808V234.367C207.001 232.905 205.816 231.72 204.354 231.72Z" fill="#2D3642"/>
<path d="M606.176 545.87H601.735C600.273 545.87 599.088 547.055 599.088 548.516V552.958C599.088 554.42 600.273 555.605 601.735 555.605H606.176C607.638 555.605 608.823 554.42 608.823 552.958V548.516C608.823 547.055 607.638 545.87 606.176 545.87Z" fill="#2D3642"/>
<path d="M426.759 86.9404H422.318C420.856 86.9404 419.671 88.1255 419.671 89.5873V94.0285C419.671 95.4904 420.856 96.6754 422.318 96.6754H426.759C428.221 96.6754 429.406 95.4904 429.406 94.0285V89.5873C429.406 88.1255 428.221 86.9404 426.759 86.9404Z" fill="#2D3642"/>
<path d="M187.727 396.041L187.727 379.912C187.727 378.609 186.671 377.554 185.369 377.554C184.067 377.554 183.011 378.609 183.011 379.912L183.011 396.041C183.011 397.343 184.067 398.399 185.369 398.399C186.671 398.399 187.727 397.343 187.727 396.041Z" fill="#5F38FB"/>
<path d="M790.631 218.94H774.503C773.2 218.94 772.145 219.996 772.145 221.298C772.145 222.6 773.2 223.656 774.503 223.656H790.631C791.934 223.656 792.989 222.6 792.989 221.298C792.989 219.996 791.934 218.94 790.631 218.94Z" fill="#5F38FB"/>
<path d="M457.882 568.743H441.753C440.451 568.743 439.395 569.798 439.395 571.101C439.395 572.403 440.451 573.459 441.753 573.459H457.882C459.184 573.459 460.24 572.403 460.24 571.101C460.24 569.798 459.184 568.743 457.882 568.743Z" fill="#5F38FB"/>
<defs>
<linearGradient id="paint0_linear_4782_1280" x1="359.564" y1="140.521" x2="371.074" y2="179.499" gradientUnits="userSpaceOnUse">
<stop stop-color="#9F88FD" stop-opacity="0"/>
<stop offset="0.634914" stop-color="#9F88FD"/>
</linearGradient>
<linearGradient id="paint1_linear_4782_1280" x1="629.436" y1="174.382" x2="613.072" y2="132.591" gradientUnits="userSpaceOnUse">
<stop stop-color="#9F88FD" stop-opacity="0"/>
<stop offset="0.634914" stop-color="#9F88FD"/>
</linearGradient>
<linearGradient id="paint2_linear_4782_1280" x1="353.946" y1="283.411" x2="316.072" y2="323.383" gradientUnits="userSpaceOnUse">
<stop offset="0.399916" stop-color="#8A9FB8"/>
<stop offset="0.756539" stop-color="#536375"/>
</linearGradient>
<linearGradient id="paint3_linear_4782_1280" x1="509.429" y1="283.411" x2="471.556" y2="323.383" gradientUnits="userSpaceOnUse">
<stop offset="0.399916" stop-color="#8A9FB8"/>
<stop offset="0.756539" stop-color="#536375"/>
</linearGradient>
<linearGradient id="paint4_linear_4782_1280" x1="666.177" y1="283.411" x2="628.303" y2="323.383" gradientUnits="userSpaceOnUse">
<stop offset="0.399916" stop-color="#8A9FB8"/>
<stop offset="0.756539" stop-color="#536375"/>
</linearGradient>
</defs>
</svg>
