<svg width="20" height="20" viewBox="0 0 20 20" fill="none" xmlns="http://www.w3.org/2000/svg">
<path d="M19.2988 9.23047C19.4799 9.48919 19.5705 9.79967 19.5705 10.1231C19.5705 10.55 19.4023 10.951 19.1047 11.2485C18.8072 11.5461 18.3932 11.7143 17.9793 11.7143C17.6688 11.7143 17.3583 11.6237 17.0867 11.4426C16.8279 11.2615 16.621 11.0157 16.5045 10.7311C16.3881 10.4336 16.3493 10.1231 16.414 9.81261C16.4787 9.50213 16.6339 9.21753 16.8538 8.99761C17.0737 8.77769 17.3583 8.62245 17.6688 8.55777C17.9793 8.49309 18.3027 8.5319 18.5873 8.64833C18.8719 8.75182 19.1177 8.9588 19.2988 9.23047Z" fill="white"/>
<path d="M19.2988 17.3021C19.4799 17.5608 19.5705 17.8713 19.5705 18.1947C19.5705 18.6216 19.4023 19.0227 19.1047 19.3202C18.8072 19.6177 18.3932 19.7859 17.9793 19.7859C17.6688 19.7859 17.3583 19.6954 17.0867 19.5142C16.8279 19.3331 16.621 19.0873 16.5045 18.8027C16.3881 18.5052 16.3493 18.1947 16.414 17.8843C16.4787 17.5738 16.6339 17.2892 16.8538 17.0693C17.0737 16.8493 17.3583 16.6941 17.6688 16.6294C17.9793 16.5647 18.3027 16.6036 18.5873 16.72C18.8719 16.8364 19.1177 17.0434 19.2988 17.3021Z" fill="white"/>
<path d="M19.5714 0.213501H15.7422V4.04269H19.5714V0.213501Z" fill="white"/>
<path d="M11.33 17.3021C11.5112 17.5608 11.6017 17.8713 11.6017 18.1947C11.6017 18.6216 11.4335 19.0227 11.136 19.3202C10.8385 19.6177 10.4245 19.7859 10.0105 19.7859C9.70005 19.7859 9.38958 19.6954 9.11791 19.5142C8.85919 19.3331 8.6522 19.0873 8.53578 18.8027C8.41935 18.5052 8.38054 18.1947 8.44522 17.8843C8.5099 17.5738 8.66514 17.2892 8.88506 17.0693C9.10498 16.8493 9.38958 16.6941 9.70005 16.6294C10.0105 16.5647 10.3339 16.6036 10.6185 16.72C10.9161 16.8364 11.1619 17.0434 11.33 17.3021Z" fill="white"/>
<path d="M11.9268 8.19482H8.09766V12.024H11.9268V8.19482Z" fill="white"/>
<path d="M12.0296 0.213501H7.98047V4.26261H12.0296V0.213501Z" fill="white"/>
<path d="M4.2717 0.213501H0.015625V4.46959H4.2717V0.213501Z" fill="white"/>
<path d="M3.82918 15.9567H0V19.7858H3.82918V15.9567Z" fill="white"/>
<path d="M4.0491 8.09216H0V12.1413H4.0491V8.09216Z" fill="white"/>
</svg>
