<svg width="1441" height="405" viewBox="0 0 1441 405" fill="none" xmlns="http://www.w3.org/2000/svg">
<g clip-path="url(#clip0_37_1916)">
<g opacity="0.2" filter="url(#filter0_f_37_1916)">
<circle cx="0.0898438" cy="149.568" r="108" fill="#2DE376"/>
</g>
<g opacity="0.2" filter="url(#filter1_f_37_1916)">
<ellipse cx="1476.19" cy="194.574" rx="92.7352" ry="101.49" fill="#5F38FB"/>
</g>
<g opacity="0.2" filter="url(#filter2_f_37_1916)">
<circle cx="433.84" cy="-59.9219" r="101.49" fill="#5F38FB"/>
</g>
<g opacity="0.2" filter="url(#filter3_f_37_1916)">
<circle cx="1217.28" cy="-14.9163" r="108" fill="#2DE376"/>
</g>
<path opacity="0.3" d="M1090.33 74.8423H1072.09V93.0838H1090.33V74.8423Z" fill="#D7DDE5"/>
<path opacity="0.3" d="M363.378 191.913H345.137V210.154H363.378V191.913Z" fill="#D7DDE5"/>
<path opacity="0.3" d="M1265.82 196.993H1247.58V215.235H1265.82V196.993Z" fill="#D7DDE5"/>
<path opacity="0.3" d="M185.498 93.084H167.257V111.325H185.498V93.084Z" fill="#D7DDE5"/>
<path d="M553.216 248.971H542.558C524.917 248.971 510.615 263.273 510.615 280.918V296.722C510.615 297.156 510.63 297.589 510.649 298.019C511.332 315.061 525.355 328.669 542.562 328.669H553.22C570.427 328.669 584.45 315.061 585.133 298.019C585.152 297.589 585.167 297.156 585.167 296.722V280.918C585.163 263.273 570.861 248.971 553.216 248.971Z" fill="#EAEFF4"/>
<path d="M553.216 248.971H542.558C524.917 248.971 510.615 263.273 510.615 280.918V296.722C510.615 297.156 510.63 297.589 510.649 298.019C511.332 315.061 525.355 328.669 542.562 328.669H553.22C570.427 328.669 584.45 315.061 585.133 298.019C585.152 297.589 585.167 297.156 585.167 296.722V280.918C585.163 263.273 570.861 248.971 553.216 248.971ZM554.571 319.709H541.212C530.991 319.709 521.88 314.97 515.95 307.572C513.498 304.512 512.132 300.702 512.124 296.782C512.124 296.763 512.124 296.741 512.124 296.722V280.918C512.124 264.107 525.751 250.48 542.562 250.48H553.22C570.031 250.48 583.658 264.107 583.658 280.918V296.722C583.658 296.741 583.658 296.763 583.658 296.782C583.65 300.702 582.285 304.516 579.832 307.572C573.902 314.97 564.791 319.709 554.571 319.709Z" fill="url(#paint0_radial_37_1916)"/>
<path d="M553.865 254.457H542.358C527.98 254.457 516.323 266.113 516.323 280.492V282.306C516.323 296.685 527.98 308.342 542.358 308.342H553.865C568.244 308.342 579.9 296.685 579.9 282.306V280.492C579.9 266.113 568.244 254.457 553.865 254.457Z" fill="#010E3E"/>
<path d="M536.523 280.695H530.087V274.259H536.523V280.695ZM530.087 280.695H523.65V287.132H530.087V280.695ZM542.959 280.695H536.523V287.132H542.959V280.695ZM566.051 274.259H559.615V280.695H566.051V274.259ZM559.615 280.695H553.179V287.132H559.615V280.695ZM572.488 280.695H566.051V287.132H572.488V280.695Z" fill="url(#paint1_linear_37_1916)"/>
<g opacity="0.3" filter="url(#filter4_f_37_1916)">
<path d="M579.287 76.3311H571.488C558.578 76.3311 548.112 86.797 548.112 99.709V111.274C548.112 111.591 548.123 111.909 548.137 112.223C548.637 124.694 558.899 134.652 571.49 134.652H579.289C591.881 134.652 602.143 124.694 602.642 112.223C602.656 111.909 602.667 111.591 602.667 111.274V99.709C602.665 86.797 592.199 76.3311 579.287 76.3311Z" fill="#EAEFF4"/>
<path d="M579.287 76.3311H571.488C558.578 76.3311 548.112 86.797 548.112 99.709V111.274C548.112 111.591 548.123 111.909 548.137 112.223C548.637 124.694 558.899 134.652 571.49 134.652H579.289C591.881 134.652 602.143 124.694 602.642 112.223C602.656 111.909 602.667 111.591 602.667 111.274V99.709C602.665 86.797 592.199 76.3311 579.287 76.3311ZM580.278 128.095H570.502C563.023 128.095 556.356 124.627 552.016 119.214C550.222 116.975 549.222 114.186 549.217 111.318C549.217 111.304 549.217 111.288 549.217 111.274V99.709C549.217 87.4072 559.188 77.4354 571.49 77.4354H579.289C591.591 77.4354 601.563 87.4072 601.563 99.709V111.274C601.563 111.288 601.563 111.304 601.563 111.318C601.558 114.186 600.558 116.977 598.764 119.214C594.424 124.627 587.757 128.095 580.278 128.095Z" fill="url(#paint2_radial_37_1916)"/>
<path d="M579.761 80.3452H571.341C560.819 80.3452 552.289 88.875 552.289 99.3971V100.725C552.289 111.247 560.819 119.777 571.341 119.777H579.761C590.283 119.777 598.813 111.247 598.813 100.725V99.3971C598.813 88.875 590.283 80.3452 579.761 80.3452Z" fill="#010E3E"/>
<path d="M567.07 99.5463H562.36V94.8364H567.07V99.5463ZM562.36 99.5463H557.65V104.256H562.36V99.5463ZM571.78 99.5463H567.07V104.256H571.78V99.5463ZM588.678 94.8364H583.969V99.5463H588.678V94.8364ZM583.969 99.5463H579.259V104.256H583.969V99.5463ZM593.388 99.5463H588.678V104.256H593.388V99.5463Z" fill="url(#paint3_linear_37_1916)"/>
</g>
<path fill-rule="evenodd" clip-rule="evenodd" d="M695.14 156.074H739.384V178.197H695.14V156.074ZM844.471 266.692V288.814V288.82H866.593V266.698H877.657V244.575H866.593V156.08H844.471V178.202H822.348V200.325H800.226V222.447H778.104V266.692H844.471ZM800.226 222.447V244.57H844.471V200.325H822.348V222.447H800.226ZM623.242 266.692V288.815V288.82H645.364V266.698H656.428V244.575H645.364V156.08H623.242V178.203H601.12V200.325H578.997V222.448H556.875V266.692H623.242ZM578.997 222.448V244.57H623.242V200.325H601.12V222.448H578.997ZM761.513 178.202H739.391V266.697H761.513V178.202ZM695.14 266.697H673.017V178.202H695.14V266.692H739.384V288.814H695.14V266.697Z" fill="url(#paint4_linear_37_1916)"/>
<path d="M885.071 76.3313H870.23C845.665 76.3313 825.749 96.2473 825.749 120.818V142.825C825.749 143.429 825.77 144.033 825.796 144.632C826.747 168.362 846.274 187.311 870.236 187.311H885.077C909.038 187.311 928.565 168.362 929.516 144.632C929.542 144.033 929.563 143.429 929.563 142.825V120.818C929.558 96.2473 909.642 76.3313 885.071 76.3313Z" fill="#EAEFF4"/>
<path d="M885.071 76.3313H870.23C845.665 76.3313 825.749 96.2473 825.749 120.818V142.825C825.749 143.429 825.77 144.033 825.796 144.632C826.747 168.362 846.274 187.311 870.236 187.311H885.077C909.038 187.311 928.565 168.362 929.516 144.632C929.542 144.033 929.563 143.429 929.563 142.825V120.818C929.558 96.2473 909.642 76.3313 885.071 76.3313ZM886.957 174.834H868.355C854.123 174.834 841.436 168.236 833.177 157.934C829.763 153.673 827.861 148.367 827.85 142.909C827.85 142.883 827.85 142.851 827.85 142.825V120.818C827.85 97.4083 846.826 78.4327 870.236 78.4327H885.077C908.486 78.4327 927.462 97.4083 927.462 120.818V142.825C927.462 142.851 927.462 142.883 927.462 142.909C927.451 148.367 925.55 153.678 922.135 157.934C913.876 168.236 901.189 174.834 886.957 174.834Z" fill="url(#paint5_radial_37_1916)"/>
<path d="M885.976 83.97H869.953C849.93 83.97 833.698 100.202 833.698 120.224V122.751C833.698 142.774 849.93 159.006 869.953 159.006H885.976C905.998 159.006 922.23 142.774 922.23 122.751V120.224C922.23 100.202 905.998 83.97 885.976 83.97Z" fill="#010E3E"/>
<path d="M861.825 120.508H852.863V111.546H861.825V120.508ZM852.863 120.508H843.9V129.471H852.863V120.508ZM870.788 120.508H861.825V129.471H870.788V120.508ZM902.944 111.546H893.982V120.508H902.944V111.546ZM893.982 120.508H885.019V129.471H893.982V120.508ZM911.907 120.508H902.944V129.471H911.907V120.508Z" fill="url(#paint6_linear_37_1916)"/>
</g>
<defs>
<filter id="filter0_f_37_1916" x="-307.91" y="-158.432" width="616" height="616" filterUnits="userSpaceOnUse" color-interpolation-filters="sRGB">
<feFlood flood-opacity="0" result="BackgroundImageFix"/>
<feBlend mode="normal" in="SourceGraphic" in2="BackgroundImageFix" result="shape"/>
<feGaussianBlur stdDeviation="100" result="effect1_foregroundBlur_37_1916"/>
</filter>
<filter id="filter1_f_37_1916" x="1183.45" y="-106.916" width="585.471" height="602.98" filterUnits="userSpaceOnUse" color-interpolation-filters="sRGB">
<feFlood flood-opacity="0" result="BackgroundImageFix"/>
<feBlend mode="normal" in="SourceGraphic" in2="BackgroundImageFix" result="shape"/>
<feGaussianBlur stdDeviation="100" result="effect1_foregroundBlur_37_1916"/>
</filter>
<filter id="filter2_f_37_1916" x="132.35" y="-361.412" width="602.98" height="602.98" filterUnits="userSpaceOnUse" color-interpolation-filters="sRGB">
<feFlood flood-opacity="0" result="BackgroundImageFix"/>
<feBlend mode="normal" in="SourceGraphic" in2="BackgroundImageFix" result="shape"/>
<feGaussianBlur stdDeviation="100" result="effect1_foregroundBlur_37_1916"/>
</filter>
<filter id="filter3_f_37_1916" x="909.28" y="-322.916" width="616" height="616" filterUnits="userSpaceOnUse" color-interpolation-filters="sRGB">
<feFlood flood-opacity="0" result="BackgroundImageFix"/>
<feBlend mode="normal" in="SourceGraphic" in2="BackgroundImageFix" result="shape"/>
<feGaussianBlur stdDeviation="100" result="effect1_foregroundBlur_37_1916"/>
</filter>
<filter id="filter4_f_37_1916" x="541.988" y="70.2063" width="66.8042" height="70.5701" filterUnits="userSpaceOnUse" color-interpolation-filters="sRGB">
<feFlood flood-opacity="0" result="BackgroundImageFix"/>
<feBlend mode="normal" in="SourceGraphic" in2="BackgroundImageFix" result="shape"/>
<feGaussianBlur stdDeviation="3.06238" result="effect1_foregroundBlur_37_1916"/>
</filter>
<radialGradient id="paint0_radial_37_1916" cx="0" cy="0" r="1" gradientUnits="userSpaceOnUse" gradientTransform="translate(547.976 248.167) scale(89.1973 89.1973)">
<stop offset="0.11" stop-color="#EAEFF4"/>
<stop offset="0.62" stop-color="#EAEFF4"/>
<stop offset="0.66" stop-color="#EAEFF4"/>
<stop offset="0.72" stop-color="#E4EAF0"/>
<stop offset="0.79" stop-color="#D4DDE6"/>
<stop offset="0.87" stop-color="#BAC7D6"/>
<stop offset="0.94" stop-color="#A1B2C6"/>
</radialGradient>
<linearGradient id="paint1_linear_37_1916" x1="523.65" y1="280.695" x2="572.488" y2="280.695" gradientUnits="userSpaceOnUse">
<stop offset="0.24" stop-color="#008EFF"/>
<stop offset="0.78" stop-color="#2EE276"/>
</linearGradient>
<radialGradient id="paint2_radial_37_1916" cx="0" cy="0" r="1" gradientUnits="userSpaceOnUse" gradientTransform="translate(575.452 75.743) scale(65.2722 65.2722)">
<stop offset="0.11" stop-color="#EAEFF4"/>
<stop offset="0.62" stop-color="#EAEFF4"/>
<stop offset="0.66" stop-color="#EAEFF4"/>
<stop offset="0.72" stop-color="#E4EAF0"/>
<stop offset="0.79" stop-color="#D4DDE6"/>
<stop offset="0.87" stop-color="#BAC7D6"/>
<stop offset="0.94" stop-color="#A1B2C6"/>
</radialGradient>
<linearGradient id="paint3_linear_37_1916" x1="557.65" y1="99.5463" x2="593.388" y2="99.5463" gradientUnits="userSpaceOnUse">
<stop offset="0.24" stop-color="#008EFF"/>
<stop offset="0.78" stop-color="#2EE276"/>
</linearGradient>
<linearGradient id="paint4_linear_37_1916" x1="556.875" y1="222.447" x2="877.657" y2="222.447" gradientUnits="userSpaceOnUse">
<stop offset="0.24" stop-color="#008EFF"/>
<stop offset="0.78" stop-color="#2EE276"/>
</linearGradient>
<radialGradient id="paint5_radial_37_1916" cx="0" cy="0" r="1" gradientUnits="userSpaceOnUse" gradientTransform="translate(877.774 75.2123) scale(124.208 124.208)">
<stop offset="0.11" stop-color="#EAEFF4"/>
<stop offset="0.62" stop-color="#EAEFF4"/>
<stop offset="0.66" stop-color="#EAEFF4"/>
<stop offset="0.72" stop-color="#E4EAF0"/>
<stop offset="0.79" stop-color="#D4DDE6"/>
<stop offset="0.87" stop-color="#BAC7D6"/>
<stop offset="0.94" stop-color="#A1B2C6"/>
</radialGradient>
<linearGradient id="paint6_linear_37_1916" x1="843.9" y1="120.508" x2="911.907" y2="120.508" gradientUnits="userSpaceOnUse">
<stop offset="0.24" stop-color="#008EFF"/>
<stop offset="0.78" stop-color="#2EE276"/>
</linearGradient>
<clipPath id="clip0_37_1916">
<rect width="1440" height="405" fill="white" transform="translate(0.0898438)"/>
</clipPath>
</defs>
</svg>
