<svg width="355" height="615" viewBox="0 0 355 615" fill="none" xmlns="http://www.w3.org/2000/svg">
<g opacity="0.15" filter="url(#filter0_f_2507_6474)">
<circle cx="47.5" cy="307.5" r="157.5" fill="#5F38FB"/>
</g>
<g filter="url(#filter1_bd_2507_6474)">
<mask id="path-2-inside-1_2507_6474" fill="white">
<path fill-rule="evenodd" clip-rule="evenodd" d="M-57.4512 262.09C-70.3238 257.85 -77.3223 243.978 -73.0829 231.106L-27.9848 94.1712C-23.7454 81.2986 -9.87331 74.3001 2.99929 78.5396L139.933 123.638C152.806 127.877 159.804 141.749 155.565 154.622L110.467 291.557C106.227 304.429 92.3551 311.428 79.4825 307.188L-57.4512 262.09ZM-13.7575 230.326C-20.1938 228.206 -23.6931 221.27 -21.5733 214.834L3.77433 137.869C5.89407 131.433 12.8301 127.933 19.2664 130.053L96.2309 155.401C102.667 157.521 106.166 164.457 104.047 170.893L78.6991 247.858C76.5794 254.294 69.6433 257.794 63.207 255.674L-13.7575 230.326Z"/>
</mask>
<path fill-rule="evenodd" clip-rule="evenodd" d="M-57.4512 262.09C-70.3238 257.85 -77.3223 243.978 -73.0829 231.106L-27.9848 94.1712C-23.7454 81.2986 -9.87331 74.3001 2.99929 78.5396L139.933 123.638C152.806 127.877 159.804 141.749 155.565 154.622L110.467 291.557C106.227 304.429 92.3551 311.428 79.4825 307.188L-57.4512 262.09ZM-13.7575 230.326C-20.1938 228.206 -23.6931 221.27 -21.5733 214.834L3.77433 137.869C5.89407 131.433 12.8301 127.933 19.2664 130.053L96.2309 155.401C102.667 157.521 106.166 164.457 104.047 170.893L78.6991 247.858C76.5794 254.294 69.6433 257.794 63.207 255.674L-13.7575 230.326Z" fill="url(#paint0_linear_2507_6474)" shape-rendering="crispEdges"/>
<path d="M-73.0829 231.106L-71.1832 231.731L-73.0829 231.106ZM-27.9848 94.1712L-26.0852 94.7969L-27.9848 94.1712ZM2.99929 78.5396L2.37367 80.4392L2.99929 78.5396ZM139.933 123.638L140.559 121.738L139.933 123.638ZM-21.5733 214.834L-23.473 214.208L-21.5733 214.834ZM-13.7575 230.326L-13.1319 228.426L-13.7575 230.326ZM3.77433 137.869L5.67396 138.495L3.77433 137.869ZM19.2664 130.053L18.6408 131.953L19.2664 130.053ZM96.2309 155.401L96.8565 153.501L96.2309 155.401ZM63.207 255.674L62.5814 257.573L63.207 255.674ZM-74.9825 230.48C-79.5675 244.402 -71.9985 259.405 -58.0768 263.99L-56.8256 260.19C-68.649 256.296 -75.0772 243.555 -71.1832 231.731L-74.9825 230.48ZM-29.8845 93.5456L-74.9825 230.48L-71.1832 231.731L-26.0852 94.7969L-29.8845 93.5456ZM3.62491 76.64C-10.2968 72.0549 -25.2995 79.6238 -29.8845 93.5456L-26.0852 94.7969C-22.1913 82.9734 -9.4498 76.5452 2.37367 80.4392L3.62491 76.64ZM140.559 121.738L3.62491 76.64L2.37367 80.4392L139.307 125.537L140.559 121.738ZM157.464 155.248C162.049 141.326 154.48 126.323 140.559 121.738L139.307 125.537C151.131 129.431 157.559 142.173 153.665 153.996L157.464 155.248ZM112.366 292.182L157.464 155.248L153.665 153.996L108.567 290.931L112.366 292.182ZM78.8569 309.088C92.7786 313.673 107.781 306.104 112.366 292.182L108.567 290.931C104.673 302.754 91.9316 309.183 80.1081 305.289L78.8569 309.088ZM-58.0768 263.99L78.8569 309.088L80.1081 305.289L-56.8256 260.19L-58.0768 263.99ZM-23.473 214.208C-25.9382 221.694 -21.8685 229.76 -14.3831 232.226L-13.1319 228.426C-18.519 226.652 -21.4479 220.847 -19.6737 215.46L-23.473 214.208ZM1.8747 137.243L-23.473 214.208L-19.6737 215.46L5.67396 138.495L1.8747 137.243ZM19.892 128.154C12.4066 125.688 4.33996 129.758 1.8747 137.243L5.67396 138.495C7.44817 133.107 13.2536 130.179 18.6408 131.953L19.892 128.154ZM96.8565 153.501L19.892 128.154L18.6408 131.953L95.6053 157.301L96.8565 153.501ZM105.946 171.519C108.412 164.033 104.342 155.967 96.8565 153.501L95.6053 157.301C100.992 159.075 103.921 164.88 102.147 170.267L105.946 171.519ZM80.5987 248.484L105.946 171.519L102.147 170.267L76.7995 247.232L80.5987 248.484ZM62.5814 257.573C70.0668 260.039 78.1335 255.969 80.5987 248.484L76.7995 247.232C75.0253 252.62 69.2198 255.548 63.8326 253.774L62.5814 257.573ZM-14.3831 232.226L62.5814 257.573L63.8326 253.774L-13.1319 228.426L-14.3831 232.226Z" fill="url(#paint1_linear_2507_6474)" mask="url(#path-2-inside-1_2507_6474)"/>
</g>
<defs>
<filter id="filter0_f_2507_6474" x="-260" y="1.52588e-05" width="615" height="615" filterUnits="userSpaceOnUse" color-interpolation-filters="sRGB">
<feFlood flood-opacity="0" result="BackgroundImageFix"/>
<feBlend mode="normal" in="SourceGraphic" in2="BackgroundImageFix" result="shape"/>
<feGaussianBlur stdDeviation="75" result="effect1_foregroundBlur_2507_6474"/>
</filter>
<filter id="filter1_bd_2507_6474" x="-94.3203" y="57.3008" width="291.125" height="291.125" filterUnits="userSpaceOnUse" color-interpolation-filters="sRGB">
<feFlood flood-opacity="0" result="BackgroundImageFix"/>
<feGaussianBlur in="BackgroundImageFix" stdDeviation="10"/>
<feComposite in2="SourceAlpha" operator="in" result="effect1_backgroundBlur_2507_6474"/>
<feColorMatrix in="SourceAlpha" type="matrix" values="0 0 0 0 0 0 0 0 0 0 0 0 0 0 0 0 0 0 127 0" result="hardAlpha"/>
<feOffset dx="10" dy="10"/>
<feGaussianBlur stdDeviation="15"/>
<feComposite in2="hardAlpha" operator="out"/>
<feColorMatrix type="matrix" values="0 0 0 0 0.373667 0 0 0 0 0.22125 0 0 0 0 0.983333 0 0 0 0.3 0"/>
<feBlend mode="normal" in2="effect1_backgroundBlur_2507_6474" result="effect2_dropShadow_2507_6474"/>
<feBlend mode="normal" in="SourceGraphic" in2="effect2_dropShadow_2507_6474" result="shape"/>
</filter>
<linearGradient id="paint0_linear_2507_6474" x1="-35.6384" y1="42.885" x2="105.442" y2="336.137" gradientUnits="userSpaceOnUse">
<stop offset="0.136168" stop-color="#8566FF" stop-opacity="0.3"/>
<stop offset="0.479875" stop-color="#5F38FB" stop-opacity="0.5"/>
<stop offset="0.826128" stop-color="#5F38FB" stop-opacity="0.7"/>
</linearGradient>
<linearGradient id="paint1_linear_2507_6474" x1="-43.039" y1="34.9575" x2="102.439" y2="339.847" gradientUnits="userSpaceOnUse">
<stop offset="0.137498" stop-color="#AF9BFD"/>
<stop offset="0.410212" stop-color="#5F38FB" stop-opacity="0"/>
<stop offset="0.835001" stop-color="#5F38FB"/>
</linearGradient>
</defs>
</svg>
