<svg width="43" height="28" viewBox="0 0 43 28" fill="none" xmlns="http://www.w3.org/2000/svg">
<rect x="0.731445" width="42.2686" height="28" rx="6" fill="#EFF0F0"/>
<path opacity="0.6" d="M8.73145 10.1562C8.73145 8.98438 9.69238 8 10.8877 8C12.0596 8 13.0439 8.98438 13.0439 10.1562V11.1875H16.4189V10.1562C16.4189 8.98438 17.3799 8 18.5752 8C19.7471 8 20.7314 8.98438 20.7314 10.1562V10.25C20.7314 11.4922 19.7236 12.5 18.4814 12.5H17.5439V15.5H18.4814C19.7236 15.5 20.7314 16.5078 20.7314 17.75V17.8438C20.7314 19.0391 19.7471 20 18.5752 20C17.3799 20 16.4189 19.0391 16.4189 17.8438V16.8125H13.0439V17.8438C13.0439 19.0391 12.0596 20 10.8877 20C9.69238 20 8.73145 19.0391 8.73145 17.8438V17.75C8.73145 16.5078 9.73926 15.5 10.9814 15.5H11.9189V12.5H10.9814C9.73926 12.5 8.73145 11.4922 8.73145 10.25V10.1562ZM11.9189 11.375V11.1875V10.1562C11.9189 9.59375 11.4502 9.125 10.8877 9.125C10.3018 9.125 9.85645 9.59375 9.85645 10.1562V10.25C9.85645 10.8828 10.3486 11.375 10.9814 11.375H11.9189ZM13.0439 15.5V15.6875H16.4189V15.5V12.5V12.3125H13.0439V12.5V15.5ZM11.9189 16.625H10.9814C10.3486 16.625 9.85645 17.1406 9.85645 17.75V17.8438C9.85645 18.4297 10.3018 18.875 10.8877 18.875C11.4502 18.875 11.9189 18.4297 11.9189 17.8438V16.8125V16.625ZM17.5439 16.8125V17.8438C17.5439 18.4297 17.9893 18.875 18.5752 18.875C19.1377 18.875 19.6064 18.4297 19.6064 17.8438V17.75C19.6064 17.1406 19.0908 16.625 18.4814 16.625H17.5439V16.8125ZM17.5439 11.375H18.4814C19.0908 11.375 19.6064 10.8828 19.6064 10.25V10.1562C19.6064 9.59375 19.1377 9.125 18.5752 9.125C17.9893 9.125 17.5439 9.59375 17.5439 10.1562V11.1875V11.375Z" fill="#0B1742"/>
<path opacity="0.6" d="M26.2743 16.3657L26.1714 14.2914L32.4629 8H34.8972L26.2743 16.3657ZM24.7314 20V8H26.5829V20H24.7314ZM32.6857 20L28.0914 13.8629L29.4629 12.68L35 20H32.6857Z" fill="#0B1742"/>
</svg>
