<svg xmlns="http://www.w3.org/2000/svg" width="43" height="46" viewBox="0 0 43 46" fill="none">
  <path d="M18.0211 5.1446L32.4952 19.6188C33.8095 20.9331 36.0568 20.0022 36.0568 18.1435V4.03355C36.0568 2.88133 35.1227 1.94727 33.9705 1.94727H19.3455C17.6768 1.94727 16.8412 3.96471 18.0211 5.1446Z" fill="#C9F8DC"/>
  <g filter="url(#filter0_bd_2689_1999)">
    <path d="M25.981 26.855L11.5068 12.3809C10.1925 11.0666 7.94531 11.9974 7.94531 13.8561L7.94531 27.9661C7.94531 29.1183 8.87937 30.0524 10.0316 30.0524H24.6566C26.3252 30.0524 27.1609 28.0349 25.981 26.855Z" fill="url(#paint0_linear_2689_1999)" shape-rendering="crispEdges"/>
    <path d="M11.3688 12.5188L25.843 26.993C26.9 28.05 26.1514 29.8572 24.6566 29.8572H10.0316C8.98714 29.8572 8.14043 29.0105 8.14043 27.9661V13.8561C8.14043 12.1712 10.1775 11.3275 11.3688 12.5188Z" stroke="url(#paint1_linear_2689_1999)" stroke-width="0.390244" shape-rendering="crispEdges"/>
  </g>
  <g filter="url(#filter1_b_2689_1999)">
    <path d="M18.3426 21.5643C17.8932 21.5643 17.4437 21.3928 17.1008 21.0498L13.2917 17.2404C12.6059 16.5548 12.6059 15.4427 13.2917 14.7571L17.1008 10.9481C17.7865 10.2621 18.899 10.2621 19.5842 10.9481C20.2702 11.6337 20.2702 12.7457 19.5842 13.4313L17.0169 15.9988L19.5846 18.5666C20.2702 19.2522 20.2702 20.3642 19.5842 21.0502C19.2412 21.3928 18.7919 21.5643 18.3426 21.5643Z" fill="url(#paint2_linear_2689_1999)"/>
    <path d="M19.5846 18.5666L19.4466 18.7046C20.0559 19.3139 20.056 20.3024 19.4463 20.9122C19.1413 21.2168 18.7422 21.3692 18.3426 21.3692C17.9429 21.3692 17.5437 21.2168 17.2387 20.9119C17.2387 20.9119 17.2387 20.9119 17.2387 20.9119L13.4297 17.1024L13.4296 17.1024C12.8201 16.493 12.8201 15.5045 13.4296 14.8951L13.4297 14.8951L17.2387 11.086L17.2387 11.086C17.8484 10.4762 18.8372 10.4763 19.4461 11.086L19.4462 11.0861C20.056 11.6955 20.056 12.6839 19.4462 13.2933L19.4462 13.2933L16.8789 15.8608L16.741 15.9988L16.8789 16.1367L19.4466 18.7046L19.5846 18.5666Z" stroke="url(#paint3_linear_2689_1999)" stroke-width="0.390244"/>
  </g>
  <g filter="url(#filter2_b_2689_1999)">
    <path d="M25.6507 21.5642C25.2014 21.5642 24.7517 21.3927 24.4091 21.0497C23.7231 20.3641 23.7231 19.2521 24.4091 18.5665L26.9765 15.9987L24.4091 13.4316C23.7231 12.7456 23.7231 11.6336 24.4087 10.948C25.0947 10.262 26.2063 10.2624 26.8923 10.9476L30.7017 14.7567C31.031 15.0863 31.2162 15.533 31.2162 15.9987C31.2162 16.4644 31.0314 16.911 30.7017 17.2403L26.8923 21.0497C26.5497 21.3927 26.1 21.5642 25.6507 21.5642Z" fill="url(#paint4_linear_2689_1999)"/>
    <path d="M24.5471 20.9118L24.547 20.9117C23.9373 20.3023 23.9373 19.3139 24.547 18.7045L24.547 18.7045L27.1145 16.1366L27.2525 15.9986L27.1145 15.8607L24.547 13.2936C24.547 13.2936 24.547 13.2936 24.547 13.2936C23.9372 12.6838 23.9373 11.6953 24.5467 11.086C25.1564 10.4762 26.1445 10.4765 26.7543 11.0856C26.7544 11.0856 26.7544 11.0856 26.7544 11.0856L30.5637 14.8946C30.8565 15.1877 31.0211 15.5848 31.0211 15.9987C31.0211 16.4127 30.8568 16.8096 30.5639 17.1022L30.5638 17.1023L26.7543 20.9118L26.7542 20.9118C26.4497 21.2167 26.0504 21.3691 25.6507 21.3691C25.251 21.3691 24.8516 21.2167 24.5471 20.9118Z" stroke="url(#paint5_linear_2689_1999)" stroke-width="0.390244"/>
  </g>
  <defs>
    <filter id="filter0_bd_2689_1999" x="0.140435" y="3.96075" width="42.0045" height="41.7017" filterUnits="userSpaceOnUse" color-interpolation-filters="sRGB">
      <feFlood flood-opacity="0" result="BackgroundImageFix"/>
      <feGaussianBlur in="BackgroundImageFix" stdDeviation="3.90244"/>
      <feComposite in2="SourceAlpha" operator="in" result="effect1_backgroundBlur_2689_1999"/>
      <feColorMatrix in="SourceAlpha" type="matrix" values="0 0 0 0 0 0 0 0 0 0 0 0 0 0 0 0 0 0 127 0" result="hardAlpha"/>
      <feOffset dx="3.90244" dy="3.90244"/>
      <feGaussianBlur stdDeviation="5.85366"/>
      <feComposite in2="hardAlpha" operator="out"/>
      <feColorMatrix type="matrix" values="0 0 0 0 0.0196078 0 0 0 0 0.6 0 0 0 0 0.290196 0 0 0 0.3 0"/>
      <feBlend mode="normal" in2="effect1_backgroundBlur_2689_1999" result="effect2_dropShadow_2689_1999"/>
      <feBlend mode="normal" in="SourceGraphic" in2="effect2_dropShadow_2689_1999" result="shape"/>
    </filter>
    <filter id="filter1_b_2689_1999" x="11.2164" y="8.87262" width="10.4423" height="14.2528" filterUnits="userSpaceOnUse" color-interpolation-filters="sRGB">
      <feFlood flood-opacity="0" result="BackgroundImageFix"/>
      <feGaussianBlur in="BackgroundImageFix" stdDeviation="0.780488"/>
      <feComposite in2="SourceAlpha" operator="in" result="effect1_backgroundBlur_2689_1999"/>
      <feBlend mode="normal" in="SourceGraphic" in2="effect1_backgroundBlur_2689_1999" result="shape"/>
    </filter>
    <filter id="filter2_b_2689_1999" x="22.3336" y="8.87262" width="10.4423" height="14.2528" filterUnits="userSpaceOnUse" color-interpolation-filters="sRGB">
      <feFlood flood-opacity="0" result="BackgroundImageFix"/>
      <feGaussianBlur in="BackgroundImageFix" stdDeviation="0.780488"/>
      <feComposite in2="SourceAlpha" operator="in" result="effect1_backgroundBlur_2689_1999"/>
      <feBlend mode="normal" in="SourceGraphic" in2="effect1_backgroundBlur_2689_1999" result="shape"/>
    </filter>
    <linearGradient id="paint0_linear_2689_1999" x1="8.3049" y1="11.7656" x2="27.7151" y2="32.3034" gradientUnits="userSpaceOnUse">
      <stop offset="0.182224" stop-color="#2DE376" stop-opacity="0.5"/>
      <stop offset="0.640234" stop-color="#2DE376" stop-opacity="0.9"/>
    </linearGradient>
    <linearGradient id="paint1_linear_2689_1999" x1="7.94531" y1="9.63776" x2="25.6874" y2="31.1038" gradientUnits="userSpaceOnUse">
      <stop offset="0.249921" stop-color="#2DE376"/>
      <stop offset="0.470896" stop-color="#2DE376" stop-opacity="0"/>
      <stop offset="0.816545" stop-color="#35C168"/>
    </linearGradient>
    <linearGradient id="paint2_linear_2689_1999" x1="17.9203" y1="29.8437" x2="9.32192" y2="6.92035" gradientUnits="userSpaceOnUse">
      <stop offset="0.0822725" stop-color="#8566FF" stop-opacity="0.3"/>
      <stop offset="0.423605" stop-color="#5F38FB" stop-opacity="0.5"/>
      <stop offset="0.762303" stop-color="#5F38FB" stop-opacity="0.7"/>
    </linearGradient>
    <linearGradient id="paint3_linear_2689_1999" x1="16.438" y1="34.8114" x2="14.2316" y2="1.84102" gradientUnits="userSpaceOnUse">
      <stop offset="0.137498" stop-color="#AF9BFD"/>
      <stop offset="0.410212" stop-color="#5F38FB" stop-opacity="0"/>
      <stop offset="0.835001" stop-color="#5F38FB"/>
    </linearGradient>
    <linearGradient id="paint4_linear_2689_1999" x1="29.0377" y1="29.8435" x2="20.4398" y2="6.92007" gradientUnits="userSpaceOnUse">
      <stop offset="0.0822725" stop-color="#8566FF" stop-opacity="0.3"/>
      <stop offset="0.423605" stop-color="#5F38FB" stop-opacity="0.5"/>
      <stop offset="0.762303" stop-color="#5F38FB" stop-opacity="0.7"/>
    </linearGradient>
    <linearGradient id="paint5_linear_2689_1999" x1="27.5554" y1="34.8112" x2="25.3491" y2="1.84108" gradientUnits="userSpaceOnUse">
      <stop offset="0.137498" stop-color="#AF9BFD"/>
      <stop offset="0.410212" stop-color="#5F38FB" stop-opacity="0"/>
      <stop offset="0.835001" stop-color="#5F38FB"/>
    </linearGradient>
  </defs>
</svg>