<svg xmlns="http://www.w3.org/2000/svg" width="38" height="46" viewBox="0 0 38 46" fill="none">
  <path d="M29.3242 15.2986L35.6293 5.11973C36.5964 3.73224 35.6036 1.83008 33.9123 1.83008L21.077 1.83008C19.3857 1.83008 18.3929 3.73224 19.36 5.11973L25.8903 15.2986C26.7231 16.4934 28.4914 16.4934 29.3242 15.2986Z" fill="#C9F8DC"/>
  <g filter="url(#filter0_bd_2689_1985)">
    <path d="M15.0401 30.172C18.9304 30.172 22.0842 27.0183 22.0842 23.128C22.0842 19.2377 18.9304 16.084 15.0401 16.084C11.1498 16.084 7.99609 19.2377 7.99609 23.128C7.99609 27.0183 11.1498 30.172 15.0401 30.172Z" fill="url(#paint0_linear_2689_1985)" shape-rendering="crispEdges"/>
    <path d="M21.8891 23.128C21.8891 26.9106 18.8227 29.9769 15.0401 29.9769C11.2576 29.9769 8.19122 26.9106 8.19122 23.128C8.19122 19.3455 11.2576 16.2791 15.0401 16.2791C18.8227 16.2791 21.8891 19.3455 21.8891 23.128Z" stroke="url(#paint1_linear_2689_1985)" stroke-width="0.390244" shape-rendering="crispEdges"/>
  </g>
  <g filter="url(#filter1_b_2689_1985)">
    <path d="M20.1639 22.6593V18.3318H24.4913V22.6593H20.1639Z" fill="url(#paint2_linear_2689_1985)" stroke="url(#paint3_linear_2689_1985)" stroke-width="0.390244"/>
    <path d="M24.8826 17.9422V14.1522H28.6727V17.9422H24.8826Z" fill="url(#paint4_linear_2689_1985)" stroke="url(#paint5_linear_2689_1985)" stroke-width="0.390244"/>
    <path d="M15.9842 17.9422V14.1522H19.7743V17.9422H15.9842Z" fill="url(#paint6_linear_2689_1985)" stroke="url(#paint7_linear_2689_1985)" stroke-width="0.390244"/>
    <path d="M24.0302 8.45837C24.0302 9.39875 23.2679 10.1611 22.3275 10.1611C21.3871 10.1611 20.6248 9.39875 20.6248 8.45837C20.6248 7.51799 21.3871 6.75567 22.3275 6.75567C23.2679 6.75567 24.0302 7.518 24.0302 8.45837Z" fill="url(#paint8_linear_2689_1985)" stroke="url(#paint9_linear_2689_1985)" stroke-width="0.390244"/>
    <path d="M14.6825 23.7103C14.6825 24.6507 13.9202 25.413 12.9798 25.413C12.0395 25.413 11.2772 24.6507 11.2772 23.7103C11.2772 22.7699 12.0395 22.0076 12.9798 22.0076C13.9202 22.0076 14.6825 22.7699 14.6825 23.7103Z" fill="url(#paint10_linear_2689_1985)" stroke="url(#paint11_linear_2689_1985)" stroke-width="0.390244"/>
    <path d="M33.3974 23.6888C33.3974 24.6292 32.6351 25.3915 31.6947 25.3915C30.7543 25.3915 29.992 24.6292 29.992 23.6888C29.992 22.7485 30.7543 21.9861 31.6947 21.9861C32.6351 21.9861 33.3974 22.7485 33.3974 23.6888Z" fill="url(#paint12_linear_2689_1985)" stroke="url(#paint13_linear_2689_1985)" stroke-width="0.390244"/>
  </g>
  <defs>
    <filter id="filter0_bd_2689_1985" x="0.191216" y="8.27911" width="37.5045" height="37.5025" filterUnits="userSpaceOnUse" color-interpolation-filters="sRGB">
      <feFlood flood-opacity="0" result="BackgroundImageFix"/>
      <feGaussianBlur in="BackgroundImageFix" stdDeviation="3.90244"/>
      <feComposite in2="SourceAlpha" operator="in" result="effect1_backgroundBlur_2689_1985"/>
      <feColorMatrix in="SourceAlpha" type="matrix" values="0 0 0 0 0 0 0 0 0 0 0 0 0 0 0 0 0 0 127 0" result="hardAlpha"/>
      <feOffset dx="3.90244" dy="3.90244"/>
      <feGaussianBlur stdDeviation="5.85366"/>
      <feComposite in2="hardAlpha" operator="out"/>
      <feColorMatrix type="matrix" values="0 0 0 0 0.0196078 0 0 0 0 0.6 0 0 0 0 0.290196 0 0 0 0.3 0"/>
      <feBlend mode="normal" in2="effect1_backgroundBlur_2689_1985" result="effect2_dropShadow_2689_1985"/>
      <feBlend mode="normal" in="SourceGraphic" in2="effect2_dropShadow_2689_1985" result="shape"/>
    </filter>
    <filter id="filter1_b_2689_1985" x="9.52106" y="4.99957" width="25.6337" height="22.1688" filterUnits="userSpaceOnUse" color-interpolation-filters="sRGB">
      <feFlood flood-opacity="0" result="BackgroundImageFix"/>
      <feGaussianBlur in="BackgroundImageFix" stdDeviation="0.780488"/>
      <feComposite in2="SourceAlpha" operator="in" result="effect1_backgroundBlur_2689_1985"/>
      <feBlend mode="normal" in="SourceGraphic" in2="effect1_backgroundBlur_2689_1985" result="shape"/>
    </filter>
    <linearGradient id="paint0_linear_2689_1985" x1="8.26863" y1="16.084" x2="23.234" y2="31.6621" gradientUnits="userSpaceOnUse">
      <stop offset="0.182224" stop-color="#2DE376" stop-opacity="0.5"/>
      <stop offset="0.640234" stop-color="#2DE376" stop-opacity="0.9"/>
    </linearGradient>
    <linearGradient id="paint1_linear_2689_1985" x1="7.99609" y1="14.4447" x2="21.7049" y2="30.762" gradientUnits="userSpaceOnUse">
      <stop offset="0.249921" stop-color="#2DE376"/>
      <stop offset="0.470896" stop-color="#2DE376" stop-opacity="0"/>
      <stop offset="0.816545" stop-color="#35C168"/>
    </linearGradient>
    <linearGradient id="paint2_linear_2689_1985" x1="23.2827" y1="26.3635" x2="20.7052" y2="15.9166" gradientUnits="userSpaceOnUse">
      <stop offset="0.0822725" stop-color="#8566FF" stop-opacity="0.3"/>
      <stop offset="0.423605" stop-color="#5F38FB" stop-opacity="0.5"/>
      <stop offset="0.762303" stop-color="#5F38FB" stop-opacity="0.7"/>
    </linearGradient>
    <linearGradient id="paint3_linear_2689_1985" x1="22.3276" y1="28.469" x2="21.7109" y2="14.4594" gradientUnits="userSpaceOnUse">
      <stop offset="0.137498" stop-color="#AF9BFD"/>
      <stop offset="0.410212" stop-color="#5F38FB" stop-opacity="0"/>
      <stop offset="0.835001" stop-color="#5F38FB"/>
    </linearGradient>
    <linearGradient id="paint4_linear_2689_1985" x1="27.624" y1="21.2468" x2="25.3401" y2="11.9898" gradientUnits="userSpaceOnUse">
      <stop offset="0.0822725" stop-color="#8566FF" stop-opacity="0.3"/>
      <stop offset="0.423605" stop-color="#5F38FB" stop-opacity="0.5"/>
      <stop offset="0.762303" stop-color="#5F38FB" stop-opacity="0.7"/>
    </linearGradient>
    <linearGradient id="paint5_linear_2689_1985" x1="26.7777" y1="23.1125" x2="26.2312" y2="10.6985" gradientUnits="userSpaceOnUse">
      <stop offset="0.137498" stop-color="#AF9BFD"/>
      <stop offset="0.410212" stop-color="#5F38FB" stop-opacity="0"/>
      <stop offset="0.835001" stop-color="#5F38FB"/>
    </linearGradient>
    <linearGradient id="paint6_linear_2689_1985" x1="18.7256" y1="21.2468" x2="16.4417" y2="11.9898" gradientUnits="userSpaceOnUse">
      <stop offset="0.0822725" stop-color="#8566FF" stop-opacity="0.3"/>
      <stop offset="0.423605" stop-color="#5F38FB" stop-opacity="0.5"/>
      <stop offset="0.762303" stop-color="#5F38FB" stop-opacity="0.7"/>
    </linearGradient>
    <linearGradient id="paint7_linear_2689_1985" x1="17.8792" y1="23.1125" x2="17.3328" y2="10.6985" gradientUnits="userSpaceOnUse">
      <stop offset="0.137498" stop-color="#AF9BFD"/>
      <stop offset="0.410212" stop-color="#5F38FB" stop-opacity="0"/>
      <stop offset="0.835001" stop-color="#5F38FB"/>
    </linearGradient>
    <linearGradient id="paint8_linear_2689_1985" x1="23.096" y1="13.1795" x2="21.0222" y2="4.77433" gradientUnits="userSpaceOnUse">
      <stop offset="0.0822725" stop-color="#8566FF" stop-opacity="0.3"/>
      <stop offset="0.423605" stop-color="#5F38FB" stop-opacity="0.5"/>
      <stop offset="0.762303" stop-color="#5F38FB" stop-opacity="0.7"/>
    </linearGradient>
    <linearGradient id="paint9_linear_2689_1985" x1="22.3275" y1="14.8735" x2="21.8314" y2="3.60191" gradientUnits="userSpaceOnUse">
      <stop offset="0.137498" stop-color="#AF9BFD"/>
      <stop offset="0.410212" stop-color="#5F38FB" stop-opacity="0"/>
      <stop offset="0.835001" stop-color="#5F38FB"/>
    </linearGradient>
    <linearGradient id="paint10_linear_2689_1985" x1="13.7483" y1="28.4315" x2="11.6746" y2="20.0263" gradientUnits="userSpaceOnUse">
      <stop offset="0.0822725" stop-color="#8566FF" stop-opacity="0.3"/>
      <stop offset="0.423605" stop-color="#5F38FB" stop-opacity="0.5"/>
      <stop offset="0.762303" stop-color="#5F38FB" stop-opacity="0.7"/>
    </linearGradient>
    <linearGradient id="paint11_linear_2689_1985" x1="12.9798" y1="30.1255" x2="12.4837" y2="18.8539" gradientUnits="userSpaceOnUse">
      <stop offset="0.137498" stop-color="#AF9BFD"/>
      <stop offset="0.410212" stop-color="#5F38FB" stop-opacity="0"/>
      <stop offset="0.835001" stop-color="#5F38FB"/>
    </linearGradient>
    <linearGradient id="paint12_linear_2689_1985" x1="32.4632" y1="28.41" x2="30.3894" y2="20.0048" gradientUnits="userSpaceOnUse">
      <stop offset="0.0822725" stop-color="#8566FF" stop-opacity="0.3"/>
      <stop offset="0.423605" stop-color="#5F38FB" stop-opacity="0.5"/>
      <stop offset="0.762303" stop-color="#5F38FB" stop-opacity="0.7"/>
    </linearGradient>
    <linearGradient id="paint13_linear_2689_1985" x1="31.6947" y1="30.104" x2="31.1986" y2="18.8324" gradientUnits="userSpaceOnUse">
      <stop offset="0.137498" stop-color="#AF9BFD"/>
      <stop offset="0.410212" stop-color="#5F38FB" stop-opacity="0"/>
      <stop offset="0.835001" stop-color="#5F38FB"/>
    </linearGradient>
  </defs>
</svg>