<svg xmlns="http://www.w3.org/2000/svg" width="41" height="45" viewBox="0 0 41 45" fill="none">
  <path fill-rule="evenodd" clip-rule="evenodd" d="M26.2629 12.0488L21.9829 18.4759C21.3603 18.3614 20.7187 18.3016 20.0631 18.3016L20.052 18.3019L20.0415 18.3022C18.9939 18.3043 17.9822 18.459 17.0274 18.7454L12.5679 12.0488L8.16797 14.9789L12.5048 21.4912C10.6529 23.3921 9.51209 25.989 9.51209 28.8526C9.51209 28.8633 9.51248 28.8739 9.51287 28.8845C9.51323 28.8942 9.51358 28.9039 9.51364 28.9136L9.51397 28.9244H14.8093L14.8089 28.9189L14.8086 28.9136C14.8085 28.9038 14.8078 28.8941 14.8071 28.8844C14.8063 28.8739 14.8055 28.8633 14.8055 28.8526C14.8055 25.9562 17.1479 23.6079 20.0415 23.5962C20.0451 23.5961 20.0486 23.5959 20.0522 23.5956C20.0558 23.5953 20.0594 23.5951 20.0631 23.5951C22.9667 23.5951 25.3206 25.9489 25.3206 28.8526C25.3206 28.8654 25.3197 28.8779 25.3187 28.8904C25.3179 28.9017 25.3171 28.913 25.3169 28.9244H30.6122C30.6123 28.913 30.6127 28.9017 30.6131 28.8904C30.6136 28.8778 30.614 28.8653 30.614 28.8526C30.614 25.5962 29.1388 22.6844 26.8203 20.749L30.6628 14.9789L26.2629 12.0488Z" fill="#C9F8DC"/>
  <g filter="url(#filter0_bd_2689_1728)">
    <path d="M20.077 23.6016C17.148 23.6016 14.7734 25.9742 14.7695 28.9022H25.3844C25.3805 25.9742 23.006 23.6016 20.077 23.6016Z" fill="url(#paint0_linear_2689_1728)" shape-rendering="crispEdges"/>
    <path d="M14.9686 28.7071C15.0748 25.9772 17.3211 23.7967 20.077 23.7967C22.8328 23.7967 25.0791 25.9772 25.1854 28.7071H14.9686Z" stroke="url(#paint1_linear_2689_1728)" stroke-width="0.390244" shape-rendering="crispEdges"/>
  </g>
  <g filter="url(#filter1_b_2689_1728)">
    <mask id="path-4-inside-1_2689_1728" fill="white">
      <path fill-rule="evenodd" clip-rule="evenodd" d="M8.87779 10.1006C8.87779 8.16083 10.4502 6.58837 12.39 6.58837C14.3297 6.58837 15.9022 8.16083 15.9022 10.1006C15.9022 12.0403 14.3297 13.6128 12.39 13.6128C10.4502 13.6128 8.87779 12.0403 8.87779 10.1006ZM12.39 3.07617C8.51052 3.07617 5.36559 6.2211 5.36559 10.1006C5.36559 11.3695 5.70204 12.5598 6.2906 13.5872L1.85419 18.0236C1.16839 18.7094 1.16839 19.8213 1.85419 20.5071C2.53999 21.1929 3.65189 21.1929 4.33769 20.5071L8.74084 16.1039C9.80437 16.7518 11.0536 17.125 12.39 17.125C16.2694 17.125 19.4144 13.98 19.4144 10.1006C19.4144 6.2211 16.2694 3.07617 12.39 3.07617Z"/>
    </mask>
    <path fill-rule="evenodd" clip-rule="evenodd" d="M8.87779 10.1006C8.87779 8.16083 10.4502 6.58837 12.39 6.58837C14.3297 6.58837 15.9022 8.16083 15.9022 10.1006C15.9022 12.0403 14.3297 13.6128 12.39 13.6128C10.4502 13.6128 8.87779 12.0403 8.87779 10.1006ZM12.39 3.07617C8.51052 3.07617 5.36559 6.2211 5.36559 10.1006C5.36559 11.3695 5.70204 12.5598 6.2906 13.5872L1.85419 18.0236C1.16839 18.7094 1.16839 19.8213 1.85419 20.5071C2.53999 21.1929 3.65189 21.1929 4.33769 20.5071L8.74084 16.1039C9.80437 16.7518 11.0536 17.125 12.39 17.125C16.2694 17.125 19.4144 13.98 19.4144 10.1006C19.4144 6.2211 16.2694 3.07617 12.39 3.07617Z" fill="url(#paint2_linear_2689_1728)"/>
    <path d="M6.2906 13.5872L6.56654 13.8631L6.77754 13.6521L6.62921 13.3932L6.2906 13.5872ZM1.85419 18.0236L1.57825 17.7476L1.57825 17.7476L1.85419 18.0236ZM1.85419 20.5071L2.13014 20.2311H2.13014L1.85419 20.5071ZM4.33769 20.5071L4.06174 20.2311L4.33769 20.5071ZM8.74084 16.1039L8.94386 15.7706L8.68184 15.611L8.4649 15.828L8.74084 16.1039ZM12.39 6.19812C10.2347 6.19812 8.48754 7.9453 8.48754 10.1006H9.26803C9.26803 8.37636 10.6658 6.97861 12.39 6.97861V6.19812ZM16.2924 10.1006C16.2924 7.9453 14.5452 6.19812 12.39 6.19812V6.97861C14.1142 6.97861 15.5119 8.37636 15.5119 10.1006H16.2924ZM12.39 14.003C14.5452 14.003 16.2924 12.2558 16.2924 10.1006H15.5119C15.5119 11.8248 14.1142 13.2225 12.39 13.2225V14.003ZM8.48754 10.1006C8.48754 12.2558 10.2347 14.003 12.39 14.003V13.2225C10.6658 13.2225 9.26803 11.8248 9.26803 10.1006H8.48754ZM5.75584 10.1006C5.75584 6.43662 8.72604 3.46642 12.39 3.46642V2.68593C8.29499 2.68593 4.97535 6.00557 4.97535 10.1006H5.75584ZM6.62921 13.3932C6.07359 12.4233 5.75584 11.2996 5.75584 10.1006H4.97535C4.97535 11.4393 5.33049 12.6963 5.95198 13.7811L6.62921 13.3932ZM2.13014 18.2995L6.56654 13.8631L6.01465 13.3112L1.57825 17.7476L2.13014 18.2995ZM2.13014 20.2311C1.59674 19.6977 1.59674 18.8329 2.13014 18.2995L1.57825 17.7476C0.740051 18.5858 0.74005 19.9448 1.57825 20.783L2.13014 20.2311ZM4.06174 20.2311C3.52835 20.7645 2.66353 20.7645 2.13014 20.2311L1.57825 20.783C2.41645 21.6212 3.77543 21.6212 4.61363 20.783L4.06174 20.2311ZM8.4649 15.828L4.06174 20.2311L4.61363 20.783L9.01679 16.3799L8.4649 15.828ZM12.39 16.7347C11.1272 16.7347 9.94796 16.3823 8.94386 15.7706L8.53782 16.4372C9.66078 17.1212 10.98 17.5152 12.39 17.5152V16.7347ZM19.0241 10.1006C19.0241 13.7645 16.0539 16.7347 12.39 16.7347V17.5152C16.485 17.5152 19.8046 14.1956 19.8046 10.1006H19.0241ZM12.39 3.46642C16.0539 3.46642 19.0241 6.43662 19.0241 10.1006H19.8046C19.8046 6.00557 16.485 2.68593 12.39 2.68593V3.46642Z" fill="url(#paint3_linear_2689_1728)" mask="url(#path-4-inside-1_2689_1728)"/>
  </g>
  <defs>
    <filter id="filter0_bd_2689_1728" x="6.96465" y="15.7967" width="34.0279" height="28.7154" filterUnits="userSpaceOnUse" color-interpolation-filters="sRGB">
      <feFlood flood-opacity="0" result="BackgroundImageFix"/>
      <feGaussianBlur in="BackgroundImageFix" stdDeviation="3.90244"/>
      <feComposite in2="SourceAlpha" operator="in" result="effect1_backgroundBlur_2689_1728"/>
      <feColorMatrix in="SourceAlpha" type="matrix" values="0 0 0 0 0 0 0 0 0 0 0 0 0 0 0 0 0 0 127 0" result="hardAlpha"/>
      <feOffset dx="3.90244" dy="3.90244"/>
      <feGaussianBlur stdDeviation="5.85366"/>
      <feComposite in2="hardAlpha" operator="out"/>
      <feColorMatrix type="matrix" values="0 0 0 0 0.0196078 0 0 0 0 0.6 0 0 0 0 0.290196 0 0 0 0.3 0"/>
      <feBlend mode="normal" in2="effect1_backgroundBlur_2689_1728" result="effect2_dropShadow_2689_1728"/>
      <feBlend mode="normal" in="SourceGraphic" in2="effect2_dropShadow_2689_1728" result="shape"/>
    </filter>
    <filter id="filter1_b_2689_1728" x="-0.221132" y="1.5152" width="21.1962" height="21.0673" filterUnits="userSpaceOnUse" color-interpolation-filters="sRGB">
      <feFlood flood-opacity="0" result="BackgroundImageFix"/>
      <feGaussianBlur in="BackgroundImageFix" stdDeviation="0.780488"/>
      <feComposite in2="SourceAlpha" operator="in" result="effect1_backgroundBlur_2689_1728"/>
      <feBlend mode="normal" in="SourceGraphic" in2="effect1_backgroundBlur_2689_1728" result="shape"/>
    </filter>
    <linearGradient id="paint0_linear_2689_1728" x1="14.9749" y1="23.6016" x2="19.3701" y2="32.7636" gradientUnits="userSpaceOnUse">
      <stop offset="0.182224" stop-color="#2DE376" stop-opacity="0.5"/>
      <stop offset="0.640234" stop-color="#2DE376" stop-opacity="0.9"/>
    </linearGradient>
    <linearGradient id="paint1_linear_2689_1728" x1="14.7695" y1="22.9848" x2="18.5056" y2="31.8901" gradientUnits="userSpaceOnUse">
      <stop offset="0.249921" stop-color="#2DE376"/>
      <stop offset="0.470896" stop-color="#2DE376" stop-opacity="0"/>
      <stop offset="0.816545" stop-color="#35C168"/>
    </linearGradient>
    <linearGradient id="paint2_linear_2689_1728" x1="14.0365" y1="34.3696" x2="4.2943" y2="-5.40131" gradientUnits="userSpaceOnUse">
      <stop offset="0.0822725" stop-color="#8566FF" stop-opacity="0.3"/>
      <stop offset="0.423605" stop-color="#5F38FB" stop-opacity="0.5"/>
      <stop offset="0.762303" stop-color="#5F38FB" stop-opacity="0.7"/>
    </linearGradient>
    <linearGradient id="paint3_linear_2689_1728" x1="10.3771" y1="42.3787" x2="8.0481" y2="-10.9133" gradientUnits="userSpaceOnUse">
      <stop offset="0.137498" stop-color="#AF9BFD"/>
      <stop offset="0.410212" stop-color="#5F38FB" stop-opacity="0"/>
      <stop offset="0.835001" stop-color="#5F38FB"/>
    </linearGradient>
  </defs>
</svg>