<svg xmlns="http://www.w3.org/2000/svg" width="109" height="18" viewBox="0 0 109 18" fill="none">
  <path d="M108.995 4.98633H106.656V17.712H108.995V4.98633Z" fill="#0B1742"/>
  <path d="M82.4497 17.7114V10.5536C82.4497 8.52259 80.9352 6.99104 78.9267 6.99104C77.2103 6.99104 75.4729 8.30135 75.4729 10.8058V17.7114H73.1328V0.545647L75.4729 0.537109C75.4729 0.537109 75.465 6.05329 75.4729 6.04665C75.7862 5.78245 77.0005 4.70356 79.405 4.70356C82.337 4.70356 84.814 7.15064 84.814 10.0471V17.7114H82.4497Z" fill="#0B1742"/>
  <path d="M108.995 0.537109H106.656V2.87591H108.995V0.537109Z" fill="#0B1742"/>
  <path d="M89.5193 15.3613H87.168V17.7126H89.5193V15.3613Z" fill="#0B1742"/>
  <path d="M17.379 8.18769C17.5369 8.42404 17.6213 8.70206 17.6213 8.9863C17.6213 9.36763 17.4697 9.73331 17.2002 10.003C16.9306 10.2724 16.5649 10.4239 16.1837 10.4239C15.8993 10.4239 15.6214 10.3397 15.385 10.1816C15.1486 10.0237 14.9644 9.79917 14.8555 9.53661C14.7467 9.27386 14.7183 8.98489 14.7737 8.70587C14.8292 8.42705 14.9661 8.17092 15.1672 7.96991C15.3682 7.7689 15.6243 7.63205 15.9032 7.57643C16.1821 7.52101 16.4711 7.54942 16.7338 7.65836C16.9964 7.76709 17.2209 7.95134 17.379 8.18769Z" fill="#0B1742"/>
  <path d="M17.379 15.4631C17.5369 15.6994 17.6213 15.9774 17.6213 16.2617C17.6213 16.643 17.4697 17.0087 17.2002 17.2784C16.9306 17.5478 16.5649 17.6993 16.1837 17.6993C15.8993 17.6993 15.6214 17.6151 15.385 17.457C15.1486 17.2991 14.9644 17.0746 14.8555 16.812C14.7467 16.5492 14.7183 16.2603 14.7737 15.9813C14.8292 15.7024 14.9661 15.4463 15.1672 15.2453C15.3682 15.0443 15.6243 14.9074 15.9032 14.8518C16.1821 14.7964 16.4711 14.8248 16.7338 14.9337C16.9964 15.0425 17.2209 15.2267 17.379 15.4631Z" fill="#0B1742"/>
  <path d="M17.6219 0.078125H14.1719V3.52818H17.6219V0.078125Z" fill="#0B1742"/>
  <path d="M10.2071 15.4631C10.365 15.6994 10.4494 15.9774 10.4494 16.2617C10.4494 16.643 10.2979 17.0087 10.0283 17.2784C9.7587 17.5478 9.39303 17.6993 9.01179 17.6993C8.72745 17.6993 8.44953 17.6151 8.21308 17.457C7.97673 17.2991 7.79249 17.0746 7.68365 16.812C7.57481 16.5492 7.5464 16.2603 7.60182 15.9813C7.65735 15.7024 7.7942 15.4463 7.99531 15.2453C8.19631 15.0443 8.45244 14.9074 8.73137 14.8518C9.01019 14.7964 9.29925 14.8248 9.56191 14.9337C9.82457 15.0425 10.0491 15.2267 10.2071 15.4631Z" fill="#0B1742"/>
  <path d="M10.7391 7.26172H7.28906V10.7118H10.7391V7.26172Z" fill="#0B1742"/>
  <path d="M10.8331 0.078125H7.19141V3.71985H10.8331V0.078125Z" fill="#0B1742"/>
  <path d="M3.84511 0.0820312H0.0117188V3.91543H3.84511V0.0820312Z" fill="#0B1742"/>
  <path d="M3.45006 14.25H0V17.7001H3.45006V14.25Z" fill="#0B1742"/>
  <path d="M3.64173 7.16602H0V10.8077H3.64173V7.16602Z" fill="#0B1742"/>
  <path d="M32.1042 2.16424C33.1325 2.17637 33.5433 2.93289 33.5433 2.93289L35.0269 1.44928L35.0251 1.4487L35.0297 1.44407C34.1735 0.51173 33.1215 0 32.0474 0C31.0035 0 30.1401 0.333665 29.4816 0.991559C28.8236 1.65044 28.49 2.50612 28.49 3.53506V4.98664H26.4922V6.99752H28.4877V17.7123H30.8281V6.99752H35.0218V4.98664H30.8321V3.53506C30.8321 2.69713 31.2826 2.21528 32.1042 2.16424Z" fill="#0B1742"/>
  <path d="M66.2888 15.6989C63.7604 15.6989 61.9254 13.8748 61.9254 11.3615C61.9254 8.88831 63.8166 7.02327 66.3247 7.02327C67.7116 7.02327 68.7994 7.82374 69.2697 8.23792L70.8674 6.64032C70.4088 6.19298 68.6979 4.70703 66.2126 4.70703C62.4683 4.70703 59.5352 7.63003 59.5352 11.3615C59.5352 15.0777 62.4689 17.9886 66.2138 17.9886C68.6038 17.9886 70.2156 16.6828 70.8589 16.0469L69.3036 14.4915C68.7303 15.0268 67.7252 15.6989 66.2888 15.6989Z" fill="#0B1742"/>
  <path d="M55.5401 15.8305C54.7611 15.8305 54.1671 15.3041 54.1671 13.7832V7.00125H58.3623V4.99036H54.1671V2.39258H51.8281V13.7832C51.8281 16.6624 53.1555 17.9694 55.5097 17.9694C56.384 17.9694 57.4626 17.6251 58.4042 16.8408L56.9301 15.3667C56.5597 15.6665 56.0622 15.8305 55.5401 15.8305Z" fill="#0B1742"/>
  <path d="M42.8628 15.6479C40.588 15.6479 38.9468 13.9786 38.6183 12.2546H48.0427V12.2511H49.4101C49.45 11.9561 49.4724 11.6555 49.4724 11.3495C49.4724 7.67668 46.4951 4.69922 42.8222 4.69922C39.1492 4.69922 36.1719 7.67668 36.1719 11.3495C36.1719 15.0224 39.1492 17.9999 42.8222 17.9999C45.0274 17.9999 46.8468 17.2098 48.0995 15.984L46.6421 14.3424C45.6314 15.2319 44.3599 15.6479 42.8628 15.6479ZM42.8628 7.00425C44.9812 7.00425 46.5292 8.46586 46.9763 10.2426H38.6648C39.145 8.39472 40.7268 7.00425 42.8628 7.00425Z" fill="#0B1742"/>
  <path d="M101.438 4.98734L101.437 6.36585C101.437 6.36585 99.9046 4.70508 97.2087 4.70508C93.5505 4.70508 90.5742 7.65351 90.5742 11.2777C90.5742 15.0379 93.4445 17.9834 97.1088 17.9834C100.162 17.9834 101.444 16.3116 101.444 16.3116L101.439 17.713H103.778V4.98734H101.438ZM97.4148 15.6898C97.3392 15.6938 97.2631 15.6959 97.1864 15.6959C95.9865 15.6959 94.8985 15.2076 94.1104 14.4194C93.3179 13.6311 92.8278 12.5421 92.8278 11.3391C92.8278 8.93331 94.7881 6.98304 97.2064 6.98304C99.6244 6.98304 101.585 8.93331 101.585 11.3391C101.585 13.6752 99.7362 15.5814 97.4148 15.6898Z" fill="#0B1742"/>
</svg>