<svg xmlns="http://www.w3.org/2000/svg" width="57" height="41" viewBox="0 0 57 41" fill="none">
  <path d="M10 13.8066V30.0714H38.2145V13.8066L24.0076 21.9722L10 13.8066Z" fill="#D2F9E2"/>
  <g filter="url(#filter0_bd_2359_8511)">
    <path d="M10 9.625V13.8074L24.0076 21.973L38.2145 13.8074V9.625H10Z" fill="url(#paint0_linear_2359_8511)" shape-rendering="crispEdges"/>
    <path d="M24.0084 21.7125L10.2254 13.6778V9.85044H37.989V13.6769L24.0084 21.7125Z" stroke="url(#paint1_linear_2359_8511)" stroke-width="0.450878" shape-rendering="crispEdges"/>
  </g>
  <path d="M33.8853 25.975C31.5197 25.975 29.602 27.8928 29.602 30.2584C29.602 32.624 31.5197 34.5417 33.8853 34.5417C36.251 34.5417 38.1687 32.624 38.1687 30.2584C38.1687 27.8928 36.251 25.975 33.8853 25.975ZM25.995 30.2584C25.995 25.9007 29.5276 22.368 33.8853 22.368C38.2431 22.368 41.7757 25.9007 41.7757 30.2584C41.7757 34.6161 38.2431 38.1487 33.8853 38.1487C29.5276 38.1487 25.995 34.6161 25.995 30.2584Z" fill="url(#paint2_linear_2359_8511)" stroke="url(#paint3_linear_2359_8511)" stroke-width="0.450878"/>
  <defs>
    <filter id="filter0_bd_2359_8511" x="0.982442" y="0.607442" width="55.2675" height="39.4003" filterUnits="userSpaceOnUse" color-interpolation-filters="sRGB">
      <feFlood flood-opacity="0" result="BackgroundImageFix"/>
      <feGaussianBlur in="BackgroundImageFix" stdDeviation="4.50878"/>
      <feComposite in2="SourceAlpha" operator="in" result="effect1_backgroundBlur_2359_8511"/>
      <feColorMatrix in="SourceAlpha" type="matrix" values="0 0 0 0 0 0 0 0 0 0 0 0 0 0 0 0 0 0 127 0" result="hardAlpha"/>
      <feOffset dx="4.50878" dy="4.50878"/>
      <feGaussianBlur stdDeviation="6.76317"/>
      <feComposite in2="hardAlpha" operator="out"/>
      <feColorMatrix type="matrix" values="0 0 0 0 0.0196078 0 0 0 0 0.6 0 0 0 0 0.290196 0 0 0 0.3 0"/>
      <feBlend mode="normal" in2="effect1_backgroundBlur_2359_8511" result="effect2_dropShadow_2359_8511"/>
      <feBlend mode="normal" in="SourceGraphic" in2="effect2_dropShadow_2359_8511" result="shape"/>
    </filter>
    <linearGradient id="paint0_linear_2359_8511" x1="10.5458" y1="9.625" x2="19.9262" y2="31.9362" gradientUnits="userSpaceOnUse">
      <stop offset="0.182224" stop-color="#2DE376" stop-opacity="0.5"/>
      <stop offset="0.640234" stop-color="#2DE376" stop-opacity="0.9"/>
    </linearGradient>
    <linearGradient id="paint1_linear_2359_8511" x1="10" y1="8.18818" x2="17.9019" y2="29.6793" gradientUnits="userSpaceOnUse">
      <stop offset="0.249921" stop-color="#2DE376"/>
      <stop offset="0.470896" stop-color="#2DE376" stop-opacity="0"/>
      <stop offset="0.816545" stop-color="#35C168"/>
    </linearGradient>
    <linearGradient id="paint2_linear_2359_8511" x1="37.1716" y1="50.4477" x2="28.3035" y2="14.5041" gradientUnits="userSpaceOnUse">
      <stop offset="0.0822725" stop-color="#8566FF" stop-opacity="0.3"/>
      <stop offset="0.423605" stop-color="#5F38FB" stop-opacity="0.5"/>
      <stop offset="0.762303" stop-color="#5F38FB" stop-opacity="0.7"/>
    </linearGradient>
    <linearGradient id="paint3_linear_2359_8511" x1="33.8853" y1="57.692" x2="31.7636" y2="9.49035" gradientUnits="userSpaceOnUse">
      <stop offset="0.137498" stop-color="#AF9BFD"/>
      <stop offset="0.410212" stop-color="#5F38FB" stop-opacity="0"/>
      <stop offset="0.835001" stop-color="#5F38FB"/>
    </linearGradient>
  </defs>
</svg>