<svg xmlns="http://www.w3.org/2000/svg" width="67" height="69" viewBox="0 0 67 69" fill="none">
  <path d="M42.0236 27.0198C48.6964 27.0198 54.1057 21.6104 54.1057 14.9376C54.1057 8.26483 48.6964 2.85547 42.0236 2.85547C35.3508 2.85547 29.9414 8.26483 29.9414 14.9376C29.9414 21.6104 35.3508 27.0198 42.0236 27.0198Z" fill="#C9F8DC"/>
  <g filter="url(#filter0_bd_2689_941)">
    <path d="M27.7317 45.0592C36.4784 45.0592 43.5689 37.9686 43.5689 29.222C43.5689 20.4753 36.4784 13.3848 27.7317 13.3848C18.9851 13.3848 11.8945 20.4753 11.8945 29.222C11.8945 37.9686 18.9851 45.0592 27.7317 45.0592Z" fill="url(#paint0_linear_2689_941)" shape-rendering="crispEdges"/>
    <path d="M43.2762 29.222C43.2762 37.807 36.3167 44.7665 27.7317 44.7665C19.1467 44.7665 12.1872 37.807 12.1872 29.222C12.1872 20.637 19.1467 13.6774 27.7317 13.6774C36.3167 13.6774 43.2762 20.637 43.2762 29.222Z" stroke="url(#paint1_linear_2689_941)" stroke-width="0.585366" shape-rendering="crispEdges"/>
  </g>
  <g filter="url(#filter1_b_2689_941)">
    <path d="M49.3639 24.1152H32.557C29.9903 24.1152 27.9023 26.2029 27.9023 28.7696V40.4912C27.9023 43.0579 29.9903 45.1461 32.557 45.1461H49.3639C51.9306 45.1461 54.0186 43.0579 54.0186 40.4912V28.7696C54.0186 26.2029 51.9306 24.1152 49.3639 24.1152ZM32.6762 40.3729V28.8885H49.2448V32.3669H44.9971C43.6789 32.3669 42.6102 33.4354 42.6102 34.7536C42.6102 36.0718 43.6789 37.1402 44.9971 37.1402H49.2448V40.3729H32.6762Z" fill="url(#paint2_linear_2689_941)"/>
    <path d="M32.3835 40.3729V40.6655H32.6762H49.2448H49.5374V40.3729V37.1402V36.8475H49.2448H44.9971C43.8405 36.8475 42.9029 35.9101 42.9029 34.7536C42.9029 33.597 43.8405 32.6596 44.9971 32.6596H49.2448H49.5374V32.3669V28.8885V28.5958H49.2448H32.6762H32.3835V28.8885V40.3729ZM32.557 24.4079H49.3639C51.769 24.4079 53.7259 26.3646 53.7259 28.7696V40.4912C53.7259 42.8963 51.769 44.8534 49.3639 44.8534H32.557C30.1519 44.8534 28.195 42.8963 28.195 40.4912V28.7696C28.195 26.3646 30.1519 24.4079 32.557 24.4079Z" stroke="url(#paint3_linear_2689_941)" stroke-width="0.585366"/>
  </g>
  <defs>
    <filter id="filter0_bd_2689_941" x="0.187215" y="1.67745" width="66.7977" height="66.7958" filterUnits="userSpaceOnUse" color-interpolation-filters="sRGB">
      <feFlood flood-opacity="0" result="BackgroundImageFix"/>
      <feGaussianBlur in="BackgroundImageFix" stdDeviation="5.85366"/>
      <feComposite in2="SourceAlpha" operator="in" result="effect1_backgroundBlur_2689_941"/>
      <feColorMatrix in="SourceAlpha" type="matrix" values="0 0 0 0 0 0 0 0 0 0 0 0 0 0 0 0 0 0 127 0" result="hardAlpha"/>
      <feOffset dx="5.85366" dy="5.85366"/>
      <feGaussianBlur stdDeviation="8.78049"/>
      <feComposite in2="hardAlpha" operator="out"/>
      <feColorMatrix type="matrix" values="0 0 0 0 0.0196078 0 0 0 0 0.6 0 0 0 0 0.290196 0 0 0 0.3 0"/>
      <feBlend mode="normal" in2="effect1_backgroundBlur_2689_941" result="effect2_dropShadow_2689_941"/>
      <feBlend mode="normal" in="SourceGraphic" in2="effect2_dropShadow_2689_941" result="shape"/>
    </filter>
    <filter id="filter1_b_2689_941" x="25.5609" y="21.7738" width="30.8001" height="25.7142" filterUnits="userSpaceOnUse" color-interpolation-filters="sRGB">
      <feFlood flood-opacity="0" result="BackgroundImageFix"/>
      <feGaussianBlur in="BackgroundImageFix" stdDeviation="1.17073"/>
      <feComposite in2="SourceAlpha" operator="in" result="effect1_backgroundBlur_2689_941"/>
      <feBlend mode="normal" in="SourceGraphic" in2="effect1_backgroundBlur_2689_941" result="shape"/>
    </filter>
    <linearGradient id="paint0_linear_2689_941" x1="12.5073" y1="13.3848" x2="46.1542" y2="48.4093" gradientUnits="userSpaceOnUse">
      <stop offset="0.182224" stop-color="#2DE376" stop-opacity="0.5"/>
      <stop offset="0.640234" stop-color="#2DE376" stop-opacity="0.9"/>
    </linearGradient>
    <linearGradient id="paint1_linear_2689_941" x1="11.8945" y1="9.6991" x2="42.7162" y2="46.3856" gradientUnits="userSpaceOnUse">
      <stop offset="0.249921" stop-color="#2DE376"/>
      <stop offset="0.470896" stop-color="#2DE376" stop-opacity="0"/>
      <stop offset="0.816545" stop-color="#35C168"/>
    </linearGradient>
    <linearGradient id="paint2_linear_2689_941" x1="46.2479" y1="60.7895" x2="36.8047" y2="13.2595" gradientUnits="userSpaceOnUse">
      <stop offset="0.0822725" stop-color="#8566FF" stop-opacity="0.3"/>
      <stop offset="0.423605" stop-color="#5F38FB" stop-opacity="0.5"/>
      <stop offset="0.762303" stop-color="#5F38FB" stop-opacity="0.7"/>
    </linearGradient>
    <linearGradient id="paint3_linear_2689_941" x1="40.9605" y1="70.1757" x2="38.7452" y2="7.67958" gradientUnits="userSpaceOnUse">
      <stop offset="0.137498" stop-color="#AF9BFD"/>
      <stop offset="0.410212" stop-color="#5F38FB" stop-opacity="0"/>
      <stop offset="0.835001" stop-color="#5F38FB"/>
    </linearGradient>
  </defs>
</svg>