<svg xmlns="http://www.w3.org/2000/svg" width="39" height="39" viewBox="0 0 39 39" fill="none">
  <path d="M10.9124 2.67698L16.3902 11.5203C17.2304 12.7257 16.3679 14.3783 14.8985 14.3783H3.74722C2.27784 14.3783 1.41532 12.7257 2.25555 11.5203L7.92901 2.67698C8.65257 1.63892 10.1888 1.63892 10.9124 2.67698Z" fill="#C9F8DC"/>
  <path d="M17.2969 20.1808L17.2969 27.9218C17.2969 29.1062 18.257 30.0664 19.4414 30.0664L27.1825 30.0664C28.3669 30.0664 29.327 29.1062 29.327 27.9218L29.327 20.1808C29.327 18.9964 28.3669 18.0362 27.1825 18.0362L19.4414 18.0362C18.257 18.0362 17.2969 18.9964 17.2969 20.1808Z" fill="#C9F8DC"/>
  <g filter="url(#filter0_bd_2689_1824)">
    <path d="M15.9972 23.0568C19.8875 23.0568 23.0412 19.9031 23.0412 16.0128C23.0412 12.1225 19.8875 8.96875 15.9972 8.96875C12.1068 8.96875 8.95312 12.1225 8.95312 16.0128C8.95312 19.9031 12.1068 23.0568 15.9972 23.0568Z" fill="url(#paint0_linear_2689_1824)" shape-rendering="crispEdges"/>
    <path d="M22.8461 16.0128C22.8461 19.7953 19.7797 22.8617 15.9972 22.8617C12.2146 22.8617 9.14825 19.7953 9.14825 16.0128C9.14825 12.2302 12.2146 9.16387 15.9972 9.16387C19.7797 9.16387 22.8461 12.2302 22.8461 16.0128Z" stroke="url(#paint1_linear_2689_1824)" stroke-width="0.390244" shape-rendering="crispEdges"/>
  </g>
  <g filter="url(#filter1_b_2689_1824)">
    <path d="M29.5608 10.3814C29.2431 10.6991 28.8039 10.8958 28.3191 10.8956C27.3492 10.8958 26.5629 10.1095 26.5632 9.13965L26.5629 5.50845L22.9322 5.50872C21.9621 5.50872 21.1758 4.72239 21.1758 3.75281C21.1758 2.7827 21.9621 1.9969 22.9317 1.99636L28.3188 1.99609C28.7847 1.99636 29.2315 2.18122 29.5608 2.51052C29.8901 2.83983 30.0752 3.28635 30.075 3.75227V9.13965C30.0752 9.62444 29.8785 10.0637 29.5608 10.3814Z" fill="url(#paint2_linear_2689_1824)"/>
    <path d="M28.319 10.7004H28.3192C28.75 10.7007 29.1402 10.5261 29.4228 10.2434C29.7055 9.96079 29.8801 9.57062 29.8799 9.13976V9.13965V3.75227V3.75216C29.8801 3.3381 29.7156 2.94123 29.4228 2.6485C29.1302 2.35587 28.7331 2.19149 28.3188 2.19122L28.319 10.7004ZM28.319 10.7004C27.457 10.7007 26.758 10.0017 26.7583 9.13971V9.13964L26.758 5.50844L26.758 5.31332L26.5629 5.31333L22.9322 5.3136C22.9322 5.3136 22.9322 5.3136 22.9322 5.3136C22.0698 5.31359 21.3709 4.61458 21.3709 3.75281C21.3709 2.89055 22.0698 2.19202 22.9317 2.19149C22.9317 2.19149 22.9318 2.19149 22.9318 2.19149L28.3187 2.19122L28.319 10.7004Z" stroke="url(#paint3_linear_2689_1824)" stroke-width="0.390244"/>
  </g>
  <g filter="url(#filter2_b_2689_1824)">
    <path d="M2.43994 21.7153C2.75765 21.3976 3.19691 21.2009 3.68169 21.2012C4.65154 21.2009 5.43787 21.9872 5.4376 22.9571L5.43787 26.5883L9.06853 26.588C10.0386 26.588 10.825 27.3743 10.825 28.3439C10.825 29.3135 10.0386 30.0998 9.06907 30.1004L3.68196 30.1006C3.21604 30.1004 2.76924 29.9155 2.43994 29.5862C2.11064 29.2569 1.92551 28.8104 1.92578 28.3445V22.9571C1.92551 22.4723 2.12223 22.033 2.43994 21.7153Z" fill="url(#paint4_linear_2689_1824)"/>
    <path d="M5.24248 22.957V22.9571L5.24275 26.5883L5.24276 26.7834L5.43788 26.7834L9.06853 26.7831C9.06854 26.7831 9.06854 26.7831 9.06855 26.7831C9.93093 26.7831 10.6299 27.4821 10.6299 28.3439C10.6299 29.2057 9.93088 29.9048 9.06896 29.9052L3.68208 29.9055C3.26775 29.9053 2.87057 29.7409 2.57791 29.4482C2.28518 29.1555 2.12066 28.7586 2.1209 28.3446V28.3445L2.1209 22.9571L2.1209 22.957C2.12066 22.5261 2.29528 22.1359 2.57791 21.8533C2.86055 21.5707 3.25072 21.3961 3.68159 21.3963L3.68175 21.3963C4.54379 21.3961 5.24272 22.095 5.24248 22.957Z" stroke="url(#paint5_linear_2689_1824)" stroke-width="0.390244"/>
  </g>
  <defs>
    <filter id="filter0_bd_2689_1824" x="1.14825" y="1.16387" width="37.5045" height="37.5025" filterUnits="userSpaceOnUse" color-interpolation-filters="sRGB">
      <feFlood flood-opacity="0" result="BackgroundImageFix"/>
      <feGaussianBlur in="BackgroundImageFix" stdDeviation="3.90244"/>
      <feComposite in2="SourceAlpha" operator="in" result="effect1_backgroundBlur_2689_1824"/>
      <feColorMatrix in="SourceAlpha" type="matrix" values="0 0 0 0 0 0 0 0 0 0 0 0 0 0 0 0 0 0 127 0" result="hardAlpha"/>
      <feOffset dx="3.90244" dy="3.90244"/>
      <feGaussianBlur stdDeviation="5.85366"/>
      <feComposite in2="hardAlpha" operator="out"/>
      <feColorMatrix type="matrix" values="0 0 0 0 0.0196078 0 0 0 0 0.6 0 0 0 0 0.290196 0 0 0 0.3 0"/>
      <feBlend mode="normal" in2="effect1_backgroundBlur_2689_1824" result="effect2_dropShadow_2689_1824"/>
      <feBlend mode="normal" in="SourceGraphic" in2="effect2_dropShadow_2689_1824" result="shape"/>
    </filter>
    <filter id="filter1_b_2689_1824" x="19.6148" y="0.435118" width="12.0204" height="12.0223" filterUnits="userSpaceOnUse" color-interpolation-filters="sRGB">
      <feFlood flood-opacity="0" result="BackgroundImageFix"/>
      <feGaussianBlur in="BackgroundImageFix" stdDeviation="0.780488"/>
      <feComposite in2="SourceAlpha" operator="in" result="effect1_backgroundBlur_2689_1824"/>
      <feBlend mode="normal" in="SourceGraphic" in2="effect1_backgroundBlur_2689_1824" result="shape"/>
    </filter>
    <filter id="filter2_b_2689_1824" x="0.364806" y="19.6402" width="12.0204" height="12.0223" filterUnits="userSpaceOnUse" color-interpolation-filters="sRGB">
      <feFlood flood-opacity="0" result="BackgroundImageFix"/>
      <feGaussianBlur in="BackgroundImageFix" stdDeviation="0.780488"/>
      <feComposite in2="SourceAlpha" operator="in" result="effect1_backgroundBlur_2689_1824"/>
      <feBlend mode="normal" in="SourceGraphic" in2="effect1_backgroundBlur_2689_1824" result="shape"/>
    </filter>
    <linearGradient id="paint0_linear_2689_1824" x1="9.22566" y1="8.96875" x2="24.1911" y2="24.5469" gradientUnits="userSpaceOnUse">
      <stop offset="0.182224" stop-color="#2DE376" stop-opacity="0.5"/>
      <stop offset="0.640234" stop-color="#2DE376" stop-opacity="0.9"/>
    </linearGradient>
    <linearGradient id="paint1_linear_2689_1824" x1="8.95313" y1="7.32945" x2="22.6619" y2="23.6468" gradientUnits="userSpaceOnUse">
      <stop offset="0.249921" stop-color="#2DE376"/>
      <stop offset="0.470896" stop-color="#2DE376" stop-opacity="0"/>
      <stop offset="0.816545" stop-color="#35C168"/>
    </linearGradient>
    <linearGradient id="paint2_linear_2689_1824" x1="27.4271" y1="17.5153" x2="22.5648" y2="-2.19189" gradientUnits="userSpaceOnUse">
      <stop offset="0.0822725" stop-color="#8566FF" stop-opacity="0.3"/>
      <stop offset="0.423605" stop-color="#5F38FB" stop-opacity="0.5"/>
      <stop offset="0.762303" stop-color="#5F38FB" stop-opacity="0.7"/>
    </linearGradient>
    <linearGradient id="paint3_linear_2689_1824" x1="25.6254" y1="21.4871" x2="24.462" y2="-4.94087" gradientUnits="userSpaceOnUse">
      <stop offset="0.137498" stop-color="#AF9BFD"/>
      <stop offset="0.410212" stop-color="#5F38FB" stop-opacity="0"/>
      <stop offset="0.835001" stop-color="#5F38FB"/>
    </linearGradient>
    <linearGradient id="paint4_linear_2689_1824" x1="8.17711" y1="36.7203" x2="3.31477" y2="17.0132" gradientUnits="userSpaceOnUse">
      <stop offset="0.0822725" stop-color="#8566FF" stop-opacity="0.3"/>
      <stop offset="0.423605" stop-color="#5F38FB" stop-opacity="0.5"/>
      <stop offset="0.762303" stop-color="#5F38FB" stop-opacity="0.7"/>
    </linearGradient>
    <linearGradient id="paint5_linear_2689_1824" x1="6.37538" y1="40.6922" x2="5.21205" y2="14.2642" gradientUnits="userSpaceOnUse">
      <stop offset="0.137498" stop-color="#AF9BFD"/>
      <stop offset="0.410212" stop-color="#5F38FB" stop-opacity="0"/>
      <stop offset="0.835001" stop-color="#5F38FB"/>
    </linearGradient>
  </defs>
</svg>