<svg xmlns="http://www.w3.org/2000/svg" width="45" height="46" viewBox="0 0 45 46" fill="none">
  <path d="M30.4807 8.82422H13.7858C12.5903 8.82422 11.6211 9.79338 11.6211 10.9889V24.4503C11.6211 25.6459 12.5903 26.615 13.7858 26.615H30.4807C31.6762 26.615 32.6454 25.6459 32.6454 24.4503V10.9889C32.6454 9.79338 31.6762 8.82422 30.4807 8.82422Z" fill="#C9F8DC"/>
  <g filter="url(#filter0_b_2689_2019)">
    <path d="M29.0205 16.1171C25.1472 16.1171 21.9961 12.9658 21.9961 9.09275C21.9961 5.21966 25.1472 2.06836 29.0205 2.06836C32.8938 2.06836 36.0449 5.21966 36.0449 9.09275C36.0449 12.9658 32.8938 16.1171 29.0205 16.1171ZM29.0205 5.58055C27.0839 5.58055 25.5083 7.15601 25.5083 9.09275C25.5083 11.0295 27.0839 12.6049 29.0205 12.6049C30.957 12.6049 32.5327 11.0295 32.5327 9.09275C32.5327 7.15601 30.957 5.58055 29.0205 5.58055Z" fill="url(#paint0_linear_2689_2019)"/>
    <path d="M29.0205 15.922C25.255 15.922 22.1912 12.8581 22.1912 9.09275C22.1912 5.32741 25.255 2.26348 29.0205 2.26348C32.786 2.26348 35.8498 5.32741 35.8498 9.09275C35.8498 12.8581 32.786 15.922 29.0205 15.922ZM29.0205 5.38543C26.9762 5.38543 25.3132 7.04824 25.3132 9.09275C25.3132 11.1373 26.9762 12.8001 29.0205 12.8001C31.0648 12.8001 32.7278 11.1373 32.7278 9.09275C32.7278 7.04824 31.0648 5.38543 29.0205 5.38543Z" stroke="url(#paint1_linear_2689_2019)" stroke-width="0.390244"/>
  </g>
  <g filter="url(#filter1_bd_2689_2019)">
    <path d="M26.8127 12.1426H10.1178C8.92229 12.1426 7.95312 13.1117 7.95312 14.3073V27.7687C7.95312 28.9642 8.92229 29.9334 10.1178 29.9334H26.8127C28.0083 29.9334 28.9774 28.9642 28.9774 27.7687V14.3073C28.9774 13.1117 28.0083 12.1426 26.8127 12.1426Z" fill="url(#paint2_linear_2689_2019)" shape-rendering="crispEdges"/>
    <path d="M10.1178 12.3377H26.8127C27.9005 12.3377 28.7823 13.2195 28.7823 14.3073V27.7687C28.7823 28.8565 27.9005 29.7383 26.8127 29.7383H10.1178C9.03005 29.7383 8.14825 28.8565 8.14825 27.7687V14.3073C8.14825 13.2195 9.03005 12.3377 10.1178 12.3377Z" stroke="url(#paint3_linear_2689_2019)" stroke-width="0.390244" shape-rendering="crispEdges"/>
  </g>
  <path d="M23.8488 18.3926H23.8487C22.5149 18.3926 21.4336 19.4739 21.4336 20.8077V20.8077C21.4336 22.1416 22.5149 23.2229 23.8487 23.2229H23.8488C25.1826 23.2229 26.2639 22.1416 26.2639 20.8077V20.8077C26.2639 19.4739 25.1826 18.3926 23.8488 18.3926Z" fill="#D2F9E2"/>
  <defs>
    <filter id="filter0_b_2689_2019" x="20.4351" y="0.507384" width="17.1688" height="17.1708" filterUnits="userSpaceOnUse" color-interpolation-filters="sRGB">
      <feFlood flood-opacity="0" result="BackgroundImageFix"/>
      <feGaussianBlur in="BackgroundImageFix" stdDeviation="0.780488"/>
      <feComposite in2="SourceAlpha" operator="in" result="effect1_backgroundBlur_2689_2019"/>
      <feBlend mode="normal" in="SourceGraphic" in2="effect1_backgroundBlur_2689_2019" result="shape"/>
    </filter>
    <filter id="filter1_bd_2689_2019" x="0.148247" y="4.3377" width="44.4381" height="41.2056" filterUnits="userSpaceOnUse" color-interpolation-filters="sRGB">
      <feFlood flood-opacity="0" result="BackgroundImageFix"/>
      <feGaussianBlur in="BackgroundImageFix" stdDeviation="3.90244"/>
      <feComposite in2="SourceAlpha" operator="in" result="effect1_backgroundBlur_2689_2019"/>
      <feColorMatrix in="SourceAlpha" type="matrix" values="0 0 0 0 0 0 0 0 0 0 0 0 0 0 0 0 0 0 127 0" result="hardAlpha"/>
      <feOffset dx="3.90244" dy="3.90244"/>
      <feGaussianBlur stdDeviation="5.85366"/>
      <feComposite in2="hardAlpha" operator="out"/>
      <feColorMatrix type="matrix" values="0 0 0 0 0.0196078 0 0 0 0 0.6 0 0 0 0 0.290196 0 0 0 0.3 0"/>
      <feBlend mode="normal" in2="effect1_backgroundBlur_2689_2019" result="effect2_dropShadow_2689_2019"/>
      <feBlend mode="normal" in="SourceGraphic" in2="effect2_dropShadow_2689_2019" result="shape"/>
    </filter>
    <linearGradient id="paint0_linear_2689_2019" x1="31.8648" y1="26.567" x2="24.1893" y2="-4.54294" gradientUnits="userSpaceOnUse">
      <stop offset="0.0822725" stop-color="#8566FF" stop-opacity="0.3"/>
      <stop offset="0.423605" stop-color="#5F38FB" stop-opacity="0.5"/>
      <stop offset="0.762303" stop-color="#5F38FB" stop-opacity="0.7"/>
    </linearGradient>
    <linearGradient id="paint1_linear_2689_2019" x1="29.0205" y1="32.8371" x2="27.1841" y2="-8.8824" gradientUnits="userSpaceOnUse">
      <stop offset="0.137498" stop-color="#AF9BFD"/>
      <stop offset="0.410212" stop-color="#5F38FB" stop-opacity="0"/>
      <stop offset="0.835001" stop-color="#5F38FB"/>
    </linearGradient>
    <linearGradient id="paint2_linear_2689_2019" x1="8.35985" y1="12.1426" x2="26.8752" y2="34.919" gradientUnits="userSpaceOnUse">
      <stop offset="0.182224" stop-color="#2DE376" stop-opacity="0.5"/>
      <stop offset="0.640234" stop-color="#2DE376" stop-opacity="0.9"/>
    </linearGradient>
    <linearGradient id="paint3_linear_2689_2019" x1="7.95313" y1="10.0724" x2="24.5527" y2="33.4217" gradientUnits="userSpaceOnUse">
      <stop offset="0.249921" stop-color="#2DE376"/>
      <stop offset="0.470896" stop-color="#2DE376" stop-opacity="0"/>
      <stop offset="0.816545" stop-color="#35C168"/>
    </linearGradient>
  </defs>
</svg>