<svg width="1920" height="1080" viewBox="0 0 1920 1080" fill="none" xmlns="http://www.w3.org/2000/svg">
<rect width="1920" height="1080" fill="white"/>
<rect x="352" y="120.878" width="280" height="120" rx="24" fill="#E2E2E2"/>
<rect x="360" y="128.878" width="264" height="104" rx="16" fill="white"/>
<rect x="368" y="137.378" width="87" height="87" rx="12" fill="#FFE5DC"/>
<path d="M415.735 150.387H407.131C392.888 150.387 381.339 161.298 381.339 174.754V186.81C381.339 187.144 381.348 187.47 381.367 187.796C381.917 200.794 393.243 211.176 407.131 211.176H415.735C429.624 211.176 440.95 200.794 441.5 187.796C441.518 187.47 441.528 187.135 441.528 186.81V174.754C441.528 161.298 429.978 150.387 415.735 150.387Z" stroke="#121212" stroke-width="1.23286" stroke-miterlimit="10"/>
<path d="M415.735 150.387H407.131C392.888 150.387 381.339 161.298 381.339 174.754V186.81C381.339 187.144 381.348 187.47 381.367 187.796C381.917 200.794 393.243 211.176 407.131 211.176H415.735C429.624 211.176 440.95 200.794 441.5 187.796C441.518 187.47 441.528 187.135 441.528 186.81V174.754C441.528 161.298 429.978 150.387 415.735 150.387Z" fill="white"/>
<path d="M417.256 210.745C423.24 209.996 429.028 208.526 433.671 204.625C434.733 203.577 435.749 202.45 436.84 201.27C437.427 200.503 437.968 199.702 438.471 198.901C438.499 198.804 438.518 198.716 438.555 198.619C439.72 195.968 441.23 193.52 441.687 190.711C441.696 190.438 441.687 190.174 441.659 189.936C441.557 189.284 441.612 188.686 441.771 188.131C441.547 188.043 441.333 187.946 441.137 187.823C440.96 190.623 439.86 193.318 437.996 195.51C433.065 201.322 425.496 205.039 416.994 205.039H405.893C397.401 205.039 389.823 201.314 384.891 195.51C382.85 193.106 381.722 190.112 381.713 187.039V186.713C381.303 188.008 381.06 189.276 381.368 190.949C381.564 192.05 381.834 193.133 382.142 194.207C382.328 194.445 382.496 194.727 382.636 195.044C383.931 197.923 385.525 199.773 387.483 202.221C388.928 204.035 389.962 205.814 391.957 207.17C396.459 210.234 403.003 211.097 408.4 211.282C410.647 211.361 413.061 211.405 415.484 211.326C415.997 211.036 416.584 210.833 417.265 210.745H417.256Z" fill="url(#paint0_linear_75_606)"/>
<path d="M416.258 154.579H406.965C395.356 154.579 385.945 163.47 385.945 174.437V175.819C385.945 186.787 395.356 195.677 406.965 195.677H416.258C427.867 195.677 437.278 186.787 437.278 175.819V174.437C437.278 163.47 427.867 154.579 416.258 154.579Z" fill="#121212"/>
<path d="M402.258 174.587H397.066V169.682H402.258V174.587ZM397.056 174.587H391.864V179.492H397.056V174.587ZM407.45 174.587H402.258V179.492H407.45V174.587ZM426.093 169.682H420.901V174.587H426.093V169.682ZM420.901 174.587H415.709V179.492H420.901V174.587ZM431.294 174.587H426.102V179.492H431.294V174.587Z" fill="white"/>
<path d="M415.735 150.387H407.131C392.888 150.387 381.339 161.298 381.339 174.754V186.81C381.339 187.144 381.348 187.47 381.367 187.796C381.917 200.794 393.243 211.176 407.131 211.176H415.735C429.624 211.176 440.95 200.794 441.5 187.796C441.518 187.47 441.528 187.135 441.528 186.81V174.754C441.528 161.298 429.978 150.387 415.735 150.387Z" stroke="#121212" stroke-width="1.23286" stroke-miterlimit="10"/>
<path d="M487.134 176.878L485.572 172.742H478.884L477.322 176.878H474.682L480.644 161.478H483.812L489.774 176.878H487.134ZM479.786 170.388H484.67L482.228 163.942L479.786 170.388ZM498.927 168.694H507.243V176.878H505.087V173.798C504.361 175.778 502.271 177.142 499.521 177.142C495.165 177.142 491.799 173.798 491.799 169.2C491.799 164.602 495.187 161.214 499.741 161.214C503.327 161.214 506.143 163.326 507.111 166.45H504.449C503.613 164.69 501.897 163.59 499.719 163.59C496.573 163.59 494.307 165.944 494.307 169.244C494.307 172.368 496.375 174.832 499.697 174.832C502.271 174.832 504.317 173.314 504.713 170.806H498.927V168.694ZM521.896 163.854H514.328V167.836H521.346V170.212H514.328V174.502H521.896V176.878H511.842V161.478H521.896V163.854ZM536 161.478H538.486V176.878H535.538L527.838 164.976L528.08 170.432V176.878H525.594V161.478H528.52L536.22 173.358L536 167.924V161.478ZM553.847 161.478V163.854H549.139V176.878H546.653V163.854H541.967V161.478H553.847Z" fill="#6A2121"/>
<path opacity="0.6" d="M482.358 201.878L481.364 199.246H477.108L476.114 201.878H474.434L478.228 192.078H480.244L484.038 201.878H482.358ZM477.682 197.748H480.79L479.236 193.646L477.682 197.748ZM490.883 194.178H492.465V201.78C492.465 204.076 491.023 205.546 488.741 205.546C486.907 205.546 485.241 204.594 484.905 202.676H486.543C486.809 203.67 487.663 204.132 488.699 204.132C490.113 204.132 490.883 203.334 490.883 201.836V200.52C490.309 201.374 489.385 201.962 488.195 201.962C486.137 201.962 484.639 200.296 484.639 197.986C484.639 195.676 486.165 194.01 488.195 194.01C489.385 194.01 490.323 194.612 490.883 195.494V194.178ZM488.531 200.45C489.875 200.45 490.897 199.428 490.897 197.986C490.897 196.558 489.875 195.522 488.531 195.522C487.187 195.522 486.235 196.558 486.235 197.986C486.235 199.428 487.201 200.45 488.531 200.45ZM498.035 194.01C500.513 194.01 502.081 195.928 501.927 198.462H495.669C495.795 199.876 496.789 200.66 498.077 200.66C499.001 200.66 499.771 200.268 500.135 199.512H501.773C501.171 201.234 499.701 202.046 498.063 202.046C495.725 202.046 494.059 200.366 494.059 198.042C494.059 195.718 495.711 194.01 498.035 194.01ZM498.035 195.382C496.831 195.382 496.019 196.138 495.753 197.174H500.233C499.995 196.124 499.197 195.382 498.035 195.382ZM507.629 194.01C509.365 194.01 510.401 195.144 510.401 197.02V201.878H508.819V197.342C508.819 196.152 508.301 195.522 507.139 195.522C505.781 195.522 505.053 196.404 505.053 197.888V201.878H503.471V194.178H505.053V195.452C505.599 194.556 506.425 194.01 507.629 194.01ZM517.642 200.198L517.922 201.486C517.502 201.738 516.606 202.046 515.724 202.046C514.142 202.046 512.91 201.052 512.91 198.924V195.662H511.482V194.178H512.91V192.428L514.492 192.078V194.178H517.656V195.662H514.492V198.84C514.492 199.96 515.01 200.576 516.004 200.576C516.494 200.576 517.04 200.408 517.642 200.198ZM523.193 195.354C524.985 195.354 526.497 196.558 526.497 198.588C526.497 200.674 524.915 202.046 522.843 202.046C520.967 202.046 519.245 200.996 519.021 198.868H520.617C520.841 199.988 521.751 200.548 522.829 200.548C524.061 200.548 524.887 199.694 524.887 198.574C524.887 197.412 524.033 196.67 522.857 196.67C521.877 196.67 521.233 197.118 520.869 197.706H519.357L520.561 192.078H526.035V193.59H521.751L521.247 195.97C521.737 195.592 522.353 195.354 523.193 195.354ZM531.723 202.046C529.441 202.046 527.733 200.324 527.733 198.028C527.733 195.732 529.441 194.01 531.737 194.01C533.557 194.01 535.167 195.116 535.517 196.978H533.879C533.585 196.012 532.731 195.48 531.737 195.48C530.309 195.48 529.329 196.544 529.329 198.028C529.329 199.526 530.337 200.576 531.723 200.576C532.731 200.576 533.585 200.016 533.879 199.064H535.517C535.153 200.968 533.529 202.046 531.723 202.046Z" fill="#6A2121"/>
<rect x="664" y="120.878" width="280" height="120" rx="24" fill="#E2E2E2"/>
<rect x="672" y="128.878" width="264" height="104" rx="16" fill="white"/>
<rect x="721.75" y="161.519" width="38" height="38" rx="8" fill="#FFE5DC"/>
<path d="M750.194 181.763H744.528V180.504H747.046C748.699 180.504 749.564 178.497 748.345 177.317L742.049 171.02C741.34 170.273 740.12 170.273 739.412 171.02L733.116 177.317C731.896 178.497 732.762 180.504 734.454 180.504H736.972V181.763H731.306C730.243 181.763 729.417 182.629 729.417 183.652V188.689C729.417 189.751 730.243 190.578 731.306 190.578H750.194C751.217 190.578 752.083 189.751 752.083 188.689V183.652C752.083 182.629 751.217 181.763 750.194 181.763ZM734.454 178.615L740.75 172.319L747.046 178.615H742.639V184.911H738.861V178.615H734.454ZM750.194 188.689H731.306V183.652H736.972V184.911C736.972 185.974 737.799 186.8 738.861 186.8H742.639C743.662 186.8 744.528 185.974 744.528 184.911V183.652H750.194V188.689ZM748.62 186.17C748.62 185.659 748.187 185.226 747.676 185.226C747.125 185.226 746.731 185.659 746.731 186.17C746.731 186.721 747.125 187.115 747.676 187.115C748.187 187.115 748.62 186.721 748.62 186.17Z" fill="#6A2121"/>
<path d="M782.816 188.519L778.416 182.777H776.04V188.519H773.554V173.119H779.912C783.256 173.119 785.148 175.099 785.148 178.003C785.148 180.533 783.718 182.183 781.276 182.645L785.874 188.519H782.816ZM776.04 175.495V180.577H779.648C781.694 180.577 782.64 179.521 782.64 178.025C782.64 176.529 781.672 175.495 779.648 175.495H776.04ZM799.511 175.495H791.943V179.477H798.961V181.853H791.943V186.143H799.511V188.519H789.457V173.119H799.511V175.495ZM809.786 180.335H818.102V188.519H815.946V185.439C815.22 187.419 813.13 188.783 810.38 188.783C806.024 188.783 802.658 185.439 802.658 180.841C802.658 176.243 806.046 172.855 810.6 172.855C814.186 172.855 817.002 174.967 817.97 178.091H815.308C814.472 176.331 812.756 175.231 810.578 175.231C807.432 175.231 805.166 177.585 805.166 180.885C805.166 184.009 807.234 186.473 810.556 186.473C813.13 186.473 815.176 184.955 815.572 182.447H809.786V180.335ZM822.702 188.519V173.119H825.188V188.519H822.702ZM835.337 179.455C839.231 180.313 841.365 181.127 841.365 184.097C841.365 187.463 838.373 188.783 835.623 188.783C831.311 188.783 829.419 186.407 829.001 183.745H831.509C831.971 185.527 833.159 186.451 835.601 186.451C837.669 186.451 838.857 185.637 838.857 184.207C838.857 182.777 837.603 182.535 834.743 181.897C831.751 181.237 829.419 180.401 829.419 177.519C829.419 174.461 832.125 172.855 835.073 172.855C838.945 172.855 840.727 174.857 841.167 177.299H838.659C838.219 176.023 837.163 175.187 835.095 175.187C833.027 175.187 831.905 176.111 831.905 177.453C831.905 178.553 832.785 178.905 835.337 179.455ZM855.748 173.119V175.495H851.04V188.519H848.554V175.495H843.868V173.119H855.748ZM869.378 175.495H861.81V179.477H868.828V181.853H861.81V186.143H869.378V188.519H859.324V173.119H869.378V175.495ZM882.577 188.519L878.177 182.777H875.801V188.519H873.315V173.119H879.673C883.017 173.119 884.909 175.099 884.909 178.003C884.909 180.533 883.479 182.183 881.037 182.645L885.635 188.519H882.577ZM875.801 175.495V180.577H879.409C881.455 180.577 882.401 179.521 882.401 178.025C882.401 176.529 881.433 175.495 879.409 175.495H875.801Z" fill="#6A2121"/>
<rect x="976" y="120.878" width="280" height="120" rx="24" fill="#E2E2E2"/>
<rect x="984" y="128.878" width="264" height="104" rx="16" fill="white"/>
<rect x="1042.5" y="161.878" width="38" height="38" rx="8" fill="#FFE5DC"/>
<path d="M1066.32 184.124L1066.31 184.117L1066.3 184.112L1066.3 184.11C1066.25 184.075 1066.19 184.036 1066.13 184.006C1066.07 183.975 1066 183.95 1065.92 183.95H1065.66C1066.72 182.65 1067.4 180.956 1067.4 179.126C1067.4 174.944 1063.95 171.496 1059.77 171.496C1055.55 171.496 1052.14 174.944 1052.14 179.126C1052.14 183.345 1055.55 186.757 1059.77 186.757C1061.6 186.757 1063.26 186.114 1064.59 185.057V185.317C1064.59 185.449 1064.63 185.577 1064.72 185.698L1064.72 185.707L1064.73 185.714L1069.11 190.094C1069.32 190.308 1069.68 190.322 1069.87 190.091L1070.69 189.265C1070.93 189.076 1070.91 188.718 1070.7 188.505L1066.32 184.124ZM1059.77 184.819C1056.6 184.819 1054.07 182.293 1054.07 179.126C1054.07 175.995 1056.6 173.434 1059.77 173.434C1062.9 173.434 1065.46 175.996 1065.46 179.126C1065.46 182.293 1062.9 184.819 1059.77 184.819Z" fill="#6A2121" stroke="#6A2121" stroke-width="0.2"/>
<path d="M1099.74 179.814C1103.63 180.672 1105.77 181.486 1105.77 184.456C1105.77 187.822 1102.77 189.142 1100.02 189.142C1095.71 189.142 1093.82 186.766 1093.4 184.104H1095.91C1096.37 185.886 1097.56 186.81 1100 186.81C1102.07 186.81 1103.26 185.996 1103.26 184.566C1103.26 183.136 1102 182.894 1099.14 182.256C1096.15 181.596 1093.82 180.76 1093.82 177.878C1093.82 174.82 1096.53 173.214 1099.47 173.214C1103.35 173.214 1105.13 175.216 1105.57 177.658H1103.06C1102.62 176.382 1101.56 175.546 1099.5 175.546C1097.43 175.546 1096.31 176.47 1096.31 177.812C1096.31 178.912 1097.19 179.264 1099.74 179.814ZM1119.62 175.854H1112.05V179.836H1119.07V182.212H1112.05V186.502H1119.62V188.878H1109.56V173.478H1119.62V175.854ZM1134.75 188.878L1133.19 184.742H1126.5L1124.94 188.878H1122.3L1128.26 173.478H1131.43L1137.39 188.878H1134.75ZM1127.41 182.388H1132.29L1129.85 175.942L1127.41 182.388ZM1150.24 188.878L1145.84 183.136H1143.47V188.878H1140.98V173.478H1147.34C1150.68 173.478 1152.57 175.458 1152.57 178.362C1152.57 180.892 1151.14 182.542 1148.7 183.004L1153.3 188.878H1150.24ZM1143.47 175.854V180.936H1147.07C1149.12 180.936 1150.07 179.88 1150.07 178.384C1150.07 176.888 1149.1 175.854 1147.07 175.854H1143.47ZM1163.65 189.142C1159.08 189.142 1155.71 185.732 1155.71 181.178C1155.71 176.624 1159.08 173.214 1163.65 173.214C1167.22 173.214 1170.05 175.37 1171.02 178.56H1168.36C1167.55 176.756 1165.81 175.59 1163.63 175.59C1160.48 175.59 1158.22 177.966 1158.22 181.178C1158.22 184.39 1160.48 186.766 1163.63 186.766C1165.81 186.766 1167.55 185.6 1168.36 183.796H1171.02C1170.05 186.986 1167.22 189.142 1163.65 189.142ZM1185.21 173.478H1187.7V188.878H1185.21V182.146H1177.31V188.878H1174.83V173.478H1177.31V179.77H1185.21V173.478Z" fill="#6A2121"/>
<rect x="1288" y="120.878" width="280" height="120" rx="24" fill="#E2E2E2"/>
<rect x="1296" y="128.878" width="264" height="104" rx="16" fill="white"/>
<rect x="1304" y="137.378" width="87" height="87" rx="12" fill="#FFE5DC"/>
<path d="M1351.74 150.387H1343.13C1328.89 150.387 1317.34 161.298 1317.34 174.754V186.81C1317.34 187.144 1317.35 187.47 1317.37 187.796C1317.92 200.794 1329.24 211.176 1343.13 211.176H1351.74C1365.62 211.176 1376.95 200.794 1377.5 187.796C1377.52 187.47 1377.53 187.135 1377.53 186.81V174.754C1377.53 161.298 1365.98 150.387 1351.74 150.387Z" stroke="#121212" stroke-width="1.23286" stroke-miterlimit="10"/>
<path d="M1351.74 150.387H1343.13C1328.89 150.387 1317.34 161.298 1317.34 174.754V186.81C1317.34 187.144 1317.35 187.47 1317.37 187.796C1317.92 200.794 1329.24 211.176 1343.13 211.176H1351.74C1365.62 211.176 1376.95 200.794 1377.5 187.796C1377.52 187.47 1377.53 187.135 1377.53 186.81V174.754C1377.53 161.298 1365.98 150.387 1351.74 150.387Z" fill="white"/>
<path d="M1353.26 210.745C1359.24 209.996 1365.03 208.526 1369.67 204.625C1370.73 203.577 1371.75 202.45 1372.84 201.27C1373.43 200.503 1373.97 199.702 1374.47 198.901C1374.5 198.804 1374.52 198.716 1374.55 198.619C1375.72 195.968 1377.23 193.52 1377.69 190.711C1377.7 190.438 1377.69 190.174 1377.66 189.936C1377.56 189.284 1377.61 188.686 1377.77 188.131C1377.55 188.043 1377.33 187.946 1377.14 187.823C1376.96 190.623 1375.86 193.318 1374 195.51C1369.06 201.322 1361.5 205.039 1352.99 205.039H1341.89C1333.4 205.039 1325.82 201.314 1320.89 195.51C1318.85 193.106 1317.72 190.112 1317.71 187.039V186.713C1317.3 188.008 1317.06 189.276 1317.37 190.949C1317.56 192.05 1317.83 193.133 1318.14 194.207C1318.33 194.445 1318.5 194.727 1318.64 195.044C1319.93 197.923 1321.53 199.773 1323.48 202.221C1324.93 204.035 1325.96 205.814 1327.96 207.17C1332.46 210.234 1339 211.097 1344.4 211.282C1346.65 211.361 1349.06 211.405 1351.48 211.326C1352 211.036 1352.58 210.833 1353.26 210.745H1353.26Z" fill="url(#paint1_linear_75_606)"/>
<path d="M1352.26 154.579H1342.96C1331.36 154.579 1321.94 163.47 1321.94 174.437V175.819C1321.94 186.787 1331.36 195.677 1342.96 195.677H1352.26C1363.87 195.677 1373.28 186.787 1373.28 175.819V174.437C1373.28 163.47 1363.87 154.579 1352.26 154.579Z" fill="#121212"/>
<path d="M1338.26 174.587H1333.07V169.682H1338.26V174.587ZM1333.06 174.587H1327.86V179.492H1333.06V174.587ZM1343.45 174.587H1338.26V179.492H1343.45V174.587ZM1362.09 169.682H1356.9V174.587H1362.09V169.682ZM1356.9 174.587H1351.71V179.492H1356.9V174.587ZM1367.29 174.587H1362.1V179.492H1367.29V174.587Z" fill="white"/>
<path d="M1351.74 150.387H1343.13C1328.89 150.387 1317.34 161.298 1317.34 174.754V186.81C1317.34 187.144 1317.35 187.47 1317.37 187.796C1317.92 200.794 1329.24 211.176 1343.13 211.176H1351.74C1365.62 211.176 1376.95 200.794 1377.5 187.796C1377.52 187.47 1377.53 187.135 1377.53 186.81V174.754C1377.53 161.298 1365.98 150.387 1351.74 150.387Z" stroke="#121212" stroke-width="1.23286" stroke-miterlimit="10"/>
<path d="M1423.13 176.878L1421.57 172.742H1414.88L1413.32 176.878H1410.68L1416.64 161.478H1419.81L1425.77 176.878H1423.13ZM1415.79 170.388H1420.67L1418.23 163.942L1415.79 170.388ZM1434.93 168.694H1443.24V176.878H1441.09V173.798C1440.36 175.778 1438.27 177.142 1435.52 177.142C1431.16 177.142 1427.8 173.798 1427.8 169.2C1427.8 164.602 1431.19 161.214 1435.74 161.214C1439.33 161.214 1442.14 163.326 1443.11 166.45H1440.45C1439.61 164.69 1437.9 163.59 1435.72 163.59C1432.57 163.59 1430.31 165.944 1430.31 169.244C1430.31 172.368 1432.37 174.832 1435.7 174.832C1438.27 174.832 1440.32 173.314 1440.71 170.806H1434.93V168.694ZM1457.9 163.854H1450.33V167.836H1457.35V170.212H1450.33V174.502H1457.9V176.878H1447.84V161.478H1457.9V163.854ZM1472 161.478H1474.49V176.878H1471.54L1463.84 164.976L1464.08 170.432V176.878H1461.59V161.478H1464.52L1472.22 173.358L1472 167.924V161.478ZM1489.85 161.478V163.854H1485.14V176.878H1482.65V163.854H1477.97V161.478H1489.85Z" fill="#6A2121"/>
<path opacity="0.6" d="M1418.36 201.878L1417.36 199.246H1413.11L1412.11 201.878H1410.43L1414.23 192.078H1416.24L1420.04 201.878H1418.36ZM1413.68 197.748H1416.79L1415.24 193.646L1413.68 197.748ZM1426.88 194.178H1428.46V201.78C1428.46 204.076 1427.02 205.546 1424.74 205.546C1422.91 205.546 1421.24 204.594 1420.9 202.676H1422.54C1422.81 203.67 1423.66 204.132 1424.7 204.132C1426.11 204.132 1426.88 203.334 1426.88 201.836V200.52C1426.31 201.374 1425.38 201.962 1424.19 201.962C1422.14 201.962 1420.64 200.296 1420.64 197.986C1420.64 195.676 1422.16 194.01 1424.19 194.01C1425.38 194.01 1426.32 194.612 1426.88 195.494V194.178ZM1424.53 200.45C1425.87 200.45 1426.9 199.428 1426.9 197.986C1426.9 196.558 1425.87 195.522 1424.53 195.522C1423.19 195.522 1422.23 196.558 1422.23 197.986C1422.23 199.428 1423.2 200.45 1424.53 200.45ZM1434.03 194.01C1436.51 194.01 1438.08 195.928 1437.93 198.462H1431.67C1431.79 199.876 1432.79 200.66 1434.08 200.66C1435 200.66 1435.77 200.268 1436.13 199.512H1437.77C1437.17 201.234 1435.7 202.046 1434.06 202.046C1431.72 202.046 1430.06 200.366 1430.06 198.042C1430.06 195.718 1431.71 194.01 1434.03 194.01ZM1434.03 195.382C1432.83 195.382 1432.02 196.138 1431.75 197.174H1436.23C1435.99 196.124 1435.2 195.382 1434.03 195.382ZM1443.63 194.01C1445.36 194.01 1446.4 195.144 1446.4 197.02V201.878H1444.82V197.342C1444.82 196.152 1444.3 195.522 1443.14 195.522C1441.78 195.522 1441.05 196.404 1441.05 197.888V201.878H1439.47V194.178H1441.05V195.452C1441.6 194.556 1442.42 194.01 1443.63 194.01ZM1453.64 200.198L1453.92 201.486C1453.5 201.738 1452.61 202.046 1451.72 202.046C1450.14 202.046 1448.91 201.052 1448.91 198.924V195.662H1447.48V194.178H1448.91V192.428L1450.49 192.078V194.178H1453.66V195.662H1450.49V198.84C1450.49 199.96 1451.01 200.576 1452 200.576C1452.49 200.576 1453.04 200.408 1453.64 200.198ZM1460.99 194.178H1462.58V201.878H1460.99V200.59C1460.43 201.472 1459.51 202.046 1458.31 202.046C1456.25 202.046 1454.75 200.38 1454.75 198.028C1454.75 195.676 1456.28 194.01 1458.29 194.01C1459.51 194.01 1460.43 194.612 1460.99 195.494V194.178ZM1458.64 200.534C1459.99 200.534 1461.01 199.512 1461.01 198.028C1461.01 196.558 1459.99 195.522 1458.64 195.522C1457.3 195.522 1456.35 196.558 1456.35 198.028C1456.35 199.512 1457.31 200.534 1458.64 200.534ZM1465.21 190.706C1465.81 190.706 1466.24 191.112 1466.24 191.672C1466.24 192.246 1465.81 192.666 1465.21 192.666C1464.63 192.666 1464.18 192.246 1464.18 191.672C1464.18 191.112 1464.63 190.706 1465.21 190.706ZM1464.42 201.878V194.178H1466V201.878H1464.42ZM1471.72 191.91C1474.29 191.91 1475.81 193.828 1475.81 196.978C1475.81 200.128 1474.29 202.046 1471.72 202.046C1469.17 202.046 1467.64 200.156 1467.64 196.978C1467.64 193.8 1469.17 191.91 1471.72 191.91ZM1471.72 200.534C1473.29 200.534 1474.21 199.442 1474.21 196.978C1474.21 194.514 1473.29 193.422 1471.72 193.422C1470.16 193.422 1469.24 194.514 1469.24 196.978C1469.24 199.442 1470.16 200.534 1471.72 200.534Z" fill="#6A2121"/>
<path d="M497.544 269.788V959.122" stroke="#121212" stroke-width="2" stroke-dasharray="6 12"/>
<path d="M804 269.788V959.122" stroke="#121212" stroke-width="2" stroke-dasharray="6 12"/>
<path d="M1116 269.788V959.122" stroke="#121212" stroke-width="2" stroke-dasharray="6 12"/>
<path d="M1428 269.788V959.122" stroke="#121212" stroke-width="2" stroke-dasharray="6 12"/>
<path fill-rule="evenodd" clip-rule="evenodd" d="M495.027 373.292C492.818 373.292 491.027 375.083 491.027 377.292V872.529C491.027 874.738 492.818 876.529 495.027 876.529H500.06C502.269 876.529 504.06 874.738 504.06 872.529V377.292C504.06 375.083 502.269 373.292 500.06 373.292H495.027ZM801.483 373.292C799.274 373.292 797.483 375.083 797.483 377.292V453.115C797.483 455.324 799.274 457.115 801.483 457.115H806.516C808.726 457.115 810.516 455.324 810.516 453.115V377.292C810.516 375.083 808.726 373.292 806.516 373.292H801.483ZM1109.48 558.596C1109.48 556.387 1111.27 554.596 1113.48 554.596H1118.52C1120.73 554.596 1122.52 556.387 1122.52 558.596V634.419C1122.52 636.628 1120.73 638.419 1118.52 638.419H1113.48C1111.27 638.419 1109.48 636.628 1109.48 634.419V558.596ZM1425.48 754.985C1423.27 754.985 1421.48 756.776 1421.48 758.985V834.808C1421.48 837.017 1423.27 838.808 1425.48 838.808H1430.52C1432.73 838.808 1434.52 837.017 1434.52 834.808V758.985C1434.52 756.776 1432.73 754.985 1430.52 754.985H1425.48Z" fill="url(#paint2_linear_75_606)"/>
<path d="M782.826 385.914L517.424 385.914" stroke="#121212" stroke-width="2"/>
<path d="M779.192 380.986L784.12 385.914L779.192 390.842" stroke="#121212" stroke-width="2"/>
<path d="M782.826 385.914L517.424 385.914" stroke="#F9774B" stroke-width="2"/>
<path d="M779.192 380.986L784.12 385.914L779.192 390.842" stroke="#F9774B" stroke-width="2"/>
<path d="M1088.8 564.524L517.876 564.524" stroke="#F9774B" stroke-width="2"/>
<path d="M1085.16 559.596L1090.09 564.524L1085.16 569.452" stroke="#F9774B" stroke-width="2"/>
<path d="M1407.81 763.337L521.796 763.337" stroke="#F9774B" stroke-width="2"/>
<path d="M1404.18 758.409L1409.11 763.337L1404.18 768.265" stroke="#F9774B" stroke-width="2"/>
<path d="M523.09 826.88L1409.11 826.88" stroke="#6A2121" stroke-width="2"/>
<path d="M526.724 821.952L521.796 826.88L526.724 831.808" stroke="#6A2121" stroke-width="2"/>
<path d="M519.17 628.066L1090.09 628.066" stroke="#6A2121" stroke-width="2"/>
<path d="M522.804 623.139L517.876 628.066L522.804 632.994" stroke="#6A2121" stroke-width="2"/>
<path d="M518.718 449.457L784.12 449.457" stroke="#6A2121" stroke-width="2"/>
<path d="M522.352 444.529L517.424 449.457L522.352 454.385" stroke="#6A2121" stroke-width="2"/>
<path d="M607.625 358.792C607.625 351.06 613.893 344.792 621.625 344.792H677.125C685.685 344.792 692.625 351.732 692.625 360.292V372.792H621.625C613.893 372.792 607.625 366.524 607.625 358.792Z" fill="#FEF5F3"/>
<path d="M607.625 358.792C607.625 351.06 613.893 344.792 621.625 344.792H677.125C685.685 344.792 692.625 351.732 692.625 360.292V372.792H621.625C613.893 372.792 607.625 366.524 607.625 358.792Z" stroke="#FFCCBA"/>
<path d="M626.167 363.292L623.367 359.638H621.855V363.292H620.273V353.492H624.319C626.447 353.492 627.651 354.752 627.651 356.6C627.651 358.21 626.741 359.26 625.187 359.554L628.113 363.292H626.167ZM621.855 355.004V358.238H624.151C625.453 358.238 626.055 357.566 626.055 356.614C626.055 355.662 625.439 355.004 624.151 355.004H621.855ZM632.742 355.424C635.22 355.424 636.788 357.342 636.634 359.876H630.376C630.502 361.29 631.496 362.074 632.784 362.074C633.708 362.074 634.478 361.682 634.842 360.926H636.48C635.878 362.648 634.408 363.46 632.77 363.46C630.432 363.46 628.766 361.78 628.766 359.456C628.766 357.132 630.418 355.424 632.742 355.424ZM632.742 356.796C631.538 356.796 630.726 357.552 630.46 358.588H634.94C634.702 357.538 633.904 356.796 632.742 356.796ZM644.17 355.592H645.752V363.194C645.752 365.49 644.31 366.96 642.028 366.96C640.194 366.96 638.528 366.008 638.192 364.09H639.83C640.096 365.084 640.95 365.546 641.986 365.546C643.4 365.546 644.17 364.748 644.17 363.25V361.934C643.596 362.788 642.672 363.376 641.482 363.376C639.424 363.376 637.926 361.71 637.926 359.4C637.926 357.09 639.452 355.424 641.482 355.424C642.672 355.424 643.61 356.026 644.17 356.908V355.592ZM641.818 361.864C643.162 361.864 644.184 360.842 644.184 359.4C644.184 357.972 643.162 356.936 641.818 356.936C640.474 356.936 639.522 357.972 639.522 359.4C639.522 360.842 640.488 361.864 641.818 361.864ZM648.382 352.12C648.984 352.12 649.418 352.526 649.418 353.086C649.418 353.66 648.984 354.08 648.382 354.08C647.808 354.08 647.36 353.66 647.36 353.086C647.36 352.526 647.808 352.12 648.382 352.12ZM647.598 363.292V355.592H649.18V363.292H647.598ZM654.418 363.46C652.388 363.46 650.932 362.48 650.638 360.814H652.248C652.486 361.668 653.116 362.06 654.446 362.06C655.468 362.06 656.098 361.752 656.098 361.178C656.098 360.534 655.37 360.436 654.082 360.128C651.926 359.596 651.016 359.162 651.016 357.874C651.016 356.32 652.332 355.424 654.264 355.424C656.238 355.424 657.344 356.362 657.624 357.762H656.028C655.804 357.132 655.216 356.824 654.236 356.824C653.214 356.824 652.612 357.174 652.612 357.706C652.612 358.196 653.088 358.322 654.432 358.644C656.518 359.134 657.722 359.498 657.722 360.996C657.722 362.648 656.238 363.46 654.418 363.46ZM664.763 361.612L665.043 362.9C664.623 363.152 663.727 363.46 662.845 363.46C661.263 363.46 660.031 362.466 660.031 360.338V357.076H658.603V355.592H660.031V353.842L661.613 353.492V355.592H664.777V357.076H661.613V360.254C661.613 361.374 662.131 361.99 663.125 361.99C663.615 361.99 664.161 361.822 664.763 361.612ZM669.847 355.424C672.325 355.424 673.893 357.342 673.739 359.876H667.481C667.607 361.29 668.601 362.074 669.889 362.074C670.813 362.074 671.583 361.682 671.947 360.926H673.585C672.983 362.648 671.513 363.46 669.875 363.46C667.537 363.46 665.871 361.78 665.871 359.456C665.871 357.132 667.523 355.424 669.847 355.424ZM669.847 356.796C668.643 356.796 667.831 357.552 667.565 358.588H672.045C671.807 357.538 671.009 356.796 669.847 356.796ZM679.427 355.424C679.623 355.424 679.777 355.438 679.889 355.466V357.076C679.749 357.062 679.623 357.048 679.413 357.048C677.971 357.048 676.865 357.86 676.865 359.764V363.292H675.283V355.592H676.865V357.118C677.327 356.04 678.209 355.424 679.427 355.424Z" fill="#F9774B"/>
<path d="M922.5 540.096C922.5 532.364 928.768 526.096 936.5 526.096H982C990.56 526.096 997.5 533.036 997.5 541.596V554.096H936.5C928.768 554.096 922.5 547.828 922.5 540.096Z" fill="#FEF5F3"/>
<path d="M922.5 540.096C922.5 532.364 928.768 526.096 936.5 526.096H982C990.56 526.096 997.5 533.036 997.5 541.596V554.096H936.5C928.768 554.096 922.5 547.828 922.5 540.096Z" stroke="#FFCCBA"/>
<path d="M938.606 538.828C941.084 539.374 942.442 539.892 942.442 541.782C942.442 543.924 940.538 544.764 938.788 544.764C936.044 544.764 934.84 543.252 934.574 541.558H936.17C936.464 542.692 937.22 543.28 938.774 543.28C940.09 543.28 940.846 542.762 940.846 541.852C940.846 540.942 940.048 540.788 938.228 540.382C936.324 539.962 934.84 539.43 934.84 537.596C934.84 535.65 936.562 534.628 938.438 534.628C940.902 534.628 942.036 535.902 942.316 537.456H940.72C940.44 536.644 939.768 536.112 938.452 536.112C937.136 536.112 936.422 536.7 936.422 537.554C936.422 538.254 936.982 538.478 938.606 538.828ZM947.658 536.728C950.136 536.728 951.704 538.646 951.55 541.18H945.292C945.418 542.594 946.412 543.378 947.7 543.378C948.624 543.378 949.394 542.986 949.758 542.23H951.396C950.794 543.952 949.324 544.764 947.686 544.764C945.348 544.764 943.682 543.084 943.682 540.76C943.682 538.436 945.334 536.728 947.658 536.728ZM947.658 538.1C946.454 538.1 945.642 538.856 945.376 539.892H949.856C949.618 538.842 948.82 538.1 947.658 538.1ZM959.086 536.896H960.668V544.596H959.086V543.308C958.526 544.19 957.602 544.764 956.398 544.764C954.34 544.764 952.842 543.098 952.842 540.746C952.842 538.394 954.368 536.728 956.384 536.728C957.602 536.728 958.526 537.33 959.086 538.212V536.896ZM956.734 543.252C958.078 543.252 959.1 542.23 959.1 540.746C959.1 539.276 958.078 538.24 956.734 538.24C955.39 538.24 954.438 539.276 954.438 540.746C954.438 542.23 955.404 543.252 956.734 543.252ZM966.658 536.728C966.854 536.728 967.008 536.742 967.12 536.77V538.38C966.98 538.366 966.854 538.352 966.644 538.352C965.202 538.352 964.096 539.164 964.096 541.068V544.596H962.514V536.896H964.096V538.422C964.558 537.344 965.44 536.728 966.658 536.728ZM972.062 544.764C969.78 544.764 968.072 543.042 968.072 540.746C968.072 538.45 969.78 536.728 972.076 536.728C973.896 536.728 975.506 537.834 975.856 539.696H974.218C973.924 538.73 973.07 538.198 972.076 538.198C970.648 538.198 969.668 539.262 969.668 540.746C969.668 542.244 970.676 543.294 972.062 543.294C973.07 543.294 973.924 542.734 974.218 541.782H975.856C975.492 543.686 973.868 544.764 972.062 544.764ZM981.535 536.728C983.257 536.728 984.307 537.862 984.307 539.738V544.596H982.725V540.06C982.725 538.87 982.193 538.24 981.031 538.24C979.687 538.24 978.959 539.122 978.959 540.606V544.596H977.377V533.816H978.959V538.156C979.505 537.26 980.345 536.728 981.535 536.728Z" fill="#F9774B"/>
<path d="M842 654.003C842 645.443 848.94 638.503 857.5 638.503H1064C1071.73 638.503 1078 644.771 1078 652.503C1078 660.235 1071.73 666.503 1064 666.503H842V654.003Z" fill="#F8EAEA"/>
<path d="M842 654.003C842 645.443 848.94 638.503 857.5 638.503H1064C1071.73 638.503 1078 644.771 1078 652.503C1078 660.235 1071.73 666.503 1064 666.503H842V654.003Z" stroke="#E2C6C6"/>
<path d="M860.542 657.003L857.742 653.349H856.23V657.003H854.648V647.203H858.694C860.822 647.203 862.026 648.463 862.026 650.311C862.026 651.921 861.116 652.971 859.562 653.265L862.488 657.003H860.542ZM856.23 648.715V651.949H858.526C859.828 651.949 860.43 651.277 860.43 650.325C860.43 649.373 859.814 648.715 858.526 648.715H856.23ZM867.117 649.135C869.595 649.135 871.163 651.053 871.009 653.587H864.751C864.877 655.001 865.871 655.785 867.159 655.785C868.083 655.785 868.853 655.393 869.217 654.637H870.855C870.253 656.359 868.783 657.171 867.145 657.171C864.807 657.171 863.141 655.491 863.141 653.167C863.141 650.843 864.793 649.135 867.117 649.135ZM867.117 650.507C865.913 650.507 865.101 651.263 864.835 652.299H869.315C869.077 651.249 868.279 650.507 867.117 650.507ZM875.955 657.171C873.925 657.171 872.469 656.191 872.175 654.525H873.785C874.023 655.379 874.653 655.771 875.983 655.771C877.005 655.771 877.635 655.463 877.635 654.889C877.635 654.245 876.907 654.147 875.619 653.839C873.463 653.307 872.553 652.873 872.553 651.585C872.553 650.031 873.869 649.135 875.801 649.135C877.775 649.135 878.881 650.073 879.161 651.473H877.565C877.341 650.843 876.753 650.535 875.773 650.535C874.751 650.535 874.149 650.885 874.149 651.417C874.149 651.907 874.625 652.033 875.969 652.355C878.055 652.845 879.259 653.209 879.259 654.707C879.259 656.359 877.775 657.171 875.955 657.171ZM885.083 649.135C887.099 649.135 888.625 650.801 888.625 653.153C888.625 655.505 887.127 657.171 885.069 657.171C883.865 657.171 882.941 656.583 882.381 655.715V660.503H880.799V649.303H882.381V650.619C882.941 649.737 883.865 649.135 885.083 649.135ZM884.733 655.659C886.063 655.659 887.029 654.637 887.029 653.153C887.029 651.683 886.077 650.647 884.733 650.647C883.389 650.647 882.367 651.683 882.367 653.153C882.367 654.637 883.389 655.659 884.733 655.659ZM893.955 649.135C896.167 649.135 897.945 650.829 897.945 653.153C897.945 655.463 896.195 657.171 893.955 657.171C891.729 657.171 889.965 655.449 889.965 653.153C889.965 650.829 891.757 649.135 893.955 649.135ZM893.955 650.647C892.625 650.647 891.561 651.669 891.561 653.153C891.561 654.637 892.611 655.659 893.955 655.659C895.299 655.659 896.349 654.637 896.349 653.153C896.349 651.669 895.285 650.647 893.955 650.647ZM903.686 649.135C905.422 649.135 906.458 650.269 906.458 652.145V657.003H904.876V652.467C904.876 651.277 904.358 650.647 903.196 650.647C901.838 650.647 901.11 651.529 901.11 653.013V657.003H899.528V649.303H901.11V650.577C901.656 649.681 902.482 649.135 903.686 649.135ZM911.639 657.171C909.609 657.171 908.153 656.191 907.859 654.525H909.469C909.707 655.379 910.337 655.771 911.667 655.771C912.689 655.771 913.319 655.463 913.319 654.889C913.319 654.245 912.591 654.147 911.303 653.839C909.147 653.307 908.236 652.873 908.236 651.585C908.236 650.031 909.553 649.135 911.485 649.135C913.459 649.135 914.565 650.073 914.845 651.473H913.249C913.025 650.843 912.437 650.535 911.457 650.535C910.435 650.535 909.833 650.885 909.833 651.417C909.833 651.907 910.309 652.033 911.653 652.355C913.739 652.845 914.943 653.209 914.943 654.707C914.943 656.359 913.459 657.171 911.639 657.171ZM920.136 649.135C922.614 649.135 924.182 651.053 924.028 653.587H917.77C917.896 655.001 918.89 655.785 920.178 655.785C921.102 655.785 921.872 655.393 922.236 654.637H923.874C923.272 656.359 921.802 657.171 920.164 657.171C917.826 657.171 916.16 655.491 916.16 653.167C916.16 650.843 917.812 649.135 920.136 649.135ZM920.136 650.507C918.932 650.507 918.12 651.263 917.854 652.299H922.334C922.096 651.249 921.298 650.507 920.136 650.507ZM933.48 646.769C932.136 649.359 931.576 651.081 931.576 653.363C931.576 655.645 932.136 657.367 933.48 659.957L932.276 660.671C930.68 658.221 929.994 655.855 929.994 653.363C929.994 650.871 930.68 648.505 932.276 646.055L933.48 646.769ZM941.545 649.303H943.127V657.003H941.545V655.715C940.985 656.597 940.061 657.171 938.857 657.171C936.799 657.171 935.301 655.505 935.301 653.153C935.301 650.801 936.827 649.135 938.843 649.135C940.061 649.135 940.985 649.737 941.545 650.619V649.303ZM939.193 655.659C940.537 655.659 941.559 654.637 941.559 653.153C941.559 651.683 940.537 650.647 939.193 650.647C937.849 650.647 936.897 651.683 936.897 653.153C936.897 654.637 937.863 655.659 939.193 655.659ZM950.965 649.303H952.547V656.905C952.547 659.201 951.105 660.671 948.823 660.671C946.989 660.671 945.323 659.719 944.987 657.801H946.625C946.891 658.795 947.745 659.257 948.781 659.257C950.195 659.257 950.965 658.459 950.965 656.961V655.645C950.391 656.499 949.467 657.087 948.277 657.087C946.219 657.087 944.721 655.421 944.721 653.111C944.721 650.801 946.247 649.135 948.277 649.135C949.467 649.135 950.405 649.737 950.965 650.619V649.303ZM948.613 655.575C949.957 655.575 950.979 654.553 950.979 653.111C950.979 651.683 949.957 650.647 948.613 650.647C947.269 650.647 946.317 651.683 946.317 653.111C946.317 654.553 947.283 655.575 948.613 655.575ZM958.117 649.135C960.595 649.135 962.163 651.053 962.009 653.587H955.751C955.877 655.001 956.871 655.785 958.159 655.785C959.083 655.785 959.853 655.393 960.217 654.637H961.855C961.253 656.359 959.783 657.171 958.145 657.171C955.807 657.171 954.141 655.491 954.141 653.167C954.141 650.843 955.793 649.135 958.117 649.135ZM958.117 650.507C956.913 650.507 956.101 651.263 955.835 652.299H960.315C960.077 651.249 959.279 650.507 958.117 650.507ZM967.711 649.135C969.447 649.135 970.483 650.269 970.483 652.145V657.003H968.901V652.467C968.901 651.277 968.383 650.647 967.221 650.647C965.863 650.647 965.135 651.529 965.135 653.013V657.003H963.553V649.303H965.135V650.577C965.681 649.681 966.507 649.135 967.711 649.135ZM977.725 655.323L978.005 656.611C977.585 656.863 976.689 657.171 975.807 657.171C974.225 657.171 972.993 656.177 972.993 654.049V650.787H971.565V649.303H972.993V647.553L974.575 647.203V649.303H977.739V650.787H974.575V653.965C974.575 655.085 975.093 655.701 976.087 655.701C976.577 655.701 977.123 655.533 977.725 655.323ZM980.699 655.197C981.287 655.197 981.735 655.603 981.735 656.177C981.735 656.751 981.287 657.171 980.699 657.171C980.111 657.171 979.677 656.751 979.677 656.177C979.677 655.603 980.111 655.197 980.699 655.197ZM989.779 649.303H991.361V657.003H989.779V655.715C989.219 656.597 988.295 657.171 987.091 657.171C985.033 657.171 983.535 655.505 983.535 653.153C983.535 650.801 985.061 649.135 987.077 649.135C988.295 649.135 989.219 649.737 989.779 650.619V649.303ZM987.427 655.659C988.771 655.659 989.793 654.637 989.793 653.153C989.793 651.683 988.771 650.647 987.427 650.647C986.083 650.647 985.131 651.683 985.131 653.153C985.131 654.637 986.097 655.659 987.427 655.659ZM999.297 646.223H1000.88V657.003H999.297V655.715C998.723 656.583 997.799 657.171 996.595 657.171C994.537 657.171 993.039 655.505 993.039 653.153C993.039 650.801 994.565 649.135 996.581 649.135C997.799 649.135 998.723 649.737 999.297 650.619V646.223ZM996.931 655.659C998.275 655.659 999.297 654.637 999.297 653.153C999.297 651.683 998.275 650.647 996.931 650.647C995.587 650.647 994.635 651.683 994.635 653.153C994.635 654.637 995.601 655.659 996.931 655.659ZM1008.8 646.223H1010.38V657.003H1008.8V655.715C1008.23 656.583 1007.3 657.171 1006.1 657.171C1004.04 657.171 1002.54 655.505 1002.54 653.153C1002.54 650.801 1004.07 649.135 1006.08 649.135C1007.3 649.135 1008.23 649.737 1008.8 650.619V646.223ZM1006.43 655.659C1007.78 655.659 1008.8 654.637 1008.8 653.153C1008.8 651.683 1007.78 650.647 1006.43 650.647C1005.09 650.647 1004.14 651.683 1004.14 653.153C1004.14 654.637 1005.1 655.659 1006.43 655.659ZM1016.36 649.135C1016.55 649.135 1016.71 649.149 1016.82 649.177V650.787C1016.68 650.773 1016.55 650.759 1016.34 650.759C1014.9 650.759 1013.79 651.571 1013.79 653.475V657.003H1012.21V649.303H1013.79V650.829C1014.26 649.751 1015.14 649.135 1016.36 649.135ZM1021.66 649.135C1024.14 649.135 1025.71 651.053 1025.56 653.587H1019.3C1019.42 655.001 1020.42 655.785 1021.71 655.785C1022.63 655.785 1023.4 655.393 1023.76 654.637H1025.4C1024.8 656.359 1023.33 657.171 1021.69 657.171C1019.35 657.171 1017.69 655.491 1017.69 653.167C1017.69 650.843 1019.34 649.135 1021.66 649.135ZM1021.66 650.507C1020.46 650.507 1019.65 651.263 1019.38 652.299H1023.86C1023.62 651.249 1022.83 650.507 1021.66 650.507ZM1030.5 657.171C1028.47 657.171 1027.02 656.191 1026.72 654.525H1028.33C1028.57 655.379 1029.2 655.771 1030.53 655.771C1031.55 655.771 1032.18 655.463 1032.18 654.889C1032.18 654.245 1031.45 654.147 1030.17 653.839C1028.01 653.307 1027.1 652.873 1027.1 651.585C1027.1 650.031 1028.42 649.135 1030.35 649.135C1032.32 649.135 1033.43 650.073 1033.71 651.473H1032.11C1031.89 650.843 1031.3 650.535 1030.32 650.535C1029.3 650.535 1028.7 650.885 1028.7 651.417C1028.7 651.907 1029.17 652.033 1030.52 652.355C1032.6 652.845 1033.81 653.209 1033.81 654.707C1033.81 656.359 1032.32 657.171 1030.5 657.171ZM1038.68 657.171C1036.65 657.171 1035.19 656.191 1034.9 654.525H1036.51C1036.75 655.379 1037.38 655.771 1038.71 655.771C1039.73 655.771 1040.36 655.463 1040.36 654.889C1040.36 654.245 1039.63 654.147 1038.34 653.839C1036.19 653.307 1035.28 652.873 1035.28 651.585C1035.28 650.031 1036.59 649.135 1038.52 649.135C1040.5 649.135 1041.6 650.073 1041.88 651.473H1040.29C1040.06 650.843 1039.48 650.535 1038.5 650.535C1037.47 650.535 1036.87 650.885 1036.87 651.417C1036.87 651.907 1037.35 652.033 1038.69 652.355C1040.78 652.845 1041.98 653.209 1041.98 654.707C1041.98 656.359 1040.5 657.171 1038.68 657.171ZM1047.18 649.135C1049.65 649.135 1051.22 651.053 1051.07 653.587H1044.81C1044.94 655.001 1045.93 655.785 1047.22 655.785C1048.14 655.785 1048.91 655.393 1049.28 654.637H1050.91C1050.31 656.359 1048.84 657.171 1047.2 657.171C1044.87 657.171 1043.2 655.491 1043.2 653.167C1043.2 650.843 1044.85 649.135 1047.18 649.135ZM1047.18 650.507C1045.97 650.507 1045.16 651.263 1044.89 652.299H1049.37C1049.14 651.249 1048.34 650.507 1047.18 650.507ZM1056.01 657.171C1053.98 657.171 1052.53 656.191 1052.23 654.525H1053.84C1054.08 655.379 1054.71 655.771 1056.04 655.771C1057.06 655.771 1057.69 655.463 1057.69 654.889C1057.69 654.245 1056.97 654.147 1055.68 653.839C1053.52 653.307 1052.61 652.873 1052.61 651.585C1052.61 650.031 1053.93 649.135 1055.86 649.135C1057.83 649.135 1058.94 650.073 1059.22 651.473H1057.62C1057.4 650.843 1056.81 650.535 1055.83 650.535C1054.81 650.535 1054.21 650.885 1054.21 651.417C1054.21 651.907 1054.68 652.033 1056.03 652.355C1058.11 652.845 1059.32 653.209 1059.32 654.707C1059.32 656.359 1057.83 657.171 1056.01 657.171ZM1061.01 646.769L1062.22 646.055C1063.81 648.505 1064.5 650.871 1064.5 653.363C1064.5 655.855 1063.81 658.221 1062.22 660.671L1061.01 659.957C1062.36 657.367 1062.92 655.645 1062.92 653.363C1062.92 651.081 1062.36 649.359 1061.01 646.769Z" fill="#6A2121"/>
<path d="M869 738.485C869 730.753 875.268 724.485 883 724.485H1035.5C1044.06 724.485 1051 731.425 1051 739.985V752.485H883C875.268 752.485 869 746.217 869 738.485Z" fill="#FEF5F3"/>
<path d="M869 738.485C869 730.753 875.268 724.485 883 724.485H1035.5C1044.06 724.485 1051 731.425 1051 739.985V752.485H883C875.268 752.485 869 746.217 869 738.485Z" stroke="#FFCCBA"/>
<path d="M885.162 743.153C882.88 743.153 881.172 741.431 881.172 739.135C881.172 736.839 882.88 735.117 885.176 735.117C886.996 735.117 888.606 736.223 888.956 738.085H887.318C887.024 737.119 886.17 736.587 885.176 736.587C883.748 736.587 882.768 737.651 882.768 739.135C882.768 740.633 883.776 741.683 885.162 741.683C886.17 741.683 887.024 741.123 887.318 740.171H888.956C888.592 742.075 886.968 743.153 885.162 743.153ZM895.978 741.305L896.258 742.593C895.838 742.845 894.942 743.153 894.06 743.153C892.478 743.153 891.246 742.159 891.246 740.031V736.769H889.818V735.285H891.246V733.535L892.828 733.185V735.285H895.992V736.769H892.828V739.947C892.828 741.067 893.346 741.683 894.34 741.683C894.83 741.683 895.376 741.515 895.978 741.305ZM904.567 742.985H902.677L900.815 740.227L899.023 742.985H897.119L899.877 739.023L897.273 735.285H899.163L900.871 737.861L902.523 735.285H904.427L901.823 739.051L904.567 742.985ZM907.074 741.179C907.662 741.179 908.11 741.585 908.11 742.159C908.11 742.733 907.662 743.153 907.074 743.153C906.486 743.153 906.052 742.733 906.052 742.159C906.052 741.585 906.486 741.179 907.074 741.179ZM913.564 743.153C911.534 743.153 910.078 742.173 909.784 740.507H911.394C911.632 741.361 912.262 741.753 913.592 741.753C914.614 741.753 915.244 741.445 915.244 740.871C915.244 740.227 914.516 740.129 913.228 739.821C911.072 739.289 910.162 738.855 910.162 737.567C910.162 736.013 911.478 735.117 913.41 735.117C915.384 735.117 916.49 736.055 916.77 737.455H915.174C914.95 736.825 914.362 736.517 913.382 736.517C912.36 736.517 911.758 736.867 911.758 737.399C911.758 737.889 912.234 738.015 913.578 738.337C915.664 738.827 916.868 739.191 916.868 740.689C916.868 742.341 915.384 743.153 913.564 743.153ZM922.062 735.117C924.54 735.117 926.108 737.035 925.954 739.569H919.696C919.822 740.983 920.816 741.767 922.104 741.767C923.028 741.767 923.798 741.375 924.162 740.619H925.8C925.198 742.341 923.728 743.153 922.09 743.153C919.752 743.153 918.086 741.473 918.086 739.149C918.086 736.825 919.738 735.117 922.062 735.117ZM922.062 736.489C920.858 736.489 920.046 737.245 919.78 738.281H924.26C924.022 737.231 923.224 736.489 922.062 736.489ZM931.656 735.117C933.392 735.117 934.428 736.251 934.428 738.127V742.985H932.846V738.449C932.846 737.259 932.328 736.629 931.166 736.629C929.808 736.629 929.08 737.511 929.08 738.995V742.985H927.498V735.285H929.08V736.559C929.626 735.663 930.452 735.117 931.656 735.117ZM942.297 732.205H943.879V742.985H942.297V741.697C941.723 742.565 940.799 743.153 939.595 743.153C937.537 743.153 936.039 741.487 936.039 739.135C936.039 736.783 937.565 735.117 939.581 735.117C940.799 735.117 941.723 735.719 942.297 736.601V732.205ZM939.931 741.641C941.275 741.641 942.297 740.619 942.297 739.135C942.297 737.665 941.275 736.629 939.931 736.629C938.587 736.629 937.635 737.665 937.635 739.135C937.635 740.619 938.601 741.641 939.931 741.641ZM952.373 743.251V744.749H945.933V743.251H952.373ZM963.392 735.117C965.016 735.117 965.996 736.209 965.996 738.043V742.985H964.414V738.379C964.414 737.231 963.952 736.629 962.888 736.629C961.642 736.629 960.998 737.595 960.998 738.995L961.012 742.985H959.416V738.379C959.416 737.231 958.954 736.629 957.89 736.629C956.644 736.629 956.014 737.595 956.014 738.995V742.985H954.432V735.285H956.014V736.517C956.546 735.635 957.302 735.117 958.408 735.117C959.584 735.117 960.41 735.691 960.788 736.727C961.306 735.733 962.174 735.117 963.392 735.117ZM971.5 735.117C973.978 735.117 975.546 737.035 975.392 739.569H969.134C969.26 740.983 970.254 741.767 971.542 741.767C972.466 741.767 973.236 741.375 973.6 740.619H975.238C974.636 742.341 973.166 743.153 971.528 743.153C969.19 743.153 967.524 741.473 967.524 739.149C967.524 736.825 969.176 735.117 971.5 735.117ZM971.5 736.489C970.296 736.489 969.484 737.245 969.218 738.281H973.698C973.46 737.231 972.662 736.489 971.5 736.489ZM980.338 743.153C978.308 743.153 976.852 742.173 976.558 740.507H978.168C978.406 741.361 979.036 741.753 980.366 741.753C981.388 741.753 982.018 741.445 982.018 740.871C982.018 740.227 981.29 740.129 980.002 739.821C977.846 739.289 976.936 738.855 976.936 737.567C976.936 736.013 978.252 735.117 980.184 735.117C982.158 735.117 983.264 736.055 983.544 737.455H981.948C981.724 736.825 981.136 736.517 980.156 736.517C979.134 736.517 978.532 736.867 978.532 737.399C978.532 737.889 979.008 738.015 980.352 738.337C982.438 738.827 983.642 739.191 983.642 740.689C983.642 742.341 982.158 743.153 980.338 743.153ZM988.514 743.153C986.484 743.153 985.028 742.173 984.734 740.507H986.344C986.582 741.361 987.212 741.753 988.542 741.753C989.564 741.753 990.194 741.445 990.194 740.871C990.194 740.227 989.466 740.129 988.178 739.821C986.022 739.289 985.111 738.855 985.111 737.567C985.111 736.013 986.428 735.117 988.36 735.117C990.334 735.117 991.44 736.055 991.72 737.455H990.124C989.9 736.825 989.312 736.517 988.332 736.517C987.31 736.517 986.708 736.867 986.708 737.399C986.708 737.889 987.184 738.015 988.528 738.337C990.614 738.827 991.818 739.191 991.818 740.689C991.818 742.341 990.334 743.153 988.514 743.153ZM999.279 735.285H1000.86V742.985H999.279V741.697C998.719 742.579 997.795 743.153 996.591 743.153C994.533 743.153 993.035 741.487 993.035 739.135C993.035 736.783 994.561 735.117 996.577 735.117C997.795 735.117 998.719 735.719 999.279 736.601V735.285ZM996.927 741.641C998.271 741.641 999.293 740.619 999.293 739.135C999.293 737.665 998.271 736.629 996.927 736.629C995.583 736.629 994.631 737.665 994.631 739.135C994.631 740.619 995.597 741.641 996.927 741.641ZM1008.7 735.285H1010.28V742.887C1010.28 745.183 1008.84 746.653 1006.56 746.653C1004.72 746.653 1003.06 745.701 1002.72 743.783H1004.36C1004.63 744.777 1005.48 745.239 1006.52 745.239C1007.93 745.239 1008.7 744.441 1008.7 742.943V741.627C1008.13 742.481 1007.2 743.069 1006.01 743.069C1003.95 743.069 1002.46 741.403 1002.46 739.093C1002.46 736.783 1003.98 735.117 1006.01 735.117C1007.2 735.117 1008.14 735.719 1008.7 736.601V735.285ZM1006.35 741.557C1007.69 741.557 1008.71 740.535 1008.71 739.093C1008.71 737.665 1007.69 736.629 1006.35 736.629C1005 736.629 1004.05 737.665 1004.05 739.093C1004.05 740.535 1005.02 741.557 1006.35 741.557ZM1015.85 735.117C1018.33 735.117 1019.9 737.035 1019.74 739.569H1013.49C1013.61 740.983 1014.61 741.767 1015.89 741.767C1016.82 741.767 1017.59 741.375 1017.95 740.619H1019.59C1018.99 742.341 1017.52 743.153 1015.88 743.153C1013.54 743.153 1011.88 741.473 1011.88 739.149C1011.88 736.825 1013.53 735.117 1015.85 735.117ZM1015.85 736.489C1014.65 736.489 1013.84 737.245 1013.57 738.281H1018.05C1017.81 737.231 1017.01 736.489 1015.85 736.489ZM1025 732.751C1023.65 735.341 1023.09 737.063 1023.09 739.345C1023.09 741.627 1023.65 743.349 1025 745.939L1023.79 746.653C1022.2 744.203 1021.51 741.837 1021.51 739.345C1021.51 736.853 1022.2 734.487 1023.79 732.037L1025 732.751ZM1028.32 741.179C1028.9 741.179 1029.35 741.585 1029.35 742.159C1029.35 742.733 1028.9 743.153 1028.32 743.153C1027.73 743.153 1027.29 742.733 1027.29 742.159C1027.29 741.585 1027.73 741.179 1028.32 741.179ZM1032.65 741.179C1033.24 741.179 1033.69 741.585 1033.69 742.159C1033.69 742.733 1033.24 743.153 1032.65 743.153C1032.06 743.153 1031.63 742.733 1031.63 742.159C1031.63 741.585 1032.06 741.179 1032.65 741.179ZM1034.68 732.751L1035.88 732.037C1037.48 734.487 1038.16 736.853 1038.16 739.345C1038.16 741.837 1037.48 744.203 1035.88 746.653L1034.68 745.939C1036.02 743.349 1036.58 741.627 1036.58 739.345C1036.58 737.063 1036.02 735.341 1034.68 732.751Z" fill="#F9774B"/>
<path d="M869 854.815C869 846.255 875.94 839.315 884.5 839.315H1037C1044.73 839.315 1051 845.583 1051 853.315C1051 861.047 1044.73 867.315 1037 867.315H869V854.815Z" fill="#F8EAEA"/>
<path d="M869 854.815C869 846.255 875.94 839.315 884.5 839.315H1037C1044.73 839.315 1051 845.583 1051 853.315C1051 861.047 1044.73 867.315 1037 867.315H869V854.815Z" stroke="#E2C6C6"/>
<path d="M885.162 857.983C882.88 857.983 881.172 856.261 881.172 853.965C881.172 851.669 882.88 849.947 885.176 849.947C886.996 849.947 888.606 851.053 888.956 852.915H887.318C887.024 851.949 886.17 851.417 885.176 851.417C883.748 851.417 882.768 852.481 882.768 853.965C882.768 855.463 883.776 856.513 885.162 856.513C886.17 856.513 887.024 855.953 887.318 855.001H888.956C888.592 856.905 886.968 857.983 885.162 857.983ZM895.978 856.135L896.258 857.423C895.838 857.675 894.942 857.983 894.06 857.983C892.478 857.983 891.246 856.989 891.246 854.861V851.599H889.818V850.115H891.246V848.365L892.828 848.015V850.115H895.992V851.599H892.828V854.777C892.828 855.897 893.346 856.513 894.34 856.513C894.83 856.513 895.376 856.345 895.978 856.135ZM904.567 857.815H902.677L900.815 855.057L899.023 857.815H897.119L899.877 853.853L897.273 850.115H899.163L900.871 852.691L902.523 850.115H904.427L901.823 853.881L904.567 857.815ZM907.074 856.009C907.662 856.009 908.11 856.415 908.11 856.989C908.11 857.563 907.662 857.983 907.074 857.983C906.486 857.983 906.052 857.563 906.052 856.989C906.052 856.415 906.486 856.009 907.074 856.009ZM913.564 857.983C911.534 857.983 910.078 857.003 909.784 855.337H911.394C911.632 856.191 912.262 856.583 913.592 856.583C914.614 856.583 915.244 856.275 915.244 855.701C915.244 855.057 914.516 854.959 913.228 854.651C911.072 854.119 910.162 853.685 910.162 852.397C910.162 850.843 911.478 849.947 913.41 849.947C915.384 849.947 916.49 850.885 916.77 852.285H915.174C914.95 851.655 914.362 851.347 913.382 851.347C912.36 851.347 911.758 851.697 911.758 852.229C911.758 852.719 912.234 852.845 913.578 853.167C915.664 853.657 916.868 854.021 916.868 855.519C916.868 857.171 915.384 857.983 913.564 857.983ZM922.062 849.947C924.54 849.947 926.108 851.865 925.954 854.399H919.696C919.822 855.813 920.816 856.597 922.104 856.597C923.028 856.597 923.798 856.205 924.162 855.449H925.8C925.198 857.171 923.728 857.983 922.09 857.983C919.752 857.983 918.086 856.303 918.086 853.979C918.086 851.655 919.738 849.947 922.062 849.947ZM922.062 851.319C920.858 851.319 920.046 852.075 919.78 853.111H924.26C924.022 852.061 923.224 851.319 922.062 851.319ZM931.656 849.947C933.392 849.947 934.428 851.081 934.428 852.957V857.815H932.846V853.279C932.846 852.089 932.328 851.459 931.166 851.459C929.808 851.459 929.08 852.341 929.08 853.825V857.815H927.498V850.115H929.08V851.389C929.626 850.493 930.452 849.947 931.656 849.947ZM942.297 847.035H943.879V857.815H942.297V856.527C941.723 857.395 940.799 857.983 939.595 857.983C937.537 857.983 936.039 856.317 936.039 853.965C936.039 851.613 937.565 849.947 939.581 849.947C940.799 849.947 941.723 850.549 942.297 851.431V847.035ZM939.931 856.471C941.275 856.471 942.297 855.449 942.297 853.965C942.297 852.495 941.275 851.459 939.931 851.459C938.587 851.459 937.635 852.495 937.635 853.965C937.635 855.449 938.601 856.471 939.931 856.471ZM952.373 858.081V859.579H945.933V858.081H952.373ZM963.392 849.947C965.016 849.947 965.996 851.039 965.996 852.873V857.815H964.414V853.209C964.414 852.061 963.952 851.459 962.888 851.459C961.642 851.459 960.998 852.425 960.998 853.825L961.012 857.815H959.416V853.209C959.416 852.061 958.954 851.459 957.89 851.459C956.644 851.459 956.014 852.425 956.014 853.825V857.815H954.432V850.115H956.014V851.347C956.546 850.465 957.302 849.947 958.408 849.947C959.584 849.947 960.41 850.521 960.788 851.557C961.306 850.563 962.174 849.947 963.392 849.947ZM971.5 849.947C973.978 849.947 975.546 851.865 975.392 854.399H969.134C969.26 855.813 970.254 856.597 971.542 856.597C972.466 856.597 973.236 856.205 973.6 855.449H975.238C974.636 857.171 973.166 857.983 971.528 857.983C969.19 857.983 967.524 856.303 967.524 853.979C967.524 851.655 969.176 849.947 971.5 849.947ZM971.5 851.319C970.296 851.319 969.484 852.075 969.218 853.111H973.698C973.46 852.061 972.662 851.319 971.5 851.319ZM980.338 857.983C978.308 857.983 976.852 857.003 976.558 855.337H978.168C978.406 856.191 979.036 856.583 980.366 856.583C981.388 856.583 982.018 856.275 982.018 855.701C982.018 855.057 981.29 854.959 980.002 854.651C977.846 854.119 976.936 853.685 976.936 852.397C976.936 850.843 978.252 849.947 980.184 849.947C982.158 849.947 983.264 850.885 983.544 852.285H981.948C981.724 851.655 981.136 851.347 980.156 851.347C979.134 851.347 978.532 851.697 978.532 852.229C978.532 852.719 979.008 852.845 980.352 853.167C982.438 853.657 983.642 854.021 983.642 855.519C983.642 857.171 982.158 857.983 980.338 857.983ZM988.514 857.983C986.484 857.983 985.028 857.003 984.734 855.337H986.344C986.582 856.191 987.212 856.583 988.542 856.583C989.564 856.583 990.194 856.275 990.194 855.701C990.194 855.057 989.466 854.959 988.178 854.651C986.022 854.119 985.111 853.685 985.111 852.397C985.111 850.843 986.428 849.947 988.36 849.947C990.334 849.947 991.44 850.885 991.72 852.285H990.124C989.9 851.655 989.312 851.347 988.332 851.347C987.31 851.347 986.708 851.697 986.708 852.229C986.708 852.719 987.184 852.845 988.528 853.167C990.614 853.657 991.818 854.021 991.818 855.519C991.818 857.171 990.334 857.983 988.514 857.983ZM999.279 850.115H1000.86V857.815H999.279V856.527C998.719 857.409 997.795 857.983 996.591 857.983C994.533 857.983 993.035 856.317 993.035 853.965C993.035 851.613 994.561 849.947 996.577 849.947C997.795 849.947 998.719 850.549 999.279 851.431V850.115ZM996.927 856.471C998.271 856.471 999.293 855.449 999.293 853.965C999.293 852.495 998.271 851.459 996.927 851.459C995.583 851.459 994.631 852.495 994.631 853.965C994.631 855.449 995.597 856.471 996.927 856.471ZM1008.7 850.115H1010.28V857.717C1010.28 860.013 1008.84 861.483 1006.56 861.483C1004.72 861.483 1003.06 860.531 1002.72 858.613H1004.36C1004.63 859.607 1005.48 860.069 1006.52 860.069C1007.93 860.069 1008.7 859.271 1008.7 857.773V856.457C1008.13 857.311 1007.2 857.899 1006.01 857.899C1003.95 857.899 1002.46 856.233 1002.46 853.923C1002.46 851.613 1003.98 849.947 1006.01 849.947C1007.2 849.947 1008.14 850.549 1008.7 851.431V850.115ZM1006.35 856.387C1007.69 856.387 1008.71 855.365 1008.71 853.923C1008.71 852.495 1007.69 851.459 1006.35 851.459C1005 851.459 1004.05 852.495 1004.05 853.923C1004.05 855.365 1005.02 856.387 1006.35 856.387ZM1015.85 849.947C1018.33 849.947 1019.9 851.865 1019.74 854.399H1013.49C1013.61 855.813 1014.61 856.597 1015.89 856.597C1016.82 856.597 1017.59 856.205 1017.95 855.449H1019.59C1018.99 857.171 1017.52 857.983 1015.88 857.983C1013.54 857.983 1011.88 856.303 1011.88 853.979C1011.88 851.655 1013.53 849.947 1015.85 849.947ZM1015.85 851.319C1014.65 851.319 1013.84 852.075 1013.57 853.111H1018.05C1017.81 852.061 1017.01 851.319 1015.85 851.319ZM1025 847.581C1023.65 850.171 1023.09 851.893 1023.09 854.175C1023.09 856.457 1023.65 858.179 1025 860.769L1023.79 861.483C1022.2 859.033 1021.51 856.667 1021.51 854.175C1021.51 851.683 1022.2 849.317 1023.79 846.867L1025 847.581ZM1028.32 856.009C1028.9 856.009 1029.35 856.415 1029.35 856.989C1029.35 857.563 1028.9 857.983 1028.32 857.983C1027.73 857.983 1027.29 857.563 1027.29 856.989C1027.29 856.415 1027.73 856.009 1028.32 856.009ZM1032.65 856.009C1033.24 856.009 1033.69 856.415 1033.69 856.989C1033.69 857.563 1033.24 857.983 1032.65 857.983C1032.06 857.983 1031.63 857.563 1031.63 856.989C1031.63 856.415 1032.06 856.009 1032.65 856.009ZM1034.68 847.581L1035.88 846.867C1037.48 849.317 1038.16 851.683 1038.16 854.175C1038.16 856.667 1037.48 859.033 1035.88 861.483L1034.68 860.769C1036.02 858.179 1036.58 856.457 1036.58 854.175C1036.58 851.893 1036.02 850.171 1034.68 847.581Z" fill="#6A2121"/>
<defs>
<linearGradient id="paint0_linear_75_606" x1="411.271" y1="142.515" x2="411.695" y2="242.932" gradientUnits="userSpaceOnUse">
<stop offset="0.22" stop-color="#DDE3EB"/>
<stop offset="0.47" stop-color="#E8EEF3"/>
<stop offset="0.53" stop-color="#DEE5EC"/>
<stop offset="0.63" stop-color="#C3D0DC"/>
<stop offset="0.69" stop-color="#AEBECF"/>
</linearGradient>
<linearGradient id="paint1_linear_75_606" x1="1347.27" y1="142.515" x2="1347.7" y2="242.932" gradientUnits="userSpaceOnUse">
<stop offset="0.22" stop-color="#DDE3EB"/>
<stop offset="0.47" stop-color="#E8EEF3"/>
<stop offset="0.53" stop-color="#DEE5EC"/>
<stop offset="0.63" stop-color="#C3D0DC"/>
<stop offset="0.69" stop-color="#AEBECF"/>
</linearGradient>
<linearGradient id="paint2_linear_75_606" x1="-180.097" y1="1014.61" x2="1594.56" y2="588.154" gradientUnits="userSpaceOnUse">
<stop stop-color="#F9774B"/>
<stop offset="0.709372" stop-color="#FAAE95"/>
</linearGradient>
</defs>
</svg>
