<svg width="48" height="48" viewBox="0 0 48 48" fill="none" xmlns="http://www.w3.org/2000/svg">
<rect width="48" height="48" rx="12" fill="black"/>
<path fill-rule="evenodd" clip-rule="evenodd" d="M9.80664 24C9.80664 22.2519 11.2242 20.8328 12.9723 20.8328C14.7204 20.8328 16.1395 19.4153 16.1395 17.6672C16.1395 15.919 17.557 14.5 19.3066 14.5C21.0562 14.5 22.4723 15.919 22.4723 17.6672C22.4723 19.4153 21.0548 20.8328 19.3066 20.8328C17.5585 20.8328 16.1395 22.2504 16.1395 24C16.1395 25.7496 17.557 27.1657 19.3066 27.1657C21.0548 27.1657 22.4723 28.5832 22.4723 30.3328C22.4723 32.0824 21.0548 33.4985 19.3066 33.4985C17.5585 33.4985 16.1395 32.081 16.1395 30.3328C16.1395 28.5847 14.7219 27.1657 12.9723 27.1657C11.2242 27.1672 9.80664 25.7496 9.80664 24ZM38.1935 24C38.1935 25.7481 36.7759 27.1672 35.0278 27.1672C33.2797 27.1672 31.8607 28.5847 31.8607 30.3328C31.8607 32.0809 30.4431 33.5 28.6935 33.5C26.9454 33.5 25.5278 32.0824 25.5278 30.3328C25.5278 28.5832 26.9454 27.1672 28.6935 27.1672C30.4416 27.1672 31.8607 25.7496 31.8607 24C31.8607 22.2504 30.4431 20.8343 28.6935 20.8343C26.9454 20.8343 25.5278 19.4168 25.5278 17.6672C25.5278 15.919 26.9454 14.5015 28.6935 14.5015C30.4416 14.5015 31.8607 15.919 31.8607 17.6672C31.8607 19.4153 33.2782 20.8343 35.0278 20.8343C36.7759 20.8343 38.1935 22.2519 38.1935 24ZM24.0299 27.0302C25.7304 27.0302 27.1077 25.6528 27.1077 23.9523C27.1077 22.2519 25.7304 20.873 24.0299 20.8745C22.3309 20.8745 20.9521 22.2519 20.9521 23.9523C20.9521 25.6528 22.3294 27.0302 24.0299 27.0302Z" fill="white"/>
</svg>
