<svg width="493" height="356" viewBox="0 0 493 356" fill="none" xmlns="http://www.w3.org/2000/svg">
<g clip-path="url(#clip0_8399_542)">
<rect width="493" height="356" rx="8.85333" fill="#20222C"/>
<path d="M36.3657 -2.61978V407.854" stroke="#3E4C5C" stroke-width="1.47556"/>
<path d="M72.8018 -2.61978V407.854" stroke="#3E4C5C" stroke-width="1.47556"/>
<path d="M109.237 -2.61978V407.854" stroke="#3E4C5C" stroke-width="1.47556"/>
<path d="M145.673 -2.61978V407.854" stroke="#3E4C5C" stroke-width="1.47556"/>
<path d="M182.109 -2.61978V407.854" stroke="#3E4C5C" stroke-width="1.47556"/>
<path d="M218.544 -2.61978V407.854" stroke="#3E4C5C" stroke-width="1.47556"/>
<path d="M254.98 -2.61978V407.854" stroke="#3E4C5C" stroke-width="1.47556"/>
<path d="M291.415 -2.61978V407.854" stroke="#3E4C5C" stroke-width="1.47556"/>
<path d="M327.851 -2.61978V407.854" stroke="#3E4C5C" stroke-width="1.47556"/>
<path d="M364.287 -2.61978V407.854" stroke="#3E4C5C" stroke-width="1.47556"/>
<path d="M400.723 -2.61978V407.854" stroke="#3E4C5C" stroke-width="1.47556"/>
<path d="M13.3066 348.36L423.781 348.36" stroke="#3E4C5C" stroke-width="1.47556"/>
<path d="M13.3066 311.924L423.781 311.924" stroke="#3E4C5C" stroke-width="1.47556"/>
<path d="M13.3066 275.489L423.781 275.489" stroke="#3E4C5C" stroke-width="1.47556"/>
<path d="M13.3066 239.053L423.781 239.053" stroke="#3E4C5C" stroke-width="1.47556"/>
<path d="M13.3066 202.617L423.781 202.617" stroke="#3E4C5C" stroke-width="1.47556"/>
<path d="M13.3066 166.182L423.781 166.182" stroke="#3E4C5C" stroke-width="1.47556"/>
<path d="M13.3066 129.746L423.781 129.746" stroke="#3E4C5C" stroke-width="1.47556"/>
<path d="M13.3066 93.3102L423.781 93.3101" stroke="#3E4C5C" stroke-width="1.47556"/>
<path d="M13.3066 56.8745L423.781 56.8745" stroke="#3E4C5C" stroke-width="1.47556"/>
<path d="M13.3066 20.4388L423.781 20.4388" stroke="#3E4C5C" stroke-width="1.47556"/>
<rect width="499" height="386" fill="url(#paint0_radial_8399_542)"/>
<path d="M254.079 239.053L324.334 239.053" stroke="url(#paint1_linear_8399_542)" stroke-width="1.4512"/>
<path d="M111.854 56.8745L145.673 56.8745" stroke="url(#paint2_linear_8399_542)" stroke-width="1.4512"/>
<rect x="323.98" y="235.182" width="7.74108" height="7.74108" fill="#DCE2EA"/>
<rect x="108.592" y="51.4007" width="7.74108" height="7.74108" transform="rotate(45 108.592 51.4007)" fill="#DCE2EA"/>
<circle cx="254.98" cy="239.053" r="4.05904" fill="#DCE2EA"/>
<rect x="141.803" y="235.371" width="7.74108" height="7.74108" fill="#556578"/>
<rect x="323.258" y="56.8745" width="7.74108" height="7.74108" transform="rotate(-45 323.258 56.8745)" fill="#556578"/>
<g opacity="0.86" filter="url(#filter1_f_8399_542)">
<rect x="345.831" y="297.259" width="127.716" height="95.676" transform="rotate(-24.5108 345.831 297.259)" fill="#F3F5F8"/>
</g>
<g opacity="0.3" filter="url(#filter2_f_8399_542)">
<rect x="337.312" y="292.025" width="127.716" height="95.676" transform="rotate(-24.5108 337.312 292.025)" fill="#F3F5F8"/>
</g>
<g style="mix-blend-mode:difference" opacity="0.6" filter="url(#filter3_f_8399_542)">
<rect x="328.538" y="32.3482" width="149.315" height="131.668" fill="#A1B2C6"/>
</g>
<g style="mix-blend-mode:difference" opacity="0.6" filter="url(#filter4_f_8399_542)">
<rect x="-11.3506" y="79.7384" width="149.315" height="131.668" fill="#A1B2C6"/>
</g>
</g>
<defs>
<filter id="filter1_f_8399_542" x="161.387" y="59.8294" width="524.788" height="508.928" filterUnits="userSpaceOnUse" color-interpolation-filters="sRGB">
<feFlood flood-opacity="0" result="BackgroundImageFix"/>
<feBlend mode="normal" in="SourceGraphic" in2="BackgroundImageFix" result="shape"/>
<feGaussianBlur stdDeviation="92.2222" result="effect1_foregroundBlur_8399_542"/>
</filter>
<filter id="filter2_f_8399_542" x="152.868" y="54.5956" width="524.788" height="508.928" filterUnits="userSpaceOnUse" color-interpolation-filters="sRGB">
<feFlood flood-opacity="0" result="BackgroundImageFix"/>
<feBlend mode="normal" in="SourceGraphic" in2="BackgroundImageFix" result="shape"/>
<feGaussianBlur stdDeviation="92.2222" result="effect1_foregroundBlur_8399_542"/>
</filter>
<filter id="filter3_f_8399_542" x="240.005" y="-56.1851" width="326.382" height="308.735" filterUnits="userSpaceOnUse" color-interpolation-filters="sRGB">
<feFlood flood-opacity="0" result="BackgroundImageFix"/>
<feBlend mode="normal" in="SourceGraphic" in2="BackgroundImageFix" result="shape"/>
<feGaussianBlur stdDeviation="44.2667" result="effect1_foregroundBlur_8399_542"/>
</filter>
<filter id="filter4_f_8399_542" x="-99.8839" y="-8.79498" width="326.382" height="308.735" filterUnits="userSpaceOnUse" color-interpolation-filters="sRGB">
<feFlood flood-opacity="0" result="BackgroundImageFix"/>
<feBlend mode="normal" in="SourceGraphic" in2="BackgroundImageFix" result="shape"/>
<feGaussianBlur stdDeviation="44.2667" result="effect1_foregroundBlur_8399_542"/>
</filter>
<radialGradient id="paint0_radial_8399_542" cx="0" cy="0" r="1" gradientUnits="userSpaceOnUse" gradientTransform="translate(249.5 187.266) rotate(90) scale(198.734 274.287)">
<stop stop-color="#20222C" stop-opacity="0"/>
<stop offset="1" stop-color="#20222C"/>
</radialGradient>
<linearGradient id="paint1_linear_8399_542" x1="228.424" y1="239.053" x2="313.582" y2="242.642" gradientUnits="userSpaceOnUse">
<stop offset="0.33408" stop-color="#DCE2EA"/>
<stop offset="0.943574" stop-color="#DCE2EA" stop-opacity="0"/>
</linearGradient>
<linearGradient id="paint2_linear_8399_542" x1="99.5038" y1="56.8745" x2="140.553" y2="57.7073" gradientUnits="userSpaceOnUse">
<stop offset="0.33408" stop-color="#DCE2EA"/>
<stop offset="0.943574" stop-color="#DCE2EA" stop-opacity="0"/>
</linearGradient>
<clipPath id="clip0_8399_542">
<rect width="493" height="356" rx="8.85333" fill="white"/>
</clipPath>
</defs>
</svg>
