<svg width="317" height="151" viewBox="0 0 317 151" fill="none" xmlns="http://www.w3.org/2000/svg">
<g filter="url(#filter0_ddd_8399_1576)">
<rect x="20" y="16" width="1088.67" height="112" rx="9.54545" fill="#FAFAFA" shape-rendering="crispEdges"/>
<path d="M32.375 34C32.375 30.8934 34.8934 28.375 38 28.375H74C77.1066 28.375 79.625 30.8934 79.625 34V70C79.625 73.1066 77.1066 75.625 74 75.625H38C34.8934 75.625 32.375 73.1066 32.375 70V34Z" fill="#EDF6FD"/>
<path d="M32.375 34C32.375 30.8934 34.8934 28.375 38 28.375H74C77.1066 28.375 79.625 30.8934 79.625 34V70C79.625 73.1066 77.1066 75.625 74 75.625H38C34.8934 75.625 32.375 73.1066 32.375 70V34Z" stroke="#C3E3FD" stroke-width="0.75"/>
<path d="M54.3929 44.0714H56H57.6071C58.1295 44.0714 58.5714 44.5134 58.5714 45.0357C58.5714 45.5982 58.1295 46 57.6071 46H56.9643V47.3661C61.4643 47.8482 65 51.6652 65 56.2857H63.0714C63.0714 52.3884 59.8973 49.2143 56 49.2143C52.0625 49.2143 48.9286 52.3884 48.9286 56.2857H47C47 51.6652 50.4955 47.8482 55.0357 47.3661V46H54.3929C53.8304 46 53.4286 45.5982 53.4286 45.0357C53.4286 44.5134 53.8304 44.0714 54.3929 44.0714ZM46.6786 57.5714H65.3214C65.8437 57.5714 66.2857 58.0134 66.2857 58.5357C66.2857 59.0982 65.8437 59.5 65.3214 59.5H46.6786C46.1161 59.5 45.7143 59.0982 45.7143 58.5357C45.7143 58.0134 46.1161 57.5714 46.6786 57.5714Z" fill="#265892"/>
<path d="M92.5 32C92.5 30.067 94.067 28.5 96 28.5H127C128.933 28.5 130.5 30.067 130.5 32V44C130.5 45.933 128.933 47.5 127 47.5H96C94.067 47.5 92.5 45.933 92.5 44V32Z" stroke="#23C765"/>
<path d="M96.6377 42L99.3477 35H100.448L103.138 42H101.988L100.388 37.78C100.368 37.7333 100.328 37.62 100.268 37.44C100.214 37.26 100.151 37.06 100.078 36.84C100.004 36.62 99.9377 36.42 99.8777 36.24C99.8177 36.0533 99.7777 35.9333 99.7577 35.88L99.9877 35.87C99.9477 35.9833 99.8977 36.1267 99.8377 36.3C99.7844 36.4733 99.7244 36.6567 99.6577 36.85C99.5977 37.0433 99.5377 37.2267 99.4777 37.4C99.4177 37.5667 99.3677 37.7067 99.3277 37.82L97.7377 42H96.6377ZM97.8377 40.26L98.2377 39.22H101.418L101.878 40.26H97.8377ZM106.144 42.1C105.658 42.1 105.221 41.98 104.834 41.74C104.454 41.5 104.151 41.1733 103.924 40.76C103.704 40.3467 103.594 39.8833 103.594 39.37C103.594 38.8567 103.704 38.3933 103.924 37.98C104.151 37.5667 104.454 37.24 104.834 37C105.221 36.76 105.658 36.64 106.144 36.64C106.611 36.64 107.034 36.7367 107.414 36.93C107.801 37.1167 108.094 37.3733 108.294 37.7L107.724 38.4C107.618 38.2467 107.481 38.1067 107.314 37.98C107.148 37.8533 106.971 37.7533 106.784 37.68C106.598 37.6067 106.418 37.57 106.244 37.57C105.924 37.57 105.638 37.65 105.384 37.81C105.138 37.9633 104.941 38.1767 104.794 38.45C104.648 38.7233 104.574 39.03 104.574 39.37C104.574 39.71 104.651 40.0167 104.804 40.29C104.958 40.5567 105.161 40.77 105.414 40.93C105.668 41.09 105.948 41.17 106.254 41.17C106.434 41.17 106.608 41.14 106.774 41.08C106.948 41.02 107.114 40.93 107.274 40.81C107.434 40.69 107.584 40.5433 107.724 40.37L108.294 41.07C108.081 41.37 107.774 41.6167 107.374 41.81C106.981 42.0033 106.571 42.1 106.144 42.1ZM109.916 42V35.41H110.946V42H109.916ZM108.826 37.75V36.75H112.166V37.75H108.826ZM113.274 42V36.75H114.304V42H113.274ZM113.774 35.59C113.554 35.59 113.384 35.5333 113.264 35.42C113.144 35.3067 113.084 35.1467 113.084 34.94C113.084 34.7467 113.144 34.59 113.264 34.47C113.39 34.35 113.56 34.29 113.774 34.29C113.994 34.29 114.164 34.3467 114.284 34.46C114.404 34.5733 114.464 34.7333 114.464 34.94C114.464 35.1333 114.4 35.29 114.274 35.41C114.154 35.53 113.987 35.59 113.774 35.59ZM117.607 42L115.387 36.75H116.497L118.097 40.68L117.907 40.77L119.617 36.75H120.677L118.347 42H117.607ZM123.923 42.1C123.383 42.1 122.903 41.9867 122.483 41.76C122.07 41.5267 121.743 41.21 121.503 40.81C121.27 40.41 121.153 39.95 121.153 39.43C121.153 39.0167 121.22 38.64 121.353 38.3C121.486 37.96 121.67 37.6667 121.903 37.42C122.143 37.1667 122.426 36.9733 122.753 36.84C123.086 36.7 123.446 36.63 123.833 36.63C124.173 36.63 124.49 36.6967 124.783 36.83C125.076 36.9567 125.33 37.1333 125.543 37.36C125.763 37.5867 125.93 37.8567 126.043 38.17C126.163 38.4767 126.22 38.8133 126.213 39.18L126.203 39.62H121.913L121.683 38.8H125.313L125.163 38.97V38.73C125.143 38.51 125.07 38.3133 124.943 38.14C124.816 37.9667 124.656 37.83 124.463 37.73C124.27 37.63 124.06 37.58 123.833 37.58C123.473 37.58 123.17 37.65 122.923 37.79C122.676 37.9233 122.49 38.1233 122.363 38.39C122.236 38.65 122.173 38.9733 122.173 39.36C122.173 39.7267 122.25 40.0467 122.403 40.32C122.556 40.5867 122.773 40.7933 123.053 40.94C123.333 41.0867 123.656 41.16 124.023 41.16C124.283 41.16 124.523 41.1167 124.743 41.03C124.97 40.9433 125.213 40.7867 125.473 40.56L125.993 41.29C125.833 41.45 125.636 41.59 125.403 41.71C125.176 41.83 124.933 41.9267 124.673 42C124.42 42.0667 124.17 42.1 123.923 42.1Z" fill="#23C765"/>
<path d="M135.5 32C135.5 30.067 137.067 28.5 139 28.5H174C175.933 28.5 177.5 30.067 177.5 32V44C177.5 45.933 175.933 47.5 174 47.5H139C137.067 47.5 135.5 45.933 135.5 44V32Z" stroke="#73879E"/>
<path d="M144.784 42V35H145.864V42H144.784ZM140.214 42V35H141.294V42H140.214ZM140.684 39.03V37.99H145.264V39.03H140.684ZM149.922 42.1C149.408 42.1 148.948 41.9833 148.542 41.75C148.142 41.51 147.825 41.1867 147.592 40.78C147.358 40.3667 147.242 39.8967 147.242 39.37C147.242 38.8433 147.358 38.3767 147.592 37.97C147.825 37.5567 148.142 37.2333 148.542 37C148.948 36.76 149.408 36.64 149.922 36.64C150.428 36.64 150.882 36.76 151.282 37C151.688 37.2333 152.008 37.5567 152.242 37.97C152.475 38.3767 152.592 38.8433 152.592 39.37C152.592 39.8967 152.475 40.3667 152.242 40.78C152.008 41.1867 151.688 41.51 151.282 41.75C150.882 41.9833 150.428 42.1 149.922 42.1ZM149.922 41.16C150.235 41.16 150.515 41.0833 150.762 40.93C151.008 40.77 151.202 40.5567 151.342 40.29C151.482 40.0167 151.548 39.71 151.542 39.37C151.548 39.0233 151.482 38.7167 151.342 38.45C151.202 38.1767 151.008 37.9633 150.762 37.81C150.515 37.6567 150.235 37.58 149.922 37.58C149.608 37.58 149.325 37.66 149.072 37.82C148.825 37.9733 148.632 38.1867 148.492 38.46C148.352 38.7267 148.285 39.03 148.292 39.37C148.285 39.71 148.352 40.0167 148.492 40.29C148.632 40.5567 148.825 40.77 149.072 40.93C149.325 41.0833 149.608 41.16 149.922 41.16ZM155.464 42.1C155.024 42.1 154.627 42.0233 154.274 41.87C153.921 41.7167 153.627 41.49 153.394 41.19L154.094 40.59C154.294 40.8233 154.511 40.9933 154.744 41.1C154.984 41.2 155.254 41.25 155.554 41.25C155.674 41.25 155.784 41.2367 155.884 41.21C155.991 41.1767 156.081 41.13 156.154 41.07C156.234 41.01 156.294 40.94 156.334 40.86C156.374 40.7733 156.394 40.68 156.394 40.58C156.394 40.4067 156.331 40.2667 156.204 40.16C156.137 40.1133 156.031 40.0633 155.884 40.01C155.744 39.95 155.561 39.89 155.334 39.83C154.947 39.73 154.631 39.6167 154.384 39.49C154.137 39.3633 153.947 39.22 153.814 39.06C153.714 38.9333 153.641 38.7967 153.594 38.65C153.547 38.4967 153.524 38.33 153.524 38.15C153.524 37.93 153.571 37.73 153.664 37.55C153.764 37.3633 153.897 37.2033 154.064 37.07C154.237 36.93 154.437 36.8233 154.664 36.75C154.897 36.6767 155.144 36.64 155.404 36.64C155.651 36.64 155.894 36.6733 156.134 36.74C156.381 36.8067 156.607 36.9033 156.814 37.03C157.021 37.1567 157.194 37.3067 157.334 37.48L156.744 38.13C156.617 38.0033 156.477 37.8933 156.324 37.8C156.177 37.7 156.027 37.6233 155.874 37.57C155.721 37.5167 155.581 37.49 155.454 37.49C155.314 37.49 155.187 37.5033 155.074 37.53C154.961 37.5567 154.864 37.5967 154.784 37.65C154.711 37.7033 154.654 37.77 154.614 37.85C154.574 37.93 154.554 38.02 154.554 38.12C154.561 38.2067 154.581 38.29 154.614 38.37C154.654 38.4433 154.707 38.5067 154.774 38.56C154.847 38.6133 154.957 38.67 155.104 38.73C155.251 38.79 155.437 38.8467 155.664 38.9C155.997 38.9867 156.271 39.0833 156.484 39.19C156.704 39.29 156.877 39.4067 157.004 39.54C157.137 39.6667 157.231 39.8133 157.284 39.98C157.337 40.1467 157.364 40.3333 157.364 40.54C157.364 40.84 157.277 41.11 157.104 41.35C156.937 41.5833 156.711 41.7667 156.424 41.9C156.137 42.0333 155.817 42.1 155.464 42.1ZM159.149 42V35.41H160.179V42H159.149ZM158.059 37.75V36.75H161.399V37.75H158.059ZM164.738 42.1C164.198 42.1 163.718 41.9867 163.298 41.76C162.885 41.5267 162.558 41.21 162.318 40.81C162.085 40.41 161.968 39.95 161.968 39.43C161.968 39.0167 162.035 38.64 162.168 38.3C162.302 37.96 162.485 37.6667 162.718 37.42C162.958 37.1667 163.242 36.9733 163.568 36.84C163.902 36.7 164.262 36.63 164.648 36.63C164.988 36.63 165.305 36.6967 165.598 36.83C165.892 36.9567 166.145 37.1333 166.358 37.36C166.578 37.5867 166.745 37.8567 166.858 38.17C166.978 38.4767 167.035 38.8133 167.028 39.18L167.018 39.62H162.728L162.498 38.8H166.128L165.978 38.97V38.73C165.958 38.51 165.885 38.3133 165.758 38.14C165.632 37.9667 165.472 37.83 165.278 37.73C165.085 37.63 164.875 37.58 164.648 37.58C164.288 37.58 163.985 37.65 163.738 37.79C163.492 37.9233 163.305 38.1233 163.178 38.39C163.052 38.65 162.988 38.9733 162.988 39.36C162.988 39.7267 163.065 40.0467 163.218 40.32C163.372 40.5867 163.588 40.7933 163.868 40.94C164.148 41.0867 164.472 41.16 164.838 41.16C165.098 41.16 165.338 41.1167 165.558 41.03C165.785 40.9433 166.028 40.7867 166.288 40.56L166.808 41.29C166.648 41.45 166.452 41.59 166.218 41.71C165.992 41.83 165.748 41.9267 165.488 42C165.235 42.0667 164.985 42.1 164.738 42.1ZM170.338 42.1C169.858 42.1 169.428 41.9833 169.048 41.75C168.674 41.51 168.378 41.1867 168.158 40.78C167.938 40.3667 167.828 39.8967 167.828 39.37C167.828 38.8433 167.934 38.3767 168.148 37.97C168.368 37.5567 168.664 37.2333 169.038 37C169.411 36.76 169.834 36.64 170.308 36.64C170.568 36.64 170.818 36.6833 171.058 36.77C171.304 36.85 171.524 36.9633 171.718 37.11C171.911 37.25 172.061 37.4067 172.168 37.58C172.281 37.7467 172.338 37.9167 172.338 38.09L172.038 38.11V34.6H173.068V42H172.038V40.75H172.238C172.238 40.91 172.184 41.07 172.078 41.23C171.971 41.3833 171.828 41.5267 171.648 41.66C171.474 41.7933 171.271 41.9 171.038 41.98C170.811 42.06 170.578 42.1 170.338 42.1ZM170.478 41.21C170.791 41.21 171.068 41.13 171.308 40.97C171.548 40.81 171.734 40.5933 171.868 40.32C172.008 40.04 172.078 39.7233 172.078 39.37C172.078 39.0167 172.008 38.7033 171.868 38.43C171.734 38.15 171.548 37.93 171.308 37.77C171.068 37.61 170.791 37.53 170.478 37.53C170.164 37.53 169.888 37.61 169.648 37.77C169.408 37.93 169.218 38.15 169.078 38.43C168.944 38.7033 168.878 39.0167 168.878 39.37C168.878 39.7233 168.944 40.04 169.078 40.32C169.218 40.5933 169.408 40.81 169.648 40.97C169.888 41.13 170.164 41.21 170.478 41.21Z" fill="#73879E"/>
<path d="M182.5 32C182.5 30.067 184.067 28.5 186 28.5H202C203.933 28.5 205.5 30.067 205.5 32V44C205.5 45.933 203.933 47.5 202 47.5H186C184.067 47.5 182.5 45.933 182.5 44V32Z" stroke="#73879E"/>
<path d="M195.102 42.25C195.312 41.8281 195.5 41.3359 195.617 40.7734H194.375L194.703 39.6484H195.805C195.852 39.2734 195.875 38.8984 195.875 38.5234C195.875 38.125 195.852 37.75 195.805 37.3984H192.172C192.148 37.5859 192.148 37.7969 192.125 38.0078L191 38.3359C191 38.0078 191.023 37.7031 191.047 37.375H189.242C189.172 37.75 189.125 38.125 189.125 38.5C189.125 38.6406 189.125 38.7578 189.125 38.8984L188.023 39.2266C188 38.9922 188 38.7578 188 38.5C188 35.1953 190.672 32.5 194 32.5C197.305 32.5 200 35.1953 200 38.5234C200 41.8281 197.305 44.5234 194 44.5234C193.742 44.5234 193.508 44.5 193.273 44.4766L193.648 43.2578C193.789 43.3516 193.906 43.375 194 43.375C194.164 43.375 194.633 43.2109 195.102 42.25ZM192.875 34.7734C192.664 35.1953 192.5 35.6875 192.359 36.25H195.617C195.5 35.6875 195.312 35.1953 195.102 34.7734C194.633 33.8125 194.164 33.625 194 33.625C193.812 33.625 193.367 33.8125 192.875 34.7734ZM197 38.5C197 38.8984 196.977 39.2734 196.93 39.625H198.734C198.828 39.2734 198.875 38.8984 198.875 38.5C198.875 38.125 198.828 37.75 198.734 37.375H196.93C196.977 37.75 197 38.125 197 38.5ZM196.766 36.25H198.312C197.82 35.2891 197 34.5156 196.016 34.0703C196.344 34.6797 196.602 35.4297 196.766 36.25ZM189.664 36.25H191.211C191.375 35.4297 191.633 34.6797 191.961 34.0703C190.977 34.5156 190.156 35.2891 189.664 36.25ZM196.766 40.75C196.602 41.5938 196.344 42.3438 196.016 42.9531C197 42.5078 197.82 41.7344 198.312 40.75H196.766ZM188.914 39.7422L193.695 38.3359C194 38.2422 194.258 38.5234 194.164 38.8047L192.758 43.6094C192.664 43.9141 192.219 43.9609 192.055 43.6562L191.398 42.3203C191.375 42.2734 191.352 42.25 191.328 42.2266L189.266 44.2891C188.984 44.5938 188.492 44.5938 188.211 44.2891C187.906 44.0078 187.906 43.5156 188.211 43.2344L190.273 41.1719C190.25 41.1484 190.227 41.125 190.18 41.1016L188.844 40.4453C188.539 40.2812 188.586 39.8359 188.914 39.7422Z" fill="#73879E"/>
<path d="M210.5 32C210.5 30.067 212.067 28.5 214 28.5H230C231.933 28.5 233.5 30.067 233.5 32V44C233.5 45.933 231.933 47.5 230 47.5H214C212.067 47.5 210.5 45.933 210.5 44V32Z" stroke="#73879E"/>
<path d="M222 32.5C222.305 32.5 222.562 32.7578 222.562 33.0625V34.0469C224.578 34.3047 226.195 35.9219 226.453 37.9375H227.438C227.742 37.9375 228 38.1953 228 38.5C228 38.8281 227.742 39.0625 227.438 39.0625H226.453C226.195 41.1016 224.578 42.7188 222.562 42.9766V43.9375C222.562 44.2656 222.305 44.5 222 44.5C221.672 44.5 221.438 44.2656 221.438 43.9375V42.9766C219.398 42.7188 217.781 41.1016 217.523 39.0625H216.562C216.234 39.0625 216 38.8281 216 38.5C216 38.1953 216.234 37.9375 216.562 37.9375H217.523C217.781 35.9219 219.398 34.3047 221.438 34.0469V33.0625C221.438 32.7578 221.672 32.5 222 32.5ZM218.625 38.5C218.625 39.7188 219.258 40.8203 220.312 41.4297C221.344 42.0391 222.633 42.0391 223.688 41.4297C224.719 40.8203 225.375 39.7188 225.375 38.5C225.375 37.3047 224.719 36.2031 223.688 35.5938C222.633 34.9844 221.344 34.9844 220.312 35.5938C219.258 36.2031 218.625 37.3047 218.625 38.5ZM223.125 38.5C223.125 38.1016 222.891 37.75 222.562 37.5391C222.211 37.3281 221.766 37.3281 221.438 37.5391C221.086 37.75 220.875 38.1016 220.875 38.5C220.875 38.9219 221.086 39.2734 221.438 39.4844C221.766 39.6953 222.211 39.6953 222.562 39.4844C222.891 39.2734 223.125 38.9219 223.125 38.5ZM219.75 38.5C219.75 37.7031 220.172 36.9766 220.875 36.5547C221.555 36.1562 222.422 36.1562 223.125 36.5547C223.805 36.9766 224.25 37.7031 224.25 38.5C224.25 39.3203 223.805 40.0469 223.125 40.4688C222.422 40.8672 221.555 40.8672 220.875 40.4688C220.172 40.0469 219.75 39.3203 219.75 38.5Z" fill="#73879E"/>
<path d="M93.316 73V63.2H95.136V71.32H99.658V73H93.316ZM103.992 73.14C103.46 73.14 102.998 73.0233 102.606 72.79C102.214 72.5473 101.915 72.2067 101.71 71.768C101.505 71.32 101.402 70.788 101.402 70.172V65.622H103.124V69.808C103.124 70.2 103.185 70.536 103.306 70.816C103.427 71.0867 103.605 71.2967 103.838 71.446C104.071 71.5953 104.351 71.67 104.678 71.67C104.921 71.67 105.14 71.6327 105.336 71.558C105.541 71.474 105.719 71.362 105.868 71.222C106.017 71.0727 106.134 70.9 106.218 70.704C106.302 70.4987 106.344 70.2793 106.344 70.046V65.622H108.066V73H106.386L106.358 71.46L106.666 71.292C106.554 71.6467 106.363 71.964 106.092 72.244C105.831 72.5147 105.518 72.734 105.154 72.902C104.79 73.0607 104.403 73.14 103.992 73.14ZM114.858 73L112.758 70.158L112.366 69.626L109.328 65.622H111.456L113.5 68.394L113.934 68.982L116.944 73H114.858ZM109.314 73L112.24 69.08L113.22 70.256L111.344 73H109.314ZM113.934 69.556L112.996 68.394L114.69 65.622H116.72L113.934 69.556ZM120.672 73.14C120.14 73.14 119.678 73.0233 119.286 72.79C118.894 72.5473 118.595 72.2067 118.39 71.768C118.184 71.32 118.082 70.788 118.082 70.172V65.622H119.804V69.808C119.804 70.2 119.864 70.536 119.986 70.816C120.107 71.0867 120.284 71.2967 120.518 71.446C120.751 71.5953 121.031 71.67 121.358 71.67C121.6 71.67 121.82 71.6327 122.016 71.558C122.221 71.474 122.398 71.362 122.548 71.222C122.697 71.0727 122.814 70.9 122.898 70.704C122.982 70.4987 123.024 70.2793 123.024 70.046V65.622H124.746V73H123.066L123.038 71.46L123.346 71.292C123.234 71.6467 123.042 71.964 122.772 72.244C122.51 72.5147 122.198 72.734 121.834 72.902C121.47 73.0607 121.082 73.14 120.672 73.14ZM126.764 73V65.622H128.458L128.486 67.974L128.248 67.442C128.351 67.0687 128.528 66.7327 128.78 66.434C129.032 66.1353 129.321 65.902 129.648 65.734C129.984 65.5567 130.334 65.468 130.698 65.468C130.857 65.468 131.006 65.482 131.146 65.51C131.295 65.538 131.417 65.5707 131.51 65.608L131.048 67.498C130.945 67.442 130.819 67.3953 130.67 67.358C130.521 67.3207 130.371 67.302 130.222 67.302C129.989 67.302 129.765 67.3487 129.55 67.442C129.345 67.526 129.163 67.6473 129.004 67.806C128.845 67.9647 128.719 68.1513 128.626 68.366C128.542 68.5713 128.5 68.8047 128.5 69.066V73H126.764ZM133.776 76.22L135.344 72.594L135.358 73.742L131.718 65.622H133.706L135.736 70.438C135.802 70.5593 135.867 70.7227 135.932 70.928C135.998 71.124 136.054 71.32 136.1 71.516L135.75 71.628C135.816 71.4507 135.886 71.264 135.96 71.068C136.035 70.8627 136.105 70.6527 136.17 70.438L137.906 65.622H139.908L136.828 73L135.568 76.22H133.776ZM145.896 73V63.746H147.618V73H145.896ZM144.44 67.218V65.622H149.228V67.218H144.44ZM150.539 73V65.622H152.233L152.261 67.974L152.023 67.442C152.126 67.0687 152.303 66.7327 152.555 66.434C152.807 66.1353 153.097 65.902 153.423 65.734C153.759 65.5567 154.109 65.468 154.473 65.468C154.632 65.468 154.781 65.482 154.921 65.51C155.071 65.538 155.192 65.5707 155.285 65.608L154.823 67.498C154.721 67.442 154.595 67.3953 154.445 67.358C154.296 67.3207 154.147 67.302 153.997 67.302C153.764 67.302 153.54 67.3487 153.325 67.442C153.12 67.526 152.938 67.6473 152.779 67.806C152.621 67.9647 152.495 68.1513 152.401 68.366C152.317 68.5713 152.275 68.8047 152.275 69.066V73H150.539ZM158.903 73.14C158.297 73.14 157.746 72.972 157.251 72.636C156.757 72.3 156.36 71.8427 156.061 71.264C155.763 70.6853 155.613 70.0273 155.613 69.29C155.613 68.5527 155.763 67.8947 156.061 67.316C156.36 66.7373 156.766 66.2847 157.279 65.958C157.793 65.6313 158.371 65.468 159.015 65.468C159.389 65.468 159.729 65.524 160.037 65.636C160.345 65.7387 160.616 65.888 160.849 66.084C161.083 66.28 161.274 66.504 161.423 66.756C161.582 67.008 161.689 67.2787 161.745 67.568L161.367 67.47V65.622H163.103V73H161.353V71.236L161.759 71.166C161.694 71.418 161.573 71.6653 161.395 71.908C161.227 72.1413 161.013 72.3513 160.751 72.538C160.499 72.7153 160.215 72.86 159.897 72.972C159.589 73.084 159.258 73.14 158.903 73.14ZM159.379 71.614C159.781 71.614 160.135 71.516 160.443 71.32C160.751 71.124 160.989 70.8533 161.157 70.508C161.335 70.1533 161.423 69.7473 161.423 69.29C161.423 68.842 161.335 68.4453 161.157 68.1C160.989 67.7547 160.751 67.484 160.443 67.288C160.135 67.092 159.781 66.994 159.379 66.994C158.978 66.994 158.623 67.092 158.315 67.288C158.017 67.484 157.783 67.7547 157.615 68.1C157.447 68.4453 157.363 68.842 157.363 69.29C157.363 69.7473 157.447 70.1533 157.615 70.508C157.783 70.8533 158.017 71.124 158.315 71.32C158.623 71.516 158.978 71.614 159.379 71.614ZM167.302 73L164.194 65.622H166.07L168.17 71.138L167.806 71.236L170.018 65.622H171.852L168.59 73H167.302ZM176.364 73.14C175.59 73.14 174.904 72.9767 174.306 72.65C173.718 72.3233 173.256 71.88 172.92 71.32C172.594 70.7507 172.43 70.102 172.43 69.374C172.43 68.7953 172.524 68.268 172.71 67.792C172.897 67.316 173.154 66.9053 173.48 66.56C173.816 66.2053 174.213 65.9347 174.67 65.748C175.137 65.552 175.646 65.454 176.196 65.454C176.682 65.454 177.134 65.5473 177.554 65.734C177.974 65.9207 178.338 66.1773 178.646 66.504C178.954 66.8213 179.188 67.204 179.346 67.652C179.514 68.0907 179.594 68.5713 179.584 69.094L179.57 69.696H173.592L173.27 68.52H178.128L177.904 68.758V68.45C177.876 68.1607 177.783 67.9087 177.624 67.694C177.466 67.47 177.26 67.2973 177.008 67.176C176.766 67.0453 176.495 66.98 176.196 66.98C175.739 66.98 175.352 67.0687 175.034 67.246C174.726 67.4233 174.493 67.68 174.334 68.016C174.176 68.3427 174.096 68.7533 174.096 69.248C174.096 69.724 174.194 70.1393 174.39 70.494C174.596 70.8487 174.88 71.124 175.244 71.32C175.618 71.5067 176.052 71.6 176.546 71.6C176.892 71.6 177.209 71.544 177.498 71.432C177.788 71.32 178.1 71.1193 178.436 70.83L179.29 72.02C179.038 72.2533 178.749 72.454 178.422 72.622C178.105 72.7807 177.769 72.9067 177.414 73C177.06 73.0933 176.71 73.14 176.364 73.14ZM181.124 73V62.64H182.86V73H181.124ZM193.072 73.14C192.746 73.14 192.424 73.0933 192.106 73C191.798 72.8973 191.518 72.762 191.266 72.594C191.014 72.426 190.804 72.2393 190.636 72.034C190.468 71.8193 190.356 71.6047 190.3 71.39L190.706 71.208L190.664 72.972H188.998V62.64H190.72V67.33L190.412 67.19C190.459 66.966 190.562 66.756 190.72 66.56C190.888 66.3547 191.094 66.1727 191.336 66.014C191.579 65.846 191.845 65.7153 192.134 65.622C192.424 65.5193 192.718 65.468 193.016 65.468C193.679 65.468 194.262 65.6313 194.766 65.958C195.28 66.2847 195.681 66.7373 195.97 67.316C196.269 67.8947 196.418 68.5527 196.418 69.29C196.418 70.0367 196.274 70.6993 195.984 71.278C195.695 71.8567 195.294 72.314 194.78 72.65C194.276 72.9767 193.707 73.14 193.072 73.14ZM192.708 71.628C193.1 71.628 193.45 71.53 193.758 71.334C194.066 71.1287 194.309 70.8533 194.486 70.508C194.664 70.1533 194.752 69.7473 194.752 69.29C194.752 68.842 194.664 68.4453 194.486 68.1C194.318 67.7547 194.08 67.484 193.772 67.288C193.464 67.092 193.11 66.994 192.708 66.994C192.307 66.994 191.952 67.092 191.644 67.288C191.336 67.484 191.094 67.7547 190.916 68.1C190.739 68.4453 190.65 68.842 190.65 69.29C190.65 69.7473 190.739 70.1533 190.916 70.508C191.094 70.8533 191.336 71.1287 191.644 71.334C191.952 71.53 192.307 71.628 192.708 71.628ZM201.327 73.14C200.59 73.14 199.932 72.9767 199.353 72.65C198.775 72.314 198.317 71.8567 197.981 71.278C197.645 70.6993 197.477 70.0413 197.477 69.304C197.477 68.5667 197.645 67.9087 197.981 67.33C198.317 66.7513 198.775 66.2987 199.353 65.972C199.932 65.636 200.59 65.468 201.327 65.468C202.055 65.468 202.709 65.636 203.287 65.972C203.866 66.2987 204.319 66.7513 204.645 67.33C204.981 67.9087 205.149 68.5667 205.149 69.304C205.149 70.0413 204.981 70.6993 204.645 71.278C204.319 71.8567 203.866 72.314 203.287 72.65C202.709 72.9767 202.055 73.14 201.327 73.14ZM201.327 71.614C201.729 71.614 202.083 71.5113 202.391 71.306C202.709 71.1007 202.956 70.8253 203.133 70.48C203.32 70.1347 203.409 69.7427 203.399 69.304C203.409 68.856 203.32 68.4593 203.133 68.114C202.956 67.7687 202.709 67.498 202.391 67.302C202.083 67.0967 201.729 66.994 201.327 66.994C200.926 66.994 200.562 67.0967 200.235 67.302C199.918 67.498 199.671 67.7733 199.493 68.128C199.316 68.4733 199.227 68.8653 199.227 69.304C199.227 69.7427 199.316 70.1347 199.493 70.48C199.671 70.8253 199.918 71.1007 200.235 71.306C200.562 71.5113 200.926 71.614 201.327 71.614ZM210.064 73.14C209.326 73.14 208.668 72.9767 208.09 72.65C207.511 72.314 207.054 71.8567 206.718 71.278C206.382 70.6993 206.214 70.0413 206.214 69.304C206.214 68.5667 206.382 67.9087 206.718 67.33C207.054 66.7513 207.511 66.2987 208.09 65.972C208.668 65.636 209.326 65.468 210.064 65.468C210.792 65.468 211.445 65.636 212.024 65.972C212.602 66.2987 213.055 66.7513 213.382 67.33C213.718 67.9087 213.886 68.5667 213.886 69.304C213.886 70.0413 213.718 70.6993 213.382 71.278C213.055 71.8567 212.602 72.314 212.024 72.65C211.445 72.9767 210.792 73.14 210.064 73.14ZM210.064 71.614C210.465 71.614 210.82 71.5113 211.128 71.306C211.445 71.1007 211.692 70.8253 211.87 70.48C212.056 70.1347 212.145 69.7427 212.136 69.304C212.145 68.856 212.056 68.4593 211.87 68.114C211.692 67.7687 211.445 67.498 211.128 67.302C210.82 67.0967 210.465 66.994 210.064 66.994C209.662 66.994 209.298 67.0967 208.972 67.302C208.654 67.498 208.407 67.7733 208.23 68.128C208.052 68.4733 207.964 68.8653 207.964 69.304C207.964 69.7427 208.052 70.1347 208.23 70.48C208.407 70.8253 208.654 71.1007 208.972 71.306C209.298 71.5113 209.662 71.614 210.064 71.614ZM217.036 70.746L216.7 69.136L220.2 65.622H222.496L217.036 70.746ZM215.426 73V62.64H217.148V73H215.426ZM220.41 73L217.694 69.71L218.912 68.674L222.538 73H220.41ZM223.866 73V65.622H225.588V73H223.866ZM224.706 64.054C224.361 64.054 224.09 63.97 223.894 63.802C223.707 63.6247 223.614 63.3773 223.614 63.06C223.614 62.7613 223.712 62.5187 223.908 62.332C224.104 62.1453 224.37 62.052 224.706 62.052C225.061 62.052 225.331 62.1407 225.518 62.318C225.714 62.486 225.812 62.7333 225.812 63.06C225.812 63.3493 225.714 63.5873 225.518 63.774C225.322 63.9607 225.051 64.054 224.706 64.054ZM227.772 73V65.622H229.452L229.48 67.134L229.158 67.302C229.251 66.966 229.433 66.6627 229.704 66.392C229.974 66.112 230.296 65.888 230.67 65.72C231.043 65.552 231.426 65.468 231.818 65.468C232.378 65.468 232.844 65.58 233.218 65.804C233.6 66.028 233.885 66.364 234.072 66.812C234.268 67.26 234.366 67.82 234.366 68.492V73H232.644V68.618C232.644 68.2447 232.592 67.9367 232.49 67.694C232.387 67.442 232.228 67.26 232.014 67.148C231.799 67.0267 231.538 66.9707 231.23 66.98C230.978 66.98 230.744 67.022 230.53 67.106C230.324 67.1807 230.142 67.2927 229.984 67.442C229.834 67.582 229.713 67.7453 229.62 67.932C229.536 68.1187 229.494 68.324 229.494 68.548V73H228.64C228.472 73 228.313 73 228.164 73C228.024 73 227.893 73 227.772 73ZM239.621 76.22C239.07 76.22 238.52 76.136 237.969 75.968C237.428 75.8 236.989 75.5807 236.653 75.31L237.269 74.036C237.465 74.176 237.684 74.2973 237.927 74.4C238.17 74.5027 238.426 74.582 238.697 74.638C238.977 74.694 239.252 74.722 239.523 74.722C240.018 74.722 240.428 74.6427 240.755 74.484C241.091 74.3347 241.343 74.1013 241.511 73.784C241.679 73.476 241.763 73.0887 241.763 72.622V71.264L242.015 71.362C241.959 71.6513 241.805 71.9267 241.553 72.188C241.301 72.4493 240.984 72.664 240.601 72.832C240.218 72.9907 239.826 73.07 239.425 73.07C238.725 73.07 238.104 72.9067 237.563 72.58C237.031 72.2533 236.606 71.81 236.289 71.25C235.981 70.6807 235.827 70.0273 235.827 69.29C235.827 68.5527 235.981 67.8993 236.289 67.33C236.597 66.7513 237.017 66.2987 237.549 65.972C238.09 65.636 238.697 65.468 239.369 65.468C239.649 65.468 239.92 65.5007 240.181 65.566C240.442 65.6313 240.68 65.7247 240.895 65.846C241.119 65.9673 241.32 66.1027 241.497 66.252C241.674 66.4013 241.819 66.56 241.931 66.728C242.043 66.896 242.113 67.0593 242.141 67.218L241.777 67.33L241.805 65.622H243.499V72.496C243.499 73.0933 243.41 73.6207 243.233 74.078C243.056 74.5353 242.799 74.9227 242.463 75.24C242.127 75.5667 241.721 75.8093 241.245 75.968C240.769 76.136 240.228 76.22 239.621 76.22ZM239.691 71.6C240.111 71.6 240.48 71.502 240.797 71.306C241.124 71.11 241.376 70.8393 241.553 70.494C241.73 70.1487 241.819 69.752 241.819 69.304C241.819 68.8467 241.726 68.4453 241.539 68.1C241.362 67.7453 241.114 67.47 240.797 67.274C240.48 67.078 240.111 66.98 239.691 66.98C239.271 66.98 238.902 67.0827 238.585 67.288C238.268 67.484 238.016 67.7593 237.829 68.114C237.652 68.4593 237.563 68.856 237.563 69.304C237.563 69.7427 237.652 70.1393 237.829 70.494C238.016 70.8393 238.268 71.11 238.585 71.306C238.902 71.502 239.271 71.6 239.691 71.6ZM252.392 73.14C251.785 73.14 251.234 72.972 250.74 72.636C250.245 72.3 249.848 71.8427 249.55 71.264C249.251 70.6853 249.102 70.0273 249.102 69.29C249.102 68.5527 249.251 67.8947 249.55 67.316C249.848 66.7373 250.254 66.2847 250.768 65.958C251.281 65.6313 251.86 65.468 252.504 65.468C252.877 65.468 253.218 65.524 253.526 65.636C253.834 65.7387 254.104 65.888 254.338 66.084C254.571 66.28 254.762 66.504 254.912 66.756C255.07 67.008 255.178 67.2787 255.234 67.568L254.856 67.47V65.622H256.592V73H254.842V71.236L255.248 71.166C255.182 71.418 255.061 71.6653 254.884 71.908C254.716 72.1413 254.501 72.3513 254.24 72.538C253.988 72.7153 253.703 72.86 253.386 72.972C253.078 73.084 252.746 73.14 252.392 73.14ZM252.868 71.614C253.269 71.614 253.624 71.516 253.932 71.32C254.24 71.124 254.478 70.8533 254.646 70.508C254.823 70.1533 254.912 69.7473 254.912 69.29C254.912 68.842 254.823 68.4453 254.646 68.1C254.478 67.7547 254.24 67.484 253.932 67.288C253.624 67.092 253.269 66.994 252.868 66.994C252.466 66.994 252.112 67.092 251.804 67.288C251.505 67.484 251.272 67.7547 251.104 68.1C250.936 68.4453 250.852 68.842 250.852 69.29C250.852 69.7473 250.936 70.1533 251.104 70.508C251.272 70.8533 251.505 71.124 251.804 71.32C252.112 71.516 252.466 71.614 252.868 71.614ZM261.906 76.22C261.355 76.22 260.805 76.136 260.254 75.968C259.713 75.8 259.274 75.5807 258.938 75.31L259.554 74.036C259.75 74.176 259.969 74.2973 260.212 74.4C260.455 74.5027 260.711 74.582 260.982 74.638C261.262 74.694 261.537 74.722 261.808 74.722C262.303 74.722 262.713 74.6427 263.04 74.484C263.376 74.3347 263.628 74.1013 263.796 73.784C263.964 73.476 264.048 73.0887 264.048 72.622V71.264L264.3 71.362C264.244 71.6513 264.09 71.9267 263.838 72.188C263.586 72.4493 263.269 72.664 262.886 72.832C262.503 72.9907 262.111 73.07 261.71 73.07C261.01 73.07 260.389 72.9067 259.848 72.58C259.316 72.2533 258.891 71.81 258.574 71.25C258.266 70.6807 258.112 70.0273 258.112 69.29C258.112 68.5527 258.266 67.8993 258.574 67.33C258.882 66.7513 259.302 66.2987 259.834 65.972C260.375 65.636 260.982 65.468 261.654 65.468C261.934 65.468 262.205 65.5007 262.466 65.566C262.727 65.6313 262.965 65.7247 263.18 65.846C263.404 65.9673 263.605 66.1027 263.782 66.252C263.959 66.4013 264.104 66.56 264.216 66.728C264.328 66.896 264.398 67.0593 264.426 67.218L264.062 67.33L264.09 65.622H265.784V72.496C265.784 73.0933 265.695 73.6207 265.518 74.078C265.341 74.5353 265.084 74.9227 264.748 75.24C264.412 75.5667 264.006 75.8093 263.53 75.968C263.054 76.136 262.513 76.22 261.906 76.22ZM261.976 71.6C262.396 71.6 262.765 71.502 263.082 71.306C263.409 71.11 263.661 70.8393 263.838 70.494C264.015 70.1487 264.104 69.752 264.104 69.304C264.104 68.8467 264.011 68.4453 263.824 68.1C263.647 67.7453 263.399 67.47 263.082 67.274C262.765 67.078 262.396 66.98 261.976 66.98C261.556 66.98 261.187 67.0827 260.87 67.288C260.553 67.484 260.301 67.7593 260.114 68.114C259.937 68.4593 259.848 68.856 259.848 69.304C259.848 69.7427 259.937 70.1393 260.114 70.494C260.301 70.8393 260.553 71.11 260.87 71.306C261.187 71.502 261.556 71.6 261.976 71.6ZM271.234 73.14C270.459 73.14 269.773 72.9767 269.176 72.65C268.588 72.3233 268.126 71.88 267.79 71.32C267.463 70.7507 267.3 70.102 267.3 69.374C267.3 68.7953 267.393 68.268 267.58 67.792C267.766 67.316 268.023 66.9053 268.35 66.56C268.686 66.2053 269.082 65.9347 269.54 65.748C270.006 65.552 270.515 65.454 271.066 65.454C271.551 65.454 272.004 65.5473 272.424 65.734C272.844 65.9207 273.208 66.1773 273.516 66.504C273.824 66.8213 274.057 67.204 274.216 67.652C274.384 68.0907 274.463 68.5713 274.454 69.094L274.44 69.696H268.462L268.14 68.52H272.998L272.774 68.758V68.45C272.746 68.1607 272.652 67.9087 272.494 67.694C272.335 67.47 272.13 67.2973 271.878 67.176C271.635 67.0453 271.364 66.98 271.066 66.98C270.608 66.98 270.221 67.0687 269.904 67.246C269.596 67.4233 269.362 67.68 269.204 68.016C269.045 68.3427 268.966 68.7533 268.966 69.248C268.966 69.724 269.064 70.1393 269.26 70.494C269.465 70.8487 269.75 71.124 270.114 71.32C270.487 71.5067 270.921 71.6 271.416 71.6C271.761 71.6 272.078 71.544 272.368 71.432C272.657 71.32 272.97 71.1193 273.306 70.83L274.16 72.02C273.908 72.2533 273.618 72.454 273.292 72.622C272.974 72.7807 272.638 72.9067 272.284 73C271.929 73.0933 271.579 73.14 271.234 73.14ZM275.979 73V65.622H277.659L277.687 67.134L277.365 67.302C277.458 66.966 277.64 66.6627 277.911 66.392C278.181 66.112 278.503 65.888 278.877 65.72C279.25 65.552 279.633 65.468 280.025 65.468C280.585 65.468 281.051 65.58 281.425 65.804C281.807 66.028 282.092 66.364 282.279 66.812C282.475 67.26 282.573 67.82 282.573 68.492V73H280.851V68.618C280.851 68.2447 280.799 67.9367 280.697 67.694C280.594 67.442 280.435 67.26 280.221 67.148C280.006 67.0267 279.745 66.9707 279.437 66.98C279.185 66.98 278.951 67.022 278.737 67.106C278.531 67.1807 278.349 67.2927 278.191 67.442C278.041 67.582 277.92 67.7453 277.827 67.932C277.743 68.1187 277.701 68.324 277.701 68.548V73H276.847C276.679 73 276.52 73 276.371 73C276.231 73 276.1 73 275.979 73ZM285.308 73V63.746H287.03V73H285.308ZM283.852 67.218V65.622H288.64V67.218H283.852Z" fill="#000D3D"/>
<path d="M96.5 99.25C96.5 98.8516 96.8281 98.5 97.25 98.5C100.977 98.5 104 101.523 104 105.25C104 105.672 103.648 106 103.25 106C102.828 106 102.5 105.672 102.5 105.25C102.5 102.367 100.133 100 97.25 100C96.8281 100 96.5 99.6719 96.5 99.25ZM93.4062 103.68L95.8438 106.117L96.5234 105.461C96.5 105.391 96.5 105.32 96.5 105.25C96.5 104.852 96.8281 104.5 97.25 104.5C97.6484 104.5 98 104.852 98 105.25C98 105.672 97.6484 106 97.25 106C97.1797 106 97.1094 106 97.0391 105.977L96.3828 106.656L98.8203 109.094C99.1484 109.422 99.1016 110.008 98.6562 110.172C98.0938 110.383 97.4844 110.5 96.875 110.5C94.1797 110.5 92 108.32 92 105.625C92 105.016 92.1172 104.406 92.3281 103.844C92.4922 103.398 93.0781 103.352 93.4062 103.68ZM97.25 100.75C99.7344 100.75 101.75 102.766 101.75 105.25C101.75 105.672 101.398 106 101 106C100.578 106 100.25 105.672 100.25 105.25C100.25 103.609 98.8906 102.25 97.25 102.25C96.8281 102.25 96.5 101.922 96.5 101.5C96.5 101.102 96.8281 100.75 97.25 100.75Z" fill="#4BA1E7"/>
<path d="M109.176 109V100.6H112.596C113.052 100.6 113.464 100.716 113.832 100.948C114.208 101.172 114.508 101.48 114.732 101.872C114.956 102.264 115.068 102.7 115.068 103.18C115.068 103.66 114.956 104.096 114.732 104.488C114.508 104.88 114.208 105.196 113.832 105.436C113.464 105.668 113.052 105.784 112.596 105.784H110.472V109H109.176ZM110.472 104.536H112.572C112.788 104.536 112.984 104.476 113.16 104.356C113.336 104.228 113.476 104.064 113.58 103.864C113.692 103.656 113.748 103.428 113.748 103.18C113.748 102.932 113.692 102.708 113.58 102.508C113.476 102.308 113.336 102.148 113.16 102.028C112.984 101.908 112.788 101.848 112.572 101.848H110.472V104.536ZM116.469 109V102.7H117.717V104.68L117.597 104.2C117.685 103.896 117.833 103.62 118.041 103.372C118.257 103.124 118.501 102.928 118.773 102.784C119.053 102.64 119.341 102.568 119.637 102.568C119.773 102.568 119.901 102.58 120.021 102.604C120.149 102.628 120.249 102.656 120.321 102.688L119.997 104.032C119.901 103.992 119.793 103.96 119.673 103.936C119.561 103.904 119.449 103.888 119.337 103.888C119.121 103.888 118.913 103.932 118.713 104.02C118.521 104.1 118.349 104.216 118.197 104.368C118.053 104.512 117.937 104.684 117.849 104.884C117.761 105.076 117.717 105.288 117.717 105.52V109H116.469ZM123.872 109.12C123.256 109.12 122.704 108.98 122.216 108.7C121.736 108.412 121.356 108.024 121.076 107.536C120.796 107.04 120.656 106.476 120.656 105.844C120.656 105.212 120.796 104.652 121.076 104.164C121.356 103.668 121.736 103.28 122.216 103C122.704 102.712 123.256 102.568 123.872 102.568C124.48 102.568 125.024 102.712 125.504 103C125.992 103.28 126.376 103.668 126.656 104.164C126.936 104.652 127.076 105.212 127.076 105.844C127.076 106.476 126.936 107.04 126.656 107.536C126.376 108.024 125.992 108.412 125.504 108.7C125.024 108.98 124.48 109.12 123.872 109.12ZM123.872 107.992C124.248 107.992 124.584 107.9 124.88 107.716C125.176 107.524 125.408 107.268 125.576 106.948C125.744 106.62 125.824 106.252 125.816 105.844C125.824 105.428 125.744 105.06 125.576 104.74C125.408 104.412 125.176 104.156 124.88 103.972C124.584 103.788 124.248 103.696 123.872 103.696C123.496 103.696 123.156 103.792 122.852 103.984C122.556 104.168 122.324 104.424 122.156 104.752C121.988 105.072 121.908 105.436 121.916 105.844C121.908 106.252 121.988 106.62 122.156 106.948C122.324 107.268 122.556 107.524 122.852 107.716C123.156 107.9 123.496 107.992 123.872 107.992ZM129.203 109V101.092H130.439V109H129.203ZM127.895 103.9V102.7H131.903V103.9H127.895ZM135.801 109.12C135.185 109.12 134.633 108.98 134.145 108.7C133.665 108.412 133.285 108.024 133.005 107.536C132.725 107.04 132.585 106.476 132.585 105.844C132.585 105.212 132.725 104.652 133.005 104.164C133.285 103.668 133.665 103.28 134.145 103C134.633 102.712 135.185 102.568 135.801 102.568C136.409 102.568 136.953 102.712 137.433 103C137.921 103.28 138.305 103.668 138.585 104.164C138.865 104.652 139.005 105.212 139.005 105.844C139.005 106.476 138.865 107.04 138.585 107.536C138.305 108.024 137.921 108.412 137.433 108.7C136.953 108.98 136.409 109.12 135.801 109.12ZM135.801 107.992C136.177 107.992 136.513 107.9 136.809 107.716C137.105 107.524 137.337 107.268 137.505 106.948C137.673 106.62 137.753 106.252 137.745 105.844C137.753 105.428 137.673 105.06 137.505 104.74C137.337 104.412 137.105 104.156 136.809 103.972C136.513 103.788 136.177 103.696 135.801 103.696C135.425 103.696 135.085 103.792 134.781 103.984C134.485 104.168 134.253 104.424 134.085 104.752C133.917 105.072 133.837 105.436 133.845 105.844C133.837 106.252 133.917 106.62 134.085 106.948C134.253 107.268 134.485 107.524 134.781 107.716C135.085 107.9 135.425 107.992 135.801 107.992ZM143.028 109.12C142.444 109.12 141.92 108.976 141.456 108.688C141 108.4 140.636 108.008 140.364 107.512C140.1 107.016 139.968 106.46 139.968 105.844C139.968 105.228 140.1 104.672 140.364 104.176C140.636 103.68 141 103.288 141.456 103C141.92 102.712 142.444 102.568 143.028 102.568C143.588 102.568 144.096 102.684 144.552 102.916C145.016 103.14 145.368 103.448 145.608 103.84L144.924 104.68C144.796 104.496 144.632 104.328 144.432 104.176C144.232 104.024 144.02 103.904 143.796 103.816C143.572 103.728 143.356 103.684 143.148 103.684C142.764 103.684 142.42 103.78 142.116 103.972C141.82 104.156 141.584 104.412 141.408 104.74C141.232 105.068 141.144 105.436 141.144 105.844C141.144 106.252 141.236 106.62 141.42 106.948C141.604 107.268 141.848 107.524 142.152 107.716C142.456 107.908 142.792 108.004 143.16 108.004C143.376 108.004 143.584 107.968 143.784 107.896C143.992 107.824 144.192 107.716 144.384 107.572C144.576 107.428 144.756 107.252 144.924 107.044L145.608 107.884C145.352 108.244 144.984 108.54 144.504 108.772C144.032 109.004 143.54 109.12 143.028 109.12ZM149.606 109.12C148.99 109.12 148.438 108.98 147.95 108.7C147.47 108.412 147.09 108.024 146.81 107.536C146.53 107.04 146.39 106.476 146.39 105.844C146.39 105.212 146.53 104.652 146.81 104.164C147.09 103.668 147.47 103.28 147.95 103C148.438 102.712 148.99 102.568 149.606 102.568C150.214 102.568 150.758 102.712 151.238 103C151.726 103.28 152.11 103.668 152.39 104.164C152.67 104.652 152.81 105.212 152.81 105.844C152.81 106.476 152.67 107.04 152.39 107.536C152.11 108.024 151.726 108.412 151.238 108.7C150.758 108.98 150.214 109.12 149.606 109.12ZM149.606 107.992C149.982 107.992 150.318 107.9 150.614 107.716C150.91 107.524 151.142 107.268 151.31 106.948C151.478 106.62 151.558 106.252 151.55 105.844C151.558 105.428 151.478 105.06 151.31 104.74C151.142 104.412 150.91 104.156 150.614 103.972C150.318 103.788 149.982 103.696 149.606 103.696C149.23 103.696 148.89 103.792 148.586 103.984C148.29 104.168 148.058 104.424 147.89 104.752C147.722 105.072 147.642 105.436 147.65 105.844C147.642 106.252 147.722 106.62 147.89 106.948C148.058 107.268 148.29 107.524 148.586 107.716C148.89 107.9 149.23 107.992 149.606 107.992ZM154.181 109V100.12H155.417V109H154.181ZM159.269 109.12C158.741 109.12 158.265 109.028 157.841 108.844C157.417 108.66 157.065 108.388 156.785 108.028L157.625 107.308C157.865 107.588 158.125 107.792 158.405 107.92C158.693 108.04 159.017 108.1 159.377 108.1C159.521 108.1 159.653 108.084 159.773 108.052C159.901 108.012 160.009 107.956 160.097 107.884C160.193 107.812 160.265 107.728 160.313 107.632C160.361 107.528 160.385 107.416 160.385 107.296C160.385 107.088 160.309 106.92 160.157 106.792C160.077 106.736 159.949 106.676 159.773 106.612C159.605 106.54 159.385 106.468 159.113 106.396C158.649 106.276 158.269 106.14 157.973 105.988C157.677 105.836 157.449 105.664 157.289 105.472C157.169 105.32 157.081 105.156 157.025 104.98C156.969 104.796 156.941 104.596 156.941 104.38C156.941 104.116 156.997 103.876 157.109 103.66C157.229 103.436 157.389 103.244 157.589 103.084C157.797 102.916 158.037 102.788 158.309 102.7C158.589 102.612 158.885 102.568 159.197 102.568C159.493 102.568 159.785 102.608 160.073 102.688C160.369 102.768 160.641 102.884 160.889 103.036C161.137 103.188 161.345 103.368 161.513 103.576L160.805 104.356C160.653 104.204 160.485 104.072 160.301 103.96C160.125 103.84 159.945 103.748 159.761 103.684C159.577 103.62 159.409 103.588 159.257 103.588C159.089 103.588 158.937 103.604 158.801 103.636C158.665 103.668 158.549 103.716 158.453 103.78C158.365 103.844 158.297 103.924 158.249 104.02C158.201 104.116 158.177 104.224 158.177 104.344C158.185 104.448 158.209 104.548 158.249 104.644C158.297 104.732 158.361 104.808 158.441 104.872C158.529 104.936 158.661 105.004 158.837 105.076C159.013 105.148 159.237 105.216 159.509 105.28C159.909 105.384 160.237 105.5 160.493 105.628C160.757 105.748 160.965 105.888 161.117 106.048C161.277 106.2 161.389 106.376 161.453 106.576C161.517 106.776 161.549 107 161.549 107.248C161.549 107.608 161.445 107.932 161.237 108.22C161.037 108.5 160.765 108.72 160.421 108.88C160.077 109.04 159.693 109.12 159.269 109.12Z" fill="#000D3D"/>
<path d="M171 96C171 93.7909 172.791 92 175 92H262C264.209 92 266 93.7909 266 96V112C266 114.209 264.209 116 262 116H175C172.791 116 171 114.209 171 112V96Z" fill="#F3F5F8"/>
<path d="M180.077 108V100.422H181.063V103.684H183.866V100.422H184.848V108H183.866V104.44H181.063V108H180.077ZM188.471 108.151C187.689 108.151 187.064 107.88 186.596 107.336C186.127 106.789 185.893 106.101 185.893 105.271C185.893 104.44 186.127 103.754 186.596 103.21C187.064 102.666 187.689 102.395 188.471 102.395C189.249 102.395 189.872 102.666 190.341 103.21C190.81 103.754 191.044 104.44 191.044 105.271C191.044 106.101 190.81 106.789 190.341 107.336C189.872 107.88 189.249 108.151 188.471 108.151ZM188.471 107.395C188.956 107.395 189.341 107.206 189.628 106.828C189.914 106.451 190.058 105.931 190.058 105.271C190.058 104.613 189.914 104.095 189.628 103.718C189.341 103.34 188.956 103.151 188.471 103.151C187.982 103.151 187.595 103.34 187.309 103.718C187.022 104.095 186.879 104.613 186.879 105.271C186.879 105.931 187.022 106.451 187.309 106.828C187.595 107.206 187.982 107.395 188.471 107.395ZM196.791 107.78C196.365 107.959 196.055 108.065 195.863 108.098C195.671 108.133 195.486 108.151 195.307 108.151C194.926 108.151 194.577 108.078 194.262 107.932C193.946 107.785 193.707 107.569 193.544 107.282C193.384 106.996 193.305 106.553 193.305 105.954V103.757H191.942V103H193.305V100.803H194.213V103H196.64V103.757H194.213V105.939C194.213 106.379 194.265 106.69 194.369 106.872C194.473 107.051 194.612 107.183 194.784 107.268C194.96 107.352 195.167 107.395 195.404 107.395C195.844 107.395 196.306 107.256 196.791 106.979V107.78ZM202.772 107.639C202.047 107.984 201.36 108.156 200.712 108.156C200.22 108.156 199.781 108.034 199.394 107.79C199.006 107.546 198.695 107.198 198.461 106.745C198.23 106.289 198.114 105.803 198.114 105.285C198.114 104.787 198.225 104.309 198.446 103.85C198.668 103.391 198.977 103.034 199.374 102.78C199.771 102.523 200.214 102.395 200.702 102.395C201.35 102.395 201.869 102.626 202.26 103.088C202.654 103.55 202.851 104.263 202.851 105.227V105.422H199.091C199.091 105.799 199.169 106.145 199.325 106.457C199.485 106.77 199.693 107.004 199.95 107.16C200.207 107.316 200.5 107.395 200.829 107.395C201.415 107.395 202.063 107.199 202.772 106.809V107.639ZM199.145 104.743H201.864V104.611C201.864 104.165 201.755 103.811 201.537 103.547C201.319 103.283 201.028 103.151 200.663 103.151C200.295 103.151 199.976 103.286 199.706 103.557C199.439 103.824 199.252 104.219 199.145 104.743ZM205.707 108V100.881H204.076V100.119H206.615V107.243H208.319V108H205.707ZM216.337 108V100.422H217.816C218.705 100.422 219.299 100.49 219.599 100.627C219.901 100.76 220.128 100.959 220.277 101.223C220.427 101.486 220.502 101.787 220.502 102.126C220.502 102.393 220.458 102.647 220.37 102.888C220.282 103.125 220.152 103.343 219.979 103.542C219.807 103.737 219.556 103.923 219.228 104.099C219.83 104.34 220.237 104.636 220.448 104.987C220.663 105.339 220.771 105.69 220.771 106.042C220.771 106.377 220.679 106.703 220.497 107.019C220.318 107.334 220.066 107.577 219.74 107.746C219.415 107.915 218.894 108 218.178 108H216.337ZM217.323 103.835H218.358C218.694 103.695 218.938 103.549 219.091 103.396C219.247 103.239 219.363 103.067 219.438 102.878C219.516 102.686 219.555 102.476 219.555 102.248C219.555 101.89 219.449 101.623 219.237 101.447C219.029 101.271 218.62 101.184 218.012 101.184H217.323V103.835ZM217.323 107.243H218.256C218.777 107.243 219.161 107.121 219.408 106.877C219.659 106.63 219.784 106.333 219.784 105.988C219.784 105.734 219.716 105.502 219.579 105.29C219.442 105.075 219.231 104.906 218.944 104.782C218.658 104.655 218.209 104.592 217.597 104.592H217.323V107.243ZM224.506 108.151C223.725 108.151 223.1 107.88 222.631 107.336C222.162 106.789 221.928 106.101 221.928 105.271C221.928 104.44 222.162 103.754 222.631 103.21C223.1 102.666 223.725 102.395 224.506 102.395C225.284 102.395 225.907 102.666 226.376 103.21C226.845 103.754 227.079 104.44 227.079 105.271C227.079 106.101 226.845 106.789 226.376 107.336C225.907 107.88 225.284 108.151 224.506 108.151ZM224.506 107.395C224.991 107.395 225.377 107.206 225.663 106.828C225.95 106.451 226.093 105.931 226.093 105.271C226.093 104.613 225.95 104.095 225.663 103.718C225.377 103.34 224.991 103.151 224.506 103.151C224.018 103.151 223.63 103.34 223.344 103.718C223.057 104.095 222.914 104.613 222.914 105.271C222.914 105.931 223.057 106.451 223.344 106.828C223.63 107.206 224.018 107.395 224.506 107.395ZM230.512 108.151C229.73 108.151 229.105 107.88 228.637 107.336C228.168 106.789 227.934 106.101 227.934 105.271C227.934 104.44 228.168 103.754 228.637 103.21C229.105 102.666 229.73 102.395 230.512 102.395C231.29 102.395 231.913 102.666 232.382 103.21C232.851 103.754 233.085 104.44 233.085 105.271C233.085 106.101 232.851 106.789 232.382 107.336C231.913 107.88 231.29 108.151 230.512 108.151ZM230.512 107.395C230.997 107.395 231.382 107.206 231.669 106.828C231.955 106.451 232.099 105.931 232.099 105.271C232.099 104.613 231.955 104.095 231.669 103.718C231.382 103.34 230.997 103.151 230.512 103.151C230.023 103.151 229.636 103.34 229.35 103.718C229.063 104.095 228.92 104.613 228.92 105.271C228.92 105.931 229.063 106.451 229.35 106.828C229.636 107.206 230.023 107.395 230.512 107.395ZM234.516 108V100.119H235.424V105.07L238.046 102.546H239.257L236.64 105.07L239.325 108H238.075L235.424 105.07V108H234.516ZM241.806 108V103.303H240.292V102.546H242.714V107.243H244.232V108H241.806ZM241.654 100.578C241.654 100.373 241.724 100.22 241.864 100.119C242.004 100.018 242.136 99.9678 242.26 99.9678C242.387 99.9678 242.52 100.018 242.66 100.119C242.8 100.22 242.87 100.373 242.87 100.578C242.87 100.78 242.8 100.931 242.66 101.032C242.52 101.133 242.387 101.184 242.26 101.184C242.136 101.184 242.004 101.133 241.864 101.032C241.724 100.931 241.654 100.78 241.654 100.578ZM246.283 108V102.546H247.191V103.737C247.452 103.317 247.766 102.989 248.134 102.751C248.502 102.513 248.869 102.395 249.237 102.395C249.56 102.395 249.853 102.481 250.116 102.653C250.38 102.823 250.564 103.046 250.668 103.322C250.775 103.599 250.829 104.143 250.829 104.953V108H249.921V104.841C249.921 104.317 249.895 103.972 249.843 103.806C249.794 103.636 249.701 103.498 249.564 103.391C249.431 103.283 249.285 103.229 249.125 103.229C248.806 103.229 248.463 103.381 248.095 103.684C247.73 103.986 247.429 104.366 247.191 104.821V108H246.283ZM255.932 106.774C255.655 107.23 255.321 107.574 254.931 107.805C254.543 108.036 254.187 108.151 253.861 108.151C253.406 108.151 252.995 107.954 252.631 107.561C252.27 107.167 252.089 106.569 252.089 105.769C252.089 105.137 252.209 104.574 252.45 104.079C252.691 103.581 253.013 103.189 253.417 102.902C253.821 102.613 254.32 102.468 254.916 102.468C255.089 102.468 255.349 102.486 255.697 102.521C255.749 102.528 255.827 102.536 255.932 102.546H256.845V106.403C256.845 107.321 256.832 107.881 256.806 108.083C256.783 108.288 256.744 108.495 256.688 108.703C256.558 109.188 256.26 109.571 255.795 109.851C255.333 110.131 254.773 110.271 254.115 110.271C253.454 110.271 252.785 110.101 252.108 109.763V108.845C252.366 109.021 252.681 109.175 253.056 109.309C253.433 109.445 253.798 109.514 254.149 109.514C254.426 109.514 254.688 109.47 254.936 109.382C255.183 109.294 255.383 109.167 255.536 109.001C255.689 108.835 255.793 108.641 255.849 108.42C255.904 108.202 255.932 107.91 255.932 107.546V106.774ZM255.932 105.695V103.356C255.609 103.272 255.31 103.229 255.033 103.229C254.473 103.229 254.006 103.446 253.632 103.879C253.261 104.312 253.075 104.901 253.075 105.646C253.075 106.187 253.176 106.595 253.378 106.872C253.583 107.146 253.816 107.282 254.076 107.282C254.359 107.282 254.672 107.139 255.014 106.853C255.355 106.566 255.661 106.18 255.932 105.695Z" fill="#556578"/>
<path d="M270 96C270 93.7909 271.791 92 274 92H325C327.209 92 329 93.7909 329 96V112C329 114.209 327.209 116 325 116H274C271.791 116 270 114.209 270 112V96Z" fill="#F3F5F8"/>
<path d="M284.129 104.968V105.729H281.858V108H281.097V105.729H278.826V104.968H281.097V102.697H281.858V104.968H284.129ZM287.259 107.243V101.394C286.985 101.612 286.72 101.797 286.463 101.95C286.206 102.103 285.853 102.259 285.403 102.419V101.599C286.116 101.296 286.735 100.904 287.259 100.422H288.167V107.243H289.988V108H285.403V107.243H287.259ZM296.844 108V102.546H297.64V103.796C297.89 103.265 298.123 102.899 298.338 102.697C298.556 102.495 298.776 102.395 298.997 102.395C299.261 102.395 299.472 102.499 299.632 102.707C299.795 102.912 299.876 103.205 299.876 103.586V103.879C299.983 103.547 300.112 103.278 300.262 103.073C300.415 102.865 300.573 102.701 300.735 102.58C300.898 102.456 301.085 102.395 301.297 102.395C301.531 102.395 301.731 102.494 301.897 102.692C302.063 102.891 302.146 103.286 302.146 103.879V108H301.351V104.274C301.351 103.968 301.341 103.76 301.321 103.649C301.302 103.535 301.263 103.449 301.204 103.391C301.146 103.332 301.082 103.303 301.014 103.303C300.844 103.303 300.662 103.433 300.467 103.693C300.275 103.951 300.078 104.379 299.876 104.978V108H299.114V104.279C299.114 103.798 299.067 103.514 298.973 103.43C298.878 103.345 298.794 103.303 298.719 103.303C298.553 103.303 298.374 103.448 298.182 103.737C297.993 104.027 297.812 104.398 297.64 104.851V108H296.844ZM305.506 108.151C304.725 108.151 304.1 107.88 303.631 107.336C303.162 106.789 302.928 106.101 302.928 105.271C302.928 104.44 303.162 103.754 303.631 103.21C304.1 102.666 304.725 102.395 305.506 102.395C306.284 102.395 306.907 102.666 307.376 103.21C307.845 103.754 308.079 104.44 308.079 105.271C308.079 106.101 307.845 106.789 307.376 107.336C306.907 107.88 306.284 108.151 305.506 108.151ZM305.506 107.395C305.991 107.395 306.377 107.206 306.663 106.828C306.95 106.451 307.093 105.931 307.093 105.271C307.093 104.613 306.95 104.095 306.663 103.718C306.377 103.34 305.991 103.151 305.506 103.151C305.018 103.151 304.63 103.34 304.344 103.718C304.057 104.095 303.914 104.613 303.914 105.271C303.914 105.931 304.057 106.451 304.344 106.828C304.63 107.206 305.018 107.395 305.506 107.395ZM309.729 108V102.546H310.638V103.737C310.921 103.288 311.245 102.953 311.609 102.731C311.977 102.507 312.386 102.395 312.835 102.395C313.164 102.395 313.493 102.445 313.821 102.546V104.514H312.947V103.269C312.794 103.243 312.674 103.229 312.586 103.229C312.247 103.229 311.915 103.363 311.59 103.63C311.264 103.897 310.947 104.297 310.638 104.831V108H309.729ZM319.808 107.639C319.082 107.984 318.395 108.156 317.747 108.156C317.256 108.156 316.816 108.034 316.429 107.79C316.041 107.546 315.73 107.198 315.496 106.745C315.265 106.289 315.149 105.803 315.149 105.285C315.149 104.787 315.26 104.309 315.481 103.85C315.703 103.391 316.012 103.034 316.409 102.78C316.806 102.523 317.249 102.395 317.737 102.395C318.385 102.395 318.904 102.626 319.295 103.088C319.689 103.55 319.886 104.263 319.886 105.227V105.422H316.126C316.126 105.799 316.204 106.145 316.36 106.457C316.52 106.77 316.728 107.004 316.985 107.16C317.243 107.316 317.535 107.395 317.864 107.395C318.45 107.395 319.098 107.199 319.808 106.809V107.639ZM316.18 104.743H318.899V104.611C318.899 104.165 318.79 103.811 318.572 103.547C318.354 103.283 318.063 103.151 317.698 103.151C317.33 103.151 317.011 103.286 316.741 103.557C316.474 103.824 316.287 104.219 316.18 104.743Z" fill="#556578"/>
</g>
<defs>
<filter id="filter0_ddd_8399_1576" x="0.90909" y="0.0909083" width="1126.85" height="150.182" filterUnits="userSpaceOnUse" color-interpolation-filters="sRGB">
<feFlood flood-opacity="0" result="BackgroundImageFix"/>
<feColorMatrix in="SourceAlpha" type="matrix" values="0 0 0 0 0 0 0 0 0 0 0 0 0 0 0 0 0 0 127 0" result="hardAlpha"/>
<feMorphology radius="0.795455" operator="dilate" in="SourceAlpha" result="effect1_dropShadow_8399_1576"/>
<feOffset/>
<feComposite in2="hardAlpha" operator="out"/>
<feColorMatrix type="matrix" values="0 0 0 0 0 0 0 0 0 0 0 0 0 0 0 0 0 0 0.04 0"/>
<feBlend mode="normal" in2="BackgroundImageFix" result="effect1_dropShadow_8399_1576"/>
<feColorMatrix in="SourceAlpha" type="matrix" values="0 0 0 0 0 0 0 0 0 0 0 0 0 0 0 0 0 0 127 0" result="hardAlpha"/>
<feOffset dy="3.18182"/>
<feGaussianBlur stdDeviation="9.54545"/>
<feComposite in2="hardAlpha" operator="out"/>
<feColorMatrix type="matrix" values="0 0 0 0 0 0 0 0 0 0 0 0 0 0 0 0 0 0 0.06 0"/>
<feBlend mode="normal" in2="effect1_dropShadow_8399_1576" result="effect2_dropShadow_8399_1576"/>
<feColorMatrix in="SourceAlpha" type="matrix" values="0 0 0 0 0 0 0 0 0 0 0 0 0 0 0 0 0 0 127 0" result="hardAlpha"/>
<feOffset dy="0.795455"/>
<feGaussianBlur stdDeviation="0.795455"/>
<feComposite in2="hardAlpha" operator="out"/>
<feColorMatrix type="matrix" values="0 0 0 0 0 0 0 0 0 0 0 0 0 0 0 0 0 0 0.08 0"/>
<feBlend mode="normal" in2="effect2_dropShadow_8399_1576" result="effect3_dropShadow_8399_1576"/>
<feBlend mode="normal" in="SourceGraphic" in2="effect3_dropShadow_8399_1576" result="shape"/>
</filter>
</defs>
</svg>
