<svg width="48" height="48" viewBox="0 0 48 48" fill="none" xmlns="http://www.w3.org/2000/svg">
<rect width="48" height="48" rx="12" fill="#0B1742"/>
<path d="M35.6678 23.0565C35.8899 23.3737 36.001 23.7544 36.001 24.151C36.001 24.6744 35.7947 25.1662 35.4299 25.531C35.0651 25.8959 34.5575 26.1021 34.0499 26.1021C33.6692 26.1021 33.2885 25.991 32.9553 25.769C32.6381 25.5469 32.3843 25.2455 32.2415 24.8965C32.0988 24.5317 32.0512 24.151 32.1305 23.7703C32.2098 23.3896 32.4002 23.0406 32.6698 22.7709C32.9395 22.5013 33.2885 22.3109 33.6692 22.2316C34.0499 22.1523 34.4464 22.1999 34.7954 22.3426C35.1444 22.4695 35.4458 22.7233 35.6678 23.0565Z" fill="white"/>
<path d="M35.6678 32.9538C35.8899 33.271 36.001 33.6517 36.001 34.0483C36.001 34.5718 35.7947 35.0635 35.4299 35.4283C35.0651 35.7932 34.5575 35.9994 34.0499 35.9994C33.6692 35.9994 33.2885 35.8884 32.9553 35.6663C32.6381 35.4442 32.3843 35.1428 32.2415 34.7938C32.0988 34.429 32.0512 34.0483 32.1305 33.6676C32.2098 33.2869 32.4002 32.9379 32.6698 32.6682C32.9395 32.3986 33.2885 32.2082 33.6692 32.1289C34.0499 32.0496 34.4464 32.0972 34.7954 32.24C35.1444 32.3827 35.4458 32.6365 35.6678 32.9538Z" fill="white"/>
<path d="M35.999 11.9999H31.3037V16.6952H35.999V11.9999Z" fill="white"/>
<path d="M25.8973 32.9539C26.1194 33.2712 26.2305 33.6519 26.2305 34.0484C26.2305 34.5719 26.0242 35.0636 25.6594 35.4285C25.2946 35.7933 24.787 35.9995 24.2794 35.9995C23.8987 35.9995 23.518 35.8885 23.1848 35.6664C22.8676 35.4443 22.6138 35.1429 22.471 34.794C22.3283 34.4291 22.2807 34.0484 22.36 33.6677C22.4393 33.287 22.6296 32.938 22.8993 32.6684C23.169 32.3987 23.518 32.2084 23.8987 32.1291C24.2794 32.0497 24.6759 32.0973 25.0249 32.2401C25.3897 32.3829 25.6911 32.6367 25.8973 32.9539Z" fill="white"/>
<path d="M26.6279 21.7867H21.9326V26.4821H26.6279V21.7867Z" fill="white"/>
<path d="M26.7536 11.9999H21.7886V16.9649H26.7536V11.9999Z" fill="white"/>
<path d="M17.2364 12.0003H12.0176V17.2191H17.2364V12.0003Z" fill="white"/>
<path d="M16.6948 31.3045H11.9995V35.9998H16.6948V31.3045Z" fill="white"/>
<path d="M16.9645 21.6608H11.9995V26.6258H16.9645V21.6608Z" fill="white"/>
</svg>
