<svg width="976" height="660" viewBox="0 0 976 660" fill="none" xmlns="http://www.w3.org/2000/svg">
<path d="M0 8.57636C0 4.1712 3.57108 0.600098 7.97624 0.600098H968.024C972.429 0.600098 976 4.17118 976 8.57633V651.424C976 655.829 972.429 659.4 968.024 659.4H7.97626C3.5711 659.4 0 655.829 0 651.424V8.57636Z" fill="white" fill-opacity="0.05"/>
<path d="M512.422 104.119H357.164C351.223 104.119 346.406 108.935 346.406 114.877V233.594C346.406 239.536 351.223 244.352 357.164 244.352H512.422C518.364 244.352 523.18 239.536 523.18 233.594V114.877C523.18 108.935 518.364 104.119 512.422 104.119Z" fill="#262E38"/>
<path d="M519.882 233.534V115.299C519.882 111.179 516.542 107.84 512.423 107.84L357.165 107.84C353.045 107.84 349.705 111.179 349.705 115.299V233.534C349.705 237.654 353.045 240.994 357.165 240.994H512.423C516.542 240.994 519.882 237.654 519.882 233.534Z" fill="#3E4C5C" stroke="#262E38" stroke-width="1.2" stroke-miterlimit="10"/>
<path d="M505.287 116.866H365.79C361.33 116.866 357.714 120.482 357.714 124.942V159.266C357.714 163.726 361.33 167.342 365.79 167.342H505.287C509.747 167.342 513.363 163.726 513.363 159.266V124.942C513.363 120.482 509.747 116.866 505.287 116.866Z" fill="#536375" stroke="#6D8198" stroke-width="1.2" stroke-miterlimit="10"/>
<path d="M510.063 124.947V159.266C510.063 161.905 507.92 164.043 505.286 164.043H365.794C363.156 164.043 361.017 161.9 361.017 159.266V124.947C361.017 122.309 363.161 120.17 365.794 120.17L505.286 120.17C507.925 120.17 510.063 122.309 510.063 124.947Z" fill="#1E2022"/>
<path d="M388.431 147.95L393.663 134.435H395.787L400.98 147.95H398.76L395.671 139.802C395.633 139.712 395.555 139.493 395.44 139.146C395.337 138.798 395.214 138.412 395.073 137.988C394.931 137.563 394.802 137.177 394.687 136.829C394.571 136.469 394.494 136.237 394.455 136.134L394.899 136.115C394.822 136.334 394.725 136.61 394.609 136.945C394.506 137.28 394.391 137.634 394.262 138.007C394.146 138.38 394.03 138.734 393.914 139.069C393.799 139.39 393.702 139.661 393.625 139.88L390.555 147.95H388.431ZM390.748 144.59L391.52 142.582H397.66L398.548 144.59H390.748ZM402.857 147.95V146.019H405.039V136.366H402.857V134.435H409.305V136.366H407.124V146.019H409.305V147.95H402.857ZM417.989 147.95V134.435H426.503V136.443H420.074V145.942H426.503V147.95H417.989ZM418.935 142.023V140.015H425.442V142.023H418.935ZM429.346 147.95V137.814H431.335V139.899L430.987 140.131C431.116 139.68 431.367 139.268 431.74 138.895C432.114 138.509 432.558 138.2 433.073 137.968C433.587 137.724 434.115 137.601 434.656 137.601C435.428 137.601 436.071 137.756 436.586 138.065C437.101 138.361 437.487 138.818 437.745 139.436C438.002 140.053 438.131 140.832 438.131 141.772V147.95H436.142V141.907C436.142 141.328 436.065 140.851 435.911 140.478C435.756 140.092 435.518 139.815 435.196 139.648C434.874 139.468 434.475 139.39 433.999 139.416C433.613 139.416 433.259 139.481 432.937 139.609C432.616 139.725 432.332 139.892 432.088 140.111C431.856 140.33 431.67 140.587 431.528 140.883C431.399 141.167 431.335 141.476 431.335 141.81V147.95H430.35C430.183 147.95 430.016 147.95 429.848 147.95C429.681 147.95 429.514 147.95 429.346 147.95ZM445.365 152.39C444.645 152.39 443.924 152.274 443.203 152.043C442.495 151.824 441.922 151.534 441.485 151.174L442.218 149.629C442.476 149.822 442.778 149.99 443.126 150.131C443.473 150.286 443.84 150.401 444.226 150.479C444.612 150.569 444.992 150.614 445.365 150.614C446.073 150.614 446.665 150.498 447.142 150.266C447.618 150.035 447.978 149.694 448.223 149.243C448.467 148.793 448.589 148.233 448.589 147.563V145.614L448.802 145.749C448.737 146.148 448.525 146.534 448.165 146.907C447.817 147.267 447.38 147.563 446.852 147.795C446.324 148.027 445.784 148.143 445.23 148.143C444.265 148.143 443.403 147.917 442.643 147.467C441.897 147.004 441.305 146.379 440.867 145.594C440.429 144.796 440.211 143.889 440.211 142.872C440.211 141.855 440.423 140.954 440.848 140.169C441.285 139.371 441.877 138.747 442.624 138.296C443.383 137.833 444.233 137.601 445.172 137.601C445.558 137.601 445.932 137.653 446.292 137.756C446.652 137.846 446.987 137.981 447.296 138.161C447.605 138.329 447.882 138.515 448.126 138.721C448.371 138.927 448.57 139.146 448.725 139.378C448.879 139.609 448.976 139.828 449.014 140.034L448.589 140.188V137.814H450.578V147.332C450.578 148.143 450.456 148.857 450.211 149.475C449.98 150.105 449.638 150.633 449.188 151.058C448.737 151.495 448.19 151.824 447.547 152.043C446.903 152.274 446.176 152.39 445.365 152.39ZM445.443 146.309C446.073 146.309 446.633 146.161 447.122 145.865C447.611 145.568 447.991 145.163 448.261 144.648C448.532 144.133 448.667 143.541 448.667 142.872C448.667 142.203 448.525 141.611 448.242 141.096C447.972 140.568 447.592 140.156 447.103 139.86C446.627 139.564 446.073 139.416 445.443 139.416C444.825 139.416 444.271 139.571 443.782 139.88C443.306 140.176 442.926 140.587 442.643 141.115C442.373 141.63 442.238 142.216 442.238 142.872C442.238 143.528 442.373 144.121 442.643 144.648C442.926 145.163 443.306 145.568 443.782 145.865C444.271 146.161 444.825 146.309 445.443 146.309ZM453.694 147.95V137.814H455.683V147.95H453.694ZM454.66 135.574C454.235 135.574 453.907 135.465 453.675 135.246C453.443 135.027 453.328 134.718 453.328 134.319C453.328 133.946 453.443 133.644 453.675 133.412C453.92 133.18 454.248 133.064 454.66 133.064C455.084 133.064 455.413 133.174 455.644 133.393C455.876 133.611 455.992 133.92 455.992 134.319C455.992 134.693 455.869 134.995 455.625 135.227C455.393 135.458 455.072 135.574 454.66 135.574ZM458.739 147.95V137.814H460.728V139.899L460.38 140.131C460.509 139.68 460.76 139.268 461.133 138.895C461.507 138.509 461.951 138.2 462.466 137.968C462.98 137.724 463.508 137.601 464.049 137.601C464.821 137.601 465.464 137.756 465.979 138.065C466.494 138.361 466.88 138.818 467.138 139.436C467.395 140.053 467.524 140.832 467.524 141.772V147.95H465.535V141.907C465.535 141.328 465.458 140.851 465.304 140.478C465.149 140.092 464.911 139.815 464.589 139.648C464.267 139.468 463.868 139.39 463.392 139.416C463.006 139.416 462.652 139.481 462.33 139.609C462.009 139.725 461.725 139.892 461.481 140.111C461.249 140.33 461.063 140.587 460.921 140.883C460.792 141.167 460.728 141.476 460.728 141.81V147.95H459.743C459.576 147.95 459.409 147.95 459.241 147.95C459.074 147.95 458.907 147.95 458.739 147.95ZM474.951 148.143C473.909 148.143 472.982 147.924 472.171 147.486C471.373 147.036 470.743 146.424 470.279 145.652C469.829 144.88 469.604 143.992 469.604 142.988C469.604 142.19 469.732 141.463 469.99 140.806C470.247 140.15 470.601 139.584 471.052 139.107C471.515 138.618 472.062 138.245 472.693 137.988C473.336 137.717 474.031 137.582 474.778 137.582C475.434 137.582 476.045 137.711 476.612 137.968C477.178 138.213 477.667 138.554 478.079 138.991C478.504 139.429 478.826 139.95 479.044 140.555C479.276 141.147 479.385 141.797 479.373 142.505L479.353 143.355H471.071L470.627 141.772H477.635L477.345 142.1V141.636C477.307 141.212 477.165 140.832 476.921 140.497C476.676 140.163 476.367 139.899 475.994 139.706C475.621 139.513 475.215 139.416 474.778 139.416C474.083 139.416 473.497 139.551 473.021 139.822C472.545 140.079 472.184 140.465 471.94 140.98C471.695 141.482 471.573 142.106 471.573 142.853C471.573 143.561 471.721 144.178 472.017 144.706C472.313 145.221 472.731 145.62 473.272 145.903C473.812 146.186 474.437 146.328 475.144 146.328C475.646 146.328 476.11 146.244 476.535 146.077C476.972 145.91 477.442 145.607 477.944 145.169L478.948 146.579C478.639 146.888 478.259 147.158 477.809 147.39C477.371 147.621 476.901 147.808 476.399 147.95C475.91 148.078 475.428 148.143 474.951 148.143Z" fill="white"/>
<path d="M364.091 183.899H441.426C445.884 183.899 449.501 187.516 449.501 191.975V206.526H468.928V191.975C468.928 187.516 472.545 183.899 477.004 183.899H505.287C509.745 183.899 513.362 187.516 513.362 191.975V226.294C513.362 230.752 509.745 234.369 505.287 234.369H477.004C472.545 234.369 468.928 230.752 468.928 226.294V211.743H449.501V226.294C449.501 230.752 445.884 234.369 441.426 234.369H364.091C359.633 234.369 356.015 230.752 356.015 226.294V191.975C356.015 187.516 359.633 183.899 364.091 183.899Z" fill="#536375" stroke="#6D8198" stroke-width="1.2" stroke-miterlimit="10"/>
<path d="M500.773 191.469H504.495C505.97 191.469 507.167 192.665 507.167 194.141V197.862C507.167 199.338 505.97 200.534 504.495 200.534H500.773C499.298 200.534 498.102 199.338 498.102 197.862V194.141C498.102 192.665 499.298 191.469 500.773 191.469Z" fill="#9F88FD" stroke="#BFAFFD" stroke-width="1.2" stroke-linecap="round" stroke-linejoin="round"/>
<path d="M435.379 191.469H439.101C440.576 191.469 441.772 192.665 441.772 194.141V197.862C441.772 199.338 440.576 200.534 439.101 200.534H435.379C433.904 200.534 432.708 199.338 432.708 197.862V194.141C432.708 192.665 433.904 191.469 435.379 191.469Z" fill="#3E4C5C" stroke="#262E38" stroke-width="1.2" stroke-linecap="round" stroke-linejoin="round"/>
<path d="M366.092 191.469H369.813C371.289 191.469 372.485 192.665 372.485 194.141V197.862C372.485 199.338 371.289 200.534 369.813 200.534H366.092C364.616 200.534 363.42 199.338 363.42 197.862V194.141C363.42 192.665 364.616 191.469 366.092 191.469Z" fill="#3E4C5C" stroke="#262E38" stroke-width="1.2" stroke-linecap="round" stroke-linejoin="round"/>
<path d="M366.092 218.015H369.813C371.289 218.015 372.485 219.211 372.485 220.686V224.408C372.485 225.884 371.289 227.08 369.813 227.08H366.092C364.616 227.08 363.42 225.884 363.42 224.408V220.686C363.42 219.211 364.616 218.015 366.092 218.015Z" fill="#9F88FD" stroke="#BFAFFD" stroke-width="1.2" stroke-linecap="round" stroke-linejoin="round"/>
<path d="M435.213 218.015H438.935C440.41 218.015 441.606 219.211 441.606 220.686V224.408C441.606 225.884 440.41 227.08 438.935 227.08H435.213C433.738 227.08 432.542 225.884 432.542 224.408V220.686C432.542 219.211 433.738 218.015 435.213 218.015Z" fill="#798BA0" stroke="#8A9FB8" stroke-width="1.2" stroke-miterlimit="10"/>
<path d="M478.032 191.469H481.753C483.229 191.469 484.425 192.665 484.425 194.141V197.862C484.425 199.338 483.229 200.534 481.753 200.534H478.032C476.556 200.534 475.36 199.338 475.36 197.862V194.141C475.36 192.665 476.556 191.469 478.032 191.469Z" fill="#798BA0" stroke="#8A9FB8" stroke-width="1.2" stroke-miterlimit="10"/>
<path d="M500.773 218.339H504.495C505.97 218.339 507.167 219.535 507.167 221.011V224.732C507.167 226.208 505.97 227.404 504.495 227.404H500.773C499.298 227.404 498.102 226.208 498.102 224.732V221.011C498.102 219.535 499.298 218.339 500.773 218.339Z" fill="#3E4C5C" stroke="#262E38" stroke-width="1.2" stroke-linecap="round" stroke-linejoin="round"/>
<path d="M478.032 218.339H481.753C483.229 218.339 484.425 219.535 484.425 221.011V224.732C484.425 226.208 483.229 227.404 481.753 227.404H478.032C476.556 227.404 475.36 226.208 475.36 224.732V221.011C475.36 219.535 476.556 218.339 478.032 218.339Z" fill="#3E4C5C" stroke="#262E38" stroke-width="1.2" stroke-linecap="round" stroke-linejoin="round"/>
<rect x="564.567" y="279.425" width="141.577" height="148.097" rx="8" fill="#262E38"/>
<rect x="568.807" y="307.179" width="133.697" height="116.537" rx="6" fill="#3E4C5C" stroke="#262E38" stroke-width="1.2" stroke-miterlimit="10"/>
<path d="M685.138 358.141C685.138 361.779 682.181 364.735 678.544 364.735H592.766C589.129 364.735 586.172 361.779 586.172 358.141C586.172 354.504 589.129 351.547 592.766 351.547H678.544C682.181 351.547 685.138 354.504 685.138 358.141Z" fill="#5A6979"/>
<path d="M685.138 398.029C685.138 401.666 682.181 404.623 678.544 404.623H592.766C589.129 404.623 586.172 401.666 586.172 398.029C586.172 394.392 589.129 391.435 592.766 391.435H678.544C682.181 391.435 685.138 394.392 685.138 398.029Z" fill="#5A6979"/>
<path d="M643.571 377.567C643.571 381.204 640.615 384.161 636.977 384.161H592.772C589.135 384.161 586.178 381.204 586.178 377.567C586.178 373.93 589.135 370.973 592.772 370.973H636.977C640.615 370.973 643.571 373.93 643.571 377.567Z" fill="#5A6979"/>
<path d="M684.858 377.567C684.858 381.204 681.901 384.161 678.264 384.161H657.37C653.732 384.161 650.776 381.204 650.776 377.567C650.776 373.93 653.732 370.973 657.37 370.973H678.264C681.901 370.973 684.858 373.93 684.858 377.567Z" fill="#5A6979"/>
<path d="M598.68 333.499L603.432 321.226H605.361L610.077 333.499H608.061L605.255 326.1C605.22 326.018 605.15 325.82 605.045 325.504C604.952 325.188 604.84 324.838 604.712 324.452C604.583 324.066 604.466 323.716 604.361 323.4C604.256 323.073 604.186 322.862 604.151 322.769L604.554 322.751C604.484 322.95 604.396 323.201 604.291 323.505C604.198 323.809 604.092 324.131 603.976 324.47C603.87 324.808 603.765 325.13 603.66 325.434C603.555 325.726 603.467 325.972 603.397 326.17L600.609 333.499H598.68ZM600.784 330.449L601.486 328.625H607.061L607.868 330.449H600.784ZM611.817 333.499V320.524H613.622V333.499H611.817ZM616.147 333.499V324.294H617.97V326.258L617.637 326.468C617.731 326.164 617.877 325.872 618.076 325.592C618.286 325.311 618.537 325.066 618.83 324.855C619.134 324.633 619.455 324.458 619.794 324.329C620.145 324.201 620.501 324.136 620.864 324.136C621.39 324.136 621.851 324.224 622.249 324.399C622.646 324.575 622.973 324.838 623.231 325.188C623.488 325.539 623.675 325.977 623.792 326.503L623.511 326.433L623.634 326.135C623.762 325.866 623.938 325.615 624.16 325.381C624.394 325.136 624.657 324.92 624.949 324.733C625.241 324.545 625.551 324.399 625.878 324.294C626.205 324.189 626.527 324.136 626.843 324.136C627.532 324.136 628.099 324.277 628.543 324.557C628.999 324.838 629.338 325.264 629.56 325.837C629.794 326.41 629.911 327.123 629.911 327.976V333.499H628.087V328.081C628.087 327.555 628.017 327.129 627.877 326.801C627.748 326.463 627.55 326.211 627.281 326.048C627.012 325.884 626.667 325.802 626.246 325.802C625.919 325.802 625.609 325.861 625.317 325.977C625.037 326.083 624.791 326.235 624.581 326.433C624.37 326.632 624.207 326.866 624.09 327.135C623.973 327.392 623.914 327.678 623.914 327.994V333.499H622.091V328.046C622.091 327.567 622.021 327.164 621.88 326.837C621.74 326.498 621.536 326.24 621.267 326.065C620.998 325.89 620.671 325.802 620.285 325.802C619.958 325.802 619.654 325.861 619.373 325.977C619.093 326.083 618.847 326.235 618.637 326.433C618.426 326.62 618.263 326.848 618.146 327.117C618.029 327.374 617.97 327.655 617.97 327.959V333.499H616.147ZM635.871 333.675C635.111 333.675 634.415 333.464 633.784 333.044C633.165 332.623 632.668 332.05 632.294 331.325C631.92 330.6 631.733 329.782 631.733 328.87C631.733 327.947 631.92 327.129 632.294 326.416C632.679 325.691 633.194 325.124 633.837 324.715C634.491 324.306 635.222 324.101 636.028 324.101C636.508 324.101 636.946 324.171 637.343 324.312C637.741 324.452 638.086 324.651 638.378 324.908C638.682 325.153 638.927 325.44 639.114 325.767C639.313 326.094 639.436 326.445 639.483 326.819L639.079 326.679V324.294H640.903V333.499H639.079V331.308L639.5 331.185C639.43 331.501 639.284 331.81 639.062 332.114C638.851 332.406 638.577 332.669 638.238 332.903C637.91 333.137 637.542 333.324 637.133 333.464C636.736 333.605 636.315 333.675 635.871 333.675ZM636.344 332.009C636.893 332.009 637.379 331.875 637.799 331.606C638.22 331.337 638.547 330.969 638.781 330.501C639.027 330.022 639.149 329.478 639.149 328.87C639.149 328.274 639.027 327.742 638.781 327.275C638.547 326.807 638.22 326.439 637.799 326.17C637.379 325.901 636.893 325.767 636.344 325.767C635.806 325.767 635.327 325.901 634.906 326.17C634.497 326.439 634.17 326.807 633.924 327.275C633.691 327.742 633.574 328.274 633.574 328.87C633.574 329.478 633.691 330.022 633.924 330.501C634.17 330.969 634.497 331.337 634.906 331.606C635.327 331.875 635.806 332.009 636.344 332.009ZM643.424 333.499V324.294H645.23V326.188L644.915 326.398C645.032 325.989 645.26 325.615 645.599 325.276C645.938 324.925 646.341 324.645 646.808 324.434C647.276 324.212 647.755 324.101 648.246 324.101C648.947 324.101 649.532 324.242 650 324.522C650.467 324.791 650.818 325.206 651.052 325.767C651.285 326.328 651.402 327.035 651.402 327.889V333.499H649.596V328.011C649.596 327.485 649.526 327.053 649.386 326.714C649.246 326.363 649.029 326.112 648.737 325.96C648.445 325.796 648.082 325.726 647.65 325.749C647.299 325.749 646.978 325.808 646.686 325.925C646.393 326.03 646.136 326.182 645.914 326.381C645.704 326.579 645.534 326.813 645.406 327.082C645.289 327.339 645.23 327.62 645.23 327.924V333.499H644.336C644.184 333.499 644.032 333.499 643.88 333.499C643.728 333.499 643.576 333.499 643.424 333.499ZM657.394 333.675C656.634 333.675 655.939 333.464 655.307 333.044C654.688 332.623 654.191 332.05 653.817 331.325C653.443 330.6 653.256 329.782 653.256 328.87C653.256 327.947 653.443 327.129 653.817 326.416C654.203 325.691 654.717 325.124 655.36 324.715C656.015 324.306 656.745 324.101 657.552 324.101C658.031 324.101 658.469 324.171 658.867 324.312C659.264 324.452 659.609 324.651 659.901 324.908C660.205 325.153 660.451 325.44 660.638 325.767C660.836 326.094 660.959 326.445 661.006 326.819L660.603 326.679V324.294H662.426V333.499H660.603V331.308L661.023 331.185C660.953 331.501 660.807 331.81 660.585 332.114C660.375 332.406 660.1 332.669 659.761 332.903C659.434 333.137 659.066 333.324 658.656 333.464C658.259 333.605 657.838 333.675 657.394 333.675ZM657.867 332.009C658.417 332.009 658.902 331.875 659.323 331.606C659.743 331.337 660.071 330.969 660.305 330.501C660.55 330.022 660.673 329.478 660.673 328.87C660.673 328.274 660.55 327.742 660.305 327.275C660.071 326.807 659.743 326.439 659.323 326.17C658.902 325.901 658.417 325.767 657.867 325.767C657.33 325.767 656.85 325.901 656.43 326.17C656.02 326.439 655.693 326.807 655.448 327.275C655.214 327.742 655.097 328.274 655.097 328.87C655.097 329.478 655.214 330.022 655.448 330.501C655.693 330.969 656.02 331.337 656.43 331.606C656.85 331.875 657.33 332.009 657.867 332.009ZM668.858 333.675C668.004 333.675 667.239 333.464 666.561 333.044C665.895 332.623 665.363 332.05 664.965 331.325C664.58 330.6 664.387 329.788 664.387 328.888C664.387 327.988 664.58 327.176 664.965 326.451C665.363 325.726 665.895 325.153 666.561 324.733C667.239 324.312 668.004 324.101 668.858 324.101C669.676 324.101 670.418 324.271 671.085 324.61C671.763 324.937 672.277 325.387 672.628 325.96L671.628 327.187C671.441 326.918 671.201 326.673 670.909 326.451C670.617 326.229 670.307 326.053 669.98 325.925C669.653 325.796 669.337 325.732 669.033 325.732C668.472 325.732 667.969 325.872 667.525 326.153C667.093 326.422 666.748 326.796 666.491 327.275C666.234 327.754 666.105 328.292 666.105 328.888C666.105 329.484 666.239 330.022 666.508 330.501C666.777 330.969 667.134 331.343 667.578 331.623C668.022 331.904 668.513 332.044 669.051 332.044C669.366 332.044 669.67 331.991 669.962 331.886C670.266 331.781 670.559 331.623 670.839 331.413C671.12 331.202 671.383 330.945 671.628 330.641L672.628 331.869C672.253 332.395 671.716 332.827 671.014 333.166C670.325 333.505 669.606 333.675 668.858 333.675Z" fill="white"/>
<path d="M582.188 298.54V289.229H583.624V298.54H582.188ZM582.826 294.576V293.192H587.628V294.576H582.826ZM582.826 290.612V289.229H588.227V290.612H582.826ZM592.908 298.673C592.189 298.673 591.551 298.522 590.992 298.22C590.442 297.91 590.008 297.489 589.689 296.957C589.378 296.425 589.223 295.813 589.223 295.121C589.223 294.571 589.312 294.07 589.489 293.618C589.666 293.166 589.91 292.776 590.221 292.448C590.54 292.111 590.917 291.853 591.351 291.676C591.795 291.49 592.274 291.397 592.788 291.397C593.24 291.397 593.661 291.485 594.051 291.663C594.442 291.831 594.779 292.066 595.062 292.368C595.355 292.669 595.577 293.028 595.727 293.445C595.887 293.853 595.962 294.301 595.954 294.789L595.94 295.374H590.234L589.928 294.283H594.756L594.557 294.509V294.19C594.53 293.897 594.433 293.636 594.264 293.405C594.096 293.175 593.883 292.993 593.626 292.86C593.369 292.727 593.089 292.66 592.788 292.66C592.309 292.66 591.906 292.754 591.577 292.94C591.249 293.117 591.001 293.383 590.833 293.738C590.664 294.084 590.58 294.514 590.58 295.028C590.58 295.516 590.682 295.941 590.886 296.305C591.09 296.66 591.378 296.935 591.75 297.13C592.123 297.325 592.553 297.422 593.041 297.422C593.386 297.422 593.706 297.365 593.998 297.249C594.3 297.134 594.623 296.926 594.969 296.624L595.661 297.595C595.448 297.808 595.187 297.994 594.876 298.154C594.575 298.314 594.251 298.442 593.905 298.54C593.568 298.628 593.236 298.673 592.908 298.673ZM598.307 298.54V289.774H599.677V298.54H598.307ZM596.857 292.887V291.556H601.3V292.887H596.857ZM605.449 298.673C604.801 298.673 604.221 298.513 603.706 298.194C603.201 297.875 602.797 297.44 602.496 296.89C602.203 296.34 602.057 295.724 602.057 295.041C602.057 294.359 602.203 293.742 602.496 293.192C602.797 292.643 603.201 292.208 603.706 291.889C604.221 291.57 604.801 291.41 605.449 291.41C606.069 291.41 606.633 291.539 607.138 291.796C607.652 292.044 608.043 292.386 608.309 292.82L607.55 293.751C607.408 293.547 607.227 293.361 607.005 293.192C606.783 293.024 606.548 292.891 606.3 292.793C606.052 292.696 605.812 292.647 605.582 292.647C605.156 292.647 604.775 292.754 604.438 292.966C604.11 293.17 603.848 293.454 603.653 293.818C603.458 294.181 603.36 294.589 603.36 295.041C603.36 295.494 603.462 295.902 603.666 296.265C603.87 296.62 604.141 296.904 604.478 297.116C604.815 297.329 605.187 297.436 605.595 297.436C605.834 297.436 606.065 297.396 606.287 297.316C606.517 297.236 606.739 297.116 606.952 296.957C607.165 296.797 607.364 296.602 607.55 296.372L608.309 297.303C608.025 297.702 607.617 298.03 607.085 298.287C606.562 298.544 606.016 298.673 605.449 298.673ZM609.601 298.54V288.697H610.971V292.993L610.732 293.153C610.82 292.842 610.993 292.558 611.25 292.301C611.507 292.035 611.813 291.822 612.168 291.663C612.523 291.494 612.886 291.41 613.259 291.41C613.791 291.41 614.234 291.517 614.589 291.729C614.944 291.933 615.21 292.248 615.387 292.674C615.564 293.099 615.653 293.636 615.653 294.283V298.54H614.283V294.376C614.283 293.977 614.23 293.649 614.123 293.392C614.017 293.126 613.853 292.935 613.631 292.82C613.41 292.696 613.135 292.643 612.807 292.66C612.541 292.66 612.297 292.705 612.075 292.793C611.853 292.873 611.658 292.989 611.49 293.139C611.33 293.29 611.201 293.467 611.104 293.671C611.015 293.866 610.971 294.079 610.971 294.31V298.54H610.293C610.177 298.54 610.062 298.54 609.947 298.54C609.831 298.54 609.716 298.54 609.601 298.54ZM618.07 298.686C617.778 298.686 617.552 298.602 617.392 298.433C617.232 298.256 617.152 298.008 617.152 297.688C617.152 297.396 617.237 297.156 617.405 296.97C617.574 296.784 617.795 296.691 618.07 296.691C618.363 296.691 618.589 296.779 618.749 296.957C618.908 297.125 618.988 297.369 618.988 297.688C618.988 297.981 618.904 298.22 618.735 298.407C618.567 298.593 618.345 298.686 618.07 298.686ZM623.225 298.673C622.649 298.673 622.121 298.513 621.642 298.194C621.172 297.875 620.795 297.44 620.512 296.89C620.228 296.34 620.086 295.72 620.086 295.028C620.086 294.328 620.228 293.707 620.512 293.166C620.804 292.616 621.194 292.186 621.682 291.876C622.179 291.565 622.733 291.41 623.345 291.41C623.708 291.41 624.041 291.463 624.342 291.57C624.644 291.676 624.906 291.827 625.127 292.022C625.358 292.208 625.544 292.425 625.686 292.674C625.837 292.922 625.93 293.188 625.965 293.472L625.659 293.365V291.556H627.043V298.54H625.659V296.877L625.979 296.784C625.925 297.023 625.814 297.258 625.646 297.489C625.486 297.711 625.278 297.91 625.021 298.087C624.773 298.265 624.493 298.407 624.183 298.513C623.881 298.619 623.562 298.673 623.225 298.673ZM623.584 297.409C624.001 297.409 624.369 297.307 624.688 297.103C625.008 296.899 625.256 296.62 625.433 296.265C625.619 295.902 625.712 295.489 625.712 295.028C625.712 294.576 625.619 294.172 625.433 293.818C625.256 293.463 625.008 293.184 624.688 292.98C624.369 292.776 624.001 292.674 623.584 292.674C623.176 292.674 622.813 292.776 622.494 292.98C622.183 293.184 621.935 293.463 621.749 293.818C621.571 294.172 621.483 294.576 621.483 295.028C621.483 295.489 621.571 295.902 621.749 296.265C621.935 296.62 622.183 296.899 622.494 297.103C622.813 297.307 623.176 297.409 623.584 297.409ZM629.182 298.54V291.556H630.552V298.54H629.182ZM629.847 290.013C629.554 290.013 629.328 289.938 629.168 289.787C629.009 289.637 628.929 289.424 628.929 289.149C628.929 288.892 629.009 288.683 629.168 288.524C629.337 288.364 629.563 288.284 629.847 288.284C630.139 288.284 630.366 288.36 630.525 288.51C630.685 288.661 630.765 288.874 630.765 289.149C630.765 289.406 630.68 289.614 630.512 289.774C630.352 289.934 630.131 290.013 629.847 290.013ZM636.731 298.54V289.229H638.022L643.715 296.85L643.502 296.97C643.466 296.748 643.435 296.509 643.409 296.252C643.382 295.986 643.356 295.706 643.329 295.414C643.311 295.112 643.294 294.798 643.276 294.469C643.267 294.132 643.258 293.782 643.249 293.419C643.24 293.055 643.236 292.678 643.236 292.288V289.229H644.672V298.54H643.356L637.756 291.197L637.902 291.011C637.946 291.552 637.982 292.013 638.008 292.394C638.044 292.767 638.071 293.086 638.088 293.352C638.115 293.609 638.133 293.822 638.141 293.991C638.15 294.15 638.155 294.283 638.155 294.39C638.164 294.496 638.168 294.589 638.168 294.669V298.54H636.731ZM650.192 298.673C649.474 298.673 648.835 298.522 648.277 298.22C647.727 297.91 647.292 297.489 646.973 296.957C646.663 296.425 646.508 295.813 646.508 295.121C646.508 294.571 646.596 294.07 646.774 293.618C646.951 293.166 647.195 292.776 647.505 292.448C647.824 292.111 648.201 291.853 648.636 291.676C649.079 291.49 649.558 291.397 650.072 291.397C650.525 291.397 650.946 291.485 651.336 291.663C651.726 291.831 652.063 292.066 652.347 292.368C652.64 292.669 652.861 293.028 653.012 293.445C653.172 293.853 653.247 294.301 653.238 294.789L653.225 295.374H647.519L647.213 294.283H652.041L651.842 294.509V294.19C651.815 293.897 651.717 293.636 651.549 293.405C651.38 293.175 651.168 292.993 650.91 292.86C650.653 292.727 650.374 292.66 650.072 292.66C649.594 292.66 649.19 292.754 648.862 292.94C648.534 293.117 648.286 293.383 648.117 293.738C647.949 294.084 647.864 294.514 647.864 295.028C647.864 295.516 647.966 295.941 648.17 296.305C648.374 296.66 648.662 296.935 649.035 297.13C649.407 297.325 649.837 297.422 650.325 297.422C650.671 297.422 650.99 297.365 651.283 297.249C651.584 297.134 651.908 296.926 652.254 296.624L652.946 297.595C652.733 297.808 652.471 297.994 652.161 298.154C651.859 298.314 651.536 298.442 651.19 298.54C650.853 298.628 650.52 298.673 650.192 298.673ZM655.592 298.54V289.774H656.962V298.54H655.592ZM654.142 292.887V291.556H658.585V292.887H654.142ZM661.548 298.54L659.167 291.556L660.55 291.543L662.253 296.771L661.947 296.744L663.796 292.66H664.621L666.483 296.757L666.124 296.784L667.84 291.556H669.223L666.869 298.54H665.924L663.982 294.097L664.288 294.137L662.479 298.54H661.548ZM673.415 298.673C672.732 298.673 672.12 298.518 671.579 298.207C671.047 297.888 670.626 297.458 670.316 296.917C670.005 296.367 669.85 295.742 669.85 295.041C669.85 294.341 670.005 293.72 670.316 293.179C670.626 292.629 671.047 292.199 671.579 291.889C672.12 291.57 672.732 291.41 673.415 291.41C674.089 291.41 674.692 291.57 675.224 291.889C675.765 292.199 676.191 292.629 676.501 293.179C676.811 293.72 676.966 294.341 676.966 295.041C676.966 295.742 676.811 296.367 676.501 296.917C676.191 297.458 675.765 297.888 675.224 298.207C674.692 298.518 674.089 298.673 673.415 298.673ZM673.415 297.422C673.832 297.422 674.204 297.32 674.532 297.116C674.86 296.904 675.118 296.62 675.304 296.265C675.49 295.902 675.579 295.494 675.57 295.041C675.579 294.58 675.49 294.172 675.304 293.818C675.118 293.454 674.86 293.17 674.532 292.966C674.204 292.762 673.832 292.66 673.415 292.66C672.998 292.66 672.621 292.767 672.284 292.98C671.956 293.184 671.699 293.467 671.513 293.831C671.327 294.186 671.238 294.589 671.247 295.041C671.238 295.494 671.327 295.902 671.513 296.265C671.699 296.62 671.956 296.904 672.284 297.116C672.621 297.32 672.998 297.422 673.415 297.422ZM678.459 298.54V291.556H679.843V293.751L679.71 293.219C679.807 292.882 679.971 292.576 680.202 292.301C680.441 292.026 680.712 291.809 681.013 291.65C681.324 291.49 681.643 291.41 681.971 291.41C682.122 291.41 682.264 291.423 682.397 291.45C682.538 291.477 682.649 291.508 682.729 291.543L682.37 293.033C682.264 292.989 682.144 292.953 682.011 292.926C681.887 292.891 681.763 292.873 681.638 292.873C681.399 292.873 681.168 292.922 680.947 293.02C680.734 293.108 680.543 293.237 680.375 293.405C680.215 293.565 680.087 293.756 679.989 293.977C679.891 294.19 679.843 294.425 679.843 294.682V298.54H678.459ZM685.074 296.358L685.008 294.868L688.347 291.556H690.195L685.074 296.358ZM683.824 298.54V288.697H685.194V298.54H683.824ZM688.533 298.54L685.899 295.467L686.87 294.576L690.289 298.54H688.533Z" fill="#8A9FB8"/>
<rect x="371.919" y="314.012" width="127.243" height="82.5281" rx="8" fill="#262E38"/>
<path d="M375.909 323.814C375.909 320.501 378.595 317.814 381.909 317.814H489.401C492.715 317.814 495.401 320.501 495.401 323.814V386.458C495.401 389.772 492.715 392.458 489.401 392.458H381.909C378.595 392.458 375.909 389.772 375.909 386.458V323.814Z" fill="#3E4C5C" stroke="#262E38" stroke-width="1.2" stroke-miterlimit="10"/>
<path d="M410.632 349.474L415.384 337.2H417.312L422.029 349.474H420.013L417.207 342.075C417.172 341.993 417.102 341.794 416.997 341.478C416.903 341.163 416.792 340.812 416.664 340.426C416.535 340.041 416.418 339.69 416.313 339.374C416.208 339.047 416.138 338.837 416.103 338.743L416.506 338.726C416.436 338.924 416.348 339.176 416.243 339.48C416.149 339.784 416.044 340.105 415.927 340.444C415.822 340.783 415.717 341.104 415.612 341.408C415.506 341.701 415.419 341.946 415.349 342.145L412.561 349.474H410.632ZM412.736 346.423L413.437 344.599H419.013L419.82 346.423H412.736ZM427.682 353.507C427.028 353.507 426.373 353.401 425.719 353.191C425.076 352.992 424.556 352.729 424.158 352.402L424.824 350.999C425.058 351.175 425.333 351.327 425.648 351.455C425.964 351.595 426.297 351.701 426.648 351.771C426.999 351.853 427.343 351.894 427.682 351.894C428.325 351.894 428.863 351.788 429.295 351.578C429.728 351.368 430.055 351.058 430.277 350.649C430.499 350.24 430.61 349.731 430.61 349.123V347.352L430.803 347.475C430.745 347.837 430.552 348.188 430.225 348.527C429.909 348.854 429.512 349.123 429.032 349.334C428.553 349.544 428.062 349.649 427.56 349.649C426.683 349.649 425.9 349.445 425.21 349.036C424.532 348.615 423.994 348.048 423.597 347.335C423.2 346.61 423.001 345.786 423.001 344.863C423.001 343.939 423.194 343.121 423.579 342.408C423.977 341.683 424.515 341.116 425.193 340.707C425.882 340.286 426.654 340.076 427.507 340.076C427.858 340.076 428.197 340.123 428.524 340.216C428.851 340.298 429.155 340.421 429.436 340.584C429.716 340.736 429.968 340.906 430.19 341.093C430.412 341.28 430.593 341.478 430.733 341.689C430.873 341.899 430.961 342.098 430.996 342.285L430.61 342.425V340.269H432.416V348.913C432.416 349.649 432.305 350.298 432.083 350.859C431.873 351.432 431.563 351.911 431.154 352.297C430.745 352.694 430.248 352.992 429.664 353.191C429.079 353.401 428.419 353.507 427.682 353.507ZM427.752 347.984C428.325 347.984 428.834 347.849 429.278 347.58C429.722 347.311 430.067 346.943 430.312 346.476C430.558 346.008 430.681 345.47 430.681 344.863C430.681 344.255 430.552 343.717 430.295 343.249C430.049 342.77 429.705 342.396 429.26 342.127C428.828 341.858 428.325 341.724 427.752 341.724C427.191 341.724 426.689 341.864 426.245 342.145C425.812 342.414 425.467 342.788 425.21 343.267C424.965 343.734 424.842 344.266 424.842 344.863C424.842 345.459 424.965 345.996 425.21 346.476C425.467 346.943 425.812 347.311 426.245 347.58C426.689 347.849 427.191 347.984 427.752 347.984ZM439.244 349.649C438.298 349.649 437.456 349.45 436.719 349.053C435.995 348.644 435.422 348.089 435.001 347.387C434.592 346.686 434.388 345.879 434.388 344.968C434.388 344.243 434.504 343.583 434.738 342.986C434.972 342.39 435.293 341.876 435.703 341.443C436.123 340.999 436.62 340.66 437.193 340.426C437.777 340.181 438.409 340.058 439.087 340.058C439.683 340.058 440.238 340.175 440.752 340.409C441.267 340.631 441.711 340.941 442.085 341.338C442.471 341.736 442.763 342.209 442.962 342.758C443.172 343.296 443.271 343.886 443.26 344.529L443.242 345.301H435.72L435.317 343.863H441.682L441.419 344.161V343.74C441.383 343.355 441.255 343.01 441.033 342.706C440.811 342.402 440.53 342.162 440.191 341.987C439.852 341.812 439.484 341.724 439.087 341.724C438.455 341.724 437.923 341.847 437.491 342.092C437.058 342.326 436.731 342.677 436.509 343.144C436.287 343.6 436.176 344.167 436.176 344.845C436.176 345.488 436.31 346.049 436.579 346.528C436.848 346.996 437.228 347.358 437.719 347.615C438.21 347.872 438.777 348.001 439.42 348.001C439.876 348.001 440.296 347.925 440.682 347.773C441.08 347.621 441.506 347.346 441.962 346.949L442.874 348.229C442.593 348.51 442.248 348.755 441.839 348.965C441.442 349.176 441.015 349.345 440.559 349.474C440.115 349.591 439.677 349.649 439.244 349.649ZM445.222 349.474V340.269H447.028V342.162L446.713 342.373C446.83 341.964 447.057 341.59 447.396 341.251C447.735 340.9 448.139 340.619 448.606 340.409C449.074 340.187 449.553 340.076 450.044 340.076C450.745 340.076 451.33 340.216 451.797 340.497C452.265 340.765 452.616 341.18 452.849 341.741C453.083 342.303 453.2 343.01 453.2 343.863V349.474H451.394V343.986C451.394 343.46 451.324 343.027 451.184 342.688C451.043 342.338 450.827 342.086 450.535 341.934C450.243 341.771 449.88 341.701 449.448 341.724C449.097 341.724 448.776 341.782 448.484 341.899C448.191 342.005 447.934 342.156 447.712 342.355C447.502 342.554 447.332 342.788 447.204 343.057C447.087 343.314 447.028 343.594 447.028 343.898V349.474H446.134C445.982 349.474 445.83 349.474 445.678 349.474C445.526 349.474 445.374 349.474 445.222 349.474ZM456.79 349.474V337.919H458.596V349.474H456.79ZM454.879 342.022V340.269H460.735V342.022H454.879ZM398.655 371.474V361.234C398.655 360.708 398.771 360.241 399.005 359.831C399.239 359.422 399.56 359.101 399.97 358.867C400.379 358.633 400.852 358.516 401.39 358.516C401.764 358.516 402.115 358.587 402.442 358.727C402.769 358.867 403.032 359.054 403.231 359.288L402.617 360.673C402.465 360.533 402.296 360.422 402.109 360.34C401.933 360.246 401.764 360.2 401.6 360.2C401.355 360.2 401.144 360.241 400.969 360.322C400.805 360.393 400.683 360.509 400.601 360.673C400.519 360.825 400.478 361.012 400.478 361.234V371.474H399.566C399.414 371.474 399.262 371.474 399.11 371.474C398.958 371.474 398.807 371.474 398.655 371.474ZM397.182 364.092V362.426H402.652V364.092H397.182ZM407.765 371.649C407.11 371.649 406.537 371.497 406.046 371.193C405.567 370.889 405.193 370.463 404.924 369.913C404.667 369.364 404.538 368.709 404.538 367.95V362.269H406.344V367.459C406.344 367.996 406.426 368.464 406.59 368.861C406.765 369.247 407.011 369.545 407.326 369.756C407.654 369.966 408.045 370.071 408.501 370.071C408.84 370.071 409.15 370.019 409.43 369.913C409.711 369.796 409.951 369.639 410.149 369.44C410.36 369.241 410.523 369.002 410.64 368.721C410.757 368.441 410.816 368.137 410.816 367.809V362.269H412.622V371.474H410.816V369.545L411.131 369.335C410.991 369.767 410.751 370.159 410.412 370.51C410.085 370.86 409.693 371.141 409.238 371.351C408.782 371.55 408.291 371.649 407.765 371.649ZM415.155 371.474V362.269H416.961V364.162L416.645 364.373C416.762 363.964 416.99 363.59 417.329 363.251C417.668 362.9 418.071 362.619 418.539 362.409C419.006 362.187 419.485 362.076 419.976 362.076C420.678 362.076 421.262 362.216 421.73 362.497C422.197 362.765 422.548 363.18 422.782 363.741C423.016 364.303 423.132 365.01 423.132 365.863V371.474H421.327V365.986C421.327 365.46 421.256 365.027 421.116 364.688C420.976 364.338 420.76 364.086 420.467 363.934C420.175 363.771 419.813 363.701 419.38 363.724C419.03 363.724 418.708 363.782 418.416 363.899C418.124 364.005 417.867 364.156 417.644 364.355C417.434 364.554 417.265 364.788 417.136 365.057C417.019 365.314 416.961 365.594 416.961 365.898V371.474H416.066C415.914 371.474 415.762 371.474 415.611 371.474C415.459 371.474 415.307 371.474 415.155 371.474ZM429.492 371.649C428.639 371.649 427.873 371.439 427.196 371.018C426.529 370.597 425.997 370.024 425.6 369.3C425.214 368.575 425.021 367.763 425.021 366.863C425.021 365.962 425.214 365.15 425.6 364.425C425.997 363.701 426.529 363.128 427.196 362.707C427.873 362.286 428.639 362.076 429.492 362.076C430.311 362.076 431.053 362.245 431.719 362.584C432.397 362.912 432.912 363.362 433.262 363.934L432.263 365.162C432.076 364.893 431.836 364.647 431.544 364.425C431.252 364.203 430.942 364.028 430.615 363.899C430.287 363.771 429.972 363.706 429.668 363.706C429.107 363.706 428.604 363.847 428.16 364.127C427.727 364.396 427.383 364.77 427.125 365.249C426.868 365.729 426.74 366.266 426.74 366.863C426.74 367.459 426.874 367.996 427.143 368.476C427.412 368.943 427.768 369.317 428.212 369.598C428.657 369.878 429.148 370.019 429.685 370.019C430.001 370.019 430.305 369.966 430.597 369.861C430.901 369.756 431.193 369.598 431.474 369.387C431.754 369.177 432.017 368.92 432.263 368.616L433.262 369.843C432.888 370.369 432.35 370.802 431.649 371.141C430.959 371.48 430.241 371.649 429.492 371.649ZM436.105 371.474V359.919H437.911V371.474H436.105ZM434.194 364.022V362.269H440.05V364.022H434.194ZM441.993 371.474V362.269H443.799V371.474H441.993ZM442.87 360.235C442.484 360.235 442.186 360.135 441.976 359.937C441.765 359.738 441.66 359.457 441.66 359.095C441.66 358.756 441.765 358.481 441.976 358.271C442.198 358.061 442.496 357.955 442.87 357.955C443.255 357.955 443.554 358.055 443.764 358.253C443.974 358.452 444.08 358.733 444.08 359.095C444.08 359.434 443.969 359.709 443.746 359.919C443.536 360.13 443.244 360.235 442.87 360.235ZM450.713 371.649C449.813 371.649 449.006 371.445 448.293 371.036C447.592 370.615 447.037 370.048 446.628 369.335C446.218 368.61 446.014 367.786 446.014 366.863C446.014 365.939 446.218 365.121 446.628 364.408C447.037 363.683 447.592 363.116 448.293 362.707C449.006 362.286 449.813 362.076 450.713 362.076C451.601 362.076 452.396 362.286 453.098 362.707C453.811 363.116 454.372 363.683 454.781 364.408C455.19 365.121 455.394 365.939 455.394 366.863C455.394 367.786 455.19 368.61 454.781 369.335C454.372 370.048 453.811 370.615 453.098 371.036C452.396 371.445 451.601 371.649 450.713 371.649ZM450.713 370.001C451.262 370.001 451.753 369.867 452.186 369.598C452.618 369.317 452.957 368.943 453.203 368.476C453.448 367.996 453.565 367.459 453.553 366.863C453.565 366.255 453.448 365.717 453.203 365.249C452.957 364.77 452.618 364.396 452.186 364.127C451.753 363.858 451.262 363.724 450.713 363.724C450.164 363.724 449.667 363.864 449.223 364.145C448.79 364.414 448.451 364.788 448.206 365.267C447.96 365.734 447.843 366.266 447.855 366.863C447.843 367.459 447.96 367.996 448.206 368.476C448.451 368.943 448.79 369.317 449.223 369.598C449.667 369.867 450.164 370.001 450.713 370.001ZM457.362 371.474V362.269H459.168V364.162L458.853 364.373C458.97 363.964 459.198 363.59 459.537 363.251C459.875 362.9 460.279 362.619 460.746 362.409C461.214 362.187 461.693 362.076 462.184 362.076C462.885 362.076 463.47 362.216 463.937 362.497C464.405 362.765 464.756 363.18 464.989 363.741C465.223 364.303 465.34 365.01 465.34 365.863V371.474H463.534V365.986C463.534 365.46 463.464 365.027 463.324 364.688C463.184 364.338 462.967 364.086 462.675 363.934C462.383 363.771 462.02 363.701 461.588 363.724C461.237 363.724 460.916 363.782 460.624 363.899C460.331 364.005 460.074 364.156 459.852 364.355C459.642 364.554 459.472 364.788 459.344 365.057C459.227 365.314 459.168 365.594 459.168 365.898V371.474H458.274C458.122 371.474 457.97 371.474 457.818 371.474C457.666 371.474 457.514 371.474 457.362 371.474ZM470.859 371.649C470.087 371.649 469.392 371.515 468.772 371.246C468.152 370.977 467.638 370.58 467.229 370.054L468.456 369.002C468.807 369.411 469.187 369.709 469.596 369.896C470.017 370.071 470.49 370.159 471.016 370.159C471.227 370.159 471.42 370.135 471.595 370.089C471.782 370.03 471.94 369.948 472.068 369.843C472.209 369.738 472.314 369.615 472.384 369.475C472.454 369.323 472.489 369.159 472.489 368.984C472.489 368.68 472.378 368.435 472.156 368.248C472.039 368.166 471.852 368.078 471.595 367.985C471.349 367.879 471.028 367.774 470.631 367.669C469.953 367.494 469.397 367.295 468.965 367.073C468.532 366.851 468.199 366.599 467.965 366.319C467.79 366.097 467.662 365.857 467.58 365.6C467.498 365.331 467.457 365.039 467.457 364.723C467.457 364.338 467.539 363.987 467.702 363.671C467.878 363.344 468.112 363.064 468.404 362.83C468.708 362.584 469.058 362.397 469.456 362.269C469.865 362.14 470.297 362.076 470.753 362.076C471.186 362.076 471.612 362.134 472.033 362.251C472.466 362.368 472.863 362.538 473.226 362.76C473.588 362.982 473.892 363.245 474.137 363.549L473.103 364.688C472.881 364.466 472.635 364.273 472.366 364.11C472.109 363.934 471.846 363.8 471.577 363.706C471.309 363.613 471.063 363.566 470.841 363.566C470.596 363.566 470.373 363.59 470.175 363.636C469.976 363.683 469.806 363.753 469.666 363.847C469.538 363.94 469.438 364.057 469.368 364.197C469.298 364.338 469.263 364.495 469.263 364.671C469.275 364.823 469.31 364.969 469.368 365.109C469.438 365.238 469.532 365.349 469.649 365.442C469.777 365.536 469.97 365.635 470.227 365.74C470.484 365.846 470.812 365.945 471.209 366.038C471.794 366.19 472.273 366.36 472.647 366.547C473.033 366.722 473.337 366.927 473.559 367.161C473.792 367.383 473.956 367.64 474.05 367.932C474.143 368.224 474.19 368.552 474.19 368.914C474.19 369.44 474.038 369.913 473.734 370.334C473.442 370.743 473.044 371.065 472.542 371.299C472.039 371.532 471.478 371.649 470.859 371.649Z" fill="white"/>
<rect x="156.534" y="322.418" width="126.237" height="63.7163" rx="8" fill="#262E38"/>
<rect x="161.007" y="326.324" width="117.291" height="55.9036" rx="6" fill="#3E4C5C" stroke="#262E38" stroke-width="1.2" stroke-miterlimit="10"/>
<path d="M171.591 363.449L176.343 351.175H178.272L182.988 363.449H180.972L178.166 356.05C178.131 355.968 178.061 355.769 177.956 355.454C177.862 355.138 177.751 354.787 177.623 354.402C177.494 354.016 177.377 353.665 177.272 353.35C177.167 353.022 177.097 352.812 177.062 352.718L177.465 352.701C177.395 352.9 177.307 353.151 177.202 353.455C177.108 353.759 177.003 354.08 176.886 354.419C176.781 354.758 176.676 355.08 176.571 355.383C176.466 355.676 176.378 355.921 176.308 356.12L173.52 363.449H171.591ZM173.695 360.398L174.397 358.575H179.972L180.779 360.398H173.695ZM188.642 367.482C187.987 367.482 187.332 367.377 186.678 367.166C186.035 366.967 185.515 366.704 185.117 366.377L185.784 364.974C186.017 365.15 186.292 365.302 186.608 365.43C186.923 365.571 187.256 365.676 187.607 365.746C187.958 365.828 188.303 365.869 188.642 365.869C189.284 365.869 189.822 365.763 190.255 365.553C190.687 365.343 191.014 365.033 191.237 364.624C191.459 364.215 191.57 363.706 191.57 363.098V361.327L191.763 361.45C191.704 361.812 191.511 362.163 191.184 362.502C190.868 362.829 190.471 363.098 189.992 363.309C189.512 363.519 189.021 363.624 188.519 363.624C187.642 363.624 186.859 363.42 186.169 363.011C185.491 362.59 184.954 362.023 184.556 361.31C184.159 360.585 183.96 359.761 183.96 358.838C183.96 357.914 184.153 357.096 184.539 356.383C184.936 355.658 185.474 355.091 186.152 354.682C186.841 354.261 187.613 354.051 188.466 354.051C188.817 354.051 189.156 354.098 189.483 354.191C189.81 354.273 190.114 354.396 190.395 354.559C190.675 354.711 190.927 354.881 191.149 355.068C191.371 355.255 191.552 355.454 191.692 355.664C191.833 355.874 191.92 356.073 191.955 356.26L191.57 356.4V354.244H193.376V362.888C193.376 363.624 193.265 364.273 193.042 364.834C192.832 365.407 192.522 365.886 192.113 366.272C191.704 366.669 191.207 366.967 190.623 367.166C190.038 367.377 189.378 367.482 188.642 367.482ZM188.712 361.959C189.284 361.959 189.793 361.824 190.237 361.555C190.681 361.286 191.026 360.918 191.272 360.451C191.517 359.983 191.64 359.445 191.64 358.838C191.64 358.23 191.511 357.692 191.254 357.224C191.009 356.745 190.664 356.371 190.22 356.102C189.787 355.833 189.284 355.699 188.712 355.699C188.151 355.699 187.648 355.839 187.204 356.12C186.771 356.389 186.426 356.763 186.169 357.242C185.924 357.71 185.801 358.241 185.801 358.838C185.801 359.434 185.924 359.971 186.169 360.451C186.426 360.918 186.771 361.286 187.204 361.555C187.648 361.824 188.151 361.959 188.712 361.959ZM200.204 363.624C199.257 363.624 198.415 363.426 197.679 363.028C196.954 362.619 196.381 362.064 195.96 361.362C195.551 360.661 195.347 359.855 195.347 358.943C195.347 358.218 195.464 357.558 195.697 356.961C195.931 356.365 196.253 355.851 196.662 355.419C197.082 354.974 197.579 354.635 198.152 354.402C198.737 354.156 199.368 354.033 200.046 354.033C200.642 354.033 201.197 354.15 201.711 354.384C202.226 354.606 202.67 354.916 203.044 355.313C203.43 355.711 203.722 356.184 203.921 356.734C204.131 357.271 204.23 357.862 204.219 358.504L204.201 359.276H196.679L196.276 357.838H202.641L202.378 358.136V357.715C202.343 357.33 202.214 356.985 201.992 356.681C201.77 356.377 201.489 356.137 201.15 355.962C200.811 355.787 200.443 355.699 200.046 355.699C199.414 355.699 198.883 355.822 198.45 356.067C198.018 356.301 197.69 356.652 197.468 357.119C197.246 357.575 197.135 358.142 197.135 358.82C197.135 359.463 197.27 360.024 197.538 360.503C197.807 360.971 198.187 361.333 198.678 361.59C199.169 361.848 199.736 361.976 200.379 361.976C200.835 361.976 201.256 361.9 201.641 361.748C202.039 361.596 202.465 361.322 202.921 360.924L203.833 362.204C203.552 362.485 203.208 362.73 202.799 362.94C202.401 363.151 201.974 363.32 201.519 363.449C201.074 363.566 200.636 363.624 200.204 363.624ZM206.181 363.449V354.244H207.987V356.137L207.672 356.348C207.789 355.939 208.017 355.565 208.356 355.226C208.695 354.875 209.098 354.594 209.565 354.384C210.033 354.162 210.512 354.051 211.003 354.051C211.705 354.051 212.289 354.191 212.757 354.472C213.224 354.741 213.575 355.156 213.809 355.717C214.042 356.278 214.159 356.985 214.159 357.838V363.449H212.353V357.961C212.353 357.435 212.283 357.002 212.143 356.663C212.003 356.313 211.786 356.061 211.494 355.909C211.202 355.746 210.84 355.676 210.407 355.699C210.056 355.699 209.735 355.758 209.443 355.874C209.15 355.98 208.893 356.132 208.671 356.33C208.461 356.529 208.291 356.763 208.163 357.032C208.046 357.289 207.987 357.569 207.987 357.873V363.449H207.093C206.941 363.449 206.789 363.449 206.637 363.449C206.485 363.449 206.333 363.449 206.181 363.449ZM217.749 363.449V351.894H219.555V363.449H217.749ZM215.838 355.997V354.244H221.694V355.997H215.838ZM226.354 363.449L222.462 354.244H224.408L227.213 361.135L226.88 361.292L229.879 354.244H231.737L227.652 363.449H226.354ZM237.428 363.624C236.482 363.624 235.64 363.426 234.904 363.028C234.179 362.619 233.606 362.064 233.185 361.362C232.776 360.661 232.572 359.855 232.572 358.943C232.572 358.218 232.689 357.558 232.922 356.961C233.156 356.365 233.478 355.851 233.887 355.419C234.307 354.974 234.804 354.635 235.377 354.402C235.961 354.156 236.593 354.033 237.271 354.033C237.867 354.033 238.422 354.15 238.936 354.384C239.451 354.606 239.895 354.916 240.269 355.313C240.655 355.711 240.947 356.184 241.146 356.734C241.356 357.271 241.455 357.862 241.444 358.504L241.426 359.276H233.904L233.501 357.838H239.866L239.603 358.136V357.715C239.568 357.33 239.439 356.985 239.217 356.681C238.995 356.377 238.714 356.137 238.375 355.962C238.036 355.787 237.668 355.699 237.271 355.699C236.639 355.699 236.108 355.822 235.675 356.067C235.243 356.301 234.915 356.652 234.693 357.119C234.471 357.575 234.36 358.142 234.36 358.82C234.36 359.463 234.494 360.024 234.763 360.503C235.032 360.971 235.412 361.333 235.903 361.59C236.394 361.848 236.961 361.976 237.604 361.976C238.06 361.976 238.48 361.9 238.866 361.748C239.264 361.596 239.69 361.322 240.146 360.924L241.058 362.204C240.777 362.485 240.433 362.73 240.023 362.94C239.626 363.151 239.199 363.32 238.743 363.449C238.299 363.566 237.861 363.624 237.428 363.624ZM243.406 363.449V354.244H245.23V357.137L245.055 356.435C245.183 355.991 245.399 355.588 245.703 355.226C246.019 354.863 246.375 354.577 246.773 354.366C247.182 354.156 247.603 354.051 248.035 354.051C248.234 354.051 248.421 354.068 248.596 354.103C248.783 354.139 248.93 354.179 249.035 354.226L248.561 356.19C248.421 356.132 248.263 356.085 248.088 356.05C247.924 356.003 247.761 355.98 247.597 355.98C247.281 355.98 246.977 356.044 246.685 356.172C246.405 356.289 246.153 356.459 245.931 356.681C245.721 356.891 245.551 357.143 245.423 357.435C245.294 357.715 245.23 358.025 245.23 358.364V363.449H243.406ZM253.546 363.624C252.775 363.624 252.08 363.49 251.46 363.221C250.84 362.952 250.326 362.555 249.917 362.029L251.144 360.977C251.495 361.386 251.875 361.684 252.284 361.871C252.705 362.046 253.178 362.134 253.704 362.134C253.915 362.134 254.108 362.111 254.283 362.064C254.47 362.005 254.628 361.924 254.756 361.818C254.897 361.713 255.002 361.59 255.072 361.45C255.142 361.298 255.177 361.135 255.177 360.959C255.177 360.655 255.066 360.41 254.844 360.223C254.727 360.141 254.54 360.053 254.283 359.96C254.037 359.855 253.716 359.749 253.319 359.644C252.641 359.469 252.085 359.27 251.653 359.048C251.22 358.826 250.887 358.575 250.653 358.294C250.478 358.072 250.35 357.832 250.268 357.575C250.186 357.306 250.145 357.014 250.145 356.698C250.145 356.313 250.227 355.962 250.39 355.646C250.566 355.319 250.8 355.039 251.092 354.805C251.396 354.559 251.746 354.372 252.144 354.244C252.553 354.115 252.985 354.051 253.441 354.051C253.874 354.051 254.3 354.109 254.721 354.226C255.154 354.343 255.551 354.513 255.914 354.735C256.276 354.957 256.58 355.22 256.825 355.524L255.791 356.663C255.569 356.441 255.323 356.248 255.054 356.085C254.797 355.909 254.534 355.775 254.265 355.682C253.997 355.588 253.751 355.541 253.529 355.541C253.283 355.541 253.061 355.565 252.863 355.611C252.664 355.658 252.494 355.728 252.354 355.822C252.226 355.915 252.126 356.032 252.056 356.172C251.986 356.313 251.951 356.471 251.951 356.646C251.963 356.798 251.998 356.944 252.056 357.084C252.126 357.213 252.22 357.324 252.337 357.417C252.465 357.511 252.658 357.61 252.915 357.715C253.172 357.821 253.5 357.92 253.897 358.014C254.482 358.165 254.961 358.335 255.335 358.522C255.721 358.697 256.025 358.902 256.247 359.136C256.48 359.358 256.644 359.615 256.738 359.907C256.831 360.199 256.878 360.527 256.878 360.889C256.878 361.415 256.726 361.888 256.422 362.309C256.13 362.718 255.732 363.04 255.23 363.274C254.727 363.507 254.166 363.624 253.546 363.624ZM263.164 363.624C262.217 363.624 261.376 363.426 260.639 363.028C259.914 362.619 259.342 362.064 258.921 361.362C258.512 360.661 258.307 359.855 258.307 358.943C258.307 358.218 258.424 357.558 258.658 356.961C258.892 356.365 259.213 355.851 259.622 355.419C260.043 354.974 260.54 354.635 261.113 354.402C261.697 354.156 262.328 354.033 263.006 354.033C263.602 354.033 264.158 354.15 264.672 354.384C265.186 354.606 265.63 354.916 266.004 355.313C266.39 355.711 266.682 356.184 266.881 356.734C267.092 357.271 267.191 357.862 267.179 358.504L267.162 359.276H259.64L259.236 357.838H265.601L265.338 358.136V357.715C265.303 357.33 265.175 356.985 264.952 356.681C264.73 356.377 264.45 356.137 264.111 355.962C263.772 355.787 263.404 355.699 263.006 355.699C262.375 355.699 261.843 355.822 261.411 356.067C260.978 356.301 260.651 356.652 260.429 357.119C260.207 357.575 260.096 358.142 260.096 358.82C260.096 359.463 260.23 360.024 260.499 360.503C260.768 360.971 261.148 361.333 261.639 361.59C262.13 361.848 262.696 361.976 263.339 361.976C263.795 361.976 264.216 361.9 264.602 361.748C264.999 361.596 265.426 361.322 265.882 360.924L266.794 362.204C266.513 362.485 266.168 362.73 265.759 362.94C265.362 363.151 264.935 363.32 264.479 363.449C264.035 363.566 263.597 363.624 263.164 363.624Z" fill="white"/>
<path d="M229.76 306.944H209.546C205.92 306.944 202.981 309.883 202.981 313.508V333.722C202.981 337.347 205.92 340.286 209.546 340.286H229.76C233.385 340.286 236.324 337.347 236.324 333.722V313.508C236.324 309.883 233.385 306.944 229.76 306.944Z" fill="#798BA0" stroke="#8A9FB8" stroke-width="1.2" stroke-miterlimit="10"/>
<path d="M221.251 323.721C221.251 324.527 220.594 325.185 219.787 325.185C218.981 325.185 218.324 324.527 218.324 323.721C218.324 322.914 218.981 322.257 219.787 322.257C220.594 322.257 221.251 322.914 221.251 323.721ZM215.27 323.635C214.407 323.635 213.709 324.333 213.709 325.196C213.709 326.059 214.407 326.757 215.27 326.757C216.133 326.757 216.831 326.059 216.831 325.196C216.831 324.333 216.133 323.635 215.27 323.635ZM224.305 323.635C223.441 323.635 222.744 324.333 222.744 325.196C222.744 326.059 223.441 326.757 224.305 326.757C225.168 326.757 225.866 326.059 225.866 325.196C225.866 324.333 225.168 323.635 224.305 323.635ZM215.27 319.112C214.618 319.112 214.092 319.638 214.092 320.29C214.092 320.942 214.618 321.468 215.27 321.468C215.922 321.468 216.448 320.942 216.448 320.29C216.448 319.638 215.922 319.112 215.27 319.112ZM213.029 315.95C212.502 315.95 212.079 316.373 212.079 316.899C212.079 317.425 212.502 317.848 213.029 317.848C213.555 317.848 213.978 317.425 213.978 316.899C213.978 316.373 213.555 315.95 213.029 315.95ZM212.537 327.655C211.536 327.655 210.724 328.467 210.724 329.467C210.724 330.468 211.536 331.28 212.537 331.28C213.537 331.28 214.349 330.468 214.349 329.467C214.349 328.467 213.537 327.655 212.537 327.655ZM227.004 327.655C226.003 327.655 225.191 328.467 225.191 329.467C225.191 330.468 226.003 331.28 227.004 331.28C228.004 331.28 228.816 330.468 228.816 329.467C228.816 328.467 228.004 327.655 227.004 327.655ZM219.787 327.655C218.787 327.655 217.975 328.467 217.975 329.467C217.975 330.468 218.787 331.28 219.787 331.28C220.788 331.28 221.6 330.468 221.6 329.467C221.6 328.467 220.788 327.655 219.787 327.655ZM223.133 320.29C223.133 320.942 223.659 321.468 224.31 321.468C224.962 321.468 225.488 320.942 225.488 320.29C225.488 319.638 224.962 319.112 224.31 319.112C223.659 319.112 223.133 319.638 223.133 320.29ZM225.626 316.899C225.626 317.425 226.049 317.848 226.575 317.848C227.101 317.848 227.524 317.425 227.524 316.899C227.524 316.373 227.101 315.95 226.575 315.95C226.049 315.95 225.626 316.373 225.626 316.899Z" fill="#1F262E"/>
<rect x="156.502" y="143.581" width="126.237" height="63.7163" rx="8" fill="#262E38"/>
<rect x="160.976" y="147.487" width="117.291" height="55.9036" rx="6" fill="#3E4C5C" stroke="#262E38" stroke-width="1.2" stroke-miterlimit="10"/>
<path d="M192.339 184.612V172.338H197.144C198.02 172.338 198.809 172.484 199.511 172.777C200.224 173.069 200.832 173.49 201.334 174.039C201.837 174.588 202.223 175.237 202.491 175.985C202.76 176.733 202.895 177.563 202.895 178.475C202.895 179.387 202.76 180.223 202.491 180.982C202.223 181.73 201.837 182.379 201.334 182.929C200.843 183.466 200.241 183.881 199.528 184.173C198.815 184.466 198.02 184.612 197.144 184.612H192.339ZM194.233 182.981L194.18 182.788H197.056C197.676 182.788 198.225 182.689 198.704 182.49C199.195 182.292 199.604 182.011 199.932 181.649C200.27 181.275 200.528 180.819 200.703 180.281C200.878 179.743 200.966 179.141 200.966 178.475C200.966 177.809 200.878 177.213 200.703 176.687C200.528 176.149 200.27 175.693 199.932 175.319C199.593 174.945 199.183 174.658 198.704 174.46C198.225 174.261 197.676 174.162 197.056 174.162H194.128L194.233 174.004V182.981ZM209.295 184.787C208.349 184.787 207.507 184.588 206.77 184.191C206.046 183.782 205.473 183.227 205.052 182.525C204.643 181.824 204.439 181.017 204.439 180.106C204.439 179.381 204.555 178.72 204.789 178.124C205.023 177.528 205.344 177.014 205.754 176.581C206.174 176.137 206.671 175.798 207.244 175.564C207.828 175.319 208.46 175.196 209.138 175.196C209.734 175.196 210.289 175.313 210.803 175.547C211.318 175.769 211.762 176.079 212.136 176.476C212.522 176.874 212.814 177.347 213.013 177.896C213.223 178.434 213.322 179.024 213.311 179.667L213.293 180.439H205.771L205.368 179.001H211.733L211.47 179.299V178.878C211.434 178.493 211.306 178.148 211.084 177.844C210.862 177.54 210.581 177.3 210.242 177.125C209.903 176.95 209.535 176.862 209.138 176.862C208.506 176.862 207.974 176.985 207.542 177.23C207.109 177.464 206.782 177.815 206.56 178.282C206.338 178.738 206.227 179.305 206.227 179.983C206.227 180.626 206.361 181.187 206.63 181.666C206.899 182.134 207.279 182.496 207.77 182.753C208.261 183.01 208.828 183.139 209.471 183.139C209.927 183.139 210.347 183.063 210.733 182.911C211.131 182.759 211.557 182.484 212.013 182.087L212.925 183.367C212.644 183.647 212.299 183.893 211.89 184.103C211.493 184.314 211.066 184.483 210.61 184.612C210.166 184.729 209.728 184.787 209.295 184.787ZM215.308 184.612V171.637H217.114V184.612H215.308ZM220.762 184.612V173.057H222.568V184.612H220.762ZM218.851 177.16V175.407H224.707V177.16H218.851ZM229.808 184.787C229.048 184.787 228.353 184.577 227.721 184.156C227.102 183.735 226.605 183.162 226.231 182.438C225.857 181.713 225.67 180.895 225.67 179.983C225.67 179.059 225.857 178.241 226.231 177.528C226.617 176.803 227.131 176.237 227.774 175.827C228.429 175.418 229.159 175.214 229.966 175.214C230.445 175.214 230.883 175.284 231.281 175.424C231.678 175.564 232.023 175.763 232.315 176.02C232.619 176.266 232.865 176.552 233.052 176.879C233.25 177.207 233.373 177.557 233.42 177.931L233.017 177.791V175.407H234.84V184.612H233.017V182.42L233.437 182.297C233.367 182.613 233.221 182.923 232.999 183.227C232.789 183.519 232.514 183.782 232.175 184.016C231.848 184.249 231.479 184.436 231.07 184.577C230.673 184.717 230.252 184.787 229.808 184.787ZM230.281 183.121C230.831 183.121 231.316 182.987 231.737 182.718C232.157 182.449 232.485 182.081 232.719 181.614C232.964 181.134 233.087 180.591 233.087 179.983C233.087 179.387 232.964 178.855 232.719 178.387C232.485 177.92 232.157 177.552 231.737 177.283C231.316 177.014 230.831 176.879 230.281 176.879C229.744 176.879 229.264 177.014 228.844 177.283C228.434 177.552 228.107 177.92 227.862 178.387C227.628 178.855 227.511 179.387 227.511 179.983C227.511 180.591 227.628 181.134 227.862 181.614C228.107 182.081 228.434 182.449 228.844 182.718C229.264 182.987 229.744 183.121 230.281 183.121ZM240.933 184.612L236.023 172.338H238.18L241.108 179.79C241.249 180.152 241.371 180.48 241.476 180.772C241.593 181.064 241.693 181.333 241.775 181.578C241.856 181.812 241.932 182.034 242.002 182.245C242.073 182.455 242.143 182.666 242.213 182.876L241.757 182.894C241.839 182.613 241.927 182.321 242.02 182.017C242.114 181.713 242.219 181.38 242.336 181.017C242.464 180.655 242.616 180.246 242.792 179.79L245.509 172.338H247.718L242.774 184.612H240.933Z" fill="white"/>
<path d="M229.728 128.107H209.514C205.889 128.107 202.95 131.046 202.95 134.671V154.885C202.95 158.51 205.889 161.449 209.514 161.449H229.728C233.353 161.449 236.292 158.51 236.292 154.885V134.671C236.292 131.046 233.353 128.107 229.728 128.107Z" fill="#798BA0" stroke="#8A9FB8" stroke-width="1.2" stroke-miterlimit="10"/>
<path d="M221.528 146.096H217.771V149.853H221.528V146.096Z" fill="#1F262E"/>
<path d="M224.862 142.762H221.534V146.09H224.862V142.762Z" fill="#1F262E"/>
<path d="M217.771 142.762H214.443V146.09H217.771V142.762Z" fill="#1F262E"/>
<path d="M219.653 139.892C220.486 139.892 221.162 139.216 221.162 138.382C221.162 137.548 220.486 136.873 219.653 136.873C218.819 136.873 218.143 137.548 218.143 138.382C218.143 139.216 218.819 139.892 219.653 139.892Z" fill="#1F262E"/>
<path d="M212.202 152.043C213.036 152.043 213.712 151.367 213.712 150.533C213.712 149.699 213.036 149.024 212.202 149.024C211.368 149.024 210.692 149.699 210.692 150.533C210.692 151.367 211.368 152.043 212.202 152.043Z" fill="#1F262E"/>
<path d="M227.115 152.026C227.949 152.026 228.625 151.35 228.625 150.516C228.625 149.682 227.949 149.006 227.115 149.006C226.281 149.006 225.605 149.682 225.605 150.516C225.605 151.35 226.281 152.026 227.115 152.026Z" fill="#1F262E"/>
<path d="M753.878 545.255L753.878 489.926C753.878 484.057 749.121 479.3 743.252 479.3L528.487 479.3C522.618 479.3 517.861 484.057 517.861 489.926L517.861 545.255C517.861 551.124 522.618 555.882 528.487 555.882L743.252 555.882C749.121 555.882 753.878 551.124 753.878 545.255Z" fill="#262E38"/>
<path d="M717.858 496.321H712.295C703.087 496.321 695.616 503.786 695.616 513V521.251C695.616 521.476 695.622 521.702 695.633 521.927C695.99 530.827 703.312 537.93 712.295 537.93H717.858C726.84 537.93 734.163 530.827 734.52 521.927C734.531 521.702 734.536 521.476 734.536 521.251V513C734.536 503.786 727.066 496.321 717.852 496.321H717.858Z" stroke="black" stroke-width="1.2" stroke-miterlimit="10"/>
<path d="M638.033 496.321H632.47C623.262 496.321 615.792 503.786 615.792 513V521.251C615.792 521.476 615.797 521.702 615.808 521.927C616.165 530.827 623.488 537.93 632.47 537.93H638.033C647.016 537.93 654.338 530.827 654.695 521.927C654.706 521.702 654.712 521.476 654.712 521.251V513C654.712 503.786 647.241 496.321 638.028 496.321H638.033Z" stroke="black" stroke-width="1.2" stroke-miterlimit="10"/>
<path d="M558.709 496.321H553.145C543.938 496.321 536.467 503.786 536.467 513V521.251C536.467 521.476 536.472 521.702 536.483 521.927C536.841 530.827 544.163 537.93 553.145 537.93H558.709C567.691 537.93 575.013 530.827 575.371 521.927C575.382 521.702 575.387 521.476 575.387 521.251V513C575.387 503.786 567.916 496.321 558.703 496.321H558.709Z" stroke="black" stroke-width="1.2" stroke-miterlimit="10"/>
<path d="M684.712 517.148L664.56 517.148" stroke="white" stroke-width="2" stroke-miterlimit="10"/>
<path d="M605.025 517.148L585.477 517.148" stroke="white" stroke-width="2" stroke-miterlimit="10"/>
<path d="M696.267 547.235L733.209 547.235C739.515 547.235 744.626 542.123 744.626 535.817L744.626 498.876C744.626 492.57 739.515 487.458 733.209 487.458L696.267 487.458C689.962 487.458 684.85 492.57 684.85 498.876L684.85 535.817C684.85 542.123 689.962 547.235 696.267 547.235Z" fill="#1E2022"/>
<path d="M616.443 547.235L653.384 547.235C659.69 547.235 664.802 542.123 664.802 535.817L664.802 498.876C664.802 492.57 659.69 487.458 653.384 487.458L616.443 487.458C610.137 487.458 605.025 492.57 605.025 498.876L605.025 535.817C605.025 542.123 610.137 547.235 616.443 547.235Z" fill="#1E2022"/>
<path d="M537.117 547.235L574.059 547.235C580.365 547.235 585.477 542.123 585.477 535.817L585.477 498.876C585.477 492.57 580.365 487.458 574.059 487.458L537.117 487.458C530.812 487.458 525.7 492.57 525.7 498.876L525.7 535.817C525.7 542.123 530.812 547.235 537.117 547.235Z" fill="#1E2022"/>
<path d="M741.328 535.822L741.328 498.881C741.328 494.396 737.693 490.761 733.209 490.761L696.267 490.761C691.783 490.761 688.148 494.396 688.148 498.881L688.148 535.822C688.148 540.306 691.783 543.941 696.267 543.941L733.209 543.941C737.693 543.941 741.328 540.306 741.328 535.822Z" fill="#1E2022"/>
<path d="M661.503 535.822L661.503 498.881C661.503 494.396 657.868 490.761 653.384 490.761L616.442 490.761C611.958 490.761 608.323 494.396 608.323 498.881L608.323 535.822C608.323 540.306 611.958 543.941 616.442 543.941L653.384 543.941C657.868 543.941 661.503 540.306 661.503 535.822Z" fill="#1E2022"/>
<path d="M582.178 535.822L582.178 498.881C582.178 494.396 578.543 490.761 574.059 490.761L537.118 490.761C532.633 490.761 528.998 494.396 528.998 498.881L528.998 535.822C528.998 540.306 532.633 543.941 537.117 543.941L574.059 543.941C578.543 543.941 582.178 540.306 582.178 535.822Z" fill="#1E2022"/>
<path d="M717.858 496.321H712.295C703.087 496.321 695.616 503.786 695.616 513V521.251C695.616 521.476 695.622 521.702 695.633 521.927C695.99 530.827 703.312 537.93 712.295 537.93H717.858C726.84 537.93 734.163 530.827 734.52 521.927C734.531 521.702 734.536 521.476 734.536 521.251V513C734.536 503.786 727.066 496.321 717.852 496.321H717.858Z" fill="#536375" stroke="url(#paint0_linear_4782_647)" stroke-width="1.2" stroke-miterlimit="10"/>
<path d="M638.033 496.321H632.47C623.262 496.321 615.792 503.786 615.792 513V521.251C615.792 521.476 615.797 521.702 615.808 521.927C616.165 530.827 623.488 537.93 632.47 537.93H638.033C647.016 537.93 654.338 530.827 654.695 521.927C654.706 521.702 654.712 521.476 654.712 521.251V513C654.712 503.786 647.241 496.321 638.028 496.321H638.033Z" fill="#536375" stroke="url(#paint1_linear_4782_647)" stroke-width="1.2" stroke-miterlimit="10"/>
<path d="M558.709 496.321H553.145C543.938 496.321 536.467 503.786 536.467 513V521.251C536.467 521.476 536.472 521.702 536.483 521.927C536.841 530.827 544.163 537.93 553.145 537.93H558.709C567.691 537.93 575.013 530.827 575.371 521.927C575.382 521.702 575.387 521.476 575.387 521.251V513C575.387 503.786 567.916 496.321 558.703 496.321H558.709Z" fill="#536375" stroke="url(#paint2_linear_4782_647)" stroke-width="1.2" stroke-miterlimit="10"/>
<path d="M718.194 499.185L712.191 499.185C704.683 499.185 698.597 505.272 698.597 512.78V513.725C698.597 521.233 704.683 527.32 712.191 527.32H718.194C725.702 527.32 731.789 521.233 731.789 513.725V512.78C731.789 505.272 725.702 499.185 718.194 499.185Z" fill="#101418"/>
<path d="M638.369 499.185L632.366 499.185C624.858 499.185 618.771 505.272 618.771 512.78V513.725C618.771 521.233 624.858 527.32 632.366 527.32H638.369C645.877 527.32 651.964 521.233 651.964 513.725V512.78C651.964 505.272 645.877 499.185 638.369 499.185Z" fill="#101418"/>
<path d="M559.044 499.185L553.041 499.185C545.533 499.185 539.447 505.272 539.447 512.78V513.725C539.447 521.234 545.533 527.32 553.041 527.32H559.044C566.552 527.32 572.639 521.234 572.639 513.725V512.78C572.639 505.272 566.552 499.185 559.044 499.185Z" fill="#101418"/>
<path d="M709.145 512.884H705.787V509.525H709.145V512.884ZM705.781 512.884H702.422V516.243H705.781V512.884ZM712.504 512.884H709.145V516.243H712.504V512.884ZM724.56 509.525H721.201V512.884H724.56V509.525ZM721.201 512.884H717.842V516.243H721.201V512.884ZM727.924 512.884H724.565V516.243H727.924V512.884Z" fill="white"/>
<path d="M629.321 512.884H625.962V509.526H629.321V512.884ZM625.956 512.884H622.598V516.243H625.956V512.884ZM632.68 512.884H629.321V516.243H632.68V512.884ZM644.735 509.526H641.376V512.884H644.735V509.526ZM641.376 512.884H638.017V516.243H641.376V512.884ZM648.099 512.884H644.74V516.243H648.099V512.884Z" fill="white"/>
<path d="M549.996 512.884H546.637V509.526H549.996V512.884ZM546.632 512.884H543.273V516.243H546.632V512.884ZM553.355 512.884H549.996V516.243H553.355V512.884ZM565.41 509.526H562.051V512.884H565.41V509.526ZM562.051 512.884H558.693V516.243H562.051V512.884ZM568.775 512.884H565.416V516.243H568.775V512.884Z" fill="white"/>
<path d="M292.816 175.442C292.816 179.224 289.743 182.297 285.961 182.297L282.74 182.297L282.74 168.581L285.961 168.581C289.743 168.581 292.816 171.654 292.816 175.436L292.816 175.442Z" fill="white"/>
<path d="M285.868 172.748L288.479 175.359L285.868 177.971" fill="white"/>
<path d="M285.868 172.748L288.479 175.359L285.868 177.971" stroke="#101418" stroke-width="1.2" stroke-miterlimit="10"/>
<path d="M290.884 175.654H337.408" stroke="white" stroke-width="2"/>
<path d="M635.872 469.014C639.654 469.014 642.727 472.087 642.727 475.869L642.727 479.091L629.012 479.091L629.012 475.869C629.012 472.087 632.085 469.014 635.867 469.014L635.872 469.014Z" fill="white"/>
<path d="M633.179 473.351L635.79 475.963L638.402 473.351" fill="white"/>
<path d="M633.179 473.351L635.79 475.963L638.402 473.351" stroke="#101418" stroke-width="1.2" stroke-miterlimit="10"/>
<path d="M635.87 470.966L635.87 436.521" stroke="white" stroke-width="2"/>
<path d="M292.816 355.139C292.816 358.921 289.743 361.994 285.961 361.994L282.74 361.994L282.74 348.279L285.961 348.279C289.743 348.279 292.816 351.352 292.816 355.134L292.816 355.139Z" fill="white"/>
<path d="M288.479 352.446L285.868 355.057L288.479 357.668" fill="white"/>
<path d="M288.479 352.446L285.868 355.057L288.479 357.668" stroke="#101418" stroke-width="1.2" stroke-miterlimit="10"/>
<path d="M290.884 355.351H363.059" stroke="white" stroke-width="2"/>
<path d="M336.33 175.436C336.33 171.654 339.403 168.581 343.185 168.581L346.406 168.581L346.406 182.297L343.185 182.297C339.403 182.297 336.33 179.224 336.33 175.441L336.33 175.436Z" fill="white"/>
<path d="M340.667 178.13L343.278 175.518L340.667 172.907" fill="white"/>
<path d="M340.667 178.13L343.278 175.518L340.667 172.907" stroke="#101418" stroke-width="1.2" stroke-miterlimit="10"/>
<path d="M635.652 437.599C631.87 437.599 628.797 434.526 628.797 430.744L628.797 427.522L642.513 427.522L642.513 430.744C642.513 434.526 639.44 437.599 635.658 437.599L635.652 437.599Z" fill="white"/>
<path d="M638.346 433.262L635.735 430.65L633.123 433.262" fill="white"/>
<path d="M638.346 433.262L635.735 430.65L633.123 433.262" stroke="#101418" stroke-width="1.2" stroke-miterlimit="10"/>
<path d="M533.257 152.952C533.257 156.735 530.184 159.807 526.402 159.807L523.18 159.807L523.18 146.092L526.402 146.092C530.184 146.092 533.257 149.165 533.257 152.947L533.257 152.952Z" fill="white"/>
<path d="M528.92 150.259L526.309 152.87L528.92 155.481" fill="white"/>
<path d="M528.92 150.259L526.309 152.87L528.92 155.481" stroke="#101418" stroke-width="1.2" stroke-miterlimit="10"/>
<path d="M533.257 190.76C533.257 194.542 530.184 197.615 526.402 197.615L523.18 197.615L523.18 183.899L526.402 183.899C530.184 183.899 533.257 186.972 533.257 190.754L533.257 190.76Z" fill="#556578"/>
<path d="M528.92 188.066L526.309 190.677L528.92 193.289" fill="#556578"/>
<path d="M528.92 188.066L526.309 190.677L528.92 193.289" stroke="white" stroke-width="1.2" stroke-miterlimit="10"/>
<path d="M634.402 269.349C638.184 269.349 641.257 272.422 641.257 276.204L641.257 279.425L627.542 279.425L627.542 276.204C627.542 272.422 630.614 269.349 634.397 269.349L634.402 269.349Z" fill="#556578"/>
<path d="M631.708 273.686L634.32 276.297L636.931 273.686" fill="#556578"/>
<path d="M631.708 273.686L634.32 276.297L636.931 273.686" stroke="white" stroke-width="1.2" stroke-miterlimit="10"/>
<path d="M763.955 517.128C763.955 520.91 760.882 523.983 757.1 523.983L753.878 523.983L753.878 510.268L757.1 510.268C760.882 510.268 763.955 513.341 763.955 517.123L763.955 517.128Z" fill="white"/>
<path d="M759.618 514.435L757.006 517.046L759.618 519.657" fill="white"/>
<path d="M759.618 514.435L757.006 517.046L759.618 519.657" stroke="#101418" stroke-width="1.2" stroke-miterlimit="10"/>
<path d="M361.843 355.133C361.843 351.351 364.916 348.278 368.698 348.278L371.92 348.278L371.92 361.994L368.698 361.994C364.916 361.994 361.843 358.921 361.843 355.139L361.843 355.133Z" fill="white"/>
<path d="M366.18 357.827L368.792 355.216L366.18 352.605" fill="white"/>
<path d="M366.18 357.827L368.792 355.216L366.18 352.605" stroke="#101418" stroke-width="1.2" stroke-miterlimit="10"/>
<path d="M509.063 355.139C509.063 358.921 505.991 361.994 502.208 361.994L498.987 361.994L498.987 348.279L502.208 348.279C505.991 348.279 509.063 351.352 509.063 355.134L509.063 355.139Z" fill="white"/>
<path d="M504.726 352.446L502.115 355.057L504.726 357.668" fill="white"/>
<path d="M504.726 352.446L502.115 355.057L504.726 357.668" stroke="#101418" stroke-width="1.2" stroke-miterlimit="10"/>
<path d="M432.704 254.429C428.922 254.429 425.849 251.356 425.849 247.574V244.352H439.565V247.574C439.565 251.356 436.492 254.429 432.71 254.429H432.704Z" fill="white"/>
<path d="M435.398 250.091L432.787 247.48L430.176 250.091" fill="white"/>
<path d="M435.398 250.091L432.787 247.48L430.176 250.091" stroke="#101418" stroke-width="1.2" stroke-miterlimit="10"/>
<path d="M292.16 355.573H322.268C327.791 355.573 332.268 351.096 332.268 345.573V293.4C332.268 287.877 336.745 283.4 342.268 283.4H422.707C428.23 283.4 432.707 278.923 432.707 273.4V253.996" stroke="white" stroke-width="2"/>
<path d="M531.911 190.784H624.448C629.971 190.784 634.448 195.261 634.448 200.784V269.484" stroke="#556578" stroke-width="2" stroke-linejoin="round" stroke-dasharray="3 6"/>
<path d="M533.5 152.95H809.497C815.02 152.95 819.497 157.427 819.497 162.95V507.148C819.497 512.671 815.02 517.148 809.497 517.148H763.675" stroke="white" stroke-width="2" stroke-linecap="round" stroke-linejoin="round"/>
<path d="M507.046 355.507H562.583" stroke="white" stroke-width="2" stroke-linecap="round" stroke-linejoin="round"/>
<path fill-rule="evenodd" clip-rule="evenodd" d="M564.567 352.446C562.929 352.446 561.602 353.774 561.602 355.411C561.602 357.049 562.929 358.377 564.567 358.377V352.446Z" fill="white"/>
<path d="M878.385 413.83H873.944C872.482 413.83 871.297 415.015 871.297 416.477V420.918C871.297 422.38 872.482 423.565 873.944 423.565H878.385C879.847 423.565 881.032 422.38 881.032 420.918V416.477C881.032 415.015 879.847 413.83 878.385 413.83Z" fill="#2D3642"/>
<path d="M682.203 102.972H677.762C676.3 102.972 675.115 104.157 675.115 105.619V110.06C675.115 111.522 676.3 112.707 677.762 112.707H682.203C683.665 112.707 684.85 111.522 684.85 110.06V105.619C684.85 104.157 683.665 102.972 682.203 102.972Z" fill="#2D3642"/>
<path d="M297.972 471.095H293.531C292.069 471.095 290.884 472.28 290.884 473.742V478.183C290.884 479.645 292.069 480.83 293.531 480.83H297.972C299.434 480.83 300.619 479.645 300.619 478.183V473.742C300.619 472.28 299.434 471.095 297.972 471.095Z" fill="#2D3642"/>
<path d="M311.499 482.59H307.058C305.596 482.59 304.411 483.775 304.411 485.237V489.678C304.411 491.14 305.596 492.325 307.058 492.325H311.499C312.961 492.325 314.146 491.14 314.146 489.678V485.237C314.146 483.775 312.961 482.59 311.499 482.59Z" fill="#2D3642"/>
<path d="M763.047 330.2L779.176 330.2C780.478 330.2 781.534 329.144 781.534 327.842C781.534 326.54 780.478 325.484 779.176 325.484L763.047 325.484C761.745 325.484 760.689 326.54 760.689 327.842C760.689 329.144 761.745 330.2 763.047 330.2Z" fill="#5F38FB"/>
<path d="M111.064 291.246L111.064 275.117C111.064 273.815 110.009 272.759 108.706 272.759C107.404 272.759 106.348 273.815 106.348 275.117L106.348 291.246C106.348 292.548 107.404 293.604 108.706 293.604C110.009 293.604 111.064 292.548 111.064 291.246Z" fill="#5F38FB"/>
<path d="M377.668 539.17L393.797 539.17C395.1 539.17 396.155 538.114 396.155 536.812C396.155 535.51 395.1 534.454 393.797 534.454L377.668 534.454C376.366 534.454 375.31 535.51 375.31 536.812C375.31 538.114 376.366 539.17 377.668 539.17Z" fill="#5F38FB"/>
<defs>
<linearGradient id="paint0_linear_4782_647" x1="737.902" y1="496.321" x2="700.028" y2="536.293" gradientUnits="userSpaceOnUse">
<stop offset="0.399916" stop-color="#8A9FB8"/>
<stop offset="0.756539" stop-color="#536375"/>
</linearGradient>
<linearGradient id="paint1_linear_4782_647" x1="658.077" y1="496.321" x2="620.204" y2="536.293" gradientUnits="userSpaceOnUse">
<stop offset="0.399916" stop-color="#8A9FB8"/>
<stop offset="0.756539" stop-color="#536375"/>
</linearGradient>
<linearGradient id="paint2_linear_4782_647" x1="578.752" y1="496.321" x2="540.879" y2="536.293" gradientUnits="userSpaceOnUse">
<stop offset="0.399916" stop-color="#8A9FB8"/>
<stop offset="0.756539" stop-color="#536375"/>
</linearGradient>
</defs>
</svg>
