<svg xmlns="http://www.w3.org/2000/svg" width="32" height="32" viewBox="0 0 32 32" fill="none">
  <path d="M15.9997 0C13.8012 0 12.019 1.7822 12.019 3.98068V28.0193C12.019 30.2178 13.8012 32 15.9997 32C18.1982 32 19.9804 30.2178 19.9804 28.0193V3.98068C19.9804 1.7822 18.1982 0 15.9997 0Z" fill="#BFAFFD"/>
  <path d="M0 16.0003C0 18.1987 1.7822 19.9809 3.98068 19.9809H15.9939H16.0061H28.0193C30.2178 19.9809 32 18.1987 32 16.0003C32 13.8018 30.2178 12.0195 28.0193 12.0195H16.0061H15.9939H3.98068C1.7822 12.0195 0 13.8018 0 16.0003Z" fill="#BFAFFD"/>
  <path d="M23.4994 3.98083H8.597C6.05087 3.98083 3.98682 6.04488 3.98682 8.591V23.397C3.98682 25.9431 6.05087 28.0072 8.597 28.0072H23.4994C26.0455 28.0072 28.1096 25.9431 28.1096 23.397V8.591C28.1096 6.04488 26.0455 3.98083 23.4994 3.98083Z" fill="#5F38FB"/>
  <g filter="url(#filter0_b_3743_10733)">
    <path d="M10.8477 10.1662L6.67534 20.7102C6.27221 21.729 7.02297 22.8334 8.11859 22.8334C8.76664 22.8334 9.34649 22.4308 9.5729 21.8236L10.196 20.1526H15.3218L15.9426 21.8222C16.1686 22.4301 16.7488 22.8334 17.3974 22.8334H17.4825C18.5765 22.8334 19.3271 21.732 18.9272 20.7138L14.7858 10.1711C14.4676 9.36106 13.686 8.82837 12.8157 8.82837C11.9474 8.82837 11.1672 9.35873 10.8477 10.1662ZM11.1509 17.5915L11.8373 15.7508C11.944 15.4178 12.0574 15.0942 12.1773 14.7806C12.2974 14.4674 12.4075 14.1538 12.5076 13.8402C12.5966 13.5611 12.6858 13.2779 12.775 12.9931C12.8605 13.2716 12.9472 13.5523 13.0374 13.8402C13.1447 14.1802 13.2511 14.5105 13.3576 14.8307C13.4641 15.1509 13.5713 15.4509 13.6778 15.731L14.3696 17.5915H11.1509Z" fill="#F3F5F8"/>
    <path d="M25.1585 10.529C25.1585 9.58975 24.3972 8.82837 23.4579 8.82837C22.5187 8.82837 21.7573 9.58975 21.7573 10.529V21.1328C21.7573 22.072 22.5187 22.8334 23.4579 22.8334C24.3972 22.8334 25.1585 22.072 25.1585 21.1328V10.529Z" fill="#F3F5F8"/>
  </g>
  <defs>
    <filter id="filter0_b_3743_10733" x="4.77931" y="7.04274" width="22.165" height="17.5763" filterUnits="userSpaceOnUse" color-interpolation-filters="sRGB">
      <feFlood flood-opacity="0" result="BackgroundImageFix"/>
      <feGaussianBlur in="BackgroundImageFix" stdDeviation="0.892817"/>
      <feComposite in2="SourceAlpha" operator="in" result="effect1_backgroundBlur_3743_10733"/>
      <feBlend mode="normal" in="SourceGraphic" in2="effect1_backgroundBlur_3743_10733" result="shape"/>
    </filter>
  </defs>
</svg>