<svg width="54" height="55" viewBox="0 0 54 55" fill="none" xmlns="http://www.w3.org/2000/svg">
<rect y="0.529297" width="54" height="54" rx="8" fill="#F3F5F8"/>
<path d="M23.5469 41.6133H41.0576V17.0638L23.5469 17.0638L23.5469 41.6133Z" fill="#B9C5D4"/>
<path d="M16.4512 37.9941H33.9619V13.4447L16.4512 13.4447L16.4512 37.9941Z" fill="#DCE2EA"/>
<g filter="url(#filter0_b_3542_1384)">
<path fill-rule="evenodd" clip-rule="evenodd" d="M12.9424 18.7161C12.9424 17.7462 13.7286 16.96 14.6985 16.96H18.2969C19.2667 16.96 20.0529 17.7462 20.0529 18.7161C20.0529 19.6859 19.2667 20.4722 18.2969 20.4722H14.6985C13.7286 20.4722 12.9424 19.6859 12.9424 18.7161Z" fill="url(#paint0_linear_3542_1384)"/>
<path d="M13.1375 18.7161C13.1375 17.854 13.8364 17.1551 14.6985 17.1551H18.2969C19.159 17.1551 19.8578 17.854 19.8578 18.7161C19.8578 19.5782 19.159 20.277 18.2969 20.277H14.6985C13.8364 20.277 13.1375 19.5782 13.1375 18.7161Z" stroke="url(#paint1_linear_3542_1384)" stroke-width="0.390244"/>
</g>
<g filter="url(#filter1_b_3542_1384)">
<path fill-rule="evenodd" clip-rule="evenodd" d="M12.9424 25.3743C12.9424 24.4044 13.7286 23.6182 14.6985 23.6182H18.2969C19.2667 23.6182 20.0529 24.4044 20.0529 25.3743C20.0529 26.3441 19.2667 27.1304 18.2969 27.1304H14.6985C13.7286 27.1304 12.9424 26.3441 12.9424 25.3743Z" fill="url(#paint2_linear_3542_1384)"/>
<path d="M13.1375 25.3743C13.1375 24.5122 13.8364 23.8133 14.6985 23.8133H18.2969C19.159 23.8133 19.8578 24.5122 19.8578 25.3743C19.8578 26.2364 19.159 26.9352 18.2969 26.9352H14.6985C13.8364 26.9352 13.1375 26.2364 13.1375 25.3743Z" stroke="url(#paint3_linear_3542_1384)" stroke-width="0.390244"/>
</g>
<g filter="url(#filter2_b_3542_1384)">
<path fill-rule="evenodd" clip-rule="evenodd" d="M12.9424 32.0325C12.9424 31.0626 13.7286 30.2764 14.6985 30.2764H18.2969C19.2667 30.2764 20.0529 31.0626 20.0529 32.0325C20.0529 33.0023 19.2667 33.7886 18.2969 33.7886H14.6985C13.7286 33.7886 12.9424 33.0023 12.9424 32.0325Z" fill="url(#paint4_linear_3542_1384)"/>
<path d="M13.1375 32.0325C13.1375 31.1704 13.8364 30.4715 14.6985 30.4715H18.2969C19.159 30.4715 19.8578 31.1704 19.8578 32.0325C19.8578 32.8946 19.159 33.5934 18.2969 33.5934H14.6985C13.8364 33.5934 13.1375 32.8946 13.1375 32.0325Z" stroke="url(#paint5_linear_3542_1384)" stroke-width="0.390244"/>
</g>
<defs>
<filter id="filter0_b_3542_1384" x="11.3814" y="15.399" width="10.2323" height="6.63367" filterUnits="userSpaceOnUse" color-interpolation-filters="sRGB">
<feFlood flood-opacity="0" result="BackgroundImageFix"/>
<feGaussianBlur in="BackgroundImageFix" stdDeviation="0.780488"/>
<feComposite in2="SourceAlpha" operator="in" result="effect1_backgroundBlur_3542_1384"/>
<feBlend mode="normal" in="SourceGraphic" in2="effect1_backgroundBlur_3542_1384" result="shape"/>
</filter>
<filter id="filter1_b_3542_1384" x="11.3814" y="22.0572" width="10.2323" height="6.63367" filterUnits="userSpaceOnUse" color-interpolation-filters="sRGB">
<feFlood flood-opacity="0" result="BackgroundImageFix"/>
<feGaussianBlur in="BackgroundImageFix" stdDeviation="0.780488"/>
<feComposite in2="SourceAlpha" operator="in" result="effect1_backgroundBlur_3542_1384"/>
<feBlend mode="normal" in="SourceGraphic" in2="effect1_backgroundBlur_3542_1384" result="shape"/>
</filter>
<filter id="filter2_b_3542_1384" x="11.3814" y="28.7154" width="10.2323" height="6.63367" filterUnits="userSpaceOnUse" color-interpolation-filters="sRGB">
<feFlood flood-opacity="0" result="BackgroundImageFix"/>
<feGaussianBlur in="BackgroundImageFix" stdDeviation="0.780488"/>
<feComposite in2="SourceAlpha" operator="in" result="effect1_backgroundBlur_3542_1384"/>
<feBlend mode="normal" in="SourceGraphic" in2="effect1_backgroundBlur_3542_1384" result="shape"/>
</filter>
<linearGradient id="paint0_linear_3542_1384" x1="17.9373" y1="23.0846" x2="16.9465" y2="14.9545" gradientUnits="userSpaceOnUse">
<stop offset="0.0822725" stop-color="#8566FF" stop-opacity="0.3"/>
<stop offset="0.423605" stop-color="#5F38FB" stop-opacity="0.5"/>
<stop offset="0.762303" stop-color="#5F38FB" stop-opacity="0.7"/>
</linearGradient>
<linearGradient id="paint1_linear_3542_1384" x1="16.4977" y1="24.6521" x2="16.2706" y2="14.207" gradientUnits="userSpaceOnUse">
<stop offset="0.137498" stop-color="#AF9BFD"/>
<stop offset="0.410212" stop-color="#5F38FB" stop-opacity="0"/>
<stop offset="0.835001" stop-color="#5F38FB"/>
</linearGradient>
<linearGradient id="paint2_linear_3542_1384" x1="17.9373" y1="29.7428" x2="16.9465" y2="21.6127" gradientUnits="userSpaceOnUse">
<stop offset="0.0822725" stop-color="#8566FF" stop-opacity="0.3"/>
<stop offset="0.423605" stop-color="#5F38FB" stop-opacity="0.5"/>
<stop offset="0.762303" stop-color="#5F38FB" stop-opacity="0.7"/>
</linearGradient>
<linearGradient id="paint3_linear_3542_1384" x1="16.4977" y1="31.3103" x2="16.2706" y2="20.8652" gradientUnits="userSpaceOnUse">
<stop offset="0.137498" stop-color="#AF9BFD"/>
<stop offset="0.410212" stop-color="#5F38FB" stop-opacity="0"/>
<stop offset="0.835001" stop-color="#5F38FB"/>
</linearGradient>
<linearGradient id="paint4_linear_3542_1384" x1="17.9373" y1="36.401" x2="16.9465" y2="28.2709" gradientUnits="userSpaceOnUse">
<stop offset="0.0822725" stop-color="#8566FF" stop-opacity="0.3"/>
<stop offset="0.423605" stop-color="#5F38FB" stop-opacity="0.5"/>
<stop offset="0.762303" stop-color="#5F38FB" stop-opacity="0.7"/>
</linearGradient>
<linearGradient id="paint5_linear_3542_1384" x1="16.4977" y1="37.9686" x2="16.2706" y2="27.5234" gradientUnits="userSpaceOnUse">
<stop offset="0.137498" stop-color="#AF9BFD"/>
<stop offset="0.410212" stop-color="#5F38FB" stop-opacity="0"/>
<stop offset="0.835001" stop-color="#5F38FB"/>
</linearGradient>
</defs>
</svg>
