<svg xmlns="http://www.w3.org/2000/svg" width="32" height="32" viewBox="0 0 32 32" fill="none">
  <path d="M12.5469 30.0847L30.0576 30.0847L30.0576 5.53526L12.5469 5.53526L12.5469 30.0847Z" fill="#B9C5D4"/>
  <path d="M5.45122 26.4648L22.9619 26.4648L22.9619 1.91539L5.45122 1.91539L5.45122 26.4648Z" fill="#DCE2EA"/>
  <g filter="url(#filter0_b_3743_5972)">
    <path fill-rule="evenodd" clip-rule="evenodd" d="M1.94238 7.18725C1.94238 6.21738 2.72861 5.43115 3.69848 5.43115H7.29685C8.26672 5.43115 9.05295 6.21738 9.05295 7.18725C9.05295 8.15712 8.26672 8.94335 7.29685 8.94335H3.69848C2.72861 8.94335 1.94238 8.15712 1.94238 7.18725Z" fill="#5F38FB"/>
  </g>
  <g filter="url(#filter1_b_3743_5972)">
    <path fill-rule="evenodd" clip-rule="evenodd" d="M1.94238 13.8452C1.94238 12.8753 2.72861 12.0891 3.69848 12.0891H7.29685C8.26672 12.0891 9.05295 12.8753 9.05295 13.8452C9.05295 14.8151 8.26672 15.6013 7.29685 15.6013H3.69848C2.72861 15.6013 1.94238 14.8151 1.94238 13.8452Z" fill="#5F38FB"/>
  </g>
  <g filter="url(#filter2_b_3743_5972)">
    <path fill-rule="evenodd" clip-rule="evenodd" d="M1.94238 20.5034C1.94238 19.5335 2.72861 18.7473 3.69848 18.7473H7.29685C8.26672 18.7473 9.05295 19.5335 9.05295 20.5034C9.05295 21.4733 8.26672 22.2595 7.29685 22.2595H3.69848C2.72861 22.2595 1.94238 21.4733 1.94238 20.5034Z" fill="#5F38FB"/>
  </g>
  <defs>
    <filter id="filter0_b_3743_5972" x="0.381407" y="3.87018" width="10.2323" height="6.63416" filterUnits="userSpaceOnUse" color-interpolation-filters="sRGB">
      <feFlood flood-opacity="0" result="BackgroundImageFix"/>
      <feGaussianBlur in="BackgroundImageFix" stdDeviation="0.780488"/>
      <feComposite in2="SourceAlpha" operator="in" result="effect1_backgroundBlur_3743_5972"/>
      <feBlend mode="normal" in="SourceGraphic" in2="effect1_backgroundBlur_3743_5972" result="shape"/>
    </filter>
    <filter id="filter1_b_3743_5972" x="0.381407" y="10.5281" width="10.2323" height="6.63416" filterUnits="userSpaceOnUse" color-interpolation-filters="sRGB">
      <feFlood flood-opacity="0" result="BackgroundImageFix"/>
      <feGaussianBlur in="BackgroundImageFix" stdDeviation="0.780488"/>
      <feComposite in2="SourceAlpha" operator="in" result="effect1_backgroundBlur_3743_5972"/>
      <feBlend mode="normal" in="SourceGraphic" in2="effect1_backgroundBlur_3743_5972" result="shape"/>
    </filter>
    <filter id="filter2_b_3743_5972" x="0.381407" y="17.1863" width="10.2323" height="6.63416" filterUnits="userSpaceOnUse" color-interpolation-filters="sRGB">
      <feFlood flood-opacity="0" result="BackgroundImageFix"/>
      <feGaussianBlur in="BackgroundImageFix" stdDeviation="0.780488"/>
      <feComposite in2="SourceAlpha" operator="in" result="effect1_backgroundBlur_3743_5972"/>
      <feBlend mode="normal" in="SourceGraphic" in2="effect1_backgroundBlur_3743_5972" result="shape"/>
    </filter>
  </defs>
</svg>