<svg xmlns="http://www.w3.org/2000/svg" width="32" height="32" viewBox="0 0 32 32" fill="none">
  <path d="M12.5469 30.0847L30.0576 30.0847L30.0576 5.53526L12.5469 5.53526L12.5469 30.0847Z" fill="#B9C5D4"/>
  <path d="M5.45122 26.4647L22.9619 26.4647L22.9619 1.91527L5.45122 1.91527L5.45122 26.4647Z" fill="#DCE2EA"/>
  <g filter="url(#filter0_b_3575_3858)">
    <path fill-rule="evenodd" clip-rule="evenodd" d="M1.94238 7.18713C1.94238 6.21726 2.72861 5.43103 3.69848 5.43103H7.29685C8.26672 5.43103 9.05295 6.21726 9.05295 7.18713C9.05295 8.15699 8.26672 8.94323 7.29685 8.94323H3.69848C2.72861 8.94323 1.94238 8.15699 1.94238 7.18713Z" fill="url(#paint0_linear_3575_3858)"/>
    <path d="M2.1375 7.18713C2.1375 6.32502 2.83638 5.62615 3.69848 5.62615H7.29685C8.15895 5.62615 8.85783 6.32502 8.85783 7.18713C8.85783 8.04923 8.15895 8.7481 7.29685 8.7481H3.69848C2.83638 8.7481 2.1375 8.04923 2.1375 7.18713Z" stroke="url(#paint1_linear_3575_3858)" stroke-width="0.390244"/>
  </g>
  <g filter="url(#filter1_b_3575_3858)">
    <path fill-rule="evenodd" clip-rule="evenodd" d="M1.94238 13.8452C1.94238 12.8753 2.72861 12.0891 3.69848 12.0891H7.29685C8.26672 12.0891 9.05295 12.8753 9.05295 13.8452C9.05295 14.8151 8.26672 15.6013 7.29685 15.6013H3.69848C2.72861 15.6013 1.94238 14.8151 1.94238 13.8452Z" fill="url(#paint2_linear_3575_3858)"/>
    <path d="M2.1375 13.8452C2.1375 12.9831 2.83638 12.2842 3.69848 12.2842H7.29685C8.15895 12.2842 8.85783 12.9831 8.85783 13.8452C8.85783 14.7073 8.15895 15.4062 7.29685 15.4062H3.69848C2.83638 15.4062 2.1375 14.7073 2.1375 13.8452Z" stroke="url(#paint3_linear_3575_3858)" stroke-width="0.390244"/>
  </g>
  <g filter="url(#filter2_b_3575_3858)">
    <path fill-rule="evenodd" clip-rule="evenodd" d="M1.94238 20.5033C1.94238 19.5334 2.72861 18.7472 3.69848 18.7472H7.29685C8.26672 18.7472 9.05295 19.5334 9.05295 20.5033C9.05295 21.4732 8.26672 22.2594 7.29685 22.2594H3.69848C2.72861 22.2594 1.94238 21.4732 1.94238 20.5033Z" fill="url(#paint4_linear_3575_3858)"/>
    <path d="M2.1375 20.5033C2.1375 19.6412 2.83638 18.9423 3.69848 18.9423H7.29685C8.15895 18.9423 8.85783 19.6412 8.85783 20.5033C8.85783 21.3654 8.15895 22.0643 7.29685 22.0643H3.69848C2.83638 22.0643 2.1375 21.3654 2.1375 20.5033Z" stroke="url(#paint5_linear_3575_3858)" stroke-width="0.390244"/>
  </g>
  <defs>
    <filter id="filter0_b_3575_3858" x="0.381407" y="3.87005" width="10.2323" height="6.63416" filterUnits="userSpaceOnUse" color-interpolation-filters="sRGB">
      <feFlood flood-opacity="0" result="BackgroundImageFix"/>
      <feGaussianBlur in="BackgroundImageFix" stdDeviation="0.780488"/>
      <feComposite in2="SourceAlpha" operator="in" result="effect1_backgroundBlur_3575_3858"/>
      <feBlend mode="normal" in="SourceGraphic" in2="effect1_backgroundBlur_3575_3858" result="shape"/>
    </filter>
    <filter id="filter1_b_3575_3858" x="0.381407" y="10.5281" width="10.2323" height="6.63416" filterUnits="userSpaceOnUse" color-interpolation-filters="sRGB">
      <feFlood flood-opacity="0" result="BackgroundImageFix"/>
      <feGaussianBlur in="BackgroundImageFix" stdDeviation="0.780488"/>
      <feComposite in2="SourceAlpha" operator="in" result="effect1_backgroundBlur_3575_3858"/>
      <feBlend mode="normal" in="SourceGraphic" in2="effect1_backgroundBlur_3575_3858" result="shape"/>
    </filter>
    <filter id="filter2_b_3575_3858" x="0.381407" y="17.1862" width="10.2323" height="6.63416" filterUnits="userSpaceOnUse" color-interpolation-filters="sRGB">
      <feFlood flood-opacity="0" result="BackgroundImageFix"/>
      <feGaussianBlur in="BackgroundImageFix" stdDeviation="0.780488"/>
      <feComposite in2="SourceAlpha" operator="in" result="effect1_backgroundBlur_3575_3858"/>
      <feBlend mode="normal" in="SourceGraphic" in2="effect1_backgroundBlur_3575_3858" result="shape"/>
    </filter>
    <linearGradient id="paint0_linear_3575_3858" x1="6.93727" y1="11.5557" x2="5.94648" y2="3.42552" gradientUnits="userSpaceOnUse">
      <stop offset="0.0822725" stop-color="#8566FF" stop-opacity="0.3"/>
      <stop offset="0.423605" stop-color="#5F38FB" stop-opacity="0.5"/>
      <stop offset="0.762303" stop-color="#5F38FB" stop-opacity="0.7"/>
    </linearGradient>
    <linearGradient id="paint1_linear_3575_3858" x1="5.49767" y1="13.1232" x2="5.27057" y2="2.67807" gradientUnits="userSpaceOnUse">
      <stop offset="0.137498" stop-color="#AF9BFD"/>
      <stop offset="0.410212" stop-color="#5F38FB" stop-opacity="0"/>
      <stop offset="0.835001" stop-color="#5F38FB"/>
    </linearGradient>
    <linearGradient id="paint2_linear_3575_3858" x1="6.93727" y1="18.2138" x2="5.94648" y2="10.0836" gradientUnits="userSpaceOnUse">
      <stop offset="0.0822725" stop-color="#8566FF" stop-opacity="0.3"/>
      <stop offset="0.423605" stop-color="#5F38FB" stop-opacity="0.5"/>
      <stop offset="0.762303" stop-color="#5F38FB" stop-opacity="0.7"/>
    </linearGradient>
    <linearGradient id="paint3_linear_3575_3858" x1="5.49767" y1="19.7813" x2="5.27057" y2="9.33615" gradientUnits="userSpaceOnUse">
      <stop offset="0.137498" stop-color="#AF9BFD"/>
      <stop offset="0.410212" stop-color="#5F38FB" stop-opacity="0"/>
      <stop offset="0.835001" stop-color="#5F38FB"/>
    </linearGradient>
    <linearGradient id="paint4_linear_3575_3858" x1="6.93727" y1="24.8719" x2="5.94648" y2="16.7417" gradientUnits="userSpaceOnUse">
      <stop offset="0.0822725" stop-color="#8566FF" stop-opacity="0.3"/>
      <stop offset="0.423605" stop-color="#5F38FB" stop-opacity="0.5"/>
      <stop offset="0.762303" stop-color="#5F38FB" stop-opacity="0.7"/>
    </linearGradient>
    <linearGradient id="paint5_linear_3575_3858" x1="5.49767" y1="26.4394" x2="5.27057" y2="15.9942" gradientUnits="userSpaceOnUse">
      <stop offset="0.137498" stop-color="#AF9BFD"/>
      <stop offset="0.410212" stop-color="#5F38FB" stop-opacity="0"/>
      <stop offset="0.835001" stop-color="#5F38FB"/>
    </linearGradient>
  </defs>
</svg>