<svg xmlns="http://www.w3.org/2000/svg" width="50" height="55" viewBox="0 0 50 55" fill="none">
  <g filter="url(#filter0_bd_2359_8529)">
    <path d="M12.0493 37H31.9414L31.9414 9.11186L12.0493 9.11186L12.0493 37Z" fill="url(#paint0_linear_2359_8529)" shape-rendering="crispEdges"/>
    <path d="M31.7197 9.33352L31.7197 36.7783H12.2709L12.2709 9.33352L31.7197 9.33352Z" stroke="url(#paint1_linear_2359_8529)" stroke-width="0.443316" shape-rendering="crispEdges"/>
  </g>
  <path d="M3.98288 32.8887H23.875L23.875 5.00053L3.98288 5.00053L3.98288 32.8887Z" fill="#D2F9E2"/>
  <path d="M0.221658 10.9891C0.221658 10.0097 1.01558 9.2158 1.99492 9.2158H6.08267C7.06202 9.2158 7.85593 10.0097 7.85593 10.9891C7.85593 11.9684 7.06202 12.7623 6.08267 12.7623H1.99492C1.01558 12.7623 0.221658 11.9684 0.221658 10.9891Z" fill="url(#paint2_linear_2359_8529)" stroke="url(#paint3_linear_2359_8529)" stroke-width="0.443316"/>
  <path d="M0.221658 18.5535C0.221658 17.5742 1.01558 16.7803 1.99492 16.7803H6.08267C7.06202 16.7803 7.85593 17.5742 7.85593 18.5535C7.85593 19.5329 7.06202 20.3268 6.08267 20.3268H1.99492C1.01558 20.3268 0.221658 19.5329 0.221658 18.5535Z" fill="url(#paint4_linear_2359_8529)" stroke="url(#paint5_linear_2359_8529)" stroke-width="0.443316"/>
  <path d="M0.221658 26.116C0.221658 25.1367 1.01558 24.3428 1.99492 24.3428H6.08267C7.06202 24.3428 7.85593 25.1367 7.85593 26.116C7.85593 27.0954 7.06202 27.8893 6.08267 27.8893H1.99492C1.01558 27.8893 0.221658 27.0954 0.221658 26.116Z" fill="url(#paint6_linear_2359_8529)" stroke="url(#paint7_linear_2359_8529)" stroke-width="0.443316"/>
  <defs>
    <filter id="filter0_bd_2359_8529" x="3.18445" y="0.244999" width="46.4896" height="54.4877" filterUnits="userSpaceOnUse" color-interpolation-filters="sRGB">
      <feFlood flood-opacity="0" result="BackgroundImageFix"/>
      <feGaussianBlur in="BackgroundImageFix" stdDeviation="4.43316"/>
      <feComposite in2="SourceAlpha" operator="in" result="effect1_backgroundBlur_2359_8529"/>
      <feColorMatrix in="SourceAlpha" type="matrix" values="0 0 0 0 0 0 0 0 0 0 0 0 0 0 0 0 0 0 127 0" result="hardAlpha"/>
      <feOffset dx="4.43316" dy="4.43316"/>
      <feGaussianBlur stdDeviation="6.64975"/>
      <feComposite in2="hardAlpha" operator="out"/>
      <feColorMatrix type="matrix" values="0 0 0 0 0.0196078 0 0 0 0 0.6 0 0 0 0 0.290196 0 0 0 0.3 0"/>
      <feBlend mode="normal" in2="effect1_backgroundBlur_2359_8529" result="effect2_dropShadow_2359_8529"/>
      <feBlend mode="normal" in="SourceGraphic" in2="effect2_dropShadow_2359_8529" result="shape"/>
    </filter>
    <linearGradient id="paint0_linear_2359_8529" x1="31.5566" y1="37" x2="3.17524" y2="15.9272" gradientUnits="userSpaceOnUse">
      <stop offset="0.182224" stop-color="#2DE376" stop-opacity="0.5"/>
      <stop offset="0.640234" stop-color="#2DE376" stop-opacity="0.9"/>
    </linearGradient>
    <linearGradient id="paint1_linear_2359_8529" x1="31.9414" y1="40.2451" x2="4.75631" y2="17.1647" gradientUnits="userSpaceOnUse">
      <stop offset="0.249921" stop-color="#2DE376"/>
      <stop offset="0.470896" stop-color="#2DE376" stop-opacity="0"/>
      <stop offset="0.816545" stop-color="#35C168"/>
    </linearGradient>
    <linearGradient id="paint2_linear_2359_8529" x1="5.67418" y1="15.9518" x2="4.54864" y2="6.71588" gradientUnits="userSpaceOnUse">
      <stop offset="0.0822725" stop-color="#8566FF" stop-opacity="0.3"/>
      <stop offset="0.423605" stop-color="#5F38FB" stop-opacity="0.5"/>
      <stop offset="0.762303" stop-color="#5F38FB" stop-opacity="0.7"/>
    </linearGradient>
    <linearGradient id="paint3_linear_2359_8529" x1="4.0388" y1="17.7325" x2="3.78081" y2="5.86678" gradientUnits="userSpaceOnUse">
      <stop offset="0.137498" stop-color="#AF9BFD"/>
      <stop offset="0.410212" stop-color="#5F38FB" stop-opacity="0"/>
      <stop offset="0.835001" stop-color="#5F38FB"/>
    </linearGradient>
    <linearGradient id="paint4_linear_2359_8529" x1="5.67418" y1="23.5162" x2="4.54864" y2="14.2803" gradientUnits="userSpaceOnUse">
      <stop offset="0.0822725" stop-color="#8566FF" stop-opacity="0.3"/>
      <stop offset="0.423605" stop-color="#5F38FB" stop-opacity="0.5"/>
      <stop offset="0.762303" stop-color="#5F38FB" stop-opacity="0.7"/>
    </linearGradient>
    <linearGradient id="paint5_linear_2359_8529" x1="4.0388" y1="25.2969" x2="3.78081" y2="13.4312" gradientUnits="userSpaceOnUse">
      <stop offset="0.137498" stop-color="#AF9BFD"/>
      <stop offset="0.410212" stop-color="#5F38FB" stop-opacity="0"/>
      <stop offset="0.835001" stop-color="#5F38FB"/>
    </linearGradient>
    <linearGradient id="paint6_linear_2359_8529" x1="5.67418" y1="31.0787" x2="4.54864" y2="21.8428" gradientUnits="userSpaceOnUse">
      <stop offset="0.0822725" stop-color="#8566FF" stop-opacity="0.3"/>
      <stop offset="0.423605" stop-color="#5F38FB" stop-opacity="0.5"/>
      <stop offset="0.762303" stop-color="#5F38FB" stop-opacity="0.7"/>
    </linearGradient>
    <linearGradient id="paint7_linear_2359_8529" x1="4.0388" y1="32.8594" x2="3.78081" y2="20.9937" gradientUnits="userSpaceOnUse">
      <stop offset="0.137498" stop-color="#AF9BFD"/>
      <stop offset="0.410212" stop-color="#5F38FB" stop-opacity="0"/>
      <stop offset="0.835001" stop-color="#5F38FB"/>
    </linearGradient>
  </defs>
</svg>