<svg width="57" height="57" viewBox="0 0 57 57" fill="none" xmlns="http://www.w3.org/2000/svg">
<rect width="54" height="54" rx="8" fill="#EAFCF1"/>
<g filter="url(#filter0_bd_3308_1362)">
<path d="M23.547 41.0847H41.0577V16.5353L23.547 16.5353L23.547 41.0847Z" fill="url(#paint0_linear_3308_1362)" shape-rendering="crispEdges"/>
<path d="M40.8626 16.7304V40.8896H23.7421L23.7421 16.7304L40.8626 16.7304Z" stroke="url(#paint1_linear_3308_1362)" stroke-width="0.390244" shape-rendering="crispEdges"/>
</g>
<path d="M16.4508 37.4647H33.9615V12.9153L16.4508 12.9153L16.4508 37.4647Z" fill="#C9F8DC"/>
<g filter="url(#filter1_b_3308_1362)">
<path fill-rule="evenodd" clip-rule="evenodd" d="M12.9422 18.1871C12.9422 17.2173 13.7284 16.431 14.6983 16.431H18.2967C19.2665 16.431 20.0528 17.2173 20.0528 18.1871C20.0528 19.157 19.2665 19.9432 18.2967 19.9432H14.6983C13.7284 19.9432 12.9422 19.157 12.9422 18.1871Z" fill="url(#paint2_linear_3308_1362)"/>
<path d="M13.1373 18.1871C13.1373 17.325 13.8362 16.6262 14.6983 16.6262H18.2967C19.1588 16.6262 19.8576 17.325 19.8576 18.1871C19.8576 19.0492 19.1588 19.7481 18.2967 19.7481H14.6983C13.8362 19.7481 13.1373 19.0492 13.1373 18.1871Z" stroke="url(#paint3_linear_3308_1362)" stroke-width="0.390244"/>
</g>
<g filter="url(#filter2_b_3308_1362)">
<path fill-rule="evenodd" clip-rule="evenodd" d="M12.9422 24.8452C12.9422 23.8753 13.7284 23.0891 14.6983 23.0891H18.2967C19.2665 23.0891 20.0528 23.8753 20.0528 24.8452C20.0528 25.8151 19.2665 26.6013 18.2967 26.6013H14.6983C13.7284 26.6013 12.9422 25.8151 12.9422 24.8452Z" fill="url(#paint4_linear_3308_1362)"/>
<path d="M13.1373 24.8452C13.1373 23.9831 13.8362 23.2842 14.6983 23.2842H18.2967C19.1588 23.2842 19.8576 23.9831 19.8576 24.8452C19.8576 25.7073 19.1588 26.4062 18.2967 26.4062H14.6983C13.8362 26.4062 13.1373 25.7073 13.1373 24.8452Z" stroke="url(#paint5_linear_3308_1362)" stroke-width="0.390244"/>
</g>
<g filter="url(#filter3_b_3308_1362)">
<path fill-rule="evenodd" clip-rule="evenodd" d="M12.9422 31.5033C12.9422 30.5334 13.7284 29.7472 14.6983 29.7472H18.2967C19.2665 29.7472 20.0528 30.5334 20.0528 31.5033C20.0528 32.4732 19.2665 33.2594 18.2967 33.2594H14.6983C13.7284 33.2594 12.9422 32.4732 12.9422 31.5033Z" fill="url(#paint6_linear_3308_1362)"/>
<path d="M13.1373 31.5033C13.1373 30.6412 13.8362 29.9423 14.6983 29.9423H18.2967C19.1588 29.9423 19.8576 30.6412 19.8576 31.5033C19.8576 32.3654 19.1588 33.0643 18.2967 33.0643H14.6983C13.8362 33.0643 13.1373 32.3654 13.1373 31.5033Z" stroke="url(#paint7_linear_3308_1362)" stroke-width="0.390244"/>
</g>
<defs>
<filter id="filter0_bd_3308_1362" x="15.7421" y="8.7304" width="40.9253" height="47.9641" filterUnits="userSpaceOnUse" color-interpolation-filters="sRGB">
<feFlood flood-opacity="0" result="BackgroundImageFix"/>
<feGaussianBlur in="BackgroundImageFix" stdDeviation="3.90244"/>
<feComposite in2="SourceAlpha" operator="in" result="effect1_backgroundBlur_3308_1362"/>
<feColorMatrix in="SourceAlpha" type="matrix" values="0 0 0 0 0 0 0 0 0 0 0 0 0 0 0 0 0 0 127 0" result="hardAlpha"/>
<feOffset dx="3.90244" dy="3.90244"/>
<feGaussianBlur stdDeviation="5.85366"/>
<feComposite in2="hardAlpha" operator="out"/>
<feColorMatrix type="matrix" values="0 0 0 0 0.0196078 0 0 0 0 0.6 0 0 0 0 0.290196 0 0 0 0.3 0"/>
<feBlend mode="normal" in2="effect1_backgroundBlur_3308_1362" result="effect2_dropShadow_3308_1362"/>
<feBlend mode="normal" in="SourceGraphic" in2="effect2_dropShadow_3308_1362" result="shape"/>
</filter>
<filter id="filter1_b_3308_1362" x="11.3812" y="14.8701" width="10.2325" height="6.63416" filterUnits="userSpaceOnUse" color-interpolation-filters="sRGB">
<feFlood flood-opacity="0" result="BackgroundImageFix"/>
<feGaussianBlur in="BackgroundImageFix" stdDeviation="0.780488"/>
<feComposite in2="SourceAlpha" operator="in" result="effect1_backgroundBlur_3308_1362"/>
<feBlend mode="normal" in="SourceGraphic" in2="effect1_backgroundBlur_3308_1362" result="shape"/>
</filter>
<filter id="filter2_b_3308_1362" x="11.3812" y="21.5281" width="10.2325" height="6.63416" filterUnits="userSpaceOnUse" color-interpolation-filters="sRGB">
<feFlood flood-opacity="0" result="BackgroundImageFix"/>
<feGaussianBlur in="BackgroundImageFix" stdDeviation="0.780488"/>
<feComposite in2="SourceAlpha" operator="in" result="effect1_backgroundBlur_3308_1362"/>
<feBlend mode="normal" in="SourceGraphic" in2="effect1_backgroundBlur_3308_1362" result="shape"/>
</filter>
<filter id="filter3_b_3308_1362" x="11.3812" y="28.1862" width="10.2325" height="6.63416" filterUnits="userSpaceOnUse" color-interpolation-filters="sRGB">
<feFlood flood-opacity="0" result="BackgroundImageFix"/>
<feGaussianBlur in="BackgroundImageFix" stdDeviation="0.780488"/>
<feComposite in2="SourceAlpha" operator="in" result="effect1_backgroundBlur_3308_1362"/>
<feBlend mode="normal" in="SourceGraphic" in2="effect1_backgroundBlur_3308_1362" result="shape"/>
</filter>
<linearGradient id="paint0_linear_3308_1362" x1="40.7189" y1="41.0847" x2="15.7353" y2="22.5347" gradientUnits="userSpaceOnUse">
<stop offset="0.182224" stop-color="#2DE376" stop-opacity="0.5"/>
<stop offset="0.640234" stop-color="#2DE376" stop-opacity="0.9"/>
</linearGradient>
<linearGradient id="paint1_linear_3308_1362" x1="41.0577" y1="43.9413" x2="17.1271" y2="23.6241" gradientUnits="userSpaceOnUse">
<stop offset="0.249921" stop-color="#2DE376"/>
<stop offset="0.470896" stop-color="#2DE376" stop-opacity="0"/>
<stop offset="0.816545" stop-color="#35C168"/>
</linearGradient>
<linearGradient id="paint2_linear_3308_1362" x1="17.9371" y1="22.5557" x2="16.9463" y2="14.4255" gradientUnits="userSpaceOnUse">
<stop offset="0.0822725" stop-color="#8566FF" stop-opacity="0.3"/>
<stop offset="0.423605" stop-color="#5F38FB" stop-opacity="0.5"/>
<stop offset="0.762303" stop-color="#5F38FB" stop-opacity="0.7"/>
</linearGradient>
<linearGradient id="paint3_linear_3308_1362" x1="16.4975" y1="24.1232" x2="16.2704" y2="13.6781" gradientUnits="userSpaceOnUse">
<stop offset="0.137498" stop-color="#AF9BFD"/>
<stop offset="0.410212" stop-color="#5F38FB" stop-opacity="0"/>
<stop offset="0.835001" stop-color="#5F38FB"/>
</linearGradient>
<linearGradient id="paint4_linear_3308_1362" x1="17.9371" y1="29.2138" x2="16.9463" y2="21.0836" gradientUnits="userSpaceOnUse">
<stop offset="0.0822725" stop-color="#8566FF" stop-opacity="0.3"/>
<stop offset="0.423605" stop-color="#5F38FB" stop-opacity="0.5"/>
<stop offset="0.762303" stop-color="#5F38FB" stop-opacity="0.7"/>
</linearGradient>
<linearGradient id="paint5_linear_3308_1362" x1="16.4975" y1="30.7813" x2="16.2704" y2="20.3362" gradientUnits="userSpaceOnUse">
<stop offset="0.137498" stop-color="#AF9BFD"/>
<stop offset="0.410212" stop-color="#5F38FB" stop-opacity="0"/>
<stop offset="0.835001" stop-color="#5F38FB"/>
</linearGradient>
<linearGradient id="paint6_linear_3308_1362" x1="17.9371" y1="35.8719" x2="16.9463" y2="27.7417" gradientUnits="userSpaceOnUse">
<stop offset="0.0822725" stop-color="#8566FF" stop-opacity="0.3"/>
<stop offset="0.423605" stop-color="#5F38FB" stop-opacity="0.5"/>
<stop offset="0.762303" stop-color="#5F38FB" stop-opacity="0.7"/>
</linearGradient>
<linearGradient id="paint7_linear_3308_1362" x1="16.4975" y1="37.4394" x2="16.2704" y2="26.9942" gradientUnits="userSpaceOnUse">
<stop offset="0.137498" stop-color="#AF9BFD"/>
<stop offset="0.410212" stop-color="#5F38FB" stop-opacity="0"/>
<stop offset="0.835001" stop-color="#5F38FB"/>
</linearGradient>
</defs>
</svg>
