<svg width="54" height="55" viewBox="0 0 54 55" fill="none" xmlns="http://www.w3.org/2000/svg">
<rect y="0.529297" width="54" height="54" rx="8" fill="#F3F5F8"/>
<path d="M18.3832 30.9414H14.5861C13.6643 30.9414 12.917 31.6887 12.917 32.6105V39.9198C12.917 40.8416 13.6643 41.5889 14.5861 41.5889H18.3832C19.3051 41.5889 20.0524 40.8416 20.0524 39.9198V32.6105C20.0524 31.6887 19.3051 30.9414 18.3832 30.9414Z" fill="#B9C5D4"/>
<path d="M28.6461 27.4795H25.3535C24.2924 27.4795 23.4321 28.3397 23.4321 29.4009V39.6674C23.4321 40.7286 24.2924 41.5888 25.3535 41.5888H28.6461C29.7073 41.5888 30.5675 40.7286 30.5675 39.6674V29.4009C30.5675 28.3397 29.7073 27.4795 28.6461 27.4795Z" fill="#B9C5D4"/>
<path d="M38.9332 23.9316H36.0968C34.9096 23.9316 33.9473 24.894 33.9473 26.0811V39.4397C33.9473 40.6268 34.9096 41.5892 36.0968 41.5892H38.9332C40.1203 41.5892 41.0827 40.6268 41.0827 39.4397V26.0811C41.0827 24.894 40.1203 23.9316 38.9332 23.9316Z" fill="#B9C5D4"/>
<path d="M14.7698 27.6619C14.3216 27.6619 13.8736 27.4916 13.5308 27.1505C12.8435 26.466 12.841 25.3544 13.5251 24.6669L18.9799 19.1871C19.3096 18.8559 19.7574 18.6699 20.2246 18.6699H28.1324L32.6901 13.9996C33.3673 13.3048 34.479 13.2919 35.1735 13.9691C35.8675 14.6467 35.8812 15.7583 35.2038 16.4523L30.1291 21.6524C29.7985 21.9912 29.3454 22.1821 28.8723 22.1821H20.9544L16.0144 27.1448C15.6712 27.4893 15.2204 27.6619 14.7698 27.6619Z" fill="#5F38FB"/>
</svg>
