<svg xmlns="http://www.w3.org/2000/svg" width="32" height="32" viewBox="0 0 32 32" fill="none">
  <path d="M7.38324 19.412H3.58613C2.66429 19.412 1.91699 20.1593 1.91699 21.0811V28.3903C1.91699 29.3122 2.66429 30.0595 3.58613 30.0595H7.38324C8.30508 30.0595 9.05238 29.3122 9.05238 28.3903V21.0811C9.05238 20.1593 8.30508 19.412 7.38324 19.412Z" fill="#B9C5D4"/>
  <path d="M17.6461 15.9501H14.3535C13.2924 15.9501 12.4321 16.8104 12.4321 17.8715V28.1381C12.4321 29.1992 13.2924 30.0595 14.3535 30.0595H17.6461C18.7073 30.0595 19.5675 29.1992 19.5675 28.1381V17.8715C19.5675 16.8104 18.7073 15.9501 17.6461 15.9501Z" fill="#B9C5D4"/>
  <path d="M27.9332 12.402H25.0968C23.9096 12.402 22.9473 13.3643 22.9473 14.5515V27.91C22.9473 29.0971 23.9096 30.0595 25.0968 30.0595H27.9332C29.1203 30.0595 30.0827 29.0971 30.0827 27.91V14.5515C30.0827 13.3643 29.1203 12.402 27.9332 12.402Z" fill="#B9C5D4"/>
  <path d="M3.76975 16.1327C3.32158 16.1327 2.8736 15.9623 2.5308 15.6213C1.84349 14.9368 1.84102 13.8251 2.52509 13.1376L7.97993 7.65785C8.30958 7.32667 8.75736 7.1407 9.22459 7.1407H17.1324L21.6901 2.47035C22.3673 1.7756 23.479 1.76265 24.1735 2.43986C24.8675 3.11745 24.8812 4.22911 24.2038 4.92309L19.1291 10.1232C18.7985 10.462 18.3454 10.6529 17.8723 10.6529H9.95439L5.01442 15.6155C4.67124 15.9601 4.2204 16.1327 3.76975 16.1327Z" fill="#5F38FB"/>
</svg>