<svg width="57" height="57" viewBox="0 0 57 57" fill="none" xmlns="http://www.w3.org/2000/svg">
<rect width="54" height="54" rx="8" fill="#EAFCF1"/>
<g filter="url(#filter0_bd_3308_1276)">
<path d="M18.3835 30.412H14.5864C13.6645 30.412 12.9172 31.1593 12.9172 32.0811V39.3903C12.9172 40.3122 13.6645 41.0595 14.5864 41.0595H18.3835C19.3053 41.0595 20.0526 40.3122 20.0526 39.3903V32.0811C20.0526 31.1593 19.3053 30.412 18.3835 30.412Z" fill="url(#paint0_linear_3308_1276)" shape-rendering="crispEdges"/>
<path d="M14.5864 30.6071H18.3835C19.1976 30.6071 19.8575 31.267 19.8575 32.0811V39.3903C19.8575 40.2044 19.1976 40.8644 18.3835 40.8644H14.5864C13.7723 40.8644 13.1124 40.2044 13.1124 39.3903V32.0811C13.1124 31.267 13.7723 30.6071 14.5864 30.6071Z" stroke="url(#paint1_linear_3308_1276)" stroke-width="0.390244" shape-rendering="crispEdges"/>
</g>
<path d="M28.6462 26.9502H25.3536C24.2925 26.9502 23.4323 27.8104 23.4323 28.8716V39.1381C23.4323 40.1993 24.2925 41.0595 25.3536 41.0595H28.6462C29.7074 41.0595 30.5676 40.1993 30.5676 39.1381V28.8716C30.5676 27.8104 29.7074 26.9502 28.6462 26.9502Z" fill="#C9F8DC"/>
<g filter="url(#filter1_bd_3308_1276)">
<path d="M38.9332 23.402H36.0968C34.9096 23.402 33.9473 24.3643 33.9473 25.5515V38.91C33.9473 40.0971 34.9096 41.0595 36.0968 41.0595H38.9332C40.1203 41.0595 41.0827 40.0971 41.0827 38.91V25.5515C41.0827 24.3643 40.1203 23.402 38.9332 23.402Z" fill="url(#paint2_linear_3308_1276)" shape-rendering="crispEdges"/>
<path d="M36.0968 23.5971H38.9332C40.0125 23.5971 40.8875 24.4721 40.8875 25.5515V38.91C40.8875 39.9894 40.0125 40.8644 38.9332 40.8644H36.0968C35.0174 40.8644 34.1424 39.9894 34.1424 38.91V25.5515C34.1424 24.4721 35.0174 23.5971 36.0968 23.5971Z" stroke="url(#paint3_linear_3308_1276)" stroke-width="0.390244" shape-rendering="crispEdges"/>
</g>
<g filter="url(#filter2_b_3308_1276)">
<path d="M14.7701 27.1328C14.3219 27.1328 13.874 26.9624 13.5312 26.6213C12.8439 25.9369 12.8414 24.8252 13.5255 24.1377L18.9803 18.6579C19.3099 18.3267 19.7577 18.1408 20.225 18.1408H28.1327L32.6905 13.4704C33.3677 12.7757 34.4793 12.7627 35.1739 13.4399C35.8679 14.1175 35.8816 15.2292 35.2042 15.9232L30.1295 21.1232C29.7989 21.462 29.3458 21.653 28.8726 21.653H20.9548L16.0148 26.6156C15.6716 26.9601 15.2208 27.1328 14.7701 27.1328Z" fill="url(#paint4_linear_3308_1276)"/>
<path d="M19.1186 18.7956L19.1186 18.7956C19.4116 18.5012 19.8096 18.3359 20.225 18.3359H28.1327H28.215L28.2724 18.277L32.8301 13.6067L32.8302 13.6066C33.432 12.9892 34.42 12.9775 35.0376 13.5795C35.6545 14.1819 35.6666 15.17 35.0646 15.7869L35.0645 15.7869L29.9898 20.9869L30.1295 21.1232L29.9898 20.987C29.696 21.2881 29.2932 21.4578 28.8726 21.4578H20.9548H20.8737L20.8165 21.5153L15.8765 26.4779C15.8765 26.4779 15.8765 26.4779 15.8765 26.4779C15.5714 26.7842 15.1709 26.9376 14.7701 26.9376C14.3715 26.9376 13.9736 26.7863 13.6689 26.4831C13.0579 25.8746 13.0557 24.8865 13.6637 24.2754C13.6637 24.2754 13.6638 24.2753 13.6638 24.2753L19.1186 18.7956Z" stroke="url(#paint5_linear_3308_1276)" stroke-width="0.390244"/>
</g>
<defs>
<filter id="filter0_bd_3308_1276" x="5.11236" y="22.6071" width="30.55" height="34.0621" filterUnits="userSpaceOnUse" color-interpolation-filters="sRGB">
<feFlood flood-opacity="0" result="BackgroundImageFix"/>
<feGaussianBlur in="BackgroundImageFix" stdDeviation="3.90244"/>
<feComposite in2="SourceAlpha" operator="in" result="effect1_backgroundBlur_3308_1276"/>
<feColorMatrix in="SourceAlpha" type="matrix" values="0 0 0 0 0 0 0 0 0 0 0 0 0 0 0 0 0 0 127 0" result="hardAlpha"/>
<feOffset dx="3.90244" dy="3.90244"/>
<feGaussianBlur stdDeviation="5.85366"/>
<feComposite in2="hardAlpha" operator="out"/>
<feColorMatrix type="matrix" values="0 0 0 0 0.0196078 0 0 0 0 0.6 0 0 0 0 0.290196 0 0 0 0.3 0"/>
<feBlend mode="normal" in2="effect1_backgroundBlur_3308_1276" result="effect2_dropShadow_3308_1276"/>
<feBlend mode="normal" in="SourceGraphic" in2="effect2_dropShadow_3308_1276" result="shape"/>
</filter>
<filter id="filter1_bd_3308_1276" x="26.1424" y="15.5971" width="30.55" height="41.0721" filterUnits="userSpaceOnUse" color-interpolation-filters="sRGB">
<feFlood flood-opacity="0" result="BackgroundImageFix"/>
<feGaussianBlur in="BackgroundImageFix" stdDeviation="3.90244"/>
<feComposite in2="SourceAlpha" operator="in" result="effect1_backgroundBlur_3308_1276"/>
<feColorMatrix in="SourceAlpha" type="matrix" values="0 0 0 0 0 0 0 0 0 0 0 0 0 0 0 0 0 0 127 0" result="hardAlpha"/>
<feOffset dx="3.90244" dy="3.90244"/>
<feGaussianBlur stdDeviation="5.85366"/>
<feComposite in2="hardAlpha" operator="out"/>
<feColorMatrix type="matrix" values="0 0 0 0 0.0196078 0 0 0 0 0.6 0 0 0 0 0.290196 0 0 0 0.3 0"/>
<feBlend mode="normal" in2="effect1_backgroundBlur_3308_1276" result="effect2_dropShadow_3308_1276"/>
<feBlend mode="normal" in="SourceGraphic" in2="effect2_dropShadow_3308_1276" result="shape"/>
</filter>
<filter id="filter2_b_3308_1276" x="11.4531" y="11.3796" width="25.8114" height="17.3142" filterUnits="userSpaceOnUse" color-interpolation-filters="sRGB">
<feFlood flood-opacity="0" result="BackgroundImageFix"/>
<feGaussianBlur in="BackgroundImageFix" stdDeviation="0.780488"/>
<feComposite in2="SourceAlpha" operator="in" result="effect1_backgroundBlur_3308_1276"/>
<feBlend mode="normal" in="SourceGraphic" in2="effect1_backgroundBlur_3308_1276" result="shape"/>
</filter>
<linearGradient id="paint0_linear_3308_1276" x1="13.0553" y1="30.412" x2="23.6786" y2="37.8226" gradientUnits="userSpaceOnUse">
<stop offset="0.182224" stop-color="#2DE376" stop-opacity="0.5"/>
<stop offset="0.640234" stop-color="#2DE376" stop-opacity="0.9"/>
</linearGradient>
<linearGradient id="paint1_linear_3308_1276" x1="12.9172" y1="29.173" x2="23.1725" y2="37.3533" gradientUnits="userSpaceOnUse">
<stop offset="0.249921" stop-color="#2DE376"/>
<stop offset="0.470896" stop-color="#2DE376" stop-opacity="0"/>
<stop offset="0.816545" stop-color="#35C168"/>
</linearGradient>
<linearGradient id="paint2_linear_3308_1276" x1="34.0853" y1="23.402" x2="47.5039" y2="29.0464" gradientUnits="userSpaceOnUse">
<stop offset="0.182224" stop-color="#2DE376" stop-opacity="0.5"/>
<stop offset="0.640234" stop-color="#2DE376" stop-opacity="0.9"/>
</linearGradient>
<linearGradient id="paint3_linear_3308_1276" x1="33.9473" y1="21.3473" x2="47.5748" y2="27.9021" gradientUnits="userSpaceOnUse">
<stop offset="0.249921" stop-color="#2DE376"/>
<stop offset="0.470896" stop-color="#2DE376" stop-opacity="0"/>
<stop offset="0.816545" stop-color="#35C168"/>
</linearGradient>
<linearGradient id="paint4_linear_3308_1276" x1="28.9524" y1="37.6893" x2="23.9268" y2="5.12428" gradientUnits="userSpaceOnUse">
<stop offset="0.0822725" stop-color="#8566FF" stop-opacity="0.3"/>
<stop offset="0.423605" stop-color="#5F38FB" stop-opacity="0.5"/>
<stop offset="0.762303" stop-color="#5F38FB" stop-opacity="0.7"/>
</linearGradient>
<linearGradient id="paint5_linear_3308_1276" x1="24.3587" y1="44.0234" x2="23.197" y2="1.82832" gradientUnits="userSpaceOnUse">
<stop offset="0.137498" stop-color="#AF9BFD"/>
<stop offset="0.410212" stop-color="#5F38FB" stop-opacity="0"/>
<stop offset="0.835001" stop-color="#5F38FB"/>
</linearGradient>
</defs>
</svg>
