<svg xmlns="http://www.w3.org/2000/svg" width="52" height="46" viewBox="0 0 52 46" fill="none">
  <g filter="url(#filter0_bd_2689_1831)">
    <path d="M13.3842 19.4121H9.5871C8.66527 19.4121 7.91797 20.1594 7.91797 21.0812V28.3905C7.91797 29.3123 8.66527 30.0596 9.5871 30.0596H13.3842C14.3061 30.0596 15.0534 29.3123 15.0534 28.3905V21.0812C15.0534 20.1594 14.3061 19.4121 13.3842 19.4121Z" fill="url(#paint0_linear_2689_1831)" shape-rendering="crispEdges"/>
    <path d="M9.5871 19.6072H13.3842C14.1983 19.6072 14.8582 20.2672 14.8582 21.0812V28.3905C14.8582 29.2045 14.1983 29.8645 13.3842 29.8645H9.5871C8.77303 29.8645 8.11309 29.2045 8.11309 28.3905V21.0812C8.11309 20.2672 8.77303 19.6072 9.5871 19.6072Z" stroke="url(#paint1_linear_2689_1831)" stroke-width="0.390244" shape-rendering="crispEdges"/>
  </g>
  <path d="M23.6476 15.9512H20.355C19.2938 15.9512 18.4336 16.8114 18.4336 17.8726V28.1391C18.4336 29.2003 19.2938 30.0605 20.355 30.0605H23.6476C24.7087 30.0605 25.569 29.2003 25.569 28.1391V17.8726C25.569 16.8114 24.7087 15.9512 23.6476 15.9512Z" fill="#C9F8DC"/>
  <g filter="url(#filter1_bd_2689_1831)">
    <path d="M33.9351 12.4023H31.0987C29.9116 12.4023 28.9492 13.3647 28.9492 14.5518V27.9104C28.9492 29.0975 29.9116 30.0599 31.0987 30.0599H33.9351C35.1222 30.0599 36.0846 29.0975 36.0846 27.9104V14.5518C36.0846 13.3647 35.1222 12.4023 33.9351 12.4023Z" fill="url(#paint2_linear_2689_1831)" shape-rendering="crispEdges"/>
    <path d="M31.0987 12.5975H33.9351C35.0145 12.5975 35.8895 13.4725 35.8895 14.5518V27.9104C35.8895 28.9897 35.0145 29.8647 33.9351 29.8647H31.0987C30.0193 29.8647 29.1443 28.9897 29.1443 27.9104V14.5518C29.1443 13.4725 30.0193 12.5975 31.0987 12.5975Z" stroke="url(#paint3_linear_2689_1831)" stroke-width="0.390244" shape-rendering="crispEdges"/>
  </g>
  <g filter="url(#filter2_b_2689_1831)">
    <path d="M9.7717 16.1336C9.32353 16.1336 8.87555 15.9633 8.53276 15.6222C7.84545 14.9377 7.84297 13.8261 8.52704 13.1386L13.9819 7.65876C14.3115 7.32759 14.7593 7.14161 15.2265 7.14161H23.1343L27.6921 2.47126C28.3693 1.77652 29.4809 1.76356 30.1755 2.44077C30.8695 3.11836 30.8832 4.23003 30.2058 4.924L25.1311 10.1241C24.8005 10.4629 24.3474 10.6538 23.8742 10.6538H15.9563L11.0164 15.6165C10.6732 15.961 10.2224 16.1336 9.7717 16.1336Z" fill="url(#paint4_linear_2689_1831)"/>
    <path d="M14.1202 7.79642L14.1202 7.79641C14.4132 7.50205 14.8112 7.33673 15.2265 7.33673H23.1343H23.2165L23.274 7.27789L27.8317 2.60754L27.8318 2.60746C28.4336 1.99009 29.4216 1.97835 30.0392 2.58038C30.6561 3.18276 30.6682 4.1709 30.0661 4.78771L30.0661 4.78773L24.9914 9.9878L25.1311 10.1241L24.9914 9.98781C24.6975 10.289 24.2948 10.4587 23.8742 10.4587H15.9563H15.8753L15.8181 10.5161L10.8781 15.4788C10.8781 15.4788 10.8781 15.4788 10.8781 15.4788C10.573 15.7851 10.1725 15.9385 9.7717 15.9385C9.37305 15.9385 8.97521 15.7871 8.67044 15.4839C8.05948 14.8755 8.05727 13.8874 8.66533 13.2762C8.66534 13.2762 8.66535 13.2762 8.66536 13.2762L14.1202 7.79642Z" stroke="url(#paint5_linear_2689_1831)" stroke-width="0.390244"/>
  </g>
  <defs>
    <filter id="filter0_bd_2689_1831" x="0.113091" y="11.6072" width="30.5514" height="34.0631" filterUnits="userSpaceOnUse" color-interpolation-filters="sRGB">
      <feFlood flood-opacity="0" result="BackgroundImageFix"/>
      <feGaussianBlur in="BackgroundImageFix" stdDeviation="3.90244"/>
      <feComposite in2="SourceAlpha" operator="in" result="effect1_backgroundBlur_2689_1831"/>
      <feColorMatrix in="SourceAlpha" type="matrix" values="0 0 0 0 0 0 0 0 0 0 0 0 0 0 0 0 0 0 127 0" result="hardAlpha"/>
      <feOffset dx="3.90244" dy="3.90244"/>
      <feGaussianBlur stdDeviation="5.85366"/>
      <feComposite in2="hardAlpha" operator="out"/>
      <feColorMatrix type="matrix" values="0 0 0 0 0.0196078 0 0 0 0 0.6 0 0 0 0 0.290196 0 0 0 0.3 0"/>
      <feBlend mode="normal" in2="effect1_backgroundBlur_2689_1831" result="effect2_dropShadow_2689_1831"/>
      <feBlend mode="normal" in="SourceGraphic" in2="effect2_dropShadow_2689_1831" result="shape"/>
    </filter>
    <filter id="filter1_bd_2689_1831" x="21.1443" y="4.59747" width="30.5514" height="41.0728" filterUnits="userSpaceOnUse" color-interpolation-filters="sRGB">
      <feFlood flood-opacity="0" result="BackgroundImageFix"/>
      <feGaussianBlur in="BackgroundImageFix" stdDeviation="3.90244"/>
      <feComposite in2="SourceAlpha" operator="in" result="effect1_backgroundBlur_2689_1831"/>
      <feColorMatrix in="SourceAlpha" type="matrix" values="0 0 0 0 0 0 0 0 0 0 0 0 0 0 0 0 0 0 127 0" result="hardAlpha"/>
      <feOffset dx="3.90244" dy="3.90244"/>
      <feGaussianBlur stdDeviation="5.85366"/>
      <feComposite in2="hardAlpha" operator="out"/>
      <feColorMatrix type="matrix" values="0 0 0 0 0.0196078 0 0 0 0 0.6 0 0 0 0 0.290196 0 0 0 0.3 0"/>
      <feBlend mode="normal" in2="effect1_backgroundBlur_2689_1831" result="effect2_dropShadow_2689_1831"/>
      <feBlend mode="normal" in="SourceGraphic" in2="effect2_dropShadow_2689_1831" result="shape"/>
    </filter>
    <filter id="filter2_b_2689_1831" x="6.45465" y="0.380431" width="25.8095" height="17.3134" filterUnits="userSpaceOnUse" color-interpolation-filters="sRGB">
      <feFlood flood-opacity="0" result="BackgroundImageFix"/>
      <feGaussianBlur in="BackgroundImageFix" stdDeviation="0.780488"/>
      <feComposite in2="SourceAlpha" operator="in" result="effect1_backgroundBlur_2689_1831"/>
      <feBlend mode="normal" in="SourceGraphic" in2="effect1_backgroundBlur_2689_1831" result="shape"/>
    </filter>
    <linearGradient id="paint0_linear_2689_1831" x1="8.056" y1="19.4121" x2="18.6793" y2="26.8228" gradientUnits="userSpaceOnUse">
      <stop offset="0.182224" stop-color="#2DE376" stop-opacity="0.5"/>
      <stop offset="0.640234" stop-color="#2DE376" stop-opacity="0.9"/>
    </linearGradient>
    <linearGradient id="paint1_linear_2689_1831" x1="7.91797" y1="18.1732" x2="18.1732" y2="26.3534" gradientUnits="userSpaceOnUse">
      <stop offset="0.249921" stop-color="#2DE376"/>
      <stop offset="0.470896" stop-color="#2DE376" stop-opacity="0"/>
      <stop offset="0.816545" stop-color="#35C168"/>
    </linearGradient>
    <linearGradient id="paint2_linear_2689_1831" x1="29.0873" y1="12.4023" x2="42.5058" y2="18.0468" gradientUnits="userSpaceOnUse">
      <stop offset="0.182224" stop-color="#2DE376" stop-opacity="0.5"/>
      <stop offset="0.640234" stop-color="#2DE376" stop-opacity="0.9"/>
    </linearGradient>
    <linearGradient id="paint3_linear_2689_1831" x1="28.9492" y1="10.3477" x2="42.5768" y2="16.9025" gradientUnits="userSpaceOnUse">
      <stop offset="0.249921" stop-color="#2DE376"/>
      <stop offset="0.470896" stop-color="#2DE376" stop-opacity="0"/>
      <stop offset="0.816545" stop-color="#35C168"/>
    </linearGradient>
    <linearGradient id="paint4_linear_2689_1831" x1="23.954" y1="26.6902" x2="18.9284" y2="-5.87486" gradientUnits="userSpaceOnUse">
      <stop offset="0.0822725" stop-color="#8566FF" stop-opacity="0.3"/>
      <stop offset="0.423605" stop-color="#5F38FB" stop-opacity="0.5"/>
      <stop offset="0.762303" stop-color="#5F38FB" stop-opacity="0.7"/>
    </linearGradient>
    <linearGradient id="paint5_linear_2689_1831" x1="19.3603" y1="33.0243" x2="18.1986" y2="-9.17082" gradientUnits="userSpaceOnUse">
      <stop offset="0.137498" stop-color="#AF9BFD"/>
      <stop offset="0.410212" stop-color="#5F38FB" stop-opacity="0"/>
      <stop offset="0.835001" stop-color="#5F38FB"/>
    </linearGradient>
  </defs>
</svg>