<svg xmlns="http://www.w3.org/2000/svg" width="48" height="51" viewBox="0 0 48 51" fill="none">
  <g filter="url(#filter0_bd_2359_8515)">
    <path d="M19.4358 15.1091L16.0139 21.0362L19.4358 26.9633H26.2799L26.2945 26.938L29.7654 33.0001H15.9503L9.04297 21.0362L15.9503 9.07227H16.0656L19.5219 15.1091H19.4358Z" fill="url(#paint0_linear_2359_8515)" shape-rendering="crispEdges"/>
    <path d="M9.29949 21.0362L16.0074 9.41774L19.2228 15.0337L15.8215 20.9251L15.7573 21.0362L15.8215 21.1472L19.2434 27.0744L19.3075 27.1854H19.4358H26.1802L29.3822 32.7779H16.0786L9.29949 21.0362Z" stroke="url(#paint1_linear_2359_8515)" stroke-width="0.444312" shape-rendering="crispEdges"/>
  </g>
  <path d="M36.6722 21.0338L29.7662 33.0001L26.2953 26.938L29.7013 21.0338L26.2808 15.1091H19.5228L16.0664 9.07227H29.7662L36.6722 21.0338Z" fill="#D2F9E2"/>
  <path d="M29.7871 9.33939L29.9442 9.49647L30.1012 9.33939L37.6979 1.7427C38.392 1.04864 39.5173 1.04864 40.2113 1.7427C40.9054 2.43676 40.9054 3.56205 40.2113 4.25611L31.2009 13.2666C30.5068 13.9606 29.3815 13.9606 28.6875 13.2666L23.649 8.22809C22.9549 7.53403 22.9549 6.40874 23.6489 5.71468C24.343 5.02062 25.4683 5.02062 26.1624 5.71468L29.7871 9.33939Z" fill="url(#paint2_linear_2359_8515)" stroke="url(#paint3_linear_2359_8515)" stroke-width="0.444312"/>
  <defs>
    <filter id="filter0_bd_2359_8515" x="0.156732" y="0.186028" width="47.3814" height="50.5864" filterUnits="userSpaceOnUse" color-interpolation-filters="sRGB">
      <feFlood flood-opacity="0" result="BackgroundImageFix"/>
      <feGaussianBlur in="BackgroundImageFix" stdDeviation="4.44312"/>
      <feComposite in2="SourceAlpha" operator="in" result="effect1_backgroundBlur_2359_8515"/>
      <feColorMatrix in="SourceAlpha" type="matrix" values="0 0 0 0 0 0 0 0 0 0 0 0 0 0 0 0 0 0 127 0" result="hardAlpha"/>
      <feOffset dx="4.44312" dy="4.44312"/>
      <feGaussianBlur stdDeviation="6.66468"/>
      <feComposite in2="hardAlpha" operator="out"/>
      <feColorMatrix type="matrix" values="0 0 0 0 0.0196078 0 0 0 0 0.6 0 0 0 0 0.290196 0 0 0 0.3 0"/>
      <feBlend mode="normal" in2="effect1_backgroundBlur_2359_8515" result="effect2_dropShadow_2359_8515"/>
      <feBlend mode="normal" in="SourceGraphic" in2="effect2_dropShadow_2359_8515" result="shape"/>
    </filter>
    <linearGradient id="paint0_linear_2359_8515" x1="9.44385" y1="9.07226" x2="34.7461" y2="31.8822" gradientUnits="userSpaceOnUse">
      <stop offset="0.182224" stop-color="#2DE376" stop-opacity="0.5"/>
      <stop offset="0.640234" stop-color="#2DE376" stop-opacity="0.9"/>
    </linearGradient>
    <linearGradient id="paint1_linear_2359_8515" x1="9.04297" y1="6.288" x2="32.6699" y2="30.6433" gradientUnits="userSpaceOnUse">
      <stop offset="0.249921" stop-color="#2DE376"/>
      <stop offset="0.470896" stop-color="#2DE376" stop-opacity="0"/>
      <stop offset="0.816545" stop-color="#35C168"/>
    </linearGradient>
    <linearGradient id="paint2_linear_2359_8515" x1="35.5841" y1="23.686" x2="30.3155" y2="-5.93873" gradientUnits="userSpaceOnUse">
      <stop offset="0.0822725" stop-color="#8566FF" stop-opacity="0.3"/>
      <stop offset="0.423605" stop-color="#5F38FB" stop-opacity="0.5"/>
      <stop offset="0.762303" stop-color="#5F38FB" stop-opacity="0.7"/>
    </linearGradient>
    <linearGradient id="paint3_linear_2359_8515" x1="31.9301" y1="29.4921" x2="30.7032" y2="-9.17642" gradientUnits="userSpaceOnUse">
      <stop offset="0.137498" stop-color="#AF9BFD"/>
      <stop offset="0.410212" stop-color="#5F38FB" stop-opacity="0"/>
      <stop offset="0.835001" stop-color="#5F38FB"/>
    </linearGradient>
  </defs>
</svg>