<svg xmlns="http://www.w3.org/2000/svg" width="73" height="60" viewBox="0 0 73 60" fill="none">
  <path d="M14.5889 5.00781H36.4211C40.5709 5.00781 43.94 8.37691 43.94 12.5267V13.4536C43.94 17.6034 40.5709 20.9725 36.4211 20.9725H6.92188V12.6748C6.92188 8.44329 10.3574 5.00781 14.5889 5.00781Z" fill="#C9F8DC"/>
  <g filter="url(#filter0_bd_2689_936)">
    <path d="M49.0781 36.5684H21.352C16.2652 36.5684 12.1354 32.4386 12.1354 27.3518V21.7481C12.1354 16.6613 16.2652 12.5315 21.352 12.5315L39.68 12.5315C44.867 12.5315 49.0781 16.7427 49.0781 21.9297V36.5684Z" fill="url(#paint0_linear_2689_936)" shape-rendering="crispEdges"/>
    <path d="M48.7854 36.2757H21.352C16.4269 36.2757 12.4281 32.2769 12.4281 27.3518V21.7481C12.4281 16.823 16.4269 12.8242 21.352 12.8242L39.68 12.8242C44.7053 12.8242 48.7854 16.9044 48.7854 21.9297V36.2757Z" stroke="url(#paint1_linear_2689_936)" stroke-width="0.585366" shape-rendering="crispEdges"/>
  </g>
  <g filter="url(#filter1_b_2689_936)">
    <path d="M9.38634 46.9907C9.07879 46.9907 8.76867 46.9312 8.47342 46.8089C7.58165 46.439 7 45.569 7 44.6035V28.5351C7 27.2168 8.06869 26.1484 9.38691 26.1484H25.6082C26.9264 26.1484 27.9951 27.2168 27.9951 28.5351V40.0143C27.9951 41.3325 26.9264 42.4009 25.6082 42.4009H14.9647L11.0747 46.291C10.6179 46.7477 10.0074 46.9907 9.38634 46.9907ZM11.7738 30.9217V38.8413L12.2883 38.3268C12.7359 37.8786 13.343 37.6277 13.9761 37.6277H23.2213V30.9217H11.7738Z" fill="url(#paint2_linear_2689_936)"/>
    <path d="M14.9647 42.1082H14.8435L14.7578 42.194L10.8677 46.084C10.4669 46.4848 9.93132 46.698 9.38634 46.698C9.11661 46.698 8.84465 46.6459 8.58555 46.5385C7.80297 46.214 7.29268 45.4505 7.29268 44.6035V28.5351C7.29268 27.3785 8.23029 26.4411 9.38691 26.4411H25.6082C26.7648 26.4411 27.7025 27.3785 27.7025 28.5351V40.0143C27.7025 41.1708 26.7648 42.1082 25.6082 42.1082H14.9647ZM11.7738 30.629H11.4811V30.9217V38.8413V39.5479L11.9808 39.0482L12.4953 38.5337L12.4954 38.5336C12.8879 38.1406 13.4205 37.9204 13.9761 37.9204H23.2213H23.514V37.6277V30.9217V30.629H23.2213H11.7738Z" stroke="url(#paint3_linear_2689_936)" stroke-width="0.585366"/>
  </g>
  <defs>
    <filter id="filter0_bd_2689_936" x="0.429402" y="0.823934" width="72.0634" height="59.1591" filterUnits="userSpaceOnUse" color-interpolation-filters="sRGB">
      <feFlood flood-opacity="0" result="BackgroundImageFix"/>
      <feGaussianBlur in="BackgroundImageFix" stdDeviation="5.85366"/>
      <feComposite in2="SourceAlpha" operator="in" result="effect1_backgroundBlur_2689_936"/>
      <feColorMatrix in="SourceAlpha" type="matrix" values="0 0 0 0 0 0 0 0 0 0 0 0 0 0 0 0 0 0 127 0" result="hardAlpha"/>
      <feOffset dx="5.85366" dy="5.85366"/>
      <feGaussianBlur stdDeviation="8.78049"/>
      <feComposite in2="hardAlpha" operator="out"/>
      <feColorMatrix type="matrix" values="0 0 0 0 0.0196078 0 0 0 0 0.6 0 0 0 0 0.290196 0 0 0 0.3 0"/>
      <feBlend mode="normal" in2="effect1_backgroundBlur_2689_936" result="effect2_dropShadow_2689_936"/>
      <feBlend mode="normal" in="SourceGraphic" in2="effect2_dropShadow_2689_936" result="shape"/>
    </filter>
    <filter id="filter1_b_2689_936" x="4.65854" y="23.807" width="25.679" height="25.5247" filterUnits="userSpaceOnUse" color-interpolation-filters="sRGB">
      <feFlood flood-opacity="0" result="BackgroundImageFix"/>
      <feGaussianBlur in="BackgroundImageFix" stdDeviation="1.17073"/>
      <feComposite in2="SourceAlpha" operator="in" result="effect1_backgroundBlur_2689_936"/>
      <feBlend mode="normal" in="SourceGraphic" in2="effect1_backgroundBlur_2689_936" result="shape"/>
    </filter>
    <linearGradient id="paint0_linear_2689_936" x1="48.3635" y1="36.5684" x2="25.3924" y2="-0.181894" gradientUnits="userSpaceOnUse">
      <stop offset="0.182224" stop-color="#2DE376" stop-opacity="0.5"/>
      <stop offset="0.640234" stop-color="#2DE376" stop-opacity="0.9"/>
    </linearGradient>
    <linearGradient id="paint1_linear_2689_936" x1="49.0781" y1="39.3653" x2="29.0904" y2="2.80038" gradientUnits="userSpaceOnUse">
      <stop offset="0.249921" stop-color="#2DE376"/>
      <stop offset="0.470896" stop-color="#2DE376" stop-opacity="0"/>
      <stop offset="0.816545" stop-color="#35C168"/>
    </linearGradient>
    <linearGradient id="paint2_linear_2689_936" x1="21.7482" y1="62.4937" x2="10.4346" y2="16.3017" gradientUnits="userSpaceOnUse">
      <stop offset="0.0822725" stop-color="#8566FF" stop-opacity="0.3"/>
      <stop offset="0.423605" stop-color="#5F38FB" stop-opacity="0.5"/>
      <stop offset="0.762303" stop-color="#5F38FB" stop-opacity="0.7"/>
    </linearGradient>
    <linearGradient id="paint3_linear_2689_936" x1="17.4976" y1="71.7958" x2="14.7929" y2="9.90058" gradientUnits="userSpaceOnUse">
      <stop offset="0.137498" stop-color="#AF9BFD"/>
      <stop offset="0.410212" stop-color="#5F38FB" stop-opacity="0"/>
      <stop offset="0.835001" stop-color="#5F38FB"/>
    </linearGradient>
  </defs>
</svg>