<svg width="384" height="284" viewBox="0 0 384 284" fill="none" xmlns="http://www.w3.org/2000/svg">
<g filter="url(#filter0_b_13_4)">
<g clip-path="url(#clip0_13_4)">
<rect width="384" height="284" rx="16" fill="#D0D9E3"/>
<g clip-path="url(#clip1_13_4)">
<path d="M239.468 115.438C241.186 115.438 242.578 114.658 242.578 113.696C242.578 112.734 241.186 111.954 239.468 111.954C237.751 111.954 236.358 112.734 236.358 113.696C236.358 114.658 237.751 115.438 239.468 115.438Z" fill="#5F38FB"/>
<path d="M150.009 203.909L174.111 189.687L242.219 229.404" stroke="#E8ECF1" stroke-width="2.05935" stroke-miterlimit="10"/>
<path d="M235.043 277.294L216.654 266.884L127.205 319.616L116.081 312.937" stroke="#E8ECF1" stroke-width="2.05935" stroke-miterlimit="10"/>
<path d="M235.043 277.294L216.654 266.884L127.205 319.616L116.081 312.937" stroke="url(#paint0_linear_13_4)" stroke-width="1.02967" stroke-miterlimit="10"/>
<path d="M339.018 267.336L294.975 242.215L235.045 277.294L269.812 297.363L177.871 350.769L203.145 364.875L224.522 353.975L269.928 377.438L284.268 369.554" stroke="#E8ECF1" stroke-width="2.05935" stroke-miterlimit="10"/>
<path d="M339.018 267.336L294.975 242.215L235.045 277.294L269.812 297.363L177.871 350.769L203.145 364.875L224.522 353.975L269.928 377.438L284.268 369.554" stroke="url(#paint1_linear_13_4)" stroke-width="1.02967" stroke-miterlimit="10"/>
<path d="M337.77 197.63L367.051 215.282L395.884 198.082L494.789 258.357" stroke="#EFEFEF" stroke-width="2.00272" stroke-miterlimit="10"/>
<path d="M248.001 177.713L317.07 136.755L261.227 101.675L243.291 111.859" stroke="#E8ECF1" stroke-width="2.05935" stroke-miterlimit="10"/>
<path d="M248.001 177.713L317.07 136.755L261.227 101.675L243.291 111.859" stroke="url(#paint2_linear_13_4)" stroke-width="1.02967" stroke-miterlimit="10"/>
<path d="M243.818 111.338C246.231 112.728 246.247 114.991 243.85 116.381C241.453 117.77 237.53 117.77 235.117 116.381C232.704 114.991 232.694 112.728 235.091 111.338C237.488 109.949 241.4 109.949 243.818 111.338ZM236.564 115.538C238.174 116.465 240.793 116.465 242.393 115.538C243.992 114.612 243.982 113.102 242.372 112.175C240.761 111.249 238.148 111.249 236.548 112.175C234.948 113.102 234.954 114.612 236.564 115.538Z" fill="#EFEFEF"/>
<path d="M462.461 189.214C462.461 189.314 462.45 189.408 462.44 189.508C462.429 189.593 462.418 189.677 462.408 189.766C462.392 189.861 462.382 189.961 462.36 190.056C462.345 190.14 462.323 190.229 462.308 190.314C462.286 190.408 462.265 190.503 462.239 190.598C462.218 190.682 462.191 190.772 462.165 190.856C462.133 190.95 462.107 191.045 462.07 191.14C462.038 191.224 462.007 191.308 461.975 191.393C461.938 191.493 461.896 191.587 461.848 191.687C461.811 191.772 461.774 191.851 461.732 191.935C461.685 192.035 461.632 192.129 461.579 192.229C461.537 192.308 461.495 192.387 461.447 192.466C461.378 192.582 461.31 192.698 461.231 192.814C461.183 192.882 461.141 192.951 461.093 193.024C461.009 193.151 460.914 193.277 460.819 193.398C460.776 193.451 460.74 193.508 460.697 193.561C460.539 193.761 460.37 193.956 460.19 194.151C460.143 194.198 460.095 194.251 460.048 194.298C459.905 194.445 459.757 194.593 459.604 194.735C459.536 194.803 459.462 194.866 459.393 194.935C459.303 195.019 459.208 195.098 459.113 195.182C459.024 195.256 458.934 195.33 458.844 195.403C458.744 195.482 458.643 195.561 458.538 195.64C458.443 195.714 458.348 195.787 458.248 195.856C458.142 195.935 458.031 196.008 457.915 196.087C457.815 196.156 457.709 196.23 457.603 196.298C457.487 196.372 457.371 196.445 457.25 196.524C457.102 196.619 456.954 196.709 456.796 196.798L283.035 297.463C282.613 297.71 282.169 297.937 281.715 298.153C281.599 298.21 281.478 298.263 281.356 298.321C280.95 298.51 280.533 298.684 280.105 298.853C280.047 298.874 279.994 298.9 279.936 298.921C279.477 299.095 279.007 299.253 278.532 299.4C278.204 299.505 277.866 299.595 277.528 299.684C277.275 299.753 277.022 299.826 276.763 299.889C276.409 299.974 276.045 300.047 275.686 300.121C275.422 300.174 275.163 300.232 274.899 300.279C274.788 300.3 274.683 300.316 274.572 300.332C274.123 300.405 273.674 300.468 273.22 300.521C273.088 300.537 272.956 300.553 272.824 300.568C272.296 300.626 271.768 300.668 271.24 300.7C271.14 300.705 271.045 300.711 270.945 300.716C270.396 300.742 269.847 300.758 269.297 300.763C269.245 300.763 269.192 300.763 269.134 300.763C268.722 300.763 268.315 300.747 267.904 300.732C267.576 300.721 267.244 300.7 266.916 300.679C266.615 300.658 266.314 300.632 266.013 300.605C265.686 300.574 265.364 300.537 265.042 300.495C264.609 300.442 264.181 300.384 263.754 300.316C263.722 300.316 263.69 300.305 263.659 300.3C263.12 300.205 262.587 300.095 262.059 299.979C261.974 299.958 261.89 299.942 261.806 299.921C261.309 299.805 260.818 299.668 260.338 299.526C260.201 299.484 260.063 299.442 259.926 299.4C259.525 299.274 259.129 299.137 258.738 298.995C258.627 298.953 258.511 298.916 258.4 298.874C258.046 298.737 257.703 298.584 257.36 298.432C257.191 298.358 257.022 298.289 256.853 298.21C256.362 297.979 255.882 297.732 255.422 297.463L169.104 247.783C165.256 245.567 163.334 242.662 163.339 239.757L163.223 281.521C163.212 284.426 165.139 287.331 168.988 289.547L255.306 339.227C255.766 339.49 256.246 339.738 256.737 339.974C256.901 340.053 257.075 340.122 257.244 340.195C257.534 340.327 257.825 340.459 258.126 340.58C258.178 340.601 258.231 340.617 258.284 340.638C258.395 340.68 258.511 340.722 258.622 340.759C259.013 340.901 259.409 341.038 259.81 341.164C259.947 341.206 260.084 341.248 260.222 341.29C260.317 341.317 260.406 341.348 260.501 341.374C260.892 341.485 261.293 341.585 261.695 341.68C261.779 341.701 261.864 341.717 261.948 341.738C262.143 341.785 262.339 341.827 262.539 341.869C262.872 341.938 263.21 342.001 263.553 342.059C263.585 342.064 263.616 342.069 263.648 342.074C263.923 342.122 264.203 342.164 264.477 342.206C264.63 342.227 264.783 342.238 264.936 342.259C265.258 342.301 265.586 342.338 265.908 342.369C266.066 342.385 266.219 342.406 266.372 342.422C266.515 342.432 266.663 342.438 266.811 342.443C267.138 342.464 267.471 342.485 267.798 342.496C267.962 342.501 268.131 342.517 268.294 342.522C268.537 342.527 268.78 342.527 269.028 342.527C269.081 342.527 269.134 342.527 269.192 342.527C269.561 342.527 269.931 342.522 270.295 342.511C270.475 342.506 270.654 342.496 270.834 342.485C270.934 342.485 271.029 342.474 271.129 342.469C271.573 342.443 272.016 342.411 272.46 342.369C272.544 342.359 272.629 342.348 272.713 342.338C272.845 342.322 272.977 342.306 273.109 342.29C273.563 342.238 274.017 342.174 274.461 342.101C274.572 342.085 274.677 342.069 274.788 342.048C274.841 342.038 274.894 342.032 274.947 342.022C275.158 341.985 275.364 341.932 275.575 341.89C275.939 341.817 276.298 341.748 276.652 341.659C276.911 341.596 277.164 341.522 277.418 341.453C277.756 341.364 278.093 341.269 278.421 341.169C278.489 341.148 278.563 341.132 278.637 341.106C279.038 340.974 279.434 340.838 279.825 340.685C279.883 340.664 279.936 340.638 279.994 340.617C280.422 340.448 280.834 340.274 281.245 340.085C281.367 340.027 281.483 339.974 281.604 339.917C282.053 339.701 282.497 339.474 282.924 339.227L456.685 238.562C456.764 238.515 456.843 238.467 456.922 238.42C456.996 238.378 457.065 238.33 457.133 238.283C457.255 238.209 457.371 238.136 457.487 238.057C457.593 237.988 457.698 237.915 457.799 237.846C457.91 237.767 458.02 237.694 458.131 237.615C458.232 237.541 458.327 237.472 458.422 237.399C458.527 237.32 458.628 237.241 458.728 237.157C458.818 237.083 458.907 237.009 458.997 236.936C459.092 236.851 459.187 236.772 459.282 236.688C459.319 236.657 459.362 236.62 459.398 236.588C459.435 236.557 459.462 236.525 459.494 236.493C459.647 236.346 459.794 236.204 459.937 236.057C459.985 236.009 460.032 235.957 460.08 235.909C460.259 235.715 460.428 235.52 460.586 235.32C460.592 235.309 460.602 235.304 460.608 235.293C460.644 235.246 460.676 235.199 460.713 235.151C460.808 235.025 460.898 234.904 460.988 234.778C461.035 234.709 461.077 234.636 461.125 234.567C461.199 234.451 461.273 234.341 461.336 234.225C461.352 234.193 461.378 234.162 461.394 234.13C461.421 234.083 461.442 234.036 461.468 233.988C461.521 233.893 461.568 233.793 461.621 233.699C461.663 233.614 461.7 233.536 461.737 233.451C461.78 233.351 461.822 233.257 461.864 233.157C461.88 233.114 461.901 233.067 461.922 233.025C461.938 232.983 461.949 232.946 461.964 232.904C461.996 232.809 462.028 232.72 462.059 232.625C462.086 232.541 462.112 232.451 462.133 232.367C462.16 232.272 462.181 232.178 462.202 232.083C462.213 232.03 462.228 231.978 462.239 231.93C462.244 231.893 462.25 231.862 462.255 231.825C462.271 231.73 462.286 231.63 462.302 231.535C462.313 231.451 462.329 231.367 462.334 231.278C462.345 231.178 462.35 231.083 462.355 230.983C462.355 230.925 462.366 230.867 462.366 230.809C462.366 230.751 462.366 230.693 462.366 230.641L462.482 188.877C462.482 188.993 462.471 189.103 462.466 189.219L462.461 189.214Z" fill="url(#paint3_linear_13_4)" stroke="#556578" stroke-width="0.386128" stroke-linecap="round" stroke-linejoin="round"/>
<path d="M456.712 180.845C464.362 185.25 464.399 192.387 456.802 196.787L283.042 297.452C275.439 301.858 263.084 301.858 255.429 297.452L169.111 247.772C161.461 243.372 161.418 236.235 169.021 231.83L342.776 131.16C350.374 126.76 362.739 126.76 370.389 131.16L456.707 180.84L456.712 180.845Z" fill="white" stroke="#556578" stroke-width="0.386128" stroke-miterlimit="10"/>
<path d="M253.533 180.177C255.998 181.598 256.014 183.903 253.564 185.319L244.441 190.603C241.991 192.024 238 192.024 235.529 190.603L226.348 185.319C223.882 183.898 223.866 181.592 226.316 180.177L235.439 174.892C237.889 173.471 241.88 173.471 244.346 174.892L253.527 180.177H253.533Z" stroke="#EFEFEF" stroke-width="2.00272" stroke-miterlimit="10"/>
<path d="M155.537 206.851C158.002 208.272 158.018 210.577 155.568 211.993L146.445 217.277C143.995 218.698 140.004 218.698 137.533 217.277L128.351 211.993C125.886 210.572 125.87 208.267 128.32 206.851L137.443 201.567C139.893 200.145 143.884 200.145 146.35 201.567L155.531 206.851H155.537Z" stroke="#E8ECF1" stroke-width="2.05935" stroke-miterlimit="10"/>
<path d="M463.994 215.919C463.476 215.619 462.933 215.335 462.399 215.046L372.961 266.52L318.612 296.926L405.437 352.185L464.157 319.353H464.168C513.232 290.631 513.248 244.457 463.988 215.919H463.994Z" fill="white" stroke="#556578" stroke-width="0.386128" stroke-miterlimit="10"/>
<path d="M221.611 209.324C223.676 208.119 226.199 208.014 228.359 209.03C235.518 212.409 253.063 219.856 271.668 221.461C292.697 223.277 307.993 221.819 315.801 220.651C319.809 220.051 323.9 220.777 327.459 222.714L355.563 238.025C358.229 239.478 358.276 243.278 355.642 244.794L277.898 289.552C272.355 292.742 265.528 292.752 259.974 289.579L176.623 241.925C174.194 240.536 174.179 237.051 176.591 235.641L221.611 209.319V209.324Z" fill="#DCE2EA"/>
<path d="M360.869 204.646L388.682 221.104C390.578 222.225 392.933 222.235 394.839 221.125L445.925 191.414C448.496 189.919 448.496 186.214 445.925 184.719L346.35 126.96L327.506 135.107L367.732 159.624C373.63 163.218 376.523 170.224 374.797 176.892C373.176 183.166 369.253 191.082 360.309 198.966C358.514 200.551 358.81 203.424 360.869 204.646Z" fill="#DCE2EA"/>
<path d="M372.11 131.223C372.147 143.955 363.72 156.702 346.841 166.413C345.933 166.934 345.009 167.439 344.069 167.934C343.98 167.982 343.895 168.029 343.811 168.071C342.918 168.539 342.005 168.992 341.086 169.434C340.954 169.497 340.822 169.56 340.69 169.624C339.787 170.05 338.874 170.466 337.95 170.871C337.797 170.939 337.644 171.003 337.491 171.071C336.567 171.466 335.638 171.855 334.693 172.229C334.508 172.303 334.328 172.371 334.144 172.445C333.531 172.682 332.913 172.918 332.29 173.145C332.137 173.203 331.984 173.261 331.826 173.318C331.071 173.592 330.316 173.855 329.55 174.113C329.365 174.176 329.181 174.234 329.001 174.297C328.383 174.503 327.76 174.703 327.132 174.903C326.931 174.966 326.726 175.029 326.525 175.092C325.744 175.334 324.962 175.566 324.175 175.792C323.996 175.845 323.816 175.892 323.632 175.945C323.13 176.087 322.628 176.224 322.122 176.361C321.868 176.429 321.615 176.492 321.361 176.561C320.918 176.676 320.48 176.787 320.031 176.897C319.756 176.966 319.487 177.029 319.213 177.097C318.78 177.203 318.341 177.303 317.903 177.403C317.629 177.466 317.354 177.529 317.085 177.587C316.631 177.687 316.177 177.787 315.717 177.882C315.459 177.934 315.2 177.992 314.941 178.045C314.54 178.129 314.144 178.203 313.743 178.282C313.463 178.334 313.188 178.392 312.909 178.445C312.476 178.524 312.043 178.603 311.615 178.682C311.367 178.724 311.113 178.771 310.865 178.819C310.321 178.913 309.778 179.003 309.229 179.087C309.086 179.108 308.949 179.134 308.806 179.155C308.12 179.266 307.428 179.366 306.737 179.466C306.694 179.471 306.652 179.476 306.61 179.482C305.285 179.666 303.949 179.834 302.613 179.987C302.539 179.998 302.465 180.003 302.391 180.008C301.087 180.15 299.783 180.276 298.474 180.387C298.183 180.413 297.893 180.434 297.603 180.455C297.228 180.487 296.848 180.513 296.473 180.54C296.156 180.561 295.839 180.582 295.523 180.598C295.148 180.619 294.773 180.645 294.398 180.666C294.081 180.682 293.759 180.698 293.442 180.713C293.067 180.729 292.698 180.75 292.323 180.766C292.001 180.777 291.679 180.787 291.357 180.803C290.987 180.813 290.618 180.829 290.248 180.84C289.937 180.85 289.625 180.855 289.308 180.861C288.907 180.871 288.511 180.877 288.11 180.882C287.798 180.882 287.482 180.887 287.17 180.892C286.774 180.892 286.378 180.892 285.982 180.892C285.665 180.892 285.349 180.892 285.032 180.892C284.641 180.892 284.245 180.887 283.854 180.877C283.538 180.877 283.221 180.866 282.904 180.861C282.513 180.85 282.117 180.84 281.727 180.829C281.42 180.819 281.114 180.808 280.808 180.798C280.328 180.782 279.842 180.761 279.361 180.734C279.097 180.724 278.833 180.713 278.569 180.698C277.994 180.666 277.424 180.634 276.853 180.598C276.685 180.587 276.516 180.577 276.341 180.566C275.602 180.519 274.863 180.461 274.124 180.403C273.934 180.387 273.744 180.371 273.559 180.35C273.01 180.303 272.461 180.255 271.912 180.198C271.685 180.176 271.463 180.15 271.236 180.129C270.608 180.066 269.979 179.998 269.351 179.924C269.113 179.898 268.876 179.871 268.638 179.84C267.841 179.745 267.039 179.64 266.247 179.529C266.225 179.529 266.21 179.529 266.188 179.524C265.375 179.413 264.562 179.287 263.755 179.161C263.522 179.124 263.295 179.087 263.063 179.05C262.445 178.95 261.833 178.845 261.215 178.74C260.983 178.698 260.75 178.661 260.518 178.619C260.133 178.55 259.747 178.476 259.362 178.403C259.071 178.345 258.781 178.292 258.491 178.234C258.095 178.155 257.704 178.076 257.308 177.992C257.028 177.934 256.754 177.876 256.474 177.819C256.057 177.729 255.645 177.634 255.233 177.545C254.98 177.487 254.726 177.434 254.478 177.376C253.998 177.266 253.517 177.15 253.037 177.034C252.857 176.992 252.678 176.95 252.498 176.903C251.844 176.74 251.189 176.571 250.539 176.397C250.386 176.355 250.233 176.313 250.08 176.271C249.584 176.14 249.088 176.003 248.591 175.861C248.354 175.792 248.121 175.724 247.889 175.655C247.483 175.534 247.071 175.419 246.669 175.297C246.411 175.219 246.147 175.134 245.888 175.055C245.513 174.94 245.138 174.824 244.763 174.703C244.568 174.64 244.378 174.576 244.183 174.513C243.612 174.329 243.048 174.14 242.483 173.945C242.261 173.866 242.039 173.792 241.817 173.713C241.2 173.497 240.593 173.276 239.98 173.05C239.864 173.008 239.748 172.966 239.632 172.924C238.919 172.655 238.211 172.376 237.509 172.097C237.319 172.024 237.134 171.945 236.944 171.866C236.411 171.65 235.883 171.429 235.36 171.203C235.149 171.113 234.943 171.024 234.737 170.934C234.114 170.661 233.497 170.382 232.879 170.097C232.81 170.066 232.742 170.034 232.678 170.008C232.002 169.692 231.337 169.371 230.672 169.039C230.482 168.945 230.297 168.85 230.112 168.755C229.616 168.503 229.125 168.25 228.634 167.992C228.444 167.892 228.254 167.792 228.064 167.692C227.42 167.345 226.776 166.992 226.142 166.629L226.237 199.245C226.865 199.608 227.509 199.956 228.154 200.303C228.344 200.403 228.534 200.503 228.724 200.603C229.209 200.861 229.706 201.114 230.202 201.366C230.387 201.461 230.572 201.556 230.762 201.651C231.422 201.977 232.092 202.303 232.763 202.619C232.831 202.651 232.9 202.682 232.969 202.714C233.581 202.998 234.199 203.277 234.822 203.545C235.028 203.635 235.239 203.724 235.445 203.814C235.967 204.04 236.495 204.261 237.029 204.477C237.219 204.556 237.404 204.635 237.594 204.709C238.296 204.993 239.003 205.266 239.716 205.535C239.832 205.577 239.948 205.619 240.065 205.661C240.672 205.888 241.284 206.109 241.902 206.324C242.124 206.403 242.345 206.477 242.567 206.556C243.132 206.751 243.697 206.94 244.267 207.124C244.399 207.166 244.526 207.214 244.658 207.256C244.721 207.277 244.785 207.293 244.843 207.314C245.218 207.435 245.592 207.551 245.973 207.666C246.231 207.745 246.49 207.83 246.749 207.909C247.155 208.03 247.562 208.151 247.974 208.267C248.206 208.335 248.438 208.403 248.676 208.472C249.177 208.614 249.684 208.751 250.191 208.888C250.334 208.924 250.476 208.967 250.624 209.003C251.273 209.177 251.928 209.345 252.588 209.509C252.762 209.551 252.942 209.593 253.116 209.635C253.596 209.751 254.082 209.872 254.568 209.982C254.816 210.04 255.069 210.093 255.323 210.151C255.735 210.245 256.146 210.335 256.564 210.424C256.843 210.482 257.123 210.54 257.398 210.598C257.788 210.677 258.179 210.761 258.575 210.84C258.866 210.898 259.161 210.951 259.457 211.009C259.837 211.082 260.222 211.156 260.603 211.224C260.692 211.24 260.782 211.261 260.872 211.277C261.014 211.303 261.162 211.324 261.305 211.351C261.917 211.456 262.53 211.561 263.142 211.661C263.374 211.698 263.607 211.735 263.839 211.772C264.647 211.898 265.455 212.019 266.268 212.135C266.294 212.135 266.315 212.14 266.342 212.146C267.134 212.256 267.926 212.356 268.723 212.451C268.96 212.477 269.198 212.509 269.436 212.535C270.064 212.609 270.687 212.677 271.315 212.74C271.463 212.756 271.611 212.772 271.759 212.788C271.838 212.798 271.917 212.803 272.001 212.809C272.551 212.861 273.094 212.909 273.643 212.956C273.833 212.972 274.024 212.993 274.214 213.009C274.953 213.072 275.692 213.124 276.431 213.172C276.6 213.182 276.764 213.193 276.933 213.203C277.508 213.24 278.078 213.272 278.654 213.303C278.923 213.319 279.187 213.33 279.456 213.34C279.937 213.361 280.417 213.382 280.898 213.398C281.019 213.398 281.141 213.409 281.262 213.414C281.447 213.419 281.632 213.424 281.816 213.43C282.207 213.44 282.598 213.451 282.994 213.461C283.311 213.467 283.627 213.472 283.944 213.477C284.335 213.482 284.731 213.488 285.121 213.493C285.438 213.493 285.755 213.493 286.072 213.493C286.468 213.493 286.859 213.493 287.254 213.493C287.571 213.493 287.888 213.493 288.2 213.482C288.596 213.482 288.992 213.472 289.387 213.461C289.599 213.461 289.815 213.456 290.026 213.451C290.127 213.451 290.232 213.446 290.333 213.44C290.702 213.43 291.066 213.419 291.436 213.403C291.758 213.393 292.085 213.382 292.407 213.367C292.777 213.351 293.152 213.335 293.521 213.314C293.844 213.298 294.166 213.282 294.482 213.267C294.857 213.246 295.232 213.224 295.607 213.198C295.924 213.177 296.235 213.161 296.552 213.14C296.932 213.114 297.312 213.082 297.692 213.056C297.946 213.035 298.199 213.019 298.453 212.998C298.49 212.998 298.521 212.993 298.558 212.988C299.868 212.877 301.172 212.751 302.471 212.609C302.545 212.598 302.618 212.593 302.698 212.588C304.033 212.44 305.369 212.272 306.694 212.082C306.721 212.082 306.747 212.077 306.768 212.072C306.784 212.072 306.8 212.072 306.811 212.067C307.502 211.967 308.194 211.867 308.885 211.756C309.023 211.735 309.165 211.709 309.303 211.688C309.852 211.598 310.401 211.509 310.944 211.414C311.187 211.372 311.436 211.324 311.678 211.282C312.117 211.203 312.555 211.124 312.993 211.046C313.268 210.993 313.542 210.94 313.822 210.882C314.223 210.803 314.63 210.724 315.031 210.645C315.105 210.63 315.184 210.614 315.258 210.598C315.443 210.561 315.622 210.519 315.807 210.482C316.261 210.388 316.72 210.288 317.175 210.188C317.449 210.124 317.724 210.061 317.998 210.003C318.436 209.903 318.869 209.803 319.308 209.698C319.582 209.635 319.857 209.567 320.126 209.498C320.569 209.388 321.013 209.277 321.456 209.161C321.71 209.098 321.963 209.03 322.217 208.967C322.724 208.83 323.23 208.693 323.737 208.551C323.89 208.509 324.043 208.467 324.197 208.424C324.223 208.419 324.244 208.409 324.27 208.403C325.062 208.177 325.844 207.945 326.625 207.703C326.826 207.64 327.032 207.577 327.232 207.514C327.861 207.319 328.484 207.114 329.101 206.909C329.286 206.845 329.466 206.788 329.65 206.724C330.416 206.466 331.176 206.198 331.926 205.93C332.079 205.872 332.232 205.814 332.385 205.761C333.008 205.535 333.626 205.298 334.239 205.061C334.355 205.014 334.471 204.972 334.587 204.93C334.656 204.903 334.719 204.872 334.788 204.845C335.727 204.472 336.662 204.087 337.586 203.687C337.739 203.619 337.892 203.556 338.045 203.487C338.969 203.082 339.883 202.666 340.785 202.24C340.917 202.177 341.049 202.114 341.181 202.051C342.1 201.608 343.013 201.156 343.906 200.687C343.99 200.64 344.08 200.593 344.164 200.551C345.104 200.056 346.028 199.551 346.936 199.029C363.81 189.319 372.242 176.566 372.205 163.839L372.11 131.223Z" fill="url(#paint4_linear_13_4)" stroke="#556578" stroke-width="0.386128" stroke-linecap="round" stroke-linejoin="round"/>
<path d="M347.585 96.7277L226.147 166.624C259.499 185.719 313.425 185.656 346.841 166.419C380.256 147.187 380.552 116.044 347.585 96.7277Z" fill="url(#paint5_linear_13_4)" stroke="#556578" stroke-width="0.386128" stroke-linecap="round" stroke-linejoin="round"/>
<path d="M239.246 214.656C239.278 214.461 239.304 214.272 239.336 214.077C239.346 213.988 239.368 213.893 239.378 213.804C239.378 213.782 239.378 213.756 239.383 213.735C239.436 213.325 239.473 212.919 239.505 212.514C239.51 212.425 239.515 212.34 239.521 212.256C239.547 211.84 239.563 211.43 239.563 211.019L239.405 156.113C239.394 151.613 237.794 148.439 235.218 146.95L217.858 136.891C220.435 138.386 222.034 141.555 222.045 146.055L222.203 200.961C222.203 201.366 222.187 201.782 222.161 202.198C222.161 202.282 222.15 202.372 222.145 202.456C222.119 202.861 222.077 203.266 222.024 203.677C222.008 203.793 221.992 203.903 221.976 204.019C221.95 204.214 221.923 204.403 221.886 204.598C221.865 204.73 221.839 204.856 221.818 204.988C221.786 205.172 221.749 205.361 221.712 205.545C221.691 205.651 221.67 205.751 221.644 205.856C221.538 206.33 221.422 206.809 221.29 207.288C221.269 207.367 221.248 207.445 221.221 207.524C221.105 207.93 220.984 208.34 220.846 208.745C220.836 208.782 220.825 208.819 220.809 208.856C220.677 209.256 220.53 209.651 220.382 210.046C220.345 210.146 220.308 210.246 220.266 210.34C220.134 210.672 220.002 211.003 219.859 211.335C219.838 211.388 219.812 211.446 219.79 211.498C219.632 211.867 219.458 212.235 219.284 212.598C219.236 212.693 219.189 212.788 219.146 212.882C219.004 213.172 218.856 213.461 218.708 213.746C218.661 213.835 218.618 213.925 218.571 214.009C218.381 214.367 218.18 214.725 217.974 215.072C217.937 215.135 217.895 215.204 217.858 215.267C217.679 215.572 217.488 215.877 217.298 216.177C217.24 216.267 217.188 216.351 217.129 216.44C216.892 216.804 216.649 217.167 216.401 217.525C216.364 217.577 216.322 217.635 216.285 217.688C216.026 218.056 215.757 218.414 215.482 218.772C215.445 218.819 215.414 218.861 215.377 218.909C215.033 219.351 214.68 219.777 214.315 220.198C214.268 220.251 214.226 220.304 214.178 220.356C213.946 220.619 213.714 220.883 213.476 221.135C213.476 221.135 213.476 221.135 213.471 221.14C213.228 221.398 212.985 221.646 212.737 221.888C212.684 221.941 212.626 221.993 212.573 222.046C212.251 222.362 211.924 222.662 211.591 222.956C211.565 222.983 211.538 223.004 211.507 223.03C211.163 223.33 210.815 223.614 210.461 223.893C210.393 223.946 210.329 223.998 210.261 224.051C209.912 224.319 209.564 224.572 209.21 224.814C209.147 224.856 209.083 224.898 209.02 224.941C208.65 225.188 208.275 225.425 207.895 225.646C207.589 225.82 207.288 225.977 206.992 226.13C206.908 226.172 206.818 226.214 206.734 226.256C206.507 226.367 206.28 226.467 206.058 226.567C205.979 226.604 205.894 226.641 205.815 226.672C205.604 226.756 205.398 226.835 205.192 226.909C205.134 226.93 205.081 226.951 205.023 226.972C204.764 227.062 204.506 227.141 204.252 227.209C204.094 227.251 203.941 227.288 203.782 227.325C203.719 227.341 203.656 227.356 203.592 227.372C203.376 227.42 203.159 227.462 202.943 227.493C202.922 227.493 202.906 227.493 202.885 227.498C202.7 227.525 202.515 227.546 202.336 227.562C202.272 227.567 202.204 227.572 202.14 227.577C202.024 227.588 201.908 227.593 201.797 227.593C201.517 227.604 201.238 227.604 200.963 227.588C200.916 227.588 200.873 227.577 200.831 227.577C200.609 227.562 200.393 227.535 200.176 227.498C200.108 227.488 200.044 227.477 199.976 227.467C199.733 227.42 199.49 227.367 199.258 227.304C199.252 227.304 199.242 227.304 199.237 227.299C199.01 227.235 198.793 227.151 198.577 227.067C198.513 227.041 198.455 227.014 198.397 226.988C198.218 226.909 198.038 226.825 197.864 226.73C197.806 226.698 197.748 226.672 197.695 226.641L215.055 236.699C215.055 236.699 215.107 236.73 215.134 236.746C215.165 236.762 215.197 236.772 215.224 236.793C215.398 236.888 215.572 236.972 215.757 237.051C215.788 237.067 215.82 237.083 215.857 237.099C215.883 237.109 215.915 237.12 215.942 237.13C216.158 237.214 216.374 237.293 216.596 237.362C216.602 237.362 216.607 237.362 216.617 237.367C216.85 237.436 217.093 237.488 217.335 237.53C217.362 237.536 217.393 237.546 217.42 237.551C217.457 237.557 217.494 237.557 217.531 237.567C217.747 237.599 217.964 237.625 218.185 237.646C218.217 237.646 218.249 237.657 218.286 237.657C218.296 237.657 218.307 237.657 218.323 237.657C218.597 237.672 218.872 237.672 219.157 237.662C219.183 237.662 219.21 237.662 219.241 237.662C219.326 237.662 219.416 237.651 219.505 237.641C219.569 237.641 219.637 237.63 219.701 237.625C219.88 237.609 220.065 237.588 220.25 237.562C220.271 237.562 220.287 237.562 220.308 237.557C220.308 237.557 220.308 237.557 220.313 237.557C220.524 237.525 220.741 237.483 220.952 237.436C221.015 237.42 221.079 237.404 221.142 237.388C221.285 237.357 221.427 237.325 221.575 237.283C221.586 237.283 221.601 237.272 221.612 237.272C221.865 237.204 222.124 237.125 222.383 237.036C222.436 237.014 222.494 236.993 222.552 236.972C222.758 236.899 222.964 236.82 223.175 236.736C223.201 236.725 223.233 236.714 223.259 236.704C223.312 236.683 223.365 236.657 223.418 236.63C223.645 236.536 223.866 236.43 224.093 236.32C224.178 236.278 224.268 236.236 224.352 236.193C224.653 236.041 224.954 235.883 225.255 235.709C225.635 235.493 226.01 235.251 226.38 235.004C226.443 234.962 226.506 234.92 226.57 234.878C226.923 234.635 227.277 234.383 227.62 234.114C227.689 234.062 227.752 234.009 227.821 233.957C228.175 233.678 228.523 233.393 228.866 233.093C228.893 233.067 228.919 233.046 228.945 233.02C229.278 232.725 229.605 232.42 229.927 232.109C229.959 232.078 229.996 232.046 230.028 232.014C230.049 231.993 230.07 231.972 230.091 231.951C230.339 231.709 230.582 231.456 230.825 231.204C230.825 231.204 230.825 231.204 230.83 231.199C231.068 230.946 231.305 230.683 231.533 230.42C231.554 230.399 231.575 230.378 231.596 230.351C231.622 230.32 231.649 230.288 231.67 230.256C232.034 229.841 232.388 229.409 232.731 228.967C232.742 228.956 232.752 228.946 232.763 228.93C232.789 228.899 232.81 228.862 232.837 228.83C233.111 228.477 233.375 228.114 233.639 227.746C233.666 227.709 233.692 227.672 233.718 227.635C233.729 227.62 233.739 227.599 233.755 227.583C234.003 227.225 234.246 226.867 234.484 226.498C234.505 226.462 234.531 226.43 234.552 226.393C234.584 226.341 234.616 226.288 234.648 226.235C234.838 225.935 235.028 225.63 235.207 225.325C235.234 225.277 235.265 225.23 235.292 225.183C235.302 225.167 235.313 225.146 235.323 225.13C235.529 224.777 235.725 224.425 235.92 224.067C235.936 224.035 235.952 224.009 235.967 223.977C235.999 223.919 236.026 223.856 236.057 223.798C236.205 223.514 236.353 223.225 236.495 222.935C236.527 222.877 236.559 222.819 236.585 222.756C236.601 222.719 236.617 222.688 236.633 222.651C236.807 222.288 236.976 221.919 237.14 221.551C237.145 221.54 237.15 221.525 237.155 221.514C237.171 221.472 237.187 221.43 237.208 221.388C237.351 221.056 237.488 220.725 237.62 220.388C237.641 220.335 237.668 220.277 237.689 220.225C237.704 220.183 237.72 220.135 237.736 220.093C237.889 219.698 238.032 219.298 238.164 218.904C238.164 218.893 238.169 218.883 238.174 218.877C238.185 218.851 238.19 218.825 238.201 218.793C238.338 218.388 238.459 217.977 238.576 217.572C238.591 217.519 238.607 217.472 238.623 217.419C238.628 217.393 238.634 217.367 238.644 217.34C238.776 216.861 238.892 216.388 238.998 215.909C239.009 215.867 239.019 215.825 239.03 215.782C239.04 215.725 239.051 215.661 239.067 215.604C239.104 215.419 239.141 215.23 239.172 215.046C239.193 214.914 239.22 214.788 239.241 214.656H239.246Z" fill="#BCBCBC"/>
<path d="M210.841 211.83C210.851 211.646 210.862 211.461 210.872 211.277C210.878 211.182 210.888 211.088 210.894 210.993C210.909 210.809 210.931 210.63 210.952 210.445C210.962 210.356 210.973 210.272 210.983 210.182C210.999 210.056 211.02 209.924 211.036 209.798C211.063 209.609 211.089 209.419 211.121 209.224C211.142 209.093 211.168 208.967 211.189 208.835C211.221 208.651 211.258 208.467 211.295 208.277C211.327 208.13 211.358 207.982 211.39 207.835C211.416 207.709 211.448 207.588 211.474 207.461C211.511 207.298 211.554 207.135 211.596 206.972C211.627 206.851 211.659 206.724 211.691 206.603C211.717 206.503 211.749 206.409 211.775 206.309C211.891 205.898 212.018 205.488 212.15 205.082C212.161 205.051 212.171 205.019 212.182 204.987C212.314 204.593 212.456 204.198 212.61 203.803C212.646 203.703 212.683 203.603 212.726 203.509C212.858 203.177 212.995 202.84 213.137 202.509C213.159 202.456 213.18 202.408 213.201 202.356C213.359 201.987 213.528 201.624 213.702 201.261C213.75 201.166 213.797 201.072 213.84 200.977C213.982 200.687 214.125 200.403 214.278 200.119C214.325 200.03 214.368 199.945 214.415 199.856C214.605 199.498 214.801 199.145 215.007 198.798C215.043 198.735 215.086 198.666 215.123 198.603C215.302 198.298 215.487 197.998 215.677 197.698C215.73 197.608 215.788 197.524 215.846 197.435C216.078 197.072 216.321 196.714 216.569 196.361C216.606 196.308 216.643 196.256 216.685 196.203C216.944 195.84 217.208 195.482 217.477 195.129C217.514 195.082 217.546 195.035 217.583 194.987C217.921 194.55 218.275 194.129 218.634 193.714C218.681 193.661 218.729 193.603 218.776 193.55C218.998 193.298 219.22 193.05 219.447 192.814C219.457 192.798 219.473 192.787 219.484 192.771C219.721 192.519 219.964 192.271 220.212 192.029C220.371 191.871 220.529 191.719 220.687 191.571C220.73 191.529 220.772 191.492 220.814 191.45C221.02 191.256 221.231 191.066 221.442 190.882C221.501 190.829 221.559 190.782 221.617 190.735C221.77 190.603 221.928 190.471 222.087 190.34C222.166 190.277 222.245 190.214 222.324 190.15C222.461 190.04 222.604 189.929 222.747 189.824C222.831 189.761 222.915 189.698 223 189.635C223.137 189.529 223.28 189.429 223.422 189.329C223.507 189.271 223.591 189.208 223.676 189.15C223.829 189.045 223.982 188.945 224.135 188.845C224.209 188.798 224.283 188.75 224.352 188.703C224.579 188.561 224.806 188.419 225.038 188.287C225.344 188.113 225.645 187.956 225.941 187.803C226.025 187.761 226.115 187.719 226.199 187.677C226.426 187.566 226.654 187.461 226.881 187.366C226.96 187.335 227.039 187.298 227.118 187.266C227.329 187.182 227.541 187.103 227.752 187.024C227.805 187.008 227.857 186.982 227.905 186.966C228.164 186.877 228.422 186.798 228.676 186.729C228.823 186.687 228.971 186.656 229.119 186.619C229.188 186.603 229.262 186.582 229.33 186.566C229.547 186.519 229.763 186.477 229.974 186.445C229.98 186.445 229.99 186.445 229.996 186.445C230.191 186.413 230.386 186.392 230.576 186.377C230.64 186.371 230.703 186.366 230.766 186.361C230.904 186.35 231.041 186.345 231.178 186.34C231.242 186.34 231.3 186.34 231.358 186.34C231.5 186.34 231.638 186.34 231.78 186.345C231.828 186.345 231.875 186.345 231.928 186.345C231.981 186.345 232.034 186.356 232.086 186.361C232.303 186.377 232.519 186.403 232.73 186.434C232.799 186.445 232.862 186.456 232.926 186.466C233.169 186.508 233.406 186.561 233.639 186.629C233.649 186.629 233.66 186.635 233.67 186.64C233.892 186.703 234.103 186.782 234.314 186.866C234.378 186.892 234.436 186.919 234.494 186.945C234.673 187.024 234.848 187.108 235.022 187.203C235.08 187.235 235.138 187.261 235.191 187.292L220.123 178.561C220.123 178.561 220.07 178.529 220.043 178.519C220.012 178.503 219.98 178.492 219.954 178.471C219.785 178.376 219.605 178.292 219.426 178.213C219.394 178.197 219.362 178.182 219.325 178.166C219.299 178.155 219.267 178.145 219.241 178.134C219.03 178.05 218.818 177.971 218.597 177.908C218.586 177.908 218.581 177.903 218.57 177.897C218.57 177.897 218.57 177.897 218.565 177.897C218.333 177.829 218.095 177.776 217.852 177.734C217.826 177.734 217.799 177.719 217.768 177.713C217.731 177.708 217.689 177.708 217.652 177.697C217.44 177.666 217.224 177.64 217.008 177.624C216.971 177.624 216.939 177.613 216.902 177.613C216.881 177.613 216.865 177.613 216.844 177.613C216.796 177.613 216.749 177.613 216.696 177.613C216.559 177.608 216.416 177.608 216.274 177.608C216.216 177.608 216.152 177.608 216.094 177.608C216.047 177.608 215.999 177.608 215.952 177.608C215.862 177.608 215.772 177.619 215.682 177.629C215.619 177.629 215.556 177.634 215.492 177.645C215.302 177.661 215.107 177.687 214.911 177.713C214.906 177.713 214.896 177.713 214.89 177.713C214.679 177.745 214.463 177.787 214.246 177.834C214.178 177.85 214.109 177.871 214.035 177.887C213.903 177.919 213.766 177.95 213.634 177.987C213.618 177.987 213.607 177.997 213.592 177.997C213.338 178.066 213.079 178.145 212.821 178.234C212.768 178.25 212.715 178.271 212.668 178.292C212.456 178.366 212.25 178.445 212.034 178.534C212.008 178.545 211.976 178.555 211.95 178.566C211.897 178.587 211.844 178.613 211.791 178.634C211.564 178.729 211.337 178.834 211.11 178.945C211.026 178.987 210.936 179.029 210.851 179.071C210.55 179.224 210.249 179.382 209.949 179.555C209.716 179.687 209.489 179.829 209.262 179.971C209.188 180.019 209.114 180.066 209.046 180.113C208.893 180.213 208.739 180.313 208.586 180.419C208.502 180.476 208.417 180.534 208.333 180.598C208.19 180.698 208.053 180.798 207.911 180.903C207.826 180.966 207.742 181.029 207.657 181.092C207.515 181.198 207.377 181.308 207.235 181.419C207.156 181.482 207.076 181.545 206.997 181.608C206.839 181.74 206.68 181.871 206.527 182.003C206.469 182.05 206.411 182.098 206.353 182.15C206.142 182.334 205.931 182.524 205.72 182.719C205.677 182.755 205.635 182.798 205.598 182.834C205.456 182.966 205.318 183.098 205.181 183.234C205.16 183.255 205.144 183.277 205.123 183.298C204.875 183.54 204.632 183.787 204.394 184.04C204.378 184.056 204.368 184.071 204.352 184.087C204.125 184.329 203.903 184.571 203.687 184.824C203.666 184.85 203.645 184.871 203.623 184.892C203.597 184.924 203.571 184.956 203.544 184.987C203.185 185.403 202.837 185.824 202.494 186.261C202.483 186.271 202.472 186.287 202.462 186.298C202.436 186.335 202.409 186.366 202.383 186.403C202.113 186.756 201.849 187.113 201.591 187.477C201.564 187.513 201.538 187.545 201.512 187.582C201.501 187.598 201.49 187.619 201.475 187.635C201.226 187.987 200.989 188.345 200.751 188.708C200.73 188.745 200.704 188.777 200.683 188.813C200.651 188.866 200.619 188.919 200.582 188.971C200.392 189.271 200.207 189.571 200.028 189.871C200.002 189.919 199.97 189.966 199.944 190.014C199.933 190.029 199.922 190.05 199.912 190.066C199.706 190.414 199.511 190.766 199.321 191.124C199.305 191.15 199.289 191.182 199.273 191.208C199.241 191.266 199.215 191.324 199.183 191.387C199.035 191.671 198.888 191.956 198.75 192.245C198.719 192.303 198.687 192.361 198.661 192.424C198.645 192.461 198.629 192.498 198.613 192.529C198.439 192.893 198.27 193.256 198.111 193.624C198.111 193.635 198.101 193.645 198.096 193.661C198.08 193.703 198.064 193.74 198.048 193.782C197.906 194.114 197.768 194.445 197.642 194.777C197.62 194.829 197.594 194.882 197.578 194.94C197.562 194.987 197.547 195.029 197.531 195.077C197.383 195.472 197.235 195.866 197.103 196.261C197.103 196.266 197.098 196.277 197.092 196.282C197.087 196.303 197.077 196.329 197.071 196.35C196.934 196.761 196.813 197.166 196.696 197.577C196.681 197.629 196.665 197.677 196.649 197.729C196.638 197.777 196.623 197.824 196.612 197.872C196.58 197.993 196.549 198.119 196.517 198.24C196.475 198.403 196.433 198.566 196.396 198.729C196.364 198.856 196.337 198.982 196.311 199.103C196.29 199.187 196.269 199.277 196.253 199.361C196.242 199.424 196.232 199.482 196.216 199.545C196.179 199.735 196.142 199.919 196.11 200.103C196.089 200.23 196.063 200.361 196.042 200.487C196.01 200.677 195.984 200.872 195.957 201.061C195.947 201.151 195.926 201.24 195.915 201.33C195.915 201.366 195.905 201.403 195.905 201.445C195.894 201.535 195.883 201.619 195.873 201.708C195.852 201.893 195.836 202.072 195.815 202.256C195.804 202.351 195.799 202.445 195.794 202.54C195.778 202.724 195.767 202.909 195.762 203.093C195.762 203.177 195.751 203.256 195.751 203.34C195.741 203.603 195.736 203.861 195.736 204.124L195.778 219.319C195.788 223.804 197.378 226.962 199.944 228.446L215.012 237.178C212.451 235.693 210.862 232.535 210.846 228.051L210.804 212.856C210.804 212.598 210.804 212.335 210.82 212.072C210.82 211.988 210.83 211.909 210.83 211.824L210.841 211.83Z" fill="#DCE2EA" stroke="#556578" stroke-width="0.422167" stroke-linecap="round" stroke-linejoin="round"/>
<path d="M225.039 188.298C232.922 183.761 239.331 187.403 239.358 196.429L239.4 211.624C239.426 220.651 233.059 231.651 225.176 236.188C217.294 240.725 210.884 237.083 210.858 228.056L210.816 212.861C210.789 203.83 217.156 192.835 225.039 188.298Z" fill="url(#paint6_linear_13_4)" stroke="#556578" stroke-width="0.386128" stroke-linecap="round" stroke-linejoin="round"/>
<path d="M218.771 235.193C214.315 235.193 213.819 230.193 213.814 228.046L213.772 212.851C213.75 204.914 219.585 194.84 226.517 190.85C228.286 189.829 229.991 189.293 231.443 189.293C235.899 189.293 236.395 194.293 236.4 196.44L236.443 211.635C236.464 219.572 230.63 229.646 223.697 233.636C221.929 234.651 220.223 235.193 218.771 235.193Z" fill="white" stroke="#556578" stroke-width="0.386128" stroke-miterlimit="10"/>
<path d="M208.645 172.645C208.655 172.434 208.666 172.224 208.682 172.013C208.692 171.903 208.698 171.797 208.708 171.687C208.729 171.476 208.75 171.266 208.772 171.055C208.782 170.955 208.793 170.855 208.808 170.75C208.824 170.603 208.851 170.455 208.872 170.308C208.904 170.087 208.935 169.866 208.972 169.645C208.999 169.497 209.025 169.35 209.051 169.197C209.088 168.982 209.131 168.771 209.173 168.555C209.21 168.387 209.247 168.213 209.284 168.039C209.315 167.897 209.347 167.755 209.384 167.608C209.431 167.418 209.479 167.234 209.527 167.045C209.563 166.903 209.6 166.766 209.637 166.624C209.669 166.508 209.701 166.397 209.732 166.282C209.864 165.813 210.007 165.339 210.165 164.871C210.176 164.834 210.186 164.797 210.202 164.76C210.355 164.303 210.519 163.85 210.693 163.397C210.736 163.282 210.783 163.171 210.825 163.055C210.973 162.671 211.132 162.287 211.295 161.908C211.322 161.85 211.343 161.792 211.369 161.734C211.554 161.313 211.749 160.892 211.95 160.471C212.003 160.36 212.056 160.255 212.108 160.145C212.272 159.813 212.436 159.487 212.61 159.16C212.663 159.06 212.715 158.955 212.768 158.855C212.99 158.445 213.217 158.039 213.449 157.639C213.492 157.566 213.539 157.492 213.587 157.413C213.793 157.06 214.009 156.718 214.225 156.371C214.289 156.271 214.352 156.171 214.416 156.071C214.685 155.655 214.965 155.239 215.244 154.834C215.287 154.771 215.334 154.713 215.376 154.65C215.672 154.229 215.978 153.818 216.29 153.413C216.332 153.36 216.374 153.302 216.411 153.25C216.802 152.75 217.208 152.26 217.62 151.781C217.673 151.718 217.731 151.655 217.784 151.592C218.037 151.302 218.296 151.018 218.555 150.739C218.571 150.723 218.586 150.708 218.597 150.692C218.872 150.397 219.151 150.113 219.437 149.834C219.616 149.655 219.796 149.481 219.98 149.308C220.033 149.26 220.081 149.213 220.133 149.16C220.371 148.939 220.614 148.718 220.857 148.508C220.92 148.45 220.989 148.397 221.057 148.339C221.237 148.186 221.416 148.029 221.601 147.881C221.691 147.808 221.781 147.739 221.87 147.665C222.034 147.539 222.193 147.408 222.356 147.286C222.451 147.213 222.552 147.139 222.652 147.065C222.816 146.944 222.974 146.829 223.138 146.713C223.233 146.644 223.333 146.576 223.428 146.507C223.602 146.386 223.782 146.271 223.956 146.155C224.04 146.102 224.125 146.044 224.209 145.992C224.473 145.829 224.732 145.665 224.996 145.513C225.345 145.313 225.693 145.129 226.036 144.955C226.136 144.902 226.237 144.855 226.332 144.807C226.596 144.681 226.854 144.56 227.113 144.45C227.203 144.413 227.298 144.371 227.388 144.334C227.631 144.234 227.873 144.144 228.116 144.06C228.174 144.039 228.238 144.013 228.296 143.992C228.597 143.892 228.892 143.797 229.183 143.718C229.352 143.671 229.521 143.634 229.69 143.592C229.769 143.571 229.853 143.55 229.933 143.534C230.181 143.481 230.429 143.434 230.677 143.397C230.688 143.397 230.693 143.397 230.703 143.397C230.93 143.365 231.152 143.339 231.374 143.318C231.448 143.313 231.522 143.307 231.59 143.302C231.749 143.292 231.907 143.281 232.066 143.276C232.134 143.276 232.203 143.276 232.277 143.276C232.44 143.276 232.599 143.276 232.762 143.281C232.821 143.281 232.873 143.281 232.931 143.286C232.995 143.286 233.053 143.297 233.116 143.302C233.37 143.323 233.613 143.35 233.861 143.386C233.935 143.397 234.014 143.407 234.088 143.423C234.368 143.476 234.642 143.534 234.911 143.613C234.922 143.613 234.938 143.623 234.948 143.623C235.202 143.697 235.45 143.786 235.687 143.881C235.756 143.907 235.83 143.939 235.899 143.971C236.105 144.06 236.305 144.16 236.506 144.265C236.569 144.302 236.638 144.334 236.701 144.371L219.341 134.313C219.31 134.297 219.283 134.276 219.252 134.26C219.215 134.239 219.178 134.228 219.146 134.207C218.951 134.102 218.745 134.002 218.539 133.913C218.502 133.897 218.465 133.876 218.428 133.86C218.396 133.844 218.365 133.839 218.333 133.823C218.09 133.728 217.847 133.639 217.594 133.565C217.583 133.565 217.573 133.56 217.562 133.555C217.562 133.555 217.562 133.555 217.557 133.555C217.288 133.476 217.013 133.418 216.733 133.365C216.702 133.36 216.67 133.349 216.638 133.344C216.596 133.339 216.549 133.334 216.506 133.328C216.263 133.291 216.015 133.26 215.762 133.244C215.72 133.244 215.683 133.234 215.64 133.228C215.619 133.228 215.598 133.228 215.577 133.228C215.524 133.228 215.466 133.228 215.408 133.223C215.25 133.218 215.086 133.212 214.922 133.218C214.854 133.218 214.785 133.218 214.711 133.218C214.658 133.218 214.606 133.218 214.548 133.218C214.447 133.218 214.342 133.234 214.236 133.239C214.162 133.244 214.093 133.249 214.02 133.255C213.798 133.276 213.576 133.302 213.349 133.334C213.338 133.334 213.333 133.334 213.323 133.334C213.08 133.37 212.832 133.418 212.583 133.47C212.504 133.486 212.42 133.512 212.341 133.528C212.187 133.565 212.034 133.597 211.876 133.639C211.86 133.639 211.844 133.649 211.828 133.655C211.538 133.734 211.242 133.823 210.941 133.928C210.883 133.949 210.82 133.976 210.762 133.997C210.519 134.081 210.282 134.17 210.033 134.27C210.002 134.286 209.97 134.291 209.938 134.307C209.88 134.334 209.817 134.365 209.759 134.391C209.5 134.502 209.236 134.623 208.977 134.749C208.877 134.797 208.782 134.844 208.682 134.897C208.339 135.07 207.99 135.255 207.642 135.455C207.378 135.607 207.114 135.765 206.855 135.934C206.771 135.986 206.686 136.044 206.602 136.097C206.422 136.213 206.248 136.328 206.074 136.449C205.979 136.518 205.878 136.586 205.783 136.655C205.62 136.77 205.456 136.886 205.297 137.007C205.197 137.081 205.102 137.155 205.002 137.228C204.838 137.355 204.674 137.481 204.516 137.607C204.426 137.681 204.337 137.749 204.247 137.823C204.062 137.97 203.883 138.123 203.703 138.281C203.634 138.339 203.571 138.392 203.502 138.449C203.26 138.665 203.017 138.881 202.774 139.102C202.726 139.149 202.673 139.197 202.626 139.244C202.468 139.397 202.304 139.544 202.146 139.702C202.124 139.723 202.098 139.749 202.077 139.771C201.792 140.049 201.512 140.334 201.237 140.628C201.222 140.644 201.206 140.66 201.195 140.676C200.936 140.955 200.678 141.239 200.424 141.528C200.398 141.555 200.377 141.581 200.35 141.607C200.319 141.644 200.292 141.681 200.261 141.718C199.849 142.197 199.442 142.681 199.052 143.186C199.041 143.202 199.025 143.213 199.015 143.228C198.983 143.265 198.957 143.307 198.925 143.35C198.613 143.755 198.307 144.165 198.011 144.586C197.98 144.629 197.948 144.665 197.922 144.707C197.906 144.729 197.895 144.75 197.88 144.765C197.594 145.171 197.32 145.586 197.045 146.002C197.019 146.044 196.993 146.081 196.966 146.123C196.929 146.181 196.892 146.244 196.855 146.307C196.639 146.65 196.428 146.997 196.216 147.35C196.185 147.402 196.148 147.46 196.116 147.513C196.106 147.534 196.095 147.555 196.079 147.576C195.847 147.976 195.62 148.386 195.398 148.797C195.382 148.829 195.361 148.86 195.345 148.897C195.308 148.965 195.277 149.034 195.24 149.102C195.065 149.429 194.902 149.76 194.738 150.092C194.706 150.16 194.669 150.229 194.632 150.297C194.611 150.339 194.596 150.381 194.574 150.418C194.374 150.834 194.178 151.255 193.994 151.676C193.988 151.692 193.983 151.702 193.978 151.718C193.957 151.765 193.941 151.813 193.92 151.855C193.756 152.234 193.598 152.618 193.45 153.002C193.423 153.066 193.397 153.129 193.376 153.187C193.355 153.239 193.339 153.292 193.318 153.344C193.144 153.797 192.98 154.25 192.827 154.708C192.827 154.718 192.822 154.723 192.816 154.734C192.806 154.76 192.8 154.792 192.79 154.818C192.637 155.287 192.494 155.76 192.357 156.229C192.341 156.287 192.32 156.345 192.304 156.402C192.288 156.455 192.278 156.513 192.262 156.566C192.225 156.708 192.188 156.85 192.151 156.992C192.104 157.181 192.056 157.366 192.008 157.555C191.977 157.697 191.94 157.845 191.908 157.987C191.887 158.087 191.861 158.187 191.84 158.287C191.824 158.355 191.813 158.429 191.797 158.497C191.755 158.713 191.713 158.924 191.676 159.139C191.649 159.287 191.623 159.439 191.597 159.587C191.56 159.808 191.528 160.029 191.496 160.245C191.481 160.35 191.465 160.455 191.449 160.555C191.444 160.597 191.438 160.645 191.433 160.687C191.422 160.787 191.412 160.887 191.401 160.987C191.375 161.197 191.354 161.408 191.338 161.618C191.327 161.724 191.322 161.834 191.312 161.939C191.296 162.15 191.285 162.366 191.275 162.576C191.275 162.671 191.264 162.766 191.259 162.86C191.248 163.16 191.243 163.46 191.243 163.76L191.401 218.667C191.417 223.835 193.244 227.467 196.195 229.178L213.555 239.236C210.604 237.525 208.772 233.893 208.761 228.725L208.603 173.819C208.603 173.519 208.608 173.219 208.618 172.919C208.618 172.824 208.629 172.729 208.634 172.634L208.645 172.645Z" fill="url(#paint7_linear_13_4)" stroke="#556578" stroke-width="0.386128" stroke-linecap="round" stroke-linejoin="round"/>
<path d="M225.002 145.534C234.083 140.307 241.464 144.502 241.495 154.902L241.654 209.809C241.685 220.209 234.347 232.878 225.266 238.104C216.19 243.33 208.803 239.136 208.772 228.735L208.613 173.829C208.582 163.429 215.921 150.76 225.002 145.534ZM239.558 211.019L239.399 156.113C239.373 147.05 232.916 143.381 225.007 147.939C217.098 152.492 210.683 163.566 210.709 172.629L210.868 227.535C210.894 236.593 217.351 240.262 225.255 235.709C233.164 231.157 239.579 220.083 239.552 211.025" fill="white"/>
<path d="M239.558 211.019L239.399 156.113C239.373 147.05 232.916 143.381 225.007 147.939C217.098 152.492 210.683 163.566 210.709 172.629L210.868 227.535C210.894 236.593 217.351 240.262 225.255 235.709C233.164 231.157 239.579 220.083 239.552 211.025M225.002 145.534C234.083 140.307 241.464 144.502 241.495 154.902L241.654 209.809C241.685 220.209 234.347 232.878 225.266 238.104C216.19 243.33 208.803 239.136 208.772 228.735L208.613 173.829C208.582 163.429 215.921 150.76 225.002 145.534Z" stroke="#556578" stroke-width="0.386128" stroke-miterlimit="10"/>
<path d="M221.591 203.214C219.933 204.166 218.597 206.482 218.602 208.377C218.608 210.277 219.954 211.045 221.612 210.093L229.896 205.324C231.553 204.372 232.889 202.056 232.884 200.161C232.879 198.261 231.532 197.493 229.874 198.445L221.591 203.214Z" fill="#010E3E"/>
<path d="M202.869 198.24C204.321 199.077 205.488 201.093 205.483 202.756L205.441 218.083C205.441 219.746 204.258 220.414 202.811 219.577L196.534 215.962C195.082 215.125 193.91 213.104 193.915 211.446L193.957 196.119C193.957 194.456 195.14 193.793 196.592 194.624L202.869 198.24Z" fill="#B9C5D4"/>
<path d="M201.537 202.356C202.007 202.624 202.387 203.282 202.382 203.819C202.376 204.356 201.996 204.572 201.532 204.303L197.567 202.024C197.097 201.756 196.717 201.098 196.722 200.561C196.727 200.024 197.107 199.809 197.572 200.077L201.537 202.356Z" fill="#010E3E"/>
<path d="M201.537 209.077C202.007 209.346 202.387 210.003 202.382 210.54C202.376 211.077 201.996 211.293 201.532 211.025L197.567 208.746C197.097 208.477 196.717 207.819 196.722 207.282C196.727 206.746 197.107 206.53 197.572 206.798L201.537 209.077Z" fill="#010E3E"/>
<path d="M201.537 212.44C202.007 212.709 202.387 213.367 202.382 213.903C202.376 214.44 201.996 214.656 201.532 214.388L197.567 212.109C197.097 211.84 196.717 211.182 196.722 210.645C196.727 210.109 197.107 209.893 197.572 210.161L201.537 212.44Z" fill="#010E3E"/>
<path d="M231.871 212.561L232.119 230.135C232.209 236.504 228.93 242.457 223.476 245.778C222.098 246.62 220.562 247.415 218.888 248.099C210.076 251.678 197.347 251.136 193.319 245.493C189.781 240.541 193.588 236.109 196.418 233.788C198.192 232.335 199.179 230.135 199.179 227.846V205.619" stroke="#010E3E" stroke-width="0.700179" stroke-miterlimit="10"/>
<path d="M201.537 205.719C202.007 205.988 202.387 206.645 202.382 207.182C202.376 207.719 201.996 207.935 201.532 207.667L197.567 205.388C197.097 205.119 196.717 204.461 196.722 203.924C196.727 203.387 197.107 203.172 197.572 203.44L201.537 205.719Z" fill="#010E3E"/>
<path d="M234.125 214.767C234.125 214.767 234.125 214.74 234.125 214.73L233.66 207.261C233.66 207.251 233.66 207.235 233.66 207.225C233.66 207.214 233.66 207.198 233.66 207.188C233.66 207.177 233.66 207.161 233.655 207.151C233.655 207.14 233.655 207.125 233.65 207.114C233.65 207.109 233.65 207.098 233.65 207.093C233.65 207.093 233.65 207.082 233.65 207.077C233.65 207.061 233.645 207.051 233.639 207.035C233.634 207.019 233.634 207.009 233.629 206.993C233.629 206.977 233.623 206.967 233.618 206.951C233.618 206.935 233.608 206.925 233.608 206.909C233.608 206.898 233.602 206.888 233.597 206.877C233.597 206.867 233.586 206.851 233.581 206.84C233.581 206.83 233.571 206.814 233.565 206.803C233.565 206.793 233.555 206.777 233.549 206.767C233.544 206.756 233.539 206.74 233.534 206.73C233.528 206.719 233.523 206.703 233.518 206.693C233.513 206.677 233.502 206.661 233.497 206.651C233.486 206.63 233.476 206.609 233.465 206.588C233.46 206.577 233.454 206.567 233.444 206.556L230.846 202.303C230.846 202.303 230.815 202.256 230.799 202.23C230.783 202.209 230.772 202.188 230.757 202.167C230.751 202.156 230.741 202.145 230.735 202.135C230.735 202.135 230.735 202.135 230.73 202.13C230.72 202.119 230.709 202.103 230.704 202.093C230.693 202.082 230.683 202.072 230.677 202.061C230.667 202.051 230.656 202.04 230.646 202.03C230.635 202.019 230.625 202.009 230.614 201.998C230.603 201.988 230.593 201.977 230.588 201.972C230.577 201.961 230.566 201.951 230.551 201.94C230.54 201.93 230.529 201.919 230.514 201.909C230.503 201.898 230.487 201.888 230.477 201.877C230.466 201.872 230.456 201.861 230.445 201.856C230.434 201.845 230.419 201.84 230.408 201.83C230.397 201.819 230.382 201.814 230.371 201.803C230.361 201.798 230.345 201.788 230.334 201.782C230.334 201.782 230.329 201.782 230.324 201.777L227.747 200.372C227.737 200.367 227.726 200.361 227.715 200.356C227.705 200.356 227.694 200.345 227.684 200.34C227.673 200.34 227.663 200.33 227.652 200.33C227.641 200.33 227.631 200.319 227.62 200.319C227.615 200.319 227.61 200.319 227.599 200.314C227.599 200.314 227.594 200.314 227.589 200.314C227.578 200.314 227.568 200.309 227.557 200.303C227.546 200.303 227.536 200.303 227.525 200.298C227.515 200.298 227.504 200.298 227.494 200.293C227.483 200.293 227.473 200.293 227.462 200.293C227.451 200.293 227.436 200.293 227.425 200.293C227.409 200.293 227.399 200.293 227.388 200.293C227.372 200.293 227.356 200.293 227.346 200.298C227.33 200.298 227.314 200.303 227.298 200.309C227.277 200.314 227.256 200.324 227.235 200.335L223.37 202.572C223.402 202.551 223.439 202.54 223.476 202.53C223.513 202.519 223.555 202.519 223.597 202.519C223.639 202.519 223.687 202.53 223.735 202.546C223.782 202.561 223.83 202.582 223.882 202.609L226.459 204.014C226.512 204.046 226.559 204.077 226.612 204.114C226.659 204.151 226.707 204.193 226.749 204.24C226.791 204.288 226.834 204.335 226.876 204.382C226.918 204.435 226.955 204.488 226.987 204.546L229.584 208.798C229.621 208.856 229.653 208.914 229.679 208.977C229.706 209.035 229.732 209.098 229.753 209.156C229.774 209.214 229.79 209.277 229.801 209.335C229.811 209.393 229.822 209.451 229.822 209.509L230.287 216.977C230.287 217.046 230.287 217.109 230.281 217.167C230.271 217.225 230.26 217.272 230.239 217.319C230.239 217.319 230.239 217.319 230.239 217.325C230.223 217.362 230.202 217.398 230.176 217.43C230.17 217.441 230.16 217.446 230.155 217.456C230.128 217.488 230.097 217.514 230.065 217.53L233.93 215.293C233.961 215.272 233.993 215.246 234.019 215.219C234.025 215.209 234.035 215.204 234.04 215.193C234.046 215.183 234.056 215.177 234.062 215.167C234.072 215.151 234.083 215.135 234.088 215.114C234.088 215.109 234.093 215.098 234.099 215.088C234.099 215.088 234.099 215.088 234.099 215.083C234.099 215.083 234.099 215.072 234.104 215.067C234.104 215.056 234.114 215.04 234.12 215.025C234.12 215.014 234.125 214.998 234.13 214.988C234.13 214.977 234.136 214.962 234.136 214.951C234.136 214.94 234.136 214.935 234.136 214.925C234.136 214.925 234.136 214.919 234.136 214.914C234.136 214.904 234.136 214.888 234.136 214.877C234.136 214.867 234.136 214.856 234.136 214.84C234.136 214.83 234.136 214.814 234.136 214.804C234.136 214.793 234.136 214.777 234.136 214.767H234.125Z" fill="#DCE2EA" stroke="#556578" stroke-width="0.422167" stroke-linecap="round" stroke-linejoin="round"/>
<path d="M226.415 203.988C226.626 204.109 226.811 204.298 226.953 204.53L229.551 208.782C229.694 209.014 229.778 209.267 229.794 209.498L230.259 216.967C230.29 217.493 229.942 217.725 229.498 217.472C229.102 217.24 228.77 216.704 228.738 216.23L228.3 209.588C228.268 209.114 227.941 208.577 227.539 208.346L225.771 207.324C225.639 207.251 225.512 207.135 225.401 206.998L223.49 204.672C223.247 204.377 223.099 203.998 223.099 203.682V203.024C223.099 202.551 223.432 202.351 223.849 202.577L226.425 203.982L226.415 203.988Z" fill="url(#paint8_linear_13_4)" stroke="#556578" stroke-width="0.386128" stroke-linecap="round" stroke-linejoin="round"/>
<path d="M199.3 177.761C199.575 177.918 199.844 178.339 199.765 178.687L198.883 182.703L202.922 184.229C202.922 184.229 202.97 184.25 202.996 184.266C203.387 184.492 203.635 185.14 203.413 185.403L198.846 190.766C198.757 190.871 198.63 190.866 198.503 190.792C198.244 190.645 197.991 190.224 198.097 189.919L199.57 185.645L196.206 184.208C196.206 184.208 196.169 184.187 196.148 184.176C195.721 183.929 195.43 183.234 195.641 182.903L198.904 177.818C198.999 177.671 199.152 177.676 199.311 177.766L199.3 177.761Z" fill="#5F38FB"/>
<path d="M194.41 139.091C194.478 139.06 194.547 139.034 194.616 139.013C194.716 138.976 194.811 138.939 194.906 138.913C194.969 138.897 195.027 138.876 195.091 138.86C195.149 138.844 195.202 138.834 195.26 138.823C195.334 138.807 195.408 138.797 195.476 138.791C195.519 138.791 195.561 138.781 195.598 138.781C195.687 138.776 195.777 138.77 195.862 138.781C195.883 138.781 195.904 138.781 195.92 138.781C196.025 138.786 196.126 138.802 196.226 138.818C196.252 138.818 196.274 138.828 196.3 138.834C196.379 138.849 196.453 138.87 196.527 138.897C196.548 138.907 196.574 138.913 196.596 138.923C196.691 138.96 196.78 139.002 196.865 139.049L188.792 134.37C188.792 134.37 188.776 134.36 188.771 134.36C188.702 134.323 188.634 134.286 188.565 134.26C188.555 134.255 188.539 134.249 188.523 134.244C188.502 134.233 188.475 134.228 188.454 134.218C188.417 134.207 188.386 134.191 188.349 134.181C188.312 134.17 188.269 134.165 188.227 134.155C188.201 134.149 188.18 134.144 188.153 134.139C188.137 134.139 188.127 134.133 188.116 134.128C188.037 134.112 187.953 134.102 187.868 134.097C187.863 134.097 187.858 134.097 187.852 134.097C187.831 134.097 187.81 134.097 187.794 134.097C187.731 134.097 187.662 134.097 187.599 134.097C187.578 134.097 187.551 134.102 187.53 134.102C187.488 134.102 187.446 134.107 187.409 134.112C187.372 134.112 187.335 134.118 187.293 134.123C187.261 134.123 187.224 134.139 187.187 134.144C187.129 134.155 187.076 134.165 187.018 134.181C186.987 134.186 186.96 134.191 186.928 134.202C186.897 134.212 186.865 134.223 186.833 134.233C186.738 134.26 186.643 134.297 186.543 134.333C186.506 134.349 186.474 134.355 186.443 134.37C186.411 134.386 186.374 134.402 186.342 134.418C186.311 134.433 186.279 134.449 186.247 134.46C186.121 134.518 185.999 134.581 185.867 134.655L176.533 140.028C176.401 140.107 176.269 140.186 176.142 140.276C176.1 140.307 176.058 140.339 176.015 140.365C175.931 140.428 175.841 140.491 175.757 140.56C175.709 140.597 175.662 140.639 175.614 140.676C175.535 140.739 175.456 140.807 175.382 140.881C175.334 140.923 175.287 140.965 175.244 141.013C175.218 141.039 175.186 141.065 175.155 141.091C175.123 141.123 175.097 141.155 175.065 141.186C174.97 141.281 174.88 141.376 174.79 141.476C174.764 141.507 174.732 141.539 174.701 141.57C174.674 141.597 174.653 141.628 174.632 141.655C174.579 141.718 174.526 141.781 174.474 141.849C174.437 141.892 174.405 141.934 174.368 141.976C174.342 142.013 174.315 142.049 174.289 142.086C174.252 142.139 174.21 142.186 174.173 142.239C174.146 142.276 174.12 142.307 174.093 142.344C174.051 142.407 174.009 142.47 173.967 142.534C173.94 142.57 173.914 142.613 173.888 142.649C173.877 142.665 173.866 142.681 173.856 142.697C173.782 142.813 173.713 142.928 173.645 143.044C173.645 143.055 173.634 143.06 173.629 143.07C173.613 143.097 173.602 143.118 173.587 143.144C173.539 143.228 173.492 143.307 173.449 143.392C173.428 143.434 173.407 143.47 173.386 143.513C173.365 143.555 173.344 143.597 173.323 143.634C173.307 143.67 173.286 143.702 173.27 143.739C173.222 143.839 173.175 143.939 173.133 144.039C173.127 144.055 173.117 144.07 173.111 144.086C173.111 144.086 173.111 144.097 173.106 144.102C173.053 144.223 173.001 144.349 172.953 144.471C172.942 144.492 172.937 144.518 172.927 144.539C172.911 144.586 172.895 144.628 172.879 144.676C172.858 144.739 172.832 144.797 172.816 144.86C172.8 144.907 172.784 144.96 172.774 145.007C172.758 145.065 172.737 145.118 172.721 145.176C172.71 145.213 172.7 145.244 172.689 145.281C172.673 145.344 172.657 145.407 172.642 145.471C172.626 145.539 172.605 145.613 172.589 145.681C172.583 145.707 172.578 145.728 172.573 145.755C172.562 145.807 172.557 145.855 172.547 145.907C172.525 146.018 172.504 146.128 172.488 146.239C172.488 146.271 172.478 146.302 172.473 146.328C172.462 146.397 172.457 146.465 172.451 146.534C172.451 146.581 172.441 146.628 172.436 146.681C172.425 146.834 172.415 146.986 172.42 147.139L172.457 159.881C172.457 161.176 172.921 162.092 173.661 162.523L181.733 167.197C180.994 166.766 180.529 165.855 180.529 164.555L180.492 151.813C180.492 151.665 180.498 151.513 180.508 151.36C180.508 151.313 180.519 151.26 180.524 151.213C180.535 151.113 180.545 151.018 180.561 150.918C180.577 150.807 180.598 150.697 180.619 150.586C180.635 150.513 180.646 150.439 180.661 150.365C180.677 150.297 180.693 150.223 180.714 150.155C180.741 150.055 180.762 149.96 180.793 149.86C180.809 149.802 180.825 149.744 180.846 149.692C180.883 149.581 180.92 149.471 180.957 149.365C180.973 149.318 180.989 149.276 181.005 149.228C181.063 149.076 181.121 148.928 181.189 148.776C181.195 148.76 181.205 148.744 181.211 148.728C181.269 148.592 181.332 148.46 181.401 148.328C181.422 148.286 181.443 148.244 181.464 148.202C181.527 148.076 181.596 147.955 181.665 147.834C181.68 147.807 181.691 147.786 181.707 147.76C181.791 147.618 181.876 147.476 181.966 147.339C181.992 147.297 182.018 147.26 182.045 147.223C182.113 147.123 182.177 147.028 182.251 146.928C182.288 146.876 182.33 146.823 182.367 146.771C182.425 146.692 182.488 146.613 182.552 146.534C182.604 146.465 182.657 146.402 182.71 146.339C182.763 146.281 182.816 146.218 182.868 146.16C182.958 146.06 183.048 145.965 183.143 145.871C183.201 145.813 183.259 145.755 183.317 145.697C183.365 145.655 183.407 145.613 183.454 145.565C183.534 145.497 183.607 145.428 183.687 145.36C183.734 145.323 183.782 145.281 183.829 145.244C183.914 145.176 184.003 145.113 184.088 145.049C184.13 145.018 184.172 144.986 184.215 144.96C184.347 144.871 184.473 144.786 184.605 144.713L193.94 139.339C194.067 139.265 194.193 139.202 194.32 139.144C194.352 139.128 194.383 139.113 194.42 139.102L194.41 139.091Z" fill="url(#paint9_linear_13_4)" stroke="#556578" stroke-width="0.386128" stroke-linecap="round" stroke-linejoin="round"/>
<path d="M193.937 139.334C196.212 138.023 198.065 139.076 198.076 141.686L198.113 154.429C198.118 157.039 196.281 160.218 194 161.529L184.665 166.903C182.39 168.213 180.537 167.155 180.526 164.55L180.489 151.807C180.484 149.192 182.321 146.018 184.602 144.707L193.937 139.334Z" fill="white" stroke="#556578" stroke-width="0.386128" stroke-miterlimit="10"/>
<path d="M388.002 235.214L332.613 205.566V172.976L309.683 159.171" stroke="#010E3E" stroke-width="0.700179" stroke-miterlimit="10"/>
<path d="M324.782 149.471C322.322 148.813 319.318 149.065 317.295 150.239C315.279 151.408 314.851 153.144 315.997 154.565C316.562 155.26 316.245 156.087 315.31 156.629L304.856 162.681C302.095 164.281 297.607 164.281 294.825 162.681L243.971 133.412C241.194 131.812 241.173 129.223 243.939 127.623L254.562 121.47C255.454 120.954 256.806 120.849 257.957 121.16C260.422 121.817 263.427 121.565 265.443 120.396C267.466 119.223 267.893 117.486 266.742 116.07C266.198 115.407 266.367 114.628 267.265 114.107L317.697 84.8852C320.458 83.2851 324.951 83.2851 327.728 84.8852L378.582 114.154C381.359 115.754 381.375 118.349 378.614 119.944L328.356 149.06C327.422 149.602 325.991 149.786 324.787 149.465L324.782 149.471ZM277.138 127.612C278.257 127.165 278.363 126.27 277.444 125.744C277.349 125.691 277.244 125.639 277.122 125.591C276.431 125.318 275.475 125.318 274.783 125.591C273.653 126.039 273.553 126.933 274.477 127.465C274.572 127.518 274.678 127.57 274.799 127.618C275.491 127.891 276.446 127.891 277.143 127.618M283.299 131.16C284.419 130.712 284.524 129.818 283.606 129.291C283.511 129.239 283.405 129.186 283.289 129.139C282.597 128.865 281.642 128.865 280.95 129.139C279.82 129.586 279.72 130.481 280.644 131.012C280.739 131.065 280.844 131.118 280.966 131.165C281.657 131.439 282.613 131.439 283.31 131.165M270.971 124.06C272.096 123.618 272.196 122.717 271.278 122.191C271.183 122.139 271.077 122.086 270.955 122.039C270.264 121.765 269.308 121.765 268.617 122.039C267.487 122.486 267.386 123.381 268.31 123.912C268.405 123.965 268.511 124.018 268.632 124.065C269.324 124.339 270.28 124.339 270.977 124.065M295.628 138.255C296.752 137.813 296.852 136.918 295.934 136.386C295.839 136.334 295.733 136.281 295.617 136.234C294.92 135.96 293.97 135.96 293.278 136.234C292.148 136.681 292.048 137.576 292.972 138.107C293.067 138.16 293.172 138.213 293.294 138.26C293.986 138.534 294.946 138.534 295.633 138.26M307.961 145.35C309.085 144.907 309.186 144.007 308.267 143.481C308.172 143.428 308.066 143.376 307.95 143.328C307.253 143.055 306.303 143.055 305.611 143.328C304.482 143.776 304.381 144.671 305.305 145.202C305.4 145.255 305.506 145.307 305.627 145.355C306.319 145.628 307.275 145.623 307.966 145.355M314.122 148.902C315.252 148.455 315.352 147.56 314.429 147.029C314.334 146.976 314.228 146.923 314.106 146.876C313.415 146.602 312.465 146.602 311.773 146.876C310.643 147.323 310.543 148.218 311.467 148.75C311.562 148.802 311.667 148.855 311.789 148.902C312.48 149.176 313.431 149.176 314.122 148.902ZM289.461 134.707C290.591 134.26 290.691 133.365 289.772 132.839C289.677 132.786 289.572 132.733 289.456 132.686C288.759 132.412 287.808 132.412 287.117 132.686C285.987 133.133 285.886 134.028 286.81 134.56C286.905 134.612 287.011 134.665 287.132 134.712C287.824 134.986 288.774 134.986 289.466 134.712M301.789 141.802C302.919 141.355 303.019 140.46 302.095 139.928C302 139.876 301.895 139.823 301.773 139.776C301.081 139.502 300.131 139.502 299.439 139.776C298.31 140.223 298.209 141.118 299.133 141.649C299.228 141.702 299.334 141.755 299.455 141.802C300.147 142.076 301.097 142.076 301.789 141.802Z" fill="white"/>
<path d="M277.138 127.612C278.257 127.165 278.363 126.27 277.444 125.744C277.349 125.691 277.244 125.639 277.122 125.591C276.431 125.318 275.475 125.318 274.783 125.591C273.653 126.039 273.553 126.933 274.477 127.465C274.572 127.518 274.678 127.57 274.799 127.618C275.491 127.891 276.446 127.891 277.143 127.618M283.299 131.16C284.419 130.712 284.524 129.818 283.606 129.291C283.511 129.239 283.405 129.186 283.289 129.139C282.597 128.865 281.642 128.865 280.95 129.139C279.82 129.586 279.72 130.481 280.644 131.012C280.739 131.065 280.844 131.118 280.966 131.165C281.657 131.439 282.613 131.439 283.31 131.165M270.971 124.06C272.096 123.618 272.196 122.717 271.278 122.191C271.183 122.139 271.077 122.086 270.955 122.039C270.264 121.765 269.308 121.765 268.617 122.039C267.487 122.486 267.386 123.381 268.31 123.912C268.405 123.965 268.511 124.018 268.632 124.065C269.324 124.339 270.28 124.339 270.977 124.065M295.628 138.255C296.752 137.813 296.852 136.918 295.934 136.386C295.839 136.334 295.733 136.281 295.617 136.234C294.92 135.96 293.97 135.96 293.278 136.234C292.148 136.681 292.048 137.576 292.972 138.107C293.067 138.16 293.172 138.213 293.294 138.26C293.986 138.534 294.946 138.534 295.633 138.26M307.961 145.35C309.085 144.907 309.186 144.007 308.267 143.481C308.172 143.428 308.066 143.376 307.95 143.328C307.253 143.055 306.303 143.055 305.611 143.328C304.482 143.776 304.381 144.671 305.305 145.202C305.4 145.255 305.506 145.307 305.627 145.355C306.319 145.628 307.275 145.623 307.966 145.355M289.461 134.707C290.591 134.26 290.691 133.365 289.772 132.839C289.677 132.786 289.572 132.733 289.456 132.686C288.759 132.412 287.808 132.412 287.117 132.686C285.987 133.133 285.886 134.028 286.81 134.56C286.905 134.612 287.011 134.665 287.132 134.712C287.824 134.986 288.774 134.986 289.466 134.712M324.782 149.471C322.322 148.813 319.318 149.065 317.295 150.239C315.279 151.408 314.851 153.144 315.997 154.565C316.562 155.26 316.245 156.087 315.31 156.629L304.856 162.681C302.095 164.281 297.607 164.281 294.825 162.681L243.971 133.412C241.194 131.812 241.173 129.223 243.939 127.623L254.562 121.47C255.454 120.954 256.806 120.849 257.957 121.16C260.422 121.817 263.427 121.565 265.443 120.396C267.466 119.223 267.893 117.486 266.742 116.07C266.198 115.407 266.367 114.628 267.265 114.107L317.697 84.8852C320.458 83.2851 324.951 83.2851 327.728 84.8852L378.582 114.154C381.359 115.754 381.375 118.349 378.614 119.944L328.356 149.06C327.422 149.602 325.991 149.786 324.787 149.465L324.782 149.471ZM314.122 148.902C315.252 148.455 315.352 147.56 314.429 147.029C314.334 146.976 314.228 146.923 314.106 146.876C313.415 146.602 312.465 146.602 311.773 146.876C310.643 147.323 310.543 148.218 311.467 148.75C311.562 148.802 311.667 148.855 311.789 148.902C312.48 149.176 313.431 149.176 314.122 148.902ZM301.789 141.802C302.919 141.355 303.019 140.46 302.095 139.928C302 139.876 301.895 139.823 301.773 139.776C301.081 139.502 300.131 139.502 299.439 139.776C298.31 140.223 298.209 141.118 299.133 141.649C299.228 141.702 299.334 141.755 299.455 141.802C300.147 142.076 301.097 142.076 301.789 141.802Z" stroke="#556578" stroke-width="0.386128" stroke-miterlimit="10"/>
<path d="M271.966 131.234L262.046 136.981L259.2 135.344L269.12 129.597L271.966 131.234Z" fill="#010E3E"/>
<path d="M273.635 132.191L263.714 137.939L263.097 137.581L273.012 131.834L273.635 132.191Z" fill="#010E3E"/>
<path d="M276.194 133.665L266.274 139.413L264.664 138.486L274.584 132.739L276.194 133.665Z" fill="#010E3E"/>
<path d="M278.412 134.939L268.492 140.686L266.882 139.76L276.802 134.012L278.412 134.939Z" fill="#010E3E"/>
<path d="M279.795 135.739L269.874 141.481L269.257 141.128L279.177 135.381L279.795 135.739Z" fill="#010E3E"/>
<path d="M268.401 129.181L258.48 134.928L257.778 134.523L267.699 128.776L268.401 129.181Z" fill="#010E3E"/>
<path d="M266.654 128.176L256.734 133.923L255.123 132.997L265.044 127.249L266.654 128.176Z" fill="#010E3E"/>
<path d="M282.894 137.523L272.973 143.271L270.476 141.829L280.397 136.086L282.894 137.523Z" fill="#010E3E"/>
<path d="M285.253 138.881L275.333 144.629L273.723 143.702L283.643 137.955L285.253 138.881Z" fill="#010E3E"/>
<path d="M288.49 140.739L278.57 146.486L276.384 145.228L286.305 139.481L288.49 140.739Z" fill="#010E3E"/>
<path d="M304.457 149.934L294.537 155.681L292.926 154.755L302.847 149.008L304.457 149.934Z" fill="#010E3E"/>
<path d="M297.657 146.018L287.736 151.766L286.126 150.839L296.046 145.092L297.657 146.018Z" fill="#010E3E"/>
<path d="M302.323 148.708L292.402 154.455L289.398 152.723L299.319 146.976L302.323 148.708Z" fill="#010E3E"/>
<path d="M298.876 146.718L288.955 152.466L288.258 152.066L298.179 146.318L298.876 146.718Z" fill="#010E3E"/>
<path d="M295.483 144.765L285.562 150.513L283.952 149.587L293.873 143.839L295.483 144.765Z" fill="#010E3E"/>
<path d="M293.226 143.471L283.305 149.218L280.138 147.392L290.058 141.644L293.226 143.471Z" fill="#010E3E"/>
<path d="M289.615 141.392L279.695 147.139L279.035 146.76L288.955 141.013L289.615 141.392Z" fill="#010E3E"/>
<path d="M312.93 97.0958L309.06 99.338L311.225 100.591L310.427 101.054L307.381 99.3011L312.054 96.5958L312.93 97.0958Z" fill="#010E3E"/>
<path d="M318.795 102.059C318.621 102.296 318.357 102.512 318.013 102.712C317.67 102.912 317.295 103.064 316.884 103.164C316.477 103.27 316.055 103.322 315.627 103.328C315.194 103.328 314.782 103.286 314.37 103.191C313.964 103.096 313.594 102.949 313.251 102.754C312.919 102.559 312.665 102.349 312.496 102.112C312.333 101.88 312.248 101.638 312.253 101.391C312.253 101.143 312.343 100.901 312.523 100.664C312.697 100.428 312.961 100.207 313.309 100.007C313.658 99.8065 314.033 99.6539 314.45 99.5539C314.856 99.4486 315.279 99.396 315.706 99.396C316.134 99.396 316.551 99.4381 316.958 99.5381C317.369 99.6328 317.739 99.7802 318.077 99.9697C318.415 100.159 318.668 100.38 318.832 100.617C319.001 100.849 319.08 101.091 319.075 101.338C319.064 101.586 318.974 101.828 318.8 102.064L318.795 102.059ZM316.387 102.501C316.657 102.433 316.899 102.333 317.126 102.201C317.353 102.07 317.528 101.928 317.639 101.775C317.76 101.622 317.823 101.47 317.839 101.307C317.855 101.149 317.813 100.996 317.713 100.849C317.612 100.701 317.454 100.564 317.243 100.443C317.031 100.322 316.799 100.233 316.54 100.175C316.282 100.117 316.018 100.091 315.748 100.101C315.474 100.107 315.205 100.149 314.941 100.217C314.682 100.285 314.434 100.391 314.202 100.522C313.969 100.654 313.8 100.796 313.674 100.949C313.552 101.101 313.483 101.259 313.478 101.417C313.462 101.575 313.505 101.728 313.61 101.875C313.711 102.022 313.869 102.159 314.075 102.28C314.286 102.401 314.524 102.496 314.777 102.549C315.03 102.607 315.294 102.633 315.569 102.622C315.844 102.617 316.113 102.575 316.377 102.507" fill="#010E3E"/>
<path d="M325.384 104.27L320.712 106.975L319.915 106.517L320.707 103.128C320.601 103.201 320.501 103.275 320.411 103.333C320.252 103.443 320.115 103.538 319.999 103.617C319.878 103.696 319.783 103.759 319.703 103.812C319.624 103.864 319.556 103.912 319.487 103.954C319.418 103.996 319.355 104.033 319.297 104.07L317.486 105.117L316.62 104.617L321.293 101.912L322.079 102.364L321.219 105.801C321.256 105.775 321.282 105.754 321.319 105.728C321.435 105.643 321.562 105.559 321.694 105.47C321.826 105.38 321.963 105.291 322.116 105.196C322.264 105.101 322.422 105.001 322.586 104.901C322.755 104.801 322.935 104.691 323.125 104.58L324.529 103.77L325.395 104.27H325.384Z" fill="#010E3E"/>
<path d="M351.276 122.428L350.5 124.123L349.47 123.523L350.215 121.97L349.312 121.449L347.596 122.444L346.741 121.954L351.413 119.249L353.456 120.423C353.736 120.586 353.932 120.77 354.037 120.981C354.138 121.191 354.143 121.402 354.053 121.607C353.963 121.817 353.784 122.002 353.504 122.165C353.224 122.328 352.918 122.423 352.559 122.47C352.2 122.523 351.836 122.523 351.477 122.465C351.403 122.454 351.339 122.439 351.276 122.423V122.428ZM351.693 121.849C351.851 121.87 352.005 121.865 352.168 121.833C352.332 121.802 352.474 121.749 352.606 121.675C352.754 121.591 352.844 121.502 352.881 121.396C352.923 121.296 352.913 121.191 352.855 121.086C352.796 120.981 352.691 120.881 352.532 120.791L351.492 120.191L350.072 121.012L351.265 121.702C351.397 121.775 351.54 121.823 351.693 121.849Z" fill="#010E3E"/>
<path d="M366.165 114.681C366.798 115.044 366.804 115.638 366.175 116.002L363.657 117.46C363.029 117.823 362.004 117.823 361.371 117.46L342.485 106.591C341.852 106.228 341.846 105.638 342.48 105.275L344.998 103.817C345.627 103.454 346.646 103.454 347.279 103.817L366.165 114.686V114.681Z" fill="#DCE2EA"/>
<path d="M348.857 117.78L346.006 121.533L345.098 121.012L345.764 120.159L343.884 119.075L342.406 119.459L341.534 118.959L348.039 117.307L348.857 117.78ZM344.924 118.807L346.228 119.559L346.746 118.891C346.777 118.849 346.83 118.781 346.909 118.691C346.983 118.602 347.073 118.507 347.157 118.402C347.247 118.302 347.332 118.207 347.416 118.117L347.379 118.128C347.231 118.17 347.078 118.217 346.915 118.265C346.756 118.312 346.603 118.354 346.45 118.396C346.302 118.438 346.165 118.475 346.049 118.512L344.924 118.807Z" fill="#010E3E"/>
<path d="M345.321 116.575C345.231 116.78 345.046 116.965 344.772 117.123C344.497 117.28 344.17 117.396 343.816 117.449C343.462 117.507 343.109 117.507 342.76 117.465C342.407 117.417 342.095 117.317 341.831 117.165L340.749 116.544L339.038 117.533L338.167 117.033L342.839 114.328L344.793 115.454C345.057 115.607 345.236 115.786 345.331 115.986C345.416 116.186 345.416 116.386 345.321 116.591V116.575ZM343.441 116.765C343.6 116.738 343.748 116.686 343.874 116.612C344.001 116.538 344.091 116.454 344.133 116.365C344.181 116.275 344.181 116.186 344.149 116.096C344.117 116.007 344.043 115.933 343.932 115.87L342.913 115.28L341.557 116.07L342.575 116.659C342.686 116.723 342.824 116.765 342.977 116.78C343.13 116.796 343.288 116.796 343.447 116.765" fill="#010E3E"/>
<path d="M342.538 127.228C343.452 127.754 343.457 128.607 342.549 129.133L341.039 130.007C340.131 130.533 338.652 130.533 337.744 130.007L297.017 106.57C296.103 106.043 296.098 105.191 297.006 104.664L298.516 103.791C299.424 103.264 300.903 103.264 301.811 103.791L342.538 127.228Z" fill="#B9C5D4"/>
<path d="M331.518 94.7382C331.941 94.9803 331.946 95.3803 331.518 95.6224L328.25 97.5172C327.828 97.7593 327.142 97.7593 326.719 97.5172L318.768 92.9434C318.346 92.7013 318.34 92.3013 318.768 92.0592L322.036 90.1644C322.459 89.9223 323.145 89.9223 323.567 90.1644L331.518 94.7382Z" fill="#DCE2EA"/>
<path d="M313.441 118.523C314.08 118.891 314.08 119.481 313.446 119.849L310.939 121.302C310.305 121.67 309.281 121.67 308.642 121.302L289.55 110.312C288.912 109.944 288.906 109.349 289.54 108.986L292.048 107.533C292.681 107.165 293.711 107.17 294.35 107.533L313.441 118.523Z" fill="#5F38FB" stroke="#010E3E" stroke-width="0.386128" stroke-miterlimit="10"/>
<path d="M290.734 118.602C291.045 118.781 291.045 119.07 290.734 119.249L289.25 120.107C288.939 120.286 288.432 120.286 288.12 120.107L279.768 115.296C279.456 115.117 279.451 114.823 279.768 114.644L281.251 113.786C281.563 113.607 282.07 113.607 282.381 113.786L290.734 118.596V118.602Z" fill="#DCE2EA"/>
<path d="M308.606 128.886C308.923 129.065 308.923 129.36 308.611 129.539L307.128 130.397C306.816 130.576 306.309 130.576 305.998 130.397L297.645 125.591C297.328 125.412 297.328 125.118 297.645 124.939L299.129 124.081C299.44 123.902 299.942 123.902 300.259 124.081L308.611 128.886H308.606Z" fill="#DCE2EA"/>
<path d="M326.002 138.897C326.313 139.076 326.313 139.365 326.002 139.544L324.518 140.402C324.206 140.581 323.7 140.581 323.388 140.402L315.036 135.591C314.724 135.413 314.724 135.123 315.036 134.939L316.519 134.081C316.831 133.902 317.332 133.902 317.644 134.081L325.996 138.892L326.002 138.897Z" fill="#DCE2EA"/>
<path d="M420.619 285.115L413.121 289.658C409.082 292.116 404.025 292.2 399.906 289.879L365.979 270.747L366.507 249.173L324.956 227.151C321.835 225.498 318.261 224.893 314.766 225.409C306.334 226.651 288.478 228.414 267.344 225.441C263.505 224.898 259.598 225.683 256.298 227.704L246.235 233.878C241.098 237.03 234.641 237.136 229.398 234.151L228.363 233.562" stroke="#010E3E" stroke-width="0.700179" stroke-miterlimit="10"/>
<path d="M387.267 287.626C387.262 287.705 387.257 287.784 387.241 287.863C387.23 287.926 387.209 287.989 387.193 288.058C387.172 288.131 387.156 288.205 387.13 288.284C387.109 288.347 387.077 288.405 387.051 288.468C387.019 288.547 386.982 288.626 386.94 288.7C386.908 288.758 386.871 288.81 386.84 288.868C386.787 288.958 386.729 289.042 386.66 289.131C386.623 289.184 386.581 289.231 386.539 289.284C386.444 289.4 386.333 289.516 386.222 289.626C386.18 289.668 386.143 289.71 386.095 289.747C386.021 289.81 385.942 289.873 385.863 289.937C385.794 289.995 385.726 290.047 385.652 290.105C385.567 290.168 385.472 290.226 385.382 290.284C385.287 290.347 385.198 290.41 385.097 290.468L344.581 313.942C344.354 314.074 344.116 314.19 343.873 314.3C343.805 314.332 343.731 314.363 343.657 314.39C343.467 314.469 343.266 314.542 343.065 314.611C342.992 314.637 342.923 314.663 342.849 314.684C342.722 314.727 342.59 314.758 342.464 314.795C342.363 314.821 342.268 314.853 342.168 314.874C342.031 314.906 341.893 314.932 341.751 314.963C341.656 314.984 341.561 315.006 341.466 315.021C341.186 315.069 340.901 315.111 340.61 315.142C340.521 315.153 340.431 315.158 340.341 315.163C340.172 315.179 340.003 315.19 339.834 315.195C339.723 315.195 339.618 315.2 339.507 315.206C339.37 315.206 339.232 315.206 339.095 315.206C338.979 315.206 338.868 315.206 338.752 315.195C338.625 315.195 338.499 315.184 338.372 315.174C338.256 315.163 338.14 315.158 338.023 315.142C337.897 315.132 337.77 315.116 337.649 315.1C337.538 315.084 337.421 315.069 337.311 315.053C337.179 315.032 337.041 315.011 336.909 314.984C336.804 314.963 336.703 314.942 336.598 314.921C336.439 314.884 336.281 314.848 336.128 314.806C336.043 314.784 335.954 314.763 335.869 314.737C335.595 314.658 335.32 314.569 335.061 314.463C334.929 314.411 334.803 314.358 334.676 314.3C334.613 314.274 334.544 314.248 334.481 314.216C334.291 314.127 334.106 314.032 333.926 313.927L263.004 273.105C261.52 272.252 260.776 271.126 260.781 270.01V272.778C260.771 273.899 261.51 275.021 262.999 275.873L333.921 316.695C334.101 316.795 334.285 316.895 334.475 316.985C334.539 317.016 334.607 317.042 334.671 317.069C334.782 317.121 334.893 317.169 335.014 317.216C335.024 317.216 335.04 317.227 335.056 317.232C335.32 317.332 335.589 317.421 335.864 317.506C335.885 317.511 335.906 317.521 335.927 317.527C335.991 317.542 336.054 317.558 336.117 317.574C336.271 317.616 336.429 317.653 336.587 317.69C336.63 317.7 336.672 317.711 336.714 317.721C336.777 317.732 336.841 317.742 336.899 317.753C337.031 317.779 337.163 317.8 337.3 317.821C337.353 317.832 337.406 317.842 337.458 317.848C337.517 317.858 337.575 317.858 337.633 317.869C337.759 317.885 337.881 317.9 338.008 317.911C338.066 317.916 338.129 317.927 338.187 317.932C338.245 317.932 338.298 317.932 338.356 317.942C338.483 317.953 338.609 317.958 338.736 317.963C338.799 317.963 338.863 317.974 338.931 317.974C338.984 317.974 339.032 317.974 339.085 317.974C339.222 317.974 339.359 317.974 339.496 317.974C339.565 317.974 339.634 317.974 339.702 317.974C339.745 317.974 339.782 317.969 339.824 317.963C339.993 317.958 340.162 317.942 340.336 317.932C340.405 317.927 340.473 317.927 340.542 317.916C340.563 317.916 340.584 317.911 340.605 317.906C340.896 317.874 341.181 317.837 341.46 317.785C341.476 317.785 341.487 317.785 341.503 317.779C341.587 317.763 341.666 317.742 341.746 317.727C341.883 317.7 342.025 317.669 342.163 317.637C342.263 317.611 342.358 317.585 342.458 317.558C342.59 317.521 342.717 317.49 342.844 317.448C342.87 317.437 342.902 317.432 342.928 317.421C342.976 317.406 343.018 317.385 343.06 317.369C343.261 317.3 343.461 317.227 343.652 317.148C343.725 317.116 343.794 317.09 343.868 317.058C344.111 316.948 344.354 316.832 344.575 316.7L385.092 293.226C385.124 293.21 385.155 293.189 385.182 293.174C385.25 293.131 385.308 293.089 385.377 293.042C385.467 292.984 385.562 292.921 385.646 292.863C385.72 292.81 385.789 292.752 385.858 292.695C385.937 292.631 386.016 292.568 386.09 292.505C386.106 292.495 386.122 292.479 386.137 292.468C386.169 292.442 386.185 292.41 386.217 292.384C386.333 292.274 386.438 292.158 386.533 292.042C386.554 292.016 386.581 291.995 386.602 291.968C386.623 291.942 386.634 291.916 386.655 291.889C386.718 291.805 386.776 291.716 386.834 291.626C386.855 291.589 386.887 291.552 386.908 291.516C386.919 291.495 386.924 291.479 386.935 291.458C386.977 291.379 387.008 291.3 387.045 291.221C387.067 291.173 387.093 291.131 387.109 291.084C387.114 291.068 387.114 291.052 387.125 291.037C387.151 290.963 387.172 290.889 387.188 290.81C387.204 290.758 387.22 290.71 387.23 290.658C387.23 290.642 387.23 290.631 387.23 290.616C387.246 290.537 387.251 290.458 387.257 290.379C387.257 290.326 387.272 290.279 387.272 290.226C387.272 290.205 387.272 290.184 387.272 290.158V287.389C387.278 287.463 387.272 287.537 387.262 287.61L387.267 287.626Z" fill="#DCE2EA" stroke="#556578" stroke-width="0.422167" stroke-linecap="round" stroke-linejoin="round"/>
<path d="M385.061 284.305C388.018 286.005 388.029 288.763 385.098 290.458L344.582 313.932C341.652 315.632 336.879 315.632 333.928 313.932L263.005 273.11C260.054 271.41 260.038 268.657 262.968 266.957L303.485 243.483C306.415 241.783 311.188 241.783 314.139 243.483L385.061 284.305Z" fill="white" stroke="#556578" stroke-width="0.386128" stroke-miterlimit="10"/>
<path d="M317.105 253.578C317.501 253.804 317.501 254.173 317.105 254.399L314.059 256.162C313.663 256.389 313.029 256.389 312.633 256.162L305.231 251.899C304.835 251.673 304.83 251.304 305.231 251.078L308.277 249.315C308.668 249.088 309.307 249.088 309.703 249.315L317.105 253.578Z" fill="#DCE2EA"/>
<path d="M284.122 272.684C284.518 272.91 284.518 273.278 284.122 273.505L281.076 275.268C280.68 275.494 280.046 275.494 279.65 275.268L272.248 271.005C271.852 270.778 271.847 270.41 272.248 270.184L275.294 268.42C275.685 268.194 276.324 268.194 276.72 268.42L284.122 272.684Z" fill="#DCE2EA"/>
<path d="M316.634 281.21C317.189 281.531 317.194 282.052 316.634 282.373L316.212 282.615C315.658 282.936 314.755 282.936 314.2 282.615L283.795 265.115C283.24 264.794 283.235 264.273 283.795 263.952L284.217 263.71C284.771 263.389 285.674 263.389 286.229 263.71L316.634 281.21Z" fill="#5F38FB"/>
<path d="M302.047 259.194C302.295 259.336 302.464 259.494 302.559 259.668C302.649 259.841 302.659 260.01 302.596 260.183C302.527 260.352 302.374 260.51 302.131 260.652C302.041 260.705 301.936 260.752 301.814 260.794C301.698 260.841 301.566 260.878 301.418 260.915C301.271 260.952 301.102 260.984 300.917 261.005C300.732 261.031 300.526 261.052 300.31 261.062C300.088 261.078 299.845 261.089 299.592 261.099L298.076 261.136L299.84 262.152L299.101 262.584L296.35 260.999L296.651 260.589L299.407 260.499C299.555 260.499 299.718 260.499 299.893 260.484C300.067 260.473 300.241 260.457 300.421 260.436C300.595 260.415 300.764 260.389 300.906 260.357C301.054 260.326 301.17 260.284 301.255 260.236C301.366 260.173 301.44 260.099 301.476 260.026C301.508 259.952 301.508 259.873 301.466 259.799C301.424 259.72 301.339 259.647 301.207 259.573C301.096 259.51 300.959 259.462 300.785 259.441C300.616 259.415 300.426 259.415 300.22 259.431C300.014 259.447 299.803 259.483 299.586 259.547L299.338 258.989C299.65 258.894 299.972 258.836 300.299 258.826C300.621 258.81 300.938 258.836 301.239 258.899C301.54 258.962 301.809 259.062 302.047 259.199V259.194Z" fill="black"/>
<path d="M299.71 257.92L299.567 258.178L297.096 258.241C297.249 258.336 297.376 258.441 297.46 258.557C297.561 258.689 297.603 258.831 297.603 258.973C297.603 259.115 297.555 259.252 297.466 259.389C297.371 259.525 297.228 259.647 297.043 259.757C296.758 259.92 296.436 260.025 296.077 260.073C295.718 260.12 295.354 260.115 294.99 260.052C294.625 259.994 294.293 259.878 294.008 259.71C293.685 259.525 293.474 259.32 293.374 259.099C293.274 258.878 293.295 258.61 293.432 258.294L294.425 258.425C294.367 258.568 294.345 258.694 294.351 258.81C294.361 258.92 294.393 259.02 294.462 259.104C294.53 259.189 294.615 259.268 294.736 259.336C294.873 259.415 295.032 259.468 295.211 259.494C295.391 259.52 295.576 259.52 295.755 259.494C295.94 259.468 296.104 259.41 296.251 259.325C296.399 259.241 296.5 259.152 296.542 259.057C296.589 258.968 296.589 258.873 296.542 258.783C296.494 258.689 296.394 258.599 296.246 258.515C296.177 258.478 296.098 258.441 296.014 258.404C295.924 258.368 295.824 258.336 295.713 258.304C295.602 258.273 295.481 258.236 295.343 258.199L295.671 257.778L297.925 257.715L296.447 256.857L297.159 256.446L299.715 257.915L299.71 257.92Z" fill="black"/>
<path d="M319.297 271.531C319.202 271.726 319.033 271.9 318.775 272.047C318.463 272.226 318.125 272.347 317.756 272.415C317.386 272.479 317.011 272.484 316.642 272.431C316.272 272.379 315.939 272.268 315.644 272.1C315.422 271.973 315.258 271.831 315.147 271.678C315.042 271.526 314.984 271.368 314.984 271.21C314.984 271.052 315.031 270.894 315.137 270.742C315.242 270.589 315.406 270.447 315.633 270.315C315.755 270.247 315.902 270.178 316.071 270.115C316.246 270.052 316.441 269.994 316.663 269.942C316.89 269.884 317.127 269.836 317.386 269.784C317.65 269.736 317.93 269.689 318.236 269.647L319.794 269.415L320.564 269.863L320.527 269.915L318.579 270.189C318.458 270.205 318.347 270.226 318.236 270.242C318.299 270.252 318.363 270.268 318.426 270.289C318.584 270.336 318.727 270.4 318.859 270.473C319.097 270.61 319.255 270.773 319.329 270.968C319.403 271.163 319.392 271.357 319.302 271.547L319.297 271.531ZM317.428 271.852C317.624 271.815 317.798 271.752 317.967 271.657C318.104 271.578 318.204 271.484 318.252 271.373C318.305 271.263 318.31 271.157 318.273 271.042C318.231 270.931 318.136 270.836 317.993 270.752C317.835 270.663 317.655 270.6 317.465 270.573C317.27 270.547 317.08 270.547 316.89 270.578C316.7 270.61 316.525 270.668 316.383 270.752C316.224 270.842 316.119 270.942 316.061 271.057C316.003 271.168 315.997 271.278 316.045 271.389C316.092 271.505 316.193 271.605 316.351 271.694C316.499 271.778 316.668 271.836 316.858 271.863C317.048 271.889 317.238 271.889 317.423 271.852" fill="black"/>
<path d="M316.651 267.599C316.899 267.741 317.068 267.899 317.163 268.073C317.253 268.241 317.263 268.415 317.194 268.589C317.131 268.757 316.973 268.915 316.73 269.057C316.64 269.11 316.535 269.157 316.418 269.205C316.302 269.252 316.17 269.289 316.022 269.32C315.875 269.357 315.711 269.389 315.526 269.415C315.336 269.441 315.135 269.462 314.919 269.473C314.697 269.489 314.454 269.499 314.196 269.505L312.686 269.541L314.449 270.557L313.71 270.989L310.959 269.405L311.26 268.994L314.016 268.905C314.164 268.905 314.328 268.899 314.502 268.889C314.676 268.878 314.856 268.862 315.03 268.841C315.209 268.82 315.373 268.794 315.516 268.762C315.663 268.731 315.78 268.689 315.864 268.641C315.975 268.578 316.049 268.505 316.08 268.431C316.117 268.357 316.112 268.283 316.07 268.205C316.028 268.131 315.943 268.052 315.811 267.978C315.7 267.915 315.563 267.868 315.394 267.847C315.225 267.82 315.035 267.82 314.829 267.836C314.623 267.852 314.412 267.889 314.196 267.952L313.942 267.394C314.259 267.299 314.576 267.247 314.903 267.231C315.23 267.22 315.542 267.241 315.843 267.305C316.144 267.368 316.413 267.468 316.656 267.605L316.651 267.599Z" fill="black"/>
<path d="M307.576 265.41L308.315 265.836L307.618 266.241L306.879 265.815L305.802 266.436L305.026 265.989L306.103 265.368L304.419 264.399L304.725 263.831L309.503 263.562L310.136 263.926L307.576 265.41ZM306.8 264.962L308.125 264.194L305.712 264.336L306.8 264.962Z" fill="black"/>
<path d="M306.672 261.931L305.959 262.341L304.158 261.304L303.171 261.731C303.303 261.762 303.44 261.799 303.578 261.846C303.731 261.899 303.868 261.962 303.989 262.031C304.259 262.183 304.438 262.357 304.528 262.552C304.618 262.741 304.618 262.941 304.523 263.136C304.433 263.331 304.243 263.515 303.963 263.673C303.683 263.831 303.351 263.947 302.986 263.999C302.622 264.052 302.247 264.047 301.872 263.989C301.497 263.925 301.16 263.81 300.864 263.641C300.568 263.473 300.352 263.273 300.241 263.057C300.13 262.841 300.109 262.615 300.199 262.378L301.128 262.357C301.107 262.578 301.133 262.752 301.202 262.883C301.27 263.01 301.392 263.12 301.566 263.22C301.724 263.31 301.899 263.373 302.089 263.404C302.279 263.436 302.474 263.441 302.664 263.415C302.86 263.389 303.023 263.336 303.161 263.257C303.314 263.168 303.414 263.068 303.456 262.962C303.504 262.852 303.504 262.747 303.456 262.636C303.403 262.525 303.308 262.425 303.15 262.336C303.065 262.289 302.981 262.252 302.891 262.215C302.807 262.178 302.696 262.146 302.564 262.11C302.432 262.073 302.252 262.036 302.02 261.999L302.152 261.478L304.264 260.546L306.672 261.931Z" fill="black"/>
<path d="M333.507 279.71C333.412 279.905 333.243 280.073 332.984 280.226C332.673 280.405 332.335 280.526 331.96 280.589C331.59 280.652 331.216 280.658 330.846 280.605C330.476 280.552 330.144 280.442 329.848 280.273C329.626 280.147 329.463 280.005 329.357 279.852C329.246 279.7 329.188 279.542 329.188 279.379C329.188 279.221 329.236 279.063 329.341 278.91C329.447 278.758 329.616 278.621 329.838 278.489C329.959 278.421 330.107 278.352 330.276 278.289C330.445 278.226 330.645 278.168 330.867 278.116C331.094 278.058 331.332 278.005 331.59 277.958C331.849 277.905 332.134 277.863 332.44 277.821L333.998 277.589L334.769 278.031L334.732 278.084L332.784 278.358C332.667 278.379 332.551 278.394 332.44 278.41C332.509 278.426 332.567 278.437 332.631 278.458C332.789 278.505 332.931 278.568 333.063 278.642C333.306 278.779 333.459 278.942 333.533 279.137C333.602 279.326 333.597 279.526 333.507 279.716V279.71ZM331.633 280.026C331.828 279.989 332.002 279.926 332.166 279.831C332.303 279.752 332.403 279.658 332.456 279.547C332.509 279.437 332.514 279.326 332.477 279.216C332.435 279.105 332.345 279.01 332.198 278.926C332.039 278.837 331.865 278.779 331.675 278.747C331.48 278.721 331.289 278.721 331.094 278.747C330.904 278.779 330.735 278.837 330.587 278.921C330.429 279.01 330.323 279.11 330.265 279.226C330.212 279.337 330.207 279.452 330.249 279.563C330.292 279.673 330.397 279.779 330.55 279.868C330.703 279.958 330.867 280.01 331.057 280.037C331.247 280.063 331.437 280.063 331.627 280.026" fill="black"/>
<path d="M338.999 280.531L338.286 280.942L336.486 279.905L335.499 280.331C335.636 280.363 335.768 280.4 335.905 280.452C336.058 280.505 336.19 280.568 336.312 280.637C336.581 280.789 336.761 280.968 336.85 281.158C336.94 281.347 336.94 281.547 336.845 281.742C336.75 281.937 336.565 282.121 336.285 282.279C336.006 282.437 335.673 282.552 335.309 282.6C334.944 282.652 334.57 282.647 334.195 282.589C333.825 282.531 333.482 282.41 333.186 282.242C332.885 282.068 332.674 281.873 332.558 281.658C332.442 281.442 332.431 281.216 332.516 280.979L333.445 280.958C333.424 281.179 333.456 281.358 333.519 281.484C333.588 281.61 333.714 281.726 333.889 281.826C334.047 281.916 334.216 281.979 334.411 282.01C334.607 282.042 334.797 282.047 334.992 282.021C335.182 281.995 335.346 281.942 335.488 281.863C335.641 281.773 335.742 281.679 335.789 281.568C335.837 281.458 335.831 281.347 335.789 281.242C335.747 281.137 335.636 281.031 335.488 280.947C335.404 280.9 335.319 280.858 335.23 280.826C335.14 280.789 335.029 280.752 334.897 280.721C334.765 280.684 334.585 280.647 334.353 280.61L334.485 280.089L336.597 279.158L339.005 280.542L338.999 280.531Z" fill="black"/>
<path d="M339.9 284.01L340.639 284.437L339.942 284.842L339.203 284.416L338.126 285.037L337.35 284.589L338.427 283.968L336.743 283L337.049 282.431L341.827 282.163L342.461 282.531L339.9 284.016V284.01ZM339.124 283.563L340.449 282.794L338.036 282.931L339.129 283.558" fill="black"/>
<path d="M328.43 274.452L328.077 274.768L322.485 276.036L321.646 275.552L326.904 274.41L324.967 273.294L325.69 272.873L328.43 274.452Z" fill="black"/>
<path d="M322.268 274.036C322.195 274.131 322.089 274.215 321.957 274.294C321.719 274.431 321.434 274.515 321.107 274.552C320.78 274.584 320.447 274.563 320.104 274.5C319.761 274.431 319.449 274.315 319.159 274.147C318.868 273.978 318.684 273.81 318.567 273.61C318.451 273.41 318.42 273.221 318.478 273.026C318.53 272.836 318.678 272.673 318.911 272.536C319.048 272.457 319.201 272.389 319.359 272.347C319.523 272.3 319.687 272.273 319.856 272.263C320.025 272.252 320.204 272.263 320.394 272.278C320.489 272.289 320.584 272.3 320.679 272.315C320.658 272.273 320.626 272.226 320.611 272.184C320.584 272.094 320.579 272.01 320.595 271.926C320.611 271.842 320.648 271.763 320.706 271.694C320.764 271.621 320.848 271.557 320.954 271.494C321.176 271.368 321.44 271.284 321.74 271.257C322.041 271.226 322.353 271.242 322.664 271.305C322.981 271.363 323.266 271.468 323.525 271.615C323.784 271.763 323.974 271.931 324.074 272.115C324.18 272.294 324.211 272.478 324.159 272.652C324.106 272.826 323.974 272.978 323.752 273.11C323.646 273.168 323.536 273.215 323.409 273.252C323.282 273.284 323.155 273.31 323.018 273.315C322.881 273.326 322.733 273.315 322.58 273.31C322.495 273.3 322.406 273.289 322.316 273.273C322.348 273.326 322.374 273.379 322.39 273.436C322.422 273.542 322.432 273.642 322.411 273.747C322.39 273.852 322.342 273.947 322.268 274.042V274.036ZM320.801 273.947C320.954 273.931 321.091 273.889 321.207 273.821C321.334 273.747 321.418 273.663 321.45 273.573C321.482 273.478 321.471 273.384 321.413 273.289C321.36 273.194 321.26 273.105 321.117 273.021C320.975 272.936 320.832 272.889 320.663 272.857C320.5 272.826 320.336 272.821 320.172 272.836C320.009 272.852 319.861 272.9 319.734 272.973C319.618 273.042 319.549 273.121 319.528 273.21C319.502 273.3 319.518 273.394 319.571 273.489C319.623 273.584 319.718 273.668 319.861 273.747C320.003 273.826 320.157 273.884 320.32 273.921C320.489 273.952 320.648 273.963 320.806 273.947M322.047 271.836C321.915 271.852 321.793 271.889 321.688 271.952C321.582 272.015 321.519 272.078 321.492 272.157C321.466 272.236 321.482 272.315 321.535 272.394C321.587 272.478 321.677 272.552 321.793 272.621C321.92 272.694 322.052 272.742 322.195 272.773C322.337 272.805 322.474 272.81 322.606 272.794C322.738 272.778 322.86 272.742 322.96 272.684C323.06 272.626 323.134 272.552 323.155 272.473C323.187 272.394 323.171 272.315 323.118 272.231C323.071 272.147 322.981 272.068 322.86 272C322.738 271.931 322.606 271.884 322.459 271.852C322.316 271.826 322.179 271.815 322.041 271.831" fill="black"/>
<path d="M346.408 284.8L346.054 285.11L340.463 286.384L339.623 285.9L344.882 284.758L342.944 283.642L343.667 283.221L346.408 284.8Z" fill="black"/>
<path d="M374.655 284.168C377.073 285.558 377.089 287.815 374.687 289.205C372.284 290.594 368.377 290.594 365.959 289.205C365.035 288.673 364.465 288.015 364.243 287.331C366.171 287.531 368.235 287.21 369.718 286.347C371.202 285.489 371.762 284.294 371.403 283.184C372.591 283.31 373.731 283.636 374.655 284.168Z" fill="#DCE2EA"/>
<path d="M369.686 281.31C370.61 281.842 371.18 282.5 371.402 283.184C369.475 282.984 367.416 283.31 365.932 284.168C364.449 285.026 363.889 286.216 364.243 287.331C363.055 287.205 361.914 286.879 360.99 286.347C358.572 284.958 358.562 282.7 360.964 281.31C363.366 279.921 367.268 279.921 369.686 281.31Z" fill="#B9C5D4"/>
<path d="M371.403 283.184C371.762 284.3 371.203 285.489 369.719 286.347C368.236 287.205 366.176 287.531 364.244 287.331C363.885 286.216 364.445 285.031 365.934 284.168C367.422 283.305 369.476 282.979 371.403 283.184Z" fill="#B9C5D4"/>
</g>
</g>
</g>
<defs>
<filter id="filter0_b_13_4" x="-70" y="-70" width="524" height="424" filterUnits="userSpaceOnUse" color-interpolation-filters="sRGB">
<feFlood flood-opacity="0" result="BackgroundImageFix"/>
<feGaussianBlur in="BackgroundImageFix" stdDeviation="35"/>
<feComposite in2="SourceAlpha" operator="in" result="effect1_backgroundBlur_13_4"/>
<feBlend mode="normal" in="SourceGraphic" in2="effect1_backgroundBlur_13_4" result="shape"/>
</filter>
<linearGradient id="paint0_linear_13_4" x1="115.811" y1="293.252" x2="235.302" y2="293.252" gradientUnits="userSpaceOnUse">
<stop stop-color="#5F38FB"/>
<stop offset="0.24" stop-color="#5F38FB" stop-opacity="0.5476"/>
<stop offset="0.79" stop-color="#5F38FB" stop-opacity="0.01"/>
<stop offset="0.85" stop-color="#5F38FB" stop-opacity="0"/>
</linearGradient>
<linearGradient id="paint1_linear_13_4" x1="176.804" y1="309.821" x2="339.282" y2="309.821" gradientUnits="userSpaceOnUse">
<stop offset="0.15" stop-color="#5F38FB" stop-opacity="0"/>
<stop offset="0.21" stop-color="#5F38FB" stop-opacity="0.01"/>
<stop offset="0.76" stop-color="#5F38FB" stop-opacity="0.5476"/>
<stop offset="1" stop-color="#5F38FB"/>
</linearGradient>
<linearGradient id="paint2_linear_13_4" x1="243.027" y1="139.613" x2="318.084" y2="139.613" gradientUnits="userSpaceOnUse">
<stop stop-color="#5F38FB"/>
<stop offset="0.24" stop-color="#5F38FB" stop-opacity="0.5476"/>
<stop offset="0.79" stop-color="#5F38FB" stop-opacity="0.01"/>
<stop offset="0.85" stop-color="#5F38FB" stop-opacity="0"/>
</linearGradient>
<linearGradient id="paint3_linear_13_4" x1="163.223" y1="265.694" x2="462.471" y2="265.694" gradientUnits="userSpaceOnUse">
<stop stop-color="#DCE2EA"/>
<stop offset="0.8" stop-color="#F3F5F8"/>
</linearGradient>
<linearGradient id="paint4_linear_13_4" x1="226.147" y1="172.366" x2="372.2" y2="172.366" gradientUnits="userSpaceOnUse">
<stop stop-color="#DCE2EA"/>
<stop offset="0.8" stop-color="#F3F5F8"/>
</linearGradient>
<linearGradient id="paint5_linear_13_4" x1="226.147" y1="138.807" x2="372.109" y2="138.807" gradientUnits="userSpaceOnUse">
<stop stop-color="#DCE2EA"/>
<stop offset="0.8" stop-color="#F3F5F8"/>
</linearGradient>
<linearGradient id="paint6_linear_13_4" x1="210.816" y1="212.246" x2="239.4" y2="212.246" gradientUnits="userSpaceOnUse">
<stop stop-color="#DCE2EA"/>
<stop offset="0.8" stop-color="#F3F5F8"/>
</linearGradient>
<linearGradient id="paint7_linear_13_4" x1="191.253" y1="186.24" x2="236.701" y2="186.24" gradientUnits="userSpaceOnUse">
<stop stop-color="#DCE2EA"/>
<stop offset="0.8" stop-color="#F3F5F8"/>
</linearGradient>
<linearGradient id="paint8_linear_13_4" x1="223.094" y1="210.035" x2="230.259" y2="210.035" gradientUnits="userSpaceOnUse">
<stop stop-color="#DCE2EA"/>
<stop offset="0.8" stop-color="#F3F5F8"/>
</linearGradient>
<linearGradient id="paint9_linear_13_4" x1="172.42" y1="150.644" x2="196.87" y2="150.644" gradientUnits="userSpaceOnUse">
<stop stop-color="#DCE2EA"/>
<stop offset="0.8" stop-color="#F3F5F8"/>
</linearGradient>
<clipPath id="clip0_13_4">
<rect width="384" height="284" rx="16" fill="white"/>
</clipPath>
<clipPath id="clip1_13_4">
<rect width="428.2" height="323.07" fill="white" transform="translate(107 83.491)"/>
</clipPath>
</defs>
</svg>
