<svg width="54" height="55" viewBox="0 0 54 55" fill="none" xmlns="http://www.w3.org/2000/svg">
<rect y="0.529297" width="54" height="54" rx="8" fill="#F3F5F8"/>
<path d="M23.0206 16.6739L37.4948 31.1481C38.809 32.4623 41.0563 31.5315 41.0563 29.6728V15.5628C41.0563 14.4106 40.1222 13.4766 38.97 13.4766H24.345C22.6763 13.4766 21.8407 15.494 23.0206 16.6739Z" fill="#B9C5D4"/>
<path d="M30.98 38.3843L16.5058 23.9102C15.1916 22.5959 12.9443 23.5267 12.9443 25.3854L12.9443 39.4954C12.9443 40.6476 13.8784 41.5817 15.0306 41.5817H29.6556C31.3243 41.5817 32.1599 39.5642 30.98 38.3843Z" fill="#B9C5D4"/>
<g filter="url(#filter0_b_3542_1396)">
<path d="M23.343 33.0946C22.8937 33.0946 22.4442 32.9231 22.1012 32.5801L18.2922 28.7707C17.6064 28.0851 17.6064 26.973 18.2922 26.2874L22.1012 22.4783C22.787 21.7924 23.8994 21.7924 24.5847 22.4783C25.2706 23.1639 25.2706 24.276 24.5847 24.9616L22.0174 27.529L24.585 30.0969C25.2706 30.7825 25.2706 31.8945 24.5847 32.5805C24.2417 32.9231 23.7924 33.0946 23.343 33.0946Z" fill="#5F38FB"/>
</g>
<g filter="url(#filter1_b_3542_1396)">
<path d="M30.6512 33.0945C30.2019 33.0945 29.7522 32.923 29.4095 32.58C28.7236 31.8944 28.7236 30.7824 29.4095 30.0968L31.977 27.5289L29.4095 24.9619C28.7236 24.2759 28.7236 23.1638 29.4092 22.4783C30.0951 21.7923 31.2068 21.7927 31.8928 22.4779L35.7022 26.2869C36.0315 26.6166 36.2167 27.0632 36.2167 27.5289C36.2167 27.9946 36.0319 28.4413 35.7022 28.7706L31.8928 32.58C31.5502 32.923 31.1005 33.0945 30.6512 33.0945Z" fill="#5F38FB"/>
</g>
<defs>
<filter id="filter0_b_3542_1396" x="16.2169" y="20.4029" width="10.4432" height="14.2528" filterUnits="userSpaceOnUse" color-interpolation-filters="sRGB">
<feFlood flood-opacity="0" result="BackgroundImageFix"/>
<feGaussianBlur in="BackgroundImageFix" stdDeviation="0.780488"/>
<feComposite in2="SourceAlpha" operator="in" result="effect1_backgroundBlur_3542_1396"/>
<feBlend mode="normal" in="SourceGraphic" in2="effect1_backgroundBlur_3542_1396" result="shape"/>
</filter>
<filter id="filter1_b_3542_1396" x="27.334" y="20.4029" width="10.4437" height="14.2528" filterUnits="userSpaceOnUse" color-interpolation-filters="sRGB">
<feFlood flood-opacity="0" result="BackgroundImageFix"/>
<feGaussianBlur in="BackgroundImageFix" stdDeviation="0.780488"/>
<feComposite in2="SourceAlpha" operator="in" result="effect1_backgroundBlur_3542_1396"/>
<feBlend mode="normal" in="SourceGraphic" in2="effect1_backgroundBlur_3542_1396" result="shape"/>
</filter>
</defs>
</svg>
