<svg width="54" height="57" viewBox="0 0 54 57" fill="none" xmlns="http://www.w3.org/2000/svg">
<rect width="54" height="54" rx="8" fill="#EAFCF1"/>
<path d="M23.0205 16.1447L37.4946 30.6189C38.8089 31.9332 41.0561 31.0023 41.0561 29.1437V15.0337C41.0561 13.8814 40.1221 12.9474 38.9699 12.9474H24.3449C22.6762 12.9474 21.8406 14.9648 23.0205 16.1447Z" fill="#C9F8DC"/>
<g filter="url(#filter0_bd_3308_1374)">
<path d="M30.9799 37.8551L16.5057 23.381C15.1914 22.0667 12.9442 22.9975 12.9442 24.8562L12.9442 38.9662C12.9442 40.1184 13.8783 41.0525 15.0305 41.0525H29.6555C31.3241 41.0525 32.1598 39.035 30.9799 37.8551Z" fill="url(#paint0_linear_3308_1374)" shape-rendering="crispEdges"/>
<path d="M16.3677 23.519L30.8419 37.9931C31.8989 39.0501 31.1503 40.8574 29.6555 40.8574H15.0305C13.986 40.8574 13.1393 40.0107 13.1393 38.9662V24.8562C13.1393 23.1714 15.1764 22.3276 16.3677 23.519Z" stroke="url(#paint1_linear_3308_1374)" stroke-width="0.390244" shape-rendering="crispEdges"/>
</g>
<g filter="url(#filter1_b_3308_1374)">
<path d="M23.3427 32.5653C22.8934 32.5653 22.4439 32.3938 22.1009 32.0508L18.2918 28.2414C17.606 27.5558 17.606 26.4437 18.2918 25.7581L22.1009 21.9491C22.7867 21.2631 23.8991 21.2631 24.5843 21.9491C25.2703 22.6346 25.2703 23.7467 24.5843 24.4323L22.017 26.9997L24.5847 29.5676C25.2703 30.2532 25.2703 31.3652 24.5843 32.0512C24.2413 32.3938 23.792 32.5653 23.3427 32.5653Z" fill="url(#paint2_linear_3308_1374)"/>
<path d="M24.5847 29.5676L24.4467 29.7055C25.056 30.3149 25.0561 31.3033 24.4464 31.9131C24.1414 32.2178 23.7423 32.3702 23.3427 32.3702C22.943 32.3702 22.5438 32.2178 22.2389 31.9128C22.2389 31.9128 22.2388 31.9128 22.2388 31.9128L18.4298 28.1034L18.4298 28.1034C17.8202 27.494 17.8202 26.5055 18.4298 25.8961L18.4298 25.8961L22.2388 22.087L22.2389 22.087C22.8485 21.4772 23.8373 21.4773 24.4462 22.0869L24.4464 22.0871C25.0561 22.6964 25.0561 23.6849 24.4464 24.2943L24.4463 24.2943L21.8791 26.8618L21.7411 26.9997L21.8791 27.1377L24.4467 29.7055L24.5847 29.5676Z" stroke="url(#paint3_linear_3308_1374)" stroke-width="0.390244"/>
</g>
<g filter="url(#filter2_b_3308_1374)">
<path d="M30.6506 32.5653C30.2012 32.5653 29.7515 32.3938 29.4089 32.0508C28.723 31.3652 28.723 30.2532 29.4089 29.5676L31.9764 26.9998L29.4089 24.4327C28.723 23.7467 28.723 22.6347 29.4086 21.9491C30.0945 21.2631 31.2062 21.2635 31.8922 21.9487L35.7016 25.7578C36.0309 26.0874 36.2161 26.5341 36.2161 26.9998C36.2161 27.4655 36.0313 27.9121 35.7016 28.2414L31.8922 32.0508C31.5496 32.3938 31.0999 32.5653 30.6506 32.5653Z" fill="url(#paint4_linear_3308_1374)"/>
<path d="M29.547 31.9129L29.5469 31.9128C28.9371 31.3034 28.9371 30.315 29.5469 29.7056L29.5469 29.7056L32.1144 27.1377L32.2523 26.9997L32.1144 26.8618L29.5469 24.2947C29.5469 24.2947 29.5469 24.2947 29.5469 24.2947C28.9371 23.6849 28.9372 22.6964 29.5465 22.0871C30.1562 21.4773 31.1444 21.4776 31.7542 22.0867C31.7542 22.0867 31.7543 22.0867 31.7543 22.0867L35.5636 25.8957C35.8564 26.1888 36.021 26.5859 36.021 26.9998C36.021 27.4138 35.8567 27.8107 35.5637 28.1033L35.5636 28.1034L31.7542 31.9129L31.7541 31.9129C31.4496 32.2178 31.0503 32.3702 30.6506 32.3702C30.2508 32.3702 29.8515 32.2178 29.547 31.9129Z" stroke="url(#paint5_linear_3308_1374)" stroke-width="0.390244"/>
</g>
<defs>
<filter id="filter0_bd_3308_1374" x="5.13934" y="14.9609" width="42.0026" height="41.7014" filterUnits="userSpaceOnUse" color-interpolation-filters="sRGB">
<feFlood flood-opacity="0" result="BackgroundImageFix"/>
<feGaussianBlur in="BackgroundImageFix" stdDeviation="3.90244"/>
<feComposite in2="SourceAlpha" operator="in" result="effect1_backgroundBlur_3308_1374"/>
<feColorMatrix in="SourceAlpha" type="matrix" values="0 0 0 0 0 0 0 0 0 0 0 0 0 0 0 0 0 0 127 0" result="hardAlpha"/>
<feOffset dx="3.90244" dy="3.90244"/>
<feGaussianBlur stdDeviation="5.85366"/>
<feComposite in2="hardAlpha" operator="out"/>
<feColorMatrix type="matrix" values="0 0 0 0 0.0196078 0 0 0 0 0.6 0 0 0 0 0.290196 0 0 0 0.3 0"/>
<feBlend mode="normal" in2="effect1_backgroundBlur_3308_1374" result="effect2_dropShadow_3308_1374"/>
<feBlend mode="normal" in="SourceGraphic" in2="effect2_dropShadow_3308_1374" result="shape"/>
</filter>
<filter id="filter1_b_3308_1374" x="16.2165" y="19.8736" width="10.4434" height="14.2527" filterUnits="userSpaceOnUse" color-interpolation-filters="sRGB">
<feFlood flood-opacity="0" result="BackgroundImageFix"/>
<feGaussianBlur in="BackgroundImageFix" stdDeviation="0.780488"/>
<feComposite in2="SourceAlpha" operator="in" result="effect1_backgroundBlur_3308_1374"/>
<feBlend mode="normal" in="SourceGraphic" in2="effect1_backgroundBlur_3308_1374" result="shape"/>
</filter>
<filter id="filter2_b_3308_1374" x="27.3334" y="19.8737" width="10.4436" height="14.2526" filterUnits="userSpaceOnUse" color-interpolation-filters="sRGB">
<feFlood flood-opacity="0" result="BackgroundImageFix"/>
<feGaussianBlur in="BackgroundImageFix" stdDeviation="0.780488"/>
<feComposite in2="SourceAlpha" operator="in" result="effect1_backgroundBlur_3308_1374"/>
<feBlend mode="normal" in="SourceGraphic" in2="effect1_backgroundBlur_3308_1374" result="shape"/>
</filter>
<linearGradient id="paint0_linear_3308_1374" x1="13.3038" y1="22.7657" x2="32.714" y2="43.3036" gradientUnits="userSpaceOnUse">
<stop offset="0.182224" stop-color="#2DE376" stop-opacity="0.5"/>
<stop offset="0.640234" stop-color="#2DE376" stop-opacity="0.9"/>
</linearGradient>
<linearGradient id="paint1_linear_3308_1374" x1="12.9442" y1="20.6379" x2="30.6863" y2="42.1039" gradientUnits="userSpaceOnUse">
<stop offset="0.249921" stop-color="#2DE376"/>
<stop offset="0.470896" stop-color="#2DE376" stop-opacity="0"/>
<stop offset="0.816545" stop-color="#35C168"/>
</linearGradient>
<linearGradient id="paint2_linear_3308_1374" x1="22.9204" y1="40.8447" x2="14.322" y2="17.9213" gradientUnits="userSpaceOnUse">
<stop offset="0.0822725" stop-color="#8566FF" stop-opacity="0.3"/>
<stop offset="0.423605" stop-color="#5F38FB" stop-opacity="0.5"/>
<stop offset="0.762303" stop-color="#5F38FB" stop-opacity="0.7"/>
</linearGradient>
<linearGradient id="paint3_linear_3308_1374" x1="21.4381" y1="45.8124" x2="19.2318" y2="12.842" gradientUnits="userSpaceOnUse">
<stop offset="0.137498" stop-color="#AF9BFD"/>
<stop offset="0.410212" stop-color="#5F38FB" stop-opacity="0"/>
<stop offset="0.835001" stop-color="#5F38FB"/>
</linearGradient>
<linearGradient id="paint4_linear_3308_1374" x1="34.0376" y1="40.8446" x2="25.4396" y2="17.9212" gradientUnits="userSpaceOnUse">
<stop offset="0.0822725" stop-color="#8566FF" stop-opacity="0.3"/>
<stop offset="0.423605" stop-color="#5F38FB" stop-opacity="0.5"/>
<stop offset="0.762303" stop-color="#5F38FB" stop-opacity="0.7"/>
</linearGradient>
<linearGradient id="paint5_linear_3308_1374" x1="32.5553" y1="45.8123" x2="30.349" y2="12.8422" gradientUnits="userSpaceOnUse">
<stop offset="0.137498" stop-color="#AF9BFD"/>
<stop offset="0.410212" stop-color="#5F38FB" stop-opacity="0"/>
<stop offset="0.835001" stop-color="#5F38FB"/>
</linearGradient>
</defs>
</svg>
