<svg xmlns="http://www.w3.org/2000/svg" width="32" height="32" viewBox="0 0 32 32" fill="none">
  <path d="M12.0206 5.14473L26.4948 19.6189C27.809 20.9332 30.0563 20.0023 30.0563 18.1437V4.03367C30.0563 2.88145 29.1222 1.94739 27.97 1.94739H13.345C11.6763 1.94739 10.8407 3.96483 12.0206 5.14473Z" fill="#B9C5D4"/>
  <path d="M19.98 26.8551L5.50584 12.381C4.19156 11.0667 1.94434 11.9975 1.94434 13.8562L1.94434 27.9662C1.94434 29.1184 2.8784 30.0525 4.03062 30.0525H18.6556C20.3243 30.0525 21.1599 28.035 19.98 26.8551Z" fill="#B9C5D4"/>
  <g filter="url(#filter0_b_3575_3870)">
    <path d="M12.343 21.5653C11.8937 21.5653 11.4442 21.3938 11.1012 21.0508L7.29217 17.2414C6.60639 16.5558 6.60639 15.4437 7.29217 14.7581L11.1012 10.9491C11.787 10.2631 12.8994 10.2631 13.5847 10.9491C14.2706 11.6346 14.2706 12.7467 13.5847 13.4323L11.0174 15.9997L13.585 18.5676C14.2706 19.2532 14.2706 20.3652 13.5847 21.0512C13.2417 21.3938 12.7924 21.5653 12.343 21.5653Z" fill="#5F38FB"/>
  </g>
  <g filter="url(#filter1_b_3575_3870)">
    <path d="M19.6512 21.5653C19.2019 21.5653 18.7522 21.3938 18.4095 21.0508C17.7236 20.3652 17.7236 19.2532 18.4095 18.5676L20.977 15.9998L18.4095 13.4327C17.7236 12.7467 17.7236 11.6347 18.4092 10.9491C19.0951 10.2631 20.2068 10.2635 20.8928 10.9487L24.7022 14.7578C25.0315 15.0874 25.2167 15.5341 25.2167 15.9998C25.2167 16.4655 25.0319 16.9121 24.7022 17.2414L20.8928 21.0508C20.5502 21.3938 20.1005 21.5653 19.6512 21.5653Z" fill="#5F38FB"/>
  </g>
  <defs>
    <filter id="filter0_b_3575_3870" x="5.21686" y="8.87359" width="10.4432" height="14.2527" filterUnits="userSpaceOnUse" color-interpolation-filters="sRGB">
      <feFlood flood-opacity="0" result="BackgroundImageFix"/>
      <feGaussianBlur in="BackgroundImageFix" stdDeviation="0.780488"/>
      <feComposite in2="SourceAlpha" operator="in" result="effect1_backgroundBlur_3575_3870"/>
      <feBlend mode="normal" in="SourceGraphic" in2="effect1_backgroundBlur_3575_3870" result="shape"/>
    </filter>
    <filter id="filter1_b_3575_3870" x="16.334" y="8.87372" width="10.4437" height="14.2526" filterUnits="userSpaceOnUse" color-interpolation-filters="sRGB">
      <feFlood flood-opacity="0" result="BackgroundImageFix"/>
      <feGaussianBlur in="BackgroundImageFix" stdDeviation="0.780488"/>
      <feComposite in2="SourceAlpha" operator="in" result="effect1_backgroundBlur_3575_3870"/>
      <feBlend mode="normal" in="SourceGraphic" in2="effect1_backgroundBlur_3575_3870" result="shape"/>
    </filter>
  </defs>
</svg>