<svg width="497" height="555" viewBox="0 0 497 555" fill="none" xmlns="http://www.w3.org/2000/svg">
<rect y="1" width="496.649" height="554" fill="white"/>
<rect width="15.5382" height="12.5194" rx="1.61545" transform="matrix(-1 0 0 1 89.3329 414.476)" fill="#DCE2EA"/>
<rect width="15.5382" height="12.5194" rx="1.61545" transform="matrix(-1 0 0 1 106.477 398.333)" fill="#DCE2EA"/>
<g clip-path="url(#clip0_10_768)">
<path d="M266.82 150.963L266.882 167.168L278.013 172.372L277.964 156.178L266.82 150.963Z" fill="url(#paint0_linear_10_768)" stroke="#0B1742" stroke-width="0.917411" stroke-linecap="round" stroke-linejoin="round"/>
<path d="M306.717 78.9806C306.901 78.9215 307.072 78.8624 307.244 78.8131C307.501 78.7342 307.746 78.6652 307.991 78.6061C308.15 78.5667 308.309 78.5272 308.468 78.4977C308.615 78.4681 308.762 78.4484 308.909 78.4188C309.093 78.3892 309.289 78.3695 309.473 78.3498C309.583 78.3498 309.693 78.3301 309.791 78.3202C310.024 78.3104 310.244 78.3005 310.465 78.3104C310.514 78.3104 310.575 78.3104 310.624 78.3104C310.893 78.3202 311.15 78.3498 311.408 78.3892C311.469 78.3991 311.53 78.4089 311.591 78.4287C311.787 78.4681 311.983 78.5075 312.179 78.5667C312.24 78.5864 312.301 78.5962 312.363 78.6159C312.608 78.6948 312.84 78.7736 313.061 78.8821L301.917 73.6679C301.917 73.6679 301.88 73.6482 301.856 73.6383C301.684 73.5595 301.5 73.4905 301.329 73.4313C301.292 73.4215 301.256 73.4116 301.219 73.4017C301.158 73.382 301.096 73.3722 301.035 73.3525C300.937 73.3229 300.851 73.2933 300.753 73.2736C300.655 73.2539 300.545 73.2342 300.447 73.2145C300.386 73.2046 300.325 73.1849 300.264 73.175C300.227 73.175 300.202 73.1652 300.166 73.1553C299.957 73.1258 299.749 73.106 299.529 73.0962C299.517 73.0962 299.504 73.0962 299.492 73.0962C299.443 73.0962 299.382 73.0962 299.333 73.0962C299.161 73.0962 299.002 73.0962 298.831 73.0962C298.77 73.0962 298.708 73.106 298.659 73.106C298.549 73.106 298.451 73.1258 298.341 73.1356C298.243 73.1356 298.145 73.1455 298.047 73.1553C297.961 73.1652 297.863 73.1849 297.778 73.2046C297.631 73.2243 297.496 73.2539 297.349 73.2835C297.276 73.3032 297.19 73.3032 297.116 73.3229C297.043 73.3426 296.957 73.3722 296.884 73.3919C296.639 73.451 296.382 73.52 296.137 73.5989C296.051 73.6285 295.965 73.6383 295.867 73.6679C295.782 73.6974 295.696 73.7369 295.598 73.7664C295.512 73.796 295.426 73.8256 295.341 73.8552C295.022 73.9734 294.692 74.1114 294.361 74.2593L191.421 122.104C191.078 122.261 190.747 122.439 190.404 122.616C190.294 122.675 190.196 122.744 190.086 122.803C189.865 122.932 189.633 123.07 189.412 123.208C189.29 123.286 189.167 123.365 189.045 123.444C188.849 123.582 188.641 123.72 188.445 123.868C188.322 123.957 188.2 124.045 188.09 124.134C188.016 124.193 187.943 124.243 187.869 124.302C187.796 124.361 187.722 124.43 187.636 124.499C187.392 124.696 187.159 124.893 186.926 125.1C186.853 125.169 186.779 125.228 186.706 125.297C186.645 125.356 186.583 125.415 186.522 125.475C186.387 125.603 186.24 125.741 186.106 125.879C186.02 125.967 185.922 126.056 185.836 126.145C185.763 126.224 185.702 126.293 185.628 126.372C185.53 126.48 185.432 126.588 185.334 126.697C185.273 126.776 185.2 126.845 185.126 126.914C185.016 127.042 184.906 127.17 184.808 127.298C184.734 127.377 184.673 127.466 184.599 127.545C184.575 127.584 184.538 127.614 184.514 127.643C184.33 127.88 184.146 128.126 183.963 128.363C183.963 128.382 183.938 128.392 183.926 128.412C183.889 128.461 183.852 128.51 183.816 128.56C183.693 128.727 183.571 128.905 183.461 129.082C183.412 129.161 183.363 129.25 183.301 129.329C183.252 129.417 183.191 129.496 183.142 129.585C183.093 129.664 183.044 129.733 182.995 129.812C182.873 130.009 182.763 130.216 182.652 130.413C182.628 130.452 182.616 130.482 182.591 130.521C182.591 130.531 182.591 130.541 182.579 130.551C182.444 130.807 182.309 131.063 182.187 131.32C182.162 131.369 182.15 131.418 182.126 131.458C182.077 131.556 182.04 131.645 182.003 131.743C181.942 131.872 181.881 132 181.832 132.128C181.795 132.226 181.758 132.325 181.722 132.424C181.673 132.542 181.636 132.66 181.587 132.778C181.562 132.847 181.526 132.926 181.501 132.995C181.452 133.123 181.428 133.252 181.379 133.39C181.33 133.537 181.281 133.685 181.244 133.823C181.232 133.873 181.207 133.922 181.195 133.971C181.171 134.08 181.158 134.178 181.134 134.287C181.085 134.513 181.024 134.74 180.987 134.967C180.987 135.026 180.962 135.095 180.95 135.154C180.926 135.302 180.913 135.44 180.901 135.578C180.901 135.676 180.877 135.775 180.864 135.883C180.84 136.199 180.815 136.514 180.815 136.83L180.975 180.997C180.975 183.688 182.162 185.581 184.073 186.478L195.217 191.692C193.306 190.805 192.131 188.902 192.119 186.212L191.959 142.044C191.959 141.728 191.972 141.413 192.008 141.097C192.008 140.999 192.033 140.9 192.045 140.792C192.07 140.585 192.106 140.388 192.143 140.181C192.18 139.954 192.229 139.727 192.29 139.501C192.327 139.343 192.363 139.195 192.4 139.037C192.437 138.89 192.486 138.742 192.535 138.604C192.596 138.397 192.657 138.2 192.731 137.993C192.768 137.874 192.817 137.756 192.866 137.638C192.951 137.411 193.049 137.184 193.147 136.958C193.184 136.869 193.233 136.77 193.27 136.682C193.417 136.366 193.576 136.051 193.735 135.745C193.76 135.706 193.772 135.676 193.796 135.637C193.955 135.361 194.115 135.085 194.286 134.809C194.335 134.72 194.396 134.641 194.445 134.553C194.617 134.296 194.788 134.04 194.96 133.784C194.996 133.735 195.021 133.685 195.058 133.636C195.266 133.34 195.498 133.045 195.731 132.759C195.792 132.68 195.866 132.591 195.939 132.512C196.111 132.305 196.282 132.098 196.466 131.901C196.564 131.793 196.662 131.684 196.76 131.576C196.919 131.408 197.078 131.251 197.237 131.083C197.372 130.945 197.507 130.807 197.654 130.679C197.788 130.551 197.923 130.433 198.058 130.314C198.291 130.107 198.523 129.9 198.768 129.703C198.915 129.585 199.062 129.457 199.221 129.338C199.344 129.25 199.454 129.161 199.576 129.072C199.772 128.924 199.981 128.786 200.176 128.648C200.299 128.57 200.421 128.491 200.532 128.412C200.752 128.274 200.972 128.136 201.205 128.008C201.315 127.949 201.413 127.88 201.524 127.821C201.854 127.633 202.197 127.466 202.54 127.298L305.493 79.4833C305.823 79.3355 306.142 79.1975 306.472 79.0792C306.558 79.0496 306.644 79.0201 306.73 78.9905L306.717 78.9806Z" fill="url(#paint1_linear_10_768)" stroke="#0B1742" stroke-width="0.917411" stroke-linecap="round" stroke-linejoin="round"/>
<path d="M305.493 79.4832C311.359 76.7529 316.122 78.9411 316.147 84.3623L316.306 128.53C316.33 133.951 311.591 140.545 305.725 143.276L296.014 147.79L278.013 172.382L277.951 156.188L202.773 191.12C196.919 193.84 192.143 191.662 192.131 186.241L191.972 142.073C191.947 136.652 196.686 130.058 202.552 127.328L305.493 79.4832Z" fill="#DCE2EA" stroke="#0B1742" stroke-width="0.917411" stroke-linecap="round" stroke-linejoin="round"/>
<path d="M260.142 133.972L260.142 133.973L211.231 156.702L211.23 156.703C210.498 157.039 209.822 157.631 209.331 158.319C208.836 159.01 208.558 159.756 208.558 160.386C208.558 160.386 208.558 160.386 208.558 160.387L208.582 166.356C208.582 166.356 208.582 166.357 208.582 166.357C208.587 166.965 208.844 167.314 209.191 167.473C209.564 167.645 210.155 167.648 210.893 167.304L210.894 167.304L259.804 144.575L260.142 133.972ZM260.142 133.972C260.881 133.628 261.472 133.632 261.845 133.803M260.142 133.972L261.845 133.803M261.845 133.803C262.192 133.963 262.448 134.312 262.454 134.92M261.845 133.803L262.454 134.92M262.454 134.92C262.454 134.92 262.454 134.92 262.454 134.921M262.454 134.92L262.454 134.921M262.454 134.921L262.478 140.89C262.478 140.89 262.478 140.891 262.478 140.891C262.478 141.521 262.199 142.264 261.705 142.954C261.214 143.64 260.538 144.233 259.804 144.574L262.454 134.921Z" fill="#5F38FB" stroke="#0B1742" stroke-width="0.917411"/>
<path d="M297.091 98.1323C299.21 97.1466 300.937 97.945 300.949 99.8966V104.224C300.973 106.185 299.259 108.58 297.14 109.566L211.908 149.17C209.789 150.156 208.062 149.357 208.05 147.396V143.069C208.026 141.107 209.74 138.712 211.859 137.736L297.091 98.1323Z" fill="white" stroke="#0B1742" stroke-width="0.917411" stroke-miterlimit="10"/>
</g>
<ellipse cx="4.0798" cy="3.28721" rx="4.0798" ry="3.28721" transform="matrix(-1 0 0 1 81.7378 27.1045)" fill="#DCE2EA"/>
<ellipse cx="4.0798" cy="3.28721" rx="4.0798" ry="3.28721" transform="matrix(-1 0 0 1 68.4183 27.1045)" fill="#DCE2EA"/>
<ellipse cx="4.0798" cy="3.28721" rx="4.0798" ry="3.28721" transform="matrix(-1 0 0 1 55.1027 27.1045)" fill="#DCE2EA"/>
<rect width="54.5824" height="16.2366" rx="8.11832" transform="matrix(-1 0 0 1 91.6311 22.2734)" stroke="#DCE2EA" stroke-width="2.14018"/>
<path d="M63.8143 22.3115V1.94385" stroke="#DCE2EA" stroke-width="2.14018" stroke-linecap="round"/>
<path d="M64.4442 38.8599V55.0411C64.4442 60.1654 60.2901 64.3195 55.1658 64.3195H8.19931" stroke="#DCE2EA" stroke-width="2.14018" stroke-linecap="round"/>
<path d="M64.4442 49.8062V65.9874C64.4442 71.1117 60.2901 75.2658 55.1658 75.2658H8.19931" stroke="#DCE2EA" stroke-width="2.14018" stroke-linecap="round"/>
<ellipse cx="331.649" cy="438.253" rx="7.18784" ry="5.79128" fill="#DCE2EA"/>
<ellipse cx="363.382" cy="416.393" rx="7.18784" ry="5.79128" fill="#DCE2EA"/>
<ellipse cx="435.683" cy="438.253" rx="7.18784" ry="5.79128" fill="#DCE2EA"/>
<path d="M333.193 438.018L497 438.018" stroke="#DCE2EA" stroke-width="2.5968"/>
<path d="M429.141 437.795H415.175C409.264 437.795 404.472 433.004 404.472 427.093V427.093C404.472 421.182 399.681 416.391 393.77 416.391H367.469" stroke="#DCE2EA" stroke-width="2.5968"/>
<path d="M0 1H8.19939V555H0V1Z" fill="#E8ECF1"/>
<path d="M7.02795 1H8.1993V555H7.02795V1Z" fill="#D0D9E3"/>
<defs>
<linearGradient id="paint0_linear_10_768" x1="266.82" y1="161.668" x2="278.013" y2="161.668" gradientUnits="userSpaceOnUse">
<stop stop-color="#DCE2EA"/>
<stop offset="0.8" stop-color="#F3F5F8"/>
</linearGradient>
<linearGradient id="paint1_linear_10_768" x1="180.852" y1="132.404" x2="313.049" y2="132.404" gradientUnits="userSpaceOnUse">
<stop stop-color="#DCE2EA"/>
<stop offset="0.8" stop-color="#F3F5F8"/>
</linearGradient>
<clipPath id="clip0_10_768">
<rect width="136.397" height="119.955" fill="white" transform="translate(180.386 72.7271)"/>
</clipPath>
</defs>
</svg>
