<svg width="424" height="587" viewBox="0 0 424 587" fill="none" xmlns="http://www.w3.org/2000/svg">
<mask id="mask0_24_110" style="mask-type:luminance" maskUnits="userSpaceOnUse" x="0" y="0" width="424" height="587">
<path d="M0 6.00001C0 2.6863 2.68629 0 6 0H418C421.314 0 424 2.68629 424 6V541C424 566.405 403.405 587 378 587H5.99999C2.68628 587 0 584.314 0 581V6.00001Z" fill="white"/>
</mask>
<g mask="url(#mask0_24_110)">
<path d="M399.7 6.82275H6C2.68629 6.82275 0 9.50905 0 12.8228V574.178C0 577.492 2.68629 580.178 6 580.178H399.7C403.014 580.178 405.7 577.492 405.7 574.178V12.8228C405.7 9.50905 403.014 6.82275 399.7 6.82275Z" fill="#DFD7FE"/>
<path d="M13.3521 6.00001C13.3521 2.6863 16.0383 0 19.3521 0H418C421.314 0 424 2.68629 424 6V581C424 584.314 421.314 587 418 587H19.3521C16.0383 587 13.3521 584.314 13.3521 581V6.00001Z" fill="white"/>
<path d="M307 404.335H301.735C299.526 404.335 297.735 406.126 297.735 408.335V413.6C297.735 415.809 299.526 417.6 301.735 417.6H307C309.209 417.6 311 415.809 311 413.6V408.335C311 406.126 309.209 404.335 307 404.335Z" fill="#DFD7FE"/>
<path d="M292.363 387.23H287.098C284.889 387.23 283.098 389.021 283.098 391.23V396.495C283.098 398.704 284.889 400.495 287.098 400.495H292.363C294.572 400.495 296.363 398.704 296.363 396.495V391.23C296.363 389.021 294.572 387.23 292.363 387.23Z" fill="#DFD7FE"/>
<path d="M143.867 90.6543H149.132C151.341 90.6543 153.132 92.4452 153.132 94.6543V99.9194C153.132 102.129 151.341 103.919 149.132 103.919H143.867C141.658 103.919 139.867 102.129 139.867 99.9194V94.6543C139.867 92.4452 141.658 90.6543 143.867 90.6543Z" fill="#DFD7FE"/>
</g>
</svg>
