<svg width="424" height="587" viewBox="0 0 424 587" fill="none" xmlns="http://www.w3.org/2000/svg">
<g clip-path="url(#clip0_26_29)">
<mask id="mask0_26_29" style="mask-type:luminance" maskUnits="userSpaceOnUse" x="0" y="0" width="424" height="587">
<path d="M0 6.00001C0 2.6863 2.68629 0 6 0H418C421.314 0 424 2.68629 424 6V541C424 566.405 403.405 587 378 587H5.99999C2.68628 587 0 584.314 0 581V6.00001Z" fill="white"/>
</mask>
<g mask="url(#mask0_26_29)">
<path d="M399.7 6.82275H6C2.68629 6.82275 0 9.50905 0 12.8228V574.178C0 577.492 2.68629 580.178 6 580.178H399.7C403.014 580.178 405.7 577.492 405.7 574.178V12.8228C405.7 9.50905 403.014 6.82275 399.7 6.82275Z" fill="#DFD7FE"/>
<path d="M418 0H19.3521C16.0383 0 13.3521 2.68629 13.3521 6V581C13.3521 584.314 16.0383 587 19.3521 587H418C421.314 587 424 584.314 424 581V6C424 2.68629 421.314 0 418 0Z" fill="white"/>
<path d="M294.687 100.486H299.952C302.161 100.486 303.952 102.277 303.952 104.486V109.751C303.952 111.96 302.161 113.751 299.952 113.751H294.687C292.477 113.751 290.687 111.96 290.687 109.751V104.486C290.687 102.277 292.477 100.486 294.687 100.486Z" fill="#DCE2EA"/>
<path d="M309.323 83.3813H314.588C316.797 83.3813 318.588 85.1722 318.588 87.3813V92.6464C318.588 94.8556 316.797 96.6464 314.588 96.6464H309.323C307.113 96.6464 305.323 94.8556 305.323 92.6464V87.3813C305.323 85.1722 307.113 83.3813 309.323 83.3813Z" fill="#DCE2EA"/>
<path d="M157.235 400.871H162.5C164.709 400.871 166.5 402.662 166.5 404.871V410.136C166.5 412.345 164.709 414.136 162.5 414.136H157.235C155.026 414.136 153.235 412.345 153.235 410.136V404.871C153.235 402.662 155.026 400.871 157.235 400.871Z" fill="#DCE2EA"/>
<path d="M154.696 490.16C154.088 490.16 153.523 490.08 153 489.92C152.488 489.76 152.019 489.52 151.592 489.2C151.176 488.869 150.803 488.464 150.472 487.984L151.656 486.624C152.179 487.371 152.68 487.888 153.16 488.176C153.64 488.464 154.211 488.608 154.872 488.608C155.277 488.608 155.645 488.544 155.976 488.416C156.307 488.288 156.568 488.112 156.76 487.888C156.952 487.664 157.048 487.408 157.048 487.12C157.048 486.928 157.016 486.747 156.952 486.576C156.888 486.405 156.787 486.251 156.648 486.112C156.52 485.973 156.349 485.845 156.136 485.728C155.933 485.611 155.693 485.509 155.416 485.424C155.139 485.328 154.819 485.248 154.456 485.184C153.88 485.067 153.379 484.912 152.952 484.72C152.525 484.528 152.168 484.288 151.88 484C151.592 483.712 151.379 483.387 151.24 483.024C151.101 482.651 151.032 482.235 151.032 481.776C151.032 481.328 151.128 480.912 151.32 480.528C151.523 480.144 151.795 479.813 152.136 479.536C152.488 479.248 152.899 479.029 153.368 478.88C153.837 478.72 154.344 478.64 154.888 478.64C155.464 478.64 155.992 478.715 156.472 478.864C156.952 479.013 157.379 479.237 157.752 479.536C158.125 479.824 158.435 480.181 158.68 480.608L157.464 481.808C157.251 481.456 157.011 481.163 156.744 480.928C156.477 480.683 156.184 480.501 155.864 480.384C155.544 480.256 155.203 480.192 154.84 480.192C154.424 480.192 154.061 480.256 153.752 480.384C153.443 480.512 153.197 480.693 153.016 480.928C152.845 481.152 152.76 481.419 152.76 481.728C152.76 481.952 152.803 482.16 152.888 482.352C152.973 482.533 153.101 482.699 153.272 482.848C153.453 482.987 153.693 483.115 153.992 483.232C154.291 483.339 154.648 483.435 155.064 483.52C155.651 483.648 156.173 483.813 156.632 484.016C157.091 484.208 157.48 484.437 157.8 484.704C158.12 484.971 158.36 485.269 158.52 485.6C158.691 485.931 158.776 486.288 158.776 486.672C158.776 487.387 158.611 488.005 158.28 488.528C157.949 489.051 157.48 489.456 156.872 489.744C156.264 490.021 155.539 490.16 154.696 490.16ZM161.848 490V479.456H163.496V490H161.848ZM160.104 483.2V481.6H165.448V483.2H160.104ZM170.103 490.16C169.409 490.16 168.775 489.968 168.199 489.584C167.633 489.2 167.18 488.677 166.839 488.016C166.497 487.355 166.327 486.608 166.327 485.776C166.327 484.933 166.497 484.187 166.839 483.536C167.191 482.875 167.66 482.357 168.247 481.984C168.844 481.611 169.511 481.424 170.247 481.424C170.684 481.424 171.084 481.488 171.447 481.616C171.809 481.744 172.124 481.925 172.391 482.16C172.668 482.384 172.892 482.645 173.063 482.944C173.244 483.243 173.356 483.563 173.399 483.904L173.031 483.776V481.6H174.695V490H173.031V488L173.415 487.888C173.351 488.176 173.217 488.459 173.015 488.736C172.823 489.003 172.572 489.243 172.263 489.456C171.964 489.669 171.628 489.84 171.255 489.968C170.892 490.096 170.508 490.16 170.103 490.16ZM170.535 488.64C171.036 488.64 171.479 488.517 171.863 488.272C172.247 488.027 172.545 487.691 172.759 487.264C172.983 486.827 173.095 486.331 173.095 485.776C173.095 485.232 172.983 484.747 172.759 484.32C172.545 483.893 172.247 483.557 171.863 483.312C171.479 483.067 171.036 482.944 170.535 482.944C170.044 482.944 169.607 483.067 169.223 483.312C168.849 483.557 168.551 483.893 168.327 484.32C168.113 484.747 168.007 485.232 168.007 485.776C168.007 486.331 168.113 486.827 168.327 487.264C168.551 487.691 168.849 488.027 169.223 488.272C169.607 488.517 170.044 488.64 170.535 488.64ZM176.996 490V481.6H178.66V484.24L178.5 483.6C178.617 483.195 178.814 482.827 179.092 482.496C179.38 482.165 179.705 481.904 180.068 481.712C180.441 481.52 180.825 481.424 181.22 481.424C181.401 481.424 181.572 481.44 181.732 481.472C181.902 481.504 182.036 481.541 182.132 481.584L181.7 483.376C181.572 483.323 181.428 483.28 181.268 483.248C181.118 483.205 180.969 483.184 180.82 483.184C180.532 483.184 180.254 483.243 179.988 483.36C179.732 483.467 179.502 483.621 179.3 483.824C179.108 484.016 178.953 484.245 178.836 484.512C178.718 484.768 178.66 485.051 178.66 485.36V490H176.996ZM184.801 490V479.456H186.449V490H184.801ZM183.057 483.2V481.6H188.401V483.2H183.057ZM195.426 490V479.456H197.074V490H195.426ZM193.682 483.2V481.6H199.026V483.2H193.682ZM200.527 490V478.16H202.175V483.328L201.887 483.52C201.994 483.147 202.202 482.805 202.511 482.496C202.82 482.176 203.188 481.92 203.615 481.728C204.042 481.525 204.479 481.424 204.927 481.424C205.567 481.424 206.1 481.552 206.527 481.808C206.954 482.053 207.274 482.432 207.487 482.944C207.7 483.456 207.807 484.101 207.807 484.88V490H206.159V484.992C206.159 484.512 206.095 484.117 205.967 483.808C205.839 483.488 205.642 483.259 205.375 483.12C205.108 482.971 204.778 482.907 204.383 482.928C204.063 482.928 203.77 482.981 203.503 483.088C203.236 483.184 203.002 483.323 202.799 483.504C202.607 483.685 202.452 483.899 202.335 484.144C202.228 484.379 202.175 484.635 202.175 484.912V490H201.359C201.22 490 201.082 490 200.943 490C200.804 490 200.666 490 200.527 490ZM213.963 490.16C213.099 490.16 212.331 489.979 211.659 489.616C210.997 489.243 210.475 488.736 210.091 488.096C209.717 487.456 209.531 486.72 209.531 485.888C209.531 485.227 209.637 484.624 209.851 484.08C210.064 483.536 210.357 483.067 210.731 482.672C211.115 482.267 211.568 481.957 212.091 481.744C212.624 481.52 213.2 481.408 213.819 481.408C214.363 481.408 214.869 481.515 215.339 481.728C215.808 481.931 216.213 482.213 216.555 482.576C216.907 482.939 217.173 483.371 217.355 483.872C217.547 484.363 217.637 484.901 217.627 485.488L217.611 486.192H210.747L210.379 484.88H216.187L215.947 485.152V484.768C215.915 484.416 215.797 484.101 215.595 483.824C215.392 483.547 215.136 483.328 214.827 483.168C214.517 483.008 214.181 482.928 213.819 482.928C213.243 482.928 212.757 483.04 212.363 483.264C211.968 483.477 211.669 483.797 211.467 484.224C211.264 484.64 211.163 485.157 211.163 485.776C211.163 486.363 211.285 486.875 211.531 487.312C211.776 487.739 212.123 488.069 212.571 488.304C213.019 488.539 213.536 488.656 214.123 488.656C214.539 488.656 214.923 488.587 215.275 488.448C215.637 488.309 216.027 488.059 216.443 487.696L217.275 488.864C217.019 489.12 216.704 489.344 216.331 489.536C215.968 489.728 215.579 489.883 215.163 490C214.757 490.107 214.357 490.16 213.963 490.16ZM227.47 490.16C226.691 490.16 225.993 489.968 225.374 489.584C224.766 489.2 224.281 488.677 223.918 488.016C223.566 487.355 223.39 486.613 223.39 485.792C223.39 484.971 223.566 484.229 223.918 483.568C224.281 482.907 224.766 482.384 225.374 482C225.993 481.616 226.691 481.424 227.47 481.424C228.217 481.424 228.894 481.579 229.502 481.888C230.121 482.187 230.59 482.597 230.91 483.12L229.998 484.24C229.827 483.995 229.609 483.771 229.342 483.568C229.075 483.365 228.793 483.205 228.494 483.088C228.195 482.971 227.907 482.912 227.63 482.912C227.118 482.912 226.659 483.04 226.254 483.296C225.859 483.541 225.545 483.883 225.31 484.32C225.075 484.757 224.958 485.248 224.958 485.792C224.958 486.336 225.081 486.827 225.326 487.264C225.571 487.691 225.897 488.032 226.302 488.288C226.707 488.544 227.155 488.672 227.646 488.672C227.934 488.672 228.211 488.624 228.478 488.528C228.755 488.432 229.022 488.288 229.278 488.096C229.534 487.904 229.774 487.669 229.998 487.392L230.91 488.512C230.569 488.992 230.078 489.387 229.438 489.696C228.809 490.005 228.153 490.16 227.47 490.16ZM236.241 490.16C235.419 490.16 234.683 489.973 234.033 489.6C233.393 489.216 232.886 488.699 232.513 488.048C232.139 487.387 231.953 486.635 231.953 485.792C231.953 484.949 232.139 484.203 232.513 483.552C232.886 482.891 233.393 482.373 234.033 482C234.683 481.616 235.419 481.424 236.241 481.424C237.051 481.424 237.777 481.616 238.417 482C239.067 482.373 239.579 482.891 239.953 483.552C240.326 484.203 240.513 484.949 240.513 485.792C240.513 486.635 240.326 487.387 239.953 488.048C239.579 488.699 239.067 489.216 238.417 489.6C237.777 489.973 237.051 490.16 236.241 490.16ZM236.241 488.656C236.742 488.656 237.19 488.533 237.585 488.288C237.979 488.032 238.289 487.691 238.513 487.264C238.737 486.827 238.843 486.336 238.833 485.792C238.843 485.237 238.737 484.747 238.513 484.32C238.289 483.883 237.979 483.541 237.585 483.296C237.19 483.051 236.742 482.928 236.241 482.928C235.739 482.928 235.286 483.056 234.881 483.312C234.486 483.557 234.177 483.899 233.953 484.336C233.729 484.763 233.622 485.248 233.633 485.792C233.622 486.336 233.729 486.827 233.953 487.264C234.177 487.691 234.486 488.032 234.881 488.288C235.286 488.533 235.739 488.656 236.241 488.656ZM245.252 490.16C244.655 490.16 244.132 490.021 243.684 489.744C243.247 489.467 242.906 489.077 242.66 488.576C242.426 488.075 242.308 487.477 242.308 486.784V481.6H243.956V486.336C243.956 486.827 244.031 487.253 244.18 487.616C244.34 487.968 244.564 488.24 244.852 488.432C245.151 488.624 245.508 488.72 245.924 488.72C246.234 488.72 246.516 488.672 246.772 488.576C247.028 488.469 247.247 488.325 247.428 488.144C247.62 487.963 247.77 487.744 247.876 487.488C247.983 487.232 248.036 486.955 248.036 486.656V481.6H249.684V490H248.036V488.24L248.324 488.048C248.196 488.443 247.978 488.8 247.668 489.12C247.37 489.44 247.012 489.696 246.596 489.888C246.18 490.069 245.732 490.16 245.252 490.16ZM251.996 490V481.6H253.66V484.24L253.5 483.6C253.617 483.195 253.814 482.827 254.092 482.496C254.38 482.165 254.705 481.904 255.068 481.712C255.441 481.52 255.825 481.424 256.22 481.424C256.401 481.424 256.572 481.44 256.732 481.472C256.902 481.504 257.036 481.541 257.132 481.584L256.7 483.376C256.572 483.323 256.428 483.28 256.268 483.248C256.118 483.205 255.969 483.184 255.82 483.184C255.532 483.184 255.254 483.243 254.988 483.36C254.732 483.467 254.502 483.621 254.3 483.824C254.108 484.016 253.953 484.245 253.836 484.512C253.718 484.768 253.66 485.051 253.66 485.36V490H251.996ZM261.249 490.16C260.545 490.16 259.91 490.037 259.345 489.792C258.78 489.547 258.31 489.184 257.937 488.704L259.057 487.744C259.377 488.117 259.724 488.389 260.097 488.56C260.481 488.72 260.913 488.8 261.393 488.8C261.585 488.8 261.761 488.779 261.921 488.736C262.092 488.683 262.236 488.608 262.353 488.512C262.481 488.416 262.577 488.304 262.641 488.176C262.705 488.037 262.737 487.888 262.737 487.728C262.737 487.451 262.636 487.227 262.433 487.056C262.326 486.981 262.156 486.901 261.921 486.816C261.697 486.72 261.404 486.624 261.041 486.528C260.422 486.368 259.916 486.187 259.521 485.984C259.126 485.781 258.822 485.552 258.609 485.296C258.449 485.093 258.332 484.875 258.257 484.64C258.182 484.395 258.145 484.128 258.145 483.84C258.145 483.488 258.22 483.168 258.369 482.88C258.529 482.581 258.742 482.325 259.009 482.112C259.286 481.888 259.606 481.717 259.969 481.6C260.342 481.483 260.737 481.424 261.153 481.424C261.548 481.424 261.937 481.477 262.321 481.584C262.716 481.691 263.078 481.845 263.409 482.048C263.74 482.251 264.017 482.491 264.241 482.768L263.297 483.808C263.094 483.605 262.87 483.429 262.625 483.28C262.39 483.12 262.15 482.997 261.905 482.912C261.66 482.827 261.436 482.784 261.233 482.784C261.009 482.784 260.806 482.805 260.625 482.848C260.444 482.891 260.289 482.955 260.161 483.04C260.044 483.125 259.953 483.232 259.889 483.36C259.825 483.488 259.793 483.632 259.793 483.792C259.804 483.931 259.836 484.064 259.889 484.192C259.953 484.309 260.038 484.411 260.145 484.496C260.262 484.581 260.438 484.672 260.673 484.768C260.908 484.864 261.206 484.955 261.569 485.04C262.102 485.179 262.54 485.333 262.881 485.504C263.233 485.664 263.51 485.851 263.713 486.064C263.926 486.267 264.076 486.501 264.161 486.768C264.246 487.035 264.289 487.333 264.289 487.664C264.289 488.144 264.15 488.576 263.873 488.96C263.606 489.333 263.244 489.627 262.785 489.84C262.326 490.053 261.814 490.16 261.249 490.16ZM270.025 490.16C269.161 490.16 268.393 489.979 267.721 489.616C267.06 489.243 266.537 488.736 266.153 488.096C265.78 487.456 265.593 486.72 265.593 485.888C265.593 485.227 265.7 484.624 265.913 484.08C266.126 483.536 266.42 483.067 266.793 482.672C267.177 482.267 267.63 481.957 268.153 481.744C268.686 481.52 269.262 481.408 269.881 481.408C270.425 481.408 270.932 481.515 271.401 481.728C271.87 481.931 272.276 482.213 272.617 482.576C272.969 482.939 273.236 483.371 273.417 483.872C273.609 484.363 273.7 484.901 273.689 485.488L273.673 486.192H266.809L266.441 484.88H272.249L272.009 485.152V484.768C271.977 484.416 271.86 484.101 271.657 483.824C271.454 483.547 271.198 483.328 270.889 483.168C270.58 483.008 270.244 482.928 269.881 482.928C269.305 482.928 268.82 483.04 268.425 483.264C268.03 483.477 267.732 483.797 267.529 484.224C267.326 484.64 267.225 485.157 267.225 485.776C267.225 486.363 267.348 486.875 267.593 487.312C267.838 487.739 268.185 488.069 268.633 488.304C269.081 488.539 269.598 488.656 270.185 488.656C270.601 488.656 270.985 488.587 271.337 488.448C271.7 488.309 272.089 488.059 272.505 487.696L273.337 488.864C273.081 489.12 272.766 489.344 272.393 489.536C272.03 489.728 271.641 489.883 271.225 490C270.82 490.107 270.42 490.16 270.025 490.16Z" fill="white"/>
</g>
</g>
<defs>
<clipPath id="clip0_26_29">
<rect width="424" height="587" fill="white"/>
</clipPath>
</defs>
</svg>
