<svg xmlns="http://www.w3.org/2000/svg" width="24" height="24" viewBox="0 0 24 24" fill="none">
  <g clip-path="url(#clip0_4163_2654)">
    <path d="M18.1799 13.21C18.0366 13.0134 18.0166 12.8034 18.1199 12.58C19.2399 10.15 21.4499 6.66504 19.9949 3.96504C18.7449 1.64004 15.9949 -0.139955 13.2449 0.300045C7.19992 1.25504 2.03992 9.16505 1.73992 15.015C1.44992 20.595 5.17992 24.08 10.7049 23.765C14.9299 23.52 19.5999 20.92 21.6949 17.045C22.3149 15.89 22.9299 12.98 21.3799 12.195C20.2599 11.63 19.1849 12.665 18.7299 13.61C18.6566 13.7567 18.5733 13.7634 18.4799 13.63L18.1799 13.21Z" stroke="#828080"/>
    <path d="M14.78 4.21511C14.8503 4.19442 14.9251 4.19478 14.9952 4.21615C15.0653 4.23751 15.1276 4.27894 15.1744 4.33532C15.2212 4.3917 15.2504 4.46056 15.2585 4.53339C15.2666 4.60622 15.2532 4.67982 15.22 4.74511C14.5233 6.08511 13.98 7.40344 13.59 8.70011C12.975 10.7551 13.935 12.9051 16.06 13.4101C17.17 13.6751 17.27 12.6401 17.585 11.9401C18.63 9.64511 20.675 6.41011 19.18 4.08511C17.54 1.53511 14.725 0.240112 11.71 1.49511C8.12996 2.98511 5.69996 6.17511 3.96496 9.65011C2.08496 13.4201 1.54496 18.7251 5.05496 21.5051C6.55162 22.6918 8.52662 23.1801 10.98 22.9701C13.7266 22.7368 16.21 21.6651 18.43 19.7551C19.2466 19.0518 19.97 18.2668 20.6 17.4001C21.345 16.3701 22.15 14.1401 21.175 13.0251C21.1012 12.9408 21.0089 12.8747 20.9052 12.8319C20.8016 12.7892 20.6893 12.771 20.5772 12.7787C20.465 12.7865 20.356 12.8199 20.2585 12.8765C20.161 12.9331 20.0777 13.0113 20.015 13.1051C17.76 16.5151 14.805 18.6301 10.545 18.6851C7.34996 18.7251 8.05496 13.7651 8.81496 12.0651C9.77496 9.92511 12.645 4.86511 14.78 4.21511Z" stroke="#828080"/>
    <path d="M11.5001 8.42005C11.1035 8.88338 10.7985 9.33338 10.5851 9.77005C10.1885 10.5767 9.79512 11.435 9.40512 12.345C9.21845 12.775 9.09512 13.215 9.03512 13.665C8.87012 14.87 8.62012 16.025 9.13512 17.18C9.23397 17.4008 9.39269 17.5895 9.59329 17.7248C9.7939 17.86 10.0284 17.9363 10.2701 17.945C13.5735 18.065 16.1668 16.9534 18.0501 14.61C18.1358 14.5032 18.1846 14.3715 18.1893 14.2346C18.194 14.0977 18.1543 13.963 18.0761 13.8505C17.9979 13.738 17.8855 13.6538 17.7555 13.6105C17.6256 13.5672 17.4852 13.567 17.3551 13.61C17.2585 13.64 17.1718 13.6884 17.0951 13.755C16.5051 14.255 15.6051 14.045 14.9901 13.65C13.2901 12.5634 12.5701 11.0567 12.8301 9.13005C12.9935 7.91672 13.3435 6.85005 13.8801 5.93005C14.1068 5.53672 14.0485 5.49005 13.7051 5.79005C12.8301 6.54505 12.2451 7.54005 11.5001 8.42005Z" stroke="#260C0B"/>
    <path d="M18.7299 13.61C19.1849 12.665 20.2599 11.63 21.3799 12.195C22.9299 12.98 22.3149 15.89 21.6949 17.045C19.5999 20.92 14.9299 23.52 10.7049 23.765C5.17992 24.08 1.44992 20.595 1.73992 15.015C2.03992 9.16504 7.19992 1.25504 13.2449 0.300045C15.9949 -0.139955 18.7449 1.64004 19.9949 3.96504C21.4499 6.66504 19.2399 10.15 18.1199 12.58C18.0166 12.8034 18.0366 13.0134 18.1799 13.21L18.4799 13.63C18.5733 13.7634 18.6566 13.7567 18.7299 13.61ZM14.7799 4.21504C14.8502 4.19436 14.925 4.19471 14.9951 4.21608C15.0652 4.23744 15.1275 4.27887 15.1743 4.33525C15.2211 4.39163 15.2504 4.46049 15.2585 4.53332C15.2666 4.60615 15.2532 4.67976 15.2199 4.74504C14.5233 6.08504 13.9799 7.40338 13.5899 8.70004C12.9749 10.755 13.9349 12.905 16.0599 13.41C17.1699 13.675 17.2699 12.64 17.5849 11.94C18.6299 9.64504 20.6749 6.41004 19.1799 4.08504C17.5399 1.53504 14.7249 0.240045 11.7099 1.49504C8.12992 2.98504 5.69992 6.17504 3.96492 9.65004C2.08492 13.42 1.54492 18.725 5.05492 21.505C6.55158 22.6917 8.52658 23.18 10.9799 22.97C13.7266 22.7367 16.2099 21.665 18.4299 19.755C19.2466 19.0517 19.9699 18.2667 20.5999 17.4C21.3449 16.37 22.1499 14.14 21.1749 13.025C21.1012 12.9407 21.0089 12.8746 20.9052 12.8319C20.8015 12.7891 20.6893 12.7709 20.5771 12.7787C20.465 12.7864 20.3559 12.8199 20.2584 12.8765C20.1609 12.9331 20.0776 13.0113 20.0149 13.105C17.7599 16.515 14.8049 18.63 10.5449 18.685C7.34992 18.725 8.05492 13.765 8.81492 12.065C9.77492 9.92504 12.6449 4.86504 14.7799 4.21504ZM11.4999 8.42004C11.1033 8.88338 10.7983 9.33338 10.5849 9.77005C10.1883 10.5767 9.79492 11.435 9.40492 12.345C9.21825 12.775 9.09492 13.215 9.03492 13.665C8.86992 14.87 8.61992 16.025 9.13492 17.18C9.23377 17.4008 9.39249 17.5895 9.59309 17.7247C9.79369 17.86 10.0282 17.9363 10.2699 17.945C13.5733 18.065 16.1666 16.9534 18.0499 14.61C18.1356 14.5032 18.1844 14.3715 18.1891 14.2346C18.1938 14.0977 18.1541 13.963 18.0759 13.8505C17.9977 13.738 17.8853 13.6538 17.7553 13.6105C17.6254 13.5672 17.4849 13.567 17.3549 13.61C17.2583 13.64 17.1716 13.6884 17.0949 13.755C16.5049 14.255 15.6049 14.045 14.9899 13.65C13.2899 12.5634 12.5699 11.0567 12.8299 9.13004C12.9932 7.91671 13.3433 6.85004 13.8799 5.93004C14.1066 5.53671 14.0483 5.49004 13.7049 5.79004C12.8299 6.54504 12.2449 7.54004 11.4999 8.42004Z" fill="#050000"/>
    <path d="M14.78 4.21499C12.645 4.86499 9.77496 9.92499 8.81496 12.065C8.05496 13.765 7.34996 18.725 10.545 18.685C14.805 18.63 17.76 16.515 20.015 13.105C20.0777 13.0112 20.161 12.933 20.2585 12.8764C20.356 12.8198 20.465 12.7864 20.5772 12.7786C20.6893 12.7709 20.8016 12.7891 20.9052 12.8318C21.0089 12.8745 21.1012 12.9406 21.175 13.025C22.15 14.14 21.345 16.37 20.6 17.4C19.97 18.2667 19.2466 19.0517 18.43 19.755C16.21 21.665 13.7266 22.7367 10.98 22.97C8.52662 23.18 6.55162 22.6917 5.05496 21.505C1.54496 18.725 2.08496 13.42 3.96496 9.64999C5.69996 6.17499 8.12996 2.98499 11.71 1.49499C14.725 0.23999 17.54 1.53499 19.18 4.08499C20.675 6.40999 18.63 9.64499 17.585 11.94C17.27 12.64 17.17 13.675 16.06 13.41C13.935 12.905 12.975 10.755 13.59 8.69999C13.98 7.40332 14.5233 6.08499 15.22 4.74499C15.2532 4.6797 15.2666 4.60609 15.2585 4.53327C15.2504 4.46044 15.2212 4.39158 15.1744 4.3352C15.1276 4.27882 15.0653 4.23739 14.9952 4.21602C14.9251 4.19466 14.8503 4.1943 14.78 4.21499Z" fill="white"/>
    <path d="M11.5001 8.41993C12.2451 7.53993 12.8301 6.54493 13.7051 5.78993C14.0485 5.48993 14.1068 5.53659 13.8801 5.92993C13.3435 6.84993 12.9935 7.91659 12.8301 9.12993C12.5701 11.0566 13.2901 12.5633 14.9901 13.6499C15.6051 14.0449 16.5051 14.2549 17.0951 13.7549C17.1718 13.6883 17.2585 13.6399 17.3551 13.6099C17.4852 13.5669 17.6256 13.567 17.7555 13.6104C17.8855 13.6537 17.9979 13.7379 18.0761 13.8504C18.1543 13.9628 18.194 14.0976 18.1893 14.2345C18.1846 14.3713 18.1358 14.5031 18.0501 14.6099C16.1668 16.9533 13.5735 18.0649 10.2701 17.9449C10.0284 17.9362 9.7939 17.8598 9.59329 17.7246C9.39269 17.5894 9.23397 17.4007 9.13512 17.1799C8.62012 16.0249 8.87012 14.8699 9.03512 13.6649C9.09512 13.2149 9.21845 12.7749 9.40512 12.3449C9.79512 11.4349 10.1885 10.5766 10.5851 9.76993C10.7985 9.33326 11.1035 8.88326 11.5001 8.41993Z" fill="#461816"/>
  </g>
  <defs>
    <clipPath id="clip0_4163_2654">
      <rect width="24" height="24" fill="white"/>
    </clipPath>
  </defs>
</svg>