<svg width="424" height="587" viewBox="0 0 424 587" fill="none" xmlns="http://www.w3.org/2000/svg">
<g clip-path="url(#clip0_4342_4590)">
<rect y="6.82275" width="405.7" height="573.355" rx="6" fill="#1D1F29"/>
<path d="M13.3521 6.00001C13.3521 2.6863 16.0383 0 19.3521 0H418C421.314 0 424 2.68629 424 6V581C424 584.314 421.314 587 418 587H19.3521C16.0383 587 13.3521 584.314 13.3521 581V6.00001Z" fill="#20222C"/>
<path d="M424 587H342.27C367.105 580.63 376.305 553.794 371.922 532.241C404.75 538.566 417.401 525.515 424 515V587Z" fill="#121416"/>
<rect x="297.735" y="404.335" width="13.2653" height="13.2651" rx="4" fill="#DFD7FE"/>
<rect x="283.098" y="387.23" width="13.2653" height="13.2651" rx="4" fill="#DFD7FE"/>
<rect width="13.2653" height="13.2651" rx="4" transform="matrix(-1 0 0 1 153.133 90.6543)" fill="#DFD7FE"/>
</g>
<defs>
<linearGradient id="paint0_linear_4342_4590" x1="113.653" y1="448.998" x2="77.5664" y2="448.998" gradientUnits="userSpaceOnUse">
<stop stop-color="#DCE2EA"/>
<stop offset="0.8" stop-color="#F3F5F8"/>
</linearGradient>
<clipPath id="clip0_4342_4590">
<path d="M0 6.00001C0 2.6863 2.68629 0 6 0H418C421.314 0 424 2.68629 424 6V541C424 566.405 403.405 587 378 587H5.99999C2.68628 587 0 584.314 0 581V6.00001Z" fill="white"/>
</clipPath>
</defs>
</svg>
