<svg width="304" height="284" viewBox="0 0 304 284" fill="none" xmlns="http://www.w3.org/2000/svg">
<path d="M124 21L155 38" stroke="white" stroke-miterlimit="10"/>
<path d="M51 62L84 79" stroke="white" stroke-miterlimit="10"/>
<path d="M49.975 55.0345L52.6969 56.551H52.6851L54.3707 57.488C55.1275 57.9086 55.4012 58.4048 55.41 58.8043C55.4188 59.2028 55.1683 59.7056 54.4352 60.1502C54.4351 60.1502 54.435 60.1503 54.4349 60.1503L50.1447 62.7485C50.1446 62.7486 50.1444 62.7487 50.1443 62.7488C49.4081 63.1929 48.407 63.4405 47.3742 63.4586C46.3415 63.4766 45.3306 63.2641 44.5759 62.8447C44.5758 62.8446 44.5757 62.8446 44.5756 62.8445L40.1722 60.3913L40.1718 60.391C39.4141 59.9699 39.1417 59.4758 39.1336 59.0786C39.1254 58.6817 39.3769 58.1782 40.1159 57.7286C40.116 57.7285 40.1161 57.7284 40.1162 57.7284L44.4058 55.1305C44.406 55.1304 44.4061 55.1304 44.4062 55.1303C45.1424 54.6862 46.1436 54.4385 47.1763 54.4205C48.2092 54.4025 49.2203 54.615 49.975 55.0345Z" stroke="white"/>
<path d="M121.725 13.9149L124.447 15.4314H124.435L126.121 16.3684C126.878 16.789 127.151 17.2851 127.16 17.6846C127.169 18.0832 126.918 18.586 126.185 19.0306C126.185 19.0306 126.185 19.0307 126.185 19.0307L121.895 21.6289C121.895 21.629 121.895 21.6291 121.894 21.6292C121.158 22.0733 120.157 22.3209 119.124 22.3389C118.092 22.357 117.081 22.1445 116.326 21.7251C116.326 21.725 116.326 21.725 116.326 21.7249L111.922 19.2717L111.922 19.2714C111.164 18.8503 110.892 18.3562 110.884 17.9589C110.876 17.5621 111.127 17.0586 111.866 16.609C111.866 16.6089 111.866 16.6088 111.866 16.6087L116.156 14.0109C116.156 14.0108 116.156 14.0107 116.156 14.0107C116.893 13.5665 117.894 13.3189 118.926 13.3009C119.959 13.2828 120.97 13.4954 121.725 13.9149Z" stroke="white"/>
<path d="M101 8L114 15" stroke="white" stroke-miterlimit="10"/>
<path d="M98.6799 1.24008L101.402 2.75655H101.39L103.076 3.69357C103.832 4.11421 104.106 4.61032 104.115 5.00984C104.124 5.40838 103.873 5.91115 103.14 6.35576C103.14 6.35581 103.14 6.35585 103.14 6.3559L98.8496 8.95411C98.8495 8.95419 98.8493 8.95428 98.8492 8.95437C98.113 9.39848 97.1119 9.6461 96.0791 9.66413C95.0464 9.68216 94.0355 9.46966 93.2808 9.05027C93.2807 9.05021 93.2806 9.05016 93.2805 9.0501L88.8771 6.59685L88.8767 6.59661C88.119 6.17545 87.8466 5.68136 87.8385 5.28414C87.8303 4.8873 88.0818 4.38377 88.8208 3.93415C88.8209 3.93407 88.821 3.934 88.8211 3.93392L93.1107 1.33608C93.1109 1.336 93.111 1.33593 93.1111 1.33585C93.8473 0.891722 94.8485 0.644087 95.8812 0.626057C96.9141 0.608025 97.9252 0.820583 98.6799 1.24008Z" stroke="white"/>
<path d="M352.797 85.055C358.435 88.3131 358.465 93.5868 352.858 96.8449L166.037 205.41C160.43 208.668 151.322 208.668 145.685 205.41L5.11395 124.274C-0.523418 121.016 -0.553727 115.742 5.05334 112.484L191.875 3.90407C197.482 0.645909 206.589 0.645909 212.227 3.90407L352.797 85.055Z" fill="#121416" stroke="#797A80" stroke-width="0.8" stroke-linejoin="round"/>
<path d="M330.742 85.6651C330.742 85.6651 330.742 85.7265 330.712 85.7572C330.619 86.003 330.497 86.2335 330.343 86.4793C330.312 86.5254 330.281 86.5561 330.251 86.6022C330.082 86.8326 329.882 87.0631 329.636 87.2781C329.483 87.4164 329.283 87.5393 329.099 87.6776C328.945 87.7851 328.807 87.908 328.622 88.0155L309.035 99.3992C308.574 99.6604 308.052 99.8755 307.514 100.06C307.33 100.121 307.13 100.183 306.93 100.244C306.669 100.321 306.423 100.382 306.162 100.444C305.855 100.505 305.548 100.567 305.225 100.598C305.148 100.598 305.071 100.628 304.995 100.628C304.565 100.674 304.134 100.69 303.704 100.705C303.627 100.705 303.566 100.705 303.489 100.705C303.059 100.705 302.629 100.674 302.214 100.628C302.153 100.628 302.091 100.628 302.014 100.613C301.6 100.567 301.185 100.49 300.77 100.398C300.693 100.382 300.616 100.367 300.555 100.336C300.186 100.244 299.833 100.137 299.479 100.014C299.418 99.9984 299.357 99.9676 299.295 99.9523C298.88 99.7986 298.481 99.6143 298.128 99.3992L175.012 28.3011C174.628 28.0861 174.305 27.8403 174.013 27.5945C173.153 26.8417 172.738 25.9814 172.738 25.1211L172.707 37.6416C172.707 38.7938 173.46 39.946 174.981 40.8217L298.112 111.904C298.466 112.104 298.834 112.288 299.218 112.442C299.234 112.442 299.264 112.442 299.28 112.457C299.341 112.488 299.403 112.504 299.464 112.519C299.695 112.596 299.91 112.688 300.14 112.749C300.263 112.78 300.401 112.811 300.524 112.841C300.601 112.857 300.662 112.872 300.739 112.903C300.801 112.903 300.862 112.934 300.939 112.949C301.185 112.995 301.446 113.041 301.707 113.087C301.799 113.087 301.891 113.103 301.984 113.118C302.045 113.118 302.106 113.118 302.183 113.133C302.275 113.133 302.368 113.164 302.46 113.164C302.706 113.179 302.967 113.195 303.228 113.21C303.305 113.21 303.382 113.21 303.458 113.21C303.535 113.21 303.597 113.21 303.673 113.21C303.781 113.21 303.904 113.21 304.011 113.21C304.303 113.21 304.58 113.179 304.872 113.149C304.902 113.149 304.933 113.149 304.964 113.149C305.041 113.149 305.118 113.133 305.194 113.118C305.409 113.087 305.64 113.072 305.855 113.026C305.947 113.01 306.039 112.98 306.132 112.964C306.393 112.903 306.654 112.841 306.9 112.765C307.038 112.734 307.176 112.703 307.314 112.657C307.376 112.642 307.422 112.596 307.483 112.58C308.021 112.396 308.543 112.181 309.004 111.92L328.592 100.536C328.592 100.536 328.653 100.505 328.684 100.475C328.837 100.382 328.93 100.29 329.068 100.198C329.252 100.06 329.452 99.9369 329.606 99.7986C329.606 99.7986 329.636 99.7679 329.652 99.7679C329.836 99.5989 329.99 99.4299 330.128 99.261C330.159 99.2149 330.174 99.1841 330.205 99.1381C330.235 99.092 330.266 99.0612 330.297 99.0152C330.343 98.9383 330.404 98.8769 330.435 98.8001C330.512 98.6618 330.589 98.5082 330.635 98.3699C330.635 98.3546 330.635 98.3238 330.65 98.3085C330.65 98.2777 330.666 98.247 330.681 98.2317C330.712 98.1395 330.742 98.0473 330.758 97.9551C330.788 97.8015 330.804 97.6632 330.804 97.5096C330.804 97.4943 330.804 97.4635 330.804 97.4482L330.835 84.9277C330.835 85.1888 330.788 85.45 330.696 85.7112L330.742 85.6651Z" fill="#333A40" stroke="#474E53" stroke-width="0.8" stroke-linejoin="round"/>
<path d="M328.591 81.7017C331.618 83.4531 331.633 86.2644 328.637 88.0157L309.05 99.3994C306.054 101.151 301.154 101.151 298.143 99.3994L175.012 28.3014C171.985 26.55 171.97 23.7233 174.981 21.9873L194.568 10.6036C197.564 8.85231 202.449 8.86767 205.476 10.6036L328.607 81.6864L328.591 81.7017Z" fill="#333A40" stroke="#596064" stroke-width="0.8" stroke-linejoin="round"/>
<path d="M294.951 105.846C294.951 105.846 294.951 105.907 294.921 105.938C294.828 106.184 294.705 106.414 294.552 106.66C294.521 106.706 294.49 106.737 294.46 106.783C294.291 107.014 294.091 107.244 293.845 107.459C293.692 107.597 293.492 107.72 293.307 107.858C293.154 107.966 293.016 108.089 292.831 108.196L273.244 119.58C272.783 119.841 272.261 120.056 271.723 120.241C271.539 120.302 271.339 120.364 271.139 120.425C270.878 120.502 270.632 120.563 270.371 120.625C270.064 120.686 269.757 120.748 269.434 120.778C269.357 120.778 269.28 120.809 269.204 120.809C268.773 120.855 268.343 120.871 267.913 120.886C267.836 120.886 267.775 120.886 267.698 120.886C267.268 120.886 266.838 120.855 266.423 120.809C266.361 120.809 266.3 120.809 266.223 120.794C265.808 120.748 265.394 120.671 264.979 120.579C264.902 120.563 264.825 120.548 264.764 120.517C264.395 120.425 264.042 120.318 263.688 120.195C263.627 120.179 263.565 120.149 263.504 120.133C263.089 119.98 262.69 119.795 262.337 119.58L139.221 48.4667C138.837 48.2516 138.514 48.0058 138.222 47.76C137.362 47.0072 136.947 46.1469 136.947 45.2866L136.916 57.8071C136.916 58.9593 137.669 60.1115 139.19 60.9872L262.321 132.07C262.674 132.27 263.043 132.454 263.427 132.608C263.443 132.608 263.473 132.608 263.489 132.623C263.55 132.654 263.612 132.669 263.673 132.684C263.903 132.761 264.119 132.853 264.349 132.915C264.472 132.946 264.61 132.976 264.733 133.007C264.81 133.022 264.871 133.038 264.948 133.068C265.01 133.068 265.071 133.099 265.148 133.115C265.394 133.161 265.655 133.207 265.916 133.253C266.008 133.253 266.1 133.268 266.193 133.284C266.254 133.284 266.315 133.284 266.392 133.299C266.484 133.299 266.577 133.33 266.669 133.33C266.915 133.345 267.176 133.36 267.437 133.376C267.514 133.376 267.591 133.376 267.667 133.376C267.744 133.376 267.806 133.376 267.882 133.376C267.99 133.376 268.113 133.376 268.22 133.376C268.512 133.376 268.789 133.345 269.081 133.314C269.111 133.314 269.142 133.314 269.173 133.314C269.25 133.314 269.326 133.299 269.403 133.284C269.618 133.253 269.849 133.237 270.064 133.191C270.156 133.176 270.248 133.145 270.34 133.13C270.602 133.068 270.863 133.007 271.109 132.93C271.247 132.899 271.385 132.869 271.523 132.823C271.585 132.807 271.631 132.761 271.692 132.746C272.23 132.561 272.752 132.346 273.213 132.085L292.801 120.702C292.801 120.702 292.862 120.671 292.893 120.64C293.046 120.548 293.138 120.456 293.277 120.364C293.461 120.225 293.661 120.102 293.814 119.964C293.814 119.964 293.845 119.933 293.861 119.933C294.045 119.764 294.199 119.595 294.337 119.426C294.368 119.38 294.383 119.35 294.414 119.304C294.444 119.257 294.475 119.227 294.506 119.181C294.552 119.104 294.613 119.042 294.644 118.966C294.721 118.827 294.798 118.674 294.844 118.535C294.844 118.52 294.844 118.489 294.859 118.474C294.859 118.443 294.874 118.413 294.89 118.397C294.921 118.305 294.951 118.213 294.967 118.121C294.997 117.967 295.013 117.829 295.013 117.675C295.013 117.66 295.013 117.629 295.013 117.614L295.043 105.093C295.043 105.354 294.997 105.616 294.905 105.877L294.951 105.846Z" fill="#232323" stroke="#474E53" stroke-width="0.8" stroke-linejoin="round"/>
<path d="M292.801 101.867C295.827 103.619 295.842 106.43 292.847 108.181L273.259 119.565C270.264 121.316 265.363 121.316 262.352 119.565L139.221 48.4669C136.194 46.7155 136.179 43.8888 139.19 42.1529L158.777 30.7692C161.773 29.0178 166.658 29.0332 169.685 30.7692L292.816 101.852L292.801 101.867Z" fill="#333A40" stroke="#596064" stroke-width="0.8" stroke-linejoin="round"/>
<path d="M258.48 126.756C258.48 126.756 258.48 126.818 258.449 126.849C258.357 127.094 258.234 127.325 258.08 127.571C258.05 127.617 258.019 127.647 257.988 127.693C257.819 127.924 257.619 128.154 257.374 128.369C257.22 128.508 257.02 128.631 256.836 128.769C256.682 128.876 256.544 128.999 256.36 129.107L236.772 140.491C236.311 140.752 235.789 140.967 235.251 141.151C235.067 141.213 234.867 141.274 234.668 141.335C234.407 141.412 234.161 141.474 233.9 141.535C233.592 141.597 233.285 141.658 232.962 141.689C232.886 141.689 232.809 141.72 232.732 141.72C232.302 141.766 231.872 141.781 231.442 141.796C231.365 141.796 231.303 141.796 231.226 141.796C230.796 141.796 230.366 141.766 229.951 141.72C229.89 141.72 229.828 141.72 229.752 141.704C229.337 141.658 228.922 141.581 228.507 141.489C228.43 141.474 228.354 141.458 228.292 141.428C227.924 141.335 227.57 141.228 227.217 141.105C227.155 141.09 227.094 141.059 227.032 141.044C226.618 140.89 226.218 140.706 225.865 140.491L102.749 69.3925C102.365 69.1774 102.042 68.9316 101.751 68.6858C100.89 67.933 100.475 67.0727 100.475 66.2124L100.445 78.7329C100.445 79.8851 101.197 81.0373 102.718 81.913L225.85 152.996C226.203 153.195 226.572 153.38 226.956 153.533C226.971 153.533 227.002 153.533 227.017 153.549C227.079 153.579 227.14 153.595 227.201 153.61C227.432 153.687 227.647 153.779 227.877 153.841C228 153.871 228.139 153.902 228.261 153.933C228.338 153.948 228.4 153.964 228.477 153.994C228.538 153.994 228.599 154.025 228.676 154.04C228.922 154.086 229.183 154.133 229.444 154.179C229.537 154.179 229.629 154.194 229.721 154.209C229.782 154.209 229.844 154.209 229.921 154.225C230.013 154.225 230.105 154.255 230.197 154.255C230.443 154.271 230.704 154.286 230.965 154.301C231.042 154.301 231.119 154.301 231.196 154.301C231.273 154.301 231.334 154.301 231.411 154.301C231.518 154.301 231.641 154.301 231.749 154.301C232.041 154.301 232.317 154.271 232.609 154.24C232.64 154.24 232.671 154.24 232.701 154.24C232.778 154.24 232.855 154.225 232.932 154.209C233.147 154.179 233.377 154.163 233.592 154.117C233.684 154.102 233.777 154.071 233.869 154.056C234.13 153.994 234.391 153.933 234.637 153.856C234.775 153.825 234.913 153.795 235.052 153.748C235.113 153.733 235.159 153.687 235.221 153.672C235.758 153.487 236.281 153.272 236.742 153.011L256.329 141.627C256.329 141.627 256.39 141.597 256.421 141.566C256.575 141.474 256.667 141.382 256.805 141.289C256.99 141.151 257.189 141.028 257.343 140.89C257.343 140.89 257.374 140.859 257.389 140.859C257.573 140.69 257.727 140.521 257.865 140.352C257.896 140.306 257.911 140.275 257.942 140.229C257.973 140.183 258.003 140.153 258.034 140.106C258.08 140.03 258.142 139.968 258.172 139.891C258.249 139.753 258.326 139.599 258.372 139.461C258.372 139.446 258.372 139.415 258.388 139.4C258.388 139.369 258.403 139.338 258.418 139.323C258.449 139.231 258.48 139.139 258.495 139.046C258.526 138.893 258.541 138.755 258.541 138.601C258.541 138.586 258.541 138.555 258.541 138.539L258.572 126.019C258.572 126.28 258.526 126.541 258.434 126.802L258.48 126.756Z" fill="#232323" stroke="#4D4F57" stroke-width="0.8" stroke-linejoin="round"/>
<path d="M256.329 122.777C259.355 124.529 259.371 127.34 256.375 129.091L236.788 140.475C233.792 142.226 228.891 142.226 225.88 140.475L102.749 69.3922C99.7228 67.6408 99.7074 64.8141 102.718 63.0781L122.306 51.6945C125.301 49.9431 130.187 49.9585 133.213 51.6945L256.344 122.777H256.329Z" fill="#333A40" stroke="#596064" stroke-width="0.8" stroke-linejoin="round"/>
<path d="M222.387 149.401C222.387 149.401 222.387 149.462 222.357 149.493C222.264 149.739 222.142 149.969 221.988 150.215C221.957 150.261 221.926 150.292 221.896 150.338C221.727 150.568 221.527 150.799 221.281 151.014C221.128 151.152 220.928 151.275 220.744 151.413C220.59 151.521 220.452 151.644 220.267 151.751L200.68 163.135C200.219 163.396 199.697 163.611 199.159 163.796C198.975 163.857 198.775 163.919 198.575 163.98C198.314 164.057 198.068 164.118 197.807 164.18C197.5 164.241 197.193 164.303 196.87 164.333C196.793 164.333 196.716 164.364 196.64 164.364C196.209 164.41 195.779 164.426 195.349 164.441C195.272 164.441 195.211 164.441 195.134 164.441C194.704 164.441 194.274 164.41 193.859 164.364C193.798 164.364 193.736 164.364 193.659 164.349C193.244 164.303 192.83 164.226 192.415 164.134C192.338 164.118 192.261 164.103 192.2 164.072C191.831 163.98 191.478 163.872 191.124 163.75C191.063 163.734 191.002 163.703 190.94 163.688C190.525 163.534 190.126 163.35 189.773 163.135L66.6567 92.037C66.2727 91.8219 65.9501 91.5761 65.6582 91.3303C64.7979 90.5775 64.3831 89.7172 64.3831 88.8569L64.3524 101.377C64.3524 102.53 65.1051 103.682 66.626 104.558L189.757 175.64C190.111 175.84 190.479 176.024 190.863 176.178C190.879 176.178 190.909 176.178 190.925 176.193C190.986 176.224 191.048 176.239 191.109 176.255C191.34 176.332 191.555 176.424 191.785 176.485C191.908 176.516 192.046 176.547 192.169 176.577C192.246 176.593 192.307 176.608 192.384 176.639C192.446 176.639 192.507 176.67 192.584 176.685C192.83 176.731 193.091 176.777 193.352 176.823C193.444 176.823 193.536 176.838 193.629 176.854C193.69 176.854 193.751 176.854 193.828 176.869C193.92 176.869 194.013 176.9 194.105 176.9C194.351 176.915 194.612 176.931 194.873 176.946C194.95 176.946 195.027 176.946 195.103 176.946C195.18 176.946 195.242 176.946 195.318 176.946C195.426 176.946 195.549 176.946 195.656 176.946C195.948 176.946 196.225 176.915 196.517 176.885C196.547 176.885 196.578 176.885 196.609 176.885C196.686 176.885 196.763 176.869 196.839 176.854C197.054 176.823 197.285 176.808 197.5 176.762C197.592 176.746 197.684 176.716 197.776 176.7C198.038 176.639 198.299 176.577 198.545 176.501C198.683 176.47 198.821 176.439 198.959 176.393C199.021 176.378 199.067 176.332 199.128 176.316C199.666 176.132 200.188 175.917 200.649 175.656L220.237 164.272C220.237 164.272 220.298 164.241 220.329 164.21C220.482 164.118 220.575 164.026 220.713 163.934C220.897 163.796 221.097 163.673 221.251 163.534C221.251 163.534 221.281 163.504 221.297 163.504C221.481 163.335 221.635 163.166 221.773 162.997C221.804 162.951 221.819 162.92 221.85 162.874C221.88 162.828 221.911 162.797 221.942 162.751C221.988 162.674 222.049 162.613 222.08 162.536C222.157 162.398 222.234 162.244 222.28 162.106C222.28 162.09 222.28 162.06 222.295 162.044C222.295 162.014 222.311 161.983 222.326 161.967C222.357 161.875 222.387 161.783 222.403 161.691C222.433 161.537 222.449 161.399 222.449 161.245C222.449 161.23 222.449 161.199 222.449 161.184L222.48 148.664C222.48 148.925 222.433 149.186 222.341 149.447L222.387 149.401Z" fill="#232323" stroke="#474E53" stroke-width="0.8" stroke-linejoin="round"/>
<path d="M220.236 145.422C223.263 147.173 223.278 149.984 220.282 151.736L200.695 163.119C197.699 164.871 192.799 164.871 189.788 163.119L66.6566 92.0367C63.6301 90.2854 63.6148 87.4587 66.6258 85.7227L86.2131 74.339C89.2088 72.5877 94.0942 72.603 97.1206 74.339L220.252 145.422H220.236Z" fill="#333A40" stroke="#596064" stroke-width="0.8" stroke-linejoin="round"/>
<path d="M185.073 170.935C185.073 170.935 185.073 170.997 185.042 171.027C184.95 171.273 184.827 171.503 184.673 171.749C184.643 171.795 184.612 171.826 184.581 171.872C184.412 172.103 184.212 172.333 183.967 172.548C183.813 172.686 183.613 172.809 183.429 172.948C183.275 173.055 183.137 173.178 182.953 173.286L163.365 184.669C162.904 184.93 162.382 185.145 161.844 185.33C161.66 185.391 161.46 185.453 161.261 185.514C161 185.591 160.754 185.652 160.493 185.714C160.185 185.775 159.878 185.837 159.555 185.868C159.479 185.868 159.402 185.898 159.325 185.898C158.895 185.944 158.465 185.96 158.035 185.975C157.958 185.975 157.896 185.975 157.819 185.975C157.389 185.975 156.959 185.944 156.544 185.898C156.483 185.898 156.421 185.898 156.345 185.883C155.93 185.837 155.515 185.76 155.1 185.668C155.023 185.652 154.947 185.637 154.885 185.606C154.516 185.514 154.163 185.407 153.81 185.284C153.748 185.268 153.687 185.238 153.625 185.222C153.211 185.069 152.811 184.884 152.458 184.669L29.3421 113.571C28.958 113.356 28.6354 113.11 28.3435 112.864C27.4832 112.112 27.0684 111.251 27.0684 110.391L27.0377 122.912C27.0377 124.064 27.7905 125.216 29.3114 126.092L152.443 197.174C152.796 197.374 153.165 197.558 153.549 197.712C153.564 197.712 153.595 197.712 153.61 197.727C153.672 197.758 153.733 197.774 153.794 197.789C154.025 197.866 154.24 197.958 154.47 198.019C154.593 198.05 154.732 198.081 154.854 198.111C154.931 198.127 154.993 198.142 155.07 198.173C155.131 198.173 155.192 198.204 155.269 198.219C155.515 198.265 155.776 198.311 156.037 198.357C156.13 198.357 156.222 198.373 156.314 198.388C156.375 198.388 156.437 198.388 156.514 198.403C156.606 198.403 156.698 198.434 156.79 198.434C157.036 198.449 157.297 198.465 157.558 198.48C157.635 198.48 157.712 198.48 157.789 198.48C157.866 198.48 157.927 198.48 158.004 198.48C158.111 198.48 158.234 198.48 158.342 198.48C158.634 198.48 158.91 198.449 159.202 198.419C159.233 198.419 159.264 198.419 159.294 198.419C159.371 198.419 159.448 198.403 159.525 198.388C159.74 198.357 159.97 198.342 160.185 198.296C160.277 198.28 160.37 198.25 160.462 198.234C160.723 198.173 160.984 198.112 161.23 198.035C161.368 198.004 161.506 197.973 161.645 197.927C161.706 197.912 161.752 197.866 161.814 197.85C162.351 197.666 162.874 197.451 163.335 197.19L182.922 185.806C182.922 185.806 182.983 185.775 183.014 185.745C183.168 185.652 183.26 185.56 183.398 185.468C183.583 185.33 183.782 185.207 183.936 185.069C183.936 185.069 183.967 185.038 183.982 185.038C184.166 184.869 184.32 184.7 184.458 184.531C184.489 184.485 184.504 184.454 184.535 184.408C184.566 184.362 184.596 184.331 184.627 184.285C184.673 184.208 184.735 184.147 184.765 184.07C184.842 183.932 184.919 183.778 184.965 183.64C184.965 183.625 184.965 183.594 184.98 183.578C184.98 183.548 184.996 183.517 185.011 183.502C185.042 183.41 185.073 183.317 185.088 183.225C185.119 183.072 185.134 182.933 185.134 182.78C185.134 182.764 185.134 182.734 185.134 182.718L185.165 170.198C185.165 170.459 185.119 170.72 185.027 170.981L185.073 170.935Z" fill="#232323" stroke="#474E53" stroke-width="0.8" stroke-linejoin="round"/>
<path d="M182.922 166.956C185.948 168.707 185.964 171.519 182.968 173.27L163.381 184.654C160.385 186.405 155.484 186.405 152.473 184.654L29.3419 113.571C26.3155 111.82 26.3001 108.993 29.3112 107.257L48.8985 95.8732C51.8942 94.1218 56.7795 94.1372 59.8059 95.8732L182.937 166.956H182.922Z" fill="#333A40" stroke="#596064" stroke-width="0.8" stroke-linejoin="round"/>
<path d="M223.878 33.079L222.572 33.8472L221.112 32.9869L214.599 36.7661L216.074 37.611L214.768 38.3791L210.405 35.8597L211.711 35.0915L213.185 35.9518L219.699 32.1726L218.209 31.3123L219.515 30.5596L223.878 33.079Z" fill="white"/>
<path d="M217.425 29.3612L211.818 32.618C211.142 33.0175 210.358 33.2786 209.498 33.4169C208.638 33.5398 207.778 33.5398 206.917 33.4015C206.042 33.2633 205.273 32.9867 204.567 32.5719C203.86 32.1572 203.369 31.7116 203.123 31.2047C202.862 30.7131 202.862 30.2061 203.077 29.7145C203.307 29.2229 203.768 28.762 204.444 28.378L210.051 25.1211L211.465 25.9353L205.965 29.1307C205.519 29.3919 205.227 29.6684 205.089 30.0064C204.951 30.329 204.935 30.6516 205.089 30.9742C205.227 31.2969 205.504 31.5734 205.919 31.8192C206.333 32.065 206.856 32.234 207.409 32.3108C207.962 32.403 208.53 32.403 209.083 32.3108C209.652 32.234 210.143 32.0496 210.589 31.8038L216.089 28.6084L217.441 29.3919L217.425 29.3612Z" fill="white"/>
<path d="M179.009 47.04L173.433 54.3526L171.927 53.4923L173.325 51.6795L169.484 49.4673L166.366 50.2815L164.937 49.452L177.565 46.2104L179.009 47.04ZM171.359 48.9757L174.155 50.5888L175.322 49.0986C175.322 49.0986 175.46 48.9296 175.614 48.7453C175.783 48.5763 175.937 48.3766 176.136 48.1461C176.321 47.9311 176.505 47.7313 176.659 47.547H176.674L176.52 47.5624C176.213 47.6545 175.891 47.7467 175.568 47.8389C175.23 47.9311 174.907 48.0232 174.615 48.1C174.308 48.1922 174.062 48.2537 173.863 48.3151L171.343 48.9757" fill="white"/>
<path d="M198.074 58.0551L196.784 58.8079L195.294 57.9476L188.795 61.7268L190.285 62.5871L188.979 63.3398L184.617 60.805L185.907 60.0522L187.382 60.9126L193.88 57.1334L192.405 56.2884L193.696 55.5356L198.074 58.0551Z" fill="white"/>
<path d="M188.165 52.3246L186.859 53.0774L185.385 52.2325L178.886 56.0117L180.361 56.8566L179.071 57.6094L174.708 55.0899L175.998 54.3371L177.473 55.1821L183.971 51.4182L182.496 50.5579L183.802 49.8052L188.165 52.3246Z" fill="white"/>
<path d="M209.396 65.2142L207.66 66.2127L209.258 67.1498L207.952 67.9026L206.354 66.9809L200.839 70.1916L199.503 69.4081L205.018 66.1974L203.589 65.3831L204.895 64.615L206.324 65.4446L208.06 64.4307L209.396 65.2142Z" fill="white"/>
<path d="M222.255 71.4202L212.638 76.9968L211.286 76.2133L220.903 70.6367L222.255 71.4202Z" fill="white"/>
<path d="M225.527 73.3099L215.925 78.8865L214.574 78.1183L224.175 72.5264L225.527 73.3099Z" fill="white"/>
<path d="M213.467 73.2177L212.884 73.5403L207.645 70.5139C207.353 70.729 207.123 70.9594 207 71.1898C206.861 71.5125 206.877 71.8351 207.046 72.1577C207.23 72.4803 207.553 72.7722 208.029 73.0487C208.367 73.2484 208.751 73.3867 209.15 73.4942C209.565 73.6018 210.088 73.6632 210.717 73.6939L210.441 74.6464C210.026 74.6464 209.596 74.6003 209.135 74.5235C208.674 74.4313 208.244 74.3238 207.814 74.1855C207.384 74.0319 207.015 73.8783 206.692 73.6939C205.986 73.2792 205.51 72.8336 205.264 72.3574C205.018 71.8658 204.987 71.3742 205.202 70.898C205.417 70.4063 205.863 69.9762 206.539 69.5921C207.092 69.2695 207.645 69.0391 208.259 68.8854C208.874 68.7318 209.504 68.655 210.134 68.6396C210.764 68.6396 211.393 68.7011 212.008 68.8547C212.622 68.993 213.175 69.2081 213.682 69.5C214.128 69.7611 214.451 70.0376 214.681 70.3603C214.881 70.6829 215.004 71.0055 214.973 71.3435C214.958 71.6661 214.835 72.0041 214.573 72.3267C214.328 72.6493 213.959 72.9412 213.467 73.2177ZM212.576 72.1423L212.669 72.0809C212.914 71.8965 213.083 71.6968 213.145 71.4817C213.206 71.2513 213.175 71.0362 213.053 70.8058C212.93 70.5753 212.715 70.391 212.423 70.222C211.946 69.9455 211.455 69.7765 210.963 69.6843C210.472 69.6075 209.965 69.6229 209.458 69.715C209.212 69.7611 208.981 69.8379 208.736 69.9301L212.576 72.1423Z" fill="white"/>
<path d="M201.408 62.4485C201.93 62.7558 202.268 63.063 202.422 63.3857C202.56 63.7083 202.514 64.0309 202.268 64.3689C202.022 64.7068 201.592 65.0755 200.947 65.4442L196.799 67.8562L195.462 67.0727L199.533 64.7068C199.917 64.4764 200.179 64.2613 200.348 64.0616C200.501 63.8465 200.532 63.6468 200.424 63.4471C200.332 63.2781 200.163 63.1245 199.902 62.9709C199.856 62.9401 199.81 62.9248 199.764 62.8941C199.503 62.7404 199.226 62.6329 198.919 62.5561C198.627 62.4793 198.32 62.4332 198.013 62.4332C197.705 62.4332 197.398 62.4485 197.106 62.51C196.814 62.5714 196.568 62.6636 196.338 62.7865L192.205 65.1831L191.545 64.799L191.207 64.5993L190.869 64.3996L197.69 60.436L199.026 61.2042L197.951 61.834C198.151 61.8187 198.351 61.7879 198.581 61.7879C199.088 61.7879 199.595 61.834 200.102 61.9416C200.593 62.0491 201.039 62.2181 201.408 62.4178V62.4485Z" fill="white"/>
<path d="M228.722 74.6774C229.014 74.8464 229.152 75.0154 229.168 75.1998C229.183 75.3841 229.045 75.5377 228.784 75.6914C228.538 75.845 228.246 75.9064 227.939 75.9064C227.616 75.9064 227.324 75.8143 227.032 75.6606C226.74 75.507 226.602 75.3227 226.587 75.1383C226.587 74.9693 226.71 74.8003 226.971 74.6467C227.232 74.4931 227.509 74.4316 227.831 74.4316C228.138 74.4316 228.446 74.5238 228.722 74.6774Z" fill="white"/>
<path d="M262.259 101.393L261.66 101.715L256.437 98.7043C256.145 98.9194 255.914 99.1498 255.791 99.3803C255.638 99.7029 255.653 100.01 255.822 100.333C256.006 100.655 256.329 100.963 256.821 101.239C257.159 101.439 257.543 101.577 257.927 101.685C258.342 101.792 258.864 101.854 259.494 101.884L259.217 102.837C258.802 102.837 258.372 102.791 257.911 102.714C257.466 102.637 257.02 102.514 256.59 102.376C256.175 102.238 255.791 102.069 255.469 101.884C254.777 101.485 254.301 101.024 254.04 100.548C253.81 100.056 253.779 99.58 253.994 99.1037C254.209 98.6121 254.639 98.182 255.315 97.7826C255.868 97.4599 256.437 97.2295 257.051 97.0759C257.666 96.9223 258.295 96.8301 258.925 96.8301C259.555 96.8301 260.17 96.8915 260.784 97.0298C261.399 97.1681 261.967 97.3985 262.474 97.6904C262.92 97.9515 263.242 98.2281 263.457 98.5507C263.657 98.8733 263.78 99.1959 263.749 99.5339C263.749 99.8719 263.611 100.194 263.365 100.517C263.119 100.84 262.751 101.132 262.259 101.408V101.393ZM261.368 100.317L261.46 100.256C261.706 100.072 261.875 99.8719 261.936 99.6568C261.998 99.4264 261.967 99.1959 261.844 98.9808C261.721 98.7658 261.506 98.5661 261.214 98.3971C260.738 98.1205 260.246 97.9515 259.755 97.8594C259.263 97.7672 258.741 97.7826 258.234 97.8901C258.004 97.9515 257.773 98.013 257.527 98.1052L261.368 100.317Z" fill="white"/>
<path d="M255.269 93.5427C255.884 93.896 256.314 94.2801 256.559 94.7256C256.821 95.1557 256.867 95.5705 256.698 95.9699L255.039 96.0621C255.1 95.8624 255.1 95.6627 255.054 95.4323C255.008 95.2018 254.9 95.0021 254.747 94.8024C254.593 94.6027 254.409 94.449 254.178 94.3108C253.763 94.0803 253.287 93.9114 252.765 93.8345C252.243 93.7731 251.705 93.7731 251.152 93.8806C250.599 93.9728 250.123 94.1572 249.662 94.4183C249.201 94.6795 248.924 94.956 248.771 95.2786C248.632 95.6012 248.617 95.9085 248.74 96.2311C248.863 96.5384 249.124 96.8149 249.523 97.0453C249.754 97.1836 250.03 97.2911 250.322 97.3679C250.63 97.4601 250.952 97.5062 251.336 97.5369C251.705 97.5676 252.089 97.5676 252.488 97.5369L252.335 98.5048C251.659 98.5662 250.937 98.5201 250.169 98.3819C249.401 98.2282 248.725 97.9978 248.171 97.6752C247.542 97.3065 247.127 96.8917 246.927 96.4155C246.743 95.9392 246.758 95.463 247.004 94.9867C247.25 94.5105 247.711 94.0803 248.371 93.6963C249.032 93.3122 249.8 93.0357 250.614 92.8974C251.444 92.7592 252.258 92.7438 253.072 92.8513C253.886 92.9589 254.608 93.1893 255.254 93.558L255.269 93.5427Z" fill="white"/>
<path d="M248.172 89.4561C248.694 89.7634 249.032 90.0706 249.17 90.3779C249.324 90.7005 249.262 91.0231 249.032 91.3765C248.786 91.7144 248.356 92.0831 247.711 92.4518L243.563 94.8638L242.211 94.0803L246.282 91.7144C246.666 91.484 246.943 91.2689 247.096 91.0692C247.265 90.8541 247.281 90.6544 247.188 90.4701C247.096 90.3011 246.927 90.1474 246.666 89.9938C246.62 89.9631 246.574 89.9477 246.528 89.917C246.267 89.7634 245.99 89.6558 245.683 89.579C245.391 89.5022 245.068 89.4561 244.776 89.4561C244.469 89.4561 244.177 89.4715 243.87 89.5329C243.594 89.5944 243.332 89.6866 243.102 89.8095L238.969 92.206L238.309 91.822L237.971 91.6223L237.633 91.4225L244.454 87.459L245.79 88.2425L244.715 88.8723C244.915 88.857 245.114 88.8263 245.345 88.8263C245.852 88.8263 246.359 88.8877 246.866 88.9799C247.373 89.0874 247.803 89.2564 248.172 89.4715V89.4561Z" fill="white"/>
<path d="M239.814 88.4421L239.23 88.7647L233.992 85.7382C233.7 85.9533 233.469 86.1837 233.346 86.4142C233.193 86.7368 233.208 87.0441 233.377 87.3667C233.562 87.6893 233.884 87.9965 234.376 88.2731C234.714 88.4728 235.098 88.611 235.497 88.7186C235.897 88.8107 236.419 88.8722 237.049 88.9029L236.788 89.8554C236.373 89.8554 235.927 89.8093 235.482 89.7325C235.021 89.6403 234.575 89.5328 234.145 89.3945C233.73 89.2563 233.346 89.0873 233.024 88.9029C232.333 88.5035 231.856 88.0426 231.595 87.5664C231.365 87.0748 231.334 86.5985 231.549 86.1223C231.764 85.6307 232.194 85.2005 232.87 84.8011C233.423 84.4785 233.992 84.2481 234.606 84.0944C235.221 83.9408 235.851 83.8486 236.48 83.8486C237.11 83.8486 237.725 83.9101 238.339 84.0483C238.954 84.1866 239.522 84.4171 240.029 84.7089C240.475 84.9701 240.797 85.2466 241.012 85.5692C241.212 85.8919 241.335 86.2145 241.304 86.5524C241.304 86.8904 241.166 87.213 240.92 87.5357C240.674 87.8583 240.306 88.1502 239.814 88.4267V88.4421ZM238.938 87.3667L239.031 87.3052C239.276 87.1209 239.445 86.9212 239.507 86.7061C239.568 86.4756 239.538 86.2452 239.415 86.0301C239.292 85.815 239.077 85.6153 238.785 85.4463C238.309 85.1698 237.817 85.0008 237.325 84.9086C236.834 84.8165 236.311 84.8318 235.804 84.9394C235.574 85.0008 235.328 85.0623 235.098 85.1545L238.938 87.3667Z" fill="white"/>
<path d="M233.546 81.1604L234.883 81.9439L228.477 85.677C227.924 85.9996 227.37 86.23 226.787 86.3683C226.218 86.5219 225.619 86.5987 225.02 86.5834C224.436 86.5834 223.837 86.4912 223.253 86.3222C222.67 86.1532 222.101 85.9074 221.548 85.6002C221.056 85.3236 220.657 85.001 220.304 84.6323C219.981 84.2636 219.781 83.9256 219.735 83.6184L221.272 83.2958C221.318 83.4801 221.41 83.6645 221.533 83.8488C221.671 84.0485 221.855 84.2329 222.04 84.4172C222.255 84.6016 222.485 84.7552 222.731 84.9088C223.207 85.1854 223.699 85.3697 224.175 85.4619C224.651 85.5541 225.112 85.5694 225.588 85.4773C226.065 85.3851 226.526 85.2315 226.971 84.9703L227.801 84.494C227.601 84.5248 227.386 84.5401 227.14 84.5555C226.648 84.5555 226.157 84.5094 225.65 84.3865C225.128 84.2636 224.697 84.11 224.313 83.8795C223.668 83.5108 223.238 83.0807 223.038 82.6045C222.823 82.1282 222.839 81.652 223.084 81.1757C223.33 80.6995 223.776 80.254 224.467 79.8546C225.158 79.4551 225.911 79.1786 226.725 79.0403C227.539 78.9021 228.369 78.8867 229.183 79.0096C229.998 79.1171 230.735 79.3783 231.365 79.747C231.626 79.9006 231.841 80.0543 232.025 80.2386C232.21 80.4076 232.333 80.6073 232.425 80.7917C232.517 80.9914 232.578 81.1604 232.609 81.3447C232.624 81.483 232.609 81.6059 232.578 81.7288L233.531 81.1757L233.546 81.1604ZM228.722 83.7106C229.245 83.6184 229.736 83.434 230.182 83.1729C230.627 82.9117 230.935 82.6198 231.104 82.3126C231.273 82.0053 231.288 81.6981 231.15 81.3908C231.027 81.0836 230.75 80.807 230.32 80.5612C229.89 80.3154 229.429 80.1618 228.907 80.085C228.384 80.0235 227.847 80.0389 227.309 80.1311C226.756 80.2232 226.28 80.3922 225.834 80.6534C225.389 80.9146 225.081 81.1911 224.928 81.5137C224.759 81.821 224.743 82.1282 224.882 82.4355C225.005 82.7427 225.281 83.0192 225.696 83.2497C226.111 83.4801 226.602 83.6645 227.14 83.7259C227.662 83.8027 228.2 83.7874 228.738 83.6952" fill="white"/>
<path d="M226.218 76.9358L219.397 80.8994L218.061 80.1159L224.882 76.1523L226.218 76.9358Z" fill="white"/>
<path d="M157.886 81.1823C157.641 81.6432 157.18 82.0887 156.488 82.4727C155.797 82.8568 155.06 83.1333 154.261 83.287C153.447 83.4406 152.648 83.4559 151.849 83.3638C151.065 83.2562 150.374 83.0412 149.775 82.7032C149.375 82.4727 149.053 82.1962 148.853 81.889C148.638 81.5817 148.531 81.2898 148.515 80.9826L148.546 80.7982L144.782 82.9951L143.43 82.2116L153.109 76.5889L154.46 77.3724L153.477 77.9408C153.646 77.9254 153.815 77.9101 154 77.9101C154.476 77.9101 154.983 77.9715 155.49 78.0944C155.981 78.2019 156.427 78.3709 156.796 78.586C157.41 78.9393 157.81 79.3388 157.979 79.7996C158.163 80.2452 158.117 80.706 157.871 81.1823H157.886ZM153.738 82.273C154.261 82.1655 154.752 81.9965 155.198 81.7353C155.643 81.4742 155.935 81.1976 156.089 80.8904C156.258 80.5831 156.289 80.2913 156.166 79.984C156.043 79.6921 155.782 79.431 155.367 79.1851C154.952 78.9393 154.507 78.8011 154 78.7396C153.493 78.6782 152.97 78.6782 152.433 78.7704C151.91 78.8625 151.434 79.0469 150.989 79.308C150.543 79.5692 150.236 79.8457 150.067 80.153C149.913 80.4602 149.898 80.7675 150.005 81.0594C150.128 81.3513 150.374 81.6124 150.789 81.8582C151.204 82.104 151.649 82.2423 152.156 82.3038C152.678 82.3652 153.185 82.3498 153.723 82.2577" fill="white"/>
<path d="M148.484 77.5724L147.901 77.895L142.662 74.8686C142.37 75.0837 142.14 75.2988 142.032 75.5446C141.894 75.8672 141.894 76.1898 142.063 76.5124C142.247 76.835 142.57 77.1269 143.046 77.4034C143.384 77.6031 143.768 77.7414 144.168 77.8489C144.582 77.9565 145.105 78.0179 145.735 78.0487L145.473 78.9858C145.043 78.9858 144.628 78.9397 144.168 78.8629C143.707 78.7707 143.261 78.6632 142.846 78.5249C142.401 78.3866 142.047 78.2176 141.725 78.0333C141.018 77.6185 140.542 77.173 140.296 76.6967C140.035 76.2051 140.02 75.7289 140.235 75.2373C140.434 74.7611 140.88 74.3309 141.571 73.9315C142.109 73.6242 142.677 73.3784 143.292 73.2248C143.922 73.0712 144.536 72.9944 145.166 72.979C145.811 72.979 146.426 73.0251 147.04 73.1787C147.639 73.317 148.193 73.5474 148.699 73.8393C149.145 74.1005 149.468 74.377 149.683 74.6996C149.913 75.0222 150.005 75.3448 149.99 75.6828C149.99 76.0208 149.852 76.3434 149.591 76.6814C149.345 77.004 148.976 77.2959 148.484 77.5724ZM147.609 76.497L147.701 76.4509C147.947 76.2666 148.131 76.0669 148.193 75.8364C148.254 75.606 148.223 75.3909 148.085 75.1759C147.962 74.9454 147.747 74.7611 147.455 74.5921C146.979 74.3155 146.487 74.1466 145.996 74.0544C145.504 73.9776 144.997 73.9929 144.49 74.0851C144.26 74.1312 144.014 74.208 143.783 74.3002L147.624 76.5124" fill="white"/>
<path d="M143.154 71.335C142.8 71.7651 142.278 72.1799 141.602 72.5793C140.926 72.9788 140.204 73.2707 139.451 73.4857C138.683 73.7008 137.915 73.8084 137.147 73.8237C136.363 73.8391 135.611 73.7623 134.858 73.5933C134.12 73.4089 133.414 73.1324 132.768 72.7483L129.189 70.6744L138.284 65.3896L141.863 67.4636C142.524 67.8477 143 68.2471 143.323 68.6772C143.63 69.1074 143.768 69.5375 143.737 69.9984C143.707 70.4439 143.507 70.8895 143.154 71.335ZM138.637 72.4104C139.159 72.2567 139.682 72.0263 140.173 71.7344C140.665 71.4425 141.034 71.1506 141.31 70.8434C141.571 70.5361 141.725 70.2289 141.74 69.9216C141.756 69.6144 141.663 69.3225 141.464 69.0306C141.249 68.7387 140.911 68.4468 140.45 68.1856L138.345 66.972L131.954 70.6897L134.059 71.9034C134.52 72.1646 134.996 72.3643 135.503 72.4872C136.025 72.6101 136.532 72.6562 137.055 72.6562C137.577 72.6408 138.084 72.5486 138.622 72.395" fill="white"/>
<path d="M169.055 87.6195C168.824 88.1111 168.379 88.5413 167.688 88.9407C166.996 89.3401 166.228 89.6013 165.399 89.7396C164.569 89.8625 163.739 89.8778 162.894 89.7396C162.065 89.6167 161.312 89.3555 160.652 88.9714C159.991 88.5874 159.53 88.1418 159.315 87.6656C159.1 87.174 159.1 86.6978 159.315 86.2062C159.545 85.7146 160.006 85.2844 160.698 84.885C161.389 84.4855 162.126 84.2244 162.971 84.0861C163.816 83.9479 164.646 83.9479 165.491 84.0861C166.32 84.209 167.073 84.4548 167.749 84.8542C168.425 85.2537 168.855 85.6685 169.07 86.1601C169.301 86.6363 169.285 87.1279 169.07 87.6042L169.055 87.6195ZM164.861 88.6949C165.399 88.6027 165.875 88.4184 166.32 88.1572C166.781 87.896 167.088 87.6195 167.257 87.3123C167.426 87.005 167.457 86.6978 167.334 86.3905C167.211 86.0833 166.935 85.8221 166.535 85.5917C166.136 85.3612 165.66 85.2076 165.122 85.1308C164.6 85.0693 164.062 85.0693 163.524 85.1769C162.987 85.269 162.51 85.4534 162.08 85.7146C161.619 85.9757 161.312 86.2369 161.143 86.5595C160.974 86.8667 160.943 87.1894 161.066 87.4813C161.205 87.7885 161.466 88.065 161.865 88.2955C162.265 88.5259 162.741 88.6795 163.263 88.7563C163.786 88.8178 164.323 88.8024 164.861 88.7103" fill="white"/>
<path d="M165.537 80.5218L155.92 86.1138L154.568 85.3303L164.185 79.7383L165.537 80.5218Z" fill="white"/>
<path d="M194.972 104.411L194.388 104.733L189.149 101.707C188.857 101.922 188.627 102.137 188.519 102.383C188.381 102.706 188.381 103.028 188.55 103.351C188.735 103.673 189.057 103.965 189.533 104.242C189.871 104.442 190.255 104.58 190.655 104.687C191.07 104.795 191.592 104.856 192.222 104.887L191.961 105.824C191.531 105.824 191.116 105.778 190.655 105.701C190.194 105.609 189.748 105.502 189.334 105.363C188.888 105.225 188.535 105.056 188.212 104.872C187.506 104.457 187.029 104.011 186.783 103.535C186.522 103.044 186.507 102.567 186.722 102.076C186.922 101.599 187.367 101.169 188.059 100.77C188.596 100.463 189.165 100.217 189.779 100.063C190.409 99.9096 191.024 99.8327 191.653 99.8174C192.299 99.8174 192.913 99.8635 193.528 100.017C194.127 100.155 194.68 100.386 195.187 100.678C195.632 100.939 195.955 101.215 196.185 101.538C196.4 101.861 196.508 102.183 196.493 102.521C196.477 102.844 196.354 103.182 196.093 103.504C195.847 103.827 195.479 104.119 194.987 104.395L194.972 104.411ZM194.096 103.335L194.188 103.289C194.434 103.105 194.618 102.905 194.68 102.675C194.741 102.444 194.711 102.229 194.572 101.999C194.449 101.768 194.234 101.584 193.942 101.415C193.466 101.139 192.975 100.97 192.483 100.877C191.991 100.801 191.484 100.816 190.977 100.908C190.747 100.954 190.501 101.031 190.271 101.123L194.111 103.335" fill="white"/>
<path d="M187.966 96.5759C188.473 96.8678 188.796 97.175 188.934 97.4977C189.057 97.8049 188.996 98.1429 188.75 98.4809C188.504 98.8342 188.043 99.1875 187.413 99.5563L183.327 101.937L181.975 101.154L185.985 98.8188C186.369 98.5884 186.63 98.3733 186.784 98.1736C186.922 97.9739 186.968 97.7896 186.891 97.5898C186.814 97.4055 186.615 97.2211 186.307 97.0521C186.062 96.9139 185.785 96.791 185.508 96.7295C185.201 96.6527 184.909 96.6066 184.602 96.6066C184.295 96.6066 184.003 96.622 183.726 96.6988C183.45 96.7603 183.173 96.8524 182.943 96.9907L178.856 99.3565L177.505 98.573L181.545 96.2226C181.898 96.0229 182.144 95.8078 182.282 95.6081C182.421 95.393 182.451 95.1933 182.39 95.0089C182.313 94.8092 182.144 94.6402 181.852 94.4712C181.606 94.333 181.345 94.2254 181.053 94.1486C180.761 94.0872 180.47 94.0411 180.162 94.0257C179.855 94.0257 179.563 94.0411 179.287 94.1179C179.01 94.1793 178.749 94.2715 178.518 94.4098L174.417 96.791L173.065 96.0075L179.886 92.0439L181.238 92.8274L180.132 93.4727L180.362 93.4419C180.731 93.3959 181.099 93.4112 181.483 93.4419C181.868 93.4727 182.236 93.5341 182.59 93.6417C182.943 93.7338 183.25 93.8567 183.527 94.0104C183.926 94.2408 184.187 94.4712 184.372 94.717C184.541 94.9628 184.587 95.2086 184.51 95.4698C184.464 95.6542 184.341 95.8539 184.157 96.0536C184.433 96.0075 184.74 95.9614 185.078 95.9614C185.416 95.9614 185.785 95.9614 186.138 96.0229C186.492 96.0689 186.83 96.1458 187.152 96.2379C187.46 96.3301 187.751 96.453 187.982 96.5759H187.966Z" fill="white"/>
<path d="M178.887 91.46L169.255 93.7951L165.091 94.8551L163.647 94.0101L167.473 93.1345L171.436 87.1431L173.003 88.0495L170.13 92.2127C170.13 92.2127 170.007 92.3971 169.9 92.5353L169.854 92.5814C170.115 92.52 170.345 92.4432 170.591 92.3663L177.305 90.5382L178.887 91.46Z" fill="white"/>
<path d="M211.333 108.175L209.582 109.189L211.164 110.11L209.874 110.863L208.291 109.941L202.761 113.152L201.409 112.369L206.939 109.158L205.511 108.344L206.801 107.591L208.23 108.405L209.966 107.391L211.333 108.175Z" fill="white"/>
<path d="M203.344 105.425C203.867 105.732 204.205 106.039 204.343 106.362C204.497 106.669 204.451 107.007 204.205 107.36C203.959 107.698 203.529 108.052 202.884 108.42L198.72 110.832L197.384 110.064L201.455 107.698C201.839 107.468 202.131 107.253 202.269 107.038C202.407 106.823 202.438 106.623 202.346 106.439C202.254 106.27 202.085 106.116 201.824 105.962C201.777 105.932 201.731 105.916 201.685 105.886C201.424 105.732 201.148 105.624 200.856 105.548C200.548 105.471 200.241 105.425 199.934 105.425C199.627 105.425 199.335 105.425 199.043 105.501C198.751 105.578 198.49 105.655 198.275 105.793L194.142 108.19L193.482 107.806L193.144 107.606L192.806 107.406L199.627 103.443L200.963 104.226L199.888 104.856C200.088 104.826 200.303 104.81 200.518 104.81C201.025 104.81 201.532 104.856 202.039 104.964C202.546 105.071 202.991 105.225 203.344 105.44V105.425Z" fill="white"/>
<path d="M101.58 87.7244L93.8524 92.2256L98.1386 94.699L96.7713 95.4825L91.0718 92.1949L100.166 86.9102L101.58 87.7244Z" fill="white"/>
<path d="M106.957 93.47L100.136 97.4336L98.7839 96.6501L105.605 92.6865L106.957 93.47Z" fill="white"/>
<path d="M109.461 91.2119C109.753 91.3809 109.891 91.5499 109.906 91.7342C109.906 91.9032 109.783 92.0722 109.522 92.2258C109.277 92.3794 109 92.4409 108.677 92.4409C108.37 92.4409 108.063 92.3487 107.786 92.1951C107.51 92.0415 107.341 91.8571 107.341 91.6881C107.341 91.5191 107.464 91.3501 107.725 91.1965C107.986 91.0429 108.263 90.9814 108.585 90.9814C108.892 90.9814 109.2 91.0736 109.476 91.2272L109.461 91.2119Z" fill="white"/>
<path d="M113.808 99.2312C113.563 99.7074 113.086 100.138 112.41 100.537C111.734 100.936 110.982 101.213 110.168 101.367C109.353 101.52 108.539 101.551 107.771 101.459C106.972 101.367 106.296 101.136 105.682 100.783C105.39 100.614 105.129 100.414 104.929 100.199C104.729 99.9686 104.591 99.7535 104.529 99.5077C104.453 99.2772 104.422 99.0775 104.468 98.8778L103.592 99.3848L102.24 98.6013L111.827 93.04L113.179 93.8235L109.399 96.0204H109.599C109.937 95.9743 110.29 95.9743 110.674 96.0204C111.059 96.0665 111.427 96.1433 111.796 96.2355C112.165 96.343 112.487 96.4659 112.764 96.6349C113.378 96.9882 113.778 97.403 113.947 97.8485C114.131 98.294 114.085 98.7703 113.824 99.2312H113.808ZM109.645 100.337C110.183 100.245 110.674 100.061 111.12 99.7996C111.566 99.5384 111.873 99.2619 112.042 98.9546C112.211 98.6474 112.241 98.3401 112.119 98.0482C111.996 97.7564 111.734 97.4952 111.335 97.2494C110.936 97.0036 110.459 96.8653 109.952 96.7885C109.43 96.7271 108.923 96.7424 108.385 96.8346C107.848 96.9268 107.356 97.1111 106.926 97.3723C106.496 97.6335 106.173 97.91 106.004 98.2326C105.835 98.5398 105.805 98.8471 105.912 99.1543C106.02 99.4616 106.281 99.7228 106.696 99.9532C107.11 100.184 107.556 100.337 108.063 100.399C108.585 100.46 109.107 100.445 109.645 100.337Z" fill="white"/>
<path d="M120.86 101.32C121.014 101.412 121.136 101.505 121.259 101.597C121.352 101.689 121.444 101.766 121.474 101.827L119.677 102.472C119.616 102.396 119.539 102.303 119.447 102.211C119.354 102.119 119.247 102.042 119.124 101.965C118.894 101.827 118.617 101.735 118.31 101.658C118.002 101.581 117.695 101.551 117.373 101.551C117.05 101.551 116.743 101.581 116.435 101.658C116.128 101.72 115.836 101.827 115.591 101.981L111.827 104.178L110.459 103.394L117.28 99.4307L118.648 100.214L117.342 100.967C117.634 100.905 117.941 100.859 118.279 100.844C118.771 100.813 119.262 100.844 119.723 100.936C120.184 101.028 120.568 101.151 120.891 101.336L120.86 101.32Z" fill="white"/>
<path d="M142.383 113.917L132.735 116.253L128.572 117.313L127.128 116.468L130.953 115.592L134.917 109.601L136.484 110.507L133.611 114.67C133.611 114.67 133.488 114.855 133.381 114.993L133.334 115.039C133.596 114.977 133.826 114.901 134.072 114.824L140.785 112.996L142.383 113.917Z" fill="white"/>
<path d="M134.118 108.971C134.272 109.063 134.394 109.155 134.517 109.247C134.61 109.339 134.702 109.416 134.732 109.478L132.92 110.123C132.858 110.046 132.781 109.954 132.689 109.862C132.597 109.77 132.49 109.693 132.367 109.616C132.136 109.478 131.86 109.385 131.552 109.309C131.245 109.232 130.938 109.201 130.615 109.201C130.293 109.201 129.985 109.232 129.678 109.309C129.371 109.37 129.079 109.478 128.833 109.631L125.069 111.828L123.702 111.045L130.523 107.081L131.89 107.865L130.585 108.617C130.876 108.556 131.184 108.51 131.522 108.494C132.013 108.464 132.505 108.494 132.966 108.587C133.427 108.679 133.811 108.802 134.133 108.986L134.118 108.971Z" fill="white"/>
<path d="M127.281 105.207L128.633 105.99L121.812 109.954L120.46 109.17L121.505 108.571C121.09 108.602 120.706 108.602 120.276 108.571C119.861 108.525 119.446 108.448 119.047 108.341C118.648 108.233 118.279 108.08 117.956 107.895C117.388 107.573 117.019 107.173 116.881 106.728C116.727 106.282 116.773 105.821 117.035 105.345C117.28 104.869 117.757 104.439 118.433 104.039C119.109 103.64 119.861 103.363 120.675 103.225C121.49 103.071 122.304 103.056 123.087 103.164C123.871 103.271 124.562 103.486 125.177 103.84C125.53 104.039 125.791 104.27 126.006 104.5C126.191 104.731 126.298 104.961 126.344 105.207C126.375 105.422 126.344 105.637 126.267 105.852L127.327 105.238L127.281 105.207ZM122.473 107.742C122.995 107.634 123.487 107.465 123.932 107.204C124.378 106.943 124.685 106.666 124.854 106.359C125.023 106.052 125.054 105.744 124.931 105.453C124.823 105.145 124.562 104.884 124.147 104.654C123.733 104.423 123.287 104.27 122.78 104.208C122.273 104.147 121.751 104.162 121.229 104.254C120.706 104.346 120.23 104.531 119.784 104.792C119.339 105.053 119.032 105.33 118.847 105.637C118.678 105.944 118.632 106.251 118.755 106.543C118.847 106.835 119.124 107.096 119.523 107.342C119.923 107.588 120.384 107.726 120.906 107.788C121.413 107.849 121.935 107.834 122.473 107.742Z" fill="white"/>
<path d="M71.9595 113.971L62.8649 119.256L61.5744 118.503L63.1721 111.39C62.8495 111.605 62.573 111.805 62.3118 111.974C61.9738 112.204 61.6973 112.404 61.4669 112.558C61.2211 112.727 61.0367 112.85 60.8985 112.942C60.7448 113.049 60.6219 113.111 60.5144 113.188C60.4069 113.249 60.33 113.311 60.2532 113.357L56.474 115.554L55.0607 114.739L64.1553 109.455L65.4151 110.192L63.6637 117.382L63.8634 117.228C64.0939 117.059 64.3397 116.89 64.6162 116.706C64.8774 116.521 65.1693 116.337 65.4765 116.137C65.7838 115.938 66.1217 115.738 66.4597 115.538C66.8131 115.323 67.1664 115.108 67.5658 114.893L70.5462 113.157L71.9595 113.971Z" fill="white"/>
<path d="M99.4124 134.281C99.182 134.772 98.7364 135.202 98.0451 135.617C97.3538 136.032 96.6011 136.278 95.7561 136.416C94.9265 136.539 94.0816 136.554 93.252 136.416C92.4071 136.293 91.6697 136.032 91.0091 135.648C90.3485 135.264 89.8876 134.834 89.6572 134.342C89.4421 133.866 89.4421 133.374 89.6572 132.898C89.8876 132.406 90.3485 131.976 91.0244 131.577C91.7004 131.177 92.4685 130.901 93.3135 130.778C94.1584 130.64 94.988 130.64 95.8176 130.778C96.6625 130.901 97.4153 131.162 98.0912 131.546C98.7672 131.93 99.1973 132.36 99.4124 132.852C99.6428 133.328 99.6275 133.82 99.4124 134.296V134.281ZM95.2184 135.341C95.7561 135.249 96.2323 135.064 96.6625 134.803C97.1234 134.542 97.446 134.265 97.5996 133.943C97.7686 133.635 97.7993 133.328 97.6764 133.021C97.5535 132.714 97.277 132.453 96.8776 132.222C96.4781 131.992 96.0019 131.838 95.4642 131.761C94.9419 131.7 94.4042 131.7 93.8665 131.807C93.3288 131.899 92.8526 132.084 92.4071 132.345C91.9615 132.606 91.6543 132.867 91.4853 133.19C91.3163 133.497 91.2856 133.82 91.4085 134.112C91.5314 134.419 91.8079 134.695 92.2073 134.926C92.6068 135.156 93.083 135.31 93.6053 135.387C94.1277 135.448 94.6654 135.433 95.2031 135.341" fill="white"/>
<path d="M106.51 136.37C106.664 136.462 106.787 136.554 106.909 136.647C107.002 136.739 107.094 136.816 107.125 136.877L105.327 137.522C105.266 137.445 105.189 137.353 105.097 137.261C105.004 137.169 104.897 137.092 104.774 137.015C104.544 136.877 104.267 136.785 103.96 136.708C103.653 136.631 103.345 136.601 103.023 136.601C102.7 136.601 102.393 136.631 102.086 136.708C101.778 136.77 101.486 136.877 101.241 137.031L97.4768 139.228L96.1096 138.444L102.931 134.48L104.298 135.264L102.992 136.017C103.284 135.955 103.591 135.909 103.929 135.894C104.421 135.863 104.897 135.894 105.373 135.986C105.834 136.078 106.218 136.201 106.541 136.385L106.51 136.37Z" fill="white"/>
<path d="M112.332 136.662L106.464 140.072L112.624 140.088L114.437 141.132L108.231 141.009L107.724 145.142L105.988 144.159L106.387 140.979L104.943 140.948L102.7 142.254L101.364 141.486L110.981 135.894L112.332 136.662Z" fill="white"/>
<path d="M74.9554 121.99L74.3716 122.313L69.133 119.287C68.8411 119.502 68.6107 119.732 68.5031 119.963C68.3649 120.285 68.3649 120.608 68.5338 120.93C68.7182 121.253 69.0408 121.545 69.5171 121.821C69.855 122.021 70.2391 122.159 70.6385 122.267C71.0533 122.374 71.5756 122.436 72.2055 122.467L71.9443 123.404C71.5142 123.404 71.0994 123.358 70.6385 123.281C70.1776 123.189 69.7321 123.081 69.3173 122.943C68.8718 122.805 68.5185 122.636 68.1959 122.451C67.4892 122.036 67.0129 121.591 66.7671 121.115C66.506 120.623 66.4906 120.147 66.7057 119.655C66.9054 119.179 67.3509 118.749 68.0422 118.349C68.5799 118.042 69.1484 117.796 69.7629 117.643C70.3927 117.489 71.0072 117.412 71.6371 117.397C72.267 117.397 72.8815 117.458 73.5113 117.597C74.1105 117.735 74.6635 117.965 75.1705 118.257C75.616 118.518 75.9386 118.795 76.1691 119.118C76.3841 119.44 76.4917 119.763 76.4763 120.101C76.4456 120.439 76.338 120.761 76.0769 121.084C75.8311 121.407 75.4624 121.698 74.9708 121.975L74.9554 121.99ZM74.0797 120.9L74.1719 120.854C74.4177 120.669 74.5867 120.469 74.6635 120.239C74.725 120.009 74.6942 119.794 74.556 119.563C74.4331 119.333 74.218 119.148 73.9261 118.979C73.4499 118.703 72.9583 118.534 72.4667 118.442C71.9751 118.365 71.4681 118.38 70.9611 118.472C70.7153 118.518 70.4849 118.595 70.2545 118.687L74.0951 120.9" fill="white"/>
<path d="M83.5276 121.253L81.7763 122.267L83.374 123.188L82.0682 123.941L80.4858 123.019L74.9553 126.23L73.6034 125.447L79.1339 122.236L77.7052 121.422L79.011 120.669L80.4244 121.483L82.1757 120.469L83.5276 121.253Z" fill="white"/>
<path d="M85.3252 124.31L82.1605 127.921L87.4145 126.784L88.2288 127.245L86.2931 130.256L92.4688 128.443L93.8361 129.226L84.6954 131.853L83.7736 131.316L85.9858 128.013L80.3785 129.365L79.4721 128.842L83.9426 123.527L85.3252 124.31Z" fill="white"/>
<g clip-path="url(#clip0_4342_4297)">
<path d="M201.124 19.2191C203.159 20.5678 203.175 22.7527 201.156 24.1014C199.136 25.4501 195.849 25.4501 193.822 24.1014C191.795 22.7527 191.779 20.5678 193.799 19.2191C195.818 17.8703 199.105 17.8703 201.132 19.2191H201.124Z" fill="#EFEBFF"/>
</g>
<g clip-path="url(#clip1_4342_4297)">
<path d="M164.183 40.4134C166.218 41.7621 166.233 43.947 164.214 45.2957C162.195 46.6444 158.908 46.6444 156.881 45.2957C154.853 43.947 154.838 41.7621 156.857 40.4134C158.876 39.0647 162.163 39.0647 164.191 40.4134H164.183Z" fill="#EFEBFF"/>
</g>
<g clip-path="url(#clip2_4342_4297)">
<path d="M164.183 40.4134C166.218 41.7621 166.233 43.947 164.214 45.2957C162.195 46.6444 158.908 46.6444 156.881 45.2957C154.853 43.947 154.838 41.7621 156.857 40.4134C158.876 39.0647 162.163 39.0647 164.191 40.4134H164.183Z" fill="#DFD7FE"/>
</g>
<g clip-path="url(#clip3_4342_4297)">
<path d="M128.516 60.8997C130.551 62.2484 130.567 64.4333 128.548 65.7821C126.529 67.1308 123.241 67.1308 121.214 65.7821C119.187 64.4333 119.172 62.2484 121.191 60.8997C123.21 59.551 126.497 59.551 128.524 60.8997H128.516Z" fill="#BFAFFD"/>
</g>
<g clip-path="url(#clip4_4342_4297)">
<path d="M91.3926 81.679C93.4275 83.0277 93.4432 85.2126 91.4239 86.5614C89.4046 87.9101 86.1175 87.9101 84.0904 86.5614C82.0633 85.2126 82.0477 83.0277 84.0669 81.679C86.0862 80.3303 89.3733 80.3303 91.4004 81.679H91.3926Z" fill="#EFEBFF"/>
</g>
<g clip-path="url(#clip5_4342_4297)">
<path d="M91.3926 81.679C93.4275 83.0277 93.4432 85.2126 91.4239 86.5614C89.4046 87.9101 86.1175 87.9101 84.0904 86.5614C82.0633 85.2126 82.0477 83.0277 84.0669 81.679C86.0862 80.3303 89.3733 80.3303 91.4004 81.679H91.3926Z" fill="#9F88FD"/>
</g>
<g clip-path="url(#clip6_4342_4297)">
<path d="M53.6053 103.686C55.6402 105.035 55.6559 107.22 53.6366 108.569C51.6174 109.917 48.3302 109.917 46.3031 108.569C44.276 107.22 44.2604 105.035 46.2796 103.686C48.2989 102.338 51.586 102.338 53.6131 103.686H53.6053Z" fill="#5F38FB"/>
</g>
<defs>
<clipPath id="clip0_4342_4297">
<rect width="10.3702" height="6.91348" fill="white" transform="translate(192.288 18.208)"/>
</clipPath>
<clipPath id="clip1_4342_4297">
<rect width="10.3702" height="6.91348" fill="white" transform="translate(155.347 39.4023)"/>
</clipPath>
<clipPath id="clip2_4342_4297">
<rect width="10.3702" height="6.91348" fill="white" transform="translate(155.347 39.4023)"/>
</clipPath>
<clipPath id="clip3_4342_4297">
<rect width="10.3702" height="6.91348" fill="white" transform="translate(119.68 59.8887)"/>
</clipPath>
<clipPath id="clip4_4342_4297">
<rect width="10.3702" height="6.91348" fill="white" transform="translate(82.5565 80.668)"/>
</clipPath>
<clipPath id="clip5_4342_4297">
<rect width="10.3702" height="6.91348" fill="white" transform="translate(82.5565 80.668)"/>
</clipPath>
<clipPath id="clip6_4342_4297">
<rect width="10.3702" height="6.91348" fill="white" transform="translate(44.7692 102.675)"/>
</clipPath>
</defs>
</svg>
