<svg width="304" height="284" viewBox="0 0 304 284" fill="none" xmlns="http://www.w3.org/2000/svg">
<path d="M142.138 6.11621L175.008 24.6586" stroke="#DCE2EA" stroke-miterlimit="10"/>
<path d="M145.568 2.71646L142.673 1.1036L145.568 2.71646ZM145.568 2.71646H145.557L146.906 3.46608C147.649 3.87951 147.939 4.37927 147.948 4.80292C147.957 5.22581 147.691 5.73326 146.97 6.17049M145.568 2.71646L146.97 6.17049M146.97 6.17049L142.839 8.67241C142.839 8.67248 142.839 8.67255 142.838 8.67262C142.114 9.10942 141.136 9.35025 140.13 9.36779C139.125 9.38534 138.137 9.17887 137.395 8.76648C137.395 8.76647 137.395 8.76646 137.395 8.76645C137.395 8.7664 137.395 8.76635 137.395 8.7663L133.155 6.40401L133.154 6.40382C132.41 5.98997 132.121 5.49215 132.113 5.07051C132.104 4.64918 132.371 4.14119 133.098 3.69932C133.098 3.69925 133.098 3.69918 133.098 3.69911L137.229 1.19749C137.229 1.19743 137.229 1.19737 137.229 1.19731C137.953 0.760491 138.932 0.519651 139.937 0.502104C140.942 0.484559 141.93 0.691025 142.673 1.10341L146.97 6.17049Z" stroke="#DCE2EA" stroke-width="0.8"/>
<path d="M25 49L55 66" stroke="#DCE2EA" stroke-miterlimit="10"/>
<path d="M25.7414 43.7682L22.8464 42.1554L25.7414 43.7682ZM25.7414 43.7682H25.7306L27.0791 44.5178C27.8229 44.9313 28.1123 45.431 28.1217 45.8547C28.131 46.2776 27.8646 46.785 27.1436 47.2223M25.7414 43.7682L27.1436 47.2223M27.1436 47.2223L23.0124 49.7242C23.0123 49.7242 23.0121 49.7243 23.012 49.7244C22.288 50.1612 21.309 50.402 20.304 50.4196C19.299 50.4371 18.3106 50.2306 17.5685 49.8182C17.5685 49.8182 17.5685 49.8182 17.5685 49.8182C17.5684 49.8182 17.5683 49.8181 17.5682 49.8181L13.3281 47.4558L13.3277 47.4556C12.5832 47.0417 12.2948 46.5439 12.2862 46.1223C12.2775 45.7009 12.5449 45.1929 13.2712 44.7511C13.2713 44.751 13.2714 44.7509 13.2715 44.7509L17.4022 42.2492C17.4023 42.2492 17.4024 42.2491 17.4025 42.2491C18.1266 41.8122 19.1055 41.5714 20.1106 41.5539C21.1156 41.5363 22.104 41.7428 22.8461 42.1552L27.1436 47.2223Z" stroke="#DCE2EA" stroke-width="0.8"/>
<path d="M350.867 102.443C356.468 105.68 356.498 110.92 350.928 114.157L165.316 222.019C159.745 225.256 150.697 225.256 145.096 222.019L5.43572 141.408C-0.16514 138.171 -0.195252 132.932 5.3755 129.695L190.987 21.8179C196.558 18.5809 205.606 18.5809 211.207 21.8179L350.867 102.443Z" fill="#1F2123" stroke="white" stroke-width="0.8" stroke-linejoin="round"/>
<path d="M137.423 102.118C137.415 102.203 137.407 102.296 137.392 102.382C137.376 102.452 137.353 102.522 137.338 102.599C137.314 102.685 137.299 102.77 137.268 102.848C137.245 102.918 137.214 102.988 137.183 103.05C137.144 103.136 137.105 103.229 137.059 103.314C137.028 103.376 136.989 103.439 136.95 103.501C136.888 103.602 136.826 103.695 136.756 103.796C136.717 103.851 136.671 103.913 136.624 103.967C136.516 104.099 136.4 104.224 136.268 104.348C136.221 104.395 136.183 104.441 136.128 104.488C136.051 104.558 135.958 104.628 135.872 104.698C135.795 104.76 135.717 104.822 135.64 104.884C135.547 104.954 135.438 105.016 135.338 105.086C135.229 105.156 135.136 105.226 135.02 105.288L120.089 113.984C119.725 114.194 119.329 114.373 118.918 114.544C118.81 114.59 118.701 114.629 118.593 114.668C118.337 114.761 118.073 114.831 117.802 114.909C117.523 114.987 117.252 115.057 116.965 115.119C116.631 115.189 116.29 115.251 115.949 115.298C115.864 115.305 115.786 115.321 115.701 115.329C115.236 115.375 114.763 115.406 114.29 115.406C114.213 115.406 114.143 115.406 114.065 115.406C113.6 115.406 113.135 115.375 112.67 115.329C112.6 115.329 112.53 115.313 112.461 115.305C112.003 115.251 111.554 115.173 111.112 115.072C111.034 115.057 110.949 115.033 110.871 115.01C110.468 114.909 110.081 114.793 109.709 114.653C109.639 114.629 109.569 114.606 109.499 114.583C109.05 114.412 108.623 114.21 108.22 113.977L93.1886 105.28C92.3591 104.799 91.7467 104.247 91.3281 103.656C90.9172 103.066 90.7079 102.436 90.7156 101.814L90.6769 114.971C90.6769 116.222 91.4986 117.481 93.1498 118.437L108.181 127.133C108.561 127.351 108.964 127.545 109.391 127.716C109.414 127.724 109.437 127.732 109.461 127.74C109.53 127.763 109.6 127.786 109.67 127.809C109.91 127.895 110.158 127.988 110.406 128.058C110.546 128.097 110.685 128.128 110.825 128.159C110.902 128.183 110.98 128.198 111.065 128.221C111.135 128.237 111.205 128.26 111.282 128.276C111.554 128.33 111.833 128.385 112.112 128.423C112.213 128.439 112.313 128.447 112.414 128.455C112.484 128.462 112.554 128.47 112.623 128.478C112.724 128.486 112.825 128.501 112.926 128.509C113.197 128.532 113.476 128.548 113.755 128.556C113.841 128.556 113.926 128.556 114.019 128.556C114.096 128.556 114.166 128.556 114.244 128.556C114.368 128.556 114.492 128.556 114.616 128.556C114.926 128.548 115.236 128.524 115.546 128.493C115.585 128.493 115.616 128.486 115.647 128.478C115.732 128.47 115.81 128.455 115.895 128.447C116.135 128.416 116.376 128.392 116.616 128.346C116.717 128.33 116.817 128.291 116.918 128.268C117.205 128.206 117.484 128.136 117.755 128.058C117.903 128.019 118.058 127.996 118.205 127.949C118.321 127.911 118.43 127.864 118.546 127.817C118.655 127.778 118.763 127.74 118.872 127.693C119.283 127.53 119.678 127.351 120.042 127.133L134.973 118.43C134.973 118.43 135.043 118.391 135.074 118.367C135.151 118.321 135.221 118.266 135.291 118.22C135.392 118.158 135.493 118.088 135.586 118.018C135.671 117.955 135.748 117.893 135.826 117.831C135.911 117.761 136.004 117.691 136.082 117.621C136.097 117.606 136.121 117.59 136.136 117.575C136.167 117.544 136.19 117.513 136.221 117.481C136.353 117.357 136.469 117.233 136.578 117.101C136.601 117.07 136.632 117.046 136.655 117.015C136.679 116.984 136.694 116.961 136.71 116.93C136.779 116.836 136.849 116.735 136.904 116.634C136.927 116.595 136.966 116.557 136.989 116.51C137.004 116.487 137.004 116.471 137.02 116.448C137.066 116.362 137.105 116.277 137.144 116.184C137.167 116.129 137.198 116.083 137.214 116.028C137.214 116.013 137.221 115.989 137.229 115.974C137.26 115.888 137.276 115.811 137.299 115.725C137.314 115.671 137.338 115.609 137.345 115.554C137.345 115.539 137.345 115.523 137.345 115.507C137.361 115.422 137.369 115.329 137.376 115.243C137.376 115.189 137.392 115.127 137.4 115.072C137.4 115.049 137.4 115.026 137.4 115.002L137.438 101.846C137.438 101.931 137.423 102.009 137.415 102.094L137.423 102.118Z" fill="white" stroke="#0B1742" stroke-width="0.8" stroke-miterlimit="10"/>
<path d="M137.423 91.0121C137.415 91.0975 137.407 91.1908 137.392 91.2763C137.376 91.3462 137.353 91.4162 137.338 91.4939C137.314 91.5794 137.299 91.6649 137.268 91.7426C137.245 91.8125 137.214 91.8825 137.183 91.9446C137.144 92.0301 137.105 92.1234 137.059 92.2089C137.028 92.271 136.989 92.3332 136.95 92.3954C136.888 92.4964 136.826 92.5896 136.756 92.6907C136.717 92.7451 136.671 92.8072 136.624 92.8616C136.516 92.9938 136.4 93.1181 136.268 93.2424C136.221 93.2891 136.183 93.3357 136.128 93.3823C136.051 93.4523 135.958 93.5222 135.872 93.5921C135.795 93.6543 135.717 93.7165 135.64 93.7787C135.547 93.8486 135.438 93.9108 135.338 93.9807C135.229 94.0507 135.136 94.1206 135.02 94.1828L120.089 102.879C119.725 103.089 119.329 103.267 118.918 103.438C118.81 103.485 118.701 103.524 118.593 103.563C118.337 103.656 118.073 103.726 117.802 103.804C117.523 103.881 117.252 103.951 116.965 104.013C116.631 104.083 116.29 104.146 115.949 104.192C115.864 104.2 115.786 104.216 115.701 104.223C115.236 104.27 114.763 104.301 114.29 104.301C114.213 104.301 114.143 104.301 114.065 104.301C113.6 104.301 113.135 104.27 112.67 104.223C112.6 104.223 112.53 104.208 112.461 104.2C112.003 104.146 111.554 104.068 111.112 103.967C111.034 103.951 110.949 103.928 110.871 103.905C110.468 103.804 110.081 103.687 109.709 103.547C109.639 103.524 109.569 103.501 109.499 103.477C109.05 103.306 108.623 103.104 108.22 102.871L93.1886 94.175C92.3591 93.6932 91.7467 93.1414 91.3281 92.5508C90.9172 91.9602 90.7079 91.3307 90.7156 90.709L90.6769 103.866C90.6769 105.117 91.4986 106.376 93.1498 107.332L108.181 116.028C108.561 116.246 108.964 116.44 109.391 116.611C109.414 116.619 109.437 116.626 109.461 116.634C109.53 116.657 109.6 116.681 109.67 116.704C109.91 116.79 110.158 116.883 110.406 116.953C110.546 116.992 110.685 117.023 110.825 117.054C110.902 117.077 110.98 117.093 111.065 117.116C111.135 117.131 111.205 117.155 111.282 117.17C111.554 117.225 111.833 117.279 112.112 117.318C112.213 117.333 112.313 117.341 112.414 117.349C112.484 117.357 112.554 117.365 112.623 117.372C112.724 117.38 112.825 117.396 112.926 117.403C113.197 117.427 113.476 117.442 113.755 117.45C113.841 117.45 113.926 117.45 114.019 117.45C114.096 117.45 114.166 117.45 114.244 117.45C114.368 117.45 114.492 117.45 114.616 117.45C114.926 117.442 115.236 117.419 115.546 117.388C115.585 117.388 115.616 117.38 115.647 117.372C115.732 117.365 115.81 117.349 115.895 117.341C116.135 117.31 116.376 117.287 116.616 117.24C116.717 117.225 116.817 117.186 116.918 117.163C117.205 117.1 117.484 117.03 117.755 116.953C117.903 116.914 118.058 116.891 118.205 116.844C118.321 116.805 118.43 116.758 118.546 116.712C118.655 116.673 118.763 116.634 118.872 116.587C119.283 116.424 119.678 116.246 120.042 116.028L134.973 107.324C134.973 107.324 135.043 107.285 135.074 107.262C135.151 107.215 135.221 107.161 135.291 107.114C135.392 107.052 135.493 106.982 135.586 106.912C135.671 106.85 135.748 106.788 135.826 106.726C135.911 106.656 136.004 106.586 136.082 106.516C136.097 106.5 136.121 106.485 136.136 106.469C136.167 106.438 136.19 106.407 136.221 106.376C136.353 106.252 136.469 106.127 136.578 105.995C136.601 105.964 136.632 105.941 136.655 105.91C136.679 105.879 136.694 105.855 136.71 105.824C136.779 105.731 136.849 105.63 136.904 105.529C136.927 105.49 136.966 105.451 136.989 105.405C137.004 105.381 137.004 105.366 137.02 105.342C137.066 105.257 137.105 105.171 137.144 105.078C137.167 105.024 137.198 104.977 137.214 104.923C137.214 104.907 137.221 104.884 137.229 104.868C137.26 104.783 137.276 104.705 137.299 104.62C137.314 104.565 137.338 104.503 137.345 104.449C137.345 104.433 137.345 104.418 137.345 104.402C137.361 104.317 137.369 104.223 137.376 104.138C137.376 104.083 137.392 104.021 137.4 103.967C137.4 103.944 137.4 103.92 137.4 103.897L137.438 90.7401C137.438 90.8256 137.423 90.9033 137.415 90.9888L137.423 91.0121Z" fill="white" stroke="#0B1742" stroke-width="0.8" stroke-miterlimit="10"/>
<path d="M137.423 113.191C137.415 113.277 137.407 113.37 137.392 113.455C137.376 113.525 137.353 113.595 137.338 113.673C137.314 113.759 137.299 113.844 137.268 113.922C137.245 113.992 137.214 114.062 137.183 114.124C137.144 114.209 137.105 114.303 137.059 114.388C137.028 114.45 136.989 114.512 136.95 114.575C136.888 114.676 136.826 114.769 136.756 114.87C136.717 114.924 136.671 114.986 136.624 115.041C136.516 115.173 136.4 115.297 136.268 115.422C136.221 115.468 136.183 115.515 136.128 115.562C136.051 115.631 135.958 115.701 135.872 115.771C135.795 115.834 135.717 115.896 135.64 115.958C135.547 116.028 135.438 116.09 135.338 116.16C135.229 116.23 135.136 116.3 135.02 116.362L120.089 125.058C119.725 125.268 119.329 125.447 118.918 125.618C118.81 125.664 118.701 125.703 118.593 125.742C118.337 125.835 118.073 125.905 117.802 125.983C117.523 126.061 117.252 126.13 116.965 126.193C116.631 126.263 116.29 126.325 115.949 126.371C115.864 126.379 115.786 126.395 115.701 126.402C115.236 126.449 114.763 126.48 114.29 126.48C114.213 126.48 114.143 126.48 114.065 126.48C113.6 126.48 113.135 126.449 112.67 126.402C112.6 126.402 112.53 126.387 112.461 126.379C112.003 126.325 111.554 126.247 111.112 126.146C111.034 126.13 110.949 126.107 110.871 126.084C110.468 125.983 110.081 125.866 109.709 125.726C109.639 125.703 109.569 125.68 109.499 125.656C109.05 125.485 108.623 125.283 108.22 125.05L93.1886 116.354C92.3591 115.872 91.7467 115.321 91.3281 114.73C90.9172 114.139 90.7079 113.51 90.7156 112.888L90.6769 126.045C90.6769 127.296 91.4986 128.555 93.1498 129.511L108.181 138.207C108.561 138.425 108.964 138.619 109.391 138.79C109.414 138.798 109.437 138.806 109.461 138.813C109.53 138.837 109.6 138.86 109.67 138.883C109.91 138.969 110.158 139.062 110.406 139.132C110.546 139.171 110.685 139.202 110.825 139.233C110.902 139.256 110.98 139.272 111.065 139.295C111.135 139.311 111.205 139.334 111.282 139.35C111.554 139.404 111.833 139.458 112.112 139.497C112.213 139.513 112.313 139.52 112.414 139.528C112.484 139.536 112.554 139.544 112.623 139.552C112.724 139.559 112.825 139.575 112.926 139.583C113.197 139.606 113.476 139.621 113.755 139.629C113.841 139.629 113.926 139.629 114.019 139.629C114.096 139.629 114.166 139.629 114.244 139.629C114.368 139.629 114.492 139.629 114.616 139.629C114.926 139.621 115.236 139.598 115.546 139.567C115.585 139.567 115.616 139.559 115.647 139.552C115.732 139.544 115.81 139.528 115.895 139.52C116.135 139.489 116.376 139.466 116.616 139.419C116.717 139.404 116.817 139.365 116.918 139.342C117.205 139.28 117.484 139.21 117.755 139.132C117.903 139.093 118.058 139.07 118.205 139.023C118.321 138.984 118.43 138.938 118.546 138.891C118.655 138.852 118.763 138.813 118.872 138.767C119.283 138.603 119.678 138.425 120.042 138.207L134.973 129.503C134.973 129.503 135.043 129.464 135.074 129.441C135.151 129.394 135.221 129.34 135.291 129.293C135.392 129.231 135.493 129.161 135.586 129.091C135.671 129.029 135.748 128.967 135.826 128.905C135.911 128.835 136.004 128.765 136.082 128.695C136.097 128.679 136.121 128.664 136.136 128.648C136.167 128.617 136.19 128.586 136.221 128.555C136.353 128.431 136.469 128.306 136.578 128.174C136.601 128.143 136.632 128.12 136.655 128.089C136.679 128.058 136.694 128.034 136.71 128.003C136.779 127.91 136.849 127.809 136.904 127.708C136.927 127.669 136.966 127.63 136.989 127.584C137.004 127.56 137.004 127.545 137.02 127.522C137.066 127.436 137.105 127.351 137.144 127.257C137.167 127.203 137.198 127.156 137.214 127.102C137.214 127.086 137.221 127.063 137.229 127.048C137.26 126.962 137.276 126.884 137.299 126.799C137.314 126.744 137.338 126.682 137.345 126.628C137.345 126.612 137.345 126.597 137.345 126.581C137.361 126.496 137.369 126.402 137.376 126.317C137.376 126.263 137.392 126.2 137.4 126.146C137.4 126.123 137.4 126.099 137.4 126.076L137.438 112.919C137.438 113.005 137.423 113.082 137.415 113.168L137.423 113.191Z" fill="white" stroke="#0B1742" stroke-width="0.8" stroke-miterlimit="10"/>
<path d="M134.965 87.2974C138.244 89.1936 138.275 92.2788 135.012 94.175L120.081 102.871C116.817 104.767 111.507 104.767 108.22 102.871L93.1884 94.175C89.9092 92.2788 89.8859 89.1858 93.1496 87.2896L108.08 78.5935C111.344 76.6973 116.647 76.6973 119.934 78.5935L134.965 87.2896V87.2974Z" fill="white" stroke="#0B1742" stroke-width="0.8" stroke-miterlimit="10"/>
<path d="M97.53 101.643C98.344 102.117 99.0029 103.26 99.0029 104.192C99.0029 105.133 98.3362 105.513 97.5222 105.039C96.7082 104.573 96.0493 103.423 96.0571 102.483C96.0648 101.542 96.7238 101.169 97.5377 101.636L97.53 101.643Z" fill="#5F38FB"/>
<path d="M101.259 103.92C102.073 104.394 102.732 105.537 102.732 106.469C102.732 107.402 102.065 107.79 101.251 107.316C100.437 106.85 99.7783 105.7 99.786 104.76C99.7938 103.819 100.453 103.446 101.267 103.912L101.259 103.92Z" fill="#5F38FB"/>
<path d="M104.98 106.19C105.794 106.664 106.453 107.806 106.453 108.739C106.453 109.679 105.786 110.06 104.973 109.586C104.159 109.112 103.5 107.969 103.507 107.029C103.515 106.089 104.174 105.716 104.988 106.182L104.98 106.19Z" fill="#5F38FB"/>
<path d="M130.733 123.644C129.919 124.118 129.26 125.26 129.26 126.193C129.26 127.125 129.927 127.514 130.741 127.04C131.554 126.566 132.213 125.423 132.206 124.483C132.198 123.543 131.539 123.17 130.725 123.636L130.733 123.644Z" fill="#D0D9E3"/>
<path d="M127.004 125.913C126.19 126.387 125.531 127.529 125.531 128.462C125.531 129.394 126.198 129.783 127.012 129.309C127.826 128.843 128.485 127.693 128.477 126.752C128.469 125.812 127.81 125.439 126.996 125.905L127.004 125.913Z" fill="#D0D9E3"/>
<path d="M123.275 128.183C122.461 128.657 121.802 129.799 121.802 130.732C121.802 131.664 122.469 132.053 123.283 131.579C124.097 131.105 124.756 129.962 124.748 129.022C124.748 128.089 124.081 127.708 123.267 128.175L123.275 128.183Z" fill="#D0D9E3"/>
<path d="M102.034 126.278C102.848 126.752 103.507 127.895 103.507 128.827C103.507 129.76 102.84 130.148 102.026 129.674C101.212 129.2 100.553 128.058 100.561 127.118C100.561 126.185 101.228 125.804 102.042 126.27L102.034 126.278Z" fill="#D0D9E3"/>
<path d="M126.229 104.285C125.415 104.76 124.756 105.902 124.756 106.834C124.756 107.775 125.422 108.156 126.236 107.682C127.05 107.207 127.709 106.065 127.702 105.125C127.694 104.184 127.035 103.811 126.221 104.278L126.229 104.285Z" fill="#D0D9E3"/>
<path d="M167 121.464C166.992 121.55 166.984 121.643 166.969 121.728C166.953 121.798 166.93 121.868 166.915 121.946C166.891 122.032 166.876 122.117 166.845 122.195C166.822 122.265 166.791 122.335 166.76 122.397C166.721 122.482 166.682 122.576 166.636 122.661C166.605 122.723 166.566 122.785 166.527 122.848C166.465 122.949 166.403 123.042 166.333 123.143C166.294 123.197 166.248 123.259 166.201 123.314C166.093 123.446 165.977 123.57 165.845 123.695C165.798 123.741 165.76 123.788 165.705 123.834C165.628 123.904 165.535 123.974 165.449 124.044C165.372 124.106 165.294 124.169 165.217 124.231C165.124 124.301 165.015 124.363 164.915 124.433C164.806 124.503 164.713 124.573 164.597 124.635L149.666 133.331C149.302 133.541 148.906 133.72 148.495 133.891C148.387 133.937 148.278 133.976 148.17 134.015C147.914 134.108 147.65 134.178 147.379 134.256C147.1 134.333 146.829 134.403 146.542 134.466C146.208 134.536 145.867 134.598 145.526 134.644C145.441 134.652 145.363 134.668 145.278 134.675C144.813 134.722 144.34 134.753 143.867 134.753C143.79 134.753 143.72 134.753 143.642 134.753C143.177 134.753 142.712 134.722 142.247 134.675C142.177 134.675 142.107 134.66 142.038 134.652C141.58 134.598 141.131 134.52 140.689 134.419C140.611 134.403 140.526 134.38 140.449 134.357C140.045 134.256 139.658 134.139 139.286 133.999C139.216 133.976 139.146 133.953 139.076 133.929C138.627 133.758 138.2 133.556 137.797 133.323L122.766 124.627C121.936 124.145 121.324 123.594 120.905 123.003C120.494 122.412 120.285 121.783 120.293 121.161L120.254 134.318C120.254 135.569 121.076 136.828 122.727 137.784L137.758 146.48C138.138 146.698 138.541 146.892 138.968 147.063C138.991 147.071 139.014 147.078 139.038 147.086C139.107 147.11 139.177 147.133 139.247 147.156C139.487 147.242 139.735 147.335 139.983 147.405C140.123 147.444 140.262 147.475 140.402 147.506C140.48 147.529 140.557 147.545 140.642 147.568C140.712 147.584 140.782 147.607 140.859 147.622C141.131 147.677 141.41 147.731 141.689 147.77C141.79 147.786 141.89 147.793 141.991 147.801C142.061 147.809 142.131 147.817 142.201 147.824C142.301 147.832 142.402 147.848 142.503 147.856C142.774 147.879 143.053 147.894 143.332 147.902C143.418 147.902 143.503 147.902 143.596 147.902C143.673 147.902 143.743 147.902 143.821 147.902C143.945 147.902 144.069 147.902 144.193 147.902C144.503 147.894 144.813 147.871 145.123 147.84C145.162 147.84 145.193 147.832 145.224 147.824C145.309 147.817 145.387 147.801 145.472 147.793C145.712 147.762 145.953 147.739 146.193 147.692C146.294 147.677 146.394 147.638 146.495 147.615C146.782 147.552 147.061 147.483 147.332 147.405C147.48 147.366 147.635 147.343 147.782 147.296C147.898 147.257 148.007 147.211 148.123 147.164C148.232 147.125 148.34 147.086 148.449 147.04C148.86 146.876 149.255 146.698 149.619 146.48L164.55 137.776C164.55 137.776 164.62 137.737 164.651 137.714C164.729 137.667 164.798 137.613 164.868 137.566C164.969 137.504 165.07 137.434 165.163 137.364C165.248 137.302 165.325 137.24 165.403 137.178C165.488 137.108 165.581 137.038 165.659 136.968C165.674 136.952 165.698 136.937 165.713 136.921C165.744 136.89 165.767 136.859 165.798 136.828C165.93 136.704 166.046 136.579 166.155 136.447C166.178 136.416 166.209 136.393 166.232 136.362C166.256 136.331 166.271 136.307 166.287 136.276C166.357 136.183 166.426 136.082 166.481 135.981C166.504 135.942 166.543 135.903 166.566 135.857C166.581 135.833 166.581 135.818 166.597 135.795C166.643 135.709 166.682 135.624 166.721 135.53C166.744 135.476 166.775 135.429 166.791 135.375C166.791 135.359 166.798 135.336 166.806 135.32C166.837 135.235 166.853 135.157 166.876 135.072C166.891 135.017 166.915 134.955 166.922 134.901C166.922 134.885 166.922 134.87 166.922 134.854C166.938 134.769 166.946 134.675 166.953 134.59C166.953 134.536 166.969 134.473 166.977 134.419C166.977 134.396 166.977 134.372 166.977 134.349L167.015 121.192C167.015 121.278 167 121.355 166.992 121.441L167 121.464Z" fill="white" stroke="#0B1742" stroke-width="0.8" stroke-miterlimit="10"/>
<path d="M167 110.359C166.992 110.444 166.984 110.537 166.969 110.623C166.953 110.693 166.93 110.763 166.915 110.841C166.891 110.926 166.876 111.012 166.845 111.089C166.822 111.159 166.791 111.229 166.76 111.291C166.721 111.377 166.682 111.47 166.636 111.556C166.605 111.618 166.566 111.68 166.527 111.742C166.465 111.843 166.403 111.936 166.333 112.037C166.294 112.092 166.248 112.154 166.201 112.208C166.093 112.34 165.977 112.465 165.845 112.589C165.798 112.636 165.76 112.682 165.705 112.729C165.628 112.799 165.535 112.869 165.449 112.939C165.372 113.001 165.294 113.063 165.217 113.125C165.124 113.195 165.015 113.257 164.915 113.327C164.806 113.397 164.713 113.467 164.597 113.529L149.666 122.226C149.302 122.435 148.906 122.614 148.495 122.785C148.387 122.832 148.278 122.871 148.17 122.909C147.914 123.003 147.65 123.073 147.379 123.15C147.1 123.228 146.829 123.298 146.542 123.36C146.208 123.43 145.867 123.492 145.526 123.539C145.441 123.547 145.363 123.562 145.278 123.57C144.813 123.617 144.34 123.648 143.867 123.648C143.79 123.648 143.72 123.648 143.642 123.648C143.177 123.648 142.712 123.617 142.247 123.57C142.177 123.57 142.107 123.554 142.038 123.547C141.58 123.492 141.131 123.415 140.689 123.314C140.611 123.298 140.526 123.275 140.449 123.251C140.045 123.15 139.658 123.034 139.286 122.894C139.216 122.871 139.146 122.847 139.076 122.824C138.627 122.653 138.2 122.451 137.797 122.218L122.766 113.522C121.936 113.04 121.324 112.488 120.905 111.897C120.494 111.307 120.285 110.677 120.293 110.056L120.254 123.212C120.254 124.464 121.076 125.723 122.727 126.678L137.758 135.375C138.138 135.592 138.541 135.786 138.968 135.957C138.991 135.965 139.014 135.973 139.038 135.981C139.107 136.004 139.177 136.027 139.247 136.051C139.487 136.136 139.735 136.229 139.983 136.299C140.123 136.338 140.262 136.369 140.402 136.4C140.48 136.424 140.557 136.439 140.642 136.463C140.712 136.478 140.782 136.501 140.859 136.517C141.131 136.571 141.41 136.626 141.689 136.665C141.79 136.68 141.89 136.688 141.991 136.696C142.061 136.703 142.131 136.711 142.201 136.719C142.301 136.727 142.402 136.742 142.503 136.75C142.774 136.773 143.053 136.789 143.332 136.797C143.418 136.797 143.503 136.797 143.596 136.797C143.673 136.797 143.743 136.797 143.821 136.797C143.945 136.797 144.069 136.797 144.193 136.797C144.503 136.789 144.813 136.766 145.123 136.735C145.162 136.735 145.193 136.727 145.224 136.719C145.309 136.711 145.387 136.696 145.472 136.688C145.712 136.657 145.953 136.634 146.193 136.587C146.294 136.571 146.394 136.533 146.495 136.509C146.782 136.447 147.061 136.377 147.332 136.299C147.48 136.261 147.635 136.237 147.782 136.191C147.898 136.152 148.007 136.105 148.123 136.058C148.232 136.02 148.34 135.981 148.449 135.934C148.86 135.771 149.255 135.592 149.619 135.375L164.55 126.671C164.55 126.671 164.62 126.632 164.651 126.609C164.729 126.562 164.798 126.508 164.868 126.461C164.969 126.399 165.07 126.329 165.163 126.259C165.248 126.197 165.325 126.135 165.403 126.072C165.488 126.002 165.581 125.932 165.659 125.863C165.674 125.847 165.698 125.831 165.713 125.816C165.744 125.785 165.767 125.754 165.798 125.723C165.93 125.598 166.046 125.474 166.155 125.342C166.178 125.311 166.209 125.287 166.232 125.256C166.256 125.225 166.271 125.202 166.287 125.171C166.357 125.078 166.426 124.977 166.481 124.876C166.504 124.837 166.543 124.798 166.566 124.751C166.581 124.728 166.581 124.712 166.597 124.689C166.643 124.604 166.682 124.518 166.721 124.425C166.744 124.37 166.775 124.324 166.791 124.269C166.791 124.254 166.798 124.231 166.806 124.215C166.837 124.13 166.853 124.052 166.876 123.966C166.891 123.912 166.915 123.85 166.922 123.795C166.922 123.78 166.922 123.764 166.922 123.749C166.938 123.663 166.946 123.57 166.953 123.484C166.953 123.43 166.969 123.368 166.977 123.314C166.977 123.29 166.977 123.267 166.977 123.244L167.015 110.087C167.015 110.172 167 110.25 166.992 110.335L167 110.359Z" fill="white" stroke="#0B1742" stroke-width="0.8" stroke-miterlimit="10"/>
<path d="M167 132.538C166.992 132.623 166.984 132.717 166.969 132.802C166.953 132.872 166.93 132.942 166.915 133.02C166.891 133.105 166.876 133.191 166.845 133.268C166.822 133.338 166.791 133.408 166.76 133.47C166.721 133.556 166.682 133.649 166.636 133.735C166.605 133.797 166.566 133.859 166.527 133.921C166.465 134.022 166.403 134.116 166.333 134.217C166.294 134.271 166.248 134.333 166.201 134.388C166.093 134.52 165.977 134.644 165.845 134.768C165.798 134.815 165.76 134.862 165.705 134.908C165.628 134.978 165.535 135.048 165.449 135.118C165.372 135.18 165.294 135.242 165.217 135.305C165.124 135.374 165.015 135.437 164.915 135.507C164.806 135.577 164.713 135.646 164.597 135.709L149.666 144.405C149.302 144.615 148.906 144.793 148.495 144.964C148.387 145.011 148.278 145.05 148.17 145.089C147.914 145.182 147.65 145.252 147.379 145.33C147.1 145.407 146.829 145.477 146.542 145.539C146.208 145.609 145.867 145.671 145.526 145.718C145.441 145.726 145.363 145.741 145.278 145.749C144.813 145.796 144.34 145.827 143.867 145.827C143.79 145.827 143.72 145.827 143.642 145.827C143.177 145.827 142.712 145.796 142.247 145.749C142.177 145.749 142.107 145.734 142.038 145.726C141.58 145.671 141.131 145.594 140.689 145.493C140.611 145.477 140.526 145.454 140.449 145.431C140.045 145.33 139.658 145.213 139.286 145.073C139.216 145.05 139.146 145.026 139.076 145.003C138.627 144.832 138.2 144.63 137.797 144.397L122.766 135.701C121.936 135.219 121.324 134.667 120.905 134.077C120.494 133.486 120.285 132.857 120.293 132.235L120.254 145.392C120.254 146.643 121.076 147.902 122.727 148.858L137.758 157.554C138.138 157.771 138.541 157.966 138.968 158.137C138.991 158.144 139.014 158.152 139.038 158.16C139.107 158.183 139.177 158.207 139.247 158.23C139.487 158.315 139.735 158.409 139.983 158.479C140.123 158.517 140.262 158.549 140.402 158.58C140.48 158.603 140.557 158.618 140.642 158.642C140.712 158.657 140.782 158.681 140.859 158.696C141.131 158.751 141.41 158.805 141.689 158.844C141.79 158.859 141.89 158.867 141.991 158.875C142.061 158.883 142.131 158.89 142.201 158.898C142.301 158.906 142.402 158.922 142.503 158.929C142.774 158.953 143.053 158.968 143.332 158.976C143.418 158.976 143.503 158.976 143.596 158.976C143.673 158.976 143.743 158.976 143.821 158.976C143.945 158.976 144.069 158.976 144.193 158.976C144.503 158.968 144.813 158.945 145.123 158.914C145.162 158.914 145.193 158.906 145.224 158.898C145.309 158.89 145.387 158.875 145.472 158.867C145.712 158.836 145.953 158.813 146.193 158.766C146.294 158.751 146.394 158.712 146.495 158.688C146.782 158.626 147.061 158.556 147.332 158.479C147.48 158.44 147.635 158.416 147.782 158.37C147.898 158.331 148.007 158.284 148.123 158.238C148.232 158.199 148.34 158.16 148.449 158.113C148.86 157.95 149.255 157.771 149.619 157.554L164.55 148.85C164.55 148.85 164.62 148.811 164.651 148.788C164.729 148.741 164.798 148.687 164.868 148.64C164.969 148.578 165.07 148.508 165.163 148.438C165.248 148.376 165.325 148.314 165.403 148.252C165.488 148.182 165.581 148.112 165.659 148.042C165.674 148.026 165.698 148.011 165.713 147.995C165.744 147.964 165.767 147.933 165.798 147.902C165.93 147.777 166.046 147.653 166.155 147.521C166.178 147.49 166.209 147.467 166.232 147.436C166.256 147.404 166.271 147.381 166.287 147.35C166.357 147.257 166.426 147.156 166.481 147.055C166.504 147.016 166.543 146.977 166.566 146.93C166.581 146.907 166.581 146.892 166.597 146.868C166.643 146.783 166.682 146.697 166.721 146.604C166.744 146.55 166.775 146.503 166.791 146.449C166.791 146.433 166.798 146.41 166.806 146.394C166.837 146.309 166.853 146.231 166.876 146.146C166.891 146.091 166.915 146.029 166.922 145.975C166.922 145.959 166.922 145.943 166.922 145.928C166.938 145.842 166.946 145.749 166.953 145.664C166.953 145.609 166.969 145.547 166.977 145.493C166.977 145.469 166.977 145.446 166.977 145.423L167.015 132.266C167.015 132.351 167 132.429 166.992 132.515L167 132.538Z" fill="white" stroke="#0B1742" stroke-width="0.8" stroke-miterlimit="10"/>
<path d="M164.543 106.644C167.822 108.54 167.853 111.625 164.589 113.522L149.658 122.218C146.395 124.114 141.084 124.114 137.798 122.218L122.766 113.522C119.487 111.625 119.463 108.533 122.727 106.636L137.658 97.9402C140.922 96.044 146.224 96.044 149.511 97.9402L164.543 106.636V106.644Z" fill="white" stroke="#0B1742" stroke-width="0.8" stroke-miterlimit="10"/>
<path d="M127.107 120.99C127.921 121.464 128.58 122.606 128.58 123.539C128.58 124.479 127.913 124.86 127.099 124.386C126.285 123.92 125.626 122.77 125.634 121.829C125.642 120.889 126.301 120.516 127.115 120.982L127.107 120.99Z" fill="#5F38FB"/>
<path d="M130.836 123.267C131.65 123.741 132.309 124.883 132.309 125.816C132.309 126.748 131.642 127.137 130.828 126.663C130.014 126.197 129.355 125.047 129.363 124.106C129.371 123.166 130.029 122.793 130.843 123.259L130.836 123.267Z" fill="#5F38FB"/>
<path d="M134.557 125.536C135.371 126.011 136.03 127.153 136.03 128.085C136.03 129.026 135.363 129.407 134.549 128.933C133.735 128.458 133.076 127.316 133.084 126.376C133.092 125.435 133.751 125.062 134.565 125.529L134.557 125.536Z" fill="#5F38FB"/>
<path d="M160.31 142.991C159.496 143.465 158.837 144.607 158.837 145.54C158.837 146.472 159.504 146.861 160.318 146.387C161.132 145.913 161.791 144.77 161.783 143.83C161.775 142.89 161.116 142.516 160.302 142.983L160.31 142.991Z" fill="#D0D9E3"/>
<path d="M156.581 145.26C155.767 145.734 155.108 146.876 155.108 147.809C155.108 148.741 155.775 149.13 156.589 148.656C157.403 148.189 158.062 147.039 158.054 146.099C158.046 145.159 157.387 144.786 156.573 145.252L156.581 145.26Z" fill="#D0D9E3"/>
<path d="M152.852 147.529C152.039 148.003 151.38 149.146 151.38 150.078C151.38 151.011 152.046 151.399 152.86 150.925C153.674 150.451 154.333 149.309 154.325 148.368C154.325 147.436 153.659 147.055 152.845 147.521L152.852 147.529Z" fill="#D0D9E3"/>
<path d="M131.611 145.625C132.425 146.099 133.084 147.241 133.084 148.174C133.084 149.106 132.417 149.495 131.603 149.021C130.789 148.547 130.13 147.405 130.138 146.464C130.138 145.532 130.805 145.151 131.619 145.617L131.611 145.625Z" fill="#D0D9E3"/>
<path d="M155.806 123.632C154.992 124.106 154.333 125.249 154.333 126.181C154.333 127.121 154.999 127.502 155.813 127.028C156.627 126.554 157.286 125.412 157.279 124.471C157.271 123.531 156.612 123.158 155.798 123.624L155.806 123.632Z" fill="#D0D9E3"/>
<path d="M247.894 120.93L158.928 179.272C151.33 183.817 136.657 184.18 128.212 179.272L20.8445 116.876C12.4055 111.975 12.4423 103.997 20.9428 99.083L90.0949 56.9493C95.6779 53.5405 102.692 53.5221 108.293 56.894L161.083 88.697C169.16 93.5614 179.282 93.5184 187.316 88.5803L220.163 69.0489C224.775 66.1991 223.553 59.3262 218.062 55.7332L186.824 36.4106L176.094 42.006L205.987 60.1431C209.242 61.7032 209.402 64.3688 206.872 66.2236L184.601 79.5148C179.036 83.0403 171.414 83.8019 166.617 80.9336L112.642 48.6454C104.313 43.6643 93.9213 43.6704 85.599 48.6577L11.5456 93.629C-2.16323 101.546 -2.23693 114.426 11.3859 122.343L118.753 184.739C132.376 192.655 151.877 194.67 168.337 184.739L257.334 126.378L247.894 120.93Z" stroke="#4D4F57" stroke-width="0.8" stroke-linejoin="round"/>
<path d="M143.935 188.995C135.576 188.995 127.069 186.728 119.987 182.613L12.6202 120.217C6.84679 116.864 3.66527 112.534 3.67141 108.038C3.67755 103.505 6.90821 99.1382 12.7738 95.754L86.8763 50.7643C90.5737 48.547 94.8117 47.3739 99.1356 47.3739C103.46 47.3739 107.685 48.5409 111.383 50.7581L165.358 83.0463C167.661 84.4221 170.554 85.153 173.717 85.153C177.894 85.153 182.328 83.8632 185.884 81.6152L208.223 68.2811L208.315 68.2135C210.231 66.807 211.226 64.8785 211.048 62.9192C210.937 61.7338 210.286 59.535 207.16 57.9933L180.019 41.4224L185.645 38.4927L216.735 57.8214C219.075 59.363 220.568 61.7706 220.543 63.9633C220.525 65.2838 219.966 66.2972 218.873 66.9729L186.062 86.4858C182.445 88.7092 178.317 89.8762 174.104 89.8762C169.891 89.8762 165.898 88.746 162.355 86.6086L109.565 54.8057C106.451 52.9262 102.882 51.9374 99.2462 51.9374C95.6101 51.9374 91.9618 52.9508 88.8233 54.8671L19.665 96.9885C14.8006 99.7954 12.092 103.72 12.0859 108.007C12.0859 112.27 14.7515 116.176 19.6097 119.001L126.977 181.397C131.283 183.897 137.166 185.273 143.56 185.273C149.954 185.273 156.053 183.854 160.186 181.379L160.272 181.324L247.973 123.81L252.647 126.507L167.022 182.656C160.137 186.802 152.153 188.989 143.935 188.989V188.995Z" fill="url(#paint0_linear_4342_4238)"/>
<path d="M143.935 188.995C135.576 188.995 127.069 186.728 119.987 182.613L12.6202 120.217C6.84679 116.864 3.66527 112.534 3.67141 108.038C3.67755 103.505 6.90821 99.1382 12.7738 95.754L86.8763 50.7643C90.5737 48.547 94.8117 47.3739 99.1356 47.3739C103.46 47.3739 107.685 48.5409 111.383 50.7581L165.358 83.0463C167.661 84.4221 170.554 85.153 173.717 85.153C177.894 85.153 182.328 83.8632 185.884 81.6152L208.223 68.2811L208.315 68.2135C210.231 66.807 211.226 64.8785 211.048 62.9192C210.937 61.7338 210.286 59.535 207.16 57.9933L180.019 41.4224L185.645 38.4927L216.735 57.8214C219.075 59.363 220.568 61.7706 220.543 63.9633C220.525 65.2838 219.966 66.2972 218.873 66.9729L186.062 86.4858C182.445 88.7092 178.317 89.8762 174.104 89.8762C169.891 89.8762 165.898 88.746 162.355 86.6086L109.565 54.8057C106.451 52.9262 102.882 51.9374 99.2462 51.9374C95.6101 51.9374 91.9618 52.9508 88.8233 54.8671L19.665 96.9885C14.8006 99.7954 12.092 103.72 12.0859 108.007C12.0859 112.27 14.7515 116.176 19.6097 119.001L126.977 181.397C131.283 183.897 137.166 185.273 143.56 185.273C149.954 185.273 156.053 183.854 160.186 181.379L160.272 181.324L247.973 123.81L252.647 126.507L167.022 182.656C160.137 186.802 152.153 188.989 143.935 188.989V188.995Z" fill="#343638"/>
<path d="M192.131 23.8688C192.131 23.9486 192.119 24.0346 192.112 24.1144C192.106 24.2004 192.1 24.2925 192.082 24.3785C192.069 24.4522 192.045 24.5198 192.026 24.5935C192.002 24.6795 191.983 24.7593 191.953 24.8453C191.928 24.9129 191.897 24.9804 191.867 25.048C191.83 25.134 191.793 25.22 191.744 25.3121C191.713 25.3735 191.67 25.4349 191.633 25.4964C191.572 25.5946 191.51 25.6929 191.437 25.7912C191.394 25.8465 191.345 25.9017 191.302 25.9632C191.191 26.0921 191.074 26.2211 190.945 26.344C190.896 26.387 190.853 26.4361 190.804 26.4791C190.724 26.5528 190.632 26.6203 190.546 26.694C190.466 26.7555 190.393 26.8169 190.313 26.8783C190.221 26.9459 190.116 27.0134 190.012 27.081C189.907 27.1486 189.809 27.2223 189.692 27.2837L178.225 33.9477C177.974 34.0951 177.71 34.2241 177.433 34.3469C177.353 34.3838 177.273 34.4145 177.194 34.4513C176.979 34.5434 176.758 34.6233 176.53 34.7031C176.45 34.7277 176.371 34.7584 176.291 34.7891C176.15 34.8321 176.002 34.8751 175.861 34.912C175.75 34.9427 175.64 34.9734 175.529 34.998C175.376 35.0348 175.222 35.0655 175.062 35.0962C174.958 35.1146 174.854 35.1392 174.743 35.1576C174.43 35.2129 174.11 35.2559 173.785 35.2928C173.687 35.305 173.582 35.3112 173.484 35.3173C173.294 35.3358 173.109 35.348 172.919 35.3542C172.796 35.3542 172.673 35.3603 172.556 35.3665C172.403 35.3665 172.249 35.3665 172.096 35.3665C171.967 35.3665 171.838 35.3665 171.709 35.3542C171.568 35.3542 171.426 35.3419 171.285 35.3296C171.156 35.3235 171.027 35.3112 170.898 35.2989C170.757 35.2866 170.616 35.2682 170.474 35.2498C170.352 35.2313 170.223 35.2191 170.1 35.1945C169.952 35.1699 169.799 35.1454 169.651 35.1146C169.535 35.0901 169.418 35.0717 169.301 35.0471C169.123 35.0102 168.951 34.9672 168.779 34.9181C168.681 34.8935 168.589 34.869 168.491 34.8383C168.183 34.7461 167.882 34.6479 167.588 34.5312C167.446 34.4759 167.305 34.4145 167.164 34.353C167.09 34.3223 167.016 34.2916 166.943 34.2548C166.734 34.1565 166.525 34.0459 166.329 33.9354L154.788 27.2714C153.338 26.4361 152.528 25.3735 152.349 24.2803C152.325 24.1267 152.313 23.967 152.313 23.8135L152.288 33.4993C152.288 34.7523 153.111 36.0052 154.763 36.9572L166.304 43.6212C166.501 43.7379 166.709 43.8423 166.918 43.9406C166.986 43.9713 167.066 44.002 167.133 44.0327C167.256 44.088 167.385 44.1494 167.514 44.1986C167.526 44.1986 167.545 44.2109 167.563 44.217C167.858 44.3276 168.159 44.432 168.466 44.5241C168.491 44.5302 168.515 44.5425 168.54 44.5487C168.607 44.5671 168.681 44.5855 168.755 44.6039C168.927 44.6469 169.099 44.6961 169.277 44.7329C169.326 44.7452 169.369 44.7575 169.418 44.7698C169.485 44.7821 169.559 44.7943 169.627 44.8066C169.774 44.8373 169.922 44.8619 170.069 44.8865C170.13 44.8988 170.186 44.911 170.247 44.9172C170.315 44.9295 170.382 44.9295 170.444 44.9418C170.585 44.9602 170.72 44.9725 170.861 44.9909C170.929 44.997 170.996 45.0093 171.064 45.0155C171.125 45.0155 171.193 45.0155 171.254 45.0277C171.396 45.04 171.537 45.0462 171.678 45.0523C171.752 45.0523 171.819 45.0646 171.893 45.0646C171.948 45.0646 172.01 45.0646 172.065 45.0646C172.219 45.0646 172.372 45.0646 172.526 45.0646C172.599 45.0646 172.679 45.0646 172.753 45.0646C172.796 45.0646 172.845 45.0585 172.888 45.0585C173.079 45.0523 173.269 45.0339 173.459 45.0216C173.533 45.0155 173.613 45.0155 173.687 45.0093C173.711 45.0093 173.73 45.0032 173.754 44.997C174.074 44.9663 174.393 44.9172 174.712 44.8619C174.731 44.8619 174.743 44.8619 174.761 44.8558C174.854 44.8373 174.94 44.8189 175.032 44.8005C175.185 44.7698 175.345 44.7391 175.498 44.7022C175.609 44.6777 175.72 44.6408 175.83 44.6162C175.978 44.5794 176.119 44.5364 176.266 44.4934C176.297 44.4811 176.328 44.475 176.358 44.4688C176.407 44.4504 176.457 44.432 176.506 44.4135C176.733 44.3337 176.954 44.2539 177.169 44.1617C177.249 44.131 177.329 44.0942 177.409 44.0573C177.685 43.9345 177.949 43.8055 178.201 43.6581L189.668 36.9941C189.705 36.9757 189.735 36.9511 189.772 36.9327C189.852 36.8835 189.914 36.8344 189.987 36.7914C190.092 36.7238 190.196 36.6563 190.288 36.5887C190.374 36.5273 190.448 36.4659 190.522 36.4045C190.608 36.3369 190.7 36.2632 190.78 36.1895C190.798 36.1772 190.816 36.1588 190.829 36.1465C190.859 36.1158 190.884 36.0851 190.915 36.0544C191.044 35.9315 191.16 35.8025 191.271 35.6736C191.296 35.6429 191.326 35.6183 191.351 35.5876C191.375 35.5569 191.388 35.5323 191.406 35.5016C191.48 35.4033 191.541 35.305 191.603 35.2068C191.627 35.1638 191.664 35.1269 191.682 35.0839C191.695 35.0655 191.701 35.0409 191.713 35.0225C191.762 34.9365 191.799 34.8505 191.836 34.7584C191.861 34.7093 191.885 34.6601 191.91 34.6049C191.916 34.5864 191.916 34.568 191.922 34.5557C191.953 34.4697 191.971 34.3899 191.996 34.3039C192.008 34.2486 192.033 34.1934 192.045 34.1319C192.045 34.1197 192.045 34.1012 192.045 34.0889C192.063 34.003 192.069 33.9108 192.076 33.8248C192.076 33.7696 192.094 33.7081 192.094 33.6529C192.094 33.6283 192.094 33.6037 192.094 33.5792L192.119 23.8933L192.131 23.8688Z" fill="#F9FAFB" stroke="#0B1742" stroke-width="0.8" stroke-linejoin="round"/>
<path d="M189.649 20.3986C192.942 22.3027 192.966 25.3798 189.699 27.2776L178.232 33.9416C174.958 35.8456 169.639 35.8456 166.347 33.9416L154.806 27.2776C151.514 25.3736 151.502 22.2965 154.776 20.3986L166.243 13.7346C169.516 11.8306 174.823 11.8306 178.115 13.7346L189.656 20.3986H189.649Z" fill="white" stroke="#0B1742" stroke-width="0.8" stroke-linejoin="round"/>
<path d="M73.1246 65.1061C73.1246 65.1859 73.1123 65.2719 73.1062 65.3517C73.1 65.4377 73.0939 65.5299 73.0755 65.6158C73.0632 65.6895 73.0386 65.7571 73.0202 65.8308C72.9956 65.9168 72.9772 65.9966 72.9465 66.0826C72.9219 66.1502 72.8912 66.2177 72.8605 66.2853C72.8237 66.3713 72.7868 66.4573 72.7377 66.5494C72.707 66.6108 72.664 66.6723 72.6271 66.7337C72.5657 66.8319 72.5043 66.9302 72.4306 67.0285C72.3876 67.0838 72.3384 67.139 72.2954 67.2005C72.1849 67.3294 72.0682 67.4584 71.9392 67.5813C71.8901 67.6243 71.8471 67.6734 71.7979 67.7164C71.7181 67.7901 71.626 67.8576 71.54 67.9313C71.4601 67.9928 71.3864 68.0542 71.3066 68.1156C71.2145 68.1832 71.1101 68.2507 71.0056 68.3183C70.9012 68.3859 70.803 68.4596 70.6863 68.521L59.2193 75.185C58.9674 75.3324 58.7033 75.4614 58.4269 75.5842C58.3471 75.6211 58.2673 75.6518 58.1874 75.6886C57.9724 75.7808 57.7513 75.8606 57.5241 75.9404C57.4442 75.965 57.3644 75.9957 57.2845 76.0264C57.1433 76.0694 56.9959 76.1124 56.8546 76.1493C56.7441 76.18 56.6335 76.2107 56.5229 76.2353C56.3694 76.2721 56.2158 76.3028 56.0562 76.3335C55.9517 76.352 55.8473 76.3765 55.7368 76.3949C55.4235 76.4502 55.1042 76.4932 54.7786 76.5301C54.6804 76.5424 54.5759 76.5485 54.4777 76.5546C54.2873 76.5731 54.103 76.5853 53.9126 76.5915C53.7898 76.5915 53.6669 76.5976 53.5502 76.6038C53.3967 76.6038 53.2431 76.6038 53.0896 76.6038C52.9606 76.6038 52.8316 76.6038 52.7027 76.5915C52.5614 76.5915 52.4201 76.5792 52.2789 76.5669C52.1499 76.5608 52.0209 76.5485 51.8919 76.5362C51.7507 76.5239 51.6094 76.5055 51.4681 76.4871C51.3453 76.4686 51.2163 76.4564 51.0935 76.4318C50.9461 76.4072 50.7925 76.3827 50.6451 76.3519C50.5284 76.3274 50.4117 76.309 50.295 76.2844C50.1169 76.2475 49.9449 76.2045 49.7729 76.1554C49.6747 76.1308 49.5825 76.1063 49.4843 76.0756C49.1772 75.9834 48.8762 75.8852 48.5814 75.7685C48.4402 75.7132 48.2989 75.6518 48.1576 75.5904C48.0839 75.5596 48.0102 75.5289 47.9365 75.4921C47.7277 75.3938 47.5189 75.2833 47.3223 75.1727L35.7816 68.5087C34.3321 67.6734 33.5214 66.6108 33.3433 65.5176C33.3187 65.364 33.3064 65.2043 33.3064 65.0508L33.2818 74.7366C33.2818 75.9896 34.1049 77.2425 35.757 78.1945L47.2977 84.8585C47.4943 84.9752 47.7031 85.0797 47.9119 85.1779C47.9795 85.2086 48.0593 85.2393 48.1269 85.2701C48.2497 85.3253 48.3787 85.3867 48.5077 85.4359C48.52 85.4359 48.5384 85.4482 48.5568 85.4543C48.8517 85.5649 49.1526 85.6693 49.4597 85.7614C49.4843 85.7675 49.5088 85.7798 49.5334 85.786C49.601 85.8044 49.6747 85.8228 49.7484 85.8413C49.9204 85.8842 50.0923 85.9334 50.2704 85.9702C50.3196 85.9825 50.3626 85.9948 50.4117 86.0071C50.4793 86.0194 50.553 86.0317 50.6205 86.0439C50.7679 86.0746 50.9154 86.0992 51.0628 86.1238C51.1242 86.1361 51.1795 86.1484 51.2409 86.1545C51.3084 86.1668 51.376 86.1668 51.4374 86.1791C51.5787 86.1975 51.7138 86.2098 51.8551 86.2282C51.9226 86.2343 51.9902 86.2466 52.0578 86.2528C52.1192 86.2528 52.1867 86.2528 52.2481 86.265C52.3894 86.2773 52.5307 86.2835 52.6719 86.2896C52.7456 86.2896 52.8132 86.3019 52.8869 86.3019C52.9422 86.3019 53.0036 86.3019 53.0589 86.3019C53.2124 86.3019 53.366 86.3019 53.5195 86.3019C53.5932 86.3019 53.6731 86.3019 53.7468 86.3019C53.7898 86.3019 53.8389 86.2958 53.8819 86.2958C54.0723 86.2896 54.2627 86.2712 54.4531 86.2589C54.5268 86.2528 54.6067 86.2528 54.6804 86.2466C54.7049 86.2466 54.7234 86.2405 54.7479 86.2343C55.0673 86.2036 55.3867 86.1545 55.7061 86.0992C55.7245 86.0992 55.7368 86.0992 55.7552 86.0931C55.8473 86.0746 55.9333 86.0562 56.0254 86.0378C56.179 86.0071 56.3387 85.9764 56.4922 85.9395C56.6028 85.915 56.7133 85.8781 56.8239 85.8535C56.9713 85.8167 57.1126 85.7737 57.26 85.7307C57.2907 85.7184 57.3214 85.7123 57.3521 85.7061C57.4012 85.6877 57.4504 85.6693 57.4995 85.6509C57.7268 85.571 57.9479 85.4912 58.1628 85.399C58.2427 85.3683 58.3225 85.3315 58.4024 85.2946C58.6788 85.1718 58.9429 85.0428 59.1947 84.8954L70.6617 78.2314C70.6985 78.213 70.7293 78.1884 70.7661 78.17C70.8459 78.1208 70.9074 78.0717 70.9811 78.0287C71.0855 77.9611 71.1899 77.8936 71.282 77.826C71.368 77.7646 71.4417 77.7032 71.5154 77.6418C71.6014 77.5742 71.6935 77.5005 71.7734 77.4268C71.7918 77.4145 71.8102 77.3961 71.8225 77.3838C71.8532 77.3531 71.8778 77.3224 71.9085 77.2917C72.0375 77.1688 72.1542 77.0398 72.2647 76.9109C72.2893 76.8802 72.32 76.8556 72.3446 76.8249C72.3691 76.7942 72.3814 76.7696 72.3999 76.7389C72.4736 76.6406 72.535 76.5424 72.5964 76.4441C72.621 76.4011 72.6578 76.3642 72.6762 76.3212C72.6885 76.3028 72.6947 76.2783 72.707 76.2598C72.7561 76.1738 72.7929 76.0878 72.8298 75.9957C72.8544 75.9466 72.8789 75.8974 72.9035 75.8422C72.9096 75.8237 72.9096 75.8053 72.9158 75.793C72.9465 75.707 72.9649 75.6272 72.9895 75.5412C73.0018 75.4859 73.0263 75.4307 73.0386 75.3692C73.0386 75.357 73.0386 75.3385 73.0386 75.3262C73.057 75.2403 73.0632 75.1481 73.0693 75.0621C73.0693 75.0069 73.0878 74.9454 73.0878 74.8902C73.0878 74.8656 73.0878 74.841 73.0878 74.8165L73.1123 65.1306L73.1246 65.1061Z" fill="#121416" stroke="#4B4D4E" stroke-width="0.8" stroke-linejoin="round"/>
<path d="M70.6373 61.6355C73.9294 63.5395 73.9539 66.6166 70.6864 68.5144L59.2194 75.1784C55.9458 77.0824 50.6268 77.0824 47.3347 75.1784L35.794 68.5144C32.502 66.6104 32.4897 63.5333 35.7633 61.6355L47.2303 54.9715C50.504 53.0675 55.8106 53.0675 59.1027 54.9715L70.6434 61.6355H70.6373Z" fill="#121416" stroke="#4B4D4E" stroke-width="0.8" stroke-linejoin="round"/>
<path d="M94.2837 144.14C94.2837 144.22 94.2715 144.306 94.2653 144.386C94.2592 144.472 94.253 144.564 94.2346 144.65C94.2223 144.724 94.1977 144.791 94.1793 144.865C94.1548 144.951 94.1363 145.031 94.1056 145.117C94.0811 145.184 94.0503 145.252 94.0196 145.319C93.9828 145.405 93.9459 145.491 93.8968 145.584C93.8661 145.645 93.8231 145.706 93.7862 145.768C93.7248 145.866 93.6634 145.964 93.5897 146.063C93.5467 146.118 93.4976 146.173 93.4546 146.235C93.344 146.364 93.2273 146.493 93.0983 146.615C93.0492 146.658 93.0062 146.708 92.9571 146.751C92.8772 146.824 92.7851 146.892 92.6991 146.966C92.6193 147.027 92.5456 147.088 92.4657 147.15C92.3736 147.217 92.2692 147.285 92.1648 147.352C92.0604 147.42 91.9621 147.494 91.8454 147.555L80.3784 154.219C80.1266 154.367 79.8625 154.496 79.5861 154.618C79.5062 154.655 79.4264 154.686 79.3465 154.723C79.1316 154.815 78.9105 154.895 78.6832 154.975C78.6034 154.999 78.5235 155.03 78.4437 155.061C78.3024 155.104 78.155 155.147 78.0137 155.183C77.9032 155.214 77.7926 155.245 77.6821 155.269C77.5285 155.306 77.375 155.337 77.2153 155.368C77.1109 155.386 77.0065 155.411 76.8959 155.429C76.5827 155.484 76.2633 155.527 75.9378 155.564C75.8395 155.577 75.7351 155.583 75.6368 155.589C75.4464 155.607 75.2621 155.62 75.0717 155.626C74.9489 155.626 74.8261 155.632 74.7094 155.638C74.5558 155.638 74.4023 155.638 74.2487 155.638C74.1197 155.638 73.9908 155.638 73.8618 155.626C73.7205 155.626 73.5792 155.613 73.438 155.601C73.309 155.595 73.18 155.583 73.051 155.57C72.9098 155.558 72.7685 155.54 72.6272 155.521C72.5044 155.503 72.3754 155.491 72.2526 155.466C72.1052 155.441 71.9516 155.417 71.8042 155.386C71.6875 155.362 71.5708 155.343 71.4541 155.319C71.276 155.282 71.104 155.239 70.9321 155.19C70.8338 155.165 70.7417 155.14 70.6434 155.11C70.3363 155.018 70.0353 154.919 69.7405 154.803C69.5993 154.747 69.458 154.686 69.3167 154.625C69.243 154.594 69.1693 154.563 69.0956 154.526C68.8868 154.428 68.678 154.317 68.4814 154.207L56.9407 147.543C55.4912 146.708 54.6805 145.645 54.5024 144.552C54.4778 144.398 54.4655 144.239 54.4655 144.085L54.441 153.771C54.441 155.024 55.264 156.277 56.9162 157.229L68.4569 163.893C68.6534 164.009 68.8622 164.114 69.0711 164.212C69.1386 164.243 69.2185 164.274 69.286 164.304C69.4089 164.36 69.5379 164.421 69.6668 164.47C69.6791 164.47 69.6975 164.482 69.716 164.488C70.0108 164.599 70.3117 164.703 70.6188 164.796C70.6434 164.802 70.668 164.814 70.6925 164.82C70.7601 164.839 70.8338 164.857 70.9075 164.875C71.0795 164.918 71.2515 164.968 71.4296 165.004C71.4787 165.017 71.5217 165.029 71.5708 165.041C71.6384 165.054 71.7121 165.066 71.7797 165.078C71.9271 165.109 72.0745 165.133 72.2219 165.158C72.2833 165.17 72.3386 165.183 72.4 165.189C72.4676 165.201 72.5351 165.201 72.5965 165.213C72.7378 165.232 72.8729 165.244 73.0142 165.262C73.0818 165.269 73.1493 165.281 73.2169 165.287C73.2783 165.287 73.3459 165.287 73.4073 165.299C73.5485 165.312 73.6898 165.318 73.8311 165.324C73.9048 165.324 73.9723 165.336 74.046 165.336C74.1013 165.336 74.1627 165.336 74.218 165.336C74.3716 165.336 74.5251 165.336 74.6787 165.336C74.7524 165.336 74.8322 165.336 74.9059 165.336C74.9489 165.336 74.998 165.33 75.041 165.33C75.2314 165.324 75.4218 165.305 75.6122 165.293C75.6859 165.287 75.7658 165.287 75.8395 165.281C75.8641 165.281 75.8825 165.275 75.907 165.269C76.2264 165.238 76.5458 165.189 76.8652 165.133C76.8836 165.133 76.8959 165.133 76.9143 165.127C77.0065 165.109 77.0924 165.09 77.1846 165.072C77.3381 165.041 77.4978 165.011 77.6514 164.974C77.7619 164.949 77.8725 164.912 77.983 164.888C78.1304 164.851 78.2717 164.808 78.4191 164.765C78.4498 164.753 78.4805 164.746 78.5112 164.74C78.5604 164.722 78.6095 164.703 78.6586 164.685C78.8859 164.605 79.107 164.525 79.322 164.433C79.4018 164.402 79.4817 164.366 79.5615 164.329C79.8379 164.206 80.102 164.077 80.3538 163.93L91.8208 157.266C91.8577 157.247 91.8884 157.223 91.9252 157.204C92.0051 157.155 92.0665 157.106 92.1402 157.063C92.2446 156.995 92.349 156.928 92.4412 156.86C92.5271 156.799 92.6008 156.737 92.6745 156.676C92.7605 156.608 92.8527 156.535 92.9325 156.461C92.9509 156.449 92.9694 156.43 92.9816 156.418C93.0124 156.387 93.0369 156.357 93.0676 156.326C93.1966 156.203 93.3133 156.074 93.4239 155.945C93.4484 155.914 93.4791 155.89 93.5037 155.859C93.5283 155.828 93.5406 155.804 93.559 155.773C93.6327 155.675 93.6941 155.577 93.7555 155.478C93.7801 155.435 93.8169 155.398 93.8354 155.355C93.8477 155.337 93.8538 155.312 93.8661 155.294C93.9152 155.208 93.9521 155.122 93.9889 155.03C94.0135 154.981 94.0381 154.932 94.0626 154.876C94.0688 154.858 94.0688 154.839 94.0749 154.827C94.1056 154.741 94.124 154.661 94.1486 154.575C94.1609 154.52 94.1855 154.465 94.1977 154.403C94.1977 154.391 94.1977 154.373 94.1977 154.36C94.2162 154.274 94.2223 154.182 94.2285 154.096C94.2285 154.041 94.2469 153.98 94.2469 153.924C94.2469 153.9 94.2469 153.875 94.2469 153.851L94.2714 144.165L94.2837 144.14Z" fill="#F9FAFB" stroke="#0B1742" stroke-width="0.8" stroke-linejoin="round"/>
<path d="M91.8024 140.676C95.0944 142.58 95.119 145.658 91.8515 147.555L80.3845 154.219C77.1108 156.123 71.7919 156.123 68.4998 154.219L56.9591 147.555C53.6671 145.651 53.6548 142.574 56.9284 140.676L68.3954 134.012C71.6691 132.108 76.9757 132.108 80.2678 134.012L91.8085 140.676H91.8024Z" fill="white" stroke="#0B1742" stroke-width="0.8" stroke-linejoin="round"/>
<path d="M220.347 149.029C220.347 149.109 220.335 149.195 220.328 149.275C220.322 149.361 220.316 149.453 220.298 149.539C220.285 149.613 220.261 149.68 220.242 149.754C220.218 149.84 220.199 149.92 220.169 150.006C220.144 150.074 220.113 150.141 220.083 150.209C220.046 150.295 220.009 150.381 219.96 150.473C219.929 150.534 219.886 150.596 219.849 150.657C219.788 150.755 219.726 150.854 219.653 150.952C219.61 151.007 219.561 151.062 219.518 151.124C219.407 151.253 219.29 151.382 219.161 151.505C219.112 151.548 219.069 151.597 219.02 151.64C218.94 151.713 218.848 151.781 218.762 151.855C218.682 151.916 218.609 151.978 218.529 152.039C218.437 152.107 218.332 152.174 218.228 152.242C218.123 152.309 218.025 152.383 217.908 152.444L206.441 159.108C206.19 159.256 205.926 159.385 205.649 159.508C205.569 159.544 205.489 159.575 205.41 159.612C205.195 159.704 204.974 159.784 204.746 159.864C204.666 159.888 204.587 159.919 204.507 159.95C204.365 159.993 204.218 160.036 204.077 160.073C203.966 160.103 203.856 160.134 203.745 160.159C203.592 160.195 203.438 160.226 203.278 160.257C203.174 160.275 203.07 160.3 202.959 160.318C202.646 160.374 202.326 160.417 202.001 160.453C201.903 160.466 201.798 160.472 201.7 160.478C201.509 160.496 201.325 160.509 201.135 160.515C201.012 160.515 200.889 160.521 200.772 160.527C200.619 160.527 200.465 160.527 200.312 160.527C200.183 160.527 200.054 160.527 199.925 160.515C199.784 160.515 199.642 160.503 199.501 160.49C199.372 160.484 199.243 160.472 199.114 160.46C198.973 160.447 198.832 160.429 198.69 160.41C198.567 160.392 198.438 160.38 198.316 160.355C198.168 160.331 198.015 160.306 197.867 160.275C197.751 160.251 197.634 160.232 197.517 160.208C197.339 160.171 197.167 160.128 196.995 160.079C196.897 160.054 196.805 160.03 196.706 159.999C196.399 159.907 196.098 159.809 195.804 159.692C195.662 159.637 195.521 159.575 195.38 159.514C195.306 159.483 195.232 159.452 195.159 159.415C194.95 159.317 194.741 159.207 194.544 159.096L183.004 152.432C181.554 151.597 180.744 150.534 180.565 149.441C180.541 149.287 180.529 149.128 180.529 148.974L180.504 158.66C180.504 159.913 181.327 161.166 182.979 162.118L194.52 168.782C194.716 168.899 194.925 169.003 195.134 169.101C195.202 169.132 195.282 169.163 195.349 169.193C195.472 169.249 195.601 169.31 195.73 169.359C195.742 169.359 195.761 169.372 195.779 169.378C196.074 169.488 196.375 169.593 196.682 169.685C196.706 169.691 196.731 169.703 196.756 169.709C196.823 169.728 196.897 169.746 196.971 169.765C197.143 169.808 197.315 169.857 197.493 169.894C197.542 169.906 197.585 169.918 197.634 169.93C197.701 169.943 197.775 169.955 197.843 169.967C197.99 169.998 198.138 170.023 198.285 170.047C198.346 170.059 198.402 170.072 198.463 170.078C198.531 170.09 198.598 170.09 198.66 170.102C198.801 170.121 198.936 170.133 199.077 170.152C199.145 170.158 199.212 170.17 199.28 170.176C199.341 170.176 199.409 170.176 199.47 170.188C199.612 170.201 199.753 170.207 199.894 170.213C199.968 170.213 200.035 170.225 200.109 170.225C200.164 170.225 200.226 170.225 200.281 170.225C200.435 170.225 200.588 170.225 200.742 170.225C200.815 170.225 200.895 170.225 200.969 170.225C201.012 170.225 201.061 170.219 201.104 170.219C201.295 170.213 201.485 170.195 201.675 170.182C201.749 170.176 201.829 170.176 201.903 170.17C201.927 170.17 201.946 170.164 201.97 170.158C202.289 170.127 202.609 170.078 202.928 170.023C202.947 170.023 202.959 170.023 202.977 170.016C203.07 169.998 203.156 169.98 203.248 169.961C203.401 169.93 203.561 169.9 203.714 169.863C203.825 169.838 203.936 169.801 204.046 169.777C204.193 169.74 204.335 169.697 204.482 169.654C204.513 169.642 204.544 169.636 204.574 169.629C204.623 169.611 204.673 169.593 204.722 169.574C204.949 169.494 205.17 169.415 205.385 169.322C205.465 169.292 205.545 169.255 205.625 169.218C205.901 169.095 206.165 168.966 206.417 168.819L217.884 162.155C217.921 162.136 217.951 162.112 217.988 162.093C218.068 162.044 218.13 161.995 218.203 161.952C218.308 161.884 218.412 161.817 218.504 161.749C218.59 161.688 218.664 161.627 218.738 161.565C218.824 161.498 218.916 161.424 218.996 161.35C219.014 161.338 219.032 161.319 219.045 161.307C219.075 161.276 219.1 161.246 219.131 161.215C219.26 161.092 219.376 160.963 219.487 160.834C219.511 160.804 219.542 160.779 219.567 160.748C219.591 160.718 219.604 160.693 219.622 160.662C219.696 160.564 219.757 160.466 219.819 160.367C219.843 160.324 219.88 160.288 219.898 160.245C219.911 160.226 219.917 160.202 219.929 160.183C219.978 160.097 220.015 160.011 220.052 159.919C220.077 159.87 220.101 159.821 220.126 159.766C220.132 159.747 220.132 159.729 220.138 159.716C220.169 159.63 220.187 159.551 220.212 159.465C220.224 159.409 220.249 159.354 220.261 159.293C220.261 159.28 220.261 159.262 220.261 159.25C220.279 159.164 220.285 159.071 220.292 158.985C220.292 158.93 220.31 158.869 220.31 158.814C220.31 158.789 220.31 158.764 220.31 158.74L220.335 149.054L220.347 149.029Z" fill="#F9FAFB" stroke="#0B1742" stroke-width="0.8" stroke-linejoin="round"/>
<path d="M217.865 145.559C221.157 147.463 221.182 150.54 217.915 152.438L206.448 159.102C203.174 161.006 197.855 161.006 194.563 159.102L183.022 152.438C179.73 150.534 179.718 147.457 182.991 145.559L194.458 138.895C197.732 136.991 203.039 136.991 206.331 138.895L217.872 145.559H217.865Z" fill="white" stroke="#0B1742" stroke-width="0.8" stroke-linejoin="round"/>
<path d="M179.061 22.2472C180.541 23.1009 180.553 24.489 179.079 25.3427L175.265 27.56C173.791 28.4137 171.402 28.4137 169.922 27.56L166.083 25.3427C164.603 24.489 164.596 23.1071 166.071 22.2472L169.885 20.0299C171.359 19.1762 173.748 19.1762 175.228 20.0299L179.067 22.2472H179.061Z" fill="#5F38FB"/>
<path d="M59.6921 63.1222C61.1723 63.9759 61.1846 65.364 59.7105 66.2177L55.8964 68.435C54.4223 69.2887 52.0331 69.2887 50.5529 68.435L46.7142 66.2177C45.2339 65.364 45.2278 63.9821 46.7019 63.1222L50.516 60.9049C51.9901 60.0512 54.3793 60.0512 55.8595 60.9049L59.6982 63.1222H59.6921Z" fill="#5F38FB"/>
<path d="M80.673 142.525C82.1532 143.379 82.1655 144.767 80.6914 145.621L76.8773 147.838C75.4032 148.692 73.014 148.692 71.5338 147.838L67.6951 145.621C66.2149 144.767 66.2087 143.385 67.6828 142.525L71.4969 140.308C72.971 139.454 75.3602 139.454 76.8404 140.308L80.6791 142.525H80.673Z" fill="#5F38FB"/>
<path d="M206.915 147.224C208.395 148.077 208.407 149.466 206.933 150.319L203.119 152.537C201.645 153.39 199.256 153.39 197.776 152.537L193.937 150.319C192.457 149.466 192.451 148.084 193.925 147.224L197.739 145.007C199.213 144.153 201.602 144.153 203.082 145.007L206.921 147.224H206.915Z" fill="#5F38FB"/>
<defs>
<linearGradient id="paint0_linear_4342_4238" x1="101.443" y1="13.3556" x2="139.908" y2="168.477" gradientUnits="userSpaceOnUse">
<stop stop-color="#5F38FB"/>
<stop offset="0.164865" stop-color="#6742FB"/>
<stop offset="0.401166" stop-color="#F3F5F8"/>
</linearGradient>
</defs>
</svg>
