<svg width="701" height="465" viewBox="0 0 701 465" fill="none" xmlns="http://www.w3.org/2000/svg">
<path d="M410.745 427.806V431.038C410.745 432.38 411.833 433.468 413.175 433.468H416.407C417.749 433.468 418.837 432.38 418.837 431.038V427.806C418.837 426.464 417.749 425.376 416.407 425.376H413.175C411.833 425.376 410.745 426.464 410.745 427.806Z" stroke="#262E38" stroke-width="1.2" stroke-miterlimit="10"/>
<path d="M375.299 449.294V452.526C375.299 453.868 376.387 454.956 377.729 454.956H380.961C382.303 454.956 383.391 453.868 383.391 452.526V449.294C383.391 447.952 382.303 446.864 380.961 446.864H377.729C376.387 446.864 375.299 447.952 375.299 449.294Z" stroke="#262E38" stroke-width="1.2" stroke-miterlimit="10"/>
<path d="M379.301 381.464V421.082C379.301 425.755 383.089 429.543 387.762 429.543H410.872" stroke="#262E38" stroke-width="1.2" stroke-miterlimit="10"/>
<path d="M379.059 383.443V446.82" stroke="#262E38" stroke-width="1.2" stroke-miterlimit="10"/>
<path d="M455.647 171.398H300.389C294.447 171.398 289.631 176.215 289.631 182.157V396.658C289.631 402.6 294.447 407.416 300.389 407.416H455.647C461.588 407.416 466.405 402.6 466.405 396.658V182.157C466.405 176.215 461.588 171.398 455.647 171.398Z" fill="#262E38"/>
<path d="M463.106 396.458V214.011C463.106 209.891 459.767 206.551 455.647 206.551H300.389C296.269 206.551 292.929 209.891 292.929 214.011V396.458C292.929 400.578 296.269 403.917 300.389 403.917H455.647C459.767 403.917 463.106 400.578 463.106 396.458Z" fill="#343F4D"/>
<path d="M219.481 202.909H216.248C214.906 202.909 213.819 203.997 213.819 205.338V208.571C213.819 209.913 214.906 211.001 216.248 211.001H219.481C220.823 211.001 221.911 209.913 221.911 208.571V205.338C221.911 203.997 220.823 202.909 219.481 202.909Z" stroke="#262E38" stroke-width="1.2" stroke-miterlimit="10"/>
<path d="M296.134 207.279H221.344" stroke="#262E38" stroke-width="1.2" stroke-miterlimit="10"/>
<path d="M296.865 184.938H266.855C263.112 184.938 260.077 187.973 260.077 191.717V207.521" stroke="#262E38" stroke-width="1.2" stroke-miterlimit="10"/>
<path d="M296.865 229.13H266.855C263.112 229.13 260.077 226.095 260.077 222.352V206.547" stroke="#262E38" stroke-width="1.2" stroke-miterlimit="10"/>
<path d="M182.375 213.424V210.192C182.375 208.85 181.287 207.762 179.945 207.762H176.713C175.371 207.762 174.283 208.85 174.283 210.192V213.424C174.283 214.766 175.371 215.854 176.713 215.854H179.945C181.287 215.854 182.375 214.766 182.375 213.424Z" stroke="#262E38" stroke-width="1.2" stroke-miterlimit="10"/>
<path d="M178.004 290.078V215.289" stroke="#262E38" stroke-width="1.2" stroke-miterlimit="10"/>
<path d="M79.7797 368.474V371.706C79.7797 373.048 80.8675 374.136 82.2095 374.136H85.4418C86.7838 374.136 87.8716 373.048 87.8716 371.706V368.474C87.8716 367.132 86.7838 366.044 85.4418 366.044H82.2095C80.8675 366.044 79.7797 367.132 79.7797 368.474Z" stroke="#262E38" stroke-width="1.2" stroke-miterlimit="10"/>
<path d="M43.7231 400.77V404.003C43.7231 405.345 44.8109 406.433 46.1528 406.433H49.3852C50.7271 406.433 51.815 405.345 51.815 404.003V400.77C51.815 399.429 50.7271 398.341 49.3852 398.341H46.1528C44.8109 398.341 43.7231 399.429 43.7231 400.77Z" stroke="#262E38" stroke-width="1.2" stroke-miterlimit="10"/>
<path d="M48.3358 322.132V361.751C48.3358 366.423 52.1234 370.211 56.796 370.211H79.9064" stroke="#262E38" stroke-width="1.2" stroke-miterlimit="10"/>
<path d="M48.0934 324.117V398.907" stroke="#262E38" stroke-width="1.2" stroke-miterlimit="10"/>
<path d="M484.854 353.054H488.086C489.428 353.054 490.516 351.966 490.516 350.624V347.392C490.516 346.05 489.428 344.962 488.086 344.962H484.854C483.512 344.962 482.424 346.05 482.424 347.392V350.624C482.424 351.966 483.512 353.054 484.854 353.054Z" stroke="#262E38" stroke-width="1.2" stroke-miterlimit="10"/>
<path d="M408.194 349.327H482.984" stroke="#262E38" stroke-width="1.2" stroke-miterlimit="10"/>
<path d="M576.266 153.208V149.976C576.266 148.634 575.178 147.546 573.836 147.546H570.604C569.262 147.546 568.174 148.634 568.174 149.976V153.208C568.174 154.55 569.262 155.638 570.604 155.638H573.836C575.178 155.638 576.266 154.55 576.266 153.208Z" stroke="#262E38" stroke-width="1.2" stroke-miterlimit="10"/>
<path d="M572.347 229.861V155.072" stroke="#262E38" stroke-width="1.2" stroke-miterlimit="10"/>
<path d="M508.035 244.633H504.803C503.461 244.633 502.373 245.721 502.373 247.063V250.295C502.373 251.637 503.461 252.725 504.803 252.725H508.035C509.377 252.725 510.465 251.637 510.465 250.295V247.063C510.465 245.721 509.377 244.633 508.035 244.633Z" stroke="#262E38" stroke-width="1.2" stroke-miterlimit="10"/>
<path d="M584.689 249.003H509.899" stroke="#262E38" stroke-width="1.2" stroke-miterlimit="10"/>
<path d="M437.335 153.208V149.976C437.335 148.634 436.247 147.546 434.905 147.546H431.673C430.331 147.546 429.243 148.634 429.243 149.976V153.208C429.243 154.55 430.331 155.638 431.673 155.638H434.905C436.247 155.638 437.335 154.55 437.335 153.208Z" stroke="#262E38" stroke-width="1.2" stroke-miterlimit="10"/>
<path d="M432.965 229.861V155.072" stroke="#262E38" stroke-width="1.2" stroke-miterlimit="10"/>
<path d="M350.65 49.2007H311.031C306.359 49.2007 302.571 52.9883 302.571 57.6609V80.7712" stroke="#262E38" stroke-width="1.2" stroke-miterlimit="10"/>
<path d="M304.308 80.6445H301.076C299.734 80.6445 298.646 81.7324 298.646 83.0743V86.3067C298.646 87.6486 299.734 88.7364 301.076 88.7364H304.308C305.65 88.7364 306.738 87.6486 306.738 86.3067V83.0743C306.738 81.7324 305.65 80.6445 304.308 80.6445Z" stroke="#262E38" stroke-width="1.2" stroke-miterlimit="10"/>
<path d="M272.012 44.5884H268.78C267.438 44.5884 266.35 45.6762 266.35 47.0181V50.2505C266.35 51.5924 267.438 52.6803 268.78 52.6803H272.012C273.354 52.6803 274.442 51.5924 274.442 50.2505V47.0181C274.442 45.6762 273.354 44.5884 272.012 44.5884Z" stroke="#262E38" stroke-width="1.2" stroke-miterlimit="10"/>
<path d="M348.665 48.959H273.875" stroke="#262E38" stroke-width="1.2" stroke-miterlimit="10"/>
<path d="M408.926 53.0437H448.545C453.217 53.0437 457.005 49.2561 457.005 44.5835V21.4731" stroke="#262E38" stroke-width="1.2" stroke-miterlimit="10"/>
<path d="M455.267 21.5991H458.5C459.842 21.5991 460.93 20.5113 460.93 19.1693V15.937C460.93 14.5951 459.842 13.5072 458.5 13.5072H455.267C453.926 13.5072 452.838 14.5951 452.838 15.937V19.1693C452.838 20.5113 453.926 21.5991 455.267 21.5991Z" stroke="#262E38" stroke-width="1.2" stroke-miterlimit="10"/>
<path d="M487.563 57.6611H490.796C492.138 57.6611 493.226 56.5733 493.226 55.2314V51.999C493.226 50.6571 492.138 49.5692 490.796 49.5692H487.563C486.221 49.5692 485.134 50.6571 485.134 51.999V55.2314C485.134 56.5733 486.221 57.6611 487.563 57.6611Z" stroke="#262E38" stroke-width="1.2" stroke-miterlimit="10"/>
<path d="M410.91 53.2905H485.7" stroke="#262E38" stroke-width="1.2" stroke-miterlimit="10"/>
<path d="M419.557 0.231445H339.43C333.394 0.231445 328.501 5.12429 328.501 11.1599V91.2874C328.501 97.3231 333.394 102.216 339.43 102.216H419.557C425.593 102.216 430.486 97.3231 430.486 91.2874V11.1599C430.486 5.12429 425.593 0.231445 419.557 0.231445Z" fill="#262E38"/>
<path d="M427.188 11.1599V91.2929C427.188 95.5038 423.768 98.923 419.558 98.923H339.425C335.214 98.923 331.794 95.5038 331.794 91.2929V11.1599C331.794 6.94906 335.214 3.52979 339.425 3.52979L419.558 3.52979C423.768 3.52979 427.188 6.94906 427.188 11.1599Z" fill="#536375" stroke="#262E38" stroke-width="1.2" stroke-miterlimit="10"/>
<path d="M381.062 36.8955H374.902V43.0563H381.062V36.8955Z" fill="white"/>
<path d="M386.519 31.4385H381.062V36.8953H386.519V31.4385Z" fill="white"/>
<path d="M374.902 31.4385H369.445V36.8953H374.902V31.4385Z" fill="white"/>
<path d="M377.982 26.7358C379.35 26.7358 380.458 25.6271 380.458 24.2595C380.458 22.8919 379.35 21.7832 377.982 21.7832C376.614 21.7832 375.506 22.8919 375.506 24.2595C375.506 25.6271 376.614 26.7358 377.982 26.7358Z" fill="white"/>
<path d="M365.78 46.6459C367.148 46.6459 368.256 45.5373 368.256 44.1697C368.256 42.802 367.148 41.6934 365.78 41.6934C364.412 41.6934 363.304 42.802 363.304 44.1697C363.304 45.5373 364.412 46.6459 365.78 46.6459Z" fill="white"/>
<path d="M390.214 46.6206C391.582 46.6206 392.69 45.5119 392.69 44.1443C392.69 42.7766 391.582 41.668 390.214 41.668C388.846 41.668 387.738 42.7766 387.738 44.1443C387.738 45.5119 388.846 46.6206 390.214 46.6206Z" fill="white"/>
<path d="M351.137 74.252V61.9783H355.941C356.818 61.9783 357.607 62.1244 358.308 62.4167C359.021 62.7089 359.629 63.1297 360.132 63.6791C360.634 64.2285 361.02 64.8772 361.289 65.6254C361.558 66.3735 361.692 67.2034 361.692 68.1151C361.692 69.0269 361.558 69.8627 361.289 70.6225C361.02 71.3706 360.634 72.0193 360.132 72.5687C359.641 73.1064 359.039 73.5214 358.326 73.8136C357.613 74.1058 356.818 74.252 355.941 74.252H351.137ZM353.031 72.6213L352.978 72.4284H355.854C356.473 72.4284 357.023 72.3291 357.502 72.1304C357.993 71.9317 358.402 71.6511 358.729 71.2888C359.068 70.9147 359.325 70.4588 359.501 69.9211C359.676 69.3834 359.764 68.7814 359.764 68.1151C359.764 67.4489 359.676 66.8527 359.501 66.3267C359.325 65.789 359.068 65.3331 358.729 64.9591C358.39 64.585 357.981 64.2986 357.502 64.0999C357.023 63.9012 356.473 63.8018 355.854 63.8018H352.925L353.031 63.644V72.6213ZM368.093 74.4273C367.146 74.4273 366.305 74.2286 365.568 73.8311C364.843 73.422 364.271 72.8668 363.85 72.1654C363.441 71.4641 363.236 70.6575 363.236 69.7458C363.236 69.0211 363.353 68.3606 363.587 67.7645C363.821 67.1683 364.142 66.654 364.551 66.2215C364.972 65.7773 365.469 65.4383 366.042 65.2045C366.626 64.9591 367.257 64.8363 367.935 64.8363C368.531 64.8363 369.087 64.9532 369.601 65.187C370.115 65.4091 370.559 65.7189 370.933 66.1163C371.319 66.5137 371.611 66.9871 371.81 67.5365C372.021 68.0742 372.12 68.6645 372.108 69.3074L372.091 70.0789H364.569L364.165 68.6412H370.53L370.267 68.9392V68.5184C370.232 68.1327 370.103 67.7878 369.881 67.4839C369.659 67.18 369.379 66.9404 369.04 66.765C368.701 66.5897 368.333 66.502 367.935 66.502C367.304 66.502 366.772 66.6248 366.34 66.8702C365.907 67.104 365.58 67.4547 365.358 67.9223C365.136 68.3781 365.025 68.9451 365.025 69.623C365.025 70.2659 365.159 70.827 365.428 71.3063C365.697 71.7739 366.077 72.1362 366.568 72.3934C367.058 72.6505 367.625 72.7791 368.268 72.7791C368.724 72.7791 369.145 72.7031 369.531 72.5512C369.928 72.3992 370.355 72.1245 370.811 71.7271L371.722 73.0071C371.442 73.2876 371.097 73.5331 370.688 73.7435C370.291 73.9539 369.864 74.1234 369.408 74.252C368.964 74.3688 368.525 74.4273 368.093 74.4273ZM374.106 74.252V61.277H375.912V74.252H374.106ZM379.56 74.252V62.6972H381.366V74.252H379.56ZM377.649 66.8001V65.0467H383.505V66.8001H377.649ZM388.606 74.4273C387.846 74.4273 387.15 74.2169 386.519 73.7961C385.899 73.3753 385.403 72.8025 385.029 72.0778C384.655 71.353 384.468 70.5348 384.468 69.623C384.468 68.6996 384.655 67.8814 385.029 67.1683C385.414 66.4436 385.929 65.8767 386.572 65.4675C387.226 65.0584 387.957 64.8539 388.763 64.8539C389.243 64.8539 389.681 64.924 390.078 65.0643C390.476 65.2045 390.821 65.4033 391.113 65.6604C391.417 65.9059 391.662 66.1923 391.849 66.5196C392.048 66.8469 392.171 67.1975 392.217 67.5716L391.814 67.4313V65.0467H393.638V74.252H391.814V72.0602L392.235 71.9375C392.165 72.2531 392.019 72.5629 391.797 72.8668C391.586 73.159 391.312 73.422 390.973 73.6558C390.645 73.8896 390.277 74.0766 389.868 74.2169C389.471 74.3572 389.05 74.4273 388.606 74.4273ZM389.079 72.7616C389.628 72.7616 390.113 72.6272 390.534 72.3583C390.955 72.0895 391.282 71.7212 391.516 71.2537C391.762 70.7744 391.884 70.2309 391.884 69.623C391.884 69.0269 391.762 68.495 391.516 68.0275C391.282 67.5599 390.955 67.1917 390.534 66.9228C390.113 66.654 389.628 66.5196 389.079 66.5196C388.541 66.5196 388.062 66.654 387.641 66.9228C387.232 67.1917 386.905 67.5599 386.659 68.0275C386.425 68.495 386.309 69.0269 386.309 69.623C386.309 70.2309 386.425 70.7744 386.659 71.2537C386.905 71.7212 387.232 72.0895 387.641 72.3583C388.062 72.6272 388.541 72.7616 389.079 72.7616ZM399.731 74.252L394.821 61.9783H396.978L399.906 69.4302C400.046 69.7925 400.169 70.1198 400.274 70.4121C400.391 70.7043 400.49 70.9731 400.572 71.2186C400.654 71.4524 400.73 71.6745 400.8 71.8849C400.87 72.0953 400.94 72.3057 401.011 72.5161L400.555 72.5336C400.636 72.2531 400.724 71.9609 400.818 71.657C400.911 71.353 401.016 71.0199 401.133 70.6575C401.262 70.2952 401.414 69.8861 401.589 69.4302L404.307 61.9783H406.516L401.572 74.252H399.731Z" fill="white"/>
<path d="M208.25 242.203H11.9439C5.61069 242.203 0.476654 247.337 0.476654 253.67V332.572C0.476654 338.905 5.61069 344.039 11.9439 344.039H208.25C214.583 344.039 219.717 338.905 219.717 332.572V253.67C219.717 247.337 214.583 242.203 208.25 242.203Z" fill="#262E38"/>
<path d="M143.575 330.972V255.27C143.575 249.875 139.202 245.501 133.807 245.501H14.1268C8.73174 245.501 4.35822 249.875 4.35822 255.27V330.972C4.35822 336.367 8.73174 340.741 14.1268 340.741H133.807C139.202 340.741 143.575 336.367 143.575 330.972Z" fill="#343F4D"/>
<path d="M216.418 330.972V255.27C216.418 249.875 212.045 245.501 206.65 245.501H86.9699C81.5749 245.501 77.2014 249.875 77.2014 255.27V330.972C77.2014 336.367 81.5749 340.741 86.9699 340.741H206.65C212.045 340.741 216.418 336.367 216.418 330.972Z" fill="#536375" stroke="#262E38" stroke-width="1.2" stroke-miterlimit="10"/>
<path d="M97.8116 315.986L102.563 303.713H104.492L109.209 315.986H107.192L104.387 308.587C104.352 308.505 104.282 308.307 104.176 307.991C104.083 307.675 103.972 307.325 103.843 306.939C103.715 306.553 103.598 306.202 103.493 305.887C103.387 305.56 103.317 305.349 103.282 305.256L103.685 305.238C103.615 305.437 103.528 305.688 103.422 305.992C103.329 306.296 103.224 306.617 103.107 306.956C103.002 307.295 102.896 307.617 102.791 307.921C102.686 308.213 102.598 308.459 102.528 308.657L99.7403 315.986H97.8116ZM99.9156 312.935L100.617 311.112H106.193L106.999 312.935H99.9156ZM114.862 320.019C114.207 320.019 113.553 319.914 112.898 319.703C112.255 319.505 111.735 319.242 111.338 318.914L112.004 317.512C112.238 317.687 112.512 317.839 112.828 317.968C113.144 318.108 113.477 318.213 113.827 318.283C114.178 318.365 114.523 318.406 114.862 318.406C115.505 318.406 116.043 318.301 116.475 318.09C116.908 317.88 117.235 317.57 117.457 317.161C117.679 316.752 117.79 316.243 117.79 315.636V313.865L117.983 313.987C117.924 314.35 117.732 314.701 117.404 315.04C117.089 315.367 116.691 315.636 116.212 315.846C115.733 316.056 115.242 316.162 114.739 316.162C113.862 316.162 113.079 315.957 112.39 315.548C111.712 315.127 111.174 314.56 110.777 313.847C110.379 313.122 110.18 312.298 110.18 311.375C110.18 310.452 110.373 309.633 110.759 308.92C111.156 308.196 111.694 307.629 112.372 307.219C113.062 306.799 113.833 306.588 114.687 306.588C115.037 306.588 115.376 306.635 115.704 306.729C116.031 306.81 116.335 306.933 116.615 307.097C116.896 307.249 117.147 307.418 117.369 307.605C117.591 307.792 117.773 307.991 117.913 308.201C118.053 308.412 118.141 308.61 118.176 308.797L117.79 308.938V306.781H119.596V315.425C119.596 316.162 119.485 316.81 119.263 317.371C119.052 317.944 118.743 318.424 118.334 318.809C117.924 319.207 117.428 319.505 116.843 319.703C116.259 319.914 115.598 320.019 114.862 320.019ZM114.932 314.496C115.505 314.496 116.013 314.362 116.457 314.093C116.902 313.824 117.246 313.456 117.492 312.988C117.737 312.52 117.86 311.983 117.86 311.375C117.86 310.767 117.732 310.229 117.474 309.762C117.229 309.283 116.884 308.909 116.44 308.64C116.007 308.371 115.505 308.236 114.932 308.236C114.371 308.236 113.868 308.377 113.424 308.657C112.992 308.926 112.647 309.3 112.39 309.779C112.144 310.247 112.021 310.779 112.021 311.375C112.021 311.971 112.144 312.509 112.39 312.988C112.647 313.456 112.992 313.824 113.424 314.093C113.868 314.362 114.371 314.496 114.932 314.496ZM126.424 316.162C125.477 316.162 124.635 315.963 123.899 315.566C123.174 315.156 122.602 314.601 122.181 313.9C121.772 313.198 121.567 312.392 121.567 311.48C121.567 310.755 121.684 310.095 121.918 309.499C122.152 308.903 122.473 308.388 122.882 307.956C123.303 307.512 123.8 307.173 124.372 306.939C124.957 306.693 125.588 306.571 126.266 306.571C126.862 306.571 127.417 306.688 127.932 306.921C128.446 307.143 128.89 307.453 129.264 307.851C129.65 308.248 129.942 308.722 130.141 309.271C130.351 309.809 130.451 310.399 130.439 311.042L130.422 311.813H122.9L122.496 310.376H128.861L128.598 310.674V310.253C128.563 309.867 128.434 309.522 128.212 309.218C127.99 308.914 127.71 308.675 127.371 308.499C127.032 308.324 126.664 308.236 126.266 308.236C125.635 308.236 125.103 308.359 124.671 308.605C124.238 308.838 123.911 309.189 123.689 309.657C123.467 310.113 123.355 310.679 123.355 311.357C123.355 312 123.49 312.561 123.759 313.041C124.028 313.508 124.408 313.871 124.898 314.128C125.389 314.385 125.956 314.513 126.599 314.513C127.055 314.513 127.476 314.438 127.862 314.286C128.259 314.134 128.686 313.859 129.142 313.461L130.053 314.741C129.773 315.022 129.428 315.267 129.019 315.478C128.621 315.688 128.195 315.858 127.739 315.986C127.295 316.103 126.856 316.162 126.424 316.162ZM132.402 315.986V306.781H134.208V308.675L133.892 308.885C134.009 308.476 134.237 308.102 134.576 307.763C134.915 307.412 135.318 307.132 135.786 306.921C136.253 306.699 136.733 306.588 137.224 306.588C137.925 306.588 138.509 306.729 138.977 307.009C139.445 307.278 139.795 307.693 140.029 308.254C140.263 308.815 140.38 309.522 140.38 310.376V315.986H138.574V310.498C138.574 309.972 138.504 309.54 138.363 309.201C138.223 308.85 138.007 308.599 137.715 308.447C137.422 308.283 137.06 308.213 136.627 308.236C136.277 308.236 135.955 308.295 135.663 308.412C135.371 308.517 135.114 308.669 134.892 308.868C134.681 309.066 134.512 309.3 134.383 309.569C134.266 309.826 134.208 310.107 134.208 310.411V315.986H133.314C133.162 315.986 133.01 315.986 132.858 315.986C132.706 315.986 132.554 315.986 132.402 315.986ZM143.969 315.986V304.432H145.775V315.986H143.969ZM142.058 308.534V306.781H147.914V308.534H142.058ZM153.627 315.986L148.717 303.713H150.874L153.802 311.165C153.942 311.527 154.065 311.854 154.17 312.146C154.287 312.439 154.386 312.708 154.468 312.953C154.55 313.187 154.626 313.409 154.696 313.619C154.766 313.83 154.837 314.04 154.907 314.25L154.451 314.268C154.533 313.987 154.62 313.695 154.714 313.391C154.807 313.087 154.912 312.754 155.029 312.392C155.158 312.03 155.31 311.62 155.485 311.165L158.203 303.713H160.412L155.468 315.986H153.627ZM165.344 316.162C164.397 316.162 163.556 315.963 162.819 315.566C162.094 315.156 161.522 314.601 161.101 313.9C160.692 313.198 160.487 312.392 160.487 311.48C160.487 310.755 160.604 310.095 160.838 309.499C161.072 308.903 161.393 308.388 161.802 307.956C162.223 307.512 162.72 307.173 163.293 306.939C163.877 306.693 164.508 306.571 165.186 306.571C165.782 306.571 166.338 306.688 166.852 306.921C167.366 307.143 167.81 307.453 168.184 307.851C168.57 308.248 168.862 308.722 169.061 309.271C169.272 309.809 169.371 310.399 169.359 311.042L169.342 311.813H161.82L161.416 310.376H167.781L167.518 310.674V310.253C167.483 309.867 167.355 309.522 167.132 309.218C166.91 308.914 166.63 308.675 166.291 308.499C165.952 308.324 165.584 308.236 165.186 308.236C164.555 308.236 164.023 308.359 163.591 308.605C163.158 308.838 162.831 309.189 162.609 309.657C162.387 310.113 162.276 310.679 162.276 311.357C162.276 312 162.41 312.561 162.679 313.041C162.948 313.508 163.328 313.871 163.819 314.128C164.31 314.385 164.876 314.513 165.519 314.513C165.975 314.513 166.396 314.438 166.782 314.286C167.179 314.134 167.606 313.859 168.062 313.461L168.974 314.741C168.693 315.022 168.348 315.267 167.939 315.478C167.542 315.688 167.115 315.858 166.659 315.986C166.215 316.103 165.777 316.162 165.344 316.162ZM171.322 315.986V306.781H173.145V309.674L172.97 308.973C173.099 308.529 173.315 308.125 173.619 307.763C173.934 307.401 174.291 307.114 174.688 306.904C175.098 306.693 175.518 306.588 175.951 306.588C176.15 306.588 176.337 306.606 176.512 306.641C176.699 306.676 176.845 306.717 176.95 306.764L176.477 308.727C176.337 308.669 176.179 308.622 176.003 308.587C175.84 308.54 175.676 308.517 175.512 308.517C175.197 308.517 174.893 308.581 174.601 308.71C174.32 308.827 174.069 308.996 173.847 309.218C173.636 309.429 173.467 309.68 173.338 309.972C173.21 310.253 173.145 310.563 173.145 310.902V315.986H171.322ZM181.462 316.162C180.691 316.162 179.995 316.027 179.376 315.758C178.756 315.49 178.242 315.092 177.833 314.566L179.06 313.514C179.411 313.923 179.791 314.221 180.2 314.408C180.62 314.584 181.094 314.671 181.62 314.671C181.83 314.671 182.023 314.648 182.198 314.601C182.385 314.543 182.543 314.461 182.672 314.356C182.812 314.25 182.917 314.128 182.987 313.987C183.058 313.836 183.093 313.672 183.093 313.497C183.093 313.193 182.982 312.947 182.76 312.76C182.643 312.678 182.456 312.591 182.198 312.497C181.953 312.392 181.632 312.287 181.234 312.182C180.556 312.006 180.001 311.807 179.568 311.585C179.136 311.363 178.803 311.112 178.569 310.831C178.394 310.609 178.265 310.37 178.183 310.113C178.101 309.844 178.061 309.551 178.061 309.236C178.061 308.85 178.142 308.499 178.306 308.184C178.481 307.857 178.715 307.576 179.007 307.342C179.311 307.097 179.662 306.91 180.059 306.781C180.468 306.653 180.901 306.588 181.357 306.588C181.789 306.588 182.216 306.647 182.637 306.764C183.069 306.88 183.467 307.05 183.829 307.272C184.191 307.494 184.495 307.757 184.741 308.061L183.706 309.201C183.484 308.979 183.239 308.786 182.97 308.622C182.713 308.447 182.45 308.312 182.181 308.219C181.912 308.125 181.667 308.079 181.445 308.079C181.199 308.079 180.977 308.102 180.778 308.149C180.58 308.196 180.41 308.266 180.27 308.359C180.141 308.453 180.042 308.57 179.972 308.71C179.902 308.85 179.866 309.008 179.866 309.183C179.878 309.335 179.913 309.481 179.972 309.622C180.042 309.75 180.135 309.861 180.252 309.955C180.381 310.048 180.574 310.148 180.831 310.253C181.088 310.358 181.415 310.457 181.813 310.551C182.397 310.703 182.876 310.872 183.25 311.059C183.636 311.235 183.94 311.439 184.162 311.673C184.396 311.895 184.56 312.152 184.653 312.445C184.747 312.737 184.793 313.064 184.793 313.426C184.793 313.952 184.642 314.426 184.338 314.847C184.045 315.256 183.648 315.577 183.145 315.811C182.643 316.045 182.082 316.162 181.462 316.162ZM191.08 316.162C190.133 316.162 189.291 315.963 188.555 315.566C187.83 315.156 187.257 314.601 186.836 313.9C186.427 313.198 186.223 312.392 186.223 311.48C186.223 310.755 186.34 310.095 186.573 309.499C186.807 308.903 187.129 308.388 187.538 307.956C187.959 307.512 188.455 307.173 189.028 306.939C189.613 306.693 190.244 306.571 190.922 306.571C191.518 306.571 192.073 306.688 192.587 306.921C193.102 307.143 193.546 307.453 193.92 307.851C194.306 308.248 194.598 308.722 194.797 309.271C195.007 309.809 195.106 310.399 195.095 311.042L195.077 311.813H187.555L187.152 310.376H193.517L193.254 310.674V310.253C193.219 309.867 193.09 309.522 192.868 309.218C192.646 308.914 192.365 308.675 192.026 308.499C191.687 308.324 191.319 308.236 190.922 308.236C190.291 308.236 189.759 308.359 189.326 308.605C188.894 308.838 188.566 309.189 188.344 309.657C188.122 310.113 188.011 310.679 188.011 311.357C188.011 312 188.146 312.561 188.414 313.041C188.683 313.508 189.063 313.871 189.554 314.128C190.045 314.385 190.612 314.513 191.255 314.513C191.711 314.513 192.132 314.438 192.517 314.286C192.915 314.134 193.341 313.859 193.797 313.461L194.709 314.741C194.429 315.022 194.084 315.267 193.675 315.478C193.277 315.688 192.85 315.858 192.395 315.986C191.95 316.103 191.512 316.162 191.08 316.162Z" fill="white"/>
<path d="M147.697 276.164C147.697 277.407 146.689 278.415 145.445 278.415C144.202 278.415 143.194 277.407 143.194 276.164C143.194 274.92 144.202 273.912 145.445 273.912C146.689 273.912 147.697 274.92 147.697 276.164ZM138.506 276.029C137.183 276.029 136.109 277.102 136.109 278.425C136.109 279.748 137.183 280.822 138.506 280.822C139.829 280.822 140.902 279.748 140.902 278.425C140.902 277.102 139.829 276.029 138.506 276.029ZM152.395 276.029C151.072 276.029 149.999 277.102 149.999 278.425C149.999 279.748 151.072 280.822 152.395 280.822C153.718 280.822 154.791 279.748 154.791 278.425C154.791 277.102 153.718 276.029 152.395 276.029ZM138.501 269.069C137.497 269.069 136.684 269.883 136.684 270.886C136.684 271.89 137.497 272.704 138.501 272.704C139.504 272.704 140.318 271.89 140.318 270.886C140.318 269.883 139.504 269.069 138.501 269.069ZM135.061 264.211C134.257 264.211 133.603 264.865 133.603 265.669C133.603 266.473 134.257 267.127 135.061 267.127C135.865 267.127 136.519 266.473 136.519 265.669C136.519 264.865 135.865 264.211 135.061 264.211ZM134.302 282.209C132.764 282.209 131.516 283.458 131.516 284.995C131.516 286.533 132.764 287.781 134.302 287.781C135.84 287.781 137.088 286.533 137.088 284.995C137.088 283.458 135.84 282.209 134.302 282.209ZM156.549 282.209C155.011 282.209 153.763 283.458 153.763 284.995C153.763 286.533 155.011 287.781 156.549 287.781C158.087 287.781 159.335 286.533 159.335 284.995C159.335 283.458 158.087 282.209 156.549 282.209ZM145.45 282.209C143.913 282.209 142.665 283.458 142.665 284.995C142.665 286.533 143.913 287.781 145.45 287.781C146.988 287.781 148.236 286.533 148.236 284.995C148.236 283.458 146.988 282.209 145.45 282.209ZM150.598 270.886C150.598 271.89 151.412 272.704 152.415 272.704C153.419 272.704 154.232 271.89 154.232 270.886C154.232 269.883 153.419 269.069 152.415 269.069C151.412 269.069 150.598 269.883 150.598 270.886ZM154.427 265.669C154.427 266.473 155.081 267.127 155.885 267.127C156.689 267.127 157.343 266.473 157.343 265.669C157.343 264.865 156.689 264.211 155.885 264.211C155.081 264.211 154.427 264.865 154.427 265.669Z" fill="white"/>
<path d="M20.5818 274.167C20.1285 274.167 19.707 274.107 19.3173 273.988C18.9356 273.869 18.5857 273.69 18.2676 273.451C17.9574 273.205 17.6791 272.903 17.4326 272.545L18.3153 271.531C18.705 272.088 19.0788 272.473 19.4366 272.688C19.7945 272.903 20.22 273.01 20.713 273.01C21.0152 273.01 21.2896 272.962 21.5361 272.867C21.7827 272.771 21.9775 272.64 22.1207 272.473C22.2638 272.306 22.3354 272.115 22.3354 271.901C22.3354 271.757 22.3115 271.622 22.2638 271.495C22.2161 271.368 22.1405 271.252 22.0372 271.149C21.9417 271.046 21.8145 270.95 21.6554 270.863C21.5043 270.775 21.3254 270.7 21.1186 270.636C20.9119 270.565 20.6733 270.505 20.4029 270.457C19.9734 270.37 19.5997 270.254 19.2816 270.111C18.9635 269.968 18.697 269.789 18.4823 269.574C18.2676 269.36 18.1085 269.117 18.0052 268.847C17.9018 268.568 17.8501 268.258 17.8501 267.916C17.8501 267.582 17.9217 267.272 18.0648 266.986C18.2159 266.7 18.4187 266.453 18.6732 266.246C18.9356 266.032 19.2418 265.869 19.5917 265.757C19.9416 265.638 20.3194 265.578 20.725 265.578C21.1544 265.578 21.5481 265.634 21.9059 265.745C22.2638 265.857 22.5819 266.024 22.8603 266.246C23.1386 266.461 23.3692 266.727 23.5521 267.046L22.6455 267.94C22.4865 267.678 22.3075 267.459 22.1087 267.284C21.9099 267.101 21.6912 266.966 21.4526 266.879C21.2141 266.783 20.9596 266.735 20.6892 266.735C20.379 266.735 20.1086 266.783 19.878 266.879C19.6474 266.974 19.4645 267.109 19.3293 267.284C19.202 267.451 19.1384 267.65 19.1384 267.881C19.1384 268.048 19.1702 268.203 19.2338 268.346C19.2975 268.481 19.3929 268.604 19.5201 268.716C19.6553 268.819 19.8343 268.914 20.0569 269.002C20.2796 269.081 20.546 269.153 20.8562 269.217C21.2936 269.312 21.6833 269.435 22.0252 269.586C22.3672 269.73 22.6575 269.901 22.896 270.099C23.1346 270.298 23.3136 270.521 23.4328 270.767C23.5601 271.014 23.6237 271.28 23.6237 271.567C23.6237 272.099 23.5004 272.561 23.2539 272.95C23.0074 273.34 22.6575 273.642 22.2042 273.857C21.7509 274.064 21.2101 274.167 20.5818 274.167ZM28.0616 274.167C27.4174 274.167 26.8448 274.032 26.3438 273.762C25.8507 273.483 25.461 273.105 25.1748 272.628C24.8964 272.151 24.7572 271.602 24.7572 270.982C24.7572 270.489 24.8368 270.04 24.9958 269.634C25.1549 269.229 25.3736 268.879 25.6519 268.584C25.9382 268.282 26.2762 268.052 26.6659 267.893C27.0635 267.725 27.4929 267.642 27.9542 267.642C28.3598 267.642 28.7375 267.722 29.0875 267.881C29.4374 268.032 29.7396 268.242 29.9941 268.513C30.2565 268.783 30.4553 269.105 30.5905 269.479C30.7337 269.845 30.8012 270.246 30.7933 270.684L30.7814 271.209H25.6638L25.3895 270.231H29.7197L29.5408 270.433V270.147C29.5169 269.885 29.4294 269.65 29.2783 269.443C29.1272 269.236 28.9364 269.073 28.7057 268.954C28.4751 268.835 28.2246 268.775 27.9542 268.775C27.5248 268.775 27.1629 268.859 26.8687 269.026C26.5744 269.185 26.3517 269.423 26.2006 269.741C26.0495 270.052 25.974 270.437 25.974 270.899C25.974 271.336 26.0654 271.718 26.2484 272.044C26.4313 272.362 26.6897 272.608 27.0237 272.783C27.3578 272.958 27.7435 273.046 28.1809 273.046C28.491 273.046 28.7773 272.994 29.0397 272.891C29.3101 272.787 29.6004 272.6 29.9106 272.33L30.5309 273.201C30.34 273.392 30.1054 273.559 29.827 273.702C29.5567 273.845 29.2664 273.96 28.9562 274.048C28.654 274.127 28.3558 274.167 28.0616 274.167ZM32.1286 274.048V267.785H33.3692V269.753L33.2499 269.276C33.3374 268.974 33.4845 268.7 33.6913 268.453C33.906 268.207 34.1486 268.012 34.419 267.869C34.6973 267.725 34.9836 267.654 35.2778 267.654C35.413 267.654 35.5403 267.666 35.6596 267.69C35.7868 267.714 35.8862 267.741 35.9578 267.773L35.6357 269.109C35.5403 269.069 35.4329 269.038 35.3136 269.014C35.2023 268.982 35.091 268.966 34.9796 268.966C34.7649 268.966 34.5581 269.01 34.3593 269.097C34.1684 269.177 33.9975 269.292 33.8464 269.443C33.7032 269.586 33.5879 269.757 33.5004 269.956C33.4129 270.147 33.3692 270.358 33.3692 270.588V274.048H32.1286ZM39.5857 274.048L36.9375 267.785H38.2616L40.1702 272.473L39.9436 272.581L41.9834 267.785H43.2479L40.4684 274.048H39.5857ZM44.5749 274.048V267.785H45.8036V274.048H44.5749ZM45.1713 266.401C44.9089 266.401 44.7061 266.334 44.563 266.199C44.4198 266.063 44.3482 265.873 44.3482 265.626C44.3482 265.395 44.4198 265.208 44.563 265.065C44.7141 264.922 44.9169 264.851 45.1713 264.851C45.4338 264.851 45.6366 264.918 45.7797 265.053C45.9229 265.189 45.9944 265.379 45.9944 265.626C45.9944 265.857 45.9189 266.044 45.7678 266.187C45.6246 266.33 45.4258 266.401 45.1713 266.401ZM50.3523 274.167C49.7718 274.167 49.2509 274.024 48.7896 273.738C48.3363 273.451 47.9745 273.062 47.7041 272.569C47.4417 272.076 47.3104 271.523 47.3104 270.911C47.3104 270.298 47.4417 269.745 47.7041 269.252C47.9745 268.759 48.3363 268.37 48.7896 268.083C49.2509 267.797 49.7718 267.654 50.3523 267.654C50.909 267.654 51.414 267.769 51.8673 268C52.3286 268.223 52.6785 268.529 52.9171 268.918L52.2371 269.753C52.1099 269.571 51.9468 269.404 51.748 269.252C51.5492 269.101 51.3385 268.982 51.1158 268.895C50.8931 268.807 50.6784 268.763 50.4716 268.763C50.0899 268.763 49.7479 268.859 49.4457 269.05C49.1515 269.233 48.9169 269.487 48.7419 269.813C48.567 270.139 48.4795 270.505 48.4795 270.911C48.4795 271.316 48.5709 271.682 48.7539 272.008C48.9368 272.326 49.1793 272.581 49.4815 272.771C49.7837 272.962 50.1177 273.058 50.4836 273.058C50.6983 273.058 50.905 273.022 51.1039 272.95C51.3106 272.879 51.5094 272.771 51.7003 272.628C51.8912 272.485 52.0701 272.31 52.2371 272.103L52.9171 272.938C52.6626 273.296 52.2968 273.591 51.8196 273.821C51.3504 274.052 50.8613 274.167 50.3523 274.167ZM56.9986 274.167C56.3545 274.167 55.7819 274.032 55.2809 273.762C54.7878 273.483 54.3981 273.105 54.1118 272.628C53.8335 272.151 53.6943 271.602 53.6943 270.982C53.6943 270.489 53.7738 270.04 53.9329 269.634C54.0919 269.229 54.3106 268.879 54.589 268.584C54.8753 268.282 55.2133 268.052 55.6029 267.893C56.0006 267.725 56.43 267.642 56.8913 267.642C57.2969 267.642 57.6746 267.722 58.0245 267.881C58.3744 268.032 58.6766 268.242 58.9311 268.513C59.1936 268.783 59.3924 269.105 59.5276 269.479C59.6707 269.845 59.7383 270.246 59.7304 270.684L59.7184 271.209H54.6009L54.3265 270.231H58.6568L58.4778 270.433V270.147C58.454 269.885 58.3665 269.65 58.2154 269.443C58.0643 269.236 57.8734 269.073 57.6428 268.954C57.4122 268.835 57.1617 268.775 56.8913 268.775C56.4618 268.775 56.1 268.859 55.8057 269.026C55.5115 269.185 55.2888 269.423 55.1377 269.741C54.9866 270.052 54.9111 270.437 54.9111 270.899C54.9111 271.336 55.0025 271.718 55.1854 272.044C55.3683 272.362 55.6268 272.608 55.9608 272.783C56.2948 272.958 56.6805 273.046 57.1179 273.046C57.4281 273.046 57.7144 272.994 57.9768 272.891C58.2472 272.787 58.5375 272.6 58.8476 272.33L59.4679 273.201C59.2771 273.392 59.0425 273.559 58.7641 273.702C58.4937 273.845 58.2035 273.96 57.8933 274.048C57.5911 274.127 57.2929 274.167 56.9986 274.167ZM63.1532 274.167C62.6284 274.167 62.1552 274.076 61.7337 273.893C61.3122 273.71 60.9623 273.439 60.6839 273.082L61.519 272.366C61.7575 272.644 62.016 272.847 62.2943 272.974C62.5806 273.094 62.9027 273.153 63.2606 273.153C63.4037 273.153 63.535 273.137 63.6543 273.105C63.7815 273.066 63.8889 273.01 63.9763 272.938C64.0718 272.867 64.1433 272.783 64.1911 272.688C64.2388 272.585 64.2626 272.473 64.2626 272.354C64.2626 272.147 64.1871 271.98 64.036 271.853C63.9565 271.797 63.8292 271.738 63.6543 271.674C63.4872 271.602 63.2685 271.531 62.9982 271.459C62.5369 271.34 62.1592 271.205 61.8649 271.054C61.5707 270.903 61.344 270.732 61.185 270.541C61.0657 270.39 60.9782 270.227 60.9225 270.052C60.8668 269.869 60.839 269.67 60.839 269.455C60.839 269.193 60.8947 268.954 61.006 268.739C61.1253 268.517 61.2844 268.326 61.4832 268.167C61.6899 268 61.9285 267.873 62.1989 267.785C62.4773 267.698 62.7715 267.654 63.0817 267.654C63.3759 267.654 63.6662 267.694 63.9525 267.773C64.2467 267.853 64.5171 267.968 64.7636 268.119C65.0102 268.27 65.2169 268.449 65.384 268.656L64.6801 269.431C64.529 269.28 64.362 269.149 64.1791 269.038C64.0042 268.918 63.8252 268.827 63.6423 268.763C63.4594 268.7 63.2924 268.668 63.1413 268.668C62.9743 268.668 62.8232 268.684 62.688 268.716C62.5528 268.747 62.4375 268.795 62.3421 268.859C62.2546 268.922 62.187 269.002 62.1393 269.097C62.0916 269.193 62.0677 269.3 62.0677 269.419C62.0757 269.523 62.0995 269.622 62.1393 269.718C62.187 269.805 62.2506 269.881 62.3301 269.944C62.4176 270.008 62.5488 270.076 62.7238 270.147C62.8988 270.219 63.1214 270.286 63.3918 270.35C63.7894 270.453 64.1155 270.569 64.37 270.696C64.6324 270.815 64.8392 270.954 64.9903 271.113C65.1493 271.264 65.2607 271.439 65.3243 271.638C65.3879 271.837 65.4197 272.06 65.4197 272.306C65.4197 272.664 65.3164 272.986 65.1096 273.272C64.9108 273.551 64.6404 273.77 64.2984 273.929C63.9565 274.088 63.5747 274.167 63.1532 274.167Z" fill="#8A9FB8"/>
<path d="M18.0052 296.872V288.522H19.2696L22.3115 293.472L21.7031 293.46L24.7808 288.522H25.9737V296.872H24.6854V293.448C24.6854 292.733 24.7013 292.089 24.7331 291.516C24.7729 290.943 24.8365 290.375 24.924 289.81L25.091 290.251L22.3592 294.474H21.5719L18.9237 290.299L19.0549 289.81C19.1424 290.343 19.202 290.892 19.2338 291.456C19.2736 292.013 19.2935 292.677 19.2935 293.448V296.872H18.0052ZM30.4144 296.991C29.8974 296.991 29.4243 296.848 28.9948 296.562C28.5733 296.276 28.2353 295.886 27.9809 295.393C27.7264 294.9 27.5991 294.343 27.5991 293.723C27.5991 293.095 27.7264 292.538 27.9809 292.053C28.2433 291.56 28.5932 291.174 29.0306 290.896C29.476 290.617 29.973 290.478 30.5217 290.478C30.8478 290.478 31.146 290.526 31.4164 290.621C31.6868 290.717 31.9214 290.852 32.1202 291.027C32.327 291.194 32.494 291.389 32.6212 291.611C32.7564 291.834 32.8399 292.073 32.8717 292.327L32.5974 292.232V290.609H33.838V296.872H32.5974V295.381L32.8837 295.297C32.8359 295.512 32.7365 295.723 32.5854 295.93C32.4423 296.128 32.2554 296.307 32.0248 296.466C31.8021 296.626 31.5516 296.753 31.2733 296.848C31.0029 296.944 30.7166 296.991 30.4144 296.991ZM30.7364 295.858C31.1102 295.858 31.4403 295.767 31.7266 295.584C32.0128 295.401 32.2355 295.15 32.3946 294.832C32.5616 294.506 32.6451 294.136 32.6451 293.723C32.6451 293.317 32.5616 292.955 32.3946 292.637C32.2355 292.319 32.0128 292.069 31.7266 291.886C31.4403 291.703 31.1102 291.611 30.7364 291.611C30.3706 291.611 30.0446 291.703 29.7583 291.886C29.4799 292.069 29.2573 292.319 29.0902 292.637C28.9312 292.955 28.8517 293.317 28.8517 293.723C28.8517 294.136 28.9312 294.506 29.0902 294.832C29.2573 295.15 29.4799 295.401 29.7583 295.584C30.0446 295.767 30.3706 295.858 30.7364 295.858ZM35.7563 296.872V290.609H36.985V296.872H35.7563ZM36.3528 289.226C36.0903 289.226 35.8875 289.158 35.7444 289.023C35.6012 288.888 35.5297 288.697 35.5297 288.45C35.5297 288.22 35.6012 288.033 35.7444 287.89C35.8955 287.746 36.0983 287.675 36.3528 287.675C36.6152 287.675 36.818 287.742 36.9611 287.878C37.1043 288.013 37.1759 288.204 37.1759 288.45C37.1759 288.681 37.1003 288.868 36.9492 289.011C36.8061 289.154 36.6072 289.226 36.3528 289.226ZM38.8974 296.872V288.045H40.1261V296.872H38.8974ZM45.1599 296.991C44.8895 296.991 44.6191 296.948 44.3487 296.86C44.0863 296.773 43.8437 296.657 43.621 296.514C43.4063 296.363 43.2234 296.2 43.0723 296.025C42.9292 295.842 42.8337 295.659 42.786 295.476L43.0962 295.309V296.836H41.8675V288.045H43.0962V292.041L42.9053 291.933C42.9451 291.751 43.0325 291.576 43.1677 291.409C43.3029 291.234 43.4739 291.079 43.6807 290.943C43.8954 290.8 44.126 290.689 44.3726 290.609C44.6191 290.522 44.8696 290.478 45.1241 290.478C45.6887 290.478 46.1897 290.617 46.6271 290.896C47.0645 291.174 47.4105 291.56 47.665 292.053C47.9194 292.538 48.0467 293.095 48.0467 293.723C48.0467 294.351 47.9194 294.912 47.665 295.405C47.4184 295.898 47.0765 296.288 46.6391 296.574C46.2017 296.852 45.7086 296.991 45.1599 296.991ZM44.9571 295.87C45.3229 295.87 45.649 295.779 45.9353 295.596C46.2216 295.405 46.4482 295.15 46.6152 294.832C46.7822 294.506 46.8657 294.136 46.8657 293.723C46.8657 293.317 46.7822 292.955 46.6152 292.637C46.4562 292.311 46.2335 292.057 45.9472 291.874C45.6609 291.691 45.3309 291.599 44.9571 291.599C44.5833 291.599 44.2533 291.691 43.967 291.874C43.6807 292.057 43.454 292.311 43.287 292.637C43.12 292.955 43.0365 293.317 43.0365 293.723C43.0365 294.136 43.12 294.506 43.287 294.832C43.454 295.15 43.6807 295.405 43.967 295.596C44.2533 295.779 44.5833 295.87 44.9571 295.87ZM52.1966 296.991C51.5842 296.991 51.0355 296.852 50.5504 296.574C50.0732 296.288 49.6955 295.902 49.4171 295.417C49.1388 294.924 48.9996 294.363 48.9996 293.735C48.9996 293.106 49.1388 292.55 49.4171 292.065C49.6955 291.572 50.0732 291.186 50.5504 290.908C51.0355 290.621 51.5842 290.478 52.1966 290.478C52.801 290.478 53.3418 290.621 53.8189 290.908C54.304 291.186 54.6857 291.572 54.9641 292.065C55.2424 292.55 55.3816 293.106 55.3816 293.735C55.3816 294.363 55.2424 294.924 54.9641 295.417C54.6857 295.902 54.304 296.288 53.8189 296.574C53.3418 296.852 52.801 296.991 52.1966 296.991ZM52.1966 295.87C52.5703 295.87 52.9044 295.779 53.1986 295.596C53.4929 295.405 53.7235 295.15 53.8905 294.832C54.0575 294.506 54.137 294.14 54.1291 293.735C54.137 293.321 54.0575 292.955 53.8905 292.637C53.7235 292.311 53.4929 292.057 53.1986 291.874C52.9044 291.691 52.5703 291.599 52.1966 291.599C51.8228 291.599 51.4848 291.695 51.1826 291.886C50.8884 292.069 50.6577 292.323 50.4907 292.649C50.3237 292.967 50.2442 293.329 50.2521 293.735C50.2442 294.14 50.3237 294.506 50.4907 294.832C50.6577 295.15 50.8884 295.405 51.1826 295.596C51.4848 295.779 51.8228 295.87 52.1966 295.87ZM60.6507 296.872L58.6227 294.236L58.4438 294.009L55.8075 290.609H57.3583L59.3504 293.21L59.5532 293.472L62.1537 296.872H60.6507ZM55.8194 296.872L58.2887 293.651L59.0164 294.522L57.2748 296.872H55.8194ZM59.6248 293.842L58.9448 292.983L60.4837 290.609H61.939L59.6248 293.842Z" fill="#8A9FB8"/>
<path d="M23.4567 319.29V310.939H24.745V319.29H23.4567ZM18.0052 319.29V310.939H19.2935V319.29H18.0052ZM18.5658 315.747V314.506H24.0293V315.747H18.5658ZM29.5851 319.409C28.9728 319.409 28.424 319.27 27.9389 318.991C27.4618 318.705 27.084 318.319 26.8057 317.834C26.5273 317.341 26.3882 316.78 26.3882 316.152C26.3882 315.524 26.5273 314.967 26.8057 314.482C27.084 313.989 27.4618 313.603 27.9389 313.325C28.424 313.039 28.9728 312.896 29.5851 312.896C30.1895 312.896 30.7303 313.039 31.2075 313.325C31.6926 313.603 32.0743 313.989 32.3526 314.482C32.631 314.967 32.7702 315.524 32.7702 316.152C32.7702 316.78 32.631 317.341 32.3526 317.834C32.0743 318.319 31.6926 318.705 31.2075 318.991C30.7303 319.27 30.1895 319.409 29.5851 319.409ZM29.5851 318.288C29.9589 318.288 30.2929 318.196 30.5871 318.013C30.8814 317.822 31.112 317.568 31.279 317.25C31.446 316.924 31.5256 316.558 31.5176 316.152C31.5256 315.739 31.446 315.373 31.279 315.055C31.112 314.729 30.8814 314.474 30.5871 314.291C30.2929 314.108 29.9589 314.017 29.5851 314.017C29.2113 314.017 28.8734 314.112 28.5712 314.303C28.2769 314.486 28.0463 314.741 27.8793 315.067C27.7123 315.385 27.6327 315.747 27.6407 316.152C27.6327 316.558 27.7123 316.924 27.8793 317.25C28.0463 317.568 28.2769 317.822 28.5712 318.013C28.8734 318.196 29.2113 318.288 29.5851 318.288ZM36.1966 319.409C35.6717 319.409 35.1985 319.317 34.777 319.134C34.3555 318.952 34.0056 318.681 33.7273 318.323L34.5623 317.608C34.8009 317.886 35.0593 318.089 35.3377 318.216C35.624 318.335 35.9461 318.395 36.3039 318.395C36.4471 318.395 36.5783 318.379 36.6976 318.347C36.8248 318.307 36.9322 318.252 37.0197 318.18C37.1151 318.109 37.1867 318.025 37.2344 317.93C37.2821 317.826 37.306 317.715 37.306 317.596C37.306 317.389 37.2304 317.222 37.0793 317.095C36.9998 317.039 36.8725 316.979 36.6976 316.916C36.5306 316.844 36.3119 316.773 36.0415 316.701C35.5802 316.582 35.2025 316.446 34.9082 316.295C34.614 316.144 34.3873 315.973 34.2283 315.782C34.109 315.631 34.0215 315.468 33.9658 315.293C33.9102 315.11 33.8823 314.912 33.8823 314.697C33.8823 314.434 33.938 314.196 34.0493 313.981C34.1686 313.758 34.3277 313.568 34.5265 313.409C34.7333 313.242 34.9719 313.114 35.2422 313.027C35.5206 312.939 35.8148 312.896 36.125 312.896C36.4192 312.896 36.7095 312.935 36.9958 313.015C37.29 313.094 37.5604 313.21 37.807 313.361C38.0535 313.512 38.2603 313.691 38.4273 313.898L37.7235 314.673C37.5724 314.522 37.4054 314.391 37.2225 314.279C37.0475 314.16 36.8686 314.069 36.6856 314.005C36.5027 313.941 36.3357 313.91 36.1846 313.91C36.0176 313.91 35.8665 313.925 35.7313 313.957C35.5961 313.989 35.4808 314.037 35.3854 314.1C35.2979 314.164 35.2303 314.244 35.1826 314.339C35.1349 314.434 35.111 314.542 35.111 314.661C35.119 314.764 35.1428 314.864 35.1826 314.959C35.2303 315.047 35.2939 315.122 35.3735 315.186C35.4609 315.25 35.5922 315.317 35.7671 315.389C35.9421 315.46 36.1648 315.528 36.4351 315.592C36.8328 315.695 37.1588 315.81 37.4133 315.938C37.6758 316.057 37.8825 316.196 38.0336 316.355C38.1927 316.506 38.304 316.681 38.3676 316.88C38.4313 317.079 38.4631 317.301 38.4631 317.548C38.4631 317.906 38.3597 318.228 38.1529 318.514C37.9541 318.793 37.6837 319.011 37.3417 319.17C36.9998 319.329 36.6181 319.409 36.1966 319.409ZM40.5926 319.29V311.428H41.8213V319.29H40.5926ZM39.2923 314.22V313.027H43.2766V314.22H39.2923ZM44.5982 319.29V313.027H45.8269V319.29H44.5982ZM45.1946 311.643C44.9322 311.643 44.7294 311.575 44.5863 311.44C44.4431 311.305 44.3715 311.114 44.3715 310.868C44.3715 310.637 44.4431 310.45 44.5863 310.307C44.7374 310.164 44.9402 310.092 45.1946 310.092C45.4571 310.092 45.6599 310.16 45.803 310.295C45.9462 310.43 46.0177 310.621 46.0177 310.868C46.0177 311.098 45.9422 311.285 45.7911 311.428C45.6479 311.572 45.4491 311.643 45.1946 311.643ZM47.7155 319.29V313.027H48.9442V314.315L48.7294 314.458C48.809 314.18 48.964 313.925 49.1947 313.695C49.4253 313.456 49.6997 313.265 50.0178 313.122C50.3359 312.971 50.6619 312.896 50.9959 312.896C51.4731 312.896 51.8707 312.991 52.1888 313.182C52.5069 313.365 52.7455 313.647 52.9046 314.029C53.0636 314.411 53.1432 314.892 53.1432 315.472V319.29H51.9145V315.556C51.9145 315.198 51.8668 314.904 51.7713 314.673C51.6759 314.434 51.5288 314.263 51.33 314.16C51.1311 314.049 50.8846 314.001 50.5904 314.017C50.3518 314.017 50.1331 314.057 49.9343 314.136C49.7354 314.208 49.5605 314.311 49.4094 314.446C49.2662 314.582 49.1509 314.741 49.0634 314.924C48.9839 315.099 48.9442 315.289 48.9442 315.496V319.29H48.3358C48.2324 319.29 48.129 319.29 48.0256 319.29C47.9222 319.29 47.8189 319.29 47.7155 319.29ZM57.6133 322.033C57.1679 322.033 56.7226 321.962 56.2772 321.818C55.8398 321.683 55.4859 321.504 55.2155 321.282L55.6688 320.327C55.8279 320.447 56.0148 320.55 56.2295 320.638C56.4442 320.733 56.6709 320.805 56.9094 320.852C57.148 320.908 57.3826 320.936 57.6133 320.936C58.0507 320.936 58.4165 320.864 58.7107 320.721C59.005 320.578 59.2276 320.367 59.3787 320.089C59.5298 319.81 59.6054 319.465 59.6054 319.051V317.846L59.7366 317.93C59.6968 318.176 59.5656 318.415 59.343 318.645C59.1282 318.868 58.8578 319.051 58.5318 319.194C58.2057 319.337 57.8717 319.409 57.5298 319.409C56.9333 319.409 56.4005 319.27 55.9313 318.991C55.47 318.705 55.1042 318.319 54.8338 317.834C54.5634 317.341 54.4282 316.78 54.4282 316.152C54.4282 315.524 54.5594 314.967 54.8219 314.482C55.0923 313.989 55.4581 313.603 55.9193 313.325C56.3885 313.039 56.9134 312.896 57.494 312.896C57.7325 312.896 57.9632 312.927 58.1858 312.991C58.4085 313.047 58.6153 313.13 58.8062 313.242C58.997 313.345 59.168 313.46 59.3191 313.588C59.4702 313.715 59.5935 313.85 59.6889 313.993C59.7843 314.136 59.844 314.271 59.8678 314.399L59.6054 314.494V313.027H60.8341V318.908C60.8341 319.409 60.7585 319.85 60.6074 320.232C60.4643 320.622 60.2535 320.948 59.9752 321.21C59.6968 321.481 59.3589 321.683 58.9612 321.818C58.5636 321.962 58.1143 322.033 57.6133 322.033ZM57.661 318.276C58.0507 318.276 58.3966 318.184 58.6988 318.001C59.001 317.818 59.2356 317.568 59.4026 317.25C59.5696 316.932 59.6531 316.566 59.6531 316.152C59.6531 315.739 59.5656 315.373 59.3907 315.055C59.2237 314.729 58.9891 314.474 58.6869 314.291C58.3926 314.108 58.0507 314.017 57.661 314.017C57.2792 314.017 56.9373 314.112 56.6351 314.303C56.3408 314.486 56.1062 314.741 55.9313 315.067C55.7643 315.385 55.6808 315.747 55.6808 316.152C55.6808 316.558 55.7643 316.924 55.9313 317.25C56.1062 317.568 56.3408 317.818 56.6351 318.001C56.9373 318.184 57.2792 318.276 57.661 318.276Z" fill="#8A9FB8"/>
<path d="M6.71059 266.302C6.71059 265.677 6.20359 265.17 5.57817 265.17C4.95275 265.17 4.44574 265.677 4.44574 266.302V273.872C4.44574 274.497 4.95275 275.004 5.57817 275.004C6.20359 275.004 6.71059 274.497 6.71059 273.872V266.302Z" fill="#9F88FD"/>
<path d="M6.71059 288.885C6.71059 288.26 6.20359 287.753 5.57817 287.753C4.95275 287.753 4.44574 288.26 4.44574 288.885V296.455C4.44574 297.08 4.95275 297.587 5.57817 297.587C6.20359 297.587 6.71059 297.08 6.71059 296.455V288.885Z" fill="#9F88FD"/>
<path d="M6.71059 311.385C6.71059 310.76 6.20359 310.253 5.57817 310.253C4.95275 310.253 4.44574 310.76 4.44574 311.385V318.955C4.44574 319.58 4.95275 320.087 5.57817 320.087C6.20359 320.087 6.71059 319.58 6.71059 318.955V311.385Z" fill="#9F88FD"/>
<path d="M463.106 364.61V182.162C463.106 178.042 459.767 174.703 455.647 174.703H300.389C296.269 174.703 292.929 178.042 292.929 182.162V364.61C292.929 368.73 296.269 372.069 300.389 372.069H455.647C459.767 372.069 463.106 368.73 463.106 364.61Z" fill="#3E4C5C" stroke="#262E38" stroke-width="1.2" stroke-miterlimit="10"/>
<path d="M448.512 247.941H309.014C304.554 247.941 300.939 251.557 300.939 256.017V290.341C300.939 294.801 304.554 298.417 309.014 298.417H448.512C452.971 298.417 456.587 294.801 456.587 290.341V256.017C456.587 251.557 452.971 247.941 448.512 247.941Z" fill="#536375" stroke="#262E38" stroke-width="1.2" stroke-miterlimit="10"/>
<path d="M453.288 256.023V290.342C453.288 292.981 451.144 295.119 448.511 295.119H309.019C306.38 295.119 304.242 292.975 304.242 290.342V256.023C304.242 253.384 306.386 251.246 309.019 251.246H448.511C451.15 251.246 453.288 253.384 453.288 256.023Z" fill="#1E2022"/>
<path d="M331.482 279.025L336.752 265.511H339.108L344.34 279.025H341.733L338.837 271.341C338.773 271.187 338.683 270.942 338.567 270.607C338.464 270.273 338.348 269.912 338.22 269.526C338.091 269.127 337.975 268.76 337.872 268.426C337.769 268.078 337.692 267.827 337.64 267.673L338.123 267.654C338.046 267.911 337.956 268.201 337.853 268.522C337.75 268.844 337.64 269.179 337.525 269.526C337.409 269.874 337.293 270.208 337.177 270.53C337.074 270.852 336.978 271.142 336.887 271.399L333.992 279.025H331.482ZM333.876 275.936L334.744 273.754H340.903L341.83 275.936H333.876ZM346.063 279.025V276.805H348.283V267.731H346.063V265.511H353.013V267.731H350.793V276.805H353.013V279.025H346.063ZM361.89 279.025V265.511H370.733V267.789H364.362V276.747H370.81V279.025H361.89ZM363.049 273.233V270.994H369.748V273.233H363.049ZM373.532 279.025V268.851H375.849L375.887 270.936L375.443 271.167C375.572 270.704 375.823 270.286 376.196 269.912C376.57 269.526 377.014 269.217 377.528 268.986C378.043 268.754 378.571 268.638 379.112 268.638C379.884 268.638 380.527 268.793 381.042 269.101C381.57 269.41 381.962 269.874 382.22 270.492C382.49 271.109 382.625 271.882 382.625 272.808V279.025H380.251V272.982C380.251 272.467 380.18 272.042 380.038 271.708C379.897 271.36 379.678 271.109 379.382 270.955C379.086 270.788 378.725 270.71 378.301 270.723C377.953 270.723 377.631 270.781 377.335 270.897C377.052 271 376.801 271.154 376.582 271.36C376.377 271.553 376.209 271.779 376.08 272.036C375.965 272.293 375.907 272.577 375.907 272.886V279.025H374.729C374.497 279.025 374.279 279.025 374.073 279.025C373.88 279.025 373.699 279.025 373.532 279.025ZM389.872 283.465C389.113 283.465 388.354 283.35 387.594 283.118C386.848 282.886 386.243 282.584 385.779 282.21L386.629 280.454C386.899 280.647 387.202 280.814 387.536 280.956C387.871 281.097 388.225 281.207 388.598 281.284C388.984 281.361 389.364 281.4 389.737 281.4C390.419 281.4 390.986 281.29 391.436 281.071C391.9 280.865 392.247 280.544 392.479 280.106C392.71 279.681 392.826 279.147 392.826 278.504V276.631L393.174 276.766C393.097 277.165 392.884 277.545 392.537 277.905C392.189 278.266 391.752 278.562 391.224 278.793C390.696 279.012 390.156 279.121 389.602 279.121C388.637 279.121 387.781 278.896 387.034 278.446C386.301 277.995 385.715 277.384 385.278 276.612C384.853 275.827 384.64 274.926 384.64 273.909C384.64 272.892 384.853 271.991 385.278 271.206C385.702 270.408 386.281 269.784 387.015 269.333C387.762 268.87 388.598 268.638 389.525 268.638C389.911 268.638 390.284 268.683 390.645 268.773C391.005 268.863 391.333 268.992 391.629 269.159C391.938 269.327 392.215 269.513 392.459 269.719C392.704 269.925 392.903 270.144 393.058 270.376C393.212 270.607 393.309 270.833 393.348 271.051L392.846 271.206L392.884 268.851H395.22V278.33C395.22 279.154 395.098 279.881 394.853 280.511C394.609 281.142 394.255 281.676 393.792 282.114C393.328 282.564 392.768 282.899 392.112 283.118C391.456 283.35 390.709 283.465 389.872 283.465ZM389.969 277.094C390.548 277.094 391.057 276.959 391.494 276.689C391.945 276.419 392.292 276.045 392.537 275.569C392.781 275.093 392.903 274.546 392.903 273.928C392.903 273.297 392.775 272.744 392.517 272.268C392.273 271.779 391.932 271.399 391.494 271.129C391.057 270.858 390.548 270.723 389.969 270.723C389.39 270.723 388.881 270.865 388.444 271.148C388.006 271.418 387.659 271.798 387.401 272.287C387.157 272.763 387.034 273.31 387.034 273.928C387.034 274.533 387.157 275.08 387.401 275.569C387.659 276.045 388.006 276.419 388.444 276.689C388.881 276.959 389.39 277.094 389.969 277.094ZM398.237 279.025V268.851H400.611V279.025H398.237ZM399.395 266.688C398.919 266.688 398.546 266.572 398.275 266.341C398.018 266.096 397.889 265.755 397.889 265.317C397.889 264.906 398.024 264.571 398.295 264.314C398.565 264.056 398.932 263.927 399.395 263.927C399.884 263.927 400.258 264.05 400.515 264.294C400.785 264.526 400.92 264.867 400.92 265.317C400.92 265.716 400.785 266.045 400.515 266.302C400.245 266.56 399.871 266.688 399.395 266.688ZM403.623 279.025V268.851H405.939L405.978 270.936L405.534 271.167C405.663 270.704 405.914 270.286 406.287 269.912C406.66 269.526 407.104 269.217 407.619 268.986C408.134 268.754 408.662 268.638 409.202 268.638C409.974 268.638 410.618 268.793 411.133 269.101C411.66 269.41 412.053 269.874 412.31 270.492C412.581 271.109 412.716 271.882 412.716 272.808V279.025H410.341V272.982C410.341 272.467 410.27 272.042 410.129 271.708C409.987 271.36 409.768 271.109 409.472 270.955C409.176 270.788 408.816 270.71 408.391 270.723C408.044 270.723 407.722 270.781 407.426 270.897C407.143 271 406.892 271.154 406.673 271.36C406.467 271.553 406.3 271.779 406.171 272.036C406.055 272.293 405.997 272.577 405.997 272.886V279.025H404.82C404.588 279.025 404.369 279.025 404.163 279.025C403.97 279.025 403.79 279.025 403.623 279.025ZM420.156 279.218C419.088 279.218 418.142 278.993 417.318 278.542C416.507 278.092 415.87 277.48 415.407 276.708C414.956 275.923 414.731 275.029 414.731 274.025C414.731 273.227 414.86 272.499 415.117 271.843C415.375 271.187 415.728 270.62 416.179 270.144C416.642 269.655 417.189 269.282 417.82 269.024C418.464 268.754 419.165 268.619 419.924 268.619C420.594 268.619 421.218 268.748 421.797 269.005C422.376 269.262 422.878 269.616 423.303 270.067C423.728 270.504 424.049 271.032 424.268 271.65C424.5 272.255 424.609 272.918 424.596 273.638L424.577 274.469H416.333L415.889 272.847H422.589L422.28 273.175V272.75C422.241 272.351 422.112 272.004 421.894 271.708C421.675 271.399 421.392 271.161 421.044 270.994C420.709 270.813 420.336 270.723 419.924 270.723C419.294 270.723 418.76 270.845 418.322 271.09C417.897 271.335 417.575 271.689 417.357 272.152C417.138 272.602 417.028 273.169 417.028 273.851C417.028 274.507 417.164 275.08 417.434 275.569C417.717 276.058 418.11 276.438 418.612 276.708C419.126 276.966 419.725 277.094 420.407 277.094C420.883 277.094 421.321 277.017 421.72 276.863C422.119 276.708 422.55 276.431 423.013 276.032L424.191 277.673C423.844 277.995 423.445 278.272 422.994 278.504C422.556 278.722 422.093 278.896 421.604 279.025C421.115 279.154 420.632 279.218 420.156 279.218Z" fill="white"/>
<path d="M448.511 181.497H371.176C366.718 181.497 363.101 185.114 363.101 189.572V204.124H343.674V189.572C343.674 185.114 340.057 181.497 335.598 181.497H307.315C302.857 181.497 299.24 185.114 299.24 189.572V223.892C299.24 228.35 302.857 231.967 307.315 231.967H335.598C340.057 231.967 343.674 228.35 343.674 223.892V209.341H363.101V223.892C363.101 228.35 366.718 231.967 371.176 231.967H448.511C452.969 231.967 456.587 228.35 456.587 223.892V189.572C456.587 185.114 452.969 181.497 448.511 181.497Z" fill="#536375" stroke="#262E38" stroke-width="1.2" stroke-miterlimit="10"/>
<path d="M311.829 189.066H308.107C306.631 189.066 305.435 190.263 305.435 191.738V195.46C305.435 196.935 306.631 198.131 308.107 198.131H311.829C313.304 198.131 314.5 196.935 314.5 195.46V191.738C314.5 190.263 313.304 189.066 311.829 189.066Z" fill="#3E4C5C" stroke="#262E38" stroke-width="1.2" stroke-linecap="round" stroke-linejoin="round"/>
<path d="M377.223 189.066H373.501C372.026 189.066 370.83 190.263 370.83 191.738V195.46C370.83 196.935 372.026 198.131 373.501 198.131H377.223C378.698 198.131 379.894 196.935 379.894 195.46V191.738C379.894 190.263 378.698 189.066 377.223 189.066Z" fill="#3E4C5C" stroke="#262E38" stroke-width="1.2" stroke-linecap="round" stroke-linejoin="round"/>
<path d="M446.51 189.066H442.789C441.313 189.066 440.117 190.263 440.117 191.738V195.46C440.117 196.935 441.313 198.131 442.789 198.131H446.51C447.986 198.131 449.182 196.935 449.182 195.46V191.738C449.182 190.263 447.986 189.066 446.51 189.066Z" fill="#3E4C5C" stroke="#262E38" stroke-width="1.2" stroke-linecap="round" stroke-linejoin="round"/>
<path d="M446.51 215.612H442.789C441.313 215.612 440.117 216.808 440.117 218.284V222.006C440.117 223.481 441.313 224.677 442.789 224.677H446.51C447.986 224.677 449.182 223.481 449.182 222.006V218.284C449.182 216.808 447.986 215.612 446.51 215.612Z" fill="#3E4C5C" stroke="#262E38" stroke-width="1.2" stroke-linecap="round" stroke-linejoin="round"/>
<path d="M377.389 215.612H373.667C372.191 215.612 370.995 216.808 370.995 218.284V222.006C370.995 223.481 372.191 224.677 373.667 224.677H377.389C378.864 224.677 380.06 223.481 380.06 222.006V218.284C380.06 216.808 378.864 215.612 377.389 215.612Z" fill="#3E4C5C" stroke="#262E38" stroke-width="1.2" stroke-linecap="round" stroke-linejoin="round"/>
<path d="M334.57 189.066H330.849C329.373 189.066 328.177 190.263 328.177 191.738V195.46C328.177 196.935 329.373 198.131 330.849 198.131H334.57C336.046 198.131 337.242 196.935 337.242 195.46V191.738C337.242 190.263 336.046 189.066 334.57 189.066Z" fill="#3E4C5C" stroke="#262E38" stroke-width="1.2" stroke-linecap="round" stroke-linejoin="round"/>
<path d="M311.829 215.937H308.107C306.631 215.937 305.435 217.133 305.435 218.609V222.33C305.435 223.806 306.631 225.002 308.107 225.002H311.829C313.304 225.002 314.5 223.806 314.5 222.33V218.609C314.5 217.133 313.304 215.937 311.829 215.937Z" fill="#3E4C5C" stroke="#262E38" stroke-width="1.2" stroke-linecap="round" stroke-linejoin="round"/>
<path d="M334.57 215.937H330.849C329.373 215.937 328.177 217.133 328.177 218.609V222.33C328.177 223.806 329.373 225.002 330.849 225.002H334.57C336.046 225.002 337.242 223.806 337.242 222.33V218.609C337.242 217.133 336.046 215.937 334.57 215.937Z" fill="#3E4C5C" stroke="#262E38" stroke-width="1.2" stroke-linecap="round" stroke-linejoin="round"/>
<path d="M307.315 314.975H384.65C389.108 314.975 392.725 318.592 392.725 323.05V337.601H412.152V323.05C412.152 318.592 415.77 314.975 420.228 314.975H448.511C452.969 314.975 456.586 318.592 456.586 323.05V357.369C456.586 361.827 452.969 365.445 448.511 365.445H420.228C415.77 365.445 412.152 361.827 412.152 357.369V342.818H392.725V357.369C392.725 361.827 389.108 365.445 384.65 365.445H307.315C302.857 365.445 299.239 361.827 299.239 357.369V323.05C299.239 318.592 302.857 314.975 307.315 314.975Z" fill="#536375" stroke="#262E38" stroke-width="1.2" stroke-miterlimit="10"/>
<path d="M443.997 322.544H447.719C449.195 322.544 450.391 323.741 450.391 325.216V328.938C450.391 330.413 449.195 331.609 447.719 331.609H443.997C442.522 331.609 441.326 330.413 441.326 328.938V325.216C441.326 323.741 442.522 322.544 443.997 322.544Z" fill="#3E4C5C" stroke="#262E38" stroke-width="1.2" stroke-linecap="round" stroke-linejoin="round"/>
<path d="M378.603 322.544H382.325C383.8 322.544 384.996 323.741 384.996 325.216V328.938C384.996 330.413 383.8 331.609 382.325 331.609H378.603C377.128 331.609 375.932 330.413 375.932 328.938V325.216C375.932 323.741 377.128 322.544 378.603 322.544Z" fill="#3E4C5C" stroke="#262E38" stroke-width="1.2" stroke-linecap="round" stroke-linejoin="round"/>
<path d="M309.316 322.544H313.037C314.513 322.544 315.709 323.741 315.709 325.216V328.938C315.709 330.413 314.513 331.609 313.037 331.609H309.316C307.84 331.609 306.644 330.413 306.644 328.938V325.216C306.644 323.741 307.84 322.544 309.316 322.544Z" fill="#3E4C5C" stroke="#262E38" stroke-width="1.2" stroke-linecap="round" stroke-linejoin="round"/>
<path d="M309.316 349.09H313.037C314.513 349.09 315.709 350.286 315.709 351.762V355.484C315.709 356.959 314.513 358.155 313.037 358.155H309.316C307.84 358.155 306.644 356.959 306.644 355.484V351.762C306.644 350.286 307.84 349.09 309.316 349.09Z" fill="#3E4C5C" stroke="#262E38" stroke-width="1.2" stroke-linecap="round" stroke-linejoin="round"/>
<path d="M378.438 349.09H382.159C383.635 349.09 384.831 350.286 384.831 351.762V355.484C384.831 356.959 383.635 358.155 382.159 358.155H378.438C376.962 358.155 375.766 356.959 375.766 355.484V351.762C375.766 350.286 376.962 349.09 378.438 349.09Z" fill="#3E4C5C" stroke="#262E38" stroke-width="1.2" stroke-linecap="round" stroke-linejoin="round"/>
<path d="M421.256 322.544H424.977C426.453 322.544 427.649 323.741 427.649 325.216V328.938C427.649 330.413 426.453 331.609 424.977 331.609H421.256C419.78 331.609 418.584 330.413 418.584 328.938V325.216C418.584 323.741 419.78 322.544 421.256 322.544Z" fill="#3E4C5C" stroke="#262E38" stroke-width="1.2" stroke-linecap="round" stroke-linejoin="round"/>
<path d="M443.997 349.415H447.719C449.195 349.415 450.391 350.611 450.391 352.086V355.808C450.391 357.283 449.195 358.479 447.719 358.479H443.997C442.522 358.479 441.326 357.283 441.326 355.808V352.086C441.326 350.611 442.522 349.415 443.997 349.415Z" fill="#3E4C5C" stroke="#262E38" stroke-width="1.2" stroke-linecap="round" stroke-linejoin="round"/>
<path d="M421.256 349.415H424.977C426.453 349.415 427.649 350.611 427.649 352.086V355.808C427.649 357.283 426.453 358.479 424.977 358.479H421.256C419.78 358.479 418.584 357.283 418.584 355.808V352.086C418.584 350.611 419.78 349.415 421.256 349.415Z" fill="#3E4C5C" stroke="#262E38" stroke-width="1.2" stroke-linecap="round" stroke-linejoin="round"/>
<path d="M321.885 391.452V383.101H325.285C325.738 383.101 326.148 383.217 326.513 383.447C326.887 383.67 327.185 383.976 327.408 384.366C327.631 384.756 327.742 385.189 327.742 385.666C327.742 386.143 327.631 386.577 327.408 386.966C327.185 387.356 326.887 387.67 326.513 387.909C326.148 388.139 325.738 388.255 325.285 388.255H323.173V391.452H321.885ZM323.173 387.014H325.261C325.476 387.014 325.67 386.954 325.845 386.835C326.02 386.708 326.16 386.545 326.263 386.346C326.374 386.139 326.43 385.913 326.43 385.666C326.43 385.42 326.374 385.197 326.263 384.998C326.16 384.799 326.02 384.64 325.845 384.521C325.67 384.402 325.476 384.342 325.261 384.342H323.173V387.014ZM329.135 391.452V385.189H330.376V387.157L330.257 386.68C330.344 386.378 330.491 386.104 330.698 385.857C330.913 385.61 331.155 385.416 331.426 385.272C331.704 385.129 331.99 385.058 332.285 385.058C332.42 385.058 332.547 385.07 332.666 385.094C332.793 385.117 332.893 385.145 332.964 385.177L332.642 386.513C332.547 386.473 332.44 386.441 332.32 386.418C332.209 386.386 332.098 386.37 331.986 386.37C331.772 386.37 331.565 386.414 331.366 386.501C331.175 386.581 331.004 386.696 330.853 386.847C330.71 386.99 330.595 387.161 330.507 387.36C330.42 387.551 330.376 387.762 330.376 387.992V391.452H329.135ZM336.494 391.571C335.881 391.571 335.333 391.432 334.848 391.153C334.37 390.867 333.993 390.481 333.714 389.996C333.436 389.503 333.297 388.943 333.297 388.314C333.297 387.686 333.436 387.129 333.714 386.644C333.993 386.151 334.37 385.766 334.848 385.487C335.333 385.201 335.881 385.058 336.494 385.058C337.098 385.058 337.639 385.201 338.116 385.487C338.601 385.766 338.983 386.151 339.261 386.644C339.54 387.129 339.679 387.686 339.679 388.314C339.679 388.943 339.54 389.503 339.261 389.996C338.983 390.481 338.601 390.867 338.116 391.153C337.639 391.432 337.098 391.571 336.494 391.571ZM336.494 390.45C336.868 390.45 337.202 390.358 337.496 390.175C337.79 389.984 338.021 389.73 338.188 389.412C338.355 389.086 338.434 388.72 338.426 388.314C338.434 387.901 338.355 387.535 338.188 387.217C338.021 386.891 337.79 386.636 337.496 386.453C337.202 386.271 336.868 386.179 336.494 386.179C336.12 386.179 335.782 386.274 335.48 386.465C335.186 386.648 334.955 386.903 334.788 387.229C334.621 387.547 334.541 387.909 334.549 388.314C334.541 388.72 334.621 389.086 334.788 389.412C334.955 389.73 335.186 389.984 335.48 390.175C335.782 390.358 336.12 390.45 336.494 390.45ZM340.994 391.452V385.189H342.234V386.525L342.008 386.668C342.071 386.461 342.171 386.263 342.306 386.072C342.449 385.881 342.62 385.714 342.819 385.571C343.026 385.42 343.244 385.3 343.475 385.213C343.714 385.125 343.956 385.082 344.203 385.082C344.561 385.082 344.875 385.141 345.145 385.261C345.415 385.38 345.638 385.559 345.813 385.797C345.988 386.036 346.115 386.334 346.195 386.692L346.004 386.644L346.087 386.441C346.175 386.259 346.294 386.088 346.445 385.929C346.604 385.762 346.783 385.614 346.982 385.487C347.181 385.36 347.392 385.261 347.614 385.189C347.837 385.117 348.056 385.082 348.27 385.082C348.74 385.082 349.125 385.177 349.428 385.368C349.738 385.559 349.968 385.849 350.119 386.239C350.279 386.628 350.358 387.113 350.358 387.694V391.452H349.117V387.766C349.117 387.408 349.07 387.117 348.974 386.895C348.887 386.664 348.752 386.493 348.569 386.382C348.386 386.271 348.151 386.215 347.865 386.215C347.642 386.215 347.431 386.255 347.233 386.334C347.042 386.406 346.875 386.509 346.732 386.644C346.588 386.779 346.477 386.939 346.398 387.121C346.318 387.296 346.278 387.491 346.278 387.706V391.452H345.038V387.742C345.038 387.416 344.99 387.141 344.895 386.919C344.799 386.688 344.66 386.513 344.477 386.394C344.294 386.274 344.071 386.215 343.809 386.215C343.586 386.215 343.38 386.255 343.189 386.334C342.998 386.406 342.831 386.509 342.688 386.644C342.545 386.772 342.433 386.927 342.354 387.11C342.274 387.284 342.234 387.475 342.234 387.682V391.452H340.994ZM352.003 394.076V385.189H353.244V386.62L353.053 386.513C353.1 386.274 353.236 386.048 353.458 385.833C353.681 385.61 353.951 385.432 354.27 385.296C354.596 385.153 354.93 385.082 355.272 385.082C355.836 385.082 356.337 385.221 356.775 385.499C357.212 385.777 357.558 386.159 357.812 386.644C358.067 387.129 358.194 387.686 358.194 388.314C358.194 388.935 358.067 389.491 357.812 389.984C357.566 390.47 357.224 390.855 356.787 391.142C356.349 391.42 355.856 391.559 355.307 391.559C354.942 391.559 354.588 391.487 354.246 391.344C353.904 391.193 353.613 391.002 353.375 390.772C353.136 390.541 352.989 390.303 352.933 390.056L353.244 389.889V394.076H352.003ZM355.105 390.426C355.47 390.426 355.796 390.334 356.083 390.151C356.369 389.968 356.596 389.718 356.763 389.4C356.93 389.082 357.013 388.72 357.013 388.314C357.013 387.909 356.93 387.551 356.763 387.241C356.604 386.923 356.381 386.672 356.095 386.489C355.808 386.306 355.478 386.215 355.105 386.215C354.731 386.215 354.401 386.306 354.114 386.489C353.828 386.664 353.602 386.911 353.434 387.229C353.267 387.547 353.184 387.909 353.184 388.314C353.184 388.72 353.267 389.082 353.434 389.4C353.602 389.718 353.828 389.968 354.114 390.151C354.401 390.334 354.731 390.426 355.105 390.426ZM360.304 391.452V383.59H361.533V391.452H360.304ZM359.004 386.382V385.189H362.988V386.382H359.004ZM367.76 391.452V383.101H373.021V384.342H369.049V390.211H373.021V391.452H367.76ZM368.345 387.789V386.549H372.365V387.789H368.345ZM374.778 391.452V385.189H376.006V386.477L375.792 386.62C375.871 386.342 376.026 386.088 376.257 385.857C376.487 385.618 376.762 385.428 377.08 385.284C377.398 385.133 377.724 385.058 378.058 385.058C378.535 385.058 378.933 385.153 379.251 385.344C379.569 385.527 379.808 385.809 379.967 386.191C380.126 386.573 380.205 387.054 380.205 387.634V391.452H378.977V387.718C378.977 387.36 378.929 387.066 378.833 386.835C378.738 386.597 378.591 386.426 378.392 386.322C378.193 386.211 377.947 386.163 377.652 386.179C377.414 386.179 377.195 386.219 376.996 386.298C376.798 386.37 376.623 386.473 376.471 386.608C376.328 386.744 376.213 386.903 376.126 387.086C376.046 387.261 376.006 387.451 376.006 387.658V391.452H375.398C375.294 391.452 375.191 391.452 375.088 391.452C374.984 391.452 374.881 391.452 374.778 391.452ZM384.675 394.195C384.23 394.195 383.785 394.124 383.339 393.981C382.902 393.845 382.548 393.666 382.278 393.444L382.731 392.489C382.89 392.609 383.077 392.712 383.292 392.8C383.506 392.895 383.733 392.967 383.972 393.014C384.21 393.07 384.445 393.098 384.675 393.098C385.113 393.098 385.479 393.026 385.773 392.883C386.067 392.74 386.29 392.529 386.441 392.251C386.592 391.973 386.667 391.627 386.667 391.213V390.008L386.799 390.092C386.759 390.338 386.628 390.577 386.405 390.807C386.19 391.03 385.92 391.213 385.594 391.356C385.268 391.499 384.934 391.571 384.592 391.571C383.995 391.571 383.463 391.432 382.993 391.153C382.532 390.867 382.166 390.481 381.896 389.996C381.626 389.503 381.49 388.943 381.49 388.314C381.49 387.686 381.622 387.129 381.884 386.644C382.154 386.151 382.52 385.766 382.981 385.487C383.451 385.201 383.976 385.058 384.556 385.058C384.795 385.058 385.025 385.09 385.248 385.153C385.471 385.209 385.677 385.292 385.868 385.404C386.059 385.507 386.23 385.622 386.381 385.75C386.532 385.877 386.656 386.012 386.751 386.155C386.846 386.298 386.906 386.434 386.93 386.561L386.667 386.656V385.189H387.896V391.07C387.896 391.571 387.821 392.012 387.67 392.394C387.526 392.784 387.316 393.11 387.037 393.372C386.759 393.643 386.421 393.845 386.023 393.981C385.626 394.124 385.176 394.195 384.675 394.195ZM384.723 390.438C385.113 390.438 385.459 390.346 385.761 390.163C386.063 389.98 386.298 389.73 386.465 389.412C386.632 389.094 386.715 388.728 386.715 388.314C386.715 387.901 386.628 387.535 386.453 387.217C386.286 386.891 386.051 386.636 385.749 386.453C385.455 386.271 385.113 386.179 384.723 386.179C384.341 386.179 383.999 386.274 383.697 386.465C383.403 386.648 383.168 386.903 382.993 387.229C382.826 387.547 382.743 387.909 382.743 388.314C382.743 388.72 382.826 389.086 382.993 389.412C383.168 389.73 383.403 389.98 383.697 390.163C383.999 390.346 384.341 390.438 384.723 390.438ZM389.822 391.452V385.189H391.05V391.452H389.822ZM390.418 383.805C390.156 383.805 389.953 383.738 389.81 383.602C389.667 383.467 389.595 383.276 389.595 383.03C389.595 382.799 389.667 382.612 389.81 382.469C389.961 382.326 390.164 382.254 390.418 382.254C390.681 382.254 390.883 382.322 391.027 382.457C391.17 382.592 391.241 382.783 391.241 383.03C391.241 383.26 391.166 383.447 391.015 383.59C390.871 383.734 390.673 383.805 390.418 383.805ZM392.939 391.452V385.189H394.168V386.477L393.953 386.62C394.032 386.342 394.188 386.088 394.418 385.857C394.649 385.618 394.923 385.428 395.241 385.284C395.559 385.133 395.885 385.058 396.219 385.058C396.697 385.058 397.094 385.153 397.412 385.344C397.73 385.527 397.969 385.809 398.128 386.191C398.287 386.573 398.367 387.054 398.367 387.634V391.452H397.138V387.718C397.138 387.36 397.09 387.066 396.995 386.835C396.899 386.597 396.752 386.426 396.553 386.322C396.355 386.211 396.108 386.163 395.814 386.179C395.575 386.179 395.357 386.219 395.158 386.298C394.959 386.37 394.784 386.473 394.633 386.608C394.49 386.744 394.374 386.903 394.287 387.086C394.207 387.261 394.168 387.451 394.168 387.658V391.452H393.559C393.456 391.452 393.353 391.452 393.249 391.452C393.146 391.452 393.042 391.452 392.939 391.452ZM402.956 391.571C402.312 391.571 401.739 391.436 401.238 391.165C400.745 390.887 400.356 390.509 400.069 390.032C399.791 389.555 399.652 389.006 399.652 388.386C399.652 387.893 399.731 387.444 399.89 387.038C400.049 386.632 400.268 386.282 400.546 385.988C400.833 385.686 401.171 385.455 401.56 385.296C401.958 385.129 402.387 385.046 402.849 385.046C403.254 385.046 403.632 385.125 403.982 385.284C404.332 385.435 404.634 385.646 404.889 385.917C405.151 386.187 405.35 386.509 405.485 386.883C405.628 387.249 405.696 387.65 405.688 388.088L405.676 388.613H400.558L400.284 387.634H404.614L404.435 387.837V387.551C404.411 387.288 404.324 387.054 404.173 386.847C404.022 386.64 403.831 386.477 403.6 386.358C403.37 386.239 403.119 386.179 402.849 386.179C402.419 386.179 402.057 386.263 401.763 386.43C401.469 386.589 401.246 386.827 401.095 387.145C400.944 387.455 400.868 387.841 400.868 388.302C400.868 388.74 400.96 389.122 401.143 389.448C401.326 389.766 401.584 390.012 401.918 390.187C402.252 390.362 402.638 390.45 403.075 390.45C403.385 390.45 403.672 390.398 403.934 390.295C404.205 390.191 404.495 390.004 404.805 389.734L405.425 390.605C405.234 390.796 405 390.963 404.722 391.106C404.451 391.249 404.161 391.364 403.851 391.452C403.549 391.531 403.25 391.571 402.956 391.571ZM409.946 391.571C409.302 391.571 408.729 391.436 408.228 391.165C407.735 390.887 407.345 390.509 407.059 390.032C406.781 389.555 406.641 389.006 406.641 388.386C406.641 387.893 406.721 387.444 406.88 387.038C407.039 386.632 407.258 386.282 407.536 385.988C407.822 385.686 408.16 385.455 408.55 385.296C408.948 385.129 409.377 385.046 409.838 385.046C410.244 385.046 410.622 385.125 410.972 385.284C411.321 385.435 411.624 385.646 411.878 385.917C412.141 386.187 412.339 386.509 412.475 386.883C412.618 387.249 412.685 387.65 412.677 388.088L412.665 388.613H407.548L407.274 387.634H411.604L411.425 387.837V387.551C411.401 387.288 411.314 387.054 411.162 386.847C411.011 386.64 410.82 386.477 410.59 386.358C410.359 386.239 410.109 386.179 409.838 386.179C409.409 386.179 409.047 386.263 408.753 386.43C408.459 386.589 408.236 386.827 408.085 387.145C407.934 387.455 407.858 387.841 407.858 388.302C407.858 388.74 407.95 389.122 408.132 389.448C408.315 389.766 408.574 390.012 408.908 390.187C409.242 390.362 409.628 390.45 410.065 390.45C410.375 390.45 410.661 390.398 410.924 390.295C411.194 390.191 411.485 390.004 411.795 389.734L412.415 390.605C412.224 390.796 411.989 390.963 411.711 391.106C411.441 391.249 411.15 391.364 410.84 391.452C410.538 391.531 410.24 391.571 409.946 391.571ZM414.013 391.452V385.189H415.253V387.157L415.134 386.68C415.222 386.378 415.369 386.104 415.575 385.857C415.79 385.61 416.033 385.416 416.303 385.272C416.581 385.129 416.868 385.058 417.162 385.058C417.297 385.058 417.424 385.07 417.544 385.094C417.671 385.117 417.77 385.145 417.842 385.177L417.52 386.513C417.424 386.473 417.317 386.441 417.198 386.418C417.086 386.386 416.975 386.37 416.864 386.37C416.649 386.37 416.442 386.414 416.243 386.501C416.053 386.581 415.882 386.696 415.73 386.847C415.587 386.99 415.472 387.161 415.385 387.36C415.297 387.551 415.253 387.762 415.253 387.992V391.452H414.013ZM419.027 391.452V385.189H420.255V391.452H419.027ZM419.623 383.805C419.361 383.805 419.158 383.738 419.015 383.602C418.872 383.467 418.8 383.276 418.8 383.03C418.8 382.799 418.872 382.612 419.015 382.469C419.166 382.326 419.369 382.254 419.623 382.254C419.886 382.254 420.088 382.322 420.232 382.457C420.375 382.592 420.446 382.783 420.446 383.03C420.446 383.26 420.371 383.447 420.22 383.59C420.076 383.734 419.878 383.805 419.623 383.805ZM422.144 391.452V385.189H423.373V386.477L423.158 386.62C423.237 386.342 423.393 386.088 423.623 385.857C423.854 385.618 424.128 385.428 424.446 385.284C424.764 385.133 425.09 385.058 425.424 385.058C425.902 385.058 426.299 385.153 426.617 385.344C426.935 385.527 427.174 385.809 427.333 386.191C427.492 386.573 427.572 387.054 427.572 387.634V391.452H426.343V387.718C426.343 387.36 426.295 387.066 426.2 386.835C426.104 386.597 425.957 386.426 425.758 386.322C425.56 386.211 425.313 386.163 425.019 386.179C424.78 386.179 424.562 386.219 424.363 386.298C424.164 386.37 423.989 386.473 423.838 386.608C423.695 386.744 423.579 386.903 423.492 387.086C423.412 387.261 423.373 387.451 423.373 387.658V391.452H422.764C422.661 391.452 422.558 391.452 422.454 391.452C422.351 391.452 422.247 391.452 422.144 391.452ZM432.042 394.195C431.596 394.195 431.151 394.124 430.706 393.981C430.268 393.845 429.914 393.666 429.644 393.444L430.097 392.489C430.256 392.609 430.443 392.712 430.658 392.8C430.873 392.895 431.099 392.967 431.338 393.014C431.577 393.07 431.811 393.098 432.042 393.098C432.479 393.098 432.845 393.026 433.139 392.883C433.433 392.74 433.656 392.529 433.807 392.251C433.958 391.973 434.034 391.627 434.034 391.213V390.008L434.165 390.092C434.125 390.338 433.994 390.577 433.771 390.807C433.557 391.03 433.286 391.213 432.96 391.356C432.634 391.499 432.3 391.571 431.958 391.571C431.362 391.571 430.829 391.432 430.36 391.153C429.899 390.867 429.533 390.481 429.262 389.996C428.992 389.503 428.857 388.943 428.857 388.314C428.857 387.686 428.988 387.129 429.25 386.644C429.521 386.151 429.887 385.766 430.348 385.487C430.817 385.201 431.342 385.058 431.922 385.058C432.161 385.058 432.392 385.09 432.614 385.153C432.837 385.209 433.044 385.292 433.235 385.404C433.426 385.507 433.596 385.622 433.748 385.75C433.899 385.877 434.022 386.012 434.117 386.155C434.213 386.298 434.272 386.434 434.296 386.561L434.034 386.656V385.189H435.263V391.07C435.263 391.571 435.187 392.012 435.036 392.394C434.893 392.784 434.682 393.11 434.404 393.372C434.125 393.643 433.787 393.845 433.39 393.981C432.992 394.124 432.543 394.195 432.042 394.195ZM432.089 390.438C432.479 390.438 432.825 390.346 433.127 390.163C433.429 389.98 433.664 389.73 433.831 389.412C433.998 389.094 434.082 388.728 434.082 388.314C434.082 387.901 433.994 387.535 433.819 387.217C433.652 386.891 433.418 386.636 433.115 386.453C432.821 386.271 432.479 386.179 432.089 386.179C431.708 386.179 431.366 386.274 431.064 386.465C430.769 386.648 430.535 386.903 430.36 387.229C430.193 387.547 430.109 387.909 430.109 388.314C430.109 388.72 430.193 389.086 430.36 389.412C430.535 389.73 430.769 389.98 431.064 390.163C431.366 390.346 431.708 390.438 432.089 390.438Z" fill="#8A9FB8"/>
<path d="M600.35 171.398H545.021C539.152 171.398 534.395 176.156 534.395 182.025V396.79C534.395 402.659 539.152 407.416 545.021 407.416H600.35C606.219 407.416 610.976 402.659 610.976 396.79V182.025C610.976 176.156 606.219 171.398 600.35 171.398Z" fill="#262E38"/>
<path d="M575.002 189.396H569.439C560.231 189.396 552.76 196.861 552.76 206.075V214.326C552.76 214.551 552.765 214.777 552.776 215.002C553.134 223.902 560.456 231.004 569.439 231.004H575.002C583.984 231.004 591.307 223.902 591.664 215.002C591.675 214.777 591.68 214.551 591.68 214.326V206.075C591.68 196.861 584.21 189.396 574.996 189.396H575.002Z" stroke="black" stroke-width="1.2" stroke-miterlimit="10"/>
<path d="M672.196 227.86H666.632C657.425 227.86 649.954 235.326 649.954 244.539V252.79C649.954 253.016 649.959 253.241 649.97 253.466C650.328 262.366 657.65 269.469 666.632 269.469H672.196C681.178 269.469 688.5 262.366 688.858 253.466C688.869 253.241 688.874 253.016 688.874 252.79V244.539C688.874 235.326 681.403 227.86 672.19 227.86H672.196Z" stroke="black" stroke-width="1.2" stroke-miterlimit="10"/>
<path d="M672.196 310.961H666.632C657.425 310.961 649.954 318.427 649.954 327.64V335.891C649.954 336.117 649.959 336.342 649.97 336.567C650.328 345.467 657.65 352.57 666.632 352.57H672.196C681.178 352.57 688.5 345.467 688.858 336.567C688.869 336.342 688.874 336.117 688.874 335.891V327.64C688.874 318.427 681.403 310.961 672.19 310.961H672.196Z" stroke="black" stroke-width="1.2" stroke-miterlimit="10"/>
<path d="M575.002 269.221H569.439C560.231 269.221 552.76 276.686 552.76 285.9V294.151C552.76 294.376 552.765 294.602 552.776 294.827C553.134 303.727 560.456 310.83 569.439 310.83H575.002C583.984 310.83 591.307 303.727 591.664 294.827C591.675 294.602 591.68 294.376 591.68 294.151V285.9C591.68 276.686 584.21 269.221 574.996 269.221H575.002Z" stroke="black" stroke-width="1.2" stroke-miterlimit="10"/>
<path d="M575.002 348.546H569.439C560.231 348.546 552.76 356.011 552.76 365.224V373.476C552.76 373.701 552.765 373.927 552.776 374.152C553.134 383.052 560.456 390.154 569.439 390.154H575.002C583.984 390.154 591.307 383.052 591.664 374.152C591.675 373.927 591.68 373.701 591.68 373.476V365.224C591.68 356.011 584.21 348.546 574.996 348.546H575.002Z" stroke="black" stroke-width="1.2" stroke-miterlimit="10"/>
<path d="M572.243 240.564V260.717" stroke="white" stroke-width="1.2" stroke-miterlimit="10"/>
<path d="M572.243 320.252V339.801" stroke="white" stroke-width="1.2" stroke-miterlimit="10"/>
<path d="M601.217 371.283H608.258C615.278 371.283 620.968 365.593 620.968 358.573V344.814C620.968 337.794 626.658 332.104 633.678 332.104H639.747" stroke="white" stroke-width="1.2" stroke-miterlimit="10"/>
<path d="M601.217 210.698H608.258C615.278 210.698 620.968 216.388 620.968 223.408V237.167C620.968 244.187 626.658 249.877 633.678 249.877H639.747" stroke="white" stroke-width="1.2" stroke-miterlimit="10"/>
<path d="M144.268 353.131V447.497C144.268 456.479 151.552 463.768 160.54 463.768H557.411C566.394 463.768 573.683 456.485 573.683 447.497V416.228" stroke="white" stroke-width="1.2" stroke-miterlimit="10"/>
<path d="M379.681 163.427V102.722" stroke="white" stroke-width="1.2" stroke-miterlimit="10"/>
<path d="M281.335 292.752L220.629 292.752" stroke="white" stroke-width="1.2" stroke-miterlimit="10"/>
<path d="M379.664 161.646C383.446 161.646 386.519 164.719 386.519 168.502V171.723H372.804V168.502C372.804 164.719 375.877 161.646 379.659 161.646H379.664Z" fill="white"/>
<path d="M382.198 165.979L379.582 168.595L376.971 165.979" fill="white"/>
<path d="M382.198 165.979L379.582 168.595L376.971 165.979" stroke="#101418" stroke-width="1.2" stroke-miterlimit="10"/>
<path d="M279.554 292.769C279.554 288.987 282.627 285.914 286.409 285.914L289.63 285.914L289.63 299.629L286.409 299.629C282.627 299.629 279.554 296.556 279.554 292.774L279.554 292.769Z" fill="white"/>
<path d="M283.886 290.235L286.503 292.851L283.886 295.462" fill="white"/>
<path d="M283.886 290.235L286.503 292.851L283.886 295.462" stroke="#101418" stroke-width="1.2" stroke-miterlimit="10"/>
<path d="M379.659 111.913C375.877 111.913 372.804 108.84 372.804 105.058V101.836H386.52V105.058C386.52 108.84 383.447 111.913 379.664 111.913H379.659Z" fill="white"/>
<path d="M377.13 107.576L379.741 104.964L382.352 107.576" fill="white"/>
<path d="M377.13 107.576L379.741 104.964L382.352 107.576" stroke="#101418" stroke-width="1.2" stroke-miterlimit="10"/>
<path d="M229.82 292.774C229.82 296.556 226.747 299.629 222.965 299.629L219.744 299.629L219.744 285.914L222.965 285.914C226.747 285.914 229.82 288.987 229.82 292.769L229.82 292.774Z" fill="white"/>
<path d="M225.483 295.303L222.872 292.692L225.483 290.081" fill="white"/>
<path d="M225.483 295.303L222.872 292.692L225.483 290.081" stroke="#101418" stroke-width="1.2" stroke-miterlimit="10"/>
<path d="M476.482 292.775C476.482 296.557 473.409 299.63 469.627 299.63L466.406 299.63L466.406 285.914L469.627 285.914C473.409 285.914 476.482 288.987 476.482 292.769L476.482 292.775Z" fill="white"/>
<path d="M472.145 295.303L469.534 292.692L472.145 290.081" fill="white"/>
<path d="M472.145 295.303L469.534 292.692L472.145 290.081" stroke="#101418" stroke-width="1.2" stroke-miterlimit="10"/>
<path d="M143.572 354.128C139.79 354.128 136.717 351.055 136.717 347.273V344.052H150.433V347.273C150.433 351.055 147.36 354.128 143.578 354.128H143.572Z" fill="white"/>
<path d="M141.043 349.791L143.655 347.18L146.266 349.791" fill="white"/>
<path d="M141.043 349.791L143.655 347.18L146.266 349.791" stroke="#101418" stroke-width="1.2" stroke-miterlimit="10"/>
<path d="M573.681 417.492C569.899 417.492 566.826 414.419 566.826 410.637V407.416H580.541V410.637C580.541 414.419 577.468 417.492 573.686 417.492H573.681Z" fill="white"/>
<path d="M571.152 413.155L573.763 410.544L576.374 413.155" fill="white"/>
<path d="M571.152 413.155L573.763 410.544L576.374 413.155" stroke="#101418" stroke-width="1.2" stroke-miterlimit="10"/>
<path d="M474.871 292.692H534.059" stroke="white" stroke-width="1.2" stroke-miterlimit="10"/>
<path d="M602.329 229.009V192.068C602.329 185.762 597.217 180.65 590.912 180.65H553.97C547.664 180.65 542.553 185.762 542.553 192.068V229.009C542.553 235.315 547.664 240.427 553.97 240.427H590.912C597.217 240.427 602.329 235.315 602.329 229.009Z" fill="#536375" stroke="#262E38" stroke-width="1.2" stroke-miterlimit="10"/>
<path d="M699.523 267.474V230.532C699.523 224.227 694.411 219.115 688.106 219.115H651.164C644.858 219.115 639.747 224.227 639.747 230.532V267.474C639.747 273.78 644.858 278.891 651.164 278.891H688.106C694.411 278.891 699.523 273.78 699.523 267.474Z" fill="#536375" stroke="#262E38" stroke-width="1.2" stroke-miterlimit="10"/>
<path d="M699.523 350.575V313.634C699.523 307.328 694.411 302.216 688.106 302.216H651.164C644.858 302.216 639.747 307.328 639.747 313.634V350.575C639.747 356.881 644.858 361.993 651.164 361.993H688.106C694.411 361.993 699.523 356.881 699.523 350.575Z" fill="#536375" stroke="#262E38" stroke-width="1.2" stroke-miterlimit="10"/>
<path d="M602.329 308.835V271.893C602.329 265.587 597.217 260.476 590.912 260.476H553.97C547.664 260.476 542.553 265.587 542.553 271.893V308.835C542.553 315.14 547.664 320.252 553.97 320.252H590.912C597.217 320.252 602.329 315.14 602.329 308.835Z" fill="#536375" stroke="#262E38" stroke-width="1.2" stroke-miterlimit="10"/>
<path d="M602.329 388.159V351.218C602.329 344.912 597.217 339.8 590.912 339.8H553.97C547.664 339.8 542.553 344.912 542.553 351.218V388.159C542.553 394.465 547.664 399.577 553.97 399.577H590.912C597.217 399.577 602.329 394.465 602.329 388.159Z" fill="#536375" stroke="#262E38" stroke-width="1.2" stroke-miterlimit="10"/>
<path d="M590.917 183.949H553.976C549.491 183.949 545.856 187.584 545.856 192.068V229.009C545.856 233.494 549.491 237.129 553.976 237.129H590.917C595.401 237.129 599.036 233.494 599.036 229.009V192.068C599.036 187.584 595.401 183.949 590.917 183.949Z" fill="#1E2022"/>
<path d="M688.111 222.413H651.169C646.685 222.413 643.05 226.048 643.05 230.532V267.474C643.05 271.958 646.685 275.593 651.169 275.593H688.111C692.595 275.593 696.23 271.958 696.23 267.474V230.532C696.23 226.048 692.595 222.413 688.111 222.413Z" fill="#1E2022"/>
<path d="M688.111 305.514H651.169C646.685 305.514 643.05 309.149 643.05 313.634V350.575C643.05 355.059 646.685 358.694 651.169 358.694H688.111C692.595 358.694 696.23 355.059 696.23 350.575V313.634C696.23 309.149 692.595 305.514 688.111 305.514Z" fill="#1E2022"/>
<path d="M590.917 263.774H553.976C549.491 263.774 545.856 267.409 545.856 271.893V308.835C545.856 313.319 549.491 316.954 553.976 316.954H590.917C595.401 316.954 599.036 313.319 599.036 308.835V271.893C599.036 267.409 595.401 263.774 590.917 263.774Z" fill="#1E2022"/>
<path d="M590.917 343.099H553.976C549.491 343.099 545.856 346.734 545.856 351.218V388.159C545.856 392.644 549.491 396.279 553.976 396.279H590.917C595.401 396.279 599.036 392.644 599.036 388.159V351.218C599.036 346.734 595.401 343.099 590.917 343.099Z" fill="#1E2022"/>
<path d="M575.002 189.396H569.439C560.231 189.396 552.76 196.861 552.76 206.075V214.326C552.76 214.551 552.765 214.777 552.776 215.002C553.134 223.902 560.456 231.004 569.439 231.004H575.002C583.984 231.004 591.307 223.902 591.664 215.002C591.675 214.777 591.68 214.551 591.68 214.326V206.075C591.68 196.861 584.21 189.396 574.996 189.396H575.002Z" fill="#536375" stroke="#262E38" stroke-width="1.2" stroke-miterlimit="10"/>
<path d="M672.196 227.86H666.632C657.425 227.86 649.954 235.326 649.954 244.539V252.79C649.954 253.016 649.959 253.241 649.97 253.466C650.328 262.366 657.65 269.469 666.632 269.469H672.196C681.178 269.469 688.5 262.366 688.858 253.466C688.869 253.241 688.874 253.016 688.874 252.79V244.539C688.874 235.326 681.403 227.86 672.19 227.86H672.196Z" fill="#536375" stroke="#262E38" stroke-width="1.2" stroke-miterlimit="10"/>
<path d="M672.196 310.961H666.632C657.425 310.961 649.954 318.427 649.954 327.64V335.891C649.954 336.117 649.959 336.342 649.97 336.567C650.328 345.467 657.65 352.57 666.632 352.57H672.196C681.178 352.57 688.5 345.467 688.858 336.567C688.869 336.342 688.874 336.117 688.874 335.891V327.64C688.874 318.427 681.403 310.961 672.19 310.961H672.196Z" fill="#536375" stroke="#262E38" stroke-width="1.2" stroke-miterlimit="10"/>
<path d="M575.002 269.221H569.439C560.231 269.221 552.76 276.686 552.76 285.9V294.151C552.76 294.376 552.765 294.602 552.776 294.827C553.134 303.727 560.456 310.83 569.439 310.83H575.002C583.984 310.83 591.307 303.727 591.664 294.827C591.675 294.602 591.68 294.376 591.68 294.151V285.9C591.68 276.686 584.21 269.221 574.996 269.221H575.002Z" fill="#536375" stroke="#262E38" stroke-width="1.2" stroke-miterlimit="10"/>
<path d="M575.002 348.546H569.439C560.231 348.546 552.76 356.011 552.76 365.224V373.476C552.76 373.701 552.765 373.927 552.776 374.152C553.134 383.052 560.456 390.154 569.439 390.154H575.002C583.984 390.154 591.307 383.052 591.664 374.152C591.675 373.927 591.68 373.701 591.68 373.476V365.224C591.68 356.011 584.21 348.546 574.996 348.546H575.002Z" fill="#536375" stroke="#262E38" stroke-width="1.2" stroke-miterlimit="10"/>
<path d="M575.338 192.26H569.335C561.827 192.26 555.74 198.347 555.74 205.855V206.8C555.74 214.309 561.827 220.395 569.335 220.395H575.338C582.846 220.395 588.932 214.309 588.932 206.8V205.855C588.932 198.347 582.846 192.26 575.338 192.26Z" fill="#101418"/>
<path d="M672.532 230.724H666.529C659.021 230.724 652.934 236.811 652.934 244.319V245.264C652.934 252.772 659.021 258.859 666.529 258.859H672.532C680.04 258.859 686.126 252.772 686.126 245.264V244.319C686.126 236.811 680.04 230.724 672.532 230.724Z" fill="#101418"/>
<path d="M672.532 313.826H666.529C659.021 313.826 652.934 319.912 652.934 327.42V328.366C652.934 335.874 659.021 341.96 666.529 341.96H672.532C680.04 341.96 686.126 335.874 686.126 328.366V327.42C686.126 319.912 680.04 313.826 672.532 313.826Z" fill="#101418"/>
<path d="M575.338 272.085H569.335C561.827 272.085 555.74 278.172 555.74 285.68V286.626C555.74 294.134 561.827 300.22 569.335 300.22H575.338C582.846 300.22 588.932 294.134 588.932 286.626V285.68C588.932 278.172 582.846 272.085 575.338 272.085Z" fill="#101418"/>
<path d="M575.338 351.41H569.335C561.827 351.41 555.74 357.497 555.74 365.005V365.95C555.74 373.458 561.827 379.545 569.335 379.545H575.338C582.846 379.545 588.932 373.458 588.932 365.95V365.005C588.932 357.497 582.846 351.41 575.338 351.41Z" fill="#101418"/>
<path d="M566.289 205.959H562.93V202.601H566.289V205.959ZM562.925 205.959H559.566V209.318H562.925V205.959ZM569.648 205.959H566.289V209.318H569.648V205.959ZM581.703 202.601H578.345V205.959H581.703V202.601ZM578.345 205.959H574.986V209.318H578.345V205.959ZM585.068 205.959H581.709V209.318H585.068V205.959Z" fill="white"/>
<path d="M663.483 244.424H660.124V241.065H663.483V244.424ZM660.119 244.424H656.76V247.783H660.119V244.424ZM666.842 244.424H663.483V247.783H666.842V244.424ZM678.897 241.065H675.539V244.424H678.897V241.065ZM675.539 244.424H672.18V247.783H675.539V244.424ZM682.262 244.424H678.903V247.783H682.262V244.424Z" fill="white"/>
<path d="M663.483 327.525H660.124V324.166H663.483V327.525ZM660.119 327.525H656.76V330.884H660.119V327.525ZM666.842 327.525H663.483V330.884H666.842V327.525ZM678.897 324.166H675.539V327.525H678.897V324.166ZM675.539 327.525H672.18V330.884H675.539V327.525ZM682.262 327.525H678.903V330.884H682.262V327.525Z" fill="white"/>
<path d="M566.289 285.785H562.93V282.426H566.289V285.785ZM562.925 285.785H559.566V289.143H562.925V285.785ZM569.648 285.785H566.289V289.143H569.648V285.785ZM581.703 282.426H578.345V285.785H581.703V282.426ZM578.345 285.785H574.986V289.143H578.345V285.785ZM585.068 285.785H581.709V289.143H585.068V285.785Z" fill="white"/>
<path d="M566.289 365.109H562.93V361.75H566.289V365.109ZM562.925 365.109H559.566V368.468H562.925V365.109ZM569.648 365.109H566.289V368.468H569.648V365.109ZM581.703 361.75H578.345V365.109H581.703V361.75ZM578.345 365.109H574.986V368.468H578.345V365.109ZM585.068 365.109H581.709V368.468H585.068V365.109Z" fill="white"/>
<path d="M523.983 292.769C523.983 288.987 527.056 285.914 530.838 285.914L534.059 285.914L534.059 299.629L530.838 299.629C527.056 299.629 523.983 296.556 523.983 292.774L523.983 292.769Z" fill="white"/>
<path d="M528.315 290.235L530.931 292.851L528.315 295.462" fill="white"/>
<path d="M528.315 290.235L530.931 292.851L528.315 295.462" stroke="#101418" stroke-width="1.2" stroke-miterlimit="10"/>
</svg>
