<svg xmlns="http://www.w3.org/2000/svg" width="20" height="20" viewBox="0 0 20 20" fill="none">
<path d="M9.98047 0.0517578C8.66988 0.0516964 7.3721 0.308941 6.16125 0.808805C4.9504 1.30867 3.85018 2.04136 2.9234 2.96505C1.99663 3.88874 1.26146 4.98534 0.75986 6.19223C0.258261 7.39912 6.07159e-05 8.69267 1.12458e-07 9.99902C-0.000196652 11.3055 0.257814 12.5993 0.759297 13.8064C1.26078 15.0135 1.99591 16.1104 2.92271 17.0343C3.84951 17.9582 4.94982 18.691 6.1608 19.191C7.37178 19.691 8.66971 19.9483 9.98047 19.9482C11.2912 19.9483 12.5892 19.691 13.8001 19.191C15.0111 18.691 16.1114 17.9582 17.0382 17.0343C17.965 16.1104 18.7002 15.0135 19.2016 13.8064C19.7031 12.5993 19.9611 11.3055 19.9609 9.99902C19.9609 8.69267 19.7027 7.39912 19.2011 6.19223C18.6995 4.98534 17.9643 3.88874 17.0375 2.96505C16.1108 2.04136 15.0105 1.30867 13.7997 0.808805C12.5888 0.308941 11.2911 0.0516964 9.98047 0.0517578ZM9.29102 4.55566H15.5703L9.26563 8.98731H13.5762L4.39062 15.4424L6.38477 11.0127L7.29688 8.98731L9.29102 4.55566Z" fill="#D2D3D5"/>
</svg>