<svg width="24" height="24" viewBox="0 0 24 24" fill="none" xmlns="http://www.w3.org/2000/svg">
<g clip-path="url(#clip0_4573_3814)">
<path d="M22.4172 9.82298C22.6901 9.01524 22.7848 8.15798 22.6948 7.31015C22.6049 6.46231 22.3324 5.64402 21.896 4.91155C21.2453 3.79721 20.258 2.91793 19.076 2.40012C17.8877 1.87822 16.5657 1.74212 15.296 2.01098C14.7212 1.37235 14.017 0.86336 13.2303 0.517833C12.4414 0.171164 11.5883 -0.00524543 10.7266 0.000118761C9.43062 -0.0034887 8.16625 0.400077 7.11202 1.15383C6.06467 1.902 5.28311 2.9646 4.88088 4.18726C4.03663 4.35753 3.23799 4.70457 2.53745 5.20555C1.84012 5.70367 1.25737 6.34516 0.828305 7.08698C0.176197 8.19334 -0.102549 9.48019 0.0332896 10.7572C0.169128 12.0343 0.712339 13.2337 1.58259 14.1781C1.30979 14.9857 1.21504 15.8427 1.30486 16.6904C1.39467 17.538 1.66691 18.3562 2.10288 19.0887C2.75359 20.203 3.74091 21.0823 4.92288 21.6001C6.11116 22.122 7.43319 22.2581 8.70288 21.9893C9.2774 22.6279 9.98128 23.1369 10.7677 23.4824C11.5563 23.8287 12.41 24.0053 13.2732 24.0001C14.5699 24.0046 15.8353 23.6013 16.8903 22.8473C17.9389 22.0985 18.7212 21.0346 19.1232 19.8104C19.9674 19.6405 20.766 19.2937 21.4666 18.793C22.1637 18.2946 22.7462 17.6528 23.1749 16.9107C23.8261 15.8043 24.104 14.5177 23.9675 13.2412C23.8311 11.9646 23.2875 10.7659 22.4172 9.82212V9.82298ZM13.3229 22.4315C12.1126 22.4315 11.1757 22.0647 10.3572 21.3901C10.394 21.3704 10.4592 21.3353 10.5012 21.3095L15.344 18.5495C15.4646 18.4817 15.565 18.3829 15.6348 18.2635C15.7047 18.1441 15.7416 18.0082 15.7417 17.8698V11.1327L17.7894 12.2984C17.8 12.3039 17.8091 12.3118 17.8159 12.3215C17.8228 12.3312 17.8272 12.3424 17.8289 12.3541V17.9324C17.8289 20.4627 15.6937 22.4315 13.3229 22.4315ZM3.48202 18.3035C2.94821 17.3956 2.75525 16.3272 2.93773 15.2898C2.97373 15.3113 3.0363 15.3498 3.08173 15.3755L7.92459 18.1355C8.04551 18.2054 8.18268 18.2421 8.3223 18.2421C8.46193 18.2421 8.5991 18.2054 8.72002 18.1355L14.6326 14.767V17.0984C14.6333 17.1103 14.631 17.1222 14.6259 17.133C14.6208 17.1438 14.6131 17.1531 14.6034 17.1601L9.7083 19.9501C8.65829 20.5457 7.41675 20.7063 6.24973 20.3975C5.08669 20.0923 4.09237 19.3396 3.48202 18.3035ZM2.20573 7.87212C2.74134 6.95723 3.58096 6.25927 4.5783 5.89983V11.5844C4.57697 11.7231 4.61325 11.8595 4.68329 11.9792C4.75332 12.0989 4.85448 12.1973 4.97602 12.2641L10.8877 15.6327L8.84088 16.7984C8.83084 16.805 8.81937 16.809 8.80743 16.8102C8.79549 16.8114 8.78344 16.8097 8.7723 16.8053L3.87459 14.0135C3.35881 13.7204 2.90594 13.3283 2.54191 12.8599C2.17788 12.3914 1.90984 11.8558 1.75316 11.2835C1.59824 10.7134 1.55839 10.1181 1.63594 9.53241C1.7135 8.9467 1.90776 8.38229 2.20573 7.87212ZM19.0254 11.7344L13.1129 8.36583L15.1597 7.20012C15.1698 7.19354 15.1812 7.18949 15.1932 7.18829C15.2051 7.1871 15.2172 7.1888 15.2283 7.19326L20.1252 9.98326C20.8726 10.4088 21.4833 11.0385 21.8857 11.7987C22.2858 12.5553 22.4591 13.4112 22.3849 14.2638C22.3107 15.1164 21.9922 15.9295 21.4674 16.6055C20.9396 17.2871 20.2293 17.8049 19.4189 18.0987V12.4133C19.4204 12.2752 19.3846 12.1393 19.3154 12.0198C19.2462 11.9003 19.146 11.8017 19.0254 11.7344ZM21.0629 8.70612C21.0152 8.67725 20.9672 8.64896 20.9189 8.62126L16.076 5.86126C15.955 5.79162 15.8179 5.75496 15.6783 5.75496C15.5387 5.75496 15.4016 5.79162 15.2806 5.86126L9.36802 9.22983V6.89669C9.36731 6.88478 9.36961 6.87289 9.37471 6.86211C9.3798 6.85133 9.38752 6.842 9.39716 6.83498L14.2932 4.0484C15.0446 3.62118 15.9012 3.41399 16.7648 3.45052C17.6285 3.48705 18.4644 3.76582 19.1772 4.25498C19.8852 4.74094 20.4398 5.41893 20.7757 6.20926C21.11 6.99783 21.2094 7.86355 21.0629 8.70612ZM8.25545 12.865L6.20688 11.6993C6.19616 11.694 6.18693 11.6862 6.18004 11.6764C6.17315 11.6667 6.16882 11.6554 6.16745 11.6435V6.0644C6.1683 5.20983 6.41602 4.37326 6.88059 3.6524C7.3479 2.92944 8.0111 2.35423 8.79288 1.99383C9.57799 1.63185 10.449 1.49777 11.3067 1.60688C12.1643 1.716 12.974 2.06392 13.6434 2.61098C13.5949 2.6366 13.5469 2.66318 13.4994 2.69069L8.65659 5.45069C8.53598 5.51861 8.43554 5.61731 8.36552 5.73672C8.2955 5.85613 8.2584 5.99198 8.25802 6.1304L8.25545 12.865ZM9.36716 10.4993L12.0003 9.00012L14.6334 10.5001V13.5001L12.0003 14.9993L9.36716 13.4993V10.4993Z" fill="#D2D3D5"/>
</g>
<defs>
<clipPath id="clip0_4573_3814">
<rect width="24" height="24" fill="white"/>
</clipPath>
</defs>
</svg>
