<svg width="308" height="284" viewBox="0 0 308 284" fill="none" xmlns="http://www.w3.org/2000/svg">
<path d="M24.7843 40.7964L54.7843 57.7964" stroke="#262E38" stroke-width="1.2" stroke-miterlimit="10"/>
<path d="M20.192 33.9174C21.1711 33.9003 22.1229 34.1023 22.8272 34.4937L25.0494 35.7318H25.0371L27.0599 36.8562C27.7666 37.249 27.9924 37.6946 27.9996 38.0227C28.0069 38.3495 27.8022 38.7998 27.1181 39.2146C27.118 39.2147 27.1179 39.2148 27.1178 39.2148L22.987 41.7165C22.9868 41.7166 22.9866 41.7167 22.9865 41.7168C22.2996 42.1311 21.3574 42.3661 20.3784 42.3832C19.3994 42.4002 18.4476 42.1983 17.7434 41.8069C17.7434 41.8069 17.7433 41.8068 17.7433 41.8068L13.5033 39.4446L13.5028 39.4443C12.795 39.0509 12.5707 38.6072 12.564 38.2817C12.5574 37.9567 12.7628 37.5055 13.4529 37.0856C13.4531 37.0855 13.4532 37.0854 13.4534 37.0853L17.5835 34.5841C17.5836 34.584 17.5837 34.5839 17.5838 34.5839C18.2706 34.1695 19.2129 33.9345 20.192 33.9174Z" stroke="#262E38" stroke-width="1.2"/>
<path d="M181.927 112.164L151.927 129.164" stroke="#262E38" stroke-width="1.2" stroke-miterlimit="10"/>
<path d="M186.519 105.285C185.54 105.268 184.588 105.47 183.884 105.861L181.662 107.099H181.674L179.651 108.224C178.944 108.617 178.719 109.062 178.711 109.39C178.704 109.717 178.909 110.167 179.593 110.582C179.593 110.582 179.593 110.582 179.593 110.582L183.724 113.084C183.724 113.084 183.724 113.084 183.724 113.084C184.411 113.499 185.354 113.734 186.333 113.751C187.312 113.768 188.263 113.566 188.968 113.175C188.968 113.175 188.968 113.175 188.968 113.174L193.208 110.812L193.208 110.812C193.916 110.419 194.14 109.975 194.147 109.649C194.154 109.324 193.948 108.873 193.258 108.453C193.258 108.453 193.258 108.453 193.258 108.453L189.127 105.952C189.127 105.952 189.127 105.952 189.127 105.952C188.44 105.537 187.498 105.302 186.519 105.285Z" stroke="#262E38" stroke-width="1.2"/>
<path d="M143.337 7.61328L173.337 24.6133" stroke="#262E38" stroke-width="1.2" stroke-miterlimit="10"/>
<path d="M138.745 0.7343C139.724 0.717207 140.676 0.919177 141.38 1.31064L143.602 2.54869H143.59L145.613 3.67311C146.319 4.06594 146.545 4.51154 146.552 4.83955C146.56 5.1664 146.355 5.61665 145.671 6.03153C145.671 6.03159 145.671 6.03165 145.671 6.0317L141.54 8.53339C141.54 8.5335 141.539 8.5336 141.539 8.53371C140.852 8.948 139.91 9.18296 138.931 9.20005C137.952 9.21714 137 9.0152 136.296 8.62378C136.296 8.62376 136.296 8.62374 136.296 8.62371L132.056 6.26152L132.056 6.26124C131.348 5.86778 131.123 5.42412 131.117 5.09864C131.11 4.77358 131.315 4.32243 132.006 3.90248C132.006 3.90239 132.006 3.9023 132.006 3.90221L136.136 1.40096C136.136 1.4009 136.136 1.40084 136.136 1.40078C136.823 0.986401 137.766 0.751393 138.745 0.7343Z" stroke="#262E38" stroke-width="1.2"/>
<path d="M137.207 93.9134C137.199 93.9989 137.191 94.0922 137.176 94.1777C137.16 94.2476 137.137 94.3175 137.122 94.3952C137.098 94.4807 137.083 94.5662 137.052 94.6439C137.029 94.7139 136.998 94.7838 136.967 94.846C136.928 94.9315 136.889 95.0247 136.843 95.1102C136.812 95.1724 136.773 95.2346 136.734 95.2967C136.672 95.3978 136.61 95.491 136.54 95.592C136.502 95.6464 136.455 95.7086 136.408 95.763C136.3 95.8951 136.184 96.0195 136.052 96.1438C136.005 96.1904 135.967 96.2371 135.912 96.2837C135.835 96.3536 135.742 96.4236 135.657 96.4935C135.579 96.5557 135.501 96.6178 135.424 96.68C135.331 96.75 135.222 96.8121 135.122 96.8821C135.013 96.952 134.92 97.022 134.804 97.0841L119.873 105.78C119.509 105.99 119.113 106.169 118.702 106.34C118.594 106.386 118.485 106.425 118.377 106.464C118.121 106.557 117.857 106.627 117.586 106.705C117.307 106.783 117.036 106.853 116.749 106.915C116.415 106.985 116.074 107.047 115.733 107.094C115.648 107.101 115.57 107.117 115.485 107.125C115.02 107.171 114.547 107.202 114.074 107.202C113.997 107.202 113.927 107.202 113.849 107.202C113.384 107.202 112.919 107.171 112.454 107.125C112.384 107.125 112.315 107.109 112.245 107.101C111.787 107.047 111.338 106.969 110.896 106.868C110.818 106.853 110.733 106.829 110.656 106.806C110.252 106.705 109.865 106.588 109.493 106.449C109.423 106.425 109.353 106.402 109.283 106.379C108.834 106.208 108.407 106.006 108.004 105.772L92.9727 97.0763C92.1432 96.5945 91.5307 96.0428 91.1121 95.4521C90.7013 94.8615 90.4919 94.2321 90.4997 93.6104L90.4609 106.767C90.4609 108.018 91.2827 109.277 92.9339 110.233L107.966 118.929C108.345 119.147 108.748 119.341 109.175 119.512C109.198 119.52 109.221 119.528 109.245 119.535C109.314 119.559 109.384 119.582 109.454 119.605C109.694 119.691 109.942 119.784 110.19 119.854C110.33 119.893 110.469 119.924 110.609 119.955C110.687 119.978 110.764 119.994 110.849 120.017C110.919 120.033 110.989 120.056 111.066 120.072C111.338 120.126 111.617 120.18 111.896 120.219C111.997 120.235 112.097 120.243 112.198 120.25C112.268 120.258 112.338 120.266 112.408 120.274C112.508 120.281 112.609 120.297 112.71 120.305C112.981 120.328 113.26 120.344 113.539 120.351C113.625 120.351 113.71 120.351 113.803 120.351C113.88 120.351 113.95 120.351 114.028 120.351C114.152 120.351 114.276 120.351 114.4 120.351C114.71 120.344 115.02 120.32 115.33 120.289C115.369 120.289 115.4 120.281 115.431 120.274C115.516 120.266 115.594 120.25 115.679 120.243C115.919 120.212 116.16 120.188 116.4 120.142C116.501 120.126 116.602 120.087 116.702 120.064C116.989 120.002 117.268 119.932 117.54 119.854C117.687 119.815 117.842 119.792 117.989 119.745C118.105 119.706 118.214 119.66 118.33 119.613C118.439 119.574 118.547 119.535 118.656 119.489C119.067 119.326 119.462 119.147 119.826 118.929L134.757 110.225C134.757 110.225 134.827 110.187 134.858 110.163C134.936 110.117 135.005 110.062 135.075 110.016C135.176 109.953 135.277 109.883 135.37 109.814C135.455 109.751 135.532 109.689 135.61 109.627C135.695 109.557 135.788 109.487 135.866 109.417C135.881 109.402 135.905 109.386 135.92 109.371C135.951 109.339 135.974 109.308 136.005 109.277C136.137 109.153 136.253 109.029 136.362 108.897C136.385 108.865 136.416 108.842 136.439 108.811C136.463 108.78 136.478 108.757 136.494 108.726C136.564 108.632 136.633 108.531 136.688 108.43C136.711 108.391 136.75 108.353 136.773 108.306C136.788 108.283 136.788 108.267 136.804 108.244C136.85 108.158 136.889 108.073 136.928 107.98C136.951 107.925 136.982 107.878 136.998 107.824C136.998 107.809 137.005 107.785 137.013 107.77C137.044 107.684 137.06 107.606 137.083 107.521C137.098 107.467 137.122 107.404 137.129 107.35C137.129 107.334 137.129 107.319 137.129 107.303C137.145 107.218 137.153 107.125 137.16 107.039C137.16 106.985 137.176 106.923 137.184 106.868C137.184 106.845 137.184 106.822 137.184 106.798L137.222 93.6414C137.222 93.7269 137.207 93.8046 137.199 93.8901L137.207 93.9134Z" fill="#3E4C5C" stroke="#262E38" stroke-width="1.2" stroke-miterlimit="10"/>
<path d="M137.207 82.808C137.199 82.8934 137.191 82.9867 137.176 83.0722C137.16 83.1421 137.137 83.2121 137.122 83.2898C137.098 83.3753 137.083 83.4608 137.052 83.5385C137.029 83.6084 136.998 83.6784 136.967 83.7405C136.928 83.826 136.889 83.9193 136.843 84.0048C136.812 84.0669 136.773 84.1291 136.734 84.1913C136.672 84.2923 136.61 84.3855 136.54 84.4866C136.502 84.541 136.455 84.6031 136.408 84.6575C136.3 84.7897 136.184 84.914 136.052 85.0383C136.005 85.085 135.967 85.1316 135.912 85.1782C135.835 85.2482 135.742 85.3181 135.657 85.388C135.579 85.4502 135.501 85.5124 135.424 85.5746C135.331 85.6445 135.222 85.7067 135.122 85.7766C135.013 85.8466 134.92 85.9165 134.804 85.9787L119.873 94.6748C119.509 94.8846 119.113 95.0633 118.702 95.2343C118.594 95.2809 118.485 95.3198 118.377 95.3586C118.121 95.4519 117.857 95.5218 117.586 95.5995C117.307 95.6773 117.036 95.7472 116.749 95.8094C116.415 95.8793 116.074 95.9415 115.733 95.9881C115.648 95.9959 115.57 96.0114 115.485 96.0192C115.02 96.0658 114.547 96.0969 114.074 96.0969C113.997 96.0969 113.927 96.0969 113.849 96.0969C113.384 96.0969 112.919 96.0658 112.454 96.0192C112.384 96.0192 112.315 96.0036 112.245 95.9959C111.787 95.9415 111.338 95.8638 110.896 95.7627C110.818 95.7472 110.733 95.7239 110.656 95.7006C110.252 95.5996 109.865 95.483 109.493 95.3431C109.423 95.3198 109.353 95.2965 109.283 95.2732C108.834 95.1022 108.407 94.9001 108.004 94.667L92.9727 85.9709C92.1432 85.4891 91.5307 84.9373 91.1121 84.3467C90.7013 83.7561 90.4919 83.1266 90.4997 82.5049L90.4609 95.6617C90.4609 96.9129 91.2827 98.1718 92.9339 99.1277L107.966 107.824C108.345 108.041 108.748 108.236 109.175 108.407C109.198 108.414 109.221 108.422 109.245 108.43C109.314 108.453 109.384 108.477 109.454 108.5C109.694 108.585 109.942 108.679 110.19 108.749C110.33 108.787 110.469 108.819 110.609 108.85C110.687 108.873 110.764 108.888 110.849 108.912C110.919 108.927 110.989 108.951 111.066 108.966C111.338 109.021 111.617 109.075 111.896 109.114C111.997 109.129 112.097 109.137 112.198 109.145C112.268 109.153 112.338 109.16 112.408 109.168C112.508 109.176 112.609 109.192 112.71 109.199C112.981 109.223 113.26 109.238 113.539 109.246C113.625 109.246 113.71 109.246 113.803 109.246C113.88 109.246 113.95 109.246 114.028 109.246C114.152 109.246 114.276 109.246 114.4 109.246C114.71 109.238 115.02 109.215 115.33 109.184C115.369 109.184 115.4 109.176 115.431 109.168C115.516 109.16 115.594 109.145 115.679 109.137C115.919 109.106 116.16 109.083 116.4 109.036C116.501 109.021 116.602 108.982 116.702 108.958C116.989 108.896 117.268 108.826 117.54 108.749C117.687 108.71 117.842 108.686 117.989 108.64C118.105 108.601 118.214 108.554 118.33 108.508C118.439 108.469 118.547 108.43 118.656 108.383C119.067 108.22 119.462 108.041 119.826 107.824L134.757 99.1199C134.757 99.1199 134.827 99.0811 134.858 99.0578C134.936 99.0111 135.005 98.9567 135.075 98.9101C135.176 98.8479 135.277 98.778 135.37 98.7081C135.455 98.6459 135.532 98.5837 135.61 98.5216C135.695 98.4516 135.788 98.3817 135.866 98.3117C135.881 98.2962 135.905 98.2807 135.92 98.2651C135.951 98.234 135.974 98.2029 136.005 98.1718C136.137 98.0475 136.253 97.9232 136.362 97.7911C136.385 97.76 136.416 97.7367 136.439 97.7056C136.463 97.6745 136.478 97.6512 136.494 97.6201C136.564 97.5268 136.633 97.4258 136.688 97.3248C136.711 97.2859 136.75 97.2471 136.773 97.2004C136.788 97.1771 136.788 97.1616 136.804 97.1383C136.85 97.0528 136.889 96.9673 136.928 96.874C136.951 96.8196 136.982 96.773 136.998 96.7186C136.998 96.7031 137.005 96.6798 137.013 96.6642C137.044 96.5787 137.06 96.501 137.083 96.4155C137.098 96.3611 137.122 96.299 137.129 96.2446C137.129 96.229 137.129 96.2135 137.129 96.1979C137.145 96.1125 137.153 96.0192 137.16 95.9337C137.16 95.8793 137.176 95.8171 137.184 95.7627C137.184 95.7394 137.184 95.7161 137.184 95.6928L137.222 82.536C137.222 82.6215 137.207 82.6992 137.199 82.7847L137.207 82.808Z" fill="#2F3945" stroke="#262E38" stroke-width="1.2" stroke-linecap="round" stroke-linejoin="round"/>
<path d="M137.207 104.987C137.199 105.073 137.191 105.166 137.176 105.251C137.16 105.321 137.137 105.391 137.122 105.469C137.098 105.554 137.083 105.64 137.052 105.718C137.029 105.788 136.998 105.858 136.967 105.92C136.928 106.005 136.889 106.098 136.843 106.184C136.812 106.246 136.773 106.308 136.734 106.37C136.672 106.471 136.61 106.565 136.54 106.666C136.502 106.72 136.455 106.782 136.408 106.837C136.3 106.969 136.184 107.093 136.052 107.218C136.005 107.264 135.967 107.311 135.912 107.357C135.835 107.427 135.742 107.497 135.657 107.567C135.579 107.629 135.501 107.692 135.424 107.754C135.331 107.824 135.222 107.886 135.122 107.956C135.013 108.026 134.92 108.096 134.804 108.158L119.873 116.854C119.509 117.064 119.113 117.243 118.702 117.413C118.594 117.46 118.485 117.499 118.377 117.538C118.121 117.631 117.857 117.701 117.586 117.779C117.307 117.856 117.036 117.926 116.749 117.989C116.415 118.059 116.074 118.121 115.733 118.167C115.648 118.175 115.57 118.191 115.485 118.198C115.02 118.245 114.547 118.276 114.074 118.276C113.997 118.276 113.927 118.276 113.849 118.276C113.384 118.276 112.919 118.245 112.454 118.198C112.384 118.198 112.315 118.183 112.245 118.175C111.787 118.121 111.338 118.043 110.896 117.942C110.818 117.926 110.733 117.903 110.656 117.88C110.252 117.779 109.865 117.662 109.493 117.522C109.423 117.499 109.353 117.476 109.283 117.452C108.834 117.281 108.407 117.079 108.004 116.846L92.9727 108.15C92.1432 107.668 91.5307 107.116 91.1121 106.526C90.7013 105.935 90.4919 105.306 90.4997 104.684L90.4609 117.841C90.4609 119.092 91.2827 120.351 92.9339 121.307L107.966 130.003C108.345 130.221 108.748 130.415 109.175 130.586C109.198 130.594 109.221 130.601 109.245 130.609C109.314 130.632 109.384 130.656 109.454 130.679C109.694 130.765 109.942 130.858 110.19 130.928C110.33 130.967 110.469 130.998 110.609 131.029C110.687 131.052 110.764 131.068 110.849 131.091C110.919 131.107 110.989 131.13 111.066 131.145C111.338 131.2 111.617 131.254 111.896 131.293C111.997 131.309 112.097 131.316 112.198 131.324C112.268 131.332 112.338 131.34 112.408 131.347C112.508 131.355 112.609 131.371 112.71 131.379C112.981 131.402 113.26 131.417 113.539 131.425C113.625 131.425 113.71 131.425 113.803 131.425C113.88 131.425 113.95 131.425 114.028 131.425C114.152 131.425 114.276 131.425 114.4 131.425C114.71 131.417 115.02 131.394 115.33 131.363C115.369 131.363 115.4 131.355 115.431 131.347C115.516 131.34 115.594 131.324 115.679 131.316C115.919 131.285 116.16 131.262 116.4 131.215C116.501 131.2 116.602 131.161 116.702 131.138C116.989 131.075 117.268 131.006 117.54 130.928C117.687 130.889 117.842 130.866 117.989 130.819C118.105 130.78 118.214 130.734 118.33 130.687C118.439 130.648 118.547 130.609 118.656 130.563C119.067 130.399 119.462 130.221 119.826 130.003L134.757 121.299C134.757 121.299 134.827 121.26 134.858 121.237C134.936 121.19 135.005 121.136 135.075 121.089C135.176 121.027 135.277 120.957 135.37 120.887C135.455 120.825 135.532 120.763 135.61 120.701C135.695 120.631 135.788 120.561 135.866 120.491C135.881 120.475 135.905 120.46 135.92 120.444C135.951 120.413 135.974 120.382 136.005 120.351C136.137 120.227 136.253 120.102 136.362 119.97C136.385 119.939 136.416 119.916 136.439 119.885C136.463 119.854 136.478 119.83 136.494 119.799C136.564 119.706 136.633 119.605 136.688 119.504C136.711 119.465 136.75 119.426 136.773 119.38C136.788 119.356 136.788 119.341 136.804 119.317C136.85 119.232 136.889 119.146 136.928 119.053C136.951 118.999 136.982 118.952 136.998 118.898C136.998 118.882 137.005 118.859 137.013 118.843C137.044 118.758 137.06 118.68 137.083 118.595C137.098 118.54 137.122 118.478 137.129 118.424C137.129 118.408 137.129 118.393 137.129 118.377C137.145 118.292 137.153 118.198 137.16 118.113C137.16 118.059 137.176 117.996 137.184 117.942C137.184 117.919 137.184 117.895 137.184 117.872L137.222 104.715C137.222 104.801 137.207 104.878 137.199 104.964L137.207 104.987Z" fill="#2F3945" stroke="#262E38" stroke-width="1.2" stroke-linecap="round" stroke-linejoin="round"/>
<path d="M134.749 79.0933C138.028 80.9895 138.059 84.0747 134.796 85.9709L119.865 94.667C116.601 96.5632 111.291 96.5632 108.004 94.667L92.9724 85.9709C89.6932 84.0747 89.67 80.9817 92.9336 79.0855L107.864 70.3894C111.128 68.4932 116.431 68.4932 119.718 70.3894L134.749 79.0855V79.0933Z" fill="#536375" stroke="#262E38" stroke-width="1.2" stroke-miterlimit="10"/>
<path d="M116.337 79.2597L118.237 80.3571H118.228L120.169 81.4769C120.8 81.841 120.984 82.2364 120.986 82.509C120.988 82.7792 120.812 83.1711 120.187 83.5335L120.186 83.534L116.372 85.7507C116.372 85.7508 116.372 85.7508 116.372 85.7509C115.748 86.1123 114.892 86.3102 114.004 86.3102C113.115 86.3102 112.257 86.1123 111.629 85.7502L107.791 83.5331L107.791 83.5329C107.159 83.1687 106.978 82.7753 106.977 82.5047C106.976 82.2349 107.153 81.8419 107.781 81.4756C107.781 81.4755 107.781 81.4755 107.781 81.4754L111.593 79.2591C111.594 79.259 111.594 79.259 111.594 79.2589C112.218 78.8975 113.074 78.6996 113.962 78.6996C114.851 78.6996 115.708 78.8975 116.336 79.2595C116.336 79.2595 116.336 79.2596 116.337 79.2597Z" fill="#3E4C5C" stroke="#262E38" stroke-width="1.2"/>
<path d="M97.314 93.4393C98.128 93.9133 98.787 95.0557 98.787 95.9883C98.787 96.9286 98.1203 97.3094 97.3063 96.8353C96.4923 96.3691 95.8334 95.2189 95.8411 94.2786C95.8489 93.3382 96.5078 92.9652 97.3218 93.4315L97.314 93.4393Z" fill="#9F88FD"/>
<path d="M101.043 95.7161C101.857 96.1902 102.516 97.3326 102.516 98.2651C102.516 99.1977 101.849 99.5862 101.035 99.1122C100.221 98.6459 99.5624 97.4958 99.5701 96.5554C99.5779 95.6151 100.237 95.2421 101.051 95.7084L101.043 95.7161Z" fill="#9F88FD"/>
<path d="M104.764 97.9857C105.578 98.4597 106.237 99.6021 106.237 100.535C106.237 101.475 105.571 101.856 104.757 101.382C103.943 100.908 103.284 99.7653 103.291 98.825C103.299 97.8846 103.958 97.5116 104.772 97.9779L104.764 97.9857Z" fill="#9F88FD"/>
<path d="M130.517 115.44C129.703 115.914 129.044 117.056 129.044 117.989C129.044 118.921 129.711 119.31 130.525 118.836C131.339 118.362 131.997 117.219 131.99 116.279C131.982 115.339 131.323 114.966 130.509 115.432L130.517 115.44Z" fill="#101418"/>
<path d="M126.788 117.709C125.974 118.183 125.315 119.325 125.315 120.258C125.315 121.19 125.982 121.579 126.796 121.105C127.61 120.639 128.269 119.488 128.261 118.548C128.253 117.608 127.594 117.235 126.78 117.701L126.788 117.709Z" fill="#101418"/>
<path d="M123.059 119.978C122.245 120.452 121.586 121.595 121.586 122.527C121.586 123.46 122.253 123.849 123.067 123.374C123.881 122.9 124.54 121.758 124.532 120.818C124.532 119.885 123.865 119.504 123.051 119.971L123.059 119.978Z" fill="#101418"/>
<path d="M101.818 118.074C102.632 118.548 103.291 119.691 103.291 120.623C103.291 121.556 102.624 121.944 101.81 121.47C100.996 120.996 100.337 119.854 100.345 118.913C100.345 117.981 101.012 117.6 101.826 118.066L101.818 118.074Z" fill="#101418"/>
<path d="M126.013 96.0814C125.199 96.5554 124.54 97.6978 124.54 98.6303C124.54 99.5707 125.206 99.9515 126.02 99.4774C126.834 99.0034 127.493 97.861 127.486 96.9207C127.478 95.9803 126.819 95.6073 126.005 96.0736L126.013 96.0814Z" fill="#101418"/>
<path d="M168.332 111.856C168.324 111.942 168.316 112.035 168.301 112.121C168.285 112.19 168.262 112.26 168.247 112.338C168.223 112.424 168.208 112.509 168.177 112.587C168.154 112.657 168.123 112.727 168.092 112.789C168.053 112.874 168.014 112.968 167.968 113.053C167.937 113.115 167.898 113.177 167.859 113.24C167.797 113.341 167.735 113.434 167.665 113.535C167.627 113.589 167.58 113.651 167.533 113.706C167.425 113.838 167.309 113.962 167.177 114.087C167.13 114.133 167.092 114.18 167.037 114.227C166.96 114.296 166.867 114.366 166.782 114.436C166.704 114.499 166.626 114.561 166.549 114.623C166.456 114.693 166.347 114.755 166.247 114.825C166.138 114.895 166.045 114.965 165.929 115.027L150.998 123.723C150.634 123.933 150.238 124.112 149.827 124.283C149.719 124.329 149.61 124.368 149.502 124.407C149.246 124.5 148.982 124.57 148.711 124.648C148.432 124.726 148.161 124.796 147.874 124.858C147.54 124.928 147.199 124.99 146.858 125.036C146.773 125.044 146.695 125.06 146.61 125.068C146.145 125.114 145.672 125.145 145.199 125.145C145.122 125.145 145.052 125.145 144.974 125.145C144.509 125.145 144.044 125.114 143.579 125.068C143.509 125.068 143.44 125.052 143.37 125.044C142.912 124.99 142.463 124.912 142.021 124.811C141.943 124.796 141.858 124.772 141.781 124.749C141.377 124.648 140.99 124.531 140.618 124.391C140.548 124.368 140.478 124.345 140.408 124.321C139.959 124.151 139.532 123.948 139.129 123.715L124.098 115.019C123.268 114.537 122.656 113.986 122.237 113.395C121.826 112.804 121.617 112.175 121.625 111.553L121.586 124.71C121.586 125.961 122.408 127.22 124.059 128.176L139.091 136.872C139.47 137.09 139.873 137.284 140.3 137.455C140.323 137.463 140.346 137.471 140.37 137.478C140.439 137.502 140.509 137.525 140.579 137.548C140.819 137.634 141.067 137.727 141.315 137.797C141.455 137.836 141.594 137.867 141.734 137.898C141.812 137.921 141.889 137.937 141.974 137.96C142.044 137.976 142.114 137.999 142.191 138.015C142.463 138.069 142.742 138.123 143.021 138.162C143.122 138.178 143.222 138.186 143.323 138.193C143.393 138.201 143.463 138.209 143.533 138.217C143.633 138.224 143.734 138.24 143.835 138.248C144.106 138.271 144.385 138.287 144.664 138.294C144.75 138.294 144.835 138.294 144.928 138.294C145.005 138.294 145.075 138.294 145.153 138.294C145.277 138.294 145.401 138.294 145.525 138.294C145.835 138.287 146.145 138.263 146.455 138.232C146.494 138.232 146.525 138.224 146.556 138.217C146.641 138.209 146.719 138.193 146.804 138.186C147.044 138.154 147.285 138.131 147.525 138.084C147.626 138.069 147.727 138.03 147.827 138.007C148.114 137.945 148.393 137.875 148.665 137.797C148.812 137.758 148.967 137.735 149.114 137.688C149.23 137.649 149.339 137.603 149.455 137.556C149.564 137.517 149.672 137.478 149.781 137.432C150.192 137.268 150.587 137.09 150.951 136.872L165.882 128.168C165.882 128.168 165.952 128.129 165.983 128.106C166.061 128.059 166.13 128.005 166.2 127.958C166.301 127.896 166.402 127.826 166.495 127.756C166.58 127.694 166.657 127.632 166.735 127.57C166.82 127.5 166.913 127.43 166.991 127.36C167.006 127.345 167.03 127.329 167.045 127.313C167.076 127.282 167.099 127.251 167.13 127.22C167.262 127.096 167.378 126.972 167.487 126.839C167.51 126.808 167.541 126.785 167.564 126.754C167.588 126.723 167.603 126.7 167.619 126.668C167.689 126.575 167.758 126.474 167.813 126.373C167.836 126.334 167.875 126.295 167.898 126.249C167.913 126.225 167.913 126.21 167.929 126.187C167.975 126.101 168.014 126.016 168.053 125.922C168.076 125.868 168.107 125.821 168.123 125.767C168.123 125.751 168.13 125.728 168.138 125.713C168.169 125.627 168.185 125.549 168.208 125.464C168.223 125.409 168.247 125.347 168.254 125.293C168.254 125.277 168.254 125.262 168.254 125.246C168.27 125.161 168.278 125.068 168.285 124.982C168.285 124.928 168.301 124.865 168.309 124.811C168.309 124.788 168.309 124.764 168.309 124.741L168.347 111.584C168.347 111.67 168.332 111.748 168.324 111.833L168.332 111.856Z" fill="#3E4C5C" stroke="#262E38" stroke-width="1.2" stroke-miterlimit="10"/>
<path d="M168.332 100.751C168.324 100.836 168.316 100.93 168.301 101.015C168.285 101.085 168.262 101.155 168.247 101.233C168.223 101.318 168.208 101.404 168.177 101.481C168.154 101.551 168.123 101.621 168.092 101.683C168.053 101.769 168.014 101.862 167.968 101.948C167.937 102.01 167.898 102.072 167.859 102.134C167.797 102.235 167.735 102.328 167.665 102.429C167.627 102.484 167.58 102.546 167.533 102.6C167.425 102.733 167.309 102.857 167.177 102.981C167.13 103.028 167.092 103.074 167.037 103.121C166.96 103.191 166.867 103.261 166.782 103.331C166.704 103.393 166.626 103.455 166.549 103.517C166.456 103.587 166.347 103.65 166.247 103.719C166.138 103.789 166.045 103.859 165.929 103.922L150.998 112.618C150.634 112.827 150.238 113.006 149.827 113.177C149.719 113.224 149.61 113.263 149.502 113.302C149.246 113.395 148.982 113.465 148.711 113.542C148.432 113.62 148.161 113.69 147.874 113.752C147.54 113.822 147.199 113.884 146.858 113.931C146.773 113.939 146.695 113.954 146.61 113.962C146.145 114.009 145.672 114.04 145.199 114.04C145.122 114.04 145.052 114.04 144.974 114.04C144.509 114.04 144.044 114.009 143.579 113.962C143.509 113.962 143.44 113.947 143.37 113.939C142.912 113.884 142.463 113.807 142.021 113.706C141.943 113.69 141.858 113.667 141.781 113.643C141.377 113.542 140.99 113.426 140.618 113.286C140.548 113.263 140.478 113.239 140.408 113.216C139.959 113.045 139.532 112.843 139.129 112.61L124.098 103.914C123.268 103.432 122.656 102.88 122.237 102.29C121.826 101.699 121.617 101.069 121.625 100.448L121.586 113.605C121.586 114.856 122.408 116.115 124.059 117.071L139.091 125.767C139.47 125.984 139.873 126.179 140.3 126.35C140.323 126.357 140.346 126.365 140.37 126.373C140.439 126.396 140.509 126.419 140.579 126.443C140.819 126.528 141.067 126.622 141.315 126.691C141.455 126.73 141.594 126.761 141.734 126.793C141.812 126.816 141.889 126.831 141.974 126.855C142.044 126.87 142.114 126.894 142.191 126.909C142.463 126.963 142.742 127.018 143.021 127.057C143.122 127.072 143.222 127.08 143.323 127.088C143.393 127.096 143.463 127.103 143.533 127.111C143.633 127.119 143.734 127.134 143.835 127.142C144.106 127.166 144.385 127.181 144.664 127.189C144.75 127.189 144.835 127.189 144.928 127.189C145.005 127.189 145.075 127.189 145.153 127.189C145.277 127.189 145.401 127.189 145.525 127.189C145.835 127.181 146.145 127.158 146.455 127.127C146.494 127.127 146.525 127.119 146.556 127.111C146.641 127.103 146.719 127.088 146.804 127.08C147.044 127.049 147.285 127.026 147.525 126.979C147.626 126.963 147.727 126.925 147.827 126.901C148.114 126.839 148.393 126.769 148.665 126.691C148.812 126.653 148.967 126.629 149.114 126.583C149.23 126.544 149.339 126.497 149.455 126.451C149.564 126.412 149.672 126.373 149.781 126.326C150.192 126.163 150.587 125.984 150.951 125.767L165.882 117.063C165.882 117.063 165.952 117.024 165.983 117.001C166.061 116.954 166.13 116.9 166.2 116.853C166.301 116.791 166.402 116.721 166.495 116.651C166.58 116.589 166.657 116.527 166.735 116.464C166.82 116.394 166.913 116.325 166.991 116.255C167.006 116.239 167.03 116.224 167.045 116.208C167.076 116.177 167.099 116.146 167.13 116.115C167.262 115.99 167.378 115.866 167.487 115.734C167.51 115.703 167.541 115.68 167.564 115.648C167.588 115.617 167.603 115.594 167.619 115.563C167.689 115.47 167.758 115.369 167.813 115.268C167.836 115.229 167.875 115.19 167.898 115.143C167.913 115.12 167.913 115.104 167.929 115.081C167.975 114.996 168.014 114.91 168.053 114.817C168.076 114.763 168.107 114.716 168.123 114.661C168.123 114.646 168.13 114.623 168.138 114.607C168.169 114.522 168.185 114.444 168.208 114.358C168.223 114.304 168.247 114.242 168.254 114.187C168.254 114.172 168.254 114.156 168.254 114.141C168.27 114.055 168.278 113.962 168.285 113.877C168.285 113.822 168.301 113.76 168.309 113.706C168.309 113.682 168.309 113.659 168.309 113.636L168.347 100.479C168.347 100.564 168.332 100.642 168.324 100.728L168.332 100.751Z" fill="#2F3945" stroke="#262E38" stroke-width="1.2" stroke-linecap="round" stroke-linejoin="round"/>
<path d="M168.332 122.93C168.324 123.016 168.316 123.109 168.301 123.194C168.285 123.264 168.262 123.334 168.247 123.412C168.223 123.497 168.208 123.583 168.177 123.661C168.154 123.73 168.123 123.8 168.092 123.863C168.053 123.948 168.014 124.041 167.968 124.127C167.937 124.189 167.898 124.251 167.859 124.313C167.797 124.414 167.735 124.508 167.665 124.609C167.627 124.663 167.58 124.725 167.533 124.78C167.425 124.912 167.309 125.036 167.177 125.16C167.13 125.207 167.092 125.254 167.037 125.3C166.96 125.37 166.867 125.44 166.782 125.51C166.704 125.572 166.626 125.634 166.549 125.697C166.456 125.767 166.347 125.829 166.247 125.899C166.138 125.969 166.045 126.039 165.929 126.101L150.998 134.797C150.634 135.007 150.238 135.185 149.827 135.356C149.719 135.403 149.61 135.442 149.502 135.481C149.246 135.574 148.982 135.644 148.711 135.722C148.432 135.799 148.161 135.869 147.874 135.931C147.54 136.001 147.199 136.064 146.858 136.11C146.773 136.118 146.695 136.133 146.61 136.141C146.145 136.188 145.672 136.219 145.199 136.219C145.122 136.219 145.052 136.219 144.974 136.219C144.509 136.219 144.044 136.188 143.579 136.141C143.509 136.141 143.44 136.126 143.37 136.118C142.912 136.064 142.463 135.986 142.021 135.885C141.943 135.869 141.858 135.846 141.781 135.823C141.377 135.722 140.99 135.605 140.618 135.465C140.548 135.442 140.478 135.419 140.408 135.395C139.959 135.224 139.532 135.022 139.129 134.789L124.098 126.093C123.268 125.611 122.656 125.059 122.237 124.469C121.826 123.878 121.617 123.249 121.625 122.627L121.586 135.784C121.586 137.035 122.408 138.294 124.059 139.25L139.091 147.946C139.47 148.163 139.873 148.358 140.3 148.529C140.323 148.537 140.346 148.544 140.37 148.552C140.439 148.575 140.509 148.599 140.579 148.622C140.819 148.707 141.067 148.801 141.315 148.871C141.455 148.91 141.594 148.941 141.734 148.972C141.812 148.995 141.889 149.011 141.974 149.034C142.044 149.049 142.114 149.073 142.191 149.088C142.463 149.143 142.742 149.197 143.021 149.236C143.122 149.251 143.222 149.259 143.323 149.267C143.393 149.275 143.463 149.283 143.533 149.29C143.633 149.298 143.734 149.314 143.835 149.321C144.106 149.345 144.385 149.36 144.664 149.368C144.75 149.368 144.835 149.368 144.928 149.368C145.005 149.368 145.075 149.368 145.153 149.368C145.277 149.368 145.401 149.368 145.525 149.368C145.835 149.36 146.145 149.337 146.455 149.306C146.494 149.306 146.525 149.298 146.556 149.29C146.641 149.283 146.719 149.267 146.804 149.259C147.044 149.228 147.285 149.205 147.525 149.158C147.626 149.143 147.727 149.104 147.827 149.08C148.114 149.018 148.393 148.948 148.665 148.871C148.812 148.832 148.967 148.808 149.114 148.762C149.23 148.723 149.339 148.676 149.455 148.63C149.564 148.591 149.672 148.552 149.781 148.505C150.192 148.342 150.587 148.163 150.951 147.946L165.882 139.242C165.882 139.242 165.952 139.203 165.983 139.18C166.061 139.133 166.13 139.079 166.2 139.032C166.301 138.97 166.402 138.9 166.495 138.83C166.58 138.768 166.657 138.706 166.735 138.644C166.82 138.574 166.913 138.504 166.991 138.434C167.006 138.418 167.03 138.403 167.045 138.387C167.076 138.356 167.099 138.325 167.13 138.294C167.262 138.17 167.378 138.045 167.487 137.913C167.51 137.882 167.541 137.859 167.564 137.828C167.588 137.797 167.603 137.773 167.619 137.742C167.689 137.649 167.758 137.548 167.813 137.447C167.836 137.408 167.875 137.369 167.898 137.323C167.913 137.299 167.913 137.284 167.929 137.26C167.975 137.175 168.014 137.089 168.053 136.996C168.076 136.942 168.107 136.895 168.123 136.841C168.123 136.825 168.13 136.802 168.138 136.786C168.169 136.701 168.185 136.623 168.208 136.538C168.223 136.483 168.247 136.421 168.254 136.367C168.254 136.351 168.254 136.336 168.254 136.32C168.27 136.235 168.278 136.141 168.285 136.056C168.285 136.001 168.301 135.939 168.309 135.885C168.309 135.861 168.309 135.838 168.309 135.815L168.347 122.658C168.347 122.744 168.332 122.821 168.324 122.907L168.332 122.93Z" fill="#2F3945" stroke="#262E38" stroke-width="1.2" stroke-linecap="round" stroke-linejoin="round"/>
<path d="M165.874 97.0362C169.153 98.9324 169.184 102.018 165.921 103.914L150.99 112.61C147.726 114.506 142.416 114.506 139.129 112.61L124.097 103.914C120.818 102.018 120.795 98.9246 124.059 97.0284L138.989 88.3323C142.253 86.4361 147.556 86.4361 150.843 88.3323L165.874 97.0284V97.0362Z" fill="#536375" stroke="#262E38" stroke-width="1.2" stroke-miterlimit="10"/>
<path d="M147.462 97.2025L149.362 98.3H149.353L151.294 99.4198C151.925 99.7839 152.109 100.179 152.111 100.452C152.113 100.722 151.937 101.114 151.312 101.476L151.311 101.477L147.497 103.694C147.497 103.694 147.497 103.694 147.497 103.694C146.873 104.055 146.017 104.253 145.129 104.253C144.24 104.253 143.382 104.055 142.754 103.693L138.916 101.476L138.916 101.476C138.284 101.112 138.103 100.718 138.102 100.448C138.101 100.178 138.278 99.7848 138.906 99.4185C138.906 99.4184 138.906 99.4184 138.906 99.4183L142.718 97.202C142.719 97.2019 142.719 97.2018 142.719 97.2018C143.343 96.8404 144.199 96.6425 145.087 96.6425C145.976 96.6425 146.833 96.8404 147.461 97.2023C147.461 97.2024 147.461 97.2025 147.462 97.2025Z" fill="#3E4C5C" stroke="#262E38" stroke-width="1.2"/>
<path d="M128.439 111.382C129.253 111.856 129.912 112.999 129.912 113.931C129.912 114.871 129.245 115.252 128.431 114.778C127.617 114.312 126.958 113.162 126.966 112.221C126.974 111.281 127.633 110.908 128.447 111.374L128.439 111.382Z" fill="#9F88FD"/>
<path d="M132.168 113.659C132.982 114.133 133.641 115.275 133.641 116.208C133.641 117.141 132.974 117.529 132.16 117.055C131.346 116.589 130.687 115.439 130.695 114.498C130.703 113.558 131.362 113.185 132.176 113.651L132.168 113.659Z" fill="#9F88FD"/>
<path d="M135.889 115.929C136.703 116.403 137.362 117.545 137.362 118.478C137.362 119.418 136.696 119.799 135.882 119.325C135.068 118.851 134.409 117.708 134.416 116.768C134.424 115.828 135.083 115.454 135.897 115.921L135.889 115.929Z" fill="#9F88FD"/>
<path d="M161.642 133.383C160.828 133.857 160.169 134.999 160.169 135.932C160.169 136.864 160.836 137.253 161.65 136.779C162.464 136.305 163.122 135.162 163.115 134.222C163.107 133.282 162.448 132.909 161.634 133.375L161.642 133.383Z" fill="#101418"/>
<path d="M157.913 135.652C157.099 136.126 156.44 137.268 156.44 138.201C156.44 139.133 157.107 139.522 157.921 139.048C158.735 138.581 159.394 137.431 159.386 136.491C159.378 135.551 158.719 135.178 157.905 135.644L157.913 135.652Z" fill="#101418"/>
<path d="M154.184 137.921C153.37 138.395 152.711 139.538 152.711 140.47C152.711 141.403 153.378 141.791 154.192 141.317C155.006 140.843 155.665 139.701 155.657 138.761C155.657 137.828 154.99 137.447 154.176 137.914L154.184 137.921Z" fill="#101418"/>
<path d="M132.943 136.017C133.757 136.491 134.416 137.633 134.416 138.566C134.416 139.499 133.749 139.887 132.935 139.413C132.121 138.939 131.462 137.797 131.47 136.856C131.47 135.924 132.137 135.543 132.951 136.009L132.943 136.017Z" fill="#101418"/>
<path d="M157.138 114.024C156.324 114.498 155.665 115.641 155.665 116.573C155.665 117.514 156.331 117.894 157.145 117.42C157.959 116.946 158.618 115.804 158.611 114.864C158.603 113.923 157.944 113.55 157.13 114.016L157.138 114.024Z" fill="#101418"/>
<path d="M296.863 80.4934L158.711 171.069C151.114 175.614 136.441 175.976 127.996 171.069L20.6283 108.673C12.1893 103.771 12.2261 95.793 20.7266 90.8794L89.8787 48.7457C95.4617 45.3369 102.476 45.3185 108.077 48.6904L160.867 80.4934C168.944 85.3578 179.066 85.3148 187.099 80.3767L219.947 60.8453C224.559 57.9954 223.337 51.1226 217.846 47.5296L186.608 28.207L175.878 33.8023L205.771 51.9395C209.026 53.4995 209.186 56.1652 206.655 58.02L184.385 71.3112C178.82 74.8367 171.198 75.5983 166.401 72.73L112.426 40.4418C104.097 35.4607 93.7051 35.4668 85.3828 40.4541L11.3294 85.4254C-2.37942 93.3423 -2.45312 106.222 11.1697 114.139L118.537 176.535C132.16 184.452 151.66 186.466 168.121 176.535L306.303 85.9413L296.863 80.4934Z" stroke="#262E38" stroke-width="1.2" stroke-linejoin="round"/>
<path d="M143.719 180.791C135.359 180.791 126.853 178.525 119.771 174.41L12.4039 112.014C6.63047 108.66 3.44895 104.33 3.45509 99.8343C3.46123 95.3015 6.69189 90.9346 12.5574 87.5504L86.66 42.5607C90.3574 40.3434 94.5953 39.1703 98.9193 39.1703C103.243 39.1703 107.469 40.3373 111.166 42.5545L165.142 74.8427C167.445 76.2185 170.338 76.9494 173.501 76.9494C177.677 76.9494 182.112 75.6596 185.668 73.4116L208.006 60.0775L208.098 60.0099C210.015 58.6034 211.01 56.6748 210.832 54.7156C210.721 53.5302 210.07 51.3314 206.944 49.7897L179.802 33.2188L185.428 30.2891L216.519 49.6178C218.859 51.1594 220.352 53.567 220.327 55.7597C220.309 57.0802 219.75 58.0936 218.656 58.7692L185.846 78.2822C182.229 80.5056 178.101 81.6725 173.888 81.6725C169.674 81.6725 165.682 80.5424 162.138 78.405L109.348 46.6021C106.234 44.7226 102.666 43.7338 99.0298 43.7338C95.3938 43.7338 91.7455 44.7472 88.607 46.6635L19.4487 88.7849C14.5843 91.5918 11.8757 95.5165 11.8695 99.8036C11.8695 104.066 14.5351 107.972 19.3934 110.798L126.761 173.194C131.066 175.693 136.95 177.069 143.344 177.069C149.738 177.069 155.837 175.65 159.97 173.175L160.056 173.12L299.559 81.6725L304.233 84.3689L166.806 174.453C159.921 178.599 151.937 180.785 143.719 180.785V180.791Z" fill="#262E38"/>
<path d="M70.9961 54.547C70.9961 54.6268 70.9838 54.7128 70.9777 54.7927C70.9715 54.8786 70.9654 54.9708 70.947 55.0568C70.9347 55.1305 70.9101 55.198 70.8917 55.2717C70.8671 55.3577 70.8487 55.4376 70.818 55.5235C70.7934 55.5911 70.7627 55.6587 70.732 55.7262C70.6951 55.8122 70.6583 55.8982 70.6091 55.9903C70.5784 56.0517 70.5354 56.1132 70.4986 56.1746C70.4372 56.2729 70.3758 56.3711 70.3021 56.4694C70.2591 56.5247 70.2099 56.58 70.1669 56.6414C70.0564 56.7704 69.9397 56.8993 69.8107 57.0222C69.7616 57.0652 69.7186 57.1143 69.6694 57.1573C69.5896 57.231 69.4975 57.2986 69.4115 57.3723C69.3316 57.4337 69.2579 57.4951 69.1781 57.5565C69.0859 57.6241 68.9815 57.6917 68.8771 57.7592C68.7727 57.8268 68.6744 57.9005 68.5577 57.9619L57.0907 64.6259C56.8389 64.7733 56.5748 64.9023 56.2984 65.0251C56.2186 65.062 56.1387 65.0927 56.0589 65.1295C55.8439 65.2217 55.6228 65.3015 55.3956 65.3814C55.3157 65.4059 55.2359 65.4366 55.156 65.4673C55.0148 65.5103 54.8674 65.5533 54.7261 65.5902C54.6155 65.6209 54.505 65.6516 54.3944 65.6762C54.2409 65.713 54.0873 65.7437 53.9276 65.7744C53.8232 65.7929 53.7188 65.8174 53.6083 65.8359C53.295 65.8911 52.9756 65.9341 52.6501 65.971C52.5518 65.9833 52.4474 65.9894 52.3492 65.9956C52.1588 66.014 51.9745 66.0263 51.7841 66.0324C51.6613 66.0324 51.5384 66.0385 51.4217 66.0447C51.2682 66.0447 51.1146 66.0447 50.9611 66.0447C50.8321 66.0447 50.7031 66.0447 50.5741 66.0324C50.4329 66.0324 50.2916 66.0201 50.1503 66.0078C50.0214 66.0017 49.8924 65.9894 49.7634 65.9771C49.6221 65.9648 49.4809 65.9464 49.3396 65.928C49.2168 65.9096 49.0878 65.8973 48.9649 65.8727C48.8175 65.8481 48.664 65.8236 48.5166 65.7929C48.3999 65.7683 48.2832 65.7499 48.1665 65.7253C47.9884 65.6885 47.8164 65.6455 47.6444 65.5963C47.5462 65.5718 47.454 65.5472 47.3558 65.5165C47.0487 65.4244 46.7477 65.3261 46.4529 65.2094C46.3116 65.1541 46.1704 65.0927 46.0291 65.0313C45.9554 65.0006 45.8817 64.9699 45.808 64.933C45.5992 64.8347 45.3903 64.7242 45.1938 64.6136L33.6531 57.9496C32.2036 57.1143 31.3929 56.0517 31.2147 54.9585C31.1902 54.8049 31.1779 54.6452 31.1779 54.4917L31.1533 64.1775C31.1533 65.4305 31.9763 66.6834 33.6285 67.6355L45.1692 74.2995C45.3658 74.4162 45.5746 74.5206 45.7834 74.6188C45.851 74.6495 45.9308 74.6803 45.9984 74.711C46.1212 74.7662 46.2502 74.8277 46.3792 74.8768C46.3915 74.8768 46.4099 74.8891 46.4283 74.8952C46.7231 75.0058 47.0241 75.1102 47.3312 75.2023C47.3558 75.2085 47.3803 75.2207 47.4049 75.2269C47.4725 75.2453 47.5462 75.2637 47.6199 75.2822C47.7918 75.3252 47.9638 75.3743 48.1419 75.4111C48.1911 75.4234 48.2341 75.4357 48.2832 75.448C48.3508 75.4603 48.4245 75.4726 48.492 75.4849C48.6394 75.5156 48.7868 75.5401 48.9342 75.5647C48.9957 75.577 49.0509 75.5893 49.1124 75.5954C49.1799 75.6077 49.2475 75.6077 49.3089 75.62C49.4502 75.6384 49.5853 75.6507 49.7265 75.6691C49.7941 75.6753 49.8617 75.6875 49.9292 75.6937C49.9907 75.6937 50.0582 75.6937 50.1196 75.706C50.2609 75.7183 50.4022 75.7244 50.5434 75.7305C50.6171 75.7305 50.6847 75.7428 50.7584 75.7428C50.8137 75.7428 50.8751 75.7428 50.9304 75.7428C51.0839 75.7428 51.2375 75.7428 51.391 75.7428C51.4647 75.7428 51.5446 75.7428 51.6183 75.7428C51.6613 75.7428 51.7104 75.7367 51.7534 75.7367C51.9438 75.7305 52.1342 75.7121 52.3246 75.6998C52.3983 75.6937 52.4781 75.6937 52.5518 75.6875C52.5764 75.6875 52.5948 75.6814 52.6194 75.6753C52.9388 75.6445 53.2582 75.5954 53.5775 75.5401C53.596 75.5401 53.6083 75.5401 53.6267 75.534C53.7188 75.5156 53.8048 75.4971 53.8969 75.4787C54.0505 75.448 54.2102 75.4173 54.3637 75.3804C54.4743 75.3559 54.5848 75.319 54.6954 75.2945C54.8428 75.2576 54.9841 75.2146 55.1315 75.1716C55.1622 75.1593 55.1929 75.1532 55.2236 75.147C55.2727 75.1286 55.3219 75.1102 55.371 75.0918C55.5982 75.0119 55.8194 74.9321 56.0343 74.84C56.1142 74.8092 56.194 74.7724 56.2739 74.7355C56.5502 74.6127 56.8144 74.4837 57.0662 74.3363L68.5332 67.6723C68.57 67.6539 68.6007 67.6293 68.6376 67.6109C68.7174 67.5618 68.7789 67.5126 68.8526 67.4696C68.957 67.4021 69.0614 67.3345 69.1535 67.2669C69.2395 67.2055 69.3132 67.1441 69.3869 67.0827C69.4729 67.0151 69.565 66.9414 69.6449 66.8677C69.6633 66.8554 69.6817 66.837 69.694 66.8247C69.7247 66.794 69.7493 66.7633 69.78 66.7326C69.909 66.6097 70.0257 66.4808 70.1362 66.3518C70.1608 66.3211 70.1915 66.2965 70.2161 66.2658C70.2406 66.2351 70.2529 66.2105 70.2713 66.1798C70.345 66.0815 70.4065 65.9833 70.4679 65.885C70.4925 65.842 70.5293 65.8052 70.5477 65.7622C70.56 65.7437 70.5662 65.7192 70.5784 65.7007C70.6276 65.6148 70.6644 65.5288 70.7013 65.4366C70.7258 65.3875 70.7504 65.3384 70.775 65.2831C70.7811 65.2647 70.7811 65.2462 70.7873 65.234C70.818 65.148 70.8364 65.0681 70.861 64.9821C70.8733 64.9269 70.8978 64.8716 70.9101 64.8102C70.9101 64.7979 70.9101 64.7794 70.9101 64.7672C70.9285 64.6812 70.9347 64.589 70.9408 64.5031C70.9408 64.4478 70.9592 64.3864 70.9592 64.3311C70.9592 64.3065 70.9592 64.2819 70.9592 64.2574L70.9838 54.5715L70.9961 54.547Z" fill="#2F3945" stroke="#262E38" stroke-width="1.2" stroke-linecap="round" stroke-linejoin="round"/>
<path d="M68.5092 51.0764C71.8013 52.9804 71.8259 56.0575 68.5584 57.9554L57.0914 64.6194C53.8177 66.5234 48.4988 66.5234 45.2067 64.6194L33.666 57.9554C30.3739 56.0514 30.3616 52.9742 33.6353 51.0764L45.1023 44.4124C48.376 42.5084 53.6826 42.5084 56.9747 44.4124L68.5154 51.0764H68.5092Z" fill="#3E4C5C" stroke="#262E38" stroke-width="1.2" stroke-miterlimit="10" stroke-linejoin="round"/>
<path d="M57.5636 52.5626C59.0438 53.4163 59.0561 54.8044 57.582 55.6582L53.7679 57.8754C52.2938 58.7291 49.9046 58.7291 48.4244 57.8754L44.5857 55.6582C43.1055 54.8044 43.0993 53.4225 44.5734 52.5626L48.3875 50.3454C49.8616 49.4916 52.2508 49.4916 53.731 50.3454L57.5697 52.5626H57.5636Z" fill="#7655FC"/>
<path d="M219.465 141.69C219.465 141.77 219.453 141.856 219.446 141.936C219.44 142.022 219.434 142.114 219.416 142.2C219.403 142.274 219.379 142.341 219.36 142.415C219.336 142.501 219.317 142.581 219.287 142.667C219.262 142.734 219.231 142.802 219.201 142.869C219.164 142.955 219.127 143.041 219.078 143.133C219.047 143.195 219.004 143.256 218.967 143.318C218.906 143.416 218.845 143.514 218.771 143.612C218.728 143.668 218.679 143.723 218.636 143.784C218.525 143.913 218.408 144.042 218.279 144.165C218.23 144.208 218.187 144.257 218.138 144.3C218.058 144.374 217.966 144.442 217.88 144.515C217.8 144.577 217.727 144.638 217.647 144.7C217.555 144.767 217.45 144.835 217.346 144.902C217.241 144.97 217.143 145.044 217.026 145.105L205.559 151.769C205.308 151.916 205.044 152.045 204.767 152.168C204.687 152.205 204.607 152.236 204.528 152.273C204.313 152.365 204.092 152.445 203.864 152.524C203.784 152.549 203.705 152.58 203.625 152.61C203.484 152.653 203.336 152.696 203.195 152.733C203.084 152.764 202.974 152.795 202.863 152.819C202.71 152.856 202.556 152.887 202.396 152.918C202.292 152.936 202.188 152.961 202.077 152.979C201.764 153.034 201.444 153.077 201.119 153.114C201.021 153.126 200.916 153.132 200.818 153.139C200.628 153.157 200.443 153.169 200.253 153.175C200.13 153.175 200.007 153.182 199.89 153.188C199.737 153.188 199.583 153.188 199.43 153.188C199.301 153.188 199.172 153.188 199.043 153.175C198.902 153.175 198.76 153.163 198.619 153.151C198.49 153.145 198.361 153.132 198.232 153.12C198.091 153.108 197.95 153.089 197.808 153.071C197.686 153.053 197.557 153.04 197.434 153.016C197.286 152.991 197.133 152.967 196.985 152.936C196.869 152.911 196.752 152.893 196.635 152.868C196.457 152.832 196.285 152.789 196.113 152.739C196.015 152.715 195.923 152.69 195.825 152.66C195.517 152.567 195.216 152.469 194.922 152.352C194.78 152.297 194.639 152.236 194.498 152.174C194.424 152.144 194.35 152.113 194.277 152.076C194.068 151.978 193.859 151.867 193.663 151.757L182.122 145.093C180.672 144.257 179.862 143.195 179.683 142.102C179.659 141.948 179.647 141.788 179.647 141.635L179.622 151.321C179.622 152.574 180.445 153.827 182.097 154.779L193.638 161.443C193.835 161.559 194.043 161.664 194.252 161.762C194.32 161.793 194.4 161.823 194.467 161.854C194.59 161.909 194.719 161.971 194.848 162.02C194.86 162.02 194.879 162.032 194.897 162.038C195.192 162.149 195.493 162.253 195.8 162.345C195.825 162.352 195.849 162.364 195.874 162.37C195.941 162.388 196.015 162.407 196.089 162.425C196.261 162.468 196.433 162.517 196.611 162.554C196.66 162.567 196.703 162.579 196.752 162.591C196.82 162.603 196.893 162.616 196.961 162.628C197.108 162.659 197.256 162.683 197.403 162.708C197.464 162.72 197.52 162.732 197.581 162.738C197.649 162.751 197.716 162.751 197.778 162.763C197.919 162.781 198.054 162.794 198.195 162.812C198.263 162.818 198.33 162.831 198.398 162.837C198.459 162.837 198.527 162.837 198.588 162.849C198.73 162.861 198.871 162.867 199.012 162.874C199.086 162.874 199.153 162.886 199.227 162.886C199.282 162.886 199.344 162.886 199.399 162.886C199.553 162.886 199.706 162.886 199.86 162.886C199.933 162.886 200.013 162.886 200.087 162.886C200.13 162.886 200.179 162.88 200.222 162.88C200.413 162.874 200.603 162.855 200.793 162.843C200.867 162.837 200.947 162.837 201.021 162.831C201.045 162.831 201.064 162.824 201.088 162.818C201.408 162.788 201.727 162.738 202.046 162.683C202.065 162.683 202.077 162.683 202.095 162.677C202.188 162.659 202.274 162.64 202.366 162.622C202.519 162.591 202.679 162.56 202.832 162.524C202.943 162.499 203.054 162.462 203.164 162.438C203.312 162.401 203.453 162.358 203.6 162.315C203.631 162.302 203.662 162.296 203.692 162.29C203.741 162.272 203.791 162.253 203.84 162.235C204.067 162.155 204.288 162.075 204.503 161.983C204.583 161.952 204.663 161.915 204.743 161.879C205.019 161.756 205.283 161.627 205.535 161.479L217.002 154.815C217.039 154.797 217.069 154.772 217.106 154.754C217.186 154.705 217.248 154.656 217.321 154.613C217.426 154.545 217.53 154.478 217.622 154.41C217.708 154.349 217.782 154.287 217.856 154.226C217.942 154.158 218.034 154.084 218.114 154.011C218.132 153.998 218.15 153.98 218.163 153.968C218.193 153.937 218.218 153.906 218.249 153.876C218.378 153.753 218.494 153.624 218.605 153.495C218.63 153.464 218.66 153.44 218.685 153.409C218.709 153.378 218.722 153.354 218.74 153.323C218.814 153.225 218.875 153.126 218.937 153.028C218.961 152.985 218.998 152.948 219.016 152.905C219.029 152.887 219.035 152.862 219.047 152.844C219.096 152.758 219.133 152.672 219.17 152.58C219.195 152.531 219.219 152.481 219.244 152.426C219.25 152.408 219.25 152.389 219.256 152.377C219.287 152.291 219.305 152.211 219.33 152.125C219.342 152.07 219.367 152.015 219.379 151.953C219.379 151.941 219.379 151.923 219.379 151.91C219.397 151.824 219.403 151.732 219.41 151.646C219.41 151.591 219.428 151.529 219.428 151.474C219.428 151.45 219.428 151.425 219.428 151.4L219.453 141.715L219.465 141.69Z" fill="#2F3945" stroke="#262E38" stroke-width="1.2" stroke-linecap="round" stroke-linejoin="round"/>
<path d="M216.978 138.219C220.27 140.123 220.295 143.201 217.027 145.098L205.56 151.762C202.286 153.666 196.968 153.666 193.675 151.762L182.135 145.098C178.843 143.194 178.83 140.117 182.104 138.219L193.571 131.555C196.845 129.651 202.151 129.651 205.443 131.555L216.984 138.219H216.978Z" fill="#3E4C5C" stroke="#262E38" stroke-width="1.2" stroke-miterlimit="10" stroke-linejoin="round"/>
<path d="M206.032 139.706C207.513 140.559 207.525 141.947 206.051 142.801L202.237 145.018C200.763 145.872 198.373 145.872 196.893 145.018L193.054 142.801C191.574 141.947 191.568 140.566 193.042 139.706L196.856 137.488C198.33 136.635 200.72 136.635 202.2 137.488L206.038 139.706H206.032Z" fill="#7655FC"/>
<path d="M98.5234 136.842C98.5234 136.922 98.5112 137.008 98.505 137.088C98.4989 137.174 98.4927 137.266 98.4743 137.352C98.462 137.426 98.4375 137.493 98.419 137.567C98.3945 137.653 98.376 137.733 98.3453 137.819C98.3208 137.887 98.29 137.954 98.2593 138.022C98.2225 138.108 98.1856 138.194 98.1365 138.286C98.1058 138.347 98.0628 138.409 98.0259 138.47C97.9645 138.568 97.9031 138.667 97.8294 138.765C97.7864 138.82 97.7373 138.875 97.6943 138.937C97.5837 139.066 97.467 139.195 97.338 139.318C97.2889 139.361 97.2459 139.41 97.1968 139.453C97.1169 139.526 97.0248 139.594 96.9388 139.668C96.859 139.729 96.7853 139.791 96.7054 139.852C96.6133 139.919 96.5089 139.987 96.4045 140.055C96.3001 140.122 96.2018 140.196 96.0851 140.257L84.6181 146.921C84.3663 147.069 84.1022 147.198 83.8258 147.321C83.7459 147.357 83.6661 147.388 83.5862 147.425C83.3713 147.517 83.1502 147.597 82.9229 147.677C82.8431 147.701 82.7632 147.732 82.6834 147.763C82.5421 147.806 82.3947 147.849 82.2534 147.886C82.1429 147.916 82.0323 147.947 81.9218 147.972C81.7682 148.008 81.6147 148.039 81.455 148.07C81.3506 148.088 81.2462 148.113 81.1356 148.131C80.8224 148.187 80.503 148.23 80.1775 148.266C80.0792 148.279 79.9748 148.285 79.8765 148.291C79.6861 148.309 79.5018 148.322 79.3114 148.328C79.1886 148.328 79.0658 148.334 78.9491 148.34C78.7955 148.34 78.642 148.34 78.4884 148.34C78.3594 148.34 78.2305 148.34 78.1015 148.328C77.9602 148.328 77.819 148.316 77.6777 148.303C77.5487 148.297 77.4197 148.285 77.2907 148.273C77.1495 148.26 77.0082 148.242 76.867 148.223C76.7441 148.205 76.6151 148.193 76.4923 148.168C76.3449 148.144 76.1913 148.119 76.0439 148.088C75.9272 148.064 75.8105 148.045 75.6938 148.021C75.5157 147.984 75.3437 147.941 75.1718 147.892C75.0735 147.867 74.9814 147.843 74.8831 147.812C74.576 147.72 74.2751 147.621 73.9802 147.505C73.839 147.45 73.6977 147.388 73.5564 147.327C73.4827 147.296 73.409 147.265 73.3353 147.228C73.1265 147.13 72.9177 147.02 72.7211 146.909L61.1804 140.245C59.7309 139.41 58.9202 138.347 58.7421 137.254C58.7175 137.1 58.7052 136.941 58.7052 136.787L58.6807 146.473C58.6807 147.726 59.5037 148.979 61.1559 149.931L72.6966 156.595C72.8931 156.712 73.1019 156.816 73.3108 156.914C73.3783 156.945 73.4582 156.976 73.5257 157.006C73.6486 157.062 73.7776 157.123 73.9065 157.172C73.9188 157.172 73.9372 157.184 73.9557 157.191C74.2505 157.301 74.5514 157.406 74.8585 157.498C74.8831 157.504 74.9077 157.516 74.9322 157.522C74.9998 157.541 75.0735 157.559 75.1472 157.578C75.3192 157.621 75.4912 157.67 75.6693 157.707C75.7184 157.719 75.7614 157.731 75.8105 157.743C75.8781 157.756 75.9518 157.768 76.0194 157.78C76.1668 157.811 76.3142 157.836 76.4616 157.86C76.523 157.872 76.5783 157.885 76.6397 157.891C76.7073 157.903 76.7748 157.903 76.8362 157.915C76.9775 157.934 77.1126 157.946 77.2539 157.965C77.3215 157.971 77.389 157.983 77.4566 157.989C77.518 157.989 77.5856 157.989 77.647 158.001C77.7882 158.014 77.9295 158.02 78.0708 158.026C78.1445 158.026 78.212 158.038 78.2857 158.038C78.341 158.038 78.4024 158.038 78.4577 158.038C78.6113 158.038 78.7648 158.038 78.9184 158.038C78.9921 158.038 79.0719 158.038 79.1456 158.038C79.1886 158.038 79.2377 158.032 79.2807 158.032C79.4711 158.026 79.6615 158.008 79.8519 157.995C79.9256 157.989 80.0055 157.989 80.0792 157.983C80.1038 157.983 80.1222 157.977 80.1468 157.971C80.4661 157.94 80.7855 157.891 81.1049 157.836C81.1233 157.836 81.1356 157.836 81.154 157.829C81.2462 157.811 81.3321 157.793 81.4243 157.774C81.5778 157.743 81.7375 157.713 81.8911 157.676C82.0016 157.651 82.1122 157.614 82.2227 157.59C82.3701 157.553 82.5114 157.51 82.6588 157.467C82.6895 157.455 82.7202 157.449 82.7509 157.442C82.8001 157.424 82.8492 157.406 82.8983 157.387C83.1256 157.307 83.3467 157.227 83.5617 157.135C83.6415 157.105 83.7214 157.068 83.8012 157.031C84.0776 156.908 84.3417 156.779 84.5935 156.632L96.0605 149.968C96.0974 149.949 96.1281 149.925 96.1649 149.906C96.2448 149.857 96.3062 149.808 96.3799 149.765C96.4843 149.697 96.5887 149.63 96.6809 149.562C96.7668 149.501 96.8405 149.44 96.9142 149.378C97.0002 149.311 97.0924 149.237 97.1722 149.163C97.1906 149.151 97.2091 149.132 97.2213 149.12C97.2521 149.089 97.2766 149.059 97.3073 149.028C97.4363 148.905 97.553 148.776 97.6636 148.647C97.6881 148.616 97.7188 148.592 97.7434 148.561C97.768 148.531 97.7803 148.506 97.7987 148.475C97.8724 148.377 97.9338 148.279 97.9952 148.18C98.0198 148.137 98.0566 148.101 98.0751 148.058C98.0874 148.039 98.0935 148.015 98.1058 147.996C98.1549 147.91 98.1918 147.824 98.2286 147.732C98.2532 147.683 98.2778 147.634 98.3023 147.579C98.3085 147.56 98.3085 147.542 98.3146 147.529C98.3453 147.443 98.3637 147.364 98.3883 147.278C98.4006 147.222 98.4252 147.167 98.4375 147.106C98.4375 147.093 98.4375 147.075 98.4375 147.063C98.4559 146.977 98.462 146.884 98.4682 146.798C98.4682 146.743 98.4866 146.682 98.4866 146.626C98.4866 146.602 98.4866 146.577 98.4866 146.553L98.5112 136.867L98.5234 136.842Z" fill="#2F3945" stroke="#262E38" stroke-width="1.2" stroke-linecap="round" stroke-linejoin="round"/>
<path d="M96.0366 133.372C99.3287 135.276 99.3532 138.353 96.0857 140.251L84.6187 146.915C81.3451 148.819 76.0261 148.819 72.7341 146.915L61.1934 140.251C57.9013 138.347 57.889 135.27 61.1626 133.372L72.6296 126.708C75.9033 124.804 81.2099 124.804 84.502 126.708L96.0427 133.372H96.0366Z" fill="#3E4C5C" stroke="#262E38" stroke-width="1.2" stroke-miterlimit="10" stroke-linejoin="round"/>
<path d="M85.091 134.858C86.5712 135.712 86.5834 137.1 85.1094 137.954L81.2952 140.171C79.8212 141.025 77.432 141.025 75.9517 140.171L72.113 137.954C70.6328 137.1 70.6267 135.718 72.1007 134.858L75.9149 132.641C77.389 131.787 79.7782 131.787 81.2584 132.641L85.0971 134.858H85.091Z" fill="#7655FC"/>
<path d="M331.679 99.7664C337.28 103.003 337.31 108.243 331.739 111.48L167.555 212.43C161.984 215.667 152.936 215.667 147.335 212.43L7.67461 131.82C2.07375 128.582 2.04364 123.343 7.61439 120.106L171.799 19.1411C177.369 15.904 186.418 15.904 192.019 19.1411L331.679 99.7664Z" stroke="white" stroke-width="1.2" stroke-linejoin="round"/>
<path d="M191.94 15.6368C191.94 15.7167 191.928 15.8027 191.922 15.8825C191.916 15.9685 191.91 16.0606 191.891 16.1466C191.879 16.2203 191.854 16.2879 191.836 16.3616C191.811 16.4476 191.793 16.5274 191.762 16.6134C191.738 16.681 191.707 16.7485 191.676 16.8161C191.639 16.9021 191.603 16.988 191.553 17.0802C191.523 17.1416 191.48 17.203 191.443 17.2644C191.382 17.3627 191.32 17.461 191.246 17.5592C191.203 17.6145 191.154 17.6698 191.111 17.7312C191.001 17.8602 190.884 17.9892 190.755 18.112C190.706 18.155 190.663 18.2041 190.614 18.2471C190.534 18.3208 190.442 18.3884 190.356 18.4621C190.276 18.5235 190.202 18.585 190.122 18.6464C190.03 18.7139 189.926 18.7815 189.821 18.8491C189.717 18.9166 189.619 18.9903 189.502 19.0517L178.035 25.7157C177.783 25.8632 177.519 25.9921 177.243 26.115C177.163 26.1518 177.083 26.1825 177.003 26.2194C176.788 26.3115 176.567 26.3914 176.34 26.4712C176.26 26.4958 176.18 26.5265 176.1 26.5572C175.959 26.6002 175.812 26.6432 175.67 26.68C175.56 26.7107 175.449 26.7415 175.339 26.766C175.185 26.8029 175.032 26.8336 174.872 26.8643C174.768 26.8827 174.663 26.9073 174.553 26.9257C174.239 26.981 173.92 27.024 173.594 27.0608C173.496 27.0731 173.392 27.0793 173.293 27.0854C173.103 27.1038 172.919 27.1161 172.728 27.1223C172.606 27.1223 172.483 27.1284 172.366 27.1345C172.213 27.1345 172.059 27.1345 171.905 27.1345C171.776 27.1345 171.647 27.1345 171.518 27.1223C171.377 27.1223 171.236 27.11 171.095 27.0977C170.966 27.0915 170.837 27.0793 170.708 27.067C170.566 27.0547 170.425 27.0363 170.284 27.0178C170.161 26.9994 170.032 26.9871 169.909 26.9626C169.762 26.938 169.608 26.9134 169.461 26.8827C169.344 26.8581 169.228 26.8397 169.111 26.8152C168.933 26.7783 168.761 26.7353 168.589 26.6862C168.49 26.6616 168.398 26.637 168.3 26.6063C167.993 26.5142 167.692 26.4159 167.397 26.2992C167.256 26.244 167.115 26.1825 166.973 26.1211C166.9 26.0904 166.826 26.0597 166.752 26.0228C166.544 25.9246 166.335 25.814 166.138 25.7035L154.597 19.0395C153.148 18.2042 152.337 17.1416 152.159 16.0483C152.135 15.8948 152.122 15.7351 152.122 15.5815L152.098 25.2674C152.098 26.5203 152.921 27.7733 154.573 28.7253L166.114 35.3893C166.31 35.506 166.519 35.6104 166.728 35.7087C166.795 35.7394 166.875 35.7701 166.943 35.8008C167.066 35.8561 167.195 35.9175 167.324 35.9666C167.336 35.9666 167.354 35.9789 167.373 35.9851C167.667 36.0956 167.968 36.2 168.276 36.2922C168.3 36.2983 168.325 36.3106 168.349 36.3167C168.417 36.3352 168.49 36.3536 168.564 36.372C168.736 36.415 168.908 36.4641 169.086 36.501C169.135 36.5133 169.178 36.5256 169.228 36.5378C169.295 36.5501 169.369 36.5624 169.436 36.5747C169.584 36.6054 169.731 36.63 169.879 36.6545C169.94 36.6668 169.995 36.6791 170.057 36.6853C170.124 36.6975 170.192 36.6975 170.253 36.7098C170.394 36.7282 170.53 36.7405 170.671 36.759C170.738 36.7651 170.806 36.7774 170.874 36.7835C170.935 36.7835 171.003 36.7835 171.064 36.7958C171.205 36.8081 171.346 36.8142 171.488 36.8204C171.561 36.8204 171.629 36.8327 171.703 36.8327C171.758 36.8327 171.819 36.8327 171.875 36.8327C172.028 36.8327 172.182 36.8327 172.335 36.8327C172.409 36.8327 172.489 36.8327 172.563 36.8327C172.606 36.8327 172.655 36.8265 172.698 36.8265C172.888 36.8204 173.079 36.802 173.269 36.7897C173.343 36.7835 173.422 36.7835 173.496 36.7774C173.521 36.7774 173.539 36.7712 173.564 36.7651C173.883 36.7344 174.203 36.6853 174.522 36.63C174.54 36.63 174.553 36.63 174.571 36.6238C174.663 36.6054 174.749 36.587 174.841 36.5686C174.995 36.5378 175.155 36.5071 175.308 36.4703C175.419 36.4457 175.529 36.4089 175.64 36.3843C175.787 36.3474 175.928 36.3045 176.076 36.2615C176.107 36.2492 176.137 36.243 176.168 36.2369C176.217 36.2185 176.266 36.2 176.315 36.1816C176.543 36.1018 176.764 36.0219 176.979 35.9298C177.059 35.8991 177.138 35.8622 177.218 35.8254C177.495 35.7025 177.759 35.5736 178.011 35.4262L189.478 28.7621C189.514 28.7437 189.545 28.7192 189.582 28.7007C189.662 28.6516 189.723 28.6025 189.797 28.5595C189.901 28.4919 190.006 28.4243 190.098 28.3568C190.184 28.2954 190.258 28.2339 190.331 28.1725C190.417 28.105 190.509 28.0313 190.589 27.9576C190.608 27.9453 190.626 27.9268 190.638 27.9146C190.669 27.8838 190.694 27.8531 190.724 27.8224C190.853 27.6996 190.97 27.5706 191.081 27.4416C191.105 27.4109 191.136 27.3864 191.16 27.3556C191.185 27.3249 191.197 27.3004 191.216 27.2697C191.289 27.1714 191.351 27.0731 191.412 26.9748C191.437 26.9318 191.474 26.895 191.492 26.852C191.504 26.8336 191.51 26.809 191.523 26.7906C191.572 26.7046 191.609 26.6186 191.646 26.5265C191.67 26.4773 191.695 26.4282 191.719 26.3729C191.725 26.3545 191.725 26.3361 191.732 26.3238C191.762 26.2378 191.781 26.158 191.805 26.072C191.818 26.0167 191.842 25.9614 191.854 25.9C191.854 25.8877 191.854 25.8693 191.854 25.857C191.873 25.771 191.879 25.6789 191.885 25.5929C191.885 25.5376 191.904 25.4762 191.904 25.4209C191.904 25.3964 191.904 25.3718 191.904 25.3472L191.928 15.6614L191.94 15.6368Z" fill="#2F3945" stroke="#262E38" stroke-width="1.2" stroke-linecap="round" stroke-linejoin="round"/>
<path d="M189.454 12.1662C192.746 14.0702 192.77 17.1473 189.503 19.0452L178.036 25.7092C174.762 27.6132 169.443 27.6132 166.151 25.7092L154.61 19.0452C151.318 17.1412 151.306 14.0641 154.58 12.1662L166.047 5.50222C169.32 3.59822 174.627 3.59822 177.919 5.50222L189.46 12.1662H189.454Z" fill="#3E4C5C" stroke="#262E38" stroke-width="1.2" stroke-miterlimit="10" stroke-linejoin="round"/>
<path d="M178.508 13.6525C179.988 14.5062 180 15.8943 178.526 16.748L174.712 18.9652C173.238 19.819 170.849 19.819 169.369 18.9652L165.53 16.748C164.05 15.8943 164.044 14.5123 165.518 13.6525L169.332 11.4352C170.806 10.5815 173.195 10.5815 174.675 11.4352L178.514 13.6525H178.508Z" fill="#7655FC"/>
</svg>
