<svg xmlns="http://www.w3.org/2000/svg" width="215" height="24" viewBox="0 0 215 24" fill="none">
  <path d="M136.623 7.0144H133.71V22.855H136.623V7.0144Z" fill="#E9E9EA"/>
  <path d="M103.58 22.8404V13.9419C103.58 11.4201 101.696 9.5071 99.1884 9.5071C97.058 9.5071 94.8841 11.1448 94.8841 14.2607V22.8549H91.971V1.47812L94.8841 1.46362C94.8841 1.46362 94.8696 8.33319 94.8841 8.3187C95.2754 7.98536 96.7826 6.65203 99.7826 6.65203C103.435 6.65203 106.507 9.69551 106.507 13.3042V22.8404H103.58Z" fill="#E9E9EA"/>
  <path d="M136.623 1.47827H133.71V4.39131H136.623V1.47827Z" fill="#E9E9EA"/>
  <path d="M112.377 19.9131H109.449V22.8406H112.377V19.9131Z" fill="#E9E9EA"/>
  <path d="M22.5942 11C22.7971 11.2898 22.8985 11.6376 22.8985 12C22.8985 12.4782 22.7101 12.9275 22.3768 13.2608C22.0435 13.5942 21.5797 13.7826 21.1159 13.7826C20.7681 13.7826 20.4203 13.6811 20.1159 13.4782C19.8261 13.2753 19.5942 13 19.4637 12.6811C19.3333 12.3478 19.2898 12 19.3623 11.6521C19.4348 11.3043 19.6087 10.9855 19.8551 10.7391C20.1014 10.4927 20.4203 10.3188 20.7681 10.2463C21.1159 10.1739 21.4782 10.2173 21.7971 10.3478C22.1159 10.4637 22.3913 10.6956 22.5942 11Z" fill="#E9E9EA"/>
  <path d="M22.5942 20.0434C22.7971 20.3333 22.8985 20.6811 22.8985 21.0434C22.8985 21.5217 22.7101 21.9709 22.3768 22.3043C22.0435 22.6376 21.5797 22.826 21.1159 22.826C20.7681 22.826 20.4203 22.7246 20.1159 22.5217C19.8261 22.3188 19.5942 22.0434 19.4637 21.7246C19.3333 21.3912 19.2898 21.0434 19.3623 20.6956C19.4348 20.3478 19.6087 20.0289 19.8551 19.7825C20.1014 19.5362 20.4203 19.3623 20.7681 19.2898C21.1159 19.2173 21.4782 19.2608 21.7971 19.3912C22.1159 19.5217 22.3913 19.7536 22.5942 20.0434Z" fill="#E9E9EA"/>
  <path d="M22.8986 0.898438H18.6087V5.18829H22.8986V0.898438Z" fill="#E9E9EA"/>
  <path d="M13.6666 20.0434C13.8695 20.3333 13.971 20.6811 13.971 21.0434C13.971 21.5217 13.7826 21.9709 13.4492 22.3043C13.1159 22.6376 12.6521 22.826 12.1884 22.826C11.8405 22.826 11.4927 22.7246 11.1884 22.5217C10.8985 22.3188 10.6666 22.0434 10.5362 21.7246C10.4058 21.3912 10.3623 21.0434 10.4347 20.6956C10.5072 20.3478 10.6811 20.0289 10.9275 19.7825C11.1739 19.5362 11.4927 19.3623 11.8405 19.2898C12.1884 19.2173 12.5507 19.2608 12.8695 19.3912C13.2029 19.5217 13.4782 19.7536 13.6666 20.0434Z" fill="#E9E9EA"/>
  <path d="M14.3333 9.84058H10.0435V14.1304H14.3333V9.84058Z" fill="#E9E9EA"/>
  <path d="M14.4493 0.898438H9.91302V5.43467H14.4493V0.898438Z" fill="#E9E9EA"/>
  <path d="M5.75359 0.898438H0.985474V5.66655H5.75359V0.898438Z" fill="#E9E9EA"/>
  <path d="M5.26086 18.5361H0.971008V22.826H5.26086V18.5361Z" fill="#E9E9EA"/>
  <path d="M5.50724 9.72461H0.971008V14.2608H5.50724V9.72461Z" fill="#E9E9EA"/>
  <path d="M40.9275 3.49268C42.2029 3.50718 42.7246 4.4492 42.7246 4.4492L44.5507 2.60862C43.4783 1.4492 42.1739 0.811523 40.8406 0.811523C39.5362 0.811523 38.4638 1.23181 37.6522 2.04341C36.8261 2.86949 36.4203 3.92747 36.4203 5.20283V7.01442H33.9276V9.52167H36.4058V22.855H39.3189V9.52167H41.3044H44.5507V7.01442H40.1449H39.3333V5.20283C39.3333 4.15935 39.8986 3.56515 40.9275 3.49268Z" fill="#E9E9EA"/>
  <path d="M83.4638 20.3333C80.3189 20.3333 78.029 18.0579 78.029 14.942C78.029 11.8695 80.3768 9.53616 83.5073 9.53616C85.2319 9.53616 86.5942 10.5362 87.1739 11.0434L89.1594 9.0579C88.5942 8.50717 86.4638 6.6521 83.3623 6.6521C78.6957 6.6521 75.058 10.2898 75.058 14.9275C75.058 19.5506 78.7102 23.1738 83.3768 23.1738C86.3478 23.1738 88.3623 21.5506 89.1594 20.7535L87.2174 18.8405C86.5073 19.5072 85.2464 20.3333 83.4638 20.3333Z" fill="#E9E9EA"/>
  <path d="M70.0869 20.5071C69.1159 20.5071 68.3768 19.8549 68.3768 17.9564V9.5216H73.5942V7.01435H68.3768V3.78247H65.4637V17.9564C65.4637 21.5361 67.1159 23.1593 70.0435 23.1593C71.1304 23.1593 72.4782 22.7245 73.6522 21.7535L71.8116 19.9129C71.3623 20.3042 70.7391 20.5071 70.0869 20.5071Z" fill="#E9E9EA"/>
  <path d="M54.3188 20.2752C51.4927 20.2752 49.4492 18.2027 49.0434 16.0578H60.7681H62.4637C62.5072 15.6955 62.5362 15.3187 62.5362 14.9419C62.5362 10.3766 58.8261 6.6665 54.2608 6.6665C49.6956 6.6665 45.9855 10.3766 45.9855 14.9419C45.9855 19.5071 49.6956 23.2172 54.2608 23.2172C57 23.2172 59.2753 22.2317 60.8261 20.71L59.0145 18.6665C57.7536 19.7535 56.1739 20.2752 54.3188 20.2752ZM54.3188 9.52158C56.9565 9.52158 58.884 11.3477 59.4348 13.5506H49.0869C49.6811 11.2462 51.6521 9.52158 54.3188 9.52158Z" fill="#E9E9EA"/>
  <path d="M127.203 7.01442V8.72456C127.203 8.72456 125.29 6.6521 121.942 6.6521C117.391 6.6521 113.681 10.3188 113.681 14.826C113.681 19.5072 117.246 23.1738 121.812 23.1738C125.609 23.1738 127.203 21.0869 127.203 21.0869V22.826H130.116V7.01442H127.203ZM122.203 20.3333C122.116 20.3333 122.014 20.3478 121.913 20.3478C120.42 20.3478 119.072 19.7391 118.087 18.7535C117.101 17.768 116.493 16.4202 116.493 14.913C116.493 11.913 118.928 9.49268 121.942 9.49268C124.957 9.49268 127.391 11.913 127.391 14.913C127.391 17.826 125.087 20.1883 122.203 20.3333Z" fill="#E9E9EA"/>
  <path d="M197.203 18.8259L199.13 20.7535C198.333 21.5506 196.333 23.1593 193.362 23.1593C188.71 23.1593 185.072 19.5506 185.072 14.9274C185.072 10.2897 188.71 6.6665 193.362 6.6665C196.449 6.6665 198.58 8.50708 199.145 9.0723L197.159 11.0578C196.58 10.5506 195.217 9.55056 193.507 9.55056C190.391 9.55056 188.043 11.8694 188.043 14.9419C188.043 18.0578 190.319 20.3332 193.464 20.3332C195.246 20.3187 196.493 19.4781 197.203 18.8259Z" fill="#9F88FD"/>
  <path d="M213.101 18.5215C213.101 12.7969 204.435 14.2896 204.435 11.1447C204.435 10.0867 205.406 9.13018 207.333 9.13018C209.478 9.13018 210.942 10.6809 211.319 11.0577L213.058 9.14468C212.638 8.62294 210.261 6.68091 207.174 6.68091C203.667 6.68091 201.493 8.78236 201.493 11.2461C201.493 16.5215 210.217 15.0287 210.217 18.5215C210.217 19.8258 209.029 20.6664 207.435 20.6664C205.377 20.6664 203.319 19.4055 202.71 18.6954L201.087 20.6084C201.957 21.565 204.565 23.1737 207.435 23.1737C209.391 23.1737 213.101 22.3186 213.101 18.5215Z" fill="#9F88FD"/>
  <path d="M182.072 14.0869C181.841 11.8985 180.768 9.95643 179.159 8.62309C178.188 7.79701 177.014 7.2028 175.725 6.91295C175.667 6.89846 175.623 6.88396 175.565 6.86947C175.493 6.85498 175.406 6.84048 175.333 6.82599C175.159 6.79701 174.985 6.76802 174.812 6.75353C174.754 6.75353 174.71 6.73903 174.652 6.73903C174.551 6.72454 174.449 6.72454 174.348 6.71005C174.246 6.71005 174.13 6.69556 174.029 6.69556C173.985 6.69556 173.942 6.69556 173.884 6.69556C173.87 6.69556 173.855 6.69556 173.855 6.69556C169.304 6.69556 165.609 10.3912 165.609 14.9419C165.609 16.8695 166.275 18.6521 167.391 20.0579C168.87 21.9709 171.159 23.1883 173.783 23.1883C173.797 23.1883 173.797 23.1883 173.812 23.1883C173.826 23.1883 173.841 23.1883 173.87 23.1883C174.072 23.1883 174.261 23.1738 174.464 23.1593C174.478 23.1593 174.493 23.1593 174.493 23.1593C174.652 23.1448 174.812 23.1303 174.971 23.1158C176.478 22.9274 177.536 22.4057 178.217 21.9564C178.551 21.7535 178.87 21.5216 179.174 21.2608C180.768 19.9274 181.855 17.9854 182.072 15.797C182.101 15.5216 182.116 15.2318 182.116 14.9419C182.13 14.6521 182.101 14.3622 182.072 14.0869ZM174.174 20.3477C174.087 20.3477 173.985 20.3622 173.884 20.3622C172.391 20.3622 171.043 19.7535 170.058 18.7825C169.072 17.797 168.464 16.4492 168.464 14.9564C168.464 11.9709 170.899 9.55063 173.899 9.55063C176.899 9.55063 179.333 11.9709 179.333 14.9564C179.348 17.8405 177.058 20.2028 174.174 20.3477Z" fill="#9F88FD"/>
  <path d="M162.696 1.50708H159.783V8.73896C159.783 8.73896 158.188 6.65201 154.377 6.65201C149.812 6.65201 146.232 10.3187 146.232 15.0143C146.232 19.5361 149.942 23.2027 154.493 23.2027C157.855 23.2027 159.768 21.1303 159.768 21.1303V22.8549H162.681C162.696 22.8404 162.696 1.62302 162.696 1.50708ZM154.507 20.3622C151.493 20.3622 149.058 17.9274 149.058 14.9274C149.058 13.4346 149.667 12.0723 150.652 11.0868C151.638 10.1013 152.985 9.49259 154.478 9.49259C154.58 9.49259 154.667 9.49259 154.768 9.50708C157.667 9.63751 159.971 12.0143 159.971 14.9274C159.957 17.9274 157.522 20.3622 154.507 20.3622Z" fill="#9F88FD"/>
</svg>