<svg xmlns="http://www.w3.org/2000/svg" width="32" height="32" viewBox="0 0 32 32" fill="none">
  <path d="M23.3208 15.2978L29.6259 5.11899C30.593 3.73151 29.6002 1.82935 27.9089 1.82935L15.0736 1.82935C13.3823 1.82935 12.3895 3.73151 13.3566 5.11899L19.8869 15.2978C20.7197 16.4927 22.4879 16.4927 23.3208 15.2978Z" fill="#B9C5D4"/>
  <path d="M9.03818 30.1706C12.9285 30.1706 16.0822 27.0169 16.0822 23.1266C16.0822 19.2363 12.9285 16.0826 9.03818 16.0826C5.14787 16.0826 1.99414 19.2363 1.99414 23.1266C1.99414 27.0169 5.14787 30.1706 9.03818 30.1706Z" fill="#B9C5D4"/>
  <g filter="url(#filter0_b_3575_3707)">
    <path d="M18.683 18.1356H13.9653V22.8533H18.683V18.1356Z" fill="#5F38FB"/>
    <path d="M22.8629 13.9557H18.6826V18.136H22.8629V13.9557Z" fill="#5F38FB"/>
    <path d="M13.9645 13.9557H9.78418V18.136H13.9645V13.9557Z" fill="#5F38FB"/>
    <path d="M16.3241 10.3545C17.3722 10.3545 18.2219 9.50484 18.2219 8.45669C18.2219 7.40855 17.3722 6.55887 16.3241 6.55887C15.2759 6.55887 14.4263 7.40855 14.4263 8.45669C14.4263 9.50484 15.2759 10.3545 16.3241 10.3545Z" fill="#5F38FB"/>
    <path d="M6.97643 25.6063C8.02457 25.6063 8.87425 24.7566 8.87425 23.7085C8.87425 22.6604 8.02457 21.8107 6.97643 21.8107C5.92829 21.8107 5.07861 22.6604 5.07861 23.7085C5.07861 24.7566 5.92829 25.6063 6.97643 25.6063Z" fill="#5F38FB"/>
    <path d="M25.6927 25.5852C26.7409 25.5852 27.5906 24.7355 27.5906 23.6873C27.5906 22.6392 26.7409 21.7895 25.6927 21.7895C24.6446 21.7895 23.7949 22.6392 23.7949 23.6873C23.7949 24.7355 24.6446 25.5852 25.6927 25.5852Z" fill="#5F38FB"/>
  </g>
  <defs>
    <filter id="filter0_b_3575_3707" x="3.51764" y="4.99789" width="25.6342" height="22.1694" filterUnits="userSpaceOnUse" color-interpolation-filters="sRGB">
      <feFlood flood-opacity="0" result="BackgroundImageFix"/>
      <feGaussianBlur in="BackgroundImageFix" stdDeviation="0.780488"/>
      <feComposite in2="SourceAlpha" operator="in" result="effect1_backgroundBlur_3575_3707"/>
      <feBlend mode="normal" in="SourceGraphic" in2="effect1_backgroundBlur_3575_3707" result="shape"/>
    </filter>
  </defs>
</svg>