<svg width="38" height="46" viewBox="0 0 38 46" fill="none" xmlns="http://www.w3.org/2000/svg">
<path d="M29.3211 15.2978L35.6262 5.11899C36.5934 3.73151 35.6006 1.82935 33.9093 1.82935L21.0739 1.82935C19.3826 1.82935 18.3899 3.73151 19.357 5.11899L25.8873 15.2978C26.7201 16.4927 28.4883 16.4927 29.3211 15.2978Z" fill="#C9F8DC"/>
<g filter="url(#filter0_bd_3308_1228)">
<path d="M15.0384 30.1706C18.9287 30.1706 22.0825 27.0169 22.0825 23.1266C22.0825 19.2363 18.9287 16.0826 15.0384 16.0826C11.1481 16.0826 7.99438 19.2363 7.99438 23.1266C7.99438 27.0169 11.1481 30.1706 15.0384 30.1706Z" fill="url(#paint0_linear_3308_1228)" shape-rendering="crispEdges"/>
<path d="M21.8873 23.1266C21.8873 26.9092 18.821 29.9755 15.0384 29.9755C11.2559 29.9755 8.18951 26.9092 8.18951 23.1266C8.18951 19.3441 11.2559 16.2777 15.0384 16.2777C18.821 16.2777 21.8873 19.3441 21.8873 23.1266Z" stroke="url(#paint1_linear_3308_1228)" stroke-width="0.390244" shape-rendering="crispEdges"/>
</g>
<g filter="url(#filter1_b_3308_1228)">
<path d="M20.1603 22.6581V18.3307H24.4877V22.6581H20.1603Z" fill="url(#paint2_linear_3308_1228)" stroke="url(#paint3_linear_3308_1228)" stroke-width="0.390244"/>
<path d="M24.878 17.9409V14.1508H28.6681V17.9409H24.878Z" fill="url(#paint4_linear_3308_1228)" stroke="url(#paint5_linear_3308_1228)" stroke-width="0.390244"/>
<path d="M15.9794 17.9409V14.1508H19.7694V17.9409H15.9794Z" fill="url(#paint6_linear_3308_1228)" stroke="url(#paint7_linear_3308_1228)" stroke-width="0.390244"/>
<path d="M24.0267 8.45666C24.0267 9.39704 23.2644 10.1594 22.324 10.1594C21.3836 10.1594 20.6213 9.39704 20.6213 8.45666C20.6213 7.51629 21.3836 6.75396 22.324 6.75396C23.2644 6.75396 24.0267 7.51629 24.0267 8.45666Z" fill="url(#paint8_linear_3308_1228)" stroke="url(#paint9_linear_3308_1228)" stroke-width="0.390244"/>
<path d="M14.6792 23.7084C14.6792 24.6488 13.9169 25.4111 12.9765 25.4111C12.0361 25.4111 11.2738 24.6488 11.2738 23.7084C11.2738 22.7681 12.0361 22.0057 12.9765 22.0057C13.9169 22.0057 14.6792 22.7681 14.6792 23.7084Z" fill="url(#paint10_linear_3308_1228)" stroke="url(#paint11_linear_3308_1228)" stroke-width="0.390244"/>
<path d="M33.3955 23.6873C33.3955 24.6277 32.6331 25.39 31.6927 25.39C30.7524 25.39 29.99 24.6277 29.99 23.6873C29.99 22.7469 30.7524 21.9846 31.6927 21.9846C32.6331 21.9846 33.3955 22.7469 33.3955 23.6873Z" fill="url(#paint12_linear_3308_1228)" stroke="url(#paint13_linear_3308_1228)" stroke-width="0.390244"/>
</g>
<defs>
<filter id="filter0_bd_3308_1228" x="0.189507" y="8.2777" width="37.5027" height="37.5027" filterUnits="userSpaceOnUse" color-interpolation-filters="sRGB">
<feFlood flood-opacity="0" result="BackgroundImageFix"/>
<feGaussianBlur in="BackgroundImageFix" stdDeviation="3.90244"/>
<feComposite in2="SourceAlpha" operator="in" result="effect1_backgroundBlur_3308_1228"/>
<feColorMatrix in="SourceAlpha" type="matrix" values="0 0 0 0 0 0 0 0 0 0 0 0 0 0 0 0 0 0 127 0" result="hardAlpha"/>
<feOffset dx="3.90244" dy="3.90244"/>
<feGaussianBlur stdDeviation="5.85366"/>
<feComposite in2="hardAlpha" operator="out"/>
<feColorMatrix type="matrix" values="0 0 0 0 0.0196078 0 0 0 0 0.6 0 0 0 0 0.290196 0 0 0 0.3 0"/>
<feBlend mode="normal" in2="effect1_backgroundBlur_3308_1228" result="effect2_dropShadow_3308_1228"/>
<feBlend mode="normal" in="SourceGraphic" in2="effect2_dropShadow_3308_1228" result="shape"/>
</filter>
<filter id="filter1_b_3308_1228" x="9.5177" y="4.99786" width="25.6339" height="22.1694" filterUnits="userSpaceOnUse" color-interpolation-filters="sRGB">
<feFlood flood-opacity="0" result="BackgroundImageFix"/>
<feGaussianBlur in="BackgroundImageFix" stdDeviation="0.780488"/>
<feComposite in2="SourceAlpha" operator="in" result="effect1_backgroundBlur_3308_1228"/>
<feBlend mode="normal" in="SourceGraphic" in2="effect1_backgroundBlur_3308_1228" result="shape"/>
</filter>
<linearGradient id="paint0_linear_3308_1228" x1="8.26692" y1="16.0826" x2="23.2323" y2="31.6607" gradientUnits="userSpaceOnUse">
<stop offset="0.182224" stop-color="#2DE376" stop-opacity="0.5"/>
<stop offset="0.640234" stop-color="#2DE376" stop-opacity="0.9"/>
</linearGradient>
<linearGradient id="paint1_linear_3308_1228" x1="7.99438" y1="14.4433" x2="21.7032" y2="30.7606" gradientUnits="userSpaceOnUse">
<stop offset="0.249921" stop-color="#2DE376"/>
<stop offset="0.470896" stop-color="#2DE376" stop-opacity="0"/>
<stop offset="0.816545" stop-color="#35C168"/>
</linearGradient>
<linearGradient id="paint2_linear_3308_1228" x1="23.2791" y1="26.3624" x2="20.7016" y2="15.9154" gradientUnits="userSpaceOnUse">
<stop offset="0.0822725" stop-color="#8566FF" stop-opacity="0.3"/>
<stop offset="0.423605" stop-color="#5F38FB" stop-opacity="0.5"/>
<stop offset="0.762303" stop-color="#5F38FB" stop-opacity="0.7"/>
</linearGradient>
<linearGradient id="paint3_linear_3308_1228" x1="22.324" y1="28.4679" x2="21.7073" y2="14.4582" gradientUnits="userSpaceOnUse">
<stop offset="0.137498" stop-color="#AF9BFD"/>
<stop offset="0.410212" stop-color="#5F38FB" stop-opacity="0"/>
<stop offset="0.835001" stop-color="#5F38FB"/>
</linearGradient>
<linearGradient id="paint4_linear_3308_1228" x1="27.6194" y1="21.2455" x2="25.3355" y2="11.9884" gradientUnits="userSpaceOnUse">
<stop offset="0.0822725" stop-color="#8566FF" stop-opacity="0.3"/>
<stop offset="0.423605" stop-color="#5F38FB" stop-opacity="0.5"/>
<stop offset="0.762303" stop-color="#5F38FB" stop-opacity="0.7"/>
</linearGradient>
<linearGradient id="paint5_linear_3308_1228" x1="26.773" y1="23.1112" x2="26.2266" y2="10.6972" gradientUnits="userSpaceOnUse">
<stop offset="0.137498" stop-color="#AF9BFD"/>
<stop offset="0.410212" stop-color="#5F38FB" stop-opacity="0"/>
<stop offset="0.835001" stop-color="#5F38FB"/>
</linearGradient>
<linearGradient id="paint6_linear_3308_1228" x1="18.7207" y1="21.2455" x2="16.4368" y2="11.9884" gradientUnits="userSpaceOnUse">
<stop offset="0.0822725" stop-color="#8566FF" stop-opacity="0.3"/>
<stop offset="0.423605" stop-color="#5F38FB" stop-opacity="0.5"/>
<stop offset="0.762303" stop-color="#5F38FB" stop-opacity="0.7"/>
</linearGradient>
<linearGradient id="paint7_linear_3308_1228" x1="17.8744" y1="23.1112" x2="17.328" y2="10.6972" gradientUnits="userSpaceOnUse">
<stop offset="0.137498" stop-color="#AF9BFD"/>
<stop offset="0.410212" stop-color="#5F38FB" stop-opacity="0"/>
<stop offset="0.835001" stop-color="#5F38FB"/>
</linearGradient>
<linearGradient id="paint8_linear_3308_1228" x1="23.0925" y1="13.1778" x2="21.0188" y2="4.77262" gradientUnits="userSpaceOnUse">
<stop offset="0.0822725" stop-color="#8566FF" stop-opacity="0.3"/>
<stop offset="0.423605" stop-color="#5F38FB" stop-opacity="0.5"/>
<stop offset="0.762303" stop-color="#5F38FB" stop-opacity="0.7"/>
</linearGradient>
<linearGradient id="paint9_linear_3308_1228" x1="22.324" y1="14.8718" x2="21.8279" y2="3.6002" gradientUnits="userSpaceOnUse">
<stop offset="0.137498" stop-color="#AF9BFD"/>
<stop offset="0.410212" stop-color="#5F38FB" stop-opacity="0"/>
<stop offset="0.835001" stop-color="#5F38FB"/>
</linearGradient>
<linearGradient id="paint10_linear_3308_1228" x1="13.745" y1="28.4296" x2="11.6712" y2="20.0244" gradientUnits="userSpaceOnUse">
<stop offset="0.0822725" stop-color="#8566FF" stop-opacity="0.3"/>
<stop offset="0.423605" stop-color="#5F38FB" stop-opacity="0.5"/>
<stop offset="0.762303" stop-color="#5F38FB" stop-opacity="0.7"/>
</linearGradient>
<linearGradient id="paint11_linear_3308_1228" x1="12.9765" y1="30.1236" x2="12.4803" y2="18.852" gradientUnits="userSpaceOnUse">
<stop offset="0.137498" stop-color="#AF9BFD"/>
<stop offset="0.410212" stop-color="#5F38FB" stop-opacity="0"/>
<stop offset="0.835001" stop-color="#5F38FB"/>
</linearGradient>
<linearGradient id="paint12_linear_3308_1228" x1="32.4612" y1="28.4085" x2="30.3875" y2="20.0033" gradientUnits="userSpaceOnUse">
<stop offset="0.0822725" stop-color="#8566FF" stop-opacity="0.3"/>
<stop offset="0.423605" stop-color="#5F38FB" stop-opacity="0.5"/>
<stop offset="0.762303" stop-color="#5F38FB" stop-opacity="0.7"/>
</linearGradient>
<linearGradient id="paint13_linear_3308_1228" x1="31.6928" y1="30.1025" x2="31.1966" y2="18.8308" gradientUnits="userSpaceOnUse">
<stop offset="0.137498" stop-color="#AF9BFD"/>
<stop offset="0.410212" stop-color="#5F38FB" stop-opacity="0"/>
<stop offset="0.835001" stop-color="#5F38FB"/>
</linearGradient>
</defs>
</svg>
