<svg width="54" height="55" viewBox="0 0 54 55" fill="none" xmlns="http://www.w3.org/2000/svg">
<rect y="0.529297" width="54" height="54" rx="8" fill="#F3F5F8"/>
<path d="M34.3208 26.8269L40.6259 16.648C41.593 15.2606 40.6002 13.3584 38.9089 13.3584L26.0736 13.3584C24.3823 13.3584 23.3895 15.2606 24.3566 16.648L30.8869 26.8269C31.7197 28.0217 33.4879 28.0217 34.3208 26.8269Z" fill="#B9C5D4"/>
<path d="M20.0382 41.6994C23.9285 41.6994 27.0822 38.5457 27.0822 34.6554C27.0822 30.765 23.9285 27.6113 20.0382 27.6113C16.1479 27.6113 12.9941 30.765 12.9941 34.6554C12.9941 38.5457 16.1479 41.6994 20.0382 41.6994Z" fill="#B9C5D4"/>
<g filter="url(#filter0_b_3542_1249)">
<path d="M29.683 29.6641H24.9653V34.3817H29.683V29.6641Z" fill="#5F38FB"/>
<path d="M33.8629 25.4844H29.6826V29.6647H33.8629V25.4844Z" fill="#5F38FB"/>
<path d="M24.9645 25.4844H20.7842V29.6647H24.9645V25.4844Z" fill="#5F38FB"/>
<path d="M27.3241 21.8835C28.3722 21.8835 29.2219 21.0339 29.2219 19.9857C29.2219 18.9376 28.3722 18.0879 27.3241 18.0879C26.2759 18.0879 25.4263 18.9376 25.4263 19.9857C25.4263 21.0339 26.2759 21.8835 27.3241 21.8835Z" fill="#5F38FB"/>
<path d="M17.9764 37.1355C19.0246 37.1355 19.8742 36.2858 19.8742 35.2377C19.8742 34.1895 19.0246 33.3398 17.9764 33.3398C16.9283 33.3398 16.0786 34.1895 16.0786 35.2377C16.0786 36.2858 16.9283 37.1355 17.9764 37.1355Z" fill="#5F38FB"/>
<path d="M36.6927 37.114C37.7409 37.114 38.5906 36.2643 38.5906 35.2162C38.5906 34.168 37.7409 33.3184 36.6927 33.3184C35.6446 33.3184 34.7949 34.168 34.7949 35.2162C34.7949 36.2643 35.6446 37.114 36.6927 37.114Z" fill="#5F38FB"/>
</g>
<defs>
<filter id="filter0_b_3542_1249" x="14.5176" y="16.5269" width="25.6342" height="22.1698" filterUnits="userSpaceOnUse" color-interpolation-filters="sRGB">
<feFlood flood-opacity="0" result="BackgroundImageFix"/>
<feGaussianBlur in="BackgroundImageFix" stdDeviation="0.780488"/>
<feComposite in2="SourceAlpha" operator="in" result="effect1_backgroundBlur_3542_1249"/>
<feBlend mode="normal" in="SourceGraphic" in2="effect1_backgroundBlur_3542_1249" result="shape"/>
</filter>
</defs>
</svg>
