<svg width="54" height="57" viewBox="0 0 54 57" fill="none" xmlns="http://www.w3.org/2000/svg">
<rect width="54" height="54" rx="8" fill="#EAFCF1"/>
<path d="M34.3211 26.2978L40.6262 16.119C41.5934 14.7315 40.6006 12.8293 38.9093 12.8293L26.0739 12.8293C24.3826 12.8293 23.3899 14.7315 24.357 16.119L30.8873 26.2978C31.7201 27.4927 33.4883 27.4927 34.3211 26.2978Z" fill="#C9F8DC"/>
<g filter="url(#filter0_bd_3308_1227)">
<path d="M20.0384 41.1706C23.9287 41.1706 27.0825 38.0169 27.0825 34.1266C27.0825 30.2363 23.9287 27.0826 20.0384 27.0826C16.1481 27.0826 12.9944 30.2363 12.9944 34.1266C12.9944 38.0169 16.1481 41.1706 20.0384 41.1706Z" fill="url(#paint0_linear_3308_1227)" shape-rendering="crispEdges"/>
<path d="M26.8873 34.1266C26.8873 37.9092 23.821 40.9755 20.0384 40.9755C16.2559 40.9755 13.1895 37.9092 13.1895 34.1266C13.1895 30.3441 16.2559 27.2777 20.0384 27.2777C23.821 27.2777 26.8873 30.3441 26.8873 34.1266Z" stroke="url(#paint1_linear_3308_1227)" stroke-width="0.390244" shape-rendering="crispEdges"/>
</g>
<g filter="url(#filter1_b_3308_1227)">
<path d="M25.1603 33.6581V29.3307H29.4877V33.6581H25.1603Z" fill="url(#paint2_linear_3308_1227)" stroke="url(#paint3_linear_3308_1227)" stroke-width="0.390244"/>
<path d="M29.878 28.9409V25.1508H33.6681V28.9409H29.878Z" fill="url(#paint4_linear_3308_1227)" stroke="url(#paint5_linear_3308_1227)" stroke-width="0.390244"/>
<path d="M20.9794 28.9409V25.1508H24.7694V28.9409H20.9794Z" fill="url(#paint6_linear_3308_1227)" stroke="url(#paint7_linear_3308_1227)" stroke-width="0.390244"/>
<path d="M29.0267 19.4567C29.0267 20.397 28.2644 21.1594 27.324 21.1594C26.3836 21.1594 25.6213 20.397 25.6213 19.4567C25.6213 18.5163 26.3836 17.754 27.324 17.754C28.2644 17.754 29.0267 18.5163 29.0267 19.4567Z" fill="url(#paint8_linear_3308_1227)" stroke="url(#paint9_linear_3308_1227)" stroke-width="0.390244"/>
<path d="M19.6792 34.7084C19.6792 35.6488 18.9169 36.4111 17.9765 36.4111C17.0361 36.4111 16.2738 35.6488 16.2738 34.7084C16.2738 33.7681 17.0361 33.0057 17.9765 33.0057C18.9169 33.0057 19.6792 33.7681 19.6792 34.7084Z" fill="url(#paint10_linear_3308_1227)" stroke="url(#paint11_linear_3308_1227)" stroke-width="0.390244"/>
<path d="M38.3955 34.6873C38.3955 35.6277 37.6331 36.39 36.6927 36.39C35.7524 36.39 34.99 35.6277 34.99 34.6873C34.99 33.7469 35.7524 32.9846 36.6927 32.9846C37.6331 32.9846 38.3955 33.7469 38.3955 34.6873Z" fill="url(#paint12_linear_3308_1227)" stroke="url(#paint13_linear_3308_1227)" stroke-width="0.390244"/>
</g>
<defs>
<filter id="filter0_bd_3308_1227" x="5.18951" y="19.2777" width="37.5027" height="37.5027" filterUnits="userSpaceOnUse" color-interpolation-filters="sRGB">
<feFlood flood-opacity="0" result="BackgroundImageFix"/>
<feGaussianBlur in="BackgroundImageFix" stdDeviation="3.90244"/>
<feComposite in2="SourceAlpha" operator="in" result="effect1_backgroundBlur_3308_1227"/>
<feColorMatrix in="SourceAlpha" type="matrix" values="0 0 0 0 0 0 0 0 0 0 0 0 0 0 0 0 0 0 127 0" result="hardAlpha"/>
<feOffset dx="3.90244" dy="3.90244"/>
<feGaussianBlur stdDeviation="5.85366"/>
<feComposite in2="hardAlpha" operator="out"/>
<feColorMatrix type="matrix" values="0 0 0 0 0.0196078 0 0 0 0 0.6 0 0 0 0 0.290196 0 0 0 0.3 0"/>
<feBlend mode="normal" in2="effect1_backgroundBlur_3308_1227" result="effect2_dropShadow_3308_1227"/>
<feBlend mode="normal" in="SourceGraphic" in2="effect2_dropShadow_3308_1227" result="shape"/>
</filter>
<filter id="filter1_b_3308_1227" x="14.5177" y="15.9979" width="25.6339" height="22.1694" filterUnits="userSpaceOnUse" color-interpolation-filters="sRGB">
<feFlood flood-opacity="0" result="BackgroundImageFix"/>
<feGaussianBlur in="BackgroundImageFix" stdDeviation="0.780488"/>
<feComposite in2="SourceAlpha" operator="in" result="effect1_backgroundBlur_3308_1227"/>
<feBlend mode="normal" in="SourceGraphic" in2="effect1_backgroundBlur_3308_1227" result="shape"/>
</filter>
<linearGradient id="paint0_linear_3308_1227" x1="13.2669" y1="27.0826" x2="28.2323" y2="42.6607" gradientUnits="userSpaceOnUse">
<stop offset="0.182224" stop-color="#2DE376" stop-opacity="0.5"/>
<stop offset="0.640234" stop-color="#2DE376" stop-opacity="0.9"/>
</linearGradient>
<linearGradient id="paint1_linear_3308_1227" x1="12.9944" y1="25.4433" x2="26.7032" y2="41.7606" gradientUnits="userSpaceOnUse">
<stop offset="0.249921" stop-color="#2DE376"/>
<stop offset="0.470896" stop-color="#2DE376" stop-opacity="0"/>
<stop offset="0.816545" stop-color="#35C168"/>
</linearGradient>
<linearGradient id="paint2_linear_3308_1227" x1="28.2791" y1="37.3624" x2="25.7016" y2="26.9154" gradientUnits="userSpaceOnUse">
<stop offset="0.0822725" stop-color="#8566FF" stop-opacity="0.3"/>
<stop offset="0.423605" stop-color="#5F38FB" stop-opacity="0.5"/>
<stop offset="0.762303" stop-color="#5F38FB" stop-opacity="0.7"/>
</linearGradient>
<linearGradient id="paint3_linear_3308_1227" x1="27.324" y1="39.4679" x2="26.7073" y2="25.4582" gradientUnits="userSpaceOnUse">
<stop offset="0.137498" stop-color="#AF9BFD"/>
<stop offset="0.410212" stop-color="#5F38FB" stop-opacity="0"/>
<stop offset="0.835001" stop-color="#5F38FB"/>
</linearGradient>
<linearGradient id="paint4_linear_3308_1227" x1="32.6194" y1="32.2455" x2="30.3355" y2="22.9884" gradientUnits="userSpaceOnUse">
<stop offset="0.0822725" stop-color="#8566FF" stop-opacity="0.3"/>
<stop offset="0.423605" stop-color="#5F38FB" stop-opacity="0.5"/>
<stop offset="0.762303" stop-color="#5F38FB" stop-opacity="0.7"/>
</linearGradient>
<linearGradient id="paint5_linear_3308_1227" x1="31.773" y1="34.1112" x2="31.2266" y2="21.6972" gradientUnits="userSpaceOnUse">
<stop offset="0.137498" stop-color="#AF9BFD"/>
<stop offset="0.410212" stop-color="#5F38FB" stop-opacity="0"/>
<stop offset="0.835001" stop-color="#5F38FB"/>
</linearGradient>
<linearGradient id="paint6_linear_3308_1227" x1="23.7207" y1="32.2455" x2="21.4368" y2="22.9884" gradientUnits="userSpaceOnUse">
<stop offset="0.0822725" stop-color="#8566FF" stop-opacity="0.3"/>
<stop offset="0.423605" stop-color="#5F38FB" stop-opacity="0.5"/>
<stop offset="0.762303" stop-color="#5F38FB" stop-opacity="0.7"/>
</linearGradient>
<linearGradient id="paint7_linear_3308_1227" x1="22.8744" y1="34.1112" x2="22.328" y2="21.6972" gradientUnits="userSpaceOnUse">
<stop offset="0.137498" stop-color="#AF9BFD"/>
<stop offset="0.410212" stop-color="#5F38FB" stop-opacity="0"/>
<stop offset="0.835001" stop-color="#5F38FB"/>
</linearGradient>
<linearGradient id="paint8_linear_3308_1227" x1="28.0925" y1="24.1778" x2="26.0188" y2="15.7726" gradientUnits="userSpaceOnUse">
<stop offset="0.0822725" stop-color="#8566FF" stop-opacity="0.3"/>
<stop offset="0.423605" stop-color="#5F38FB" stop-opacity="0.5"/>
<stop offset="0.762303" stop-color="#5F38FB" stop-opacity="0.7"/>
</linearGradient>
<linearGradient id="paint9_linear_3308_1227" x1="27.324" y1="25.8718" x2="26.8279" y2="14.6002" gradientUnits="userSpaceOnUse">
<stop offset="0.137498" stop-color="#AF9BFD"/>
<stop offset="0.410212" stop-color="#5F38FB" stop-opacity="0"/>
<stop offset="0.835001" stop-color="#5F38FB"/>
</linearGradient>
<linearGradient id="paint10_linear_3308_1227" x1="18.745" y1="39.4296" x2="16.6712" y2="31.0244" gradientUnits="userSpaceOnUse">
<stop offset="0.0822725" stop-color="#8566FF" stop-opacity="0.3"/>
<stop offset="0.423605" stop-color="#5F38FB" stop-opacity="0.5"/>
<stop offset="0.762303" stop-color="#5F38FB" stop-opacity="0.7"/>
</linearGradient>
<linearGradient id="paint11_linear_3308_1227" x1="17.9765" y1="41.1236" x2="17.4803" y2="29.852" gradientUnits="userSpaceOnUse">
<stop offset="0.137498" stop-color="#AF9BFD"/>
<stop offset="0.410212" stop-color="#5F38FB" stop-opacity="0"/>
<stop offset="0.835001" stop-color="#5F38FB"/>
</linearGradient>
<linearGradient id="paint12_linear_3308_1227" x1="37.4612" y1="39.4085" x2="35.3875" y2="31.0033" gradientUnits="userSpaceOnUse">
<stop offset="0.0822725" stop-color="#8566FF" stop-opacity="0.3"/>
<stop offset="0.423605" stop-color="#5F38FB" stop-opacity="0.5"/>
<stop offset="0.762303" stop-color="#5F38FB" stop-opacity="0.7"/>
</linearGradient>
<linearGradient id="paint13_linear_3308_1227" x1="36.6928" y1="41.1025" x2="36.1966" y2="29.8308" gradientUnits="userSpaceOnUse">
<stop offset="0.137498" stop-color="#AF9BFD"/>
<stop offset="0.410212" stop-color="#5F38FB" stop-opacity="0"/>
<stop offset="0.835001" stop-color="#5F38FB"/>
</linearGradient>
</defs>
</svg>
