<svg width="37" height="13" viewBox="0 0 37 13" fill="none" xmlns="http://www.w3.org/2000/svg">
<path d="M0.896125 12V0.799999H5.28013C6.08013 0.799999 6.80013 0.933333 7.44013 1.2C8.09079 1.46667 8.64546 1.85067 9.10413 2.352C9.56279 2.85333 9.91479 3.44533 10.1601 4.128C10.4055 4.81067 10.5281 5.568 10.5281 6.4C10.5281 7.232 10.4055 7.99467 10.1601 8.688C9.91479 9.37067 9.56279 9.96267 9.10413 10.464C8.65613 10.9547 8.10679 11.3333 7.45613 11.6C6.80546 11.8667 6.08013 12 5.28013 12H0.896125ZM2.62413 10.512L2.57613 10.336H5.20013C5.76546 10.336 6.26679 10.2453 6.70413 10.064C7.15213 9.88267 7.52546 9.62667 7.82413 9.296C8.13346 8.95467 8.36813 8.53867 8.52813 8.048C8.68813 7.55733 8.76813 7.008 8.76813 6.4C8.76813 5.792 8.68813 5.248 8.52813 4.768C8.36813 4.27733 8.13346 3.86133 7.82413 3.52C7.51479 3.17867 7.14146 2.91733 6.70413 2.736C6.26679 2.55467 5.76546 2.464 5.20013 2.464H2.52813L2.62413 2.32V10.512ZM16.2249 12.16C15.4035 12.16 14.6675 11.9733 14.0169 11.6C13.3769 11.216 12.8702 10.6987 12.4969 10.048C12.1235 9.38667 11.9369 8.63467 11.9369 7.792C11.9369 6.94933 12.1235 6.20267 12.4969 5.552C12.8702 4.89067 13.3769 4.37333 14.0169 4C14.6675 3.616 15.4035 3.424 16.2249 3.424C17.0355 3.424 17.7609 3.616 18.4009 4C19.0515 4.37333 19.5635 4.89067 19.9369 5.552C20.3102 6.20267 20.4969 6.94933 20.4969 7.792C20.4969 8.63467 20.3102 9.38667 19.9369 10.048C19.5635 10.6987 19.0515 11.216 18.4009 11.6C17.7609 11.9733 17.0355 12.16 16.2249 12.16ZM16.2249 10.656C16.7262 10.656 17.1742 10.5333 17.5689 10.288C17.9635 10.032 18.2729 9.69067 18.4969 9.264C18.7209 8.82667 18.8275 8.336 18.8169 7.792C18.8275 7.23733 18.7209 6.74667 18.4969 6.32C18.2729 5.88267 17.9635 5.54133 17.5689 5.296C17.1742 5.05067 16.7262 4.928 16.2249 4.928C15.7235 4.928 15.2702 5.056 14.8649 5.312C14.4702 5.55733 14.1609 5.89867 13.9369 6.336C13.7129 6.76267 13.6062 7.248 13.6169 7.792C13.6062 8.336 13.7129 8.82667 13.9369 9.264C14.1609 9.69067 14.4702 10.032 14.8649 10.288C15.2702 10.5333 15.7235 10.656 16.2249 10.656ZM25.8606 12.16C25.082 12.16 24.3833 11.968 23.7646 11.584C23.1566 11.2 22.6713 10.6773 22.3086 10.016C21.9566 9.35467 21.7806 8.61333 21.7806 7.792C21.7806 6.97067 21.9566 6.22933 22.3086 5.568C22.6713 4.90667 23.1566 4.384 23.7646 4C24.3833 3.616 25.082 3.424 25.8606 3.424C26.6073 3.424 27.2846 3.57867 27.8926 3.888C28.5113 4.18667 28.9806 4.59733 29.3006 5.12L28.3886 6.24C28.218 5.99467 27.9993 5.77067 27.7326 5.568C27.466 5.36533 27.1833 5.20533 26.8846 5.088C26.586 4.97067 26.298 4.912 26.0206 4.912C25.5086 4.912 25.05 5.04 24.6446 5.296C24.25 5.54133 23.9353 5.88267 23.7006 6.32C23.466 6.75733 23.3486 7.248 23.3486 7.792C23.3486 8.336 23.4713 8.82667 23.7166 9.264C23.962 9.69067 24.2873 10.032 24.6926 10.288C25.098 10.544 25.546 10.672 26.0366 10.672C26.3246 10.672 26.602 10.624 26.8686 10.528C27.146 10.432 27.4126 10.288 27.6686 10.096C27.9246 9.904 28.1646 9.66933 28.3886 9.392L29.3006 10.512C28.9593 10.992 28.4686 11.3867 27.8286 11.696C27.1993 12.0053 26.5433 12.16 25.8606 12.16ZM33.6551 12.16C32.9511 12.16 32.3165 12.0373 31.7511 11.792C31.1858 11.5467 30.7165 11.184 30.3431 10.704L31.4631 9.744C31.7831 10.1173 32.1298 10.3893 32.5031 10.56C32.8871 10.72 33.3191 10.8 33.7991 10.8C33.9911 10.8 34.1671 10.7787 34.3271 10.736C34.4978 10.6827 34.6418 10.608 34.7591 10.512C34.8871 10.416 34.9831 10.304 35.0471 10.176C35.1111 10.0373 35.1431 9.888 35.1431 9.728C35.1431 9.45067 35.0418 9.22667 34.8391 9.056C34.7325 8.98133 34.5618 8.90133 34.3271 8.816C34.1031 8.72 33.8098 8.624 33.4471 8.528C32.8285 8.368 32.3218 8.18667 31.9271 7.984C31.5325 7.78133 31.2285 7.552 31.0151 7.296C30.8551 7.09333 30.7378 6.87467 30.6631 6.64C30.5885 6.39467 30.5511 6.128 30.5511 5.84C30.5511 5.488 30.6258 5.168 30.7751 4.88C30.9351 4.58133 31.1485 4.32533 31.4151 4.112C31.6925 3.888 32.0125 3.71733 32.3751 3.6C32.7485 3.48267 33.1431 3.424 33.5591 3.424C33.9538 3.424 34.3431 3.47733 34.7271 3.584C35.1218 3.69067 35.4845 3.84533 35.8151 4.048C36.1458 4.25067 36.4231 4.49067 36.6471 4.768L35.7031 5.808C35.5005 5.60533 35.2765 5.42933 35.0311 5.28C34.7965 5.12 34.5565 4.99733 34.3111 4.912C34.0658 4.82667 33.8418 4.784 33.6391 4.784C33.4151 4.784 33.2125 4.80533 33.0311 4.848C32.8498 4.89067 32.6951 4.95467 32.5671 5.04C32.4498 5.12533 32.3591 5.232 32.2951 5.36C32.2311 5.488 32.1991 5.632 32.1991 5.792C32.2098 5.93067 32.2418 6.064 32.2951 6.192C32.3591 6.30933 32.4445 6.41067 32.5511 6.496C32.6685 6.58133 32.8445 6.672 33.0791 6.768C33.3138 6.864 33.6125 6.95467 33.9751 7.04C34.5085 7.17867 34.9458 7.33333 35.2871 7.504C35.6391 7.664 35.9165 7.85067 36.1191 8.064C36.3325 8.26667 36.4818 8.50133 36.5671 8.768C36.6525 9.03467 36.6951 9.33333 36.6951 9.664C36.6951 10.144 36.5565 10.576 36.2791 10.96C36.0125 11.3333 35.6498 11.6267 35.1911 11.84C34.7325 12.0533 34.2205 12.16 33.6551 12.16Z" fill="#000D3D"/>
</svg>
