<svg xmlns="http://www.w3.org/2000/svg" width="215" height="24" viewBox="0 0 215 24" fill="none">
  <path d="M136.624 7.01562H133.711V22.8562H136.624V7.01562Z" fill="#010E3E"/>
  <path d="M103.581 22.8417V13.9431C103.581 11.4214 101.697 9.50832 99.1901 9.50832C97.0596 9.50832 94.8857 11.146 94.8857 14.2619V22.8561H91.9727V1.47934L94.8857 1.46484C94.8857 1.46484 94.8712 8.33441 94.8857 8.31992C95.277 7.98658 96.7843 6.65325 99.7843 6.65325C103.436 6.65325 106.509 9.69673 106.509 13.3054V22.8417H103.581Z" fill="#010E3E"/>
  <path d="M136.624 1.47852H133.711V4.39156H136.624V1.47852Z" fill="#010E3E"/>
  <path d="M112.377 19.9141H109.449V22.8416H112.377V19.9141Z" fill="#010E3E"/>
  <path d="M22.5949 11.0014C22.7978 11.2913 22.8993 11.6391 22.8993 12.0014C22.8993 12.4797 22.7109 12.929 22.3775 13.2623C22.0442 13.5956 21.5804 13.784 21.1167 13.784C20.7688 13.784 20.421 13.6826 20.1167 13.4797C19.8268 13.2768 19.5949 13.0014 19.4645 12.6826C19.334 12.3492 19.2906 12.0014 19.363 11.6536C19.4355 11.3058 19.6094 10.9869 19.8558 10.7406C20.1022 10.4942 20.421 10.3203 20.7688 10.2478C21.1167 10.1753 21.479 10.2188 21.7978 10.3492C22.1167 10.4652 22.392 10.6971 22.5949 11.0014Z" fill="#010E3E"/>
  <path d="M22.5949 20.0444C22.7978 20.3342 22.8993 20.6821 22.8993 21.0444C22.8993 21.5227 22.7109 21.9719 22.3775 22.3053C22.0442 22.6386 21.5804 22.827 21.1167 22.827C20.7688 22.827 20.421 22.7255 20.1167 22.5227C19.8268 22.3198 19.5949 22.0444 19.4645 21.7255C19.334 21.3922 19.2906 21.0444 19.363 20.6966C19.4355 20.3487 19.6094 20.0299 19.8558 19.7835C20.1022 19.5371 20.421 19.3632 20.7688 19.2908C21.1167 19.2183 21.479 19.2618 21.7978 19.3922C22.1167 19.5227 22.392 19.7545 22.5949 20.0444Z" fill="#010E3E"/>
  <path d="M22.8992 0.900391H18.6094V5.19025H22.8992V0.900391Z" fill="#010E3E"/>
  <path d="M13.6691 20.0444C13.872 20.3342 13.9735 20.6821 13.9735 21.0444C13.9735 21.5227 13.7851 21.9719 13.4517 22.3053C13.1184 22.6386 12.6546 22.827 12.1909 22.827C11.843 22.827 11.4952 22.7255 11.1909 22.5227C10.901 22.3198 10.6691 22.0444 10.5387 21.7255C10.4083 21.3922 10.3648 21.0444 10.4373 20.6966C10.5097 20.3487 10.6836 20.0299 10.93 19.7835C11.1764 19.5371 11.4952 19.3632 11.843 19.2908C12.1909 19.2183 12.5532 19.2618 12.872 19.3922C13.2054 19.5227 13.4807 19.7545 13.6691 20.0444Z" fill="#010E3E"/>
  <path d="M14.3328 9.8418H10.043V14.1317H14.3328V9.8418Z" fill="#010E3E"/>
  <path d="M14.4503 0.900391H9.91406V5.43662H14.4503V0.900391Z" fill="#010E3E"/>
  <path d="M5.7564 0.900391H0.988281V5.66851H5.7564V0.900391Z" fill="#010E3E"/>
  <path d="M5.26251 18.5371H0.972656V22.827H5.26251V18.5371Z" fill="#010E3E"/>
  <path d="M5.50889 9.72656H0.972656V14.2628H5.50889V9.72656Z" fill="#010E3E"/>
  <path d="M40.9297 3.49366C42.205 3.50815 42.7268 4.45018 42.7268 4.45018L44.5529 2.6096C43.4804 1.45018 42.1761 0.8125 40.8427 0.8125C39.5384 0.8125 38.4659 1.23279 37.6543 2.04438C36.8282 2.87047 36.4224 3.92844 36.4224 5.2038V7.0154H33.9297V9.52264H36.4079V22.856H39.321V9.52264H41.3065H44.5529V7.0154H40.1471H39.3355V5.2038C39.3355 4.16033 39.9007 3.56612 40.9297 3.49366Z" fill="#010E3E"/>
  <path d="M83.4644 20.3335C80.3195 20.3335 78.0296 18.0581 78.0296 14.9422C78.0296 11.8697 80.3774 9.5364 83.5079 9.5364C85.2325 9.5364 86.5948 10.5364 87.1745 11.0436L89.16 9.05814C88.5948 8.50742 86.4644 6.65234 83.3629 6.65234C78.6963 6.65234 75.0586 10.29 75.0586 14.9277C75.0586 19.5509 78.7108 23.1741 83.3774 23.1741C86.3484 23.1741 88.3629 21.5509 89.16 20.7538L87.218 18.8407C86.5079 19.5074 85.247 20.3335 83.4644 20.3335Z" fill="#010E3E"/>
  <path d="M70.088 20.5078C69.117 20.5078 68.3779 19.8557 68.3779 17.9571V9.52233H73.5953V7.01509H68.3779V3.7832H65.4648V17.9571C65.4648 21.5368 67.117 23.16 70.0445 23.16C71.1315 23.16 72.4793 22.7252 73.6532 21.7542L71.8127 19.9136C71.3634 20.3049 70.7402 20.5078 70.088 20.5078Z" fill="#010E3E"/>
  <path d="M54.3216 20.2767C51.4955 20.2767 49.4521 18.2042 49.0463 16.0593H60.7709H62.4665C62.51 15.697 62.539 15.3201 62.539 14.9433C62.539 10.3781 58.8289 6.66797 54.2636 6.66797C49.6984 6.66797 45.9883 10.3781 45.9883 14.9433C45.9883 19.5085 49.6984 23.2187 54.2636 23.2187C57.0028 23.2187 59.2781 22.2332 60.8289 20.7114L59.0173 18.668C57.7564 19.7549 56.1767 20.2767 54.3216 20.2767ZM54.3216 9.52304C56.9593 9.52304 58.8868 11.3491 59.4376 13.552H49.0897C49.6839 11.2477 51.6549 9.52304 54.3216 9.52304Z" fill="#010E3E"/>
  <path d="M127.205 7.01466V8.72481C127.205 8.72481 125.292 6.65234 121.944 6.65234C117.394 6.65234 113.684 10.319 113.684 14.8263C113.684 19.5074 117.249 23.1741 121.814 23.1741C125.611 23.1741 127.205 21.0871 127.205 21.0871V22.8263H130.118V7.01466H127.205ZM122.205 20.3335C122.118 20.3335 122.017 20.348 121.915 20.348C120.423 20.348 119.075 19.7393 118.089 18.7538C117.104 17.7683 116.495 16.4205 116.495 14.9132C116.495 11.9132 118.93 9.49292 121.944 9.49292C124.959 9.49292 127.394 11.9132 127.394 14.9132C127.394 17.8263 125.089 20.1886 122.205 20.3335Z" fill="#010E3E"/>
  <path d="M197.205 18.8274L199.132 20.7549C198.335 21.552 196.335 23.1607 193.364 23.1607C188.712 23.1607 185.074 19.552 185.074 14.9288C185.074 10.2912 188.712 6.66797 193.364 6.66797C196.451 6.66797 198.581 8.50855 199.147 9.07377L197.161 11.0593C196.581 10.552 195.219 9.55203 193.509 9.55203C190.393 9.55203 188.045 11.8709 188.045 14.9433C188.045 18.0593 190.321 20.3346 193.466 20.3346C195.248 20.3201 196.495 19.4796 197.205 18.8274Z" fill="#5F38FB"/>
  <path d="M213.104 18.5222C213.104 12.7976 204.438 14.2903 204.438 11.1454C204.438 10.0874 205.409 9.13092 207.336 9.13092C209.481 9.13092 210.945 10.6816 211.322 11.0585L213.061 9.14541C212.641 8.62367 210.264 6.68164 207.177 6.68164C203.67 6.68164 201.496 8.78309 201.496 11.2469C201.496 16.5222 210.22 15.0295 210.22 18.5222C210.22 19.8266 209.032 20.6671 207.438 20.6671C205.38 20.6671 203.322 19.4063 202.713 18.6961L201.09 20.6092C201.959 21.5657 204.568 23.1744 207.438 23.1744C209.394 23.1744 213.104 22.3193 213.104 18.5222Z" fill="#5F38FB"/>
  <path d="M182.073 14.0866C181.841 11.8982 180.769 9.95618 179.16 8.62285C178.189 7.79676 177.015 7.20256 175.725 6.9127C175.667 6.89821 175.624 6.88372 175.566 6.86923C175.493 6.85473 175.406 6.84024 175.334 6.82575C175.16 6.79676 174.986 6.76778 174.812 6.75328C174.754 6.75328 174.711 6.73879 174.653 6.73879C174.551 6.7243 174.45 6.7243 174.349 6.70981C174.247 6.70981 174.131 6.69531 174.03 6.69531C173.986 6.69531 173.943 6.69531 173.885 6.69531C173.87 6.69531 173.856 6.69531 173.856 6.69531C169.305 6.69531 165.609 10.391 165.609 14.9417C165.609 16.8692 166.276 18.6518 167.392 20.0576C168.87 21.9707 171.16 23.1881 173.783 23.1881C173.798 23.1881 173.798 23.1881 173.812 23.1881C173.827 23.1881 173.841 23.1881 173.87 23.1881C174.073 23.1881 174.262 23.1736 174.464 23.1591C174.479 23.1591 174.493 23.1591 174.493 23.1591C174.653 23.1446 174.812 23.1301 174.972 23.1156C176.479 22.9272 177.537 22.4055 178.218 21.9562C178.551 21.7533 178.87 21.5214 179.175 21.2605C180.769 19.9272 181.856 17.9852 182.073 15.7968C182.102 15.5214 182.117 15.2315 182.117 14.9417C182.131 14.6518 182.102 14.362 182.073 14.0866ZM174.175 20.3475C174.088 20.3475 173.986 20.362 173.885 20.362C172.392 20.362 171.044 19.7533 170.059 18.7823C169.073 17.7968 168.464 16.4489 168.464 14.9562C168.464 11.9707 170.899 9.55038 173.899 9.55038C176.899 9.55038 179.334 11.9707 179.334 14.9562C179.349 17.8402 177.059 20.2026 174.175 20.3475Z" fill="#5F38FB"/>
  <path d="M162.698 1.50781H159.785V8.7397C159.785 8.7397 158.191 6.65274 154.379 6.65274C149.814 6.65274 146.234 10.3194 146.234 15.0151C146.234 19.5368 149.945 23.2035 154.495 23.2035C157.858 23.2035 159.771 21.131 159.771 21.131V22.8556H162.684C162.698 22.8411 162.698 1.62375 162.698 1.50781ZM154.51 20.3629C151.495 20.3629 149.06 17.9281 149.06 14.9281C149.06 13.4353 149.669 12.073 150.655 11.0875C151.64 10.102 152.988 9.49332 154.481 9.49332C154.582 9.49332 154.669 9.49332 154.771 9.50781C157.669 9.63825 159.974 12.0151 159.974 14.9281C159.959 17.9281 157.524 20.3629 154.51 20.3629Z" fill="#5F38FB"/>
</svg>