<svg width="304" height="284" viewBox="0 0 304 284" fill="none" xmlns="http://www.w3.org/2000/svg">
<g filter="url(#filter0_b_14_909)">
<g clip-path="url(#clip0_14_909)">
<rect width="304" height="284" rx="16" fill="#F3F5F8"/>
<path d="M214.138 112.116L247.008 130.659" stroke="#DCE2EA" stroke-width="2" stroke-miterlimit="10"/>
<path d="M214.673 107.104L217.568 108.716H217.557L218.906 109.466C219.649 109.88 219.939 110.379 219.948 110.803C219.957 111.226 219.691 111.733 218.97 112.17C218.97 112.17 218.97 112.17 218.97 112.17L214.839 114.672C214.839 114.672 214.839 114.673 214.838 114.673C214.114 115.109 213.136 115.35 212.13 115.368C211.125 115.385 210.137 115.179 209.395 114.766L205.155 112.404L205.154 112.404C204.41 111.99 204.121 111.492 204.113 111.071C204.104 110.649 204.371 110.141 205.098 109.699C205.098 109.699 205.098 109.699 205.098 109.699L209.229 107.197C209.229 107.197 209.229 107.197 209.229 107.197C209.953 106.76 210.932 106.52 211.937 106.502C212.942 106.485 213.931 106.691 214.673 107.104Z" fill="#DCE2EA" stroke="#DCE2EA" stroke-width="0.8"/>
<path d="M94.3118 153.168L127.181 171.71" stroke="#DCE2EA" stroke-width="2" stroke-miterlimit="10"/>
<path d="M94.8464 148.155L97.7414 149.768H97.7306L99.0792 150.518C99.8229 150.931 100.112 151.431 100.122 151.855C100.131 152.278 99.8647 152.785 99.1438 153.222C99.1438 153.222 99.1437 153.222 99.1436 153.222L95.0124 155.724C95.0123 155.724 95.0122 155.724 95.0121 155.724C94.288 156.161 93.3091 156.402 92.304 156.42C91.2989 156.437 90.3103 156.231 89.5682 155.818L85.3281 153.456L85.3278 153.456C84.5833 153.042 84.2948 152.544 84.2862 152.122C84.2776 151.701 84.545 151.193 85.2712 150.751C85.2713 150.751 85.2714 150.751 85.2715 150.751L89.4023 148.249C89.4024 148.249 89.4025 148.249 89.4026 148.249C90.1266 147.812 91.1056 147.571 92.1106 147.554C93.1158 147.536 94.1043 147.743 94.8464 148.155Z" fill="#DCE2EA" stroke="#DCE2EA" stroke-width="0.8"/>
<path d="M422.867 208.443C428.468 211.68 428.498 216.92 422.928 220.157L237.316 328.019C231.745 331.256 222.697 331.256 217.096 328.019L77.4357 247.408C71.8349 244.171 71.8047 238.932 77.3755 235.695L262.987 127.818C268.558 124.581 277.606 124.581 283.207 127.818L422.867 208.443Z" fill="#F3F5F8" stroke="#0B1742" stroke-width="0.8" stroke-linejoin="round"/>
<path d="M209.423 208.118C209.415 208.203 209.407 208.296 209.392 208.382C209.376 208.452 209.353 208.522 209.338 208.599C209.314 208.685 209.299 208.77 209.268 208.848C209.245 208.918 209.214 208.988 209.183 209.05C209.144 209.136 209.105 209.229 209.059 209.314C209.028 209.376 208.989 209.439 208.95 209.501C208.888 209.602 208.826 209.695 208.756 209.796C208.717 209.851 208.671 209.913 208.624 209.967C208.516 210.099 208.4 210.224 208.268 210.348C208.221 210.395 208.183 210.441 208.128 210.488C208.051 210.558 207.958 210.628 207.872 210.698C207.795 210.76 207.717 210.822 207.64 210.884C207.547 210.954 207.438 211.016 207.338 211.086C207.229 211.156 207.136 211.226 207.02 211.288L192.089 219.984C191.725 220.194 191.329 220.373 190.918 220.544C190.81 220.59 190.701 220.629 190.593 220.668C190.337 220.761 190.073 220.831 189.802 220.909C189.523 220.987 189.252 221.057 188.965 221.119C188.631 221.189 188.29 221.251 187.949 221.298C187.864 221.305 187.786 221.321 187.701 221.329C187.236 221.375 186.763 221.406 186.29 221.406C186.213 221.406 186.143 221.406 186.065 221.406C185.6 221.406 185.135 221.375 184.67 221.329C184.6 221.329 184.53 221.313 184.461 221.305C184.003 221.251 183.554 221.173 183.112 221.072C183.034 221.057 182.949 221.033 182.871 221.01C182.468 220.909 182.081 220.793 181.709 220.653C181.639 220.629 181.569 220.606 181.499 220.583C181.05 220.412 180.623 220.21 180.22 219.977L165.189 211.28C164.359 210.799 163.747 210.247 163.328 209.656C162.917 209.066 162.708 208.436 162.716 207.814L162.677 220.971C162.677 222.222 163.499 223.481 165.15 224.437L180.181 233.133C180.561 233.351 180.964 233.545 181.391 233.716C181.414 233.724 181.437 233.732 181.461 233.74C181.53 233.763 181.6 233.786 181.67 233.809C181.91 233.895 182.158 233.988 182.406 234.058C182.546 234.097 182.685 234.128 182.825 234.159C182.902 234.183 182.98 234.198 183.065 234.221C183.135 234.237 183.205 234.26 183.282 234.276C183.554 234.33 183.833 234.385 184.112 234.423C184.213 234.439 184.313 234.447 184.414 234.455C184.484 234.462 184.554 234.47 184.623 234.478C184.724 234.486 184.825 234.501 184.926 234.509C185.197 234.532 185.476 234.548 185.755 234.556C185.841 234.556 185.926 234.556 186.019 234.556C186.096 234.556 186.166 234.556 186.244 234.556C186.368 234.556 186.492 234.556 186.616 234.556C186.926 234.548 187.236 234.524 187.546 234.493C187.585 234.493 187.616 234.486 187.647 234.478C187.732 234.47 187.81 234.455 187.895 234.447C188.135 234.416 188.376 234.392 188.616 234.346C188.717 234.33 188.817 234.291 188.918 234.268C189.205 234.206 189.484 234.136 189.755 234.058C189.903 234.019 190.058 233.996 190.205 233.949C190.321 233.911 190.43 233.864 190.546 233.817C190.655 233.778 190.763 233.74 190.872 233.693C191.283 233.53 191.678 233.351 192.042 233.133L206.973 224.43C206.973 224.43 207.043 224.391 207.074 224.367C207.151 224.321 207.221 224.266 207.291 224.22C207.392 224.158 207.493 224.088 207.586 224.018C207.671 223.955 207.748 223.893 207.826 223.831C207.911 223.761 208.004 223.691 208.082 223.621C208.097 223.606 208.121 223.59 208.136 223.575C208.167 223.544 208.19 223.513 208.221 223.481C208.353 223.357 208.469 223.233 208.578 223.101C208.601 223.07 208.632 223.046 208.655 223.015C208.679 222.984 208.694 222.961 208.71 222.93C208.779 222.836 208.849 222.735 208.904 222.634C208.927 222.595 208.966 222.557 208.989 222.51C209.004 222.487 209.004 222.471 209.02 222.448C209.066 222.362 209.105 222.277 209.144 222.184C209.167 222.129 209.198 222.083 209.214 222.028C209.214 222.013 209.221 221.989 209.229 221.974C209.26 221.888 209.276 221.811 209.299 221.725C209.314 221.671 209.338 221.609 209.345 221.554C209.345 221.539 209.345 221.523 209.345 221.507C209.361 221.422 209.369 221.329 209.376 221.243C209.376 221.189 209.392 221.127 209.4 221.072C209.4 221.049 209.4 221.026 209.4 221.002L209.438 207.846C209.438 207.931 209.423 208.009 209.415 208.094L209.423 208.118Z" fill="white" stroke="#0B1742" stroke-width="0.8" stroke-miterlimit="10"/>
<path d="M209.423 197.012C209.415 197.098 209.407 197.191 209.392 197.276C209.376 197.346 209.353 197.416 209.338 197.494C209.314 197.579 209.299 197.665 209.268 197.743C209.245 197.813 209.214 197.882 209.183 197.945C209.144 198.03 209.105 198.123 209.059 198.209C209.028 198.271 208.989 198.333 208.95 198.395C208.888 198.496 208.826 198.59 208.756 198.691C208.717 198.745 208.671 198.807 208.624 198.862C208.516 198.994 208.4 199.118 208.268 199.242C208.221 199.289 208.183 199.336 208.128 199.382C208.051 199.452 207.958 199.522 207.872 199.592C207.795 199.654 207.717 199.716 207.64 199.779C207.547 199.849 207.438 199.911 207.338 199.981C207.229 200.051 207.136 200.121 207.02 200.183L192.089 208.879C191.725 209.089 191.329 209.267 190.918 209.438C190.81 209.485 190.701 209.524 190.593 209.563C190.337 209.656 190.073 209.726 189.802 209.804C189.523 209.881 189.252 209.951 188.965 210.013C188.631 210.083 188.29 210.146 187.949 210.192C187.864 210.2 187.786 210.216 187.701 210.223C187.236 210.27 186.763 210.301 186.29 210.301C186.213 210.301 186.143 210.301 186.065 210.301C185.6 210.301 185.135 210.27 184.67 210.223C184.6 210.223 184.53 210.208 184.461 210.2C184.003 210.146 183.554 210.068 183.112 209.967C183.034 209.951 182.949 209.928 182.871 209.905C182.468 209.804 182.081 209.687 181.709 209.547C181.639 209.524 181.569 209.501 181.499 209.477C181.05 209.306 180.623 209.104 180.22 208.871L165.189 200.175C164.359 199.693 163.747 199.141 163.328 198.551C162.917 197.96 162.708 197.331 162.716 196.709L162.677 209.866C162.677 211.117 163.499 212.376 165.15 213.332L180.181 222.028C180.561 222.246 180.964 222.44 181.391 222.611C181.414 222.619 181.437 222.626 181.461 222.634C181.53 222.657 181.6 222.681 181.67 222.704C181.91 222.79 182.158 222.883 182.406 222.953C182.546 222.992 182.685 223.023 182.825 223.054C182.902 223.077 182.98 223.093 183.065 223.116C183.135 223.131 183.205 223.155 183.282 223.17C183.554 223.225 183.833 223.279 184.112 223.318C184.213 223.333 184.313 223.341 184.414 223.349C184.484 223.357 184.554 223.365 184.623 223.372C184.724 223.38 184.825 223.396 184.926 223.403C185.197 223.427 185.476 223.442 185.755 223.45C185.841 223.45 185.926 223.45 186.019 223.45C186.096 223.45 186.166 223.45 186.244 223.45C186.368 223.45 186.492 223.45 186.616 223.45C186.926 223.442 187.236 223.419 187.546 223.388C187.585 223.388 187.616 223.38 187.647 223.372C187.732 223.365 187.81 223.349 187.895 223.341C188.135 223.31 188.376 223.287 188.616 223.24C188.717 223.225 188.817 223.186 188.918 223.163C189.205 223.1 189.484 223.03 189.755 222.953C189.903 222.914 190.058 222.891 190.205 222.844C190.321 222.805 190.43 222.758 190.546 222.712C190.655 222.673 190.763 222.634 190.872 222.587C191.283 222.424 191.678 222.246 192.042 222.028L206.973 213.324C206.973 213.324 207.043 213.285 207.074 213.262C207.151 213.215 207.221 213.161 207.291 213.114C207.392 213.052 207.493 212.982 207.586 212.912C207.671 212.85 207.748 212.788 207.826 212.726C207.911 212.656 208.004 212.586 208.082 212.516C208.097 212.5 208.121 212.485 208.136 212.469C208.167 212.438 208.19 212.407 208.221 212.376C208.353 212.252 208.469 212.127 208.578 211.995C208.601 211.964 208.632 211.941 208.655 211.91C208.679 211.879 208.694 211.855 208.71 211.824C208.779 211.731 208.849 211.63 208.904 211.529C208.927 211.49 208.966 211.451 208.989 211.405C209.004 211.381 209.004 211.366 209.02 211.342C209.066 211.257 209.105 211.171 209.144 211.078C209.167 211.024 209.198 210.977 209.214 210.923C209.214 210.907 209.221 210.884 209.229 210.868C209.26 210.783 209.276 210.705 209.299 210.62C209.314 210.565 209.338 210.503 209.345 210.449C209.345 210.433 209.345 210.418 209.345 210.402C209.361 210.317 209.369 210.223 209.376 210.138C209.376 210.083 209.392 210.021 209.4 209.967C209.4 209.944 209.4 209.92 209.4 209.897L209.438 196.74C209.438 196.826 209.423 196.903 209.415 196.989L209.423 197.012Z" fill="white" stroke="#0B1742" stroke-width="0.8" stroke-miterlimit="10"/>
<path d="M209.423 219.191C209.415 219.277 209.407 219.37 209.392 219.455C209.376 219.525 209.353 219.595 209.338 219.673C209.314 219.759 209.299 219.844 209.268 219.922C209.245 219.992 209.214 220.062 209.183 220.124C209.144 220.209 209.105 220.303 209.059 220.388C209.028 220.45 208.989 220.512 208.95 220.575C208.888 220.676 208.826 220.769 208.756 220.87C208.717 220.924 208.671 220.986 208.624 221.041C208.516 221.173 208.4 221.297 208.268 221.422C208.221 221.468 208.183 221.515 208.128 221.562C208.051 221.631 207.958 221.701 207.872 221.771C207.795 221.834 207.717 221.896 207.64 221.958C207.547 222.028 207.438 222.09 207.338 222.16C207.229 222.23 207.136 222.3 207.02 222.362L192.089 231.058C191.725 231.268 191.329 231.447 190.918 231.618C190.81 231.664 190.701 231.703 190.593 231.742C190.337 231.835 190.073 231.905 189.802 231.983C189.523 232.061 189.252 232.13 188.965 232.193C188.631 232.263 188.29 232.325 187.949 232.371C187.864 232.379 187.786 232.395 187.701 232.402C187.236 232.449 186.763 232.48 186.29 232.48C186.213 232.48 186.143 232.48 186.065 232.48C185.6 232.48 185.135 232.449 184.67 232.402C184.6 232.402 184.53 232.387 184.461 232.379C184.003 232.325 183.554 232.247 183.112 232.146C183.034 232.13 182.949 232.107 182.871 232.084C182.468 231.983 182.081 231.866 181.709 231.726C181.639 231.703 181.569 231.68 181.499 231.656C181.05 231.485 180.623 231.283 180.22 231.05L165.189 222.354C164.359 221.872 163.747 221.321 163.328 220.73C162.917 220.139 162.708 219.51 162.716 218.888L162.677 232.045C162.677 233.296 163.499 234.555 165.15 235.511L180.181 244.207C180.561 244.425 180.964 244.619 181.391 244.79C181.414 244.798 181.437 244.806 181.461 244.813C181.53 244.837 181.6 244.86 181.67 244.883C181.91 244.969 182.158 245.062 182.406 245.132C182.546 245.171 182.685 245.202 182.825 245.233C182.902 245.256 182.98 245.272 183.065 245.295C183.135 245.311 183.205 245.334 183.282 245.35C183.554 245.404 183.833 245.458 184.112 245.497C184.213 245.513 184.313 245.52 184.414 245.528C184.484 245.536 184.554 245.544 184.623 245.552C184.724 245.559 184.825 245.575 184.926 245.583C185.197 245.606 185.476 245.621 185.755 245.629C185.841 245.629 185.926 245.629 186.019 245.629C186.096 245.629 186.166 245.629 186.244 245.629C186.368 245.629 186.492 245.629 186.616 245.629C186.926 245.621 187.236 245.598 187.546 245.567C187.585 245.567 187.616 245.559 187.647 245.552C187.732 245.544 187.81 245.528 187.895 245.52C188.135 245.489 188.376 245.466 188.616 245.419C188.717 245.404 188.817 245.365 188.918 245.342C189.205 245.28 189.484 245.21 189.755 245.132C189.903 245.093 190.058 245.07 190.205 245.023C190.321 244.984 190.43 244.938 190.546 244.891C190.655 244.852 190.763 244.813 190.872 244.767C191.283 244.603 191.678 244.425 192.042 244.207L206.973 235.503C206.973 235.503 207.043 235.464 207.074 235.441C207.151 235.394 207.221 235.34 207.291 235.293C207.392 235.231 207.493 235.161 207.586 235.091C207.671 235.029 207.748 234.967 207.826 234.905C207.911 234.835 208.004 234.765 208.082 234.695C208.097 234.679 208.121 234.664 208.136 234.648C208.167 234.617 208.19 234.586 208.221 234.555C208.353 234.431 208.469 234.306 208.578 234.174C208.601 234.143 208.632 234.12 208.655 234.089C208.679 234.058 208.694 234.034 208.71 234.003C208.779 233.91 208.849 233.809 208.904 233.708C208.927 233.669 208.966 233.63 208.989 233.584C209.004 233.56 209.004 233.545 209.02 233.522C209.066 233.436 209.105 233.351 209.144 233.257C209.167 233.203 209.198 233.156 209.214 233.102C209.214 233.086 209.221 233.063 209.229 233.048C209.26 232.962 209.276 232.884 209.299 232.799C209.314 232.744 209.338 232.682 209.345 232.628C209.345 232.612 209.345 232.597 209.345 232.581C209.361 232.496 209.369 232.402 209.376 232.317C209.376 232.263 209.392 232.2 209.4 232.146C209.4 232.123 209.4 232.099 209.4 232.076L209.438 218.919C209.438 219.005 209.423 219.082 209.415 219.168L209.423 219.191Z" fill="white" stroke="#0B1742" stroke-width="0.8" stroke-miterlimit="10"/>
<path d="M206.965 193.297C210.244 195.194 210.275 198.279 207.012 200.175L192.081 208.871C188.817 210.767 183.507 210.767 180.22 208.871L165.188 200.175C161.909 198.279 161.886 195.186 165.15 193.29L180.08 184.594C183.344 182.697 188.647 182.697 191.934 184.594L206.965 193.29V193.297Z" fill="white" stroke="#0B1742" stroke-width="0.8" stroke-miterlimit="10"/>
<path d="M169.53 207.643C170.344 208.117 171.003 209.26 171.003 210.192C171.003 211.133 170.336 211.513 169.522 211.039C168.708 210.573 168.049 209.423 168.057 208.483C168.065 207.542 168.724 207.169 169.538 207.636L169.53 207.643Z" fill="#5F38FB"/>
<path d="M173.259 209.92C174.073 210.394 174.732 211.537 174.732 212.469C174.732 213.402 174.065 213.79 173.251 213.316C172.437 212.85 171.778 211.7 171.786 210.76C171.794 209.819 172.453 209.446 173.267 209.912L173.259 209.92Z" fill="#5F38FB"/>
<path d="M176.98 212.19C177.794 212.664 178.453 213.806 178.453 214.739C178.453 215.679 177.787 216.06 176.973 215.586C176.159 215.112 175.5 213.969 175.507 213.029C175.515 212.089 176.174 211.716 176.988 212.182L176.98 212.19Z" fill="#5F38FB"/>
<path d="M202.733 229.644C201.919 230.118 201.26 231.26 201.26 232.193C201.26 233.125 201.927 233.514 202.741 233.04C203.554 232.566 204.213 231.423 204.206 230.483C204.198 229.543 203.539 229.17 202.725 229.636L202.733 229.644Z" fill="#D0D9E3"/>
<path d="M199.004 231.913C198.19 232.387 197.531 233.529 197.531 234.462C197.531 235.394 198.198 235.783 199.012 235.309C199.826 234.843 200.485 233.693 200.477 232.752C200.469 231.812 199.81 231.439 198.996 231.905L199.004 231.913Z" fill="#D0D9E3"/>
<path d="M195.275 234.183C194.461 234.657 193.802 235.799 193.802 236.732C193.802 237.664 194.469 238.053 195.283 237.579C196.097 237.105 196.756 235.962 196.748 235.022C196.748 234.089 196.081 233.708 195.267 234.175L195.275 234.183Z" fill="#D0D9E3"/>
<path d="M174.034 232.278C174.848 232.752 175.507 233.895 175.507 234.827C175.507 235.76 174.84 236.148 174.026 235.674C173.212 235.2 172.553 234.058 172.561 233.118C172.561 232.185 173.228 231.804 174.042 232.27L174.034 232.278Z" fill="#D0D9E3"/>
<path d="M198.229 210.285C197.415 210.76 196.756 211.902 196.756 212.834C196.756 213.775 197.422 214.156 198.236 213.682C199.05 213.207 199.709 212.065 199.702 211.125C199.694 210.184 199.035 209.811 198.221 210.278L198.229 210.285Z" fill="#D0D9E3"/>
<path d="M239 227.464C238.992 227.55 238.984 227.643 238.969 227.728C238.953 227.798 238.93 227.868 238.915 227.946C238.891 228.032 238.876 228.117 238.845 228.195C238.822 228.265 238.791 228.335 238.76 228.397C238.721 228.482 238.682 228.576 238.636 228.661C238.605 228.723 238.566 228.785 238.527 228.848C238.465 228.949 238.403 229.042 238.333 229.143C238.294 229.197 238.248 229.259 238.201 229.314C238.093 229.446 237.977 229.57 237.845 229.695C237.798 229.741 237.76 229.788 237.705 229.834C237.628 229.904 237.535 229.974 237.449 230.044C237.372 230.106 237.294 230.169 237.217 230.231C237.124 230.301 237.015 230.363 236.915 230.433C236.806 230.503 236.713 230.573 236.597 230.635L221.666 239.331C221.302 239.541 220.906 239.72 220.495 239.891C220.387 239.937 220.278 239.976 220.17 240.015C219.914 240.108 219.65 240.178 219.379 240.256C219.1 240.333 218.829 240.403 218.542 240.466C218.208 240.536 217.867 240.598 217.526 240.644C217.441 240.652 217.363 240.668 217.278 240.675C216.813 240.722 216.34 240.753 215.867 240.753C215.79 240.753 215.72 240.753 215.642 240.753C215.177 240.753 214.712 240.722 214.247 240.675C214.177 240.675 214.107 240.66 214.038 240.652C213.58 240.598 213.131 240.52 212.689 240.419C212.611 240.403 212.526 240.38 212.449 240.357C212.045 240.256 211.658 240.139 211.286 239.999C211.216 239.976 211.146 239.953 211.076 239.929C210.627 239.758 210.2 239.556 209.797 239.323L194.766 230.627C193.936 230.145 193.324 229.594 192.905 229.003C192.494 228.412 192.285 227.783 192.293 227.161L192.254 240.318C192.254 241.569 193.076 242.828 194.727 243.784L209.758 252.48C210.138 252.698 210.541 252.892 210.968 253.063C210.991 253.071 211.014 253.078 211.038 253.086C211.107 253.11 211.177 253.133 211.247 253.156C211.487 253.242 211.735 253.335 211.983 253.405C212.123 253.444 212.262 253.475 212.402 253.506C212.48 253.529 212.557 253.545 212.642 253.568C212.712 253.584 212.782 253.607 212.859 253.622C213.131 253.677 213.41 253.731 213.689 253.77C213.79 253.786 213.89 253.793 213.991 253.801C214.061 253.809 214.131 253.817 214.201 253.824C214.301 253.832 214.402 253.848 214.503 253.856C214.774 253.879 215.053 253.894 215.332 253.902C215.418 253.902 215.503 253.902 215.596 253.902C215.673 253.902 215.743 253.902 215.821 253.902C215.945 253.902 216.069 253.902 216.193 253.902C216.503 253.894 216.813 253.871 217.123 253.84C217.162 253.84 217.193 253.832 217.224 253.824C217.309 253.817 217.387 253.801 217.472 253.793C217.712 253.762 217.953 253.739 218.193 253.692C218.294 253.677 218.394 253.638 218.495 253.615C218.782 253.552 219.061 253.483 219.332 253.405C219.48 253.366 219.635 253.343 219.782 253.296C219.898 253.257 220.007 253.211 220.123 253.164C220.232 253.125 220.34 253.086 220.449 253.04C220.86 252.876 221.255 252.698 221.619 252.48L236.55 243.776C236.55 243.776 236.62 243.737 236.651 243.714C236.729 243.667 236.798 243.613 236.868 243.566C236.969 243.504 237.07 243.434 237.163 243.364C237.248 243.302 237.325 243.24 237.403 243.178C237.488 243.108 237.581 243.038 237.659 242.968C237.674 242.952 237.698 242.937 237.713 242.921C237.744 242.89 237.767 242.859 237.798 242.828C237.93 242.704 238.046 242.579 238.155 242.447C238.178 242.416 238.209 242.393 238.232 242.362C238.256 242.331 238.271 242.307 238.287 242.276C238.357 242.183 238.426 242.082 238.481 241.981C238.504 241.942 238.543 241.903 238.566 241.857C238.581 241.833 238.581 241.818 238.597 241.795C238.643 241.709 238.682 241.624 238.721 241.53C238.744 241.476 238.775 241.429 238.791 241.375C238.791 241.359 238.798 241.336 238.806 241.32C238.837 241.235 238.853 241.157 238.876 241.072C238.891 241.017 238.915 240.955 238.922 240.901C238.922 240.885 238.922 240.87 238.922 240.854C238.938 240.769 238.946 240.675 238.953 240.59C238.953 240.536 238.969 240.473 238.977 240.419C238.977 240.396 238.977 240.372 238.977 240.349L239.015 227.192C239.015 227.278 239 227.355 238.992 227.441L239 227.464Z" fill="white" stroke="#0B1742" stroke-width="0.8" stroke-miterlimit="10"/>
<path d="M239 216.359C238.992 216.444 238.984 216.537 238.969 216.623C238.953 216.693 238.93 216.763 238.915 216.841C238.891 216.926 238.876 217.012 238.845 217.089C238.822 217.159 238.791 217.229 238.76 217.291C238.721 217.377 238.682 217.47 238.636 217.556C238.605 217.618 238.566 217.68 238.527 217.742C238.465 217.843 238.403 217.936 238.333 218.037C238.294 218.092 238.248 218.154 238.201 218.208C238.093 218.34 237.977 218.465 237.845 218.589C237.798 218.636 237.76 218.682 237.705 218.729C237.628 218.799 237.535 218.869 237.449 218.939C237.372 219.001 237.294 219.063 237.217 219.125C237.124 219.195 237.015 219.257 236.915 219.327C236.806 219.397 236.713 219.467 236.597 219.529L221.666 228.226C221.302 228.435 220.906 228.614 220.495 228.785C220.387 228.832 220.278 228.871 220.17 228.909C219.914 229.003 219.65 229.073 219.379 229.15C219.1 229.228 218.829 229.298 218.542 229.36C218.208 229.43 217.867 229.492 217.526 229.539C217.441 229.547 217.363 229.562 217.278 229.57C216.813 229.617 216.34 229.648 215.867 229.648C215.79 229.648 215.72 229.648 215.642 229.648C215.177 229.648 214.712 229.617 214.247 229.57C214.177 229.57 214.107 229.554 214.038 229.547C213.58 229.492 213.131 229.415 212.689 229.314C212.611 229.298 212.526 229.275 212.449 229.251C212.045 229.15 211.658 229.034 211.286 228.894C211.216 228.871 211.146 228.847 211.076 228.824C210.627 228.653 210.2 228.451 209.797 228.218L194.766 219.522C193.936 219.04 193.324 218.488 192.905 217.897C192.494 217.307 192.285 216.677 192.293 216.056L192.254 229.212C192.254 230.464 193.076 231.723 194.727 232.678L209.758 241.375C210.138 241.592 210.541 241.786 210.968 241.957C210.991 241.965 211.014 241.973 211.038 241.981C211.107 242.004 211.177 242.027 211.247 242.051C211.487 242.136 211.735 242.229 211.983 242.299C212.123 242.338 212.262 242.369 212.402 242.4C212.48 242.424 212.557 242.439 212.642 242.463C212.712 242.478 212.782 242.501 212.859 242.517C213.131 242.571 213.41 242.626 213.689 242.665C213.79 242.68 213.89 242.688 213.991 242.696C214.061 242.703 214.131 242.711 214.201 242.719C214.301 242.727 214.402 242.742 214.503 242.75C214.774 242.773 215.053 242.789 215.332 242.797C215.418 242.797 215.503 242.797 215.596 242.797C215.673 242.797 215.743 242.797 215.821 242.797C215.945 242.797 216.069 242.797 216.193 242.797C216.503 242.789 216.813 242.766 217.123 242.735C217.162 242.735 217.193 242.727 217.224 242.719C217.309 242.711 217.387 242.696 217.472 242.688C217.712 242.657 217.953 242.634 218.193 242.587C218.294 242.571 218.394 242.533 218.495 242.509C218.782 242.447 219.061 242.377 219.332 242.299C219.48 242.261 219.635 242.237 219.782 242.191C219.898 242.152 220.007 242.105 220.123 242.058C220.232 242.02 220.34 241.981 220.449 241.934C220.86 241.771 221.255 241.592 221.619 241.375L236.55 232.671C236.55 232.671 236.62 232.632 236.651 232.609C236.729 232.562 236.798 232.508 236.868 232.461C236.969 232.399 237.07 232.329 237.163 232.259C237.248 232.197 237.325 232.135 237.403 232.072C237.488 232.002 237.581 231.932 237.659 231.863C237.674 231.847 237.698 231.831 237.713 231.816C237.744 231.785 237.767 231.754 237.798 231.723C237.93 231.598 238.046 231.474 238.155 231.342C238.178 231.311 238.209 231.287 238.232 231.256C238.256 231.225 238.271 231.202 238.287 231.171C238.357 231.078 238.426 230.977 238.481 230.876C238.504 230.837 238.543 230.798 238.566 230.751C238.581 230.728 238.581 230.712 238.597 230.689C238.643 230.604 238.682 230.518 238.721 230.425C238.744 230.37 238.775 230.324 238.791 230.269C238.791 230.254 238.798 230.231 238.806 230.215C238.837 230.13 238.853 230.052 238.876 229.966C238.891 229.912 238.915 229.85 238.922 229.795C238.922 229.78 238.922 229.764 238.922 229.749C238.938 229.663 238.946 229.57 238.953 229.485C238.953 229.43 238.969 229.368 238.977 229.314C238.977 229.29 238.977 229.267 238.977 229.244L239.015 216.087C239.015 216.172 239 216.25 238.992 216.335L239 216.359Z" fill="white" stroke="#0B1742" stroke-width="0.8" stroke-miterlimit="10"/>
<path d="M239 238.538C238.992 238.623 238.984 238.717 238.969 238.802C238.953 238.872 238.93 238.942 238.915 239.02C238.891 239.105 238.876 239.191 238.845 239.268C238.822 239.338 238.791 239.408 238.76 239.47C238.721 239.556 238.682 239.649 238.636 239.735C238.605 239.797 238.566 239.859 238.527 239.921C238.465 240.022 238.403 240.116 238.333 240.217C238.294 240.271 238.248 240.333 238.201 240.388C238.093 240.52 237.977 240.644 237.845 240.768C237.798 240.815 237.76 240.862 237.705 240.908C237.628 240.978 237.535 241.048 237.449 241.118C237.372 241.18 237.294 241.242 237.217 241.305C237.124 241.374 237.015 241.437 236.915 241.507C236.806 241.577 236.713 241.646 236.597 241.709L221.666 250.405C221.302 250.615 220.906 250.793 220.495 250.964C220.387 251.011 220.278 251.05 220.17 251.089C219.914 251.182 219.65 251.252 219.379 251.33C219.1 251.407 218.829 251.477 218.542 251.539C218.208 251.609 217.867 251.671 217.526 251.718C217.441 251.726 217.363 251.741 217.278 251.749C216.813 251.796 216.34 251.827 215.867 251.827C215.79 251.827 215.72 251.827 215.642 251.827C215.177 251.827 214.712 251.796 214.247 251.749C214.177 251.749 214.107 251.734 214.038 251.726C213.58 251.671 213.131 251.594 212.689 251.493C212.611 251.477 212.526 251.454 212.449 251.431C212.045 251.33 211.658 251.213 211.286 251.073C211.216 251.05 211.146 251.026 211.076 251.003C210.627 250.832 210.2 250.63 209.797 250.397L194.766 241.701C193.936 241.219 193.324 240.667 192.905 240.077C192.494 239.486 192.285 238.857 192.293 238.235L192.254 251.392C192.254 252.643 193.076 253.902 194.727 254.858L209.758 263.554C210.138 263.771 210.541 263.966 210.968 264.137C210.991 264.144 211.014 264.152 211.038 264.16C211.107 264.183 211.177 264.207 211.247 264.23C211.487 264.315 211.735 264.409 211.983 264.479C212.123 264.517 212.262 264.549 212.402 264.58C212.48 264.603 212.557 264.618 212.642 264.642C212.712 264.657 212.782 264.681 212.859 264.696C213.131 264.751 213.41 264.805 213.689 264.844C213.79 264.859 213.89 264.867 213.991 264.875C214.061 264.883 214.131 264.89 214.201 264.898C214.301 264.906 214.402 264.922 214.503 264.929C214.774 264.953 215.053 264.968 215.332 264.976C215.418 264.976 215.503 264.976 215.596 264.976C215.673 264.976 215.743 264.976 215.821 264.976C215.945 264.976 216.069 264.976 216.193 264.976C216.503 264.968 216.813 264.945 217.123 264.914C217.162 264.914 217.193 264.906 217.224 264.898C217.309 264.89 217.387 264.875 217.472 264.867C217.712 264.836 217.953 264.813 218.193 264.766C218.294 264.751 218.394 264.712 218.495 264.688C218.782 264.626 219.061 264.556 219.332 264.479C219.48 264.44 219.635 264.416 219.782 264.37C219.898 264.331 220.007 264.284 220.123 264.238C220.232 264.199 220.34 264.16 220.449 264.113C220.86 263.95 221.255 263.771 221.619 263.554L236.55 254.85C236.55 254.85 236.62 254.811 236.651 254.788C236.729 254.741 236.798 254.687 236.868 254.64C236.969 254.578 237.07 254.508 237.163 254.438C237.248 254.376 237.325 254.314 237.403 254.252C237.488 254.182 237.581 254.112 237.659 254.042C237.674 254.026 237.698 254.011 237.713 253.995C237.744 253.964 237.767 253.933 237.798 253.902C237.93 253.777 238.046 253.653 238.155 253.521C238.178 253.49 238.209 253.467 238.232 253.436C238.256 253.404 238.271 253.381 238.287 253.35C238.357 253.257 238.426 253.156 238.481 253.055C238.504 253.016 238.543 252.977 238.566 252.93C238.581 252.907 238.581 252.892 238.597 252.868C238.643 252.783 238.682 252.697 238.721 252.604C238.744 252.55 238.775 252.503 238.791 252.449C238.791 252.433 238.798 252.41 238.806 252.394C238.837 252.309 238.853 252.231 238.876 252.146C238.891 252.091 238.915 252.029 238.922 251.975C238.922 251.959 238.922 251.943 238.922 251.928C238.938 251.842 238.946 251.749 238.953 251.664C238.953 251.609 238.969 251.547 238.977 251.493C238.977 251.469 238.977 251.446 238.977 251.423L239.015 238.266C239.015 238.351 239 238.429 238.992 238.515L239 238.538Z" fill="white" stroke="#0B1742" stroke-width="0.8" stroke-miterlimit="10"/>
<path d="M236.543 212.644C239.822 214.54 239.853 217.625 236.589 219.522L221.659 228.218C218.395 230.114 213.085 230.114 209.798 228.218L194.766 219.522C191.487 217.625 191.464 214.533 194.727 212.636L209.658 203.94C212.922 202.044 218.224 202.044 221.511 203.94L236.543 212.636V212.644Z" fill="white" stroke="#0B1742" stroke-width="0.8" stroke-miterlimit="10"/>
<path d="M199.107 226.99C199.921 227.464 200.58 228.606 200.58 229.539C200.58 230.479 199.913 230.86 199.099 230.386C198.285 229.92 197.626 228.77 197.634 227.829C197.642 226.889 198.301 226.516 199.115 226.982L199.107 226.99Z" fill="#5F38FB"/>
<path d="M202.836 229.267C203.65 229.741 204.309 230.883 204.309 231.816C204.309 232.748 203.642 233.137 202.828 232.663C202.014 232.197 201.355 231.047 201.363 230.106C201.371 229.166 202.029 228.793 202.843 229.259L202.836 229.267Z" fill="#5F38FB"/>
<path d="M206.557 231.536C207.371 232.011 208.03 233.153 208.03 234.085C208.03 235.026 207.363 235.407 206.549 234.933C205.735 234.458 205.076 233.316 205.084 232.376C205.092 231.435 205.751 231.062 206.565 231.529L206.557 231.536Z" fill="#5F38FB"/>
<path d="M232.31 248.991C231.496 249.465 230.837 250.607 230.837 251.54C230.837 252.472 231.504 252.861 232.318 252.387C233.132 251.913 233.791 250.77 233.783 249.83C233.775 248.89 233.116 248.516 232.302 248.983L232.31 248.991Z" fill="#D0D9E3"/>
<path d="M228.581 251.26C227.767 251.734 227.108 252.876 227.108 253.809C227.108 254.741 227.775 255.13 228.589 254.656C229.403 254.189 230.062 253.039 230.054 252.099C230.046 251.159 229.387 250.786 228.573 251.252L228.581 251.26Z" fill="#D0D9E3"/>
<path d="M224.852 253.529C224.039 254.003 223.38 255.146 223.38 256.078C223.38 257.011 224.046 257.399 224.86 256.925C225.674 256.451 226.333 255.309 226.325 254.368C226.325 253.436 225.659 253.055 224.845 253.521L224.852 253.529Z" fill="#D0D9E3"/>
<path d="M203.611 251.625C204.425 252.099 205.084 253.241 205.084 254.174C205.084 255.106 204.417 255.495 203.603 255.021C202.789 254.547 202.13 253.405 202.138 252.464C202.138 251.532 202.805 251.151 203.619 251.617L203.611 251.625Z" fill="#D0D9E3"/>
<path d="M227.806 229.632C226.992 230.106 226.333 231.249 226.333 232.181C226.333 233.121 226.999 233.502 227.813 233.028C228.627 232.554 229.286 231.412 229.279 230.471C229.271 229.531 228.612 229.158 227.798 229.624L227.806 229.632Z" fill="#D0D9E3"/>
<path d="M319.894 226.93L230.928 285.272C223.33 289.817 208.657 290.18 200.212 285.272L92.8445 222.876C84.4055 217.975 84.4423 209.997 92.9428 205.083L162.095 162.949C167.678 159.541 174.692 159.522 180.293 162.894L233.083 194.697C241.16 199.561 251.282 199.518 259.316 194.58L292.163 175.049C296.775 172.199 295.553 165.326 290.062 161.733L258.824 142.411L248.094 148.006L277.987 166.143C281.242 167.703 281.402 170.369 278.872 172.224L256.601 185.515C251.036 189.04 243.414 189.802 238.617 186.934L184.642 154.645C176.313 149.664 165.921 149.67 157.599 154.658L83.5456 199.629C69.8368 207.546 69.7631 220.426 83.3859 228.343L190.753 290.739C204.376 298.655 223.877 300.67 240.337 290.739L329.334 232.378L319.894 226.93Z" fill="#F3F5F8" stroke="#0B1742" stroke-width="0.8" stroke-linejoin="round"/>
<path d="M215.935 294.995C207.576 294.995 199.069 292.728 191.987 288.613L84.6202 226.217C78.8468 222.864 75.6653 218.534 75.6714 214.038C75.6775 209.505 78.9082 205.138 84.7738 201.754L158.876 156.764C162.574 154.547 166.812 153.374 171.136 153.374C175.46 153.374 179.685 154.541 183.383 156.758L237.358 189.046C239.661 190.422 242.554 191.153 245.717 191.153C249.894 191.153 254.328 189.863 257.884 187.615L280.223 174.281L280.315 174.214C282.231 172.807 283.226 170.878 283.048 168.919C282.937 167.734 282.286 165.535 279.16 163.993L252.019 147.422L257.645 144.493L288.735 163.821C291.075 165.363 292.568 167.771 292.543 169.963C292.525 171.284 291.966 172.297 290.873 172.973L258.062 192.486C254.445 194.709 250.317 195.876 246.104 195.876C241.891 195.876 237.898 194.746 234.355 192.609L181.565 160.806C178.451 158.926 174.882 157.937 171.246 157.937C167.61 157.937 163.962 158.951 160.823 160.867L91.665 202.989C86.8006 205.795 84.092 209.72 84.0859 214.007C84.0859 218.27 86.7515 222.176 91.6097 225.001L198.977 287.397C203.283 289.897 209.166 291.273 215.56 291.273C221.954 291.273 228.053 289.854 232.186 287.379L232.272 287.324L319.973 229.81L324.647 232.507L239.022 288.656C232.137 292.802 224.153 294.989 215.935 294.989V294.995Z" fill="url(#paint0_linear_14_909)"/>
<path d="M215.935 294.995C207.576 294.995 199.069 292.728 191.987 288.613L84.6202 226.217C78.8468 222.864 75.6653 218.534 75.6714 214.038C75.6775 209.505 78.9082 205.138 84.7738 201.754L158.876 156.764C162.574 154.547 166.812 153.374 171.136 153.374C175.46 153.374 179.685 154.541 183.383 156.758L237.358 189.046C239.661 190.422 242.554 191.153 245.717 191.153C249.894 191.153 254.328 189.863 257.884 187.615L280.223 174.281L280.315 174.214C282.231 172.807 283.226 170.878 283.048 168.919C282.937 167.734 282.286 165.535 279.16 163.993L252.019 147.422L257.645 144.493L288.735 163.821C291.075 165.363 292.568 167.771 292.543 169.963C292.525 171.284 291.966 172.297 290.873 172.973L258.062 192.486C254.445 194.709 250.317 195.876 246.104 195.876C241.891 195.876 237.898 194.746 234.355 192.609L181.565 160.806C178.451 158.926 174.882 157.937 171.246 157.937C167.61 157.937 163.962 158.951 160.823 160.867L91.665 202.989C86.8006 205.795 84.092 209.72 84.0859 214.007C84.0859 218.27 86.7515 222.176 91.6097 225.001L198.977 287.397C203.283 289.897 209.166 291.273 215.56 291.273C221.954 291.273 228.053 289.854 232.186 287.379L232.272 287.324L319.973 229.81L324.647 232.507L239.022 288.656C232.137 292.802 224.153 294.989 215.935 294.989V294.995Z" fill="url(#paint1_linear_14_909)"/>
<path d="M264.131 129.869C264.131 129.949 264.119 130.035 264.112 130.114C264.106 130.2 264.1 130.293 264.082 130.379C264.069 130.452 264.045 130.52 264.026 130.594C264.002 130.679 263.983 130.759 263.953 130.845C263.928 130.913 263.897 130.98 263.867 131.048C263.83 131.134 263.793 131.22 263.744 131.312C263.713 131.374 263.67 131.435 263.633 131.496C263.572 131.595 263.511 131.693 263.437 131.791C263.394 131.846 263.345 131.902 263.302 131.963C263.191 132.092 263.074 132.221 262.945 132.344C262.896 132.387 262.853 132.436 262.804 132.479C262.724 132.553 262.632 132.62 262.546 132.694C262.466 132.755 262.393 132.817 262.313 132.878C262.221 132.946 262.116 133.013 262.012 133.081C261.907 133.149 261.809 133.222 261.693 133.284L250.226 139.948C249.974 140.095 249.71 140.224 249.433 140.347C249.353 140.384 249.273 140.414 249.194 140.451C248.979 140.543 248.758 140.623 248.53 140.703C248.45 140.728 248.371 140.758 248.291 140.789C248.15 140.832 248.002 140.875 247.861 140.912C247.75 140.943 247.64 140.973 247.529 140.998C247.376 141.035 247.222 141.066 247.062 141.096C246.958 141.115 246.854 141.139 246.743 141.158C246.43 141.213 246.11 141.256 245.785 141.293C245.687 141.305 245.582 141.311 245.484 141.317C245.294 141.336 245.109 141.348 244.919 141.354C244.796 141.354 244.673 141.36 244.556 141.366C244.403 141.366 244.249 141.366 244.096 141.366C243.967 141.366 243.838 141.366 243.709 141.354C243.568 141.354 243.426 141.342 243.285 141.33C243.156 141.323 243.027 141.311 242.898 141.299C242.757 141.287 242.616 141.268 242.474 141.25C242.352 141.231 242.223 141.219 242.1 141.194C241.952 141.17 241.799 141.145 241.651 141.115C241.535 141.09 241.418 141.072 241.301 141.047C241.123 141.01 240.951 140.967 240.779 140.918C240.681 140.894 240.589 140.869 240.491 140.838C240.183 140.746 239.882 140.648 239.588 140.531C239.446 140.476 239.305 140.414 239.164 140.353C239.09 140.322 239.016 140.292 238.943 140.255C238.734 140.157 238.525 140.046 238.329 139.935L226.788 133.271C225.338 132.436 224.528 131.374 224.35 130.28C224.325 130.127 224.313 129.967 224.313 129.813L224.288 139.499C224.288 140.752 225.111 142.005 226.763 142.957L238.304 149.621C238.501 149.738 238.709 149.842 238.918 149.941C238.986 149.971 239.066 150.002 239.133 150.033C239.256 150.088 239.385 150.149 239.514 150.199C239.526 150.199 239.545 150.211 239.563 150.217C239.858 150.328 240.159 150.432 240.466 150.524C240.491 150.53 240.515 150.543 240.54 150.549C240.607 150.567 240.681 150.586 240.755 150.604C240.927 150.647 241.099 150.696 241.277 150.733C241.326 150.745 241.369 150.757 241.418 150.77C241.486 150.782 241.559 150.794 241.627 150.807C241.774 150.837 241.922 150.862 242.069 150.886C242.13 150.899 242.186 150.911 242.247 150.917C242.315 150.929 242.382 150.929 242.444 150.942C242.585 150.96 242.72 150.972 242.861 150.991C242.929 150.997 242.996 151.009 243.064 151.015C243.125 151.015 243.193 151.015 243.254 151.028C243.396 151.04 243.537 151.046 243.678 151.052C243.752 151.052 243.819 151.065 243.893 151.065C243.948 151.065 244.01 151.065 244.065 151.065C244.219 151.065 244.372 151.065 244.526 151.065C244.599 151.065 244.679 151.065 244.753 151.065C244.796 151.065 244.845 151.058 244.888 151.058C245.079 151.052 245.269 151.034 245.459 151.022C245.533 151.015 245.613 151.015 245.687 151.009C245.711 151.009 245.73 151.003 245.754 150.997C246.074 150.966 246.393 150.917 246.712 150.862C246.731 150.862 246.743 150.862 246.761 150.856C246.854 150.837 246.94 150.819 247.032 150.8C247.185 150.77 247.345 150.739 247.498 150.702C247.609 150.678 247.72 150.641 247.83 150.616C247.978 150.579 248.119 150.536 248.266 150.493C248.297 150.481 248.328 150.475 248.358 150.469C248.407 150.45 248.457 150.432 248.506 150.414C248.733 150.334 248.954 150.254 249.169 150.162C249.249 150.131 249.329 150.094 249.409 150.057C249.685 149.934 249.949 149.805 250.201 149.658L261.668 142.994C261.705 142.976 261.735 142.951 261.772 142.933C261.852 142.884 261.914 142.834 261.987 142.791C262.092 142.724 262.196 142.656 262.288 142.589C262.374 142.527 262.448 142.466 262.522 142.404C262.608 142.337 262.7 142.263 262.78 142.189C262.798 142.177 262.816 142.159 262.829 142.146C262.859 142.116 262.884 142.085 262.915 142.054C263.044 141.932 263.16 141.803 263.271 141.674C263.296 141.643 263.326 141.618 263.351 141.588C263.375 141.557 263.388 141.532 263.406 141.502C263.48 141.403 263.541 141.305 263.603 141.207C263.627 141.164 263.664 141.127 263.682 141.084C263.695 141.066 263.701 141.041 263.713 141.023C263.762 140.937 263.799 140.851 263.836 140.758C263.861 140.709 263.885 140.66 263.91 140.605C263.916 140.586 263.916 140.568 263.922 140.556C263.953 140.47 263.971 140.39 263.996 140.304C264.008 140.249 264.033 140.193 264.045 140.132C264.045 140.12 264.045 140.101 264.045 140.089C264.063 140.003 264.069 139.911 264.076 139.825C264.076 139.77 264.094 139.708 264.094 139.653C264.094 139.628 264.094 139.604 264.094 139.579L264.119 129.893L264.131 129.869Z" fill="#F9FAFB" stroke="#0B1742" stroke-width="0.8" stroke-linejoin="round"/>
<path d="M261.649 126.399C264.942 128.303 264.966 131.38 261.699 133.278L250.232 139.942C246.958 141.846 241.639 141.846 238.347 139.942L226.806 133.278C223.514 131.374 223.502 128.297 226.776 126.399L238.243 119.735C241.516 117.831 246.823 117.831 250.115 119.735L261.656 126.399H261.649Z" fill="white" stroke="#0B1742" stroke-width="0.8" stroke-linejoin="round"/>
<path d="M145.125 171.106C145.125 171.186 145.112 171.272 145.106 171.352C145.1 171.438 145.094 171.53 145.075 171.616C145.063 171.69 145.039 171.757 145.02 171.831C144.996 171.917 144.977 171.997 144.947 172.083C144.922 172.15 144.891 172.218 144.861 172.285C144.824 172.371 144.787 172.457 144.738 172.549C144.707 172.611 144.664 172.672 144.627 172.734C144.566 172.832 144.504 172.93 144.431 173.028C144.388 173.084 144.338 173.139 144.295 173.2C144.185 173.329 144.068 173.458 143.939 173.581C143.89 173.624 143.847 173.673 143.798 173.716C143.718 173.79 143.626 173.858 143.54 173.931C143.46 173.993 143.386 174.054 143.307 174.116C143.214 174.183 143.11 174.251 143.006 174.318C142.901 174.386 142.803 174.46 142.686 174.521L131.219 181.185C130.967 181.332 130.703 181.461 130.427 181.584C130.347 181.621 130.267 181.652 130.187 181.689C129.972 181.781 129.751 181.861 129.524 181.94C129.444 181.965 129.364 181.996 129.285 182.026C129.143 182.069 128.996 182.112 128.855 182.149C128.744 182.18 128.634 182.211 128.523 182.235C128.369 182.272 128.216 182.303 128.056 182.334C127.952 182.352 127.847 182.377 127.737 182.395C127.424 182.45 127.104 182.493 126.779 182.53C126.68 182.542 126.576 182.548 126.478 182.555C126.287 182.573 126.103 182.585 125.913 182.591C125.79 182.591 125.667 182.598 125.55 182.604C125.397 182.604 125.243 182.604 125.09 182.604C124.961 182.604 124.832 182.604 124.703 182.591C124.561 182.591 124.42 182.579 124.279 182.567C124.15 182.561 124.021 182.548 123.892 182.536C123.751 182.524 123.609 182.505 123.468 182.487C123.345 182.469 123.216 182.456 123.093 182.432C122.946 182.407 122.793 182.383 122.645 182.352C122.528 182.327 122.412 182.309 122.295 182.284C122.117 182.248 121.945 182.205 121.773 182.155C121.675 182.131 121.583 182.106 121.484 182.076C121.177 181.983 120.876 181.885 120.581 181.768C120.44 181.713 120.299 181.652 120.158 181.59C120.084 181.56 120.01 181.529 119.937 181.492C119.728 181.394 119.519 181.283 119.322 181.173L107.782 174.509C106.332 173.673 105.521 172.611 105.343 171.518C105.319 171.364 105.306 171.204 105.306 171.051L105.282 180.737C105.282 181.99 106.105 183.243 107.757 184.195L119.298 190.859C119.494 190.975 119.703 191.08 119.912 191.178C119.98 191.209 120.059 191.239 120.127 191.27C120.25 191.325 120.379 191.387 120.508 191.436C120.52 191.436 120.538 191.448 120.557 191.454C120.852 191.565 121.153 191.669 121.46 191.761C121.484 191.768 121.509 191.78 121.533 191.786C121.601 191.804 121.675 191.823 121.748 191.841C121.92 191.884 122.092 191.933 122.27 191.97C122.32 191.983 122.363 191.995 122.412 192.007C122.479 192.019 122.553 192.032 122.621 192.044C122.768 192.075 122.915 192.099 123.063 192.124C123.124 192.136 123.179 192.148 123.241 192.154C123.308 192.167 123.376 192.167 123.437 192.179C123.579 192.197 123.714 192.21 123.855 192.228C123.923 192.234 123.99 192.247 124.058 192.253C124.119 192.253 124.187 192.253 124.248 192.265C124.389 192.277 124.531 192.283 124.672 192.29C124.746 192.29 124.813 192.302 124.887 192.302C124.942 192.302 125.004 192.302 125.059 192.302C125.212 192.302 125.366 192.302 125.52 192.302C125.593 192.302 125.673 192.302 125.747 192.302C125.79 192.302 125.839 192.296 125.882 192.296C126.072 192.29 126.263 192.271 126.453 192.259C126.527 192.253 126.607 192.253 126.68 192.247C126.705 192.247 126.723 192.24 126.748 192.234C127.067 192.204 127.387 192.154 127.706 192.099C127.725 192.099 127.737 192.099 127.755 192.093C127.847 192.075 127.933 192.056 128.025 192.038C128.179 192.007 128.339 191.976 128.492 191.94C128.603 191.915 128.713 191.878 128.824 191.854C128.971 191.817 129.113 191.774 129.26 191.731C129.291 191.718 129.321 191.712 129.352 191.706C129.401 191.688 129.45 191.669 129.5 191.651C129.727 191.571 129.948 191.491 130.163 191.399C130.243 191.368 130.323 191.331 130.402 191.295C130.679 191.172 130.943 191.043 131.195 190.895L142.662 184.231C142.699 184.213 142.729 184.188 142.766 184.17C142.846 184.121 142.907 184.072 142.981 184.029C143.086 183.961 143.19 183.894 143.282 183.826C143.368 183.765 143.442 183.703 143.515 183.642C143.601 183.574 143.694 183.5 143.773 183.427C143.792 183.415 143.81 183.396 143.823 183.384C143.853 183.353 143.878 183.322 143.909 183.292C144.038 183.169 144.154 183.04 144.265 182.911C144.289 182.88 144.32 182.856 144.345 182.825C144.369 182.794 144.381 182.77 144.4 182.739C144.474 182.641 144.535 182.542 144.596 182.444C144.621 182.401 144.658 182.364 144.676 182.321C144.689 182.303 144.695 182.278 144.707 182.26C144.756 182.174 144.793 182.088 144.83 181.996C144.854 181.947 144.879 181.897 144.904 181.842C144.91 181.824 144.91 181.805 144.916 181.793C144.947 181.707 144.965 181.627 144.99 181.541C145.002 181.486 145.026 181.431 145.039 181.369C145.039 181.357 145.039 181.339 145.039 181.326C145.057 181.24 145.063 181.148 145.069 181.062C145.069 181.007 145.088 180.945 145.088 180.89C145.088 180.866 145.088 180.841 145.088 180.816L145.112 171.131L145.125 171.106Z" fill="#F9FAFB" stroke="#0B1742" stroke-width="0.8" stroke-linejoin="round"/>
<path d="M142.637 167.635C145.929 169.539 145.954 172.617 142.686 174.514L131.219 181.178C127.946 183.082 122.627 183.082 119.335 181.178L107.794 174.514C104.502 172.61 104.49 169.533 107.763 167.635L119.23 160.971C122.504 159.067 127.811 159.067 131.103 160.971L142.643 167.635H142.637Z" fill="white" stroke="#0B1742" stroke-width="0.8" stroke-linejoin="round"/>
<path d="M166.284 250.14C166.284 250.22 166.271 250.306 166.265 250.386C166.259 250.472 166.253 250.564 166.235 250.65C166.222 250.724 166.198 250.791 166.179 250.865C166.155 250.951 166.136 251.031 166.106 251.117C166.081 251.184 166.05 251.252 166.02 251.319C165.983 251.405 165.946 251.491 165.897 251.584C165.866 251.645 165.823 251.706 165.786 251.768C165.725 251.866 165.663 251.964 165.59 252.063C165.547 252.118 165.498 252.173 165.455 252.235C165.344 252.364 165.227 252.493 165.098 252.615C165.049 252.658 165.006 252.708 164.957 252.751C164.877 252.824 164.785 252.892 164.699 252.966C164.619 253.027 164.546 253.088 164.466 253.15C164.374 253.217 164.269 253.285 164.165 253.352C164.06 253.42 163.962 253.494 163.845 253.555L152.378 260.219C152.127 260.367 151.862 260.496 151.586 260.618C151.506 260.655 151.426 260.686 151.346 260.723C151.132 260.815 150.91 260.895 150.683 260.975C150.603 260.999 150.523 261.03 150.444 261.061C150.302 261.104 150.155 261.147 150.014 261.183C149.903 261.214 149.793 261.245 149.682 261.269C149.528 261.306 149.375 261.337 149.215 261.368C149.111 261.386 149.006 261.411 148.896 261.429C148.583 261.484 148.263 261.527 147.938 261.564C147.839 261.577 147.735 261.583 147.637 261.589C147.446 261.607 147.262 261.62 147.072 261.626C146.949 261.626 146.826 261.632 146.709 261.638C146.556 261.638 146.402 261.638 146.249 261.638C146.12 261.638 145.991 261.638 145.862 261.626C145.72 261.626 145.579 261.613 145.438 261.601C145.309 261.595 145.18 261.583 145.051 261.57C144.91 261.558 144.768 261.54 144.627 261.521C144.504 261.503 144.375 261.491 144.253 261.466C144.105 261.441 143.952 261.417 143.804 261.386C143.687 261.362 143.571 261.343 143.454 261.319C143.276 261.282 143.104 261.239 142.932 261.19C142.834 261.165 142.742 261.14 142.643 261.11C142.336 261.018 142.035 260.919 141.74 260.803C141.599 260.747 141.458 260.686 141.317 260.625C141.243 260.594 141.169 260.563 141.096 260.526C140.887 260.428 140.678 260.317 140.481 260.207L128.941 253.543C127.491 252.708 126.68 251.645 126.502 250.552C126.478 250.398 126.465 250.239 126.465 250.085L126.441 259.771C126.441 261.024 127.264 262.277 128.916 263.229L140.457 269.893C140.653 270.009 140.862 270.114 141.071 270.212C141.139 270.243 141.218 270.274 141.286 270.304C141.409 270.36 141.538 270.421 141.667 270.47C141.679 270.47 141.697 270.482 141.716 270.488C142.011 270.599 142.312 270.703 142.619 270.796C142.643 270.802 142.668 270.814 142.692 270.82C142.76 270.839 142.834 270.857 142.907 270.875C143.079 270.918 143.251 270.968 143.43 271.004C143.479 271.017 143.522 271.029 143.571 271.041C143.638 271.054 143.712 271.066 143.78 271.078C143.927 271.109 144.074 271.133 144.222 271.158C144.283 271.17 144.339 271.183 144.4 271.189C144.468 271.201 144.535 271.201 144.596 271.213C144.738 271.232 144.873 271.244 145.014 271.262C145.082 271.269 145.149 271.281 145.217 271.287C145.278 271.287 145.346 271.287 145.407 271.299C145.548 271.312 145.69 271.318 145.831 271.324C145.905 271.324 145.972 271.336 146.046 271.336C146.101 271.336 146.163 271.336 146.218 271.336C146.372 271.336 146.525 271.336 146.679 271.336C146.752 271.336 146.832 271.336 146.906 271.336C146.949 271.336 146.998 271.33 147.041 271.33C147.231 271.324 147.422 271.305 147.612 271.293C147.686 271.287 147.766 271.287 147.839 271.281C147.864 271.281 147.882 271.275 147.907 271.269C148.226 271.238 148.546 271.189 148.865 271.133C148.884 271.133 148.896 271.133 148.914 271.127C149.006 271.109 149.092 271.09 149.185 271.072C149.338 271.041 149.498 271.011 149.651 270.974C149.762 270.949 149.872 270.912 149.983 270.888C150.13 270.851 150.272 270.808 150.419 270.765C150.45 270.753 150.48 270.746 150.511 270.74C150.56 270.722 150.609 270.703 150.659 270.685C150.886 270.605 151.107 270.525 151.322 270.433C151.402 270.402 151.482 270.366 151.561 270.329C151.838 270.206 152.102 270.077 152.354 269.93L163.821 263.266C163.858 263.247 163.888 263.223 163.925 263.204C164.005 263.155 164.066 263.106 164.14 263.063C164.245 262.995 164.349 262.928 164.441 262.86C164.527 262.799 164.601 262.737 164.675 262.676C164.76 262.608 164.853 262.535 164.932 262.461C164.951 262.449 164.969 262.43 164.982 262.418C165.012 262.387 165.037 262.357 165.068 262.326C165.197 262.203 165.313 262.074 165.424 261.945C165.448 261.914 165.479 261.89 165.504 261.859C165.528 261.828 165.541 261.804 165.559 261.773C165.633 261.675 165.694 261.577 165.755 261.478C165.78 261.435 165.817 261.398 165.835 261.355C165.848 261.337 165.854 261.312 165.866 261.294C165.915 261.208 165.952 261.122 165.989 261.03C166.013 260.981 166.038 260.932 166.063 260.876C166.069 260.858 166.069 260.839 166.075 260.827C166.106 260.741 166.124 260.661 166.149 260.575C166.161 260.52 166.185 260.465 166.198 260.403C166.198 260.391 166.198 260.373 166.198 260.36C166.216 260.274 166.222 260.182 166.228 260.096C166.228 260.041 166.247 259.98 166.247 259.924C166.247 259.9 166.247 259.875 166.247 259.851L166.271 250.165L166.284 250.14Z" fill="#F9FAFB" stroke="#0B1742" stroke-width="0.8" stroke-linejoin="round"/>
<path d="M163.802 246.676C167.094 248.58 167.119 251.658 163.851 253.555L152.384 260.219C149.111 262.123 143.792 262.123 140.5 260.219L128.959 253.555C125.667 251.651 125.655 248.574 128.928 246.676L140.395 240.012C143.669 238.108 148.976 238.108 152.268 240.012L163.808 246.676H163.802Z" fill="white" stroke="#0B1742" stroke-width="0.8" stroke-linejoin="round"/>
<path d="M292.347 255.029C292.347 255.109 292.335 255.195 292.328 255.275C292.322 255.361 292.316 255.453 292.298 255.539C292.285 255.613 292.261 255.68 292.242 255.754C292.218 255.84 292.199 255.92 292.169 256.006C292.144 256.074 292.113 256.141 292.083 256.209C292.046 256.295 292.009 256.381 291.96 256.473C291.929 256.534 291.886 256.596 291.849 256.657C291.788 256.755 291.726 256.854 291.653 256.952C291.61 257.007 291.561 257.062 291.518 257.124C291.407 257.253 291.29 257.382 291.161 257.505C291.112 257.548 291.069 257.597 291.02 257.64C290.94 257.713 290.848 257.781 290.762 257.855C290.682 257.916 290.609 257.978 290.529 258.039C290.437 258.107 290.332 258.174 290.228 258.242C290.123 258.309 290.025 258.383 289.908 258.444L278.441 265.108C278.19 265.256 277.926 265.385 277.649 265.508C277.569 265.544 277.489 265.575 277.41 265.612C277.195 265.704 276.974 265.784 276.746 265.864C276.666 265.888 276.587 265.919 276.507 265.95C276.365 265.993 276.218 266.036 276.077 266.073C275.966 266.103 275.856 266.134 275.745 266.159C275.592 266.195 275.438 266.226 275.278 266.257C275.174 266.275 275.07 266.3 274.959 266.318C274.646 266.374 274.326 266.417 274.001 266.453C273.903 266.466 273.798 266.472 273.7 266.478C273.509 266.496 273.325 266.509 273.135 266.515C273.012 266.515 272.889 266.521 272.772 266.527C272.619 266.527 272.465 266.527 272.312 266.527C272.183 266.527 272.054 266.527 271.925 266.515C271.784 266.515 271.642 266.503 271.501 266.49C271.372 266.484 271.243 266.472 271.114 266.46C270.973 266.447 270.832 266.429 270.69 266.41C270.567 266.392 270.438 266.38 270.316 266.355C270.168 266.331 270.015 266.306 269.867 266.275C269.751 266.251 269.634 266.232 269.517 266.208C269.339 266.171 269.167 266.128 268.995 266.079C268.897 266.054 268.805 266.03 268.706 265.999C268.399 265.907 268.098 265.809 267.804 265.692C267.662 265.637 267.521 265.575 267.38 265.514C267.306 265.483 267.232 265.452 267.159 265.415C266.95 265.317 266.741 265.207 266.544 265.096L255.004 258.432C253.554 257.597 252.744 256.534 252.565 255.441C252.541 255.287 252.529 255.128 252.529 254.974L252.504 264.66C252.504 265.913 253.327 267.166 254.979 268.118L266.52 274.782C266.716 274.899 266.925 275.003 267.134 275.101C267.202 275.132 267.282 275.163 267.349 275.193C267.472 275.249 267.601 275.31 267.73 275.359C267.742 275.359 267.761 275.372 267.779 275.378C268.074 275.488 268.375 275.593 268.682 275.685C268.706 275.691 268.731 275.703 268.756 275.709C268.823 275.728 268.897 275.746 268.971 275.765C269.143 275.808 269.315 275.857 269.493 275.894C269.542 275.906 269.585 275.918 269.634 275.93C269.701 275.943 269.775 275.955 269.843 275.967C269.99 275.998 270.138 276.023 270.285 276.047C270.346 276.059 270.402 276.072 270.463 276.078C270.531 276.09 270.598 276.09 270.66 276.102C270.801 276.121 270.936 276.133 271.077 276.152C271.145 276.158 271.212 276.17 271.28 276.176C271.341 276.176 271.409 276.176 271.47 276.188C271.612 276.201 271.753 276.207 271.894 276.213C271.968 276.213 272.035 276.225 272.109 276.225C272.164 276.225 272.226 276.225 272.281 276.225C272.435 276.225 272.588 276.225 272.742 276.225C272.815 276.225 272.895 276.225 272.969 276.225C273.012 276.225 273.061 276.219 273.104 276.219C273.295 276.213 273.485 276.195 273.675 276.182C273.749 276.176 273.829 276.176 273.903 276.17C273.927 276.17 273.946 276.164 273.97 276.158C274.289 276.127 274.609 276.078 274.928 276.023C274.947 276.023 274.959 276.023 274.977 276.016C275.07 275.998 275.156 275.98 275.248 275.961C275.401 275.93 275.561 275.9 275.714 275.863C275.825 275.838 275.936 275.801 276.046 275.777C276.193 275.74 276.335 275.697 276.482 275.654C276.513 275.642 276.544 275.636 276.574 275.629C276.623 275.611 276.673 275.593 276.722 275.574C276.949 275.494 277.17 275.415 277.385 275.322C277.465 275.292 277.545 275.255 277.625 275.218C277.901 275.095 278.165 274.966 278.417 274.819L289.884 268.155C289.921 268.136 289.951 268.112 289.988 268.093C290.068 268.044 290.13 267.995 290.203 267.952C290.308 267.884 290.412 267.817 290.504 267.749C290.59 267.688 290.664 267.627 290.738 267.565C290.824 267.498 290.916 267.424 290.996 267.35C291.014 267.338 291.032 267.319 291.045 267.307C291.075 267.276 291.1 267.246 291.131 267.215C291.26 267.092 291.376 266.963 291.487 266.834C291.511 266.804 291.542 266.779 291.567 266.748C291.591 266.718 291.604 266.693 291.622 266.662C291.696 266.564 291.757 266.466 291.819 266.367C291.843 266.324 291.88 266.288 291.898 266.245C291.911 266.226 291.917 266.202 291.929 266.183C291.978 266.097 292.015 266.011 292.052 265.919C292.077 265.87 292.101 265.821 292.126 265.766C292.132 265.747 292.132 265.729 292.138 265.716C292.169 265.63 292.187 265.551 292.212 265.465C292.224 265.409 292.249 265.354 292.261 265.293C292.261 265.28 292.261 265.262 292.261 265.25C292.279 265.164 292.285 265.071 292.292 264.985C292.292 264.93 292.31 264.869 292.31 264.814C292.31 264.789 292.31 264.764 292.31 264.74L292.335 255.054L292.347 255.029Z" fill="#F9FAFB" stroke="#0B1742" stroke-width="0.8" stroke-linejoin="round"/>
<path d="M289.865 251.559C293.158 253.463 293.182 256.54 289.915 258.438L278.448 265.102C275.174 267.006 269.855 267.006 266.563 265.102L255.022 258.438C251.73 256.534 251.718 253.457 254.991 251.559L266.459 244.895C269.732 242.991 275.039 242.991 278.331 244.895L289.872 251.559H289.865Z" fill="white" stroke="#0B1742" stroke-width="0.8" stroke-linejoin="round"/>
<path d="M251.061 128.247C252.541 129.101 252.553 130.489 251.079 131.343L247.265 133.56C245.791 134.414 243.402 134.414 241.922 133.56L238.083 131.343C236.603 130.489 236.596 129.107 238.071 128.247L241.885 126.03C243.359 125.176 245.748 125.176 247.228 126.03L251.067 128.247H251.061Z" fill="#5F38FB"/>
<path d="M131.692 169.122C133.172 169.976 133.185 171.364 131.71 172.218L127.896 174.435C126.422 175.289 124.033 175.289 122.553 174.435L118.714 172.218C117.234 171.364 117.228 169.982 118.702 169.122L122.516 166.905C123.99 166.051 126.379 166.051 127.859 166.905L131.698 169.122H131.692Z" fill="#5F38FB"/>
<path d="M152.673 248.525C154.153 249.379 154.165 250.767 152.691 251.621L148.877 253.838C147.403 254.692 145.014 254.692 143.534 253.838L139.695 251.621C138.215 250.767 138.209 249.385 139.683 248.525L143.497 246.308C144.971 245.454 147.36 245.454 148.84 246.308L152.679 248.525H152.673Z" fill="#5F38FB"/>
<path d="M278.915 253.224C280.395 254.077 280.407 255.466 278.933 256.319L275.119 258.537C273.645 259.39 271.256 259.39 269.776 258.537L265.937 256.319C264.457 255.466 264.451 254.084 265.925 253.224L269.739 251.007C271.213 250.153 273.602 250.153 275.082 251.007L278.921 253.224H278.915Z" fill="#5F38FB"/>
</g>
</g>
<defs>
<filter id="filter0_b_14_909" x="-70" y="-70" width="444" height="424" filterUnits="userSpaceOnUse" color-interpolation-filters="sRGB">
<feFlood flood-opacity="0" result="BackgroundImageFix"/>
<feGaussianBlur in="BackgroundImageFix" stdDeviation="35"/>
<feComposite in2="SourceAlpha" operator="in" result="effect1_backgroundBlur_14_909"/>
<feBlend mode="normal" in="SourceGraphic" in2="effect1_backgroundBlur_14_909" result="shape"/>
</filter>
<linearGradient id="paint0_linear_14_909" x1="173.443" y1="119.356" x2="211.908" y2="274.477" gradientUnits="userSpaceOnUse">
<stop stop-color="#5F38FB"/>
<stop offset="0.164865" stop-color="#6742FB"/>
<stop offset="0.401166" stop-color="#F3F5F8"/>
</linearGradient>
<linearGradient id="paint1_linear_14_909" x1="173.443" y1="119.356" x2="211.908" y2="274.477" gradientUnits="userSpaceOnUse">
<stop stop-color="#5F38FB"/>
<stop offset="0.164865" stop-color="#6742FB"/>
<stop offset="0.401166" stop-color="#F3F5F8"/>
</linearGradient>
<clipPath id="clip0_14_909">
<rect width="304" height="284" rx="16" fill="white"/>
</clipPath>
</defs>
</svg>
