<svg width="54" height="55" viewBox="0 0 54 55" fill="none" xmlns="http://www.w3.org/2000/svg">
<rect y="0.529297" width="54" height="54" rx="8" fill="#F3F5F8"/>
<path fill-rule="evenodd" clip-rule="evenodd" d="M37.261 23.5781L32.9809 30.0052C32.3584 29.8907 31.7167 29.8309 31.0611 29.8309L31.0501 29.8312L31.0396 29.8315C29.992 29.8336 28.9803 29.9883 28.0254 30.2747L23.5659 23.5781L19.166 26.5082L23.5028 33.0205C21.6509 34.9214 20.5101 37.5183 20.5101 40.3819C20.5101 40.3926 20.5105 40.4032 20.5109 40.4138C20.5113 40.4235 20.5116 40.4332 20.5117 40.4429L20.512 40.4537H25.8073L25.807 40.4482L25.8067 40.4429C25.8065 40.4331 25.8058 40.4234 25.8051 40.4137C25.8044 40.4032 25.8036 40.3926 25.8036 40.3819C25.8036 37.4855 28.1459 35.1372 31.0396 35.1255C31.0431 35.1254 31.0467 35.1252 31.0502 35.1249C31.0538 35.1246 31.0574 35.1244 31.0611 35.1244C33.9647 35.1244 36.3186 37.4782 36.3186 40.3819C36.3186 40.3947 36.3177 40.4072 36.3168 40.4197C36.316 40.431 36.3151 40.4423 36.315 40.4537H41.6102C41.6103 40.4423 41.6107 40.431 41.6111 40.4197C41.6116 40.4071 41.6121 40.3946 41.6121 40.3819C41.6121 37.1255 40.1369 34.2137 37.8183 32.2783L41.6609 26.5082L37.261 23.5781Z" fill="#B9C5D4"/>
<path d="M31.0755 35.1318C28.1465 35.1318 25.772 37.5044 25.7681 40.4324H36.3829C36.379 37.5044 34.0045 35.1318 31.0755 35.1318Z" fill="#DCE2EA"/>
<g filter="url(#filter0_b_3542_1364)">
<path fill-rule="evenodd" clip-rule="evenodd" d="M19.8768 21.6299C19.8768 19.6901 21.4493 18.1177 23.389 18.1177C25.3287 18.1177 26.9012 19.6901 26.9012 21.6299C26.9012 23.5696 25.3287 25.1421 23.389 25.1421C21.4493 25.1421 19.8768 23.5696 19.8768 21.6299ZM23.389 14.6055C19.5095 14.6055 16.3646 17.7504 16.3646 21.6299C16.3646 22.8988 16.7011 24.0891 17.2896 25.1165L12.8532 29.5529C12.1674 30.2387 12.1674 31.3506 12.8532 32.0364C13.539 32.7222 14.6509 32.7222 15.3367 32.0364L19.7399 27.6332C20.8034 28.2811 22.0526 28.6542 23.389 28.6542C27.2685 28.6542 30.4134 25.5093 30.4134 21.6299C30.4134 17.7504 27.2685 14.6055 23.389 14.6055Z" fill="#5F38FB"/>
</g>
<defs>
<filter id="filter0_b_3542_1364" x="10.7779" y="13.0445" width="21.1967" height="21.0673" filterUnits="userSpaceOnUse" color-interpolation-filters="sRGB">
<feFlood flood-opacity="0" result="BackgroundImageFix"/>
<feGaussianBlur in="BackgroundImageFix" stdDeviation="0.780488"/>
<feComposite in2="SourceAlpha" operator="in" result="effect1_backgroundBlur_3542_1364"/>
<feBlend mode="normal" in="SourceGraphic" in2="effect1_backgroundBlur_3542_1364" result="shape"/>
</filter>
</defs>
</svg>
