<svg xmlns="http://www.w3.org/2000/svg" width="32" height="32" viewBox="0 0 32 32" fill="none">
  <path fill-rule="evenodd" clip-rule="evenodd" d="M26.261 12.0486L21.9809 18.4756C21.3584 18.3612 20.7167 18.3014 20.0611 18.3014L20.0501 18.3017L20.0396 18.3019C18.992 18.304 17.9803 18.4588 17.0254 18.7451L12.5659 12.0486L8.16602 14.9787L12.5028 21.4909C10.6509 23.3918 9.51014 25.9888 9.51014 28.8523C9.51014 28.863 9.51053 28.8736 9.51092 28.8842C9.51127 28.8939 9.51163 28.9036 9.51169 28.9134L9.51202 28.9242H14.8073L14.807 28.9187L14.8067 28.9134C14.8065 28.9036 14.8058 28.8939 14.8051 28.8842C14.8044 28.8736 14.8036 28.8631 14.8036 28.8523C14.8036 25.956 17.1459 23.6077 20.0396 23.5959C20.0431 23.5959 20.0467 23.5956 20.0502 23.5954C20.0538 23.5951 20.0574 23.5948 20.0611 23.5948C22.9647 23.5948 25.3186 25.9487 25.3186 28.8523C25.3186 28.8651 25.3177 28.8776 25.3168 28.8902C25.316 28.9014 25.3151 28.9127 25.315 28.9242H30.6102C30.6103 28.9128 30.6107 28.9015 30.6111 28.8902C30.6116 28.8776 30.6121 28.865 30.6121 28.8523C30.6121 25.596 29.1369 22.6842 26.8183 20.7488L30.6609 14.9787L26.261 12.0486Z" fill="#B9C5D4"/>
  <path d="M20.0755 23.6019C17.1465 23.6019 14.772 25.9745 14.7681 28.9025H25.3829C25.379 25.9745 23.0045 23.6019 20.0755 23.6019Z" fill="#DCE2EA"/>
  <g filter="url(#filter0_b_3575_3822)">
    <path fill-rule="evenodd" clip-rule="evenodd" d="M8.87681 10.1003C8.87681 8.16059 10.4493 6.58812 12.389 6.58812C14.3287 6.58812 15.9012 8.16059 15.9012 10.1003C15.9012 12.04 14.3287 13.6125 12.389 13.6125C10.4493 13.6125 8.87681 12.04 8.87681 10.1003ZM12.389 3.07593C8.50954 3.07593 5.36461 6.22085 5.36461 10.1003C5.36461 11.3692 5.70106 12.5595 6.28962 13.5869L1.85322 18.0233C1.16742 18.7091 1.16742 19.821 1.85322 20.5068C2.53901 21.1926 3.65091 21.1926 4.33671 20.5068L8.73987 16.1037C9.8034 16.7515 11.0526 17.1247 12.389 17.1247C16.2685 17.1247 19.4134 13.9798 19.4134 10.1003C19.4134 6.22085 16.2685 3.07593 12.389 3.07593Z" fill="#5F38FB"/>
  </g>
  <defs>
    <filter id="filter0_b_3575_3822" x="-0.222108" y="1.51495" width="21.1967" height="21.0671" filterUnits="userSpaceOnUse" color-interpolation-filters="sRGB">
      <feFlood flood-opacity="0" result="BackgroundImageFix"/>
      <feGaussianBlur in="BackgroundImageFix" stdDeviation="0.780488"/>
      <feComposite in2="SourceAlpha" operator="in" result="effect1_backgroundBlur_3575_3822"/>
      <feBlend mode="normal" in="SourceGraphic" in2="effect1_backgroundBlur_3575_3822" result="shape"/>
    </filter>
  </defs>
</svg>