<svg width="54" height="56" viewBox="0 0 54 56" fill="none" xmlns="http://www.w3.org/2000/svg">
<rect width="54" height="54" rx="8" fill="#EAFCF1"/>
<path fill-rule="evenodd" clip-rule="evenodd" d="M37.261 23.0486L32.9809 29.4756C32.3584 29.3612 31.7167 29.3014 31.0611 29.3014L31.0501 29.3017L31.0396 29.3019C29.992 29.304 28.9803 29.4588 28.0254 29.7451L23.5659 23.0486L19.166 25.9787L23.5028 32.4909C21.6509 34.3918 20.5101 36.9888 20.5101 39.8523C20.5101 39.863 20.5105 39.8736 20.5109 39.8842C20.5113 39.8939 20.5116 39.9036 20.5117 39.9134L20.512 39.9242H25.8073L25.807 39.9187L25.8067 39.9134C25.8065 39.9036 25.8058 39.8939 25.8051 39.8842C25.8044 39.8736 25.8036 39.8631 25.8036 39.8523C25.8036 36.956 28.1459 34.6077 31.0396 34.5959C31.0431 34.5959 31.0467 34.5956 31.0502 34.5954C31.0538 34.5951 31.0574 34.5948 31.0611 34.5948C33.9647 34.5948 36.3186 36.9487 36.3186 39.8523C36.3186 39.8651 36.3177 39.8776 36.3168 39.8902C36.316 39.9014 36.3151 39.9127 36.315 39.9242H41.6102C41.6103 39.9128 41.6107 39.9015 41.6111 39.8902C41.6116 39.8776 41.6121 39.865 41.6121 39.8523C41.6121 36.596 40.1369 33.6842 37.8183 31.7488L41.6609 25.9787L37.261 23.0486Z" fill="#C9F8DC"/>
<g filter="url(#filter0_bd_3308_1342)">
<path d="M31.0755 34.6019C28.1465 34.6019 25.772 36.9745 25.7681 39.9025H36.3829C36.379 36.9745 34.0045 34.6019 31.0755 34.6019Z" fill="url(#paint0_linear_3308_1342)" shape-rendering="crispEdges"/>
<path d="M25.9671 39.7074C26.0734 36.9776 28.3197 34.7971 31.0755 34.7971C33.8313 34.7971 36.0777 36.9776 36.1839 39.7074H25.9671Z" stroke="url(#paint1_linear_3308_1342)" stroke-width="0.390244" shape-rendering="crispEdges"/>
</g>
<g filter="url(#filter1_b_3308_1342)">
<mask id="path-5-inside-1_3308_1342" fill="white">
<path fill-rule="evenodd" clip-rule="evenodd" d="M19.8769 21.1003C19.8769 19.1606 21.4493 17.5881 23.3891 17.5881C25.3288 17.5881 26.9013 19.1606 26.9013 21.1003C26.9013 23.04 25.3288 24.6125 23.3891 24.6125C21.4493 24.6125 19.8769 23.04 19.8769 21.1003ZM23.3891 14.0759C19.5096 14.0759 16.3647 17.2209 16.3647 21.1003C16.3647 22.3692 16.7011 23.5595 17.2897 24.5869L12.8533 29.0233C12.1675 29.7091 12.1675 30.821 12.8533 31.5068C13.5391 32.1926 14.651 32.1926 15.3368 31.5068L19.7399 27.1037C20.8035 27.7515 22.0527 28.1247 23.3891 28.1247C27.2685 28.1247 30.4135 24.9798 30.4135 21.1003C30.4135 17.2209 27.2685 14.0759 23.3891 14.0759Z"/>
</mask>
<path fill-rule="evenodd" clip-rule="evenodd" d="M19.8769 21.1003C19.8769 19.1606 21.4493 17.5881 23.3891 17.5881C25.3288 17.5881 26.9013 19.1606 26.9013 21.1003C26.9013 23.04 25.3288 24.6125 23.3891 24.6125C21.4493 24.6125 19.8769 23.04 19.8769 21.1003ZM23.3891 14.0759C19.5096 14.0759 16.3647 17.2209 16.3647 21.1003C16.3647 22.3692 16.7011 23.5595 17.2897 24.5869L12.8533 29.0233C12.1675 29.7091 12.1675 30.821 12.8533 31.5068C13.5391 32.1926 14.651 32.1926 15.3368 31.5068L19.7399 27.1037C20.8035 27.7515 22.0527 28.1247 23.3891 28.1247C27.2685 28.1247 30.4135 24.9798 30.4135 21.1003C30.4135 17.2209 27.2685 14.0759 23.3891 14.0759Z" fill="url(#paint2_linear_3308_1342)"/>
<path d="M17.2897 24.5869L17.5656 24.8629L17.7766 24.6519L17.6283 24.3929L17.2897 24.5869ZM12.8533 29.0233L12.5773 28.7474L12.5773 28.7474L12.8533 29.0233ZM12.8533 31.5068L13.1292 31.2309H13.1292L12.8533 31.5068ZM15.3368 31.5068L15.0608 31.2309L15.3368 31.5068ZM19.7399 27.1037L19.9429 26.7704L19.6809 26.6108L19.464 26.8277L19.7399 27.1037ZM23.3891 17.1979C21.2338 17.1979 19.4866 18.9451 19.4866 21.1003H20.2671C20.2671 19.3761 21.6649 17.9784 23.3891 17.9784V17.1979ZM27.2915 21.1003C27.2915 18.9451 25.5443 17.1979 23.3891 17.1979V17.9784C25.1133 17.9784 26.511 19.3761 26.511 21.1003H27.2915ZM23.3891 25.0028C25.5443 25.0028 27.2915 23.2556 27.2915 21.1003H26.511C26.511 22.8245 25.1133 24.2223 23.3891 24.2223V25.0028ZM19.4866 21.1003C19.4866 23.2556 21.2338 25.0028 23.3891 25.0028V24.2223C21.6649 24.2223 20.2671 22.8245 20.2671 21.1003H19.4866ZM16.7549 21.1003C16.7549 17.4364 19.7251 14.4662 23.3891 14.4662V13.6857C19.2941 13.6857 15.9744 17.0053 15.9744 21.1003H16.7549ZM17.6283 24.3929C17.0727 23.423 16.7549 22.2994 16.7549 21.1003H15.9744C15.9744 22.4391 16.3296 23.696 16.9511 24.7809L17.6283 24.3929ZM13.1292 29.2993L17.5656 24.8629L17.0137 24.311L12.5773 28.7474L13.1292 29.2993ZM13.1292 31.2309C12.5958 30.6975 12.5958 29.8327 13.1292 29.2993L12.5773 28.7474C11.7391 29.5856 11.7391 30.9446 12.5773 31.7828L13.1292 31.2309ZM15.0608 31.2309C14.5274 31.7643 13.6626 31.7643 13.1292 31.2309L12.5773 31.7828C13.4155 32.621 14.7745 32.621 15.6127 31.7828L15.0608 31.2309ZM19.464 26.8277L15.0608 31.2309L15.6127 31.7828L20.0159 27.3796L19.464 26.8277ZM23.3891 27.7345C22.1263 27.7345 20.947 27.382 19.9429 26.7704L19.5369 27.4369C20.6599 28.121 21.9791 28.515 23.3891 28.515V27.7345ZM30.0232 21.1003C30.0232 24.7643 27.053 27.7345 23.3891 27.7345V28.515C27.4841 28.515 30.8037 25.1953 30.8037 21.1003H30.0232ZM23.3891 14.4662C27.053 14.4662 30.0232 17.4364 30.0232 21.1003H30.8037C30.8037 17.0053 27.4841 13.6857 23.3891 13.6857V14.4662Z" fill="url(#paint3_linear_3308_1342)" mask="url(#path-5-inside-1_3308_1342)"/>
</g>
<defs>
<filter id="filter0_bd_3308_1342" x="17.9632" y="26.7971" width="34.0295" height="28.7153" filterUnits="userSpaceOnUse" color-interpolation-filters="sRGB">
<feFlood flood-opacity="0" result="BackgroundImageFix"/>
<feGaussianBlur in="BackgroundImageFix" stdDeviation="3.90244"/>
<feComposite in2="SourceAlpha" operator="in" result="effect1_backgroundBlur_3308_1342"/>
<feColorMatrix in="SourceAlpha" type="matrix" values="0 0 0 0 0 0 0 0 0 0 0 0 0 0 0 0 0 0 127 0" result="hardAlpha"/>
<feOffset dx="3.90244" dy="3.90244"/>
<feGaussianBlur stdDeviation="5.85366"/>
<feComposite in2="hardAlpha" operator="out"/>
<feColorMatrix type="matrix" values="0 0 0 0 0.0196078 0 0 0 0 0.6 0 0 0 0 0.290196 0 0 0 0.3 0"/>
<feBlend mode="normal" in2="effect1_backgroundBlur_3308_1342" result="effect2_dropShadow_3308_1342"/>
<feBlend mode="normal" in="SourceGraphic" in2="effect2_dropShadow_3308_1342" result="shape"/>
</filter>
<filter id="filter1_b_3308_1342" x="10.778" y="12.515" width="21.1965" height="21.0671" filterUnits="userSpaceOnUse" color-interpolation-filters="sRGB">
<feFlood flood-opacity="0" result="BackgroundImageFix"/>
<feGaussianBlur in="BackgroundImageFix" stdDeviation="0.780488"/>
<feComposite in2="SourceAlpha" operator="in" result="effect1_backgroundBlur_3308_1342"/>
<feBlend mode="normal" in="SourceGraphic" in2="effect1_backgroundBlur_3308_1342" result="shape"/>
</filter>
<linearGradient id="paint0_linear_3308_1342" x1="25.9734" y1="34.6019" x2="30.3686" y2="43.764" gradientUnits="userSpaceOnUse">
<stop offset="0.182224" stop-color="#2DE376" stop-opacity="0.5"/>
<stop offset="0.640234" stop-color="#2DE376" stop-opacity="0.9"/>
</linearGradient>
<linearGradient id="paint1_linear_3308_1342" x1="25.7681" y1="33.9851" x2="29.5041" y2="42.8905" gradientUnits="userSpaceOnUse">
<stop offset="0.249921" stop-color="#2DE376"/>
<stop offset="0.470896" stop-color="#2DE376" stop-opacity="0"/>
<stop offset="0.816545" stop-color="#35C168"/>
</linearGradient>
<linearGradient id="paint2_linear_3308_1342" x1="25.0356" y1="45.3694" x2="15.2934" y2="5.59845" gradientUnits="userSpaceOnUse">
<stop offset="0.0822725" stop-color="#8566FF" stop-opacity="0.3"/>
<stop offset="0.423605" stop-color="#5F38FB" stop-opacity="0.5"/>
<stop offset="0.762303" stop-color="#5F38FB" stop-opacity="0.7"/>
</linearGradient>
<linearGradient id="paint3_linear_3308_1342" x1="21.3762" y1="53.3784" x2="19.0472" y2="0.0864873" gradientUnits="userSpaceOnUse">
<stop offset="0.137498" stop-color="#AF9BFD"/>
<stop offset="0.410212" stop-color="#5F38FB" stop-opacity="0"/>
<stop offset="0.835001" stop-color="#5F38FB"/>
</linearGradient>
</defs>
</svg>
