<svg xmlns="http://www.w3.org/2000/svg" width="44" height="47" viewBox="0 0 44 47" fill="none">
  <path fill-rule="evenodd" clip-rule="evenodd" d="M12.1864 20.993L7.45312 13.8852L12.2548 10.6875L17.1218 17.9959C18.1641 17.6833 19.2686 17.5143 20.4122 17.512L20.4237 17.5117C20.4277 17.5115 20.4317 17.5114 20.4357 17.5114C21.1501 17.5114 21.8493 17.5764 22.5276 17.7009L27.1978 10.688L31.9995 13.8857L27.8077 20.1803C30.3393 22.2925 31.9502 25.4712 31.9502 29.026C31.9502 29.0399 31.9497 29.0536 31.9492 29.0673C31.9488 29.0797 31.9483 29.092 31.9482 29.1044H26.1694C26.1696 29.0919 26.1705 29.0796 26.1714 29.0673C26.1724 29.0537 26.1734 29.04 26.1734 29.026C26.1734 25.8572 23.6045 23.2883 20.4357 23.2883C20.4317 23.2883 20.4277 23.2886 20.4238 23.2889C20.42 23.2892 20.4161 23.2895 20.4122 23.2895C17.2543 23.3023 14.698 25.8651 14.698 29.026C14.698 29.0378 14.6989 29.0493 14.6997 29.0608C14.7005 29.0714 14.7013 29.0819 14.7014 29.0927L14.7018 29.0985L14.7021 29.1044H8.92323L8.92287 29.0927C8.92281 29.082 8.92242 29.0714 8.92203 29.0608C8.9216 29.0493 8.92118 29.0377 8.92118 29.026C8.92118 25.9013 10.1658 23.0674 12.1864 20.993Z" fill="#D2F9E2"/>
  <g filter="url(#filter0_bd_2359_8519)">
    <path d="M20.4484 23.2949C17.2519 23.2949 14.6605 25.8842 14.6562 29.0797H26.2405C26.2363 25.8842 23.6449 23.2949 20.4484 23.2949Z" fill="url(#paint0_linear_2359_8519)" shape-rendering="crispEdges"/>
    <path d="M14.8735 28.8668C14.9894 25.8876 17.4409 23.5079 20.4484 23.5079C23.4559 23.5079 25.9074 25.8876 26.0233 28.8668H14.8735Z" stroke="url(#paint1_linear_2359_8519)" stroke-width="0.425886" shape-rendering="crispEdges"/>
  </g>
  <mask id="path-4-inside-1_2359_8519" fill="white">
    <path fill-rule="evenodd" clip-rule="evenodd" d="M8.22748 8.56054C8.22748 6.44363 9.94354 4.72753 12.0604 4.72753C14.1773 4.72753 15.8934 6.44363 15.8934 8.56054C15.8934 10.6774 14.1773 12.3935 12.0604 12.3935C9.94354 12.3935 8.22748 10.6774 8.22748 8.56054ZM12.0604 0.894531C7.82667 0.894531 4.39453 4.32672 4.39453 8.56054C4.39453 9.94506 4.76156 11.2439 5.40364 12.3649L0.561323 17.2073C-0.187107 17.9558 -0.187108 19.1692 0.561321 19.9177C1.30975 20.6661 2.52319 20.6661 3.27162 19.9177L8.07738 15.1118C9.23818 15.8191 10.6017 16.2265 12.0604 16.2265C16.2942 16.2265 19.7263 12.7944 19.7263 8.56054C19.7263 4.32672 16.2942 0.894531 12.0604 0.894531Z"/>
  </mask>
  <path fill-rule="evenodd" clip-rule="evenodd" d="M8.22748 8.56054C8.22748 6.44363 9.94354 4.72753 12.0604 4.72753C14.1773 4.72753 15.8934 6.44363 15.8934 8.56054C15.8934 10.6774 14.1773 12.3935 12.0604 12.3935C9.94354 12.3935 8.22748 10.6774 8.22748 8.56054ZM12.0604 0.894531C7.82667 0.894531 4.39453 4.32672 4.39453 8.56054C4.39453 9.94506 4.76156 11.2439 5.40364 12.3649L0.561323 17.2073C-0.187107 17.9558 -0.187108 19.1692 0.561321 19.9177C1.30975 20.6661 2.52319 20.6661 3.27162 19.9177L8.07738 15.1118C9.23818 15.8191 10.6017 16.2265 12.0604 16.2265C16.2942 16.2265 19.7263 12.7944 19.7263 8.56054C19.7263 4.32672 16.2942 0.894531 12.0604 0.894531Z" fill="url(#paint2_linear_2359_8519)"/>
  <path d="M5.40364 12.3649L5.70478 12.6661L5.93503 12.4358L5.7732 12.1533L5.40364 12.3649ZM0.561323 17.2073L0.862471 17.5085H0.862472L0.561323 17.2073ZM0.561321 19.9177L0.86247 19.6165H0.86247L0.561321 19.9177ZM3.27162 19.9177L2.97047 19.6165L3.27162 19.9177ZM8.07738 15.1118L8.29898 14.7481L8.01302 14.5739L7.77624 14.8107L8.07738 15.1118ZM12.0604 4.30165C9.70833 4.30165 7.80159 6.20842 7.80159 8.56054H8.65336C8.65336 6.67883 10.1788 5.15342 12.0604 5.15342V4.30165ZM16.3193 8.56054C16.3193 6.20842 14.4125 4.30165 12.0604 4.30165V5.15342C13.9421 5.15342 15.4675 6.67883 15.4675 8.56054H16.3193ZM12.0604 12.8194C14.4125 12.8194 16.3193 10.9126 16.3193 8.56054H15.4675C15.4675 10.4422 13.9421 11.9677 12.0604 11.9677V12.8194ZM7.80159 8.56054C7.80159 10.9126 9.70833 12.8194 12.0604 12.8194V11.9677C10.1788 11.9677 8.65336 10.4422 8.65336 8.56054H7.80159ZM4.82042 8.56054C4.82042 4.56192 8.06188 1.32042 12.0604 1.32042V0.468645C7.59145 0.468645 3.96865 4.09151 3.96865 8.56054H4.82042ZM5.7732 12.1533C5.16705 11.0949 4.82042 9.86886 4.82042 8.56054H3.96865C3.96865 10.0213 4.35607 11.3928 5.03407 12.5766L5.7732 12.1533ZM0.862472 17.5085L5.70478 12.6661L5.10249 12.0638L0.260174 16.9062L0.862472 17.5085ZM0.86247 19.6165C0.280358 19.0344 0.280358 18.0906 0.862471 17.5085L0.260174 16.9062C-0.654572 17.8209 -0.654573 19.3041 0.260172 20.2188L0.86247 19.6165ZM2.97047 19.6165C2.38836 20.1986 1.44458 20.1986 0.86247 19.6165L0.260171 20.2188C1.17492 21.1336 2.65802 21.1336 3.57277 20.2188L2.97047 19.6165ZM7.77624 14.8107L2.97047 19.6165L3.57277 20.2188L8.37853 15.413L7.77624 14.8107ZM12.0604 15.8007C10.6821 15.8007 9.39491 15.4159 8.29898 14.7481L7.85579 15.4755C9.08144 16.2223 10.5214 16.6524 12.0604 16.6524V15.8007ZM19.3004 8.56054C19.3004 12.5591 16.059 15.8007 12.0604 15.8007V16.6524C16.5294 16.6524 20.1522 13.0296 20.1522 8.56054H19.3004ZM12.0604 1.32042C16.059 1.32042 19.3004 4.56192 19.3004 8.56054H20.1522C20.1522 4.09151 16.5294 0.468645 12.0604 0.468645V1.32042Z" fill="url(#paint3_linear_2359_8519)" mask="url(#path-4-inside-1_2359_8519)"/>
  <defs>
    <filter id="filter0_bd_2359_8519" x="6.13853" y="14.7772" width="37.1391" height="31.3383" filterUnits="userSpaceOnUse" color-interpolation-filters="sRGB">
      <feFlood flood-opacity="0" result="BackgroundImageFix"/>
      <feGaussianBlur in="BackgroundImageFix" stdDeviation="4.25886"/>
      <feComposite in2="SourceAlpha" operator="in" result="effect1_backgroundBlur_2359_8519"/>
      <feColorMatrix in="SourceAlpha" type="matrix" values="0 0 0 0 0 0 0 0 0 0 0 0 0 0 0 0 0 0 127 0" result="hardAlpha"/>
      <feOffset dx="4.25886" dy="4.25886"/>
      <feGaussianBlur stdDeviation="6.38829"/>
      <feComposite in2="hardAlpha" operator="out"/>
      <feColorMatrix type="matrix" values="0 0 0 0 0.0196078 0 0 0 0 0.6 0 0 0 0 0.290196 0 0 0 0.3 0"/>
      <feBlend mode="normal" in2="effect1_backgroundBlur_2359_8519" result="effect2_dropShadow_2359_8519"/>
      <feBlend mode="normal" in="SourceGraphic" in2="effect2_dropShadow_2359_8519" result="shape"/>
    </filter>
    <linearGradient id="paint0_linear_2359_8519" x1="14.8804" y1="23.2949" x2="19.677" y2="33.2938" gradientUnits="userSpaceOnUse">
      <stop offset="0.182224" stop-color="#2DE376" stop-opacity="0.5"/>
      <stop offset="0.640234" stop-color="#2DE376" stop-opacity="0.9"/>
    </linearGradient>
    <linearGradient id="paint1_linear_2359_8519" x1="14.6563" y1="22.6218" x2="18.7336" y2="32.3405" gradientUnits="userSpaceOnUse">
      <stop offset="0.249921" stop-color="#2DE376"/>
      <stop offset="0.470896" stop-color="#2DE376" stop-opacity="0"/>
      <stop offset="0.816545" stop-color="#35C168"/>
    </linearGradient>
    <linearGradient id="paint2_linear_2359_8519" x1="13.8569" y1="35.0465" x2="3.2252" y2="-8.35752" gradientUnits="userSpaceOnUse">
      <stop offset="0.0822725" stop-color="#8566FF" stop-opacity="0.3"/>
      <stop offset="0.423605" stop-color="#5F38FB" stop-opacity="0.5"/>
      <stop offset="0.762303" stop-color="#5F38FB" stop-opacity="0.7"/>
    </linearGradient>
    <linearGradient id="paint3_linear_2359_8519" x1="9.86315" y1="43.7872" x2="7.32149" y2="-14.3728" gradientUnits="userSpaceOnUse">
      <stop offset="0.137498" stop-color="#AF9BFD"/>
      <stop offset="0.410212" stop-color="#5F38FB" stop-opacity="0"/>
      <stop offset="0.835001" stop-color="#5F38FB"/>
    </linearGradient>
  </defs>
</svg>