<svg width="215" height="24" viewBox="0 0 215 24" fill="none" xmlns="http://www.w3.org/2000/svg">
<path d="M136.623 7.01453H133.71V22.8551H136.623V7.01453Z" fill="#010E3E"/>
<path d="M103.58 22.8407V13.9421C103.58 11.4204 101.696 9.50735 99.1884 9.50735C97.058 9.50735 94.8841 11.145 94.8841 14.261V22.8552H91.971V1.47836L94.8841 1.46387C94.8841 1.46387 94.8696 8.33343 94.8841 8.31894C95.2754 7.98561 96.7826 6.65227 99.7826 6.65227C103.435 6.65227 106.507 9.69575 106.507 13.3044V22.8407H103.58Z" fill="#010E3E"/>
<path d="M136.623 1.47827H133.71V4.39131H136.623V1.47827Z" fill="#010E3E"/>
<path d="M112.377 19.9131H109.449V22.8406H112.377V19.9131Z" fill="#010E3E"/>
<path d="M22.5942 11C22.7971 11.2898 22.8985 11.6376 22.8985 12C22.8985 12.4782 22.7101 12.9275 22.3768 13.2608C22.0435 13.5942 21.5797 13.7826 21.1159 13.7826C20.7681 13.7826 20.4203 13.6811 20.1159 13.4782C19.8261 13.2753 19.5942 13 19.4637 12.6811C19.3333 12.3478 19.2898 12 19.3623 11.6521C19.4348 11.3043 19.6087 10.9855 19.8551 10.7391C20.1014 10.4927 20.4203 10.3188 20.7681 10.2463C21.1159 10.1739 21.4782 10.2173 21.7971 10.3478C22.1159 10.4637 22.3913 10.6956 22.5942 11Z" fill="#010E3E"/>
<path d="M22.5942 20.0435C22.7971 20.3334 22.8985 20.6812 22.8985 21.0435C22.8985 21.5218 22.7101 21.9711 22.3768 22.3044C22.0435 22.6377 21.5797 22.8261 21.1159 22.8261C20.7681 22.8261 20.4203 22.7247 20.1159 22.5218C19.8261 22.3189 19.5942 22.0435 19.4637 21.7247C19.3333 21.3914 19.2898 21.0435 19.3623 20.6957C19.4348 20.3479 19.6087 20.029 19.8551 19.7827C20.1014 19.5363 20.4203 19.3624 20.7681 19.2899C21.1159 19.2174 21.4782 19.2609 21.7971 19.3914C22.1159 19.5218 22.3913 19.7537 22.5942 20.0435Z" fill="#010E3E"/>
<path d="M22.8986 0.89856H18.6087V5.18841H22.8986V0.89856Z" fill="#010E3E"/>
<path d="M13.6666 20.0435C13.8695 20.3334 13.971 20.6812 13.971 21.0435C13.971 21.5218 13.7826 21.9711 13.4492 22.3044C13.1159 22.6377 12.6521 22.8261 12.1884 22.8261C11.8405 22.8261 11.4927 22.7247 11.1884 22.5218C10.8985 22.3189 10.6666 22.0435 10.5362 21.7247C10.4058 21.3914 10.3623 21.0435 10.4347 20.6957C10.5072 20.3479 10.6811 20.029 10.9275 19.7827C11.1739 19.5363 11.4927 19.3624 11.8405 19.2899C12.1884 19.2174 12.5507 19.2609 12.8695 19.3914C13.2029 19.5218 13.4782 19.7537 13.6666 20.0435Z" fill="#010E3E"/>
<path d="M14.3333 9.84058H10.0435V14.1304H14.3333V9.84058Z" fill="#010E3E"/>
<path d="M14.4493 0.89856H9.91302V5.43479H14.4493V0.89856Z" fill="#010E3E"/>
<path d="M5.75359 0.89856H0.985474V5.66668H5.75359V0.89856Z" fill="#010E3E"/>
<path d="M5.26086 18.5363H0.971008V22.8261H5.26086V18.5363Z" fill="#010E3E"/>
<path d="M5.50724 9.72461H0.971008V14.2608H5.50724V9.72461Z" fill="#010E3E"/>
<path d="M40.9275 3.49281C42.2029 3.5073 42.7246 4.44933 42.7246 4.44933L44.5507 2.60875C43.4783 1.44933 42.1739 0.811646 40.8406 0.811646C39.5362 0.811646 38.4638 1.23194 37.6522 2.04353C36.8261 2.86962 36.4203 3.92759 36.4203 5.20295V7.01454H33.9276V9.52179H36.4058V22.8551H39.3189V9.52179H41.3044H44.5507V7.01454H40.1449H39.3333V5.20295C39.3333 4.15947 39.8986 3.56527 40.9275 3.49281Z" fill="#010E3E"/>
<path d="M83.4638 20.3334C80.3189 20.3334 78.029 18.058 78.029 14.9421C78.029 11.8696 80.3768 9.53628 83.5073 9.53628C85.2319 9.53628 86.5942 10.5363 87.1739 11.0435L89.1594 9.05802C88.5942 8.50729 86.4638 6.65222 83.3623 6.65222C78.6957 6.65222 75.058 10.2899 75.058 14.9276C75.058 19.5508 78.7102 23.174 83.3768 23.174C86.3478 23.174 88.3623 21.5508 89.1594 20.7537L87.2174 18.8406C86.5073 19.5073 85.2464 20.3334 83.4638 20.3334Z" fill="#010E3E"/>
<path d="M70.0869 20.5074C69.1159 20.5074 68.3768 19.8552 68.3768 17.9566V9.52184H73.5942V7.0146H68.3768V3.78271H65.4637V17.9566C65.4637 21.5363 67.1159 23.1595 70.0435 23.1595C71.1304 23.1595 72.4782 22.7247 73.6522 21.7537L71.8116 19.9131C71.3623 20.3045 70.7391 20.5074 70.0869 20.5074Z" fill="#010E3E"/>
<path d="M54.3188 20.2754C51.4927 20.2754 49.4492 18.203 49.0434 16.0581H60.7681H62.4637C62.5072 15.6957 62.5362 15.3189 62.5362 14.9421C62.5362 10.3769 58.8261 6.66675 54.2608 6.66675C49.6956 6.66675 45.9855 10.3769 45.9855 14.9421C45.9855 19.5073 49.6956 23.2175 54.2608 23.2175C57 23.2175 59.2753 22.232 60.8261 20.7102L59.0145 18.6667C57.7536 19.7537 56.1739 20.2754 54.3188 20.2754ZM54.3188 9.52182C56.9565 9.52182 58.884 11.3479 59.4348 13.5508H49.0869C49.6811 11.2465 51.6521 9.52182 54.3188 9.52182Z" fill="#010E3E"/>
<path d="M127.203 7.01454V8.72469C127.203 8.72469 125.29 6.65222 121.942 6.65222C117.391 6.65222 113.681 10.3189 113.681 14.8261C113.681 19.5073 117.246 23.174 121.812 23.174C125.609 23.174 127.203 21.087 127.203 21.087V22.8261H130.116V7.01454H127.203ZM122.203 20.3334C122.116 20.3334 122.014 20.3479 121.913 20.3479C120.42 20.3479 119.072 19.7392 118.087 18.7537C117.101 17.7682 116.493 16.4203 116.493 14.9131C116.493 11.9131 118.928 9.4928 121.942 9.4928C124.957 9.4928 127.391 11.9131 127.391 14.9131C127.391 17.8261 125.087 20.1885 122.203 20.3334Z" fill="#010E3E"/>
<path d="M197.203 18.8262L199.13 20.7537C198.333 21.5508 196.333 23.1595 193.362 23.1595C188.71 23.1595 185.072 19.5508 185.072 14.9276C185.072 10.2899 188.71 6.66675 193.362 6.66675C196.449 6.66675 198.58 8.50733 199.145 9.07254L197.159 11.0581C196.58 10.5508 195.217 9.55081 193.507 9.55081C190.391 9.55081 188.043 11.8696 188.043 14.9421C188.043 18.0581 190.319 20.3334 193.464 20.3334C195.246 20.3189 196.493 19.4783 197.203 18.8262Z" fill="#5F38FB"/>
<path d="M213.101 18.5219C213.101 12.7972 204.435 14.29 204.435 11.145C204.435 10.0871 205.406 9.13055 207.333 9.13055C209.478 9.13055 210.942 10.6813 211.319 11.0581L213.058 9.14504C212.638 8.6233 210.261 6.68127 207.174 6.68127C203.667 6.68127 201.493 8.78272 201.493 11.2465C201.493 16.5219 210.217 15.0291 210.217 18.5219C210.217 19.8262 209.029 20.6668 207.435 20.6668C205.377 20.6668 203.319 19.4059 202.71 18.6958L201.087 20.6088C201.956 21.5653 204.565 23.174 207.435 23.174C209.391 23.174 213.101 22.319 213.101 18.5219Z" fill="#5F38FB"/>
<path d="M182.072 14.087C181.841 11.8986 180.768 9.95655 179.159 8.62321C178.188 7.79713 177.014 7.20293 175.725 6.91307C175.667 6.89858 175.623 6.88408 175.565 6.86959C175.493 6.8551 175.406 6.84061 175.333 6.82611C175.159 6.79713 174.985 6.76814 174.812 6.75365C174.754 6.75365 174.71 6.73916 174.652 6.73916C174.551 6.72466 174.449 6.72466 174.348 6.71017C174.246 6.71017 174.13 6.69568 174.029 6.69568C173.985 6.69568 173.942 6.69568 173.884 6.69568C173.87 6.69568 173.855 6.69568 173.855 6.69568C169.304 6.69568 165.609 10.3913 165.609 14.9421C165.609 16.8696 166.275 18.6522 167.391 20.058C168.87 21.971 171.159 23.1884 173.783 23.1884C173.797 23.1884 173.797 23.1884 173.812 23.1884C173.826 23.1884 173.841 23.1884 173.87 23.1884C174.072 23.1884 174.261 23.1739 174.464 23.1594C174.478 23.1594 174.493 23.1594 174.493 23.1594C174.652 23.145 174.812 23.1305 174.971 23.116C176.478 22.9276 177.536 22.4058 178.217 21.9565C178.551 21.7536 178.87 21.5218 179.174 21.2609C180.768 19.9276 181.855 17.9855 182.072 15.7971C182.101 15.5218 182.116 15.2319 182.116 14.9421C182.13 14.6522 182.101 14.3623 182.072 14.087ZM174.174 20.3479C174.087 20.3479 173.985 20.3623 173.884 20.3623C172.391 20.3623 171.043 19.7537 170.058 18.7826C169.072 17.7971 168.464 16.4493 168.464 14.9565C168.464 11.971 170.899 9.55075 173.899 9.55075C176.899 9.55075 179.333 11.971 179.333 14.9565C179.348 17.8406 177.058 20.2029 174.174 20.3479Z" fill="#5F38FB"/>
<path d="M162.696 1.50732H159.783V8.73921C159.783 8.73921 158.188 6.65225 154.377 6.65225C149.812 6.65225 146.232 10.3189 146.232 15.0146C146.232 19.5363 149.942 23.203 154.493 23.203C157.855 23.203 159.768 21.1305 159.768 21.1305V22.8552H162.681C162.696 22.8407 162.696 1.62327 162.696 1.50732ZM154.507 20.3624C151.493 20.3624 149.058 17.9276 149.058 14.9276C149.058 13.4349 149.667 12.0725 150.652 11.087C151.638 10.1015 152.985 9.49283 154.478 9.49283C154.58 9.49283 154.667 9.49283 154.768 9.50732C157.667 9.63776 159.971 12.0146 159.971 14.9276C159.957 17.9276 157.522 20.3624 154.507 20.3624Z" fill="#5F38FB"/>
</svg>
