<svg width="146" height="24" viewBox="0 0 146 24" fill="none" xmlns="http://www.w3.org/2000/svg">
<path d="M145.329 6.64844H142.211V23.6159H145.329V6.64844Z" fill="#0B1742"/>
<path d="M109.934 23.6159V14.0721C109.934 11.3641 107.915 9.32204 105.237 9.32204C102.948 9.32204 100.632 11.0691 100.632 14.4083V23.6159H97.5117V0.72818L100.632 0.716797C100.632 0.716797 100.621 8.07171 100.632 8.06285C101.05 7.71058 102.669 6.27206 105.875 6.27206C109.784 6.27206 113.087 9.53484 113.087 13.3968V23.6159H109.934Z" fill="#0B1742"/>
<path d="M145.329 0.716797H142.211V3.83519H145.329V0.716797Z" fill="#0B1742"/>
<path d="M119.362 20.4805H116.227V23.6155H119.362V20.4805Z" fill="#0B1742"/>
<path d="M23.1707 10.9182C23.3812 11.2334 23.4937 11.604 23.4937 11.983C23.4937 12.4915 23.2917 12.979 22.9322 13.3386C22.5728 13.6978 22.0852 13.8998 21.5769 13.8998C21.1978 13.8998 20.8272 13.7876 20.512 13.5768C20.1968 13.3662 19.9512 13.0669 19.8061 12.7168C19.6609 12.3664 19.6231 11.9812 19.697 11.6091C19.771 11.2374 19.9535 10.8959 20.2216 10.6279C20.4896 10.3598 20.8311 10.1774 21.203 10.1032C21.5748 10.0293 21.9602 10.0672 22.3104 10.2124C22.6606 10.3574 22.9599 10.6031 23.1707 10.9182Z" fill="#0B1742"/>
<path d="M23.1707 20.6174C23.3812 20.9326 23.4937 21.3033 23.4937 21.6823C23.4937 22.1907 23.2917 22.6783 22.9322 23.0378C22.5728 23.397 22.0852 23.599 21.5769 23.599C21.1978 23.599 20.8272 23.4868 20.512 23.276C20.1968 23.0654 19.9512 22.7661 19.8061 22.416C19.6609 22.0657 19.6231 21.6804 19.697 21.3083C19.771 20.9366 19.9535 20.5951 20.2216 20.3271C20.4896 20.0591 20.8311 19.8766 21.203 19.8024C21.5748 19.7285 21.9602 19.7664 22.3104 19.9117C22.6606 20.0566 22.9599 20.3023 23.1707 20.6174Z" fill="#0B1742"/>
<path d="M23.4946 0.105469H18.8945V4.70554H23.4946V0.105469Z" fill="#0B1742"/>
<path d="M13.6121 20.6174C13.8227 20.9326 13.9351 21.3033 13.9351 21.6823C13.9351 22.1907 13.7331 22.6783 13.3736 23.0378C13.0142 23.397 12.5266 23.599 12.0183 23.599C11.6392 23.599 11.2686 23.4868 10.9534 23.276C10.6382 23.0654 10.3926 22.7661 10.2475 22.416C10.1024 22.0657 10.0645 21.6804 10.1384 21.3083C10.2124 20.9366 10.3949 20.5951 10.663 20.3271C10.931 20.0591 11.2725 19.8766 11.6444 19.8024C12.0162 19.7285 12.4016 19.7664 12.7518 19.9117C13.102 20.0566 13.4014 20.3023 13.6121 20.6174Z" fill="#0B1742"/>
<path d="M14.3188 9.68164H9.71875V14.2817H14.3188V9.68164Z" fill="#0B1742"/>
<path d="M14.4455 0.105469H9.58984V4.9611H14.4455V0.105469Z" fill="#0B1742"/>
<path d="M5.12682 0.109375H0.015625V5.22057H5.12682V0.109375Z" fill="#0B1742"/>
<path d="M4.60008 19H0V23.6001H4.60008V19Z" fill="#0B1742"/>
<path d="M4.85563 9.55469H0V14.4103H4.85563V9.55469Z" fill="#0B1742"/>
<path d="M42.803 2.88565C44.1741 2.90183 44.7218 3.91052 44.7218 3.91052L46.7 1.93237L46.6976 1.9316L46.7037 1.92542C45.562 0.682307 44.1594 0 42.7273 0C41.3354 0 40.1842 0.444886 39.3062 1.32208C38.4289 2.20059 37.9841 3.3415 37.9841 4.71342V6.64885H35.3203V9.33003H37.981V23.6163H41.1016V9.33003H46.6931V6.64885H41.1068V4.71342C41.1068 3.59617 41.7075 2.95371 42.803 2.88565Z" fill="#0B1742"/>
<path d="M88.3877 20.9312C85.0164 20.9312 82.5697 18.499 82.5697 15.1481C82.5697 11.8504 85.0914 9.36371 88.4356 9.36371C90.2847 9.36371 91.7351 10.431 92.3623 10.9832L94.4925 8.85311C93.881 8.25665 91.5999 6.27539 88.286 6.27539C83.2937 6.27539 79.3828 10.1727 79.3828 15.1481C79.3828 20.1029 83.2944 23.9842 88.2877 23.9842C91.4743 23.9842 93.6234 22.2431 94.4811 21.3952L92.4074 19.3214C91.643 20.0351 90.3028 20.9312 88.3877 20.9312Z" fill="#0B1742"/>
<path d="M74.0548 21.1086C73.0161 21.1086 72.2241 20.4067 72.2241 18.3789V9.3363H77.8177V6.65512H72.2241V3.19141H69.1055V18.3789C69.1055 22.2178 70.8753 23.9605 74.0142 23.9605C75.18 23.9605 76.6181 23.5014 77.8735 22.4557L75.908 20.4902C75.4143 20.89 74.751 21.1086 74.0548 21.1086Z" fill="#0B1742"/>
<path d="M57.1517 20.8639C54.1186 20.8639 51.9304 18.6382 51.4923 16.3394H64.0583V16.3348H65.8814C65.9346 15.9415 65.9646 15.5407 65.9646 15.1327C65.9646 10.2356 61.9947 6.26562 57.0975 6.26562C52.2003 6.26562 48.2305 10.2356 48.2305 15.1327C48.2305 20.0299 52.2003 23.9998 57.0975 23.9998C60.0379 23.9998 62.4637 22.9464 64.134 21.312L62.1908 19.1232C60.8432 20.3092 59.1479 20.8639 57.1517 20.8639ZM57.1517 9.339C59.9763 9.339 62.0402 11.2878 62.6364 13.6567H51.5544C52.1946 11.193 54.3037 9.339 57.1517 9.339Z" fill="#0B1742"/>
<path d="M135.251 6.64979L135.249 8.4878C135.249 8.4878 133.206 6.27344 129.612 6.27344C124.734 6.27344 120.766 10.2047 120.766 15.037C120.766 20.0505 124.593 23.9778 129.478 23.9778C133.55 23.9778 135.259 21.7488 135.259 21.7488L135.252 23.6173H138.371V6.64979H135.251ZM129.886 20.9198C129.786 20.925 129.684 20.9278 129.582 20.9278C127.982 20.9278 126.531 20.2769 125.48 19.2259C124.424 18.1748 123.77 16.7228 123.77 15.1187C123.77 11.9111 126.384 9.31072 129.608 9.31072C132.833 9.31072 135.446 11.9111 135.446 15.1187C135.446 18.2336 132.982 20.7752 129.886 20.9198Z" fill="#0B1742"/>
</svg>
