<svg xmlns="http://www.w3.org/2000/svg" width="32" height="32" viewBox="0 0 32 32" fill="none">
  <path d="M8.97556 16C5.10228 16 1.95117 12.8487 1.95117 8.97562C1.95117 5.10253 5.10228 1.95123 8.97556 1.95123C12.8488 1.95123 16 5.10253 16 8.97562C16 12.8487 12.8488 16 8.97556 16ZM8.97556 5.46343C7.03901 5.46343 5.46337 7.03889 5.46337 8.97562C5.46337 10.9124 7.03901 12.4878 8.97556 12.4878C10.9121 12.4878 12.4878 10.9124 12.4878 8.97562C12.4878 7.03889 10.9121 5.46343 8.97556 5.46343Z" fill="#B9C5D4"/>
  <path d="M10.2788 7.5454H21.0919C22.8376 7.5454 24.2528 8.96057 24.2528 10.7063V21.5194C24.2528 23.2651 22.8376 24.6802 21.0919 24.6802H10.2788C8.53313 24.6802 7.11797 23.2651 7.11797 21.5194V10.7063C7.11797 8.96057 8.53313 7.5454 10.2788 7.5454Z" fill="#5F38FB" stroke="url(#paint0_linear_3575_3771)" stroke-width="0.390244"/>
  <path d="M23.0244 30.0488C19.1511 30.0488 16 26.8975 16 23.0244C16 19.1513 19.1511 16 23.0244 16C26.8977 16 30.0488 19.1513 30.0488 23.0244C30.0488 26.8975 26.8977 30.0488 23.0244 30.0488ZM23.0244 19.5122C21.0878 19.5122 19.5122 21.0877 19.5122 23.0244C19.5122 24.9611 21.0878 26.5366 23.0244 26.5366C24.9609 26.5366 26.5366 24.9611 26.5366 23.0244C26.5366 21.0877 24.9609 19.5122 23.0244 19.5122Z" fill="#B9C5D4"/>
  <defs>
    <linearGradient id="paint0_linear_3575_3771" x1="6.92285" y1="5.31105" x2="23.9761" y2="25.6093" gradientUnits="userSpaceOnUse">
      <stop offset="0.249921" stop-color="#2DE376"/>
      <stop offset="0.470896" stop-color="#2DE376" stop-opacity="0"/>
      <stop offset="0.816545" stop-color="#35C168"/>
    </linearGradient>
  </defs>
</svg>