<svg width="54" height="55" viewBox="0 0 54 55" fill="none" xmlns="http://www.w3.org/2000/svg">
<rect y="0.529297" width="54" height="54" rx="8" fill="#F3F5F8"/>
<path d="M19.9756 27.5292C16.1023 27.5292 12.9512 24.378 12.9512 20.5049C12.9512 16.6318 16.1023 13.4805 19.9756 13.4805C23.8488 13.4805 27 16.6318 27 20.5049C27 24.378 23.8488 27.5292 19.9756 27.5292ZM19.9756 16.9927C18.039 16.9927 16.4634 18.5681 16.4634 20.5049C16.4634 22.4416 18.039 24.0171 19.9756 24.0171C21.9121 24.0171 23.4878 22.4416 23.4878 20.5049C23.4878 18.5681 21.9121 16.9927 19.9756 16.9927Z" fill="#B9C5D4"/>
<path d="M21.2788 19.075H32.0919C33.8376 19.075 35.2528 20.4902 35.2528 22.2359V33.049C35.2528 34.7947 33.8376 36.2098 32.0919 36.2098H21.2788C19.5331 36.2098 18.118 34.7947 18.118 33.049V22.2359C18.118 20.4902 19.5331 19.075 21.2788 19.075Z" fill="#5F38FB" stroke="url(#paint0_linear_3542_1313)" stroke-width="0.390244"/>
<path d="M34.0244 41.5781C30.1511 41.5781 27 38.4268 27 34.5537C27 30.6806 30.1511 27.5293 34.0244 27.5293C37.8977 27.5293 41.0488 30.6806 41.0488 34.5537C41.0488 38.4268 37.8977 41.5781 34.0244 41.5781ZM34.0244 31.0415C32.0878 31.0415 30.5122 32.6169 30.5122 34.5537C30.5122 36.4904 32.0878 38.0659 34.0244 38.0659C35.9609 38.0659 37.5366 36.4904 37.5366 34.5537C37.5366 32.6169 35.9609 31.0415 34.0244 31.0415Z" fill="#B9C5D4"/>
<defs>
<linearGradient id="paint0_linear_3542_1313" x1="17.9229" y1="16.8407" x2="34.9761" y2="37.1389" gradientUnits="userSpaceOnUse">
<stop offset="0.249921" stop-color="#2DE376"/>
<stop offset="0.470896" stop-color="#2DE376" stop-opacity="0"/>
<stop offset="0.816545" stop-color="#35C168"/>
</linearGradient>
</defs>
</svg>
