<svg xmlns="http://www.w3.org/2000/svg" width="42" height="42" viewBox="0 0 42 42" fill="none">
  <path d="M9.97752 17C6.10423 17 2.95312 13.8487 2.95312 9.97556C2.95312 6.10247 6.10423 2.95117 9.97752 2.95117C13.8508 2.95117 17.0019 6.10247 17.0019 9.97556C17.0019 13.8487 13.8508 17 9.97752 17ZM9.97752 6.46337C8.04097 6.46337 6.46532 8.03882 6.46532 9.97556C6.46532 11.9123 8.04097 13.4878 9.97752 13.4878C11.9141 13.4878 13.4897 11.9123 13.4897 9.97556C13.4897 8.03882 11.9141 6.46337 9.97752 6.46337Z" fill="#C9F8DC"/>
  <g filter="url(#filter0_bd_2689_1807)">
    <path d="M22.0949 8.34961H11.2818C9.4283 8.34961 7.92578 9.85213 7.92578 11.7056V22.5187C7.92578 24.3722 9.4283 25.8747 11.2818 25.8747H22.0949C23.9483 25.8747 25.4508 24.3722 25.4508 22.5187V11.7056C25.4508 9.85213 23.9483 8.34961 22.0949 8.34961Z" fill="url(#paint0_linear_2689_1807)" shape-rendering="crispEdges"/>
    <path d="M11.2818 8.54473H22.0949C23.8406 8.54473 25.2557 9.9599 25.2557 11.7056V22.5187C25.2557 24.2644 23.8406 25.6796 22.0949 25.6796H11.2818C9.53606 25.6796 8.1209 24.2644 8.1209 22.5187V11.7056C8.1209 9.95989 9.53606 8.54473 11.2818 8.54473Z" stroke="url(#paint1_linear_2689_1807)" stroke-width="0.390244" shape-rendering="crispEdges"/>
  </g>
  <g filter="url(#filter1_b_2689_1807)">
    <path d="M24.0244 31.0488C20.1511 31.0488 17 27.8975 17 24.0244C17 20.1513 20.1511 17 24.0244 17C27.8977 17 31.0488 20.1513 31.0488 24.0244C31.0488 27.8975 27.8977 31.0488 24.0244 31.0488ZM24.0244 20.5122C22.0878 20.5122 20.5122 22.0877 20.5122 24.0244C20.5122 25.9611 22.0878 27.5366 24.0244 27.5366C25.9609 27.5366 27.5366 25.9611 27.5366 24.0244C27.5366 22.0877 25.9609 20.5122 24.0244 20.5122Z" fill="url(#paint2_linear_2689_1807)"/>
    <path d="M24.0244 30.8537C20.2589 30.8537 17.1951 27.7897 17.1951 24.0244C17.1951 20.2591 20.2589 17.1951 24.0244 17.1951C27.7899 17.1951 30.8537 20.2591 30.8537 24.0244C30.8537 27.7897 27.7899 30.8537 24.0244 30.8537ZM24.0244 20.3171C21.9801 20.3171 20.3171 21.9799 20.3171 24.0244C20.3171 26.0689 21.9801 27.7317 24.0244 27.7317C26.0687 27.7317 27.7317 26.0689 27.7317 24.0244C27.7317 21.9799 26.0687 20.3171 24.0244 20.3171Z" stroke="url(#paint3_linear_2689_1807)" stroke-width="0.390244"/>
  </g>
  <defs>
    <filter id="filter0_bd_2689_1807" x="0.120903" y="0.544732" width="40.9381" height="40.94" filterUnits="userSpaceOnUse" color-interpolation-filters="sRGB">
      <feFlood flood-opacity="0" result="BackgroundImageFix"/>
      <feGaussianBlur in="BackgroundImageFix" stdDeviation="3.90244"/>
      <feComposite in2="SourceAlpha" operator="in" result="effect1_backgroundBlur_2689_1807"/>
      <feColorMatrix in="SourceAlpha" type="matrix" values="0 0 0 0 0 0 0 0 0 0 0 0 0 0 0 0 0 0 127 0" result="hardAlpha"/>
      <feOffset dx="3.90244" dy="3.90244"/>
      <feGaussianBlur stdDeviation="5.85366"/>
      <feComposite in2="hardAlpha" operator="out"/>
      <feColorMatrix type="matrix" values="0 0 0 0 0.0196078 0 0 0 0 0.6 0 0 0 0 0.290196 0 0 0 0.3 0"/>
      <feBlend mode="normal" in2="effect1_backgroundBlur_2689_1807" result="effect2_dropShadow_2689_1807"/>
      <feBlend mode="normal" in="SourceGraphic" in2="effect2_dropShadow_2689_1807" result="shape"/>
    </filter>
    <filter id="filter1_b_2689_1807" x="15.439" y="15.439" width="17.1688" height="17.1708" filterUnits="userSpaceOnUse" color-interpolation-filters="sRGB">
      <feFlood flood-opacity="0" result="BackgroundImageFix"/>
      <feGaussianBlur in="BackgroundImageFix" stdDeviation="0.780488"/>
      <feComposite in2="SourceAlpha" operator="in" result="effect1_backgroundBlur_2689_1807"/>
      <feBlend mode="normal" in="SourceGraphic" in2="effect1_backgroundBlur_2689_1807" result="shape"/>
    </filter>
    <linearGradient id="paint0_linear_2689_1807" x1="8.26481" y1="8.34961" x2="26.8813" y2="27.7283" gradientUnits="userSpaceOnUse">
      <stop offset="0.182224" stop-color="#2DE376" stop-opacity="0.5"/>
      <stop offset="0.640234" stop-color="#2DE376" stop-opacity="0.9"/>
    </linearGradient>
    <linearGradient id="paint1_linear_2689_1807" x1="7.92578" y1="6.31038" x2="24.979" y2="26.6086" gradientUnits="userSpaceOnUse">
      <stop offset="0.249921" stop-color="#2DE376"/>
      <stop offset="0.470896" stop-color="#2DE376" stop-opacity="0"/>
      <stop offset="0.816545" stop-color="#35C168"/>
    </linearGradient>
    <linearGradient id="paint2_linear_2689_1807" x1="26.8687" y1="41.4987" x2="19.1932" y2="10.3887" gradientUnits="userSpaceOnUse">
      <stop offset="0.0822725" stop-color="#8566FF" stop-opacity="0.3"/>
      <stop offset="0.423605" stop-color="#5F38FB" stop-opacity="0.5"/>
      <stop offset="0.762303" stop-color="#5F38FB" stop-opacity="0.7"/>
    </linearGradient>
    <linearGradient id="paint3_linear_2689_1807" x1="24.0244" y1="47.7687" x2="22.188" y2="6.04924" gradientUnits="userSpaceOnUse">
      <stop offset="0.137498" stop-color="#AF9BFD"/>
      <stop offset="0.410212" stop-color="#5F38FB" stop-opacity="0"/>
      <stop offset="0.835001" stop-color="#5F38FB"/>
    </linearGradient>
  </defs>
</svg>