<svg width="54" height="54" viewBox="0 0 54 54" fill="none" xmlns="http://www.w3.org/2000/svg">
<rect width="54" height="54" rx="8" fill="#EAFCF1"/>
<path d="M19.9757 27C16.1025 27 12.9514 23.8487 12.9514 19.9756C12.9514 16.1025 16.1025 12.9512 19.9757 12.9512C23.849 12.9512 27.0001 16.1025 27.0001 19.9756C27.0001 23.8487 23.849 27 19.9757 27ZM19.9757 16.4634C18.0392 16.4634 16.4636 18.0388 16.4636 19.9756C16.4636 21.9123 18.0392 23.4878 19.9757 23.4878C21.9123 23.4878 23.4879 21.9123 23.4879 19.9756C23.4879 18.0388 21.9123 16.4634 19.9757 16.4634Z" fill="#C9F8DC"/>
<g filter="url(#filter0_bd_3308_1291)">
<path d="M32.092 18.3502H21.2789C19.4254 18.3502 17.9229 19.8527 17.9229 21.7062V32.5193C17.9229 34.3728 19.4254 35.8753 21.2789 35.8753H32.092C33.9454 35.8753 35.448 34.3728 35.448 32.5193V21.7062C35.448 19.8527 33.9454 18.3502 32.092 18.3502Z" fill="url(#paint0_linear_3308_1291)" shape-rendering="crispEdges"/>
<path d="M21.2789 18.5453H32.092C33.8377 18.5453 35.2529 19.9605 35.2529 21.7062V32.5193C35.2529 34.265 33.8377 35.6802 32.092 35.6802H21.2789C19.5332 35.6802 18.118 34.265 18.118 32.5193V21.7062C18.118 19.9605 19.5332 18.5453 21.2789 18.5453Z" stroke="url(#paint1_linear_3308_1291)" stroke-width="0.390244" shape-rendering="crispEdges"/>
</g>
<g filter="url(#filter1_b_3308_1291)">
<path d="M34.0245 41.0488C30.1512 41.0488 27.0001 37.8975 27.0001 34.0244C27.0001 30.1513 30.1512 27 34.0245 27C37.8978 27 41.0489 30.1513 41.0489 34.0244C41.0489 37.8975 37.8978 41.0488 34.0245 41.0488ZM34.0245 30.5122C32.088 30.5122 30.5123 32.0877 30.5123 34.0244C30.5123 35.9611 32.088 37.5366 34.0245 37.5366C35.9611 37.5366 37.5367 35.9611 37.5367 34.0244C37.5367 32.0877 35.9611 30.5122 34.0245 30.5122Z" fill="url(#paint2_linear_3308_1291)"/>
<path d="M34.0245 40.8537C30.259 40.8537 27.1952 37.7897 27.1952 34.0244C27.1952 30.2591 30.259 27.1951 34.0245 27.1951C37.79 27.1951 40.8538 30.2591 40.8538 34.0244C40.8538 37.7897 37.79 40.8537 34.0245 40.8537ZM34.0245 30.3171C31.9802 30.3171 30.3172 31.9799 30.3172 34.0244C30.3172 36.0689 31.9802 37.7317 34.0245 37.7317C36.0688 37.7317 37.7318 36.0689 37.7318 34.0244C37.7318 31.9799 36.0688 30.3171 34.0245 30.3171Z" stroke="url(#paint3_linear_3308_1291)" stroke-width="0.390244"/>
</g>
<defs>
<filter id="filter0_bd_3308_1291" x="10.118" y="10.5453" width="40.9397" height="40.9397" filterUnits="userSpaceOnUse" color-interpolation-filters="sRGB">
<feFlood flood-opacity="0" result="BackgroundImageFix"/>
<feGaussianBlur in="BackgroundImageFix" stdDeviation="3.90244"/>
<feComposite in2="SourceAlpha" operator="in" result="effect1_backgroundBlur_3308_1291"/>
<feColorMatrix in="SourceAlpha" type="matrix" values="0 0 0 0 0 0 0 0 0 0 0 0 0 0 0 0 0 0 127 0" result="hardAlpha"/>
<feOffset dx="3.90244" dy="3.90244"/>
<feGaussianBlur stdDeviation="5.85366"/>
<feComposite in2="hardAlpha" operator="out"/>
<feColorMatrix type="matrix" values="0 0 0 0 0.0196078 0 0 0 0 0.6 0 0 0 0 0.290196 0 0 0 0.3 0"/>
<feBlend mode="normal" in2="effect1_backgroundBlur_3308_1291" result="effect2_dropShadow_3308_1291"/>
<feBlend mode="normal" in="SourceGraphic" in2="effect2_dropShadow_3308_1291" result="shape"/>
</filter>
<filter id="filter1_b_3308_1291" x="25.4391" y="25.439" width="17.1707" height="17.1708" filterUnits="userSpaceOnUse" color-interpolation-filters="sRGB">
<feFlood flood-opacity="0" result="BackgroundImageFix"/>
<feGaussianBlur in="BackgroundImageFix" stdDeviation="0.780488"/>
<feComposite in2="SourceAlpha" operator="in" result="effect1_backgroundBlur_3308_1291"/>
<feBlend mode="normal" in="SourceGraphic" in2="effect1_backgroundBlur_3308_1291" result="shape"/>
</filter>
<linearGradient id="paint0_linear_3308_1291" x1="18.2619" y1="18.3502" x2="36.8784" y2="37.7289" gradientUnits="userSpaceOnUse">
<stop offset="0.182224" stop-color="#2DE376" stop-opacity="0.5"/>
<stop offset="0.640234" stop-color="#2DE376" stop-opacity="0.9"/>
</linearGradient>
<linearGradient id="paint1_linear_3308_1291" x1="17.9229" y1="16.311" x2="34.9762" y2="36.6092" gradientUnits="userSpaceOnUse">
<stop offset="0.249921" stop-color="#2DE376"/>
<stop offset="0.470896" stop-color="#2DE376" stop-opacity="0"/>
<stop offset="0.816545" stop-color="#35C168"/>
</linearGradient>
<linearGradient id="paint2_linear_3308_1291" x1="36.8688" y1="51.4987" x2="29.1933" y2="20.3887" gradientUnits="userSpaceOnUse">
<stop offset="0.0822725" stop-color="#8566FF" stop-opacity="0.3"/>
<stop offset="0.423605" stop-color="#5F38FB" stop-opacity="0.5"/>
<stop offset="0.762303" stop-color="#5F38FB" stop-opacity="0.7"/>
</linearGradient>
<linearGradient id="paint3_linear_3308_1291" x1="34.0245" y1="57.7687" x2="32.1881" y2="16.0492" gradientUnits="userSpaceOnUse">
<stop offset="0.137498" stop-color="#AF9BFD"/>
<stop offset="0.410212" stop-color="#5F38FB" stop-opacity="0"/>
<stop offset="0.835001" stop-color="#5F38FB"/>
</linearGradient>
</defs>
</svg>
