<svg xmlns="http://www.w3.org/2000/svg" width="48" height="24" viewBox="0 0 48 24" fill="none">
  <path d="M36.2713 6.49084C35.6456 6.49084 35.0572 6.73325 34.6168 7.17359L32.8372 8.94843C32.3571 9.42722 32.1105 10.092 32.161 10.7736C32.1646 10.8108 32.1682 10.848 32.1719 10.8864C32.2356 11.4096 32.4654 11.8812 32.8372 12.2508C33.0935 12.5064 33.3763 12.6684 33.7192 12.7812C33.7373 12.8844 33.7469 12.9888 33.7469 13.0932C33.7469 13.5636 33.564 14.0052 33.2319 14.3364L33.1224 14.4456C32.528 14.2428 32.0322 13.9464 31.5846 13.5C30.9903 12.9072 30.5968 12.1584 30.4488 11.3364L30.4283 11.2224L30.3381 11.2956C30.2767 11.3448 30.219 11.3976 30.1648 11.4516L28.3852 13.2264C27.4732 14.136 27.4732 15.618 28.3852 16.5276C28.8413 16.9824 29.4404 17.2104 30.0409 17.2104C30.6413 17.2104 31.2393 16.9824 31.6954 16.5276L33.475 14.7528C34.387 13.8432 34.387 12.3624 33.475 11.4516C33.2319 11.2092 32.9419 11.0268 32.6134 10.9092C32.5954 10.8024 32.5857 10.6956 32.5857 10.5912C32.5857 10.08 32.7879 9.59521 33.1585 9.22562C33.7541 9.4284 34.2823 9.75724 34.7287 10.2024C35.3219 10.794 35.7142 11.5416 35.8646 12.366L35.885 12.48L35.9753 12.4068C36.0367 12.3576 36.0944 12.3048 36.1498 12.2496L37.9294 10.4748C38.8415 9.5652 38.8426 8.08324 37.9294 7.17359C37.4878 6.73325 36.9006 6.49084 36.2737 6.49084H36.2713Z" fill="#243C3C"/>
  <path d="M35.3177 0H12.0325C5.39777 0 0 5.38319 0 12C0 18.6168 5.39777 24 12.0325 24H35.3177C41.9524 24 47.3502 18.6168 47.3502 12C47.3502 5.38319 41.9524 0 35.3177 0ZM23.8328 18.8136C23.4489 18.8928 23.0169 18.9072 22.7233 18.6012C22.615 18.8496 22.3624 18.7188 22.1674 18.6864C22.1494 18.7368 22.1338 18.7812 22.1169 18.8316C21.4683 18.8748 20.9822 18.2148 20.673 17.7168C20.0593 17.3856 19.3627 17.184 18.7357 16.8372C18.6997 17.4084 18.8248 18.1164 18.2797 18.4848C18.2521 19.5828 19.945 18.6144 20.1002 19.4328C19.98 19.446 19.8464 19.4136 19.7501 19.506C19.3085 19.9344 18.802 19.182 18.293 19.4928C17.6095 19.836 17.5409 20.1168 16.695 20.1876C16.6482 20.1168 16.6674 20.07 16.7071 20.0268C16.9453 19.7508 16.9622 19.4256 17.3689 19.308C16.9502 19.242 16.6 19.4724 16.2474 19.6548C15.789 19.842 15.7926 19.2324 15.0875 19.6872C15.0093 19.6236 15.0466 19.566 15.0911 19.5168C15.2704 19.2984 15.5063 19.266 15.7722 19.278C14.4642 18.5508 13.8482 20.1672 13.2441 19.3632C13.0625 19.4112 12.9939 19.5744 12.8796 19.6896C12.7809 19.5816 12.8555 19.4508 12.8603 19.3236C12.7424 19.2684 12.5932 19.242 12.6281 19.0536C12.3971 18.9756 12.2358 19.1124 12.0638 19.242C11.9085 19.122 12.1685 18.9468 12.2166 18.822C12.355 18.582 12.6702 18.7728 12.8302 18.6C13.2851 18.342 13.9192 18.7608 14.439 18.69C14.8397 18.7404 15.3354 18.33 15.1344 17.9208C14.7061 17.3748 14.7819 16.6608 14.7723 16.008C14.7193 15.6276 13.8037 15.1428 13.539 14.7324C13.2117 14.3628 12.9566 13.9344 12.7015 13.5132C11.781 11.736 12.071 9.45239 10.911 7.80238C10.3864 8.09161 9.70297 7.95481 9.25059 7.56717C9.0063 7.78918 8.99545 8.07958 8.97623 8.38802C8.39024 7.80362 8.46365 6.69957 8.93171 6.04919C9.12305 5.7924 9.35166 5.5812 9.60674 5.39519C9.66446 5.3532 9.68375 5.3124 9.68251 5.24759C10.1458 3.1692 13.3055 3.57 14.3042 5.0424C15.0286 5.94842 15.2476 7.14717 16.0694 7.98842C17.1751 9.1956 18.435 10.2588 19.4553 11.544C20.4203 12.7188 21.1098 14.0964 21.7114 15.4848C21.9569 15.9456 21.9593 16.5108 22.3227 16.9044C22.5019 17.142 23.3779 17.7888 23.1878 18.018C23.2973 18.2556 24.1155 18.5832 23.8315 18.8136H23.8328ZM39.1789 11.724L37.3994 13.4988C36.9252 13.9716 36.3393 14.3244 35.704 14.5176L35.6715 14.5272L35.6595 14.5584C35.4525 15.1032 35.1384 15.5892 34.7245 16.0008L32.9449 17.7756C32.1688 18.5496 31.1365 18.9756 30.0367 18.9756C28.9369 18.9756 27.9045 18.5496 27.1284 17.7756C25.5245 16.176 25.5245 13.5744 27.1284 11.9748L28.908 10.2C29.3845 9.7248 29.9549 9.38281 30.601 9.18481L30.6335 9.1752L30.6455 9.144C30.8525 8.59917 31.1677 8.11201 31.5829 7.69678L33.3624 5.92201C34.1385 5.148 35.1709 4.72199 36.2707 4.72199C37.3705 4.72199 38.4028 5.148 39.1789 5.92201C39.9551 6.69597 40.3822 7.72561 40.3822 8.82241C40.3822 9.91921 39.9551 10.95 39.1789 11.7228V11.724Z" fill="#243C3C"/>
  <path d="M16.5939 16.6656C16.4374 17.2728 16.3869 18.306 15.5952 18.336C15.5302 18.6864 15.8383 18.8184 16.1198 18.7056C16.3978 18.5784 16.5301 18.8064 16.624 19.0332C17.0535 19.0956 17.6889 18.8904 17.7129 18.3828C17.0716 18.0144 16.873 17.3136 16.5951 16.6644L16.5939 16.6656Z" fill="#243C3C"/>
</svg>