<svg width="54" height="55" viewBox="0 0 54 55" fill="none" xmlns="http://www.w3.org/2000/svg">
<rect y="0.529297" width="54" height="54" rx="8" fill="#F3F5F8"/>
<path d="M32.2816 15.3193H18.2041V39.7395H32.2816V15.3193Z" fill="#DCE2EA"/>
<g filter="url(#filter0_b_3542_1420)">
<path d="M23.2927 18.7769C22.3229 18.7769 21.5366 19.5631 21.5366 20.533C21.5366 21.5028 22.3229 22.2891 23.2927 22.2891H37.6599C38.6298 22.2891 39.416 21.5028 39.416 20.533C39.416 19.5631 38.6298 18.7769 37.6599 18.7769H23.2927Z" fill="#5F38FB"/>
</g>
<g filter="url(#filter1_b_3542_1420)">
<path d="M23.2927 25.7866C22.3229 25.7866 21.5366 26.5729 21.5366 27.5427C21.5366 28.5126 22.3229 29.2988 23.2927 29.2988H33.973C34.9428 29.2988 35.729 28.5126 35.729 27.5427C35.729 26.5729 34.9428 25.7866 33.973 25.7866H23.2927Z" fill="#5F38FB"/>
</g>
<g filter="url(#filter2_b_3542_1420)">
<path d="M23.2927 32.7388C22.3229 32.7388 21.5366 33.525 21.5366 34.4949C21.5366 35.4647 22.3229 36.251 23.2927 36.251H26.7331C27.703 36.251 28.4892 35.4647 28.4892 34.4949C28.4892 33.525 27.703 32.7388 26.7331 32.7388H23.2927Z" fill="#5F38FB"/>
</g>
<path d="M18.2039 15.3193H14.584V39.7395H18.2039V15.3193Z" fill="#B9C5D4"/>
<defs>
<filter id="filter0_b_3542_1420" x="19.9756" y="17.2164" width="21.0013" height="6.63367" filterUnits="userSpaceOnUse" color-interpolation-filters="sRGB">
<feFlood flood-opacity="0" result="BackgroundImageFix"/>
<feGaussianBlur in="BackgroundImageFix" stdDeviation="0.780488"/>
<feComposite in2="SourceAlpha" operator="in" result="effect1_backgroundBlur_3542_1420"/>
<feBlend mode="normal" in="SourceGraphic" in2="effect1_backgroundBlur_3542_1420" result="shape"/>
</filter>
<filter id="filter1_b_3542_1420" x="19.9756" y="24.2261" width="17.3143" height="6.63367" filterUnits="userSpaceOnUse" color-interpolation-filters="sRGB">
<feFlood flood-opacity="0" result="BackgroundImageFix"/>
<feGaussianBlur in="BackgroundImageFix" stdDeviation="0.780488"/>
<feComposite in2="SourceAlpha" operator="in" result="effect1_backgroundBlur_3542_1420"/>
<feBlend mode="normal" in="SourceGraphic" in2="effect1_backgroundBlur_3542_1420" result="shape"/>
</filter>
<filter id="filter2_b_3542_1420" x="19.9756" y="31.1783" width="10.0746" height="6.63367" filterUnits="userSpaceOnUse" color-interpolation-filters="sRGB">
<feFlood flood-opacity="0" result="BackgroundImageFix"/>
<feGaussianBlur in="BackgroundImageFix" stdDeviation="0.780488"/>
<feComposite in2="SourceAlpha" operator="in" result="effect1_backgroundBlur_3542_1420"/>
<feBlend mode="normal" in="SourceGraphic" in2="effect1_backgroundBlur_3542_1420" result="shape"/>
</filter>
</defs>
</svg>
