<svg width="54" height="55" viewBox="0 0 54 55" fill="none" xmlns="http://www.w3.org/2000/svg">
<rect width="54" height="54" rx="8" fill="#EAFCF1"/>
<path d="M32.2814 14.7899H18.2039V39.2101H32.2814V14.7899Z" fill="#C9F8DC"/>
<g filter="url(#filter0_b_3308_1398)">
<path d="M23.2927 18.2471C22.3229 18.2471 21.5366 19.0333 21.5366 20.0032C21.5366 20.973 22.3229 21.7593 23.2927 21.7593H37.6599C38.6298 21.7593 39.416 20.973 39.416 20.0032C39.416 19.0333 38.6298 18.2471 37.6599 18.2471H23.2927Z" fill="url(#paint0_linear_3308_1398)"/>
<path d="M21.7317 20.0032C21.7317 19.1411 22.4306 18.4422 23.2927 18.4422H37.6599C38.522 18.4422 39.2209 19.1411 39.2209 20.0032C39.2209 20.8653 38.522 21.5642 37.6599 21.5642H23.2927C22.4306 21.5642 21.7317 20.8653 21.7317 20.0032Z" stroke="url(#paint1_linear_3308_1398)" stroke-width="0.390244"/>
</g>
<g filter="url(#filter1_b_3308_1398)">
<path d="M23.2927 25.2571C22.3229 25.2571 21.5366 26.0433 21.5366 27.0132C21.5366 27.9831 22.3229 28.7693 23.2927 28.7693H33.973C34.9428 28.7693 35.729 27.9831 35.729 27.0132C35.729 26.0433 34.9428 25.2571 33.973 25.2571H23.2927Z" fill="url(#paint2_linear_3308_1398)"/>
<path d="M21.7317 27.0132C21.7317 26.1511 22.4306 25.4522 23.2927 25.4522H33.973C34.8351 25.4522 35.5339 26.1511 35.5339 27.0132C35.5339 27.8753 34.8351 28.5742 33.973 28.5742H23.2927C22.4306 28.5742 21.7317 27.8753 21.7317 27.0132Z" stroke="url(#paint3_linear_3308_1398)" stroke-width="0.390244"/>
</g>
<g filter="url(#filter2_b_3308_1398)">
<path d="M23.2927 32.2096C22.3229 32.2096 21.5366 32.9958 21.5366 33.9657C21.5366 34.9356 22.3229 35.7218 23.2927 35.7218H26.7331C27.703 35.7218 28.4892 34.9356 28.4892 33.9657C28.4892 32.9958 27.703 32.2096 26.7331 32.2096H23.2927Z" fill="url(#paint4_linear_3308_1398)"/>
<path d="M21.7317 33.9657C21.7317 33.1036 22.4306 32.4047 23.2927 32.4047H26.7331C27.5952 32.4047 28.2941 33.1036 28.2941 33.9657C28.2941 34.8278 27.5952 35.5267 26.7331 35.5267H23.2927C22.4306 35.5267 21.7317 34.8278 21.7317 33.9657Z" stroke="url(#paint5_linear_3308_1398)" stroke-width="0.390244"/>
</g>
<g filter="url(#filter3_bd_3308_1398)">
<path d="M18.2039 14.7899H14.584V39.2101H18.2039V14.7899Z" fill="url(#paint6_linear_3308_1398)" shape-rendering="crispEdges"/>
<path d="M14.7791 39.015V14.985H18.0088V39.015H14.7791Z" stroke="url(#paint7_linear_3308_1398)" stroke-width="0.390244" shape-rendering="crispEdges"/>
</g>
<defs>
<filter id="filter0_b_3308_1398" x="19.9756" y="16.6861" width="21.0013" height="6.63416" filterUnits="userSpaceOnUse" color-interpolation-filters="sRGB">
<feFlood flood-opacity="0" result="BackgroundImageFix"/>
<feGaussianBlur in="BackgroundImageFix" stdDeviation="0.780488"/>
<feComposite in2="SourceAlpha" operator="in" result="effect1_backgroundBlur_3308_1398"/>
<feBlend mode="normal" in="SourceGraphic" in2="effect1_backgroundBlur_3308_1398" result="shape"/>
</filter>
<filter id="filter1_b_3308_1398" x="19.9756" y="23.6961" width="17.3143" height="6.63416" filterUnits="userSpaceOnUse" color-interpolation-filters="sRGB">
<feFlood flood-opacity="0" result="BackgroundImageFix"/>
<feGaussianBlur in="BackgroundImageFix" stdDeviation="0.780488"/>
<feComposite in2="SourceAlpha" operator="in" result="effect1_backgroundBlur_3308_1398"/>
<feBlend mode="normal" in="SourceGraphic" in2="effect1_backgroundBlur_3308_1398" result="shape"/>
</filter>
<filter id="filter2_b_3308_1398" x="19.9756" y="30.6486" width="10.0745" height="6.63416" filterUnits="userSpaceOnUse" color-interpolation-filters="sRGB">
<feFlood flood-opacity="0" result="BackgroundImageFix"/>
<feGaussianBlur in="BackgroundImageFix" stdDeviation="0.780488"/>
<feComposite in2="SourceAlpha" operator="in" result="effect1_backgroundBlur_3308_1398"/>
<feBlend mode="normal" in="SourceGraphic" in2="effect1_backgroundBlur_3308_1398" result="shape"/>
</filter>
<filter id="filter3_bd_3308_1398" x="6.77911" y="6.98504" width="27.0345" height="47.8348" filterUnits="userSpaceOnUse" color-interpolation-filters="sRGB">
<feFlood flood-opacity="0" result="BackgroundImageFix"/>
<feGaussianBlur in="BackgroundImageFix" stdDeviation="3.90244"/>
<feComposite in2="SourceAlpha" operator="in" result="effect1_backgroundBlur_3308_1398"/>
<feColorMatrix in="SourceAlpha" type="matrix" values="0 0 0 0 0 0 0 0 0 0 0 0 0 0 0 0 0 0 127 0" result="hardAlpha"/>
<feOffset dx="3.90244" dy="3.90244"/>
<feGaussianBlur stdDeviation="5.85366"/>
<feComposite in2="hardAlpha" operator="out"/>
<feColorMatrix type="matrix" values="0 0 0 0 0.0196078 0 0 0 0 0.6 0 0 0 0 0.290196 0 0 0 0.3 0"/>
<feBlend mode="normal" in2="effect1_backgroundBlur_3308_1398" result="effect2_dropShadow_3308_1398"/>
<feBlend mode="normal" in="SourceGraphic" in2="effect2_dropShadow_3308_1398" result="shape"/>
</filter>
<linearGradient id="paint0_linear_3308_1398" x1="52.7152" y1="19.2921" x2="36.4192" y2="39.7595" gradientUnits="userSpaceOnUse">
<stop offset="0.0822725" stop-color="#8566FF" stop-opacity="0.3"/>
<stop offset="0.423605" stop-color="#5F38FB" stop-opacity="0.5"/>
<stop offset="0.762303" stop-color="#5F38FB" stop-opacity="0.7"/>
</linearGradient>
<linearGradient id="paint1_linear_3308_1398" x1="60.6949" y1="20.0032" x2="10.0405" y2="31.3538" gradientUnits="userSpaceOnUse">
<stop offset="0.137498" stop-color="#AF9BFD"/>
<stop offset="0.410212" stop-color="#5F38FB" stop-opacity="0"/>
<stop offset="0.835001" stop-color="#5F38FB"/>
</linearGradient>
<linearGradient id="paint2_linear_3308_1398" x1="46.2858" y1="26.3021" x2="29.5648" y2="42.9726" gradientUnits="userSpaceOnUse">
<stop offset="0.0822725" stop-color="#8566FF" stop-opacity="0.3"/>
<stop offset="0.423605" stop-color="#5F38FB" stop-opacity="0.5"/>
<stop offset="0.762303" stop-color="#5F38FB" stop-opacity="0.7"/>
</linearGradient>
<linearGradient id="paint3_linear_3308_1398" x1="52.62" y1="27.0132" x2="11.6873" y2="34.2939" gradientUnits="userSpaceOnUse">
<stop offset="0.137498" stop-color="#AF9BFD"/>
<stop offset="0.410212" stop-color="#5F38FB" stop-opacity="0"/>
<stop offset="0.835001" stop-color="#5F38FB"/>
</linearGradient>
<linearGradient id="paint4_linear_3308_1398" x1="33.6607" y1="33.2546" x2="20.4732" y2="39.6954" gradientUnits="userSpaceOnUse">
<stop offset="0.0822725" stop-color="#8566FF" stop-opacity="0.3"/>
<stop offset="0.423605" stop-color="#5F38FB" stop-opacity="0.5"/>
<stop offset="0.762303" stop-color="#5F38FB" stop-opacity="0.7"/>
</linearGradient>
<linearGradient id="paint5_linear_3308_1398" x1="36.7637" y1="33.9657" x2="16.2331" y2="35.7546" gradientUnits="userSpaceOnUse">
<stop offset="0.137498" stop-color="#AF9BFD"/>
<stop offset="0.410212" stop-color="#5F38FB" stop-opacity="0"/>
<stop offset="0.835001" stop-color="#5F38FB"/>
</linearGradient>
<linearGradient id="paint6_linear_3308_1398" x1="14.654" y1="14.7899" x2="22.4797" y2="15.9975" gradientUnits="userSpaceOnUse">
<stop offset="0.182224" stop-color="#2DE376" stop-opacity="0.5"/>
<stop offset="0.640234" stop-color="#2DE376" stop-opacity="0.9"/>
</linearGradient>
<linearGradient id="paint7_linear_3308_1398" x1="14.584" y1="11.9484" x2="22.84" y2="13.4051" gradientUnits="userSpaceOnUse">
<stop offset="0.249921" stop-color="#2DE376"/>
<stop offset="0.470896" stop-color="#2DE376" stop-opacity="0"/>
<stop offset="0.816545" stop-color="#35C168"/>
</linearGradient>
</defs>
</svg>
