<svg xmlns="http://www.w3.org/2000/svg" width="37" height="49" viewBox="0 0 37 49" fill="none">
  <path d="M26.2845 8.78906H12.207V33.2092H26.2845V8.78906Z" fill="#C9F8DC"/>
  <g filter="url(#filter0_b_2689_1754)">
    <path d="M17.2952 12.2456C16.3253 12.2456 15.5391 13.0318 15.5391 14.0017C15.5391 14.9716 16.3253 15.7578 17.2952 15.7578L31.6624 15.7578C32.6322 15.7578 33.4185 14.9716 33.4185 14.0017C33.4185 13.0318 32.6322 12.2456 31.6624 12.2456H17.2952Z" fill="url(#paint0_linear_2689_1754)"/>
    <path d="M15.7342 14.0017C15.7342 13.1396 16.4331 12.4407 17.2952 12.4407H31.6624C32.5245 12.4407 33.2233 13.1396 33.2233 14.0017C33.2233 14.8638 32.5245 15.5627 31.6624 15.5627L17.2952 15.5627C16.4331 15.5627 15.7342 14.8638 15.7342 14.0017Z" stroke="url(#paint1_linear_2689_1754)" stroke-width="0.390244"/>
  </g>
  <g filter="url(#filter1_b_2689_1754)">
    <path d="M17.2952 19.2554C16.3253 19.2554 15.5391 20.0416 15.5391 21.0115C15.5391 21.9813 16.3253 22.7676 17.2952 22.7676H27.9754C28.9453 22.7676 29.7315 21.9813 29.7315 21.0115C29.7315 20.0416 28.9453 19.2554 27.9754 19.2554H17.2952Z" fill="url(#paint2_linear_2689_1754)"/>
    <path d="M15.7342 21.0115C15.7342 20.1494 16.4331 19.4505 17.2952 19.4505H27.9754C28.8375 19.4505 29.5364 20.1494 29.5364 21.0115C29.5364 21.8736 28.8375 22.5725 27.9754 22.5725H17.2952C16.4331 22.5725 15.7342 21.8736 15.7342 21.0115Z" stroke="url(#paint3_linear_2689_1754)" stroke-width="0.390244"/>
  </g>
  <g filter="url(#filter2_b_2689_1754)">
    <path d="M17.2952 26.2085C16.3253 26.2085 15.5391 26.9947 15.5391 27.9646C15.5391 28.9345 16.3253 29.7207 17.2952 29.7207H20.7355C21.7054 29.7207 22.4916 28.9345 22.4916 27.9646C22.4916 26.9947 21.7054 26.2085 20.7355 26.2085H17.2952Z" fill="url(#paint4_linear_2689_1754)"/>
    <path d="M15.7342 27.9646C15.7342 27.1025 16.4331 26.4036 17.2952 26.4036H20.7355C21.5976 26.4036 22.2965 27.1025 22.2965 27.9646C22.2965 28.8267 21.5976 29.5256 20.7355 29.5256H17.2952C16.4331 29.5256 15.7342 28.8267 15.7342 27.9646Z" stroke="url(#paint5_linear_2689_1754)" stroke-width="0.390244"/>
  </g>
  <g filter="url(#filter3_bd_2689_1754)">
    <path d="M12.2059 8.78906H8.58594V33.2092H12.2059V8.78906Z" fill="url(#paint6_linear_2689_1754)" shape-rendering="crispEdges"/>
    <path d="M8.78106 33.0141V8.98418H12.0107V33.0141H8.78106Z" stroke="url(#paint7_linear_2689_1754)" stroke-width="0.390244" shape-rendering="crispEdges"/>
  </g>
  <defs>
    <filter id="filter0_b_2689_1754" x="13.9781" y="10.6851" width="21.0009" height="6.63367" filterUnits="userSpaceOnUse" color-interpolation-filters="sRGB">
      <feFlood flood-opacity="0" result="BackgroundImageFix"/>
      <feGaussianBlur in="BackgroundImageFix" stdDeviation="0.780488"/>
      <feComposite in2="SourceAlpha" operator="in" result="effect1_backgroundBlur_2689_1754"/>
      <feBlend mode="normal" in="SourceGraphic" in2="effect1_backgroundBlur_2689_1754" result="shape"/>
    </filter>
    <filter id="filter1_b_2689_1754" x="13.9781" y="17.6949" width="17.3134" height="6.63367" filterUnits="userSpaceOnUse" color-interpolation-filters="sRGB">
      <feFlood flood-opacity="0" result="BackgroundImageFix"/>
      <feGaussianBlur in="BackgroundImageFix" stdDeviation="0.780488"/>
      <feComposite in2="SourceAlpha" operator="in" result="effect1_backgroundBlur_2689_1754"/>
      <feBlend mode="normal" in="SourceGraphic" in2="effect1_backgroundBlur_2689_1754" result="shape"/>
    </filter>
    <filter id="filter2_b_2689_1754" x="13.9781" y="24.648" width="10.0751" height="6.63367" filterUnits="userSpaceOnUse" color-interpolation-filters="sRGB">
      <feFlood flood-opacity="0" result="BackgroundImageFix"/>
      <feGaussianBlur in="BackgroundImageFix" stdDeviation="0.780488"/>
      <feComposite in2="SourceAlpha" operator="in" result="effect1_backgroundBlur_2689_1754"/>
      <feBlend mode="normal" in="SourceGraphic" in2="effect1_backgroundBlur_2689_1754" result="shape"/>
    </filter>
    <filter id="filter3_bd_2689_1754" x="0.78106" y="0.984185" width="27.0357" height="47.8346" filterUnits="userSpaceOnUse" color-interpolation-filters="sRGB">
      <feFlood flood-opacity="0" result="BackgroundImageFix"/>
      <feGaussianBlur in="BackgroundImageFix" stdDeviation="3.90244"/>
      <feComposite in2="SourceAlpha" operator="in" result="effect1_backgroundBlur_2689_1754"/>
      <feColorMatrix in="SourceAlpha" type="matrix" values="0 0 0 0 0 0 0 0 0 0 0 0 0 0 0 0 0 0 127 0" result="hardAlpha"/>
      <feOffset dx="3.90244" dy="3.90244"/>
      <feGaussianBlur stdDeviation="5.85366"/>
      <feComposite in2="hardAlpha" operator="out"/>
      <feColorMatrix type="matrix" values="0 0 0 0 0.0196078 0 0 0 0 0.6 0 0 0 0 0.290196 0 0 0 0.3 0"/>
      <feBlend mode="normal" in2="effect1_backgroundBlur_2689_1754" result="effect2_dropShadow_2689_1754"/>
      <feBlend mode="normal" in="SourceGraphic" in2="effect2_dropShadow_2689_1754" result="shape"/>
    </filter>
    <linearGradient id="paint0_linear_2689_1754" x1="46.7177" y1="13.2906" x2="30.4217" y2="33.7581" gradientUnits="userSpaceOnUse">
      <stop offset="0.0822725" stop-color="#8566FF" stop-opacity="0.3"/>
      <stop offset="0.423605" stop-color="#5F38FB" stop-opacity="0.5"/>
      <stop offset="0.762303" stop-color="#5F38FB" stop-opacity="0.7"/>
    </linearGradient>
    <linearGradient id="paint1_linear_2689_1754" x1="54.6974" y1="14.0017" x2="4.04297" y2="25.3523" gradientUnits="userSpaceOnUse">
      <stop offset="0.137498" stop-color="#AF9BFD"/>
      <stop offset="0.410212" stop-color="#5F38FB" stop-opacity="0"/>
      <stop offset="0.835001" stop-color="#5F38FB"/>
    </linearGradient>
    <linearGradient id="paint2_linear_2689_1754" x1="40.2882" y1="20.3004" x2="23.5672" y2="36.9709" gradientUnits="userSpaceOnUse">
      <stop offset="0.0822725" stop-color="#8566FF" stop-opacity="0.3"/>
      <stop offset="0.423605" stop-color="#5F38FB" stop-opacity="0.5"/>
      <stop offset="0.762303" stop-color="#5F38FB" stop-opacity="0.7"/>
    </linearGradient>
    <linearGradient id="paint3_linear_2689_1754" x1="46.6224" y1="21.0115" x2="5.68971" y2="28.2922" gradientUnits="userSpaceOnUse">
      <stop offset="0.137498" stop-color="#AF9BFD"/>
      <stop offset="0.410212" stop-color="#5F38FB" stop-opacity="0"/>
      <stop offset="0.835001" stop-color="#5F38FB"/>
    </linearGradient>
    <linearGradient id="paint4_linear_2689_1754" x1="27.6632" y1="27.2535" x2="14.4757" y2="33.6943" gradientUnits="userSpaceOnUse">
      <stop offset="0.0822725" stop-color="#8566FF" stop-opacity="0.3"/>
      <stop offset="0.423605" stop-color="#5F38FB" stop-opacity="0.5"/>
      <stop offset="0.762303" stop-color="#5F38FB" stop-opacity="0.7"/>
    </linearGradient>
    <linearGradient id="paint5_linear_2689_1754" x1="30.7661" y1="27.9646" x2="10.2355" y2="29.7535" gradientUnits="userSpaceOnUse">
      <stop offset="0.137498" stop-color="#AF9BFD"/>
      <stop offset="0.410212" stop-color="#5F38FB" stop-opacity="0"/>
      <stop offset="0.835001" stop-color="#5F38FB"/>
    </linearGradient>
    <linearGradient id="paint6_linear_2689_1754" x1="8.65597" y1="8.78906" x2="16.4817" y2="9.9966" gradientUnits="userSpaceOnUse">
      <stop offset="0.182224" stop-color="#2DE376" stop-opacity="0.5"/>
      <stop offset="0.640234" stop-color="#2DE376" stop-opacity="0.9"/>
    </linearGradient>
    <linearGradient id="paint7_linear_2689_1754" x1="8.58594" y1="5.94751" x2="16.8419" y2="7.40421" gradientUnits="userSpaceOnUse">
      <stop offset="0.249921" stop-color="#2DE376"/>
      <stop offset="0.470896" stop-color="#2DE376" stop-opacity="0"/>
      <stop offset="0.816545" stop-color="#35C168"/>
    </linearGradient>
  </defs>
</svg>