<svg xmlns="http://www.w3.org/2000/svg" width="161" height="18" viewBox="0 0 161 18" fill="none">
  <path d="M102.467 5.26074H100.282V17.1412H102.467V5.26074Z" fill="#010E3E"/>
  <path d="M77.6847 17.1303V10.4564C77.6847 8.56505 76.2716 7.13026 74.3912 7.13026C72.7934 7.13026 71.1629 8.35853 71.1629 10.6955V17.1411H68.9781V1.10853L71.1629 1.09766C71.1629 1.09766 71.1521 6.24983 71.1629 6.23896C71.4564 5.98896 72.5868 4.98896 74.8368 4.98896C77.576 4.98896 79.8803 7.27157 79.8803 9.97809V17.1303H77.6847Z" fill="#010E3E"/>
  <path d="M102.467 1.10864H100.282V3.29342H102.467V1.10864Z" fill="#010E3E"/>
  <path d="M84.2825 14.9348H82.0869V17.1305H84.2825V14.9348Z" fill="#010E3E"/>
  <path d="M16.9455 8.24985C17.0976 8.46724 17.1737 8.72811 17.1737 8.99985C17.1737 9.35854 17.0324 9.6955 16.7824 9.9455C16.5324 10.1955 16.1846 10.3368 15.8368 10.3368C15.5759 10.3368 15.315 10.2607 15.0868 10.1085C14.8694 9.95637 14.6955 9.74985 14.5976 9.51072C14.4998 9.26072 14.4672 8.99985 14.5215 8.73898C14.5759 8.47811 14.7063 8.23898 14.8911 8.05419C15.0759 7.86941 15.315 7.73898 15.5759 7.68463C15.8368 7.63028 16.1085 7.66289 16.3476 7.76072C16.5868 7.84767 16.7933 8.02159 16.9455 8.24985Z" fill="#010E3E"/>
  <path d="M16.9455 15.0326C17.0976 15.25 17.1737 15.5108 17.1737 15.7826C17.1737 16.1413 17.0324 16.4782 16.7824 16.7282C16.5324 16.9782 16.1846 17.1195 15.8368 17.1195C15.5759 17.1195 15.315 17.0434 15.0868 16.8913C14.8694 16.7391 14.6955 16.5326 14.5976 16.2934C14.4998 16.0434 14.4672 15.7826 14.5215 15.5217C14.5759 15.2608 14.7063 15.0217 14.8911 14.8369C15.0759 14.6521 15.315 14.5217 15.5759 14.4673C15.8368 14.413 16.1085 14.4456 16.3476 14.5434C16.5868 14.6413 16.7933 14.8152 16.9455 15.0326Z" fill="#010E3E"/>
  <path d="M17.1738 0.673828H13.9564V3.89122H17.1738V0.673828Z" fill="#010E3E"/>
  <path d="M10.2499 15.0326C10.4021 15.25 10.4782 15.5108 10.4782 15.7826C10.4782 16.1413 10.3369 16.4782 10.0869 16.7282C9.83686 16.9782 9.48903 17.1195 9.1412 17.1195C8.88033 17.1195 8.61946 17.0434 8.3912 16.8913C8.17381 16.7391 7.9999 16.5326 7.90207 16.2934C7.80425 16.0434 7.77164 15.7826 7.82599 15.5217C7.88033 15.2608 8.01077 15.0217 8.19555 14.8369C8.38033 14.6521 8.61946 14.5217 8.88033 14.4673C9.1412 14.413 9.41294 14.4456 9.65207 14.5434C9.90207 14.6413 10.1086 14.8152 10.2499 15.0326Z" fill="#010E3E"/>
  <path d="M10.7499 7.38037H7.53247V10.5978H10.7499V7.38037Z" fill="#010E3E"/>
  <path d="M10.8369 0.673828H7.43469V4.076H10.8369V0.673828Z" fill="#010E3E"/>
  <path d="M4.3148 0.673828H0.738708V4.24991H4.3148V0.673828Z" fill="#010E3E"/>
  <path d="M3.94548 13.9021H0.728088V17.1195H3.94548V13.9021Z" fill="#010E3E"/>
  <path d="M4.13026 7.29346H0.728088V10.6956H4.13026V7.29346Z" fill="#010E3E"/>
  <path d="M30.6956 2.61951C31.6521 2.63038 32.0434 3.3369 32.0434 3.3369L33.4129 1.95647C32.6086 1.0869 31.6303 0.608643 30.6303 0.608643C29.6521 0.608643 28.8477 0.92386 28.239 1.53256C27.6195 2.15212 27.3151 2.9456 27.3151 3.90212V5.26082H25.4456V7.14125H27.3043V17.1413H29.489V7.14125H30.9782H33.4129V5.26082H30.1086H29.4999V3.90212C29.4999 3.11951 29.9238 2.67386 30.6956 2.61951Z" fill="#010E3E"/>
  <path d="M62.5977 15.2499C60.239 15.2499 58.5216 13.5434 58.5216 11.2064C58.5216 8.90206 60.2825 7.15206 62.6303 7.15206C63.9238 7.15206 64.9455 7.90206 65.3803 8.28249L66.8694 6.79336C66.4455 6.38032 64.8477 4.98901 62.5216 4.98901C59.0216 4.98901 56.2933 7.71727 56.2933 11.1955C56.2933 14.6629 59.0325 17.3803 62.5325 17.3803C64.7607 17.3803 66.2716 16.1629 66.8694 15.5651L65.4129 14.1303C64.8803 14.6303 63.9346 15.2499 62.5977 15.2499Z" fill="#010E3E"/>
  <path d="M52.565 15.3804C51.8368 15.3804 51.2824 14.8913 51.2824 13.4673V7.14126H55.1955V5.26083H51.2824V2.83691H49.0977V13.4673C49.0977 16.1521 50.3368 17.3695 52.5324 17.3695C53.3477 17.3695 54.3585 17.0434 55.239 16.3152L53.8585 14.9347C53.5216 15.2282 53.0542 15.3804 52.565 15.3804Z" fill="#010E3E"/>
  <path d="M40.739 15.2065C38.6194 15.2065 37.0868 13.6522 36.7824 12.0435H45.5759H46.8476C46.8803 11.7717 46.902 11.4891 46.902 11.2065C46.902 7.78261 44.1194 5 40.6955 5C37.2716 5 34.489 7.78261 34.489 11.2065C34.489 14.6304 37.2716 17.413 40.6955 17.413C42.7498 17.413 44.4563 16.6739 45.6194 15.5326L44.2607 14C43.315 14.8152 42.1303 15.2065 40.739 15.2065ZM40.739 7.1413C42.7172 7.1413 44.1629 8.51087 44.5759 10.163H36.815C37.2607 8.43478 38.739 7.1413 40.739 7.1413Z" fill="#010E3E"/>
  <path d="M95.4021 5.26075V6.54336C95.4021 6.54336 93.9673 4.98901 91.4565 4.98901C88.0434 4.98901 85.2608 7.73901 85.2608 11.1194C85.2608 14.6303 87.9347 17.3803 91.3586 17.3803C94.2065 17.3803 95.4021 15.8151 95.4021 15.8151V17.1194H97.5869V5.26075H95.4021ZM91.6521 15.2499C91.5869 15.2499 91.5108 15.2608 91.4347 15.2608C90.3151 15.2608 89.3043 14.8042 88.5651 14.0651C87.826 13.326 87.3695 12.3151 87.3695 11.1847C87.3695 8.93467 89.1956 7.11945 91.4565 7.11945C93.7173 7.11945 95.5434 8.93467 95.5434 11.1847C95.5434 13.3694 93.8151 15.1412 91.6521 15.2499Z" fill="#010E3E"/>
  <path d="M147.902 14.1196L149.347 15.5652C148.75 16.163 147.25 17.3696 145.021 17.3696C141.532 17.3696 138.804 14.663 138.804 11.1957C138.804 7.71739 141.532 5 145.021 5C147.337 5 148.934 6.38043 149.358 6.80435L147.869 8.29348C147.434 7.91304 146.413 7.16304 145.13 7.16304C142.793 7.16304 141.032 8.90217 141.032 11.2065C141.032 13.5435 142.739 15.25 145.097 15.25C146.434 15.2391 147.369 14.6087 147.902 14.1196Z" fill="#5F38FB"/>
  <path d="M159.826 13.8912C159.826 9.5977 153.326 10.7173 153.326 8.35857C153.326 7.56509 154.054 6.8477 155.5 6.8477C157.109 6.8477 158.206 8.01074 158.489 8.29335L159.793 6.85857C159.478 6.46726 157.696 5.01074 155.38 5.01074C152.75 5.01074 151.12 6.58683 151.12 8.43466C151.12 12.3912 157.663 11.2716 157.663 13.8912C157.663 14.8694 156.772 15.4999 155.576 15.4999C154.033 15.4999 152.489 14.5542 152.033 14.0216L150.815 15.4564C151.467 16.1738 153.424 17.3803 155.576 17.3803C157.043 17.3803 159.826 16.739 159.826 13.8912Z" fill="#5F38FB"/>
  <path d="M136.554 10.5652C136.38 8.9239 135.576 7.46738 134.369 6.46738C133.641 5.84782 132.76 5.40216 131.793 5.18477C131.75 5.1739 131.717 5.16303 131.674 5.15216C131.619 5.14129 131.554 5.13042 131.5 5.11955C131.369 5.09782 131.239 5.07608 131.108 5.06521C131.065 5.06521 131.032 5.05434 130.989 5.05434C130.913 5.04347 130.837 5.04347 130.76 5.0326C130.684 5.0326 130.597 5.02173 130.521 5.02173C130.489 5.02173 130.456 5.02173 130.413 5.02173C130.402 5.02173 130.391 5.02173 130.391 5.02173C126.978 5.02173 124.206 7.79347 124.206 11.2065C124.206 12.6522 124.706 13.9891 125.543 15.0435C126.652 16.4783 128.369 17.3913 130.337 17.3913C130.347 17.3913 130.347 17.3913 130.358 17.3913C130.369 17.3913 130.38 17.3913 130.402 17.3913C130.554 17.3913 130.695 17.3804 130.847 17.3696C130.858 17.3696 130.869 17.3696 130.869 17.3696C130.989 17.3587 131.108 17.3478 131.228 17.3369C132.358 17.1956 133.152 16.8043 133.663 16.4674C133.913 16.3152 134.152 16.1413 134.38 15.9456C135.576 14.9456 136.391 13.4891 136.554 11.8478C136.576 11.6413 136.587 11.4239 136.587 11.2065C136.597 10.9891 136.576 10.7717 136.554 10.5652ZM130.63 15.2609C130.565 15.2609 130.489 15.2717 130.413 15.2717C129.293 15.2717 128.282 14.8152 127.543 14.0869C126.804 13.3478 126.347 12.3369 126.347 11.2174C126.347 8.97825 128.174 7.16303 130.424 7.16303C132.674 7.16303 134.5 8.97825 134.5 11.2174C134.51 13.3804 132.793 15.1522 130.63 15.2609Z" fill="#5F38FB"/>
  <path d="M122.022 1.13037H119.837V6.55428C119.837 6.55428 118.641 4.98907 115.783 4.98907C112.359 4.98907 109.674 7.73907 109.674 11.2608C109.674 14.6521 112.456 17.4021 115.87 17.4021C118.391 17.4021 119.826 15.8478 119.826 15.8478V17.1412H122.011C122.022 17.1304 122.022 1.21733 122.022 1.13037ZM115.88 15.2717C113.62 15.2717 111.793 13.4456 111.793 11.1956C111.793 10.076 112.25 9.05428 112.989 8.31515C113.728 7.57602 114.739 7.1195 115.859 7.1195C115.935 7.1195 116 7.1195 116.076 7.13037C118.25 7.2282 119.978 9.01081 119.978 11.1956C119.967 13.4456 118.141 15.2717 115.88 15.2717Z" fill="#5F38FB"/>
</svg>