<svg width="24" height="24" viewBox="0 0 24 24" fill="none" xmlns="http://www.w3.org/2000/svg">
<path d="M16.4297 12.707C16.4297 12.7773 16.3242 14.8516 18.6094 15.9414C18.1875 17.2422 16.7109 20.125 14.9883 20.125C14.0039 20.125 13.4414 19.4922 12.3164 19.4922C11.1562 19.4922 10.5234 20.125 9.64453 20.125C7.95703 20.1953 6.33984 17.0312 5.88281 15.7305C5.53125 14.7461 5.39062 13.7969 5.39062 12.8828C5.39062 9.75391 7.46484 8.24219 9.43359 8.20703C10.3828 8.20703 11.5781 8.875 12.1055 8.875C12.5977 8.875 13.9688 8.06641 15.2344 8.17188C16.5352 8.27734 17.5195 8.76953 18.1875 9.71875C17.0273 10.457 16.4297 11.4062 16.4297 12.707ZM14.4609 6.94141C13.7578 7.75 12.9141 8.20703 12 8.13672C11.9297 7.1875 12.2812 6.30859 12.9141 5.60547C13.4766 4.97266 14.4609 4.44531 15.3047 4.375C15.3047 4.76172 15.4102 5.81641 14.4609 6.94141Z" fill="#8A9FB8"/>
</svg>
