<svg width="54" height="55" viewBox="0 0 54 55" fill="none" xmlns="http://www.w3.org/2000/svg">
<rect y="0.529297" width="54" height="54" rx="8" fill="#F3F5F8"/>
<path d="M13.1519 18.708V32.7855H37.572V18.708L25.2758 25.7755L13.1519 18.708Z" fill="#DCE2EA"/>
<path d="M13.1519 15.0879V18.7078L25.2758 25.7753L37.572 18.7078V15.0879H13.1519Z" fill="#B9C5D4"/>
<g filter="url(#filter0_b_3542_1323)">
<path fill-rule="evenodd" clip-rule="evenodd" d="M33.8242 29.435C31.8845 29.435 30.312 31.0075 30.312 32.9472C30.312 34.887 31.8845 36.4594 33.8242 36.4594C35.7639 36.4594 37.3364 34.887 37.3364 32.9472C37.3364 31.0075 35.7639 29.435 33.8242 29.435ZM26.7998 32.9472C26.7998 29.0678 29.9447 25.9229 33.8242 25.9229C37.7037 25.9229 40.8486 29.0678 40.8486 32.9472C40.8486 36.8267 37.7037 39.9716 33.8242 39.9716C29.9447 39.9716 26.7998 36.8267 26.7998 32.9472Z" fill="#5F38FB"/>
</g>
<defs>
<filter id="filter0_b_3542_1323" x="25.2388" y="24.3619" width="17.1708" height="17.1708" filterUnits="userSpaceOnUse" color-interpolation-filters="sRGB">
<feFlood flood-opacity="0" result="BackgroundImageFix"/>
<feGaussianBlur in="BackgroundImageFix" stdDeviation="0.780488"/>
<feComposite in2="SourceAlpha" operator="in" result="effect1_backgroundBlur_3542_1323"/>
<feBlend mode="normal" in="SourceGraphic" in2="effect1_backgroundBlur_3542_1323" result="shape"/>
</filter>
</defs>
</svg>
