<svg width="54" height="54" viewBox="0 0 54 54" fill="none" xmlns="http://www.w3.org/2000/svg">
<rect width="54" height="54" rx="8" fill="#EAFCF1"/>
<path d="M13.1519 18.1781V32.2556H37.572V18.1781L25.2758 25.2456L13.1519 18.1781Z" fill="#C9F8DC"/>
<g filter="url(#filter0_bd_3308_1301)">
<path d="M13.1519 14.5582V18.1782L25.2758 25.2456L37.572 18.1782V14.5582H13.1519Z" fill="url(#paint0_linear_3308_1301)" shape-rendering="crispEdges"/>
<path d="M25.2764 25.0202L13.347 18.066V14.7533H37.3769V18.0652L25.2764 25.0202Z" stroke="url(#paint1_linear_3308_1301)" stroke-width="0.390244" shape-rendering="crispEdges"/>
</g>
<g filter="url(#filter1_b_3308_1301)">
<path fill-rule="evenodd" clip-rule="evenodd" d="M33.8241 28.9051C31.8843 28.9051 30.3119 30.4776 30.3119 32.4173C30.3119 34.3571 31.8843 35.9295 33.8241 35.9295C35.7638 35.9295 37.3363 34.3571 37.3363 32.4173C37.3363 30.4776 35.7638 28.9051 33.8241 28.9051ZM26.7997 32.4173C26.7997 28.5379 29.9446 25.3929 33.8241 25.3929C37.7035 25.3929 40.8485 28.5379 40.8485 32.4173C40.8485 36.2968 37.7035 39.4417 33.8241 39.4417C29.9446 39.4417 26.7997 36.2968 26.7997 32.4173Z" fill="url(#paint2_linear_3308_1301)"/>
<path d="M33.8241 28.71C31.7766 28.71 30.1168 30.3698 30.1168 32.4173C30.1168 34.4648 31.7766 36.1247 33.8241 36.1247C35.8716 36.1247 37.5314 34.4648 37.5314 32.4173C37.5314 30.3698 35.8716 28.71 33.8241 28.71ZM26.9948 32.4173C26.9948 28.6456 30.0524 25.5881 33.8241 25.5881C37.5958 25.5881 40.6533 28.6456 40.6533 32.4173C40.6533 36.189 37.5958 39.2466 33.8241 39.2466C30.0524 39.2466 26.9948 36.189 26.9948 32.4173Z" stroke="url(#paint3_linear_3308_1301)" stroke-width="0.390244"/>
</g>
<defs>
<filter id="filter0_bd_3308_1301" x="5.34698" y="6.75335" width="47.8348" height="34.102" filterUnits="userSpaceOnUse" color-interpolation-filters="sRGB">
<feFlood flood-opacity="0" result="BackgroundImageFix"/>
<feGaussianBlur in="BackgroundImageFix" stdDeviation="3.90244"/>
<feComposite in2="SourceAlpha" operator="in" result="effect1_backgroundBlur_3308_1301"/>
<feColorMatrix in="SourceAlpha" type="matrix" values="0 0 0 0 0 0 0 0 0 0 0 0 0 0 0 0 0 0 127 0" result="hardAlpha"/>
<feOffset dx="3.90244" dy="3.90244"/>
<feGaussianBlur stdDeviation="5.85366"/>
<feComposite in2="hardAlpha" operator="out"/>
<feColorMatrix type="matrix" values="0 0 0 0 0.0196078 0 0 0 0 0.6 0 0 0 0 0.290196 0 0 0 0.3 0"/>
<feBlend mode="normal" in2="effect1_backgroundBlur_3308_1301" result="effect2_dropShadow_3308_1301"/>
<feBlend mode="normal" in="SourceGraphic" in2="effect2_dropShadow_3308_1301" result="shape"/>
</filter>
<filter id="filter1_b_3308_1301" x="25.2387" y="23.832" width="17.1708" height="17.1708" filterUnits="userSpaceOnUse" color-interpolation-filters="sRGB">
<feFlood flood-opacity="0" result="BackgroundImageFix"/>
<feGaussianBlur in="BackgroundImageFix" stdDeviation="0.780488"/>
<feComposite in2="SourceAlpha" operator="in" result="effect1_backgroundBlur_3308_1301"/>
<feBlend mode="normal" in="SourceGraphic" in2="effect1_backgroundBlur_3308_1301" result="shape"/>
</filter>
<linearGradient id="paint0_linear_3308_1301" x1="13.6243" y1="14.5582" x2="21.7431" y2="33.869" gradientUnits="userSpaceOnUse">
<stop offset="0.182224" stop-color="#2DE376" stop-opacity="0.5"/>
<stop offset="0.640234" stop-color="#2DE376" stop-opacity="0.9"/>
</linearGradient>
<linearGradient id="paint1_linear_3308_1301" x1="13.1519" y1="13.3146" x2="19.9911" y2="31.9157" gradientUnits="userSpaceOnUse">
<stop offset="0.249921" stop-color="#2DE376"/>
<stop offset="0.470896" stop-color="#2DE376" stop-opacity="0"/>
<stop offset="0.816545" stop-color="#35C168"/>
</linearGradient>
<linearGradient id="paint2_linear_3308_1301" x1="36.6684" y1="49.8916" x2="28.9929" y2="18.7817" gradientUnits="userSpaceOnUse">
<stop offset="0.0822725" stop-color="#8566FF" stop-opacity="0.3"/>
<stop offset="0.423605" stop-color="#5F38FB" stop-opacity="0.5"/>
<stop offset="0.762303" stop-color="#5F38FB" stop-opacity="0.7"/>
</linearGradient>
<linearGradient id="paint3_linear_3308_1301" x1="33.8241" y1="56.1617" x2="31.9877" y2="14.4422" gradientUnits="userSpaceOnUse">
<stop offset="0.137498" stop-color="#AF9BFD"/>
<stop offset="0.410212" stop-color="#5F38FB" stop-opacity="0"/>
<stop offset="0.835001" stop-color="#5F38FB"/>
</linearGradient>
</defs>
</svg>
