<svg width="24" height="24" viewBox="0 0 24 24" fill="none" xmlns="http://www.w3.org/2000/svg">
<g clip-path="url(#clip0_4016_2690)">
<path d="M22.4169 9.82273C22.6899 9.015 22.7846 8.15774 22.6946 7.3099C22.6047 6.46207 22.3321 5.64378 21.8958 4.9113C21.2451 3.79697 20.2578 2.91768 19.0758 2.39987C17.8875 1.87798 16.5655 1.74188 15.2958 2.01073C14.721 1.3721 14.0168 0.863116 13.2301 0.517589C12.4412 0.17092 11.5881 -0.00548957 10.7264 -0.000125379C9.4304 -0.00373284 8.16604 0.399833 7.1118 1.15359C6.06445 1.90176 5.2829 2.96435 4.88066 4.18702C4.03642 4.35729 3.23778 4.70432 2.53723 5.2053C1.8399 5.70343 1.25716 6.34491 0.828091 7.08673C0.175983 8.19309 -0.102763 9.47995 0.0330759 10.757C0.168915 12.034 0.712126 13.2334 1.58238 14.1779C1.30958 14.9854 1.21483 15.8425 1.30464 16.6901C1.39445 17.5378 1.66669 18.356 2.10266 19.0884C2.75338 20.2028 3.7407 21.0821 4.92266 21.5999C6.11094 22.1218 7.43298 22.2579 8.70266 21.989C9.27719 22.6276 9.98107 23.1366 10.7675 23.4822C11.5561 23.8284 12.4098 24.005 13.2729 23.9999C14.5697 24.0043 15.8351 23.601 16.8901 22.847C17.9387 22.0983 18.721 21.0343 19.1229 19.8102C19.9672 19.6402 20.7658 19.2935 21.4664 18.7927C22.1635 18.2943 22.746 17.6525 23.1747 16.9104C23.8258 15.804 24.1038 14.5175 23.9673 13.2409C23.8308 11.9644 23.2873 10.7656 22.4169 9.82187V9.82273ZM13.3227 22.4313C12.1124 22.4313 11.1755 22.0644 10.3569 21.3899C10.3938 21.3702 10.4589 21.335 10.5009 21.3093L15.3438 18.5493C15.4644 18.4814 15.5647 18.3827 15.6346 18.2633C15.7045 18.1438 15.7414 18.008 15.7415 17.8696V11.1324L17.7892 12.2982C17.7998 12.3036 17.8088 12.3116 17.8157 12.3212C17.8226 12.3309 17.827 12.3421 17.8287 12.3539V17.9322C17.8287 20.4624 15.6935 22.4313 13.3227 22.4313ZM3.48181 18.3033C2.94799 17.3953 2.75503 16.3269 2.93752 15.2896C2.97352 15.311 3.03609 15.3496 3.08152 15.3753L7.92438 18.1353C8.0453 18.2051 8.18246 18.2419 8.32209 18.2419C8.46172 18.2419 8.59888 18.2051 8.71981 18.1353L14.6324 14.7667V17.0982C14.6331 17.1101 14.6308 17.122 14.6257 17.1327C14.6206 17.1435 14.6129 17.1529 14.6032 17.1599L9.70809 19.9499C8.65807 20.5455 7.41653 20.7061 6.24952 20.3973C5.08648 20.092 4.09215 19.3393 3.48181 18.3033ZM2.20552 7.87187C2.74112 6.95699 3.58075 6.25902 4.57809 5.89959V11.5842C4.57676 11.7228 4.61304 11.8593 4.68307 11.9789C4.7531 12.0986 4.85427 12.1971 4.97581 12.2639L10.8875 15.6324L8.84066 16.7982C8.83063 16.8047 8.81915 16.8088 8.80722 16.81C8.79528 16.8112 8.78323 16.8095 8.77209 16.805L3.87438 14.0133C3.3586 13.7201 2.90572 13.3281 2.54169 12.8596C2.17766 12.3912 1.90963 11.8555 1.75295 11.2833C1.59802 10.7132 1.55817 10.1179 1.63573 9.53216C1.71328 8.94645 1.90755 8.38205 2.20552 7.87187ZM19.0252 11.7342L13.1127 8.36559L15.1595 7.19987C15.1696 7.1933 15.181 7.18924 15.193 7.18805C15.2049 7.18686 15.217 7.18856 15.2281 7.19302L20.1249 9.98302C20.8724 10.4086 21.4831 11.0383 21.8855 11.7984C22.2856 12.555 22.4589 13.4109 22.3847 14.2635C22.3105 15.1161 21.9919 15.9292 21.4672 16.6053C20.9394 17.2868 20.2291 17.8046 19.4187 18.0984V12.413C19.4202 12.2749 19.3844 12.139 19.3152 12.0196C19.2459 11.9001 19.1458 11.8015 19.0252 11.7342ZM21.0627 8.70587C21.015 8.677 20.967 8.64872 20.9187 8.62102L16.0758 5.86102C15.9548 5.79137 15.8177 5.75471 15.6781 5.75471C15.5385 5.75471 15.4014 5.79137 15.2804 5.86102L9.3678 9.22959V6.89645C9.3671 6.88454 9.3694 6.87265 9.37449 6.86187C9.37959 6.85108 9.38731 6.84175 9.39695 6.83473L14.2929 4.04816C15.0444 3.62094 15.9009 3.41375 16.7646 3.45028C17.6283 3.48681 18.4642 3.76558 19.1769 4.25473C19.885 4.74069 20.4396 5.41869 20.7755 6.20902C21.1098 6.99759 21.2092 7.8633 21.0627 8.70587ZM8.25523 12.8647L6.20666 11.699C6.19595 11.6938 6.18672 11.6859 6.17983 11.6762C6.17294 11.6665 6.16861 11.6552 6.16723 11.6433V6.06416C6.16809 5.20959 6.41581 4.37302 6.88038 3.65216C7.34768 2.9292 8.01089 2.35398 8.79266 1.99359C9.57778 1.6316 10.4488 1.49752 11.3064 1.60664C12.1641 1.71576 12.9738 2.06368 13.6432 2.61073C13.5947 2.63636 13.5467 2.66293 13.4992 2.69045L8.65638 5.45045C8.53576 5.51837 8.43532 5.61707 8.3653 5.73648C8.29528 5.85589 8.25819 5.99174 8.2578 6.13016L8.25523 12.8647ZM9.36695 10.499L12.0001 8.99987L14.6332 10.4999V13.4999L12.0001 14.999L9.36695 13.499V10.499Z" fill="#000D3D"/>
</g>
<defs>
<clipPath id="clip0_4016_2690">
<rect width="24" height="24" fill="white"/>
</clipPath>
</defs>
</svg>
