<svg width="592" height="338" viewBox="0 0 592 338" fill="none" xmlns="http://www.w3.org/2000/svg">
<g filter="url(#filter0_d_14_676)">
<rect x="94.0376" y="28" width="403.925" height="213.1" rx="11.8801" fill="#F5F7F9"/>
</g>
<g filter="url(#filter1_d_14_676)">
<rect x="50.52" y="43.0413" width="490.96" height="259.017" rx="14.44" fill="#F7F9FA" shape-rendering="crispEdges"/>
<path d="M72.44 82.7012L76.8749 71.3297H78.8567L83.2591 82.7012H81.0661L78.6293 76.2357C78.5752 76.1058 78.4994 75.9 78.4019 75.6184C78.3152 75.3368 78.2178 75.0336 78.1095 74.7087C78.0012 74.373 77.9037 74.0643 77.8171 73.7827C77.7304 73.4903 77.6654 73.2791 77.6221 73.1492L78.0283 73.1329C77.9633 73.3495 77.8875 73.5932 77.8008 73.864C77.7142 74.1347 77.6221 74.4163 77.5247 74.7087C77.4272 75.0011 77.3297 75.2827 77.2322 75.5534C77.1456 75.8242 77.0644 76.0679 76.9886 76.2845L74.5518 82.7012H72.44ZM74.4544 80.102L75.1854 78.2663H80.3675L81.1473 80.102H74.4544ZM88.2216 86.4376C87.5826 86.4376 86.9437 86.3401 86.3047 86.1452C85.6766 85.9502 85.1676 85.6957 84.7777 85.3817L85.4925 83.9034C85.7199 84.0658 85.9744 84.2066 86.256 84.3257C86.5375 84.4449 86.8354 84.5369 87.1494 84.6019C87.4743 84.6669 87.7938 84.6994 88.1079 84.6994C88.6819 84.6994 89.1584 84.6073 89.5375 84.4232C89.9273 84.2499 90.2197 83.9792 90.4147 83.611C90.6096 83.2536 90.7071 82.8041 90.7071 82.2626V80.6869L90.9995 80.8006C90.9345 81.1363 90.7558 81.4558 90.4634 81.759C90.171 82.0623 89.8028 82.3114 89.3588 82.5063C88.9147 82.6904 88.4599 82.7825 87.9942 82.7825C87.1819 82.7825 86.4617 82.5929 85.8336 82.2139C85.2163 81.8348 84.7235 81.3204 84.3553 80.6706C83.9979 80.01 83.8192 79.2519 83.8192 78.3963C83.8192 77.5407 83.9979 76.7826 84.3553 76.122C84.7127 75.4505 85.2 74.9253 85.8174 74.5462C86.4455 74.1564 87.1494 73.9614 87.9292 73.9614C88.2541 73.9614 88.5682 73.9993 88.8714 74.0751C89.1747 74.1509 89.4508 74.2592 89.6999 74.4C89.9598 74.5408 90.1927 74.6979 90.3984 74.8711C90.6042 75.0444 90.7721 75.2285 90.902 75.4235C91.032 75.6184 91.1132 75.8079 91.1457 75.992L90.7233 76.122L90.7558 74.1401H92.7215V82.1164C92.7215 82.8095 92.6186 83.4214 92.4128 83.9521C92.2071 84.4828 91.9092 84.9322 91.5193 85.3004C91.1295 85.6795 90.6584 85.9611 90.106 86.1452C89.5537 86.3401 88.9256 86.4376 88.2216 86.4376ZM88.3028 81.0767C88.7902 81.0767 89.218 80.963 89.5862 80.7356C89.9652 80.5082 90.2577 80.1941 90.4634 79.7934C90.6692 79.3927 90.7721 78.9324 90.7721 78.4126C90.7721 77.8819 90.6638 77.4162 90.4472 77.0155C90.2414 76.6039 89.9544 76.2845 89.5862 76.057C89.218 75.8296 88.7902 75.7159 88.3028 75.7159C87.8155 75.7159 87.3877 75.835 87.0195 76.0733C86.6513 76.3007 86.3589 76.6202 86.1423 77.0317C85.9365 77.4324 85.8336 77.8927 85.8336 78.4126C85.8336 78.9216 85.9365 79.3818 86.1423 79.7934C86.3589 80.1941 86.6513 80.5082 87.0195 80.7356C87.3877 80.963 87.8155 81.0767 88.3028 81.0767ZM98.8824 82.8637C97.9835 82.8637 97.1875 82.6742 96.4944 82.2951C95.8121 81.9161 95.276 81.4016 94.8861 80.7518C94.5071 80.0912 94.3175 79.3385 94.3175 78.4938C94.3175 77.8223 94.4258 77.2104 94.6424 76.6581C94.859 76.1058 95.1569 75.6292 95.5359 75.2285C95.9258 74.817 96.3861 74.5029 96.9167 74.2863C97.4582 74.0589 98.0485 73.9452 98.6875 73.9452C99.2506 73.9452 99.7759 74.0535 100.263 74.2701C100.751 74.4867 101.173 74.7845 101.53 75.1636C101.888 75.5318 102.158 75.9758 102.343 76.4956C102.538 77.0047 102.63 77.5624 102.619 78.1689L102.602 78.8674H95.6659L95.2922 77.5028H100.929L100.669 77.779V77.4216C100.637 77.0859 100.529 76.7935 100.344 76.5444C100.16 76.2845 99.9221 76.0841 99.6297 75.9433C99.3481 75.7917 99.034 75.7159 98.6875 75.7159C98.1568 75.7159 97.7073 75.8188 97.3391 76.0245C96.9817 76.2303 96.711 76.5281 96.5269 76.918C96.3428 77.2971 96.2507 77.7736 96.2507 78.3476C96.2507 78.8999 96.3644 79.3818 96.5918 79.7934C96.8301 80.2049 97.1604 80.5244 97.5828 80.7518C98.016 80.9684 98.5196 81.0767 99.0936 81.0767C99.4943 81.0767 99.8625 81.0118 100.198 80.8818C100.534 80.7518 100.897 80.519 101.287 80.1833L102.278 81.5641C101.985 81.8348 101.649 82.0677 101.27 82.2626C100.902 82.4467 100.512 82.5929 100.101 82.7012C99.6892 82.8095 99.2831 82.8637 98.8824 82.8637ZM104.226 82.7012V74.1401H106.175L106.208 75.8946L105.834 76.0895C105.943 75.6996 106.154 75.3477 106.468 75.0336C106.782 74.7087 107.155 74.4488 107.589 74.2538C108.022 74.0589 108.466 73.9614 108.921 73.9614C109.571 73.9614 110.112 74.0914 110.545 74.3513C110.989 74.6112 111.32 75.0011 111.536 75.5209C111.764 76.0408 111.877 76.6906 111.877 77.4703V82.7012H109.879V77.6165C109.879 77.1833 109.82 76.826 109.701 76.5444C109.581 76.252 109.397 76.0408 109.148 75.9108C108.899 75.77 108.596 75.7051 108.238 75.7159C107.946 75.7159 107.675 75.7646 107.426 75.8621C107.188 75.9487 106.977 76.0787 106.793 76.252C106.619 76.4144 106.479 76.6039 106.37 76.8205C106.273 77.0371 106.224 77.2754 106.224 77.5353V82.7012H105.233C105.038 82.7012 104.854 82.7012 104.681 82.7012C104.518 82.7012 104.367 82.7012 104.226 82.7012ZM114.889 82.7012V71.9633H116.887V82.7012H114.889ZM113.199 75.992V74.1401H118.755V75.992H113.199ZM123.291 82.8637C122.533 82.8637 121.85 82.7391 121.244 82.49C120.648 82.2301 120.161 81.8619 119.782 81.3854L121.081 80.2645C121.406 80.6327 121.769 80.898 122.17 81.0605C122.571 81.2229 122.993 81.3042 123.437 81.3042C123.621 81.3042 123.784 81.2825 123.924 81.2392C124.076 81.1959 124.206 81.1309 124.314 81.0442C124.422 80.9576 124.504 80.8601 124.558 80.7518C124.623 80.6327 124.655 80.5027 124.655 80.362C124.655 80.102 124.558 79.8963 124.363 79.7446C124.255 79.6688 124.081 79.5876 123.843 79.501C123.616 79.4143 123.318 79.3277 122.95 79.241C122.365 79.0894 121.877 78.9161 121.488 78.7212C121.098 78.5154 120.794 78.288 120.578 78.0389C120.394 77.8331 120.253 77.6003 120.155 77.3404C120.069 77.0805 120.026 76.7989 120.026 76.4956C120.026 76.1166 120.107 75.7754 120.269 75.4722C120.442 75.1581 120.675 74.8874 120.968 74.66C121.26 74.4325 121.601 74.2592 121.991 74.1401C122.381 74.021 122.787 73.9614 123.21 73.9614C123.643 73.9614 124.06 74.0156 124.46 74.1239C124.872 74.2322 125.251 74.3892 125.598 74.595C125.955 74.7899 126.258 75.0282 126.507 75.3098L125.403 76.5281C125.197 76.3332 124.969 76.1599 124.72 76.0083C124.482 75.8567 124.238 75.7375 123.989 75.6509C123.74 75.5534 123.507 75.5047 123.291 75.5047C123.085 75.5047 122.901 75.5264 122.738 75.5697C122.576 75.6022 122.441 75.6563 122.332 75.7321C122.224 75.8079 122.137 75.9054 122.072 76.0245C122.018 76.1328 121.991 76.2628 121.991 76.4144C122.002 76.5444 122.034 76.6689 122.089 76.7881C122.154 76.8964 122.24 76.9884 122.349 77.0642C122.468 77.14 122.646 77.2267 122.885 77.3241C123.123 77.4216 123.432 77.5137 123.811 77.6003C124.341 77.7411 124.785 77.8981 125.143 78.0714C125.5 78.2447 125.782 78.445 125.987 78.6725C126.193 78.8674 126.339 79.0948 126.426 79.3548C126.513 79.6147 126.556 79.9017 126.556 80.2157C126.556 80.7248 126.41 81.1796 126.117 81.5803C125.836 81.981 125.446 82.2951 124.948 82.5225C124.46 82.75 123.908 82.8637 123.291 82.8637ZM135.089 81.9052V72.6781L135.691 73.4578L133.384 74.6275L132.913 72.7755L136.015 71.1673H137.185V81.9052H135.089ZM133.189 82.7012V80.7518H139.134V82.7012H133.189ZM145.039 82.8637C144.118 82.8637 143.328 82.6308 142.667 82.1651C142.017 81.6886 141.514 81.0172 141.156 80.1508C140.81 79.2735 140.636 78.2284 140.636 77.0155C140.636 75.8025 140.81 74.7628 141.156 73.8964C141.514 73.0192 142.017 72.3478 142.667 71.8821C143.328 71.4055 144.118 71.1673 145.039 71.1673C145.959 71.1673 146.75 71.4055 147.411 71.8821C148.071 72.3478 148.575 73.0192 148.921 73.8964C149.279 74.7628 149.458 75.8025 149.458 77.0155C149.458 78.2284 149.279 79.2735 148.921 80.1508C148.575 81.0172 148.071 81.6886 147.411 82.1651C146.75 82.6308 145.959 82.8637 145.039 82.8637ZM145.039 81.0118C145.797 81.0118 146.382 80.6652 146.793 79.9721C147.216 79.2681 147.427 78.2826 147.427 77.0155C147.427 75.7375 147.216 74.7466 146.793 74.0426C146.382 73.3387 145.797 72.9867 145.039 72.9867C144.281 72.9867 143.691 73.3387 143.268 74.0426C142.857 74.7466 142.651 75.7375 142.651 77.0155C142.651 78.2826 142.857 79.2681 143.268 79.9721C143.691 80.6652 144.281 81.0118 145.039 81.0118ZM153.5 81.9052V72.6781L154.101 73.4578L151.795 74.6275L151.323 72.7755L154.426 71.1673H155.596V81.9052H153.5ZM151.6 82.7012V80.7518H157.545V82.7012H151.6Z" fill="#000D3D"/>
</g>
<g filter="url(#filter2_d_14_676)">
<rect x="24" y="58.05" width="544" height="259" rx="16" fill="white" shape-rendering="crispEdges"/>
</g>
<defs>
<filter id="filter0_d_14_676" x="70.0376" y="0" width="451.925" height="261.1" filterUnits="userSpaceOnUse" color-interpolation-filters="sRGB">
<feFlood flood-opacity="0" result="BackgroundImageFix"/>
<feColorMatrix in="SourceAlpha" type="matrix" values="0 0 0 0 0 0 0 0 0 0 0 0 0 0 0 0 0 0 127 0" result="hardAlpha"/>
<feOffset dy="-4"/>
<feGaussianBlur stdDeviation="12"/>
<feComposite in2="hardAlpha" operator="out"/>
<feColorMatrix type="matrix" values="0 0 0 0 0 0 0 0 0 0 0 0 0 0 0 0 0 0 0.05 0"/>
<feBlend mode="normal" in2="BackgroundImageFix" result="effect1_dropShadow_14_676"/>
<feBlend mode="normal" in="SourceGraphic" in2="effect1_dropShadow_14_676" result="shape"/>
</filter>
<filter id="filter1_d_14_676" x="26.52" y="15.0413" width="538.96" height="307.017" filterUnits="userSpaceOnUse" color-interpolation-filters="sRGB">
<feFlood flood-opacity="0" result="BackgroundImageFix"/>
<feColorMatrix in="SourceAlpha" type="matrix" values="0 0 0 0 0 0 0 0 0 0 0 0 0 0 0 0 0 0 127 0" result="hardAlpha"/>
<feOffset dy="-4"/>
<feGaussianBlur stdDeviation="12"/>
<feComposite in2="hardAlpha" operator="out"/>
<feColorMatrix type="matrix" values="0 0 0 0 0 0 0 0 0 0 0 0 0 0 0 0 0 0 0.05 0"/>
<feBlend mode="normal" in2="BackgroundImageFix" result="effect1_dropShadow_14_676"/>
<feBlend mode="normal" in="SourceGraphic" in2="effect1_dropShadow_14_676" result="shape"/>
</filter>
<filter id="filter2_d_14_676" x="0" y="30.05" width="592" height="307" filterUnits="userSpaceOnUse" color-interpolation-filters="sRGB">
<feFlood flood-opacity="0" result="BackgroundImageFix"/>
<feColorMatrix in="SourceAlpha" type="matrix" values="0 0 0 0 0 0 0 0 0 0 0 0 0 0 0 0 0 0 127 0" result="hardAlpha"/>
<feOffset dy="-4"/>
<feGaussianBlur stdDeviation="12"/>
<feComposite in2="hardAlpha" operator="out"/>
<feColorMatrix type="matrix" values="0 0 0 0 0 0 0 0 0 0 0 0 0 0 0 0 0 0 0.05 0"/>
<feBlend mode="normal" in2="BackgroundImageFix" result="effect1_dropShadow_14_676"/>
<feBlend mode="normal" in="SourceGraphic" in2="effect1_dropShadow_14_676" result="shape"/>
</filter>
</defs>
</svg>
