<svg width="54" height="55" viewBox="0 0 54 55" fill="none" xmlns="http://www.w3.org/2000/svg">
<rect y="0.529297" width="54" height="54" rx="8" fill="#F3F5F8"/>
<path d="M21.9114 14.2063L27.3892 23.0496C28.2294 24.255 27.3669 25.9076 25.8975 25.9076H14.7462C13.2769 25.9076 12.4143 24.255 13.2546 23.0496L18.928 14.2063C19.6516 13.1682 21.1878 13.1682 21.9114 14.2063Z" fill="#B9C5D4"/>
<path d="M28.2979 31.7091L28.2979 39.4502C28.2979 40.6346 29.258 41.5947 30.4424 41.5947L38.1834 41.5947C39.3679 41.5947 40.328 40.6346 40.328 39.4502L40.328 31.7091C40.328 30.5247 39.3679 29.5646 38.1834 29.5646L30.4424 29.5646C29.258 29.5646 28.2979 30.5247 28.2979 31.7091Z" fill="#B9C5D4"/>
<path d="M26.9976 34.5861C30.888 34.5861 34.0417 31.4324 34.0417 27.5421C34.0417 23.6518 30.888 20.498 26.9976 20.498C23.1073 20.498 19.9536 23.6518 19.9536 27.5421C19.9536 31.4324 23.1073 34.5861 26.9976 34.5861Z" fill="#5F38FB"/>
<g filter="url(#filter0_b_3542_1267)">
<path d="M40.5608 21.9107C40.2431 22.2284 39.8039 22.4251 39.3191 22.4249C38.3492 22.4251 37.5629 21.6388 37.5632 20.6689L37.5629 17.0377L33.9322 17.038C32.9621 17.038 32.1758 16.2517 32.1758 15.2821C32.1758 14.312 32.9621 13.5262 33.9317 13.5257L39.3188 13.5254C39.7847 13.5257 40.2315 13.7105 40.5608 14.0398C40.8901 14.3691 41.0752 14.8156 41.075 15.2816V20.6689C41.0752 21.1537 40.8785 21.593 40.5608 21.9107Z" fill="#5F38FB"/>
</g>
<g filter="url(#filter1_b_3542_1267)">
<path d="M13.439 33.2456C13.7567 32.9279 14.1959 32.7312 14.6807 32.7314C15.6506 32.7312 16.4369 33.5175 16.4366 34.4874L16.4369 38.1186L20.0676 38.1183C21.0377 38.1183 21.824 38.9046 21.824 39.8742C21.824 40.8438 21.0377 41.6301 20.0681 41.6306L14.681 41.6309C14.2151 41.6306 13.7683 41.4458 13.439 41.1165C13.1097 40.7872 12.9245 40.3407 12.9248 39.8747V34.4874C12.9245 34.0026 13.1213 33.5633 13.439 33.2456Z" fill="#5F38FB"/>
</g>
<defs>
<filter id="filter0_b_3542_1267" x="30.6148" y="11.9644" width="12.0214" height="12.0214" filterUnits="userSpaceOnUse" color-interpolation-filters="sRGB">
<feFlood flood-opacity="0" result="BackgroundImageFix"/>
<feGaussianBlur in="BackgroundImageFix" stdDeviation="0.780488"/>
<feComposite in2="SourceAlpha" operator="in" result="effect1_backgroundBlur_3542_1267"/>
<feBlend mode="normal" in="SourceGraphic" in2="effect1_backgroundBlur_3542_1267" result="shape"/>
</filter>
<filter id="filter1_b_3542_1267" x="11.3638" y="31.1705" width="12.0214" height="12.0214" filterUnits="userSpaceOnUse" color-interpolation-filters="sRGB">
<feFlood flood-opacity="0" result="BackgroundImageFix"/>
<feGaussianBlur in="BackgroundImageFix" stdDeviation="0.780488"/>
<feComposite in2="SourceAlpha" operator="in" result="effect1_backgroundBlur_3542_1267"/>
<feBlend mode="normal" in="SourceGraphic" in2="effect1_backgroundBlur_3542_1267" result="shape"/>
</filter>
</defs>
</svg>
