<svg xmlns="http://www.w3.org/2000/svg" width="32" height="32" viewBox="0 0 32 32" fill="none">
  <path d="M10.9114 2.6771L16.3892 11.5204C17.2294 12.7259 16.3669 14.3785 14.8975 14.3785H3.74624C2.27686 14.3785 1.41434 12.7259 2.25457 11.5204L7.92804 2.6771C8.65159 1.63905 10.1878 1.63905 10.9114 2.6771Z" fill="#B9C5D4"/>
  <path d="M17.2979 20.1803L17.2979 27.9213C17.2979 29.1057 18.258 30.0659 19.4424 30.0659L27.1834 30.0659C28.3679 30.0659 29.328 29.1057 29.328 27.9213L29.328 20.1803C29.328 18.9958 28.3679 18.0357 27.1834 18.0357L19.4424 18.0357C18.258 18.0357 17.2979 18.9958 17.2979 20.1803Z" fill="#B9C5D4"/>
  <path d="M15.9976 23.0574C19.888 23.0574 23.0417 19.9037 23.0417 16.0134C23.0417 12.1231 19.888 8.96936 15.9976 8.96936C12.1073 8.96936 8.95361 12.1231 8.95361 16.0134C8.95361 19.9037 12.1073 23.0574 15.9976 23.0574Z" fill="#5F38FB"/>
  <g filter="url(#filter0_b_3575_3725)">
    <path d="M29.5608 10.3816C29.2431 10.6993 28.8039 10.896 28.3191 10.8957C27.3492 10.896 26.5629 10.1097 26.5632 9.13983L26.5629 5.50864L22.9322 5.5089C21.9621 5.5089 21.1758 4.72257 21.1758 3.753C21.1758 2.78288 21.9621 1.99709 22.9317 1.99655L28.3188 1.99628C28.7847 1.99655 29.2315 2.18141 29.5608 2.51071C29.8901 2.84001 30.0752 3.28653 30.075 3.75246V9.13983C30.0752 9.62462 29.8785 10.0639 29.5608 10.3816Z" fill="#5F38FB"/>
  </g>
  <g filter="url(#filter1_b_3575_3725)">
    <path d="M2.43897 21.7162C2.75668 21.3984 3.19593 21.2017 3.68072 21.202C4.65056 21.2017 5.43689 21.9881 5.43663 22.9579L5.43689 26.5891L9.06756 26.5888C10.0377 26.5888 10.824 27.3752 10.824 28.3447C10.824 29.3143 10.0377 30.1007 9.06809 30.1012L3.68099 30.1015C3.21506 30.1012 2.76827 29.9163 2.43897 29.587C2.10966 29.2577 1.92454 28.8112 1.9248 28.3453V22.9579C1.92454 22.4731 2.12125 22.0339 2.43897 21.7162Z" fill="#5F38FB"/>
  </g>
  <defs>
    <filter id="filter0_b_3575_3725" x="19.6148" y="0.435301" width="12.0214" height="12.0214" filterUnits="userSpaceOnUse" color-interpolation-filters="sRGB">
      <feFlood flood-opacity="0" result="BackgroundImageFix"/>
      <feGaussianBlur in="BackgroundImageFix" stdDeviation="0.780488"/>
      <feComposite in2="SourceAlpha" operator="in" result="effect1_backgroundBlur_3575_3725"/>
      <feBlend mode="normal" in="SourceGraphic" in2="effect1_backgroundBlur_3575_3725" result="shape"/>
    </filter>
    <filter id="filter1_b_3575_3725" x="0.363829" y="19.641" width="12.0214" height="12.0214" filterUnits="userSpaceOnUse" color-interpolation-filters="sRGB">
      <feFlood flood-opacity="0" result="BackgroundImageFix"/>
      <feGaussianBlur in="BackgroundImageFix" stdDeviation="0.780488"/>
      <feComposite in2="SourceAlpha" operator="in" result="effect1_backgroundBlur_3575_3725"/>
      <feBlend mode="normal" in="SourceGraphic" in2="effect1_backgroundBlur_3575_3725" result="shape"/>
    </filter>
  </defs>
</svg>