<svg width="54" height="54" viewBox="0 0 54 54" fill="none" xmlns="http://www.w3.org/2000/svg">
<rect width="54" height="54" rx="8" fill="#EAFCF1"/>
<path d="M21.9114 13.6771L27.3892 22.5204C28.2294 23.7259 27.3669 25.3785 25.8975 25.3785H14.7462C13.2769 25.3785 12.4143 23.7259 13.2546 22.5204L18.928 13.6771C19.6516 12.639 21.1878 12.639 21.9114 13.6771Z" fill="#C9F8DC"/>
<path d="M28.2979 31.1803L28.2979 38.9213C28.2979 40.1057 29.258 41.0659 30.4424 41.0659L38.1834 41.0659C39.3679 41.0659 40.328 40.1057 40.328 38.9213L40.328 31.1803C40.328 29.9958 39.3679 29.0357 38.1834 29.0357L30.4424 29.0357C29.258 29.0357 28.2979 29.9958 28.2979 31.1803Z" fill="#C9F8DC"/>
<g filter="url(#filter0_bd_3308_1245)">
<path d="M26.9974 34.0574C30.8877 34.0574 34.0414 30.9037 34.0414 27.0134C34.0414 23.1231 30.8877 19.9694 26.9974 19.9694C23.1071 19.9694 19.9534 23.1231 19.9534 27.0134C19.9534 30.9037 23.1071 34.0574 26.9974 34.0574Z" fill="url(#paint0_linear_3308_1245)" shape-rendering="crispEdges"/>
<path d="M33.8463 27.0134C33.8463 30.7959 30.78 33.8623 26.9974 33.8623C23.2149 33.8623 20.1485 30.7959 20.1485 27.0134C20.1485 23.2308 23.2149 20.1645 26.9974 20.1645C30.78 20.1645 33.8463 23.2308 33.8463 27.0134Z" stroke="url(#paint1_linear_3308_1245)" stroke-width="0.390244" shape-rendering="crispEdges"/>
</g>
<g filter="url(#filter1_b_3308_1245)">
<path d="M40.5608 21.3816C40.2431 21.6993 39.8039 21.896 39.3191 21.8957C38.3492 21.896 37.5629 21.1097 37.5632 20.1398L37.5629 16.5086L33.9322 16.5089C32.9621 16.5089 32.1758 15.7226 32.1758 14.753C32.1758 13.7829 32.9621 12.9971 33.9317 12.9965L39.3188 12.9963C39.7847 12.9965 40.2315 13.1814 40.5608 13.5107C40.8901 13.84 41.0752 14.2865 41.075 14.7525V20.1398C41.0752 20.6246 40.8785 21.0639 40.5608 21.3816Z" fill="url(#paint2_linear_3308_1245)"/>
<path d="M39.319 21.7006H39.3192C39.75 21.7009 40.1402 21.5262 40.4228 21.2436C40.7055 20.961 40.8801 20.5708 40.8799 20.1399V20.1398V14.7525V14.7523C40.8801 14.3383 40.7156 13.9414 40.4228 13.6487C40.1302 13.3561 39.7331 13.1917 39.3188 13.1914L39.319 21.7006ZM39.319 21.7006C38.457 21.7009 37.758 21.0019 37.7583 20.1399V20.1398L37.758 16.5086L37.758 16.3135L37.5629 16.3135L33.9322 16.3138C33.9322 16.3138 33.9322 16.3138 33.9322 16.3138C33.0698 16.3138 32.3709 15.6148 32.3709 14.753C32.3709 13.8907 33.0698 13.1922 33.9317 13.1917C33.9317 13.1917 33.9318 13.1917 33.9318 13.1917L39.3187 13.1914L39.319 21.7006Z" stroke="url(#paint3_linear_3308_1245)" stroke-width="0.390244"/>
</g>
<g filter="url(#filter2_b_3308_1245)">
<path d="M13.439 32.7162C13.7567 32.3985 14.1959 32.2018 14.6807 32.202C15.6506 32.2018 16.4369 32.9881 16.4366 33.9579L16.4369 37.5891L20.0676 37.5889C21.0377 37.5889 21.824 38.3752 21.824 39.3448C21.824 40.3144 21.0377 41.1007 20.0681 41.1012L14.681 41.1015C14.2151 41.1012 13.7683 40.9164 13.439 40.5871C13.1097 40.2578 12.9245 39.8112 12.9248 39.3453V33.9579C12.9245 33.4731 13.1213 33.0339 13.439 32.7162Z" fill="url(#paint4_linear_3308_1245)"/>
<path d="M16.2415 33.9579V33.958L16.2418 37.5891L16.2418 37.7843L16.4369 37.7843L20.0676 37.784C20.0676 37.784 20.0676 37.784 20.0676 37.784C20.93 37.784 21.6289 38.483 21.6289 39.3448C21.6289 40.2066 20.9299 40.9056 20.068 40.9061L14.6811 40.9064C14.2668 40.9061 13.8696 40.7417 13.5769 40.4491C13.2842 40.1564 13.1197 39.7595 13.1199 39.3454V39.3453L13.1199 33.9579L13.1199 33.9578C13.1197 33.527 13.2943 33.1368 13.5769 32.8542C13.8596 32.5715 14.2497 32.3969 14.6806 32.3971L14.6808 32.3971C15.5428 32.3969 16.2417 33.0958 16.2415 33.9579Z" stroke="url(#paint5_linear_3308_1245)" stroke-width="0.390244"/>
</g>
<defs>
<filter id="filter0_bd_3308_1245" x="12.1485" y="12.1645" width="37.5026" height="37.5027" filterUnits="userSpaceOnUse" color-interpolation-filters="sRGB">
<feFlood flood-opacity="0" result="BackgroundImageFix"/>
<feGaussianBlur in="BackgroundImageFix" stdDeviation="3.90244"/>
<feComposite in2="SourceAlpha" operator="in" result="effect1_backgroundBlur_3308_1245"/>
<feColorMatrix in="SourceAlpha" type="matrix" values="0 0 0 0 0 0 0 0 0 0 0 0 0 0 0 0 0 0 127 0" result="hardAlpha"/>
<feOffset dx="3.90244" dy="3.90244"/>
<feGaussianBlur stdDeviation="5.85366"/>
<feComposite in2="hardAlpha" operator="out"/>
<feColorMatrix type="matrix" values="0 0 0 0 0.0196078 0 0 0 0 0.6 0 0 0 0 0.290196 0 0 0 0.3 0"/>
<feBlend mode="normal" in2="effect1_backgroundBlur_3308_1245" result="effect2_dropShadow_3308_1245"/>
<feBlend mode="normal" in="SourceGraphic" in2="effect2_dropShadow_3308_1245" result="shape"/>
</filter>
<filter id="filter1_b_3308_1245" x="30.6148" y="11.4353" width="12.0211" height="12.0214" filterUnits="userSpaceOnUse" color-interpolation-filters="sRGB">
<feFlood flood-opacity="0" result="BackgroundImageFix"/>
<feGaussianBlur in="BackgroundImageFix" stdDeviation="0.780488"/>
<feComposite in2="SourceAlpha" operator="in" result="effect1_backgroundBlur_3308_1245"/>
<feBlend mode="normal" in="SourceGraphic" in2="effect1_backgroundBlur_3308_1245" result="shape"/>
</filter>
<filter id="filter2_b_3308_1245" x="11.3638" y="30.6411" width="12.0211" height="12.0214" filterUnits="userSpaceOnUse" color-interpolation-filters="sRGB">
<feFlood flood-opacity="0" result="BackgroundImageFix"/>
<feGaussianBlur in="BackgroundImageFix" stdDeviation="0.780488"/>
<feComposite in2="SourceAlpha" operator="in" result="effect1_backgroundBlur_3308_1245"/>
<feBlend mode="normal" in="SourceGraphic" in2="effect1_backgroundBlur_3308_1245" result="shape"/>
</filter>
<linearGradient id="paint0_linear_3308_1245" x1="20.2259" y1="19.9694" x2="35.1913" y2="35.5475" gradientUnits="userSpaceOnUse">
<stop offset="0.182224" stop-color="#2DE376" stop-opacity="0.5"/>
<stop offset="0.640234" stop-color="#2DE376" stop-opacity="0.9"/>
</linearGradient>
<linearGradient id="paint1_linear_3308_1245" x1="19.9534" y1="18.3301" x2="33.6622" y2="34.6474" gradientUnits="userSpaceOnUse">
<stop offset="0.249921" stop-color="#2DE376"/>
<stop offset="0.470896" stop-color="#2DE376" stop-opacity="0"/>
<stop offset="0.816545" stop-color="#35C168"/>
</linearGradient>
<linearGradient id="paint2_linear_3308_1245" x1="38.4271" y1="28.5154" x2="33.5648" y2="8.80829" gradientUnits="userSpaceOnUse">
<stop offset="0.0822725" stop-color="#8566FF" stop-opacity="0.3"/>
<stop offset="0.423605" stop-color="#5F38FB" stop-opacity="0.5"/>
<stop offset="0.762303" stop-color="#5F38FB" stop-opacity="0.7"/>
</linearGradient>
<linearGradient id="paint3_linear_3308_1245" x1="36.6254" y1="32.4873" x2="35.462" y2="6.05931" gradientUnits="userSpaceOnUse">
<stop offset="0.137498" stop-color="#AF9BFD"/>
<stop offset="0.410212" stop-color="#5F38FB" stop-opacity="0"/>
<stop offset="0.835001" stop-color="#5F38FB"/>
</linearGradient>
<linearGradient id="paint4_linear_3308_1245" x1="19.1761" y1="47.7212" x2="14.3138" y2="28.014" gradientUnits="userSpaceOnUse">
<stop offset="0.0822725" stop-color="#8566FF" stop-opacity="0.3"/>
<stop offset="0.423605" stop-color="#5F38FB" stop-opacity="0.5"/>
<stop offset="0.762303" stop-color="#5F38FB" stop-opacity="0.7"/>
</linearGradient>
<linearGradient id="paint5_linear_3308_1245" x1="17.3744" y1="51.6931" x2="16.2111" y2="25.2651" gradientUnits="userSpaceOnUse">
<stop offset="0.137498" stop-color="#AF9BFD"/>
<stop offset="0.410212" stop-color="#5F38FB" stop-opacity="0"/>
<stop offset="0.835001" stop-color="#5F38FB"/>
</linearGradient>
</defs>
</svg>
