<?xml version="1.0" encoding="UTF-8"?>
<svg id="Layer_2" xmlns="http://www.w3.org/2000/svg" width="1274.55" height="845.02" xmlns:xlink="http://www.w3.org/1999/xlink" viewBox="0 0 1274.55 845.02">
  <defs>
    <linearGradient id="linear-gradient" x1="1040.48" y1="334.8" x2="1041.04" y2="459.84" gradientUnits="userSpaceOnUse">
      <stop offset=".22" stop-color="#dde3eb"/>
      <stop offset=".47" stop-color="#e8eef3"/>
      <stop offset=".53" stop-color="#dee5ec"/>
      <stop offset=".63" stop-color="#c3d0dc"/>
      <stop offset=".69" stop-color="#aebecf"/>
    </linearGradient>
    <linearGradient id="linear-gradient-2" x1="1040.48" y1="480.13" x2="1041.04" y2="605.17" xlink:href="#linear-gradient"/>
    <linearGradient id="linear-gradient-3" x1="1040.48" y1="624.13" x2="1041.04" y2="749.17" xlink:href="#linear-gradient"/>
    <linearGradient id="linear-gradient-4" x1="1219.08" y1="554.78" x2="1219.64" y2="679.82" xlink:href="#linear-gradient"/>
    <linearGradient id="linear-gradient-5" x1="1219.08" y1="404.6" x2="1219.64" y2="529.63" xlink:href="#linear-gradient"/>
  </defs>
  <g id="Layer_1-2" data-name="Layer_1">
    <g>
      <path d="M399.01,385.21h-5.89c-3.15,0-5.72-2.56-5.72-5.72v-5.89c0-3.15,2.56-5.72,5.72-5.72h5.89c3.15,0,5.72,2.56,5.72,5.72v5.89c0,3.15-2.56,5.72-5.72,5.72ZM393.12,370.49c-1.72,0-3.12,1.4-3.12,3.12v5.89c0,1.72,1.4,3.12,3.12,3.12h5.89c1.72,0,3.12-1.4,3.12-3.12v-5.89c0-1.72-1.4-3.12-3.12-3.12h-5.89Z" fill="#dce2ea"/>
      <rect x="402.39" y="375.84" width="136.05" height="2.6" fill="#dce2ea"/>
      <path d="M474.15,377.58h-2.6v-28.75c0-7.52,6.12-13.63,13.63-13.63h54.59v2.6h-54.59c-6.08,0-11.03,4.95-11.03,11.03v28.75Z" fill="#dce2ea"/>
      <path d="M539.77,418.19h-54.59c-7.52,0-13.63-6.11-13.63-13.63v-28.75h2.6v28.75c0,6.08,4.95,11.03,11.03,11.03h54.59v2.6Z" fill="#dce2ea"/>
      <path d="M327.08,394.05h-5.89c-3.15,0-5.72-2.56-5.72-5.72v-5.89c0-3.15,2.56-5.72,5.72-5.72h5.89c3.15,0,5.72,2.56,5.72,5.72v5.89c0,3.15-2.56,5.72-5.72,5.72ZM321.19,379.32c-1.72,0-3.12,1.4-3.12,3.12v5.89c0,1.72,1.4,3.12,3.12,3.12h5.89c1.72,0,3.12-1.4,3.12-3.12v-5.89c0-1.72-1.4-3.12-3.12-3.12h-5.89Z" fill="#dce2ea"/>
      <rect x="322.25" y="391.72" width="2.6" height="136.05" fill="#dce2ea"/>
      <path d="M155.18,681.97h-5.89c-3.15,0-5.72-2.56-5.72-5.72v-5.89c0-3.15,2.56-5.72,5.72-5.72h5.89c3.15,0,5.72,2.56,5.72,5.72v5.89c0,3.15-2.56,5.72-5.72,5.72ZM149.29,667.25c-1.72,0-3.12,1.4-3.12,3.12v5.89c0,1.72,1.4,3.12,3.12,3.12h5.89c1.72,0,3.12-1.4,3.12-3.12v-5.89c0-1.72-1.4-3.12-3.12-3.12h-5.89Z" fill="#dce2ea"/>
      <path d="M89.58,740.72h-5.89c-3.15,0-5.72-2.56-5.72-5.72v-5.89c0-3.15,2.56-5.72,5.72-5.72h5.89c3.15,0,5.72,2.56,5.72,5.72v5.89c0,3.15-2.56,5.72-5.72,5.72ZM83.69,726c-1.72,0-3.12,1.4-3.12,3.12v5.89c0,1.72,1.4,3.12,3.12,3.12h5.89c1.72,0,3.12-1.4,3.12-3.12v-5.89c0-1.72-1.4-3.12-3.12-3.12h-5.89Z" fill="#dce2ea"/>
      <path d="M145.09,674.83h-42.04c-9.2,0-16.69-7.49-16.69-16.69v-72.07h2.6v72.07c0,7.77,6.32,14.09,14.09,14.09h42.04v2.6Z" fill="#dce2ea"/>
      <rect x="85.93" y="589.68" width="2.6" height="136.05" fill="#dce2ea"/>
      <path d="M757.24,789.9h-5.89c-3.15,0-5.72-2.56-5.72-5.72v-5.89c0-3.15,2.56-5.72,5.72-5.72h5.89c3.15,0,5.72,2.56,5.72,5.72v5.89c0,3.15-2.56,5.72-5.72,5.72ZM751.35,775.17c-1.72,0-3.12,1.4-3.12,3.12v5.89c0,1.72,1.4,3.12,3.12,3.12h5.89c1.72,0,3.12-1.4,3.12-3.12v-5.89c0-1.72-1.4-3.12-3.12-3.12h-5.89Z" fill="#dce2ea"/>
      <path d="M692.75,828.99h-5.89c-3.15,0-5.72-2.56-5.72-5.72v-5.89c0-3.15,2.56-5.72,5.72-5.72h5.89c3.15,0,5.72,2.56,5.72,5.72v5.89c0,3.15-2.56,5.72-5.72,5.72ZM686.86,814.27c-1.72,0-3.12,1.4-3.12,3.12v5.89c0,1.72,1.4,3.12,3.12,3.12h5.89c1.72,0,3.12-1.4,3.12-3.12v-5.89c0-1.72-1.4-3.12-3.12-3.12h-5.89Z" fill="#dce2ea"/>
      <path d="M747.15,782.76h-42.04c-9.2,0-16.69-7.49-16.69-16.69v-72.07h2.6v72.07c0,7.77,6.32,14.09,14.09,14.09h42.04v2.6Z" fill="#dce2ea"/>
      <rect x="687.99" y="697.6" width="2.6" height="115.29" fill="#dce2ea"/>
      <path d="M887.62,643.62h-5.89c-3.15,0-5.72-2.56-5.72-5.72v-5.89c0-3.15,2.56-5.72,5.72-5.72h5.89c3.15,0,5.72,2.56,5.72,5.72v5.89c0,3.15-2.56,5.72-5.72,5.72ZM881.73,628.89c-1.72,0-3.12,1.4-3.12,3.12v5.89c0,1.72,1.4,3.12,3.12,3.12h5.89c1.72,0,3.12-1.4,3.12-3.12v-5.89c0-1.72-1.4-3.12-3.12-3.12h-5.89Z" fill="#dce2ea"/>
      <rect x="742.29" y="634.24" width="136.05" height="2.6" fill="#dce2ea"/>
      <path d="M1044.43,284.5h-5.89c-3.15,0-5.72-2.56-5.72-5.72v-5.89c0-3.15,2.56-5.72,5.72-5.72h5.89c3.15,0,5.72,2.56,5.72,5.72v5.89c0,3.15-2.56,5.72-5.72,5.72ZM1038.54,269.78c-1.72,0-3.12,1.4-3.12,3.12v5.89c0,1.72,1.4,3.12,3.12,3.12h5.89c1.72,0,3.12-1.4,3.12-3.12v-5.89c0-1.72-1.4-3.12-3.12-3.12h-5.89Z" fill="#dce2ea"/>
      <rect x="1039.6" y="282.17" width="2.6" height="136.05" fill="#dce2ea"/>
      <path d="M923.91,461.11h-5.89c-3.15,0-5.72-2.56-5.72-5.72v-5.89c0-3.15,2.56-5.72,5.72-5.72h5.89c3.15,0,5.72,2.56,5.72,5.72v5.89c0,3.15-2.56,5.72-5.72,5.72ZM918.02,446.39c-1.72,0-3.12,1.4-3.12,3.12v5.89c0,1.72,1.4,3.12,3.12,3.12h5.89c1.72,0,3.12-1.4,3.12-3.12v-5.89c0-1.72-1.4-3.12-3.12-3.12h-5.89Z" fill="#dce2ea"/>
      <rect x="927.3" y="451.74" width="136.05" height="2.6" fill="#dce2ea"/>
      <path d="M790.88,284.5h-5.89c-3.15,0-5.72-2.56-5.72-5.72v-5.89c0-3.15,2.56-5.72,5.72-5.72h5.89c3.15,0,5.72,2.56,5.72,5.72v5.89c0,3.15-2.56,5.72-5.72,5.72ZM784.99,269.78c-1.72,0-3.12,1.4-3.12,3.12v5.89c0,1.72,1.4,3.12,3.12,3.12h5.89c1.72,0,3.12-1.4,3.12-3.12v-5.89c0-1.72-1.4-3.12-3.12-3.12h-5.89Z" fill="#dce2ea"/>
      <rect x="786.05" y="282.17" width="2.6" height="136.05" fill="#dce2ea"/>
      <path d="M551.45,147h-2.6v-42.04c0-9.2,7.49-16.69,16.69-16.69h72.07v2.6h-72.07c-7.77,0-14.09,6.32-14.09,14.09v42.04Z" fill="#dce2ea"/>
      <path d="M553.31,162.81h-5.89c-3.15,0-5.72-2.56-5.72-5.72v-5.89c0-3.15,2.56-5.72,5.72-5.72h5.89c3.15,0,5.72,2.56,5.72,5.72v5.89c0,3.15-2.56,5.72-5.72,5.72ZM547.42,148.08c-1.72,0-3.12,1.4-3.12,3.12v5.89c0,1.72,1.4,3.12,3.12,3.12h5.89c1.72,0,3.12-1.4,3.12-3.12v-5.89c0-1.72-1.4-3.12-3.12-3.12h-5.89Z" fill="#dce2ea"/>
      <path d="M494.56,97.21h-5.89c-3.15,0-5.72-2.56-5.72-5.72v-5.89c0-3.15,2.56-5.72,5.72-5.72h5.89c3.15,0,5.72,2.56,5.72,5.72v5.89c0,3.15-2.56,5.72-5.72,5.72ZM488.67,82.49c-1.72,0-3.12,1.4-3.12,3.12v5.89c0,1.72,1.4,3.12,3.12,3.12h5.89c1.72,0,3.12-1.4,3.12-3.12v-5.89c0-1.72-1.4-3.12-3.12-3.12h-5.89Z" fill="#dce2ea"/>
      <rect x="497.95" y="87.84" width="136.05" height="2.6" fill="#dce2ea"/>
      <path d="M815.69,97.87h-72.07v-2.6h72.07c7.77,0,14.09-6.32,14.09-14.09v-42.04h2.6v42.04c0,9.2-7.49,16.69-16.69,16.69Z" fill="#dce2ea"/>
      <path d="M833.8,40.67h-5.89c-3.15,0-5.72-2.56-5.72-5.72v-5.89c0-3.15,2.56-5.72,5.72-5.72h5.89c3.15,0,5.72,2.56,5.72,5.72v5.89c0,3.15-2.56,5.72-5.72,5.72ZM827.91,25.95c-1.72,0-3.12,1.4-3.12,3.12v5.89c0,1.72,1.4,3.12,3.12,3.12h5.89c1.72,0,3.12-1.4,3.12-3.12v-5.89c0-1.72-1.4-3.12-3.12-3.12h-5.89Z" fill="#dce2ea"/>
      <path d="M892.55,106.27h-5.89c-3.15,0-5.72-2.56-5.72-5.72v-5.89c0-3.15,2.56-5.72,5.72-5.72h5.89c3.15,0,5.72,2.56,5.72,5.72v5.89c0,3.15-2.56,5.72-5.72,5.72ZM886.66,91.54c-1.72,0-3.12,1.4-3.12,3.12v5.89c0,1.72,1.4,3.12,3.12,3.12h5.89c1.72,0,3.12-1.4,3.12-3.12v-5.89c0-1.72-1.4-3.12-3.12-3.12h-5.89Z" fill="#dce2ea"/>
      <rect x="747.23" y="95.72" width="136.05" height="2.6" fill="#dce2ea"/>
      <g>
        <rect x="597.32" y=".5" width="185.52" height="185.52" rx="19.88" ry="19.88" fill="#e8ecf1"/>
        <path d="M762.96,186.52h-145.77c-11.24,0-20.38-9.14-20.38-20.38V20.38c0-11.24,9.14-20.38,20.38-20.38h145.77c11.24,0,20.38,9.14,20.38,20.38v145.77c0,11.24-9.14,20.38-20.38,20.38ZM617.2,1c-10.68,0-19.38,8.69-19.38,19.38v145.77c0,10.68,8.69,19.38,19.38,19.38h145.77c10.68,0,19.38-8.69,19.38-19.38V20.38c0-10.68-8.69-19.38-19.38-19.38h-145.77Z"/>
      </g>
      <path d="M617.2,6.5h145.77c7.66,0,13.88,6.22,13.88,13.88v145.77c0,7.66-6.22,13.88-13.88,13.88h-145.77c-7.66,0-13.88-6.22-13.88-13.88V20.38c0-7.66,6.22-13.88,13.88-13.88Z" transform="translate(783.34 -596.82) rotate(90)" fill="#fff"/>
      <g>
        <g>
          <rect x="683.7" y="67.92" width="12.34" height="12.34" fill="#000d3d"/>
          <rect x="696.04" y="56.99" width="10.93" height="10.93" fill="#000d3d"/>
          <rect x="672.77" y="56.99" width="10.93" height="10.93" fill="#000d3d"/>
        </g>
        <circle cx="689.87" cy="42.61" r="4.96" fill="#000d3d"/>
        <g>
          <circle cx="665.43" cy="82.49" r="4.96" fill="#000d3d"/>
          <circle cx="714.37" cy="82.44" r="4.96" fill="#000d3d"/>
        </g>
      </g>
      <g>
        <path d="M654.12,120.63c-1.01-1.1-2.22-1.94-3.64-2.53-1.42-.58-3-.88-4.76-.88h-9.62v24.59h9.62c1.76,0,3.35-.29,4.78-.88,1.43-.58,2.64-1.42,3.64-2.51,1-1.09,1.76-2.39,2.3-3.9.54-1.51.81-3.18.81-5.01s-.27-3.49-.81-4.99c-.54-1.5-1.31-2.8-2.32-3.9ZM652.85,133.13c-.35,1.08-.86,1.98-1.53,2.72-.67.74-1.49,1.31-2.46,1.7-.97.4-2.08.6-3.32.6h-5.66v-17.28h5.66c1.24,0,2.34.2,3.3.6.96.4,1.78.97,2.46,1.72.68.75,1.19,1.66,1.55,2.72.35,1.07.53,2.27.53,3.6s-.17,2.54-.53,3.62Z" fill="#000d3d"/>
        <path d="M675.77,125.51c-.76-.8-1.66-1.42-2.69-1.88-1.03-.46-2.14-.68-3.34-.68-1.36,0-2.62.24-3.78.72-1.16.48-2.15,1.16-2.99,2.04-.83.88-1.48,1.91-1.95,3.11-.47,1.19-.7,2.52-.7,3.97,0,1.83.42,3.44,1.25,4.85s1.98,2.51,3.44,3.32c1.46.81,3.14,1.21,5.04,1.21.87,0,1.75-.12,2.65-.37s1.76-.58,2.56-1c.81-.42,1.49-.91,2.06-1.48l-1.83-2.56c-.91.8-1.76,1.35-2.55,1.65-.79.3-1.63.46-2.55.46-1.29,0-2.42-.26-3.41-.77-.98-.51-1.74-1.25-2.28-2.2-.41-.72-.66-1.53-.76-2.44h14.11l.04-1.55c.02-1.29-.17-2.48-.58-3.56-.41-1.09-1-2.03-1.76-2.83ZM666.55,127c.87-.48,1.93-.72,3.2-.72.8,0,1.53.18,2.21.53.68.35,1.24.83,1.69,1.44.44.61.7,1.3.77,2.07v.25h-10.31c.11-.53.27-1.02.48-1.46.44-.92,1.1-1.63,1.97-2.11Z" fill="#000d3d"/>
        <rect x="682.11" y="115.82" width="3.62" height="25.99" fill="#000d3d"/>
        <polygon points="696.65 118.66 693.03 118.66 693.03 123.37 689.21 123.37 689.21 126.88 693.03 126.88 693.03 141.81 696.65 141.81 696.65 126.88 700.94 126.88 700.94 123.37 696.65 123.37 696.65 118.66" fill="#000d3d"/>
        <path d="M717.58,126.2c-.37-.6-.83-1.14-1.39-1.61-.6-.5-1.29-.9-2.09-1.18-.8-.28-1.67-.42-2.63-.42-1.62,0-3.07.41-4.37,1.23-1.3.82-2.33,1.95-3.09,3.39-.76,1.44-1.14,3.09-1.14,4.94s.37,3.47,1.12,4.92c.75,1.45,1.75,2.6,3,3.44,1.25.84,2.64,1.26,4.16,1.26.89,0,1.74-.14,2.55-.42.81-.28,1.55-.66,2.21-1.12.67-.47,1.22-1,1.65-1.6,0,0,.01-.02.02-.03v2.82h3.65v-18.44h-3.65v2.83ZM717,135.79c-.48.95-1.14,1.69-1.98,2.23-.84.54-1.81.81-2.92.81s-2.03-.27-2.86-.81c-.83-.54-1.49-1.28-1.97-2.23-.48-.95-.72-2.03-.72-3.25s.24-2.26.72-3.2c.48-.94,1.13-1.67,1.97-2.21.83-.54,1.79-.81,2.86-.81s2.07.27,2.92.81c.84.54,1.5,1.28,1.98,2.21.48.94.72,2,.72,3.2s-.24,2.3-.72,3.25Z" fill="#000d3d"/>
        <path d="M742.63,117.22l-5.44,14.93c-.35.91-.65,1.73-.9,2.46-.25.73-.46,1.39-.65,2-.03.1-.06.2-.09.3-.13-.38-.26-.77-.4-1.19-.16-.48-.36-1.01-.58-1.6-.22-.59-.47-1.24-.75-1.97l-5.87-14.93h-4.32l9.83,24.59h3.69l9.91-24.59h-4.43Z" fill="#000d3d"/>
      </g>
      <g>
        <rect x=".61" y="440.67" width="398.82" height="185.25" rx="20.86" ry="20.86" fill="#e8ecf1"/>
        <path d="M378.57,626.54H21.47c-11.84,0-21.47-9.63-21.47-21.47v-143.53c0-11.84,9.63-21.47,21.47-21.47h357.09c11.84,0,21.47,9.63,21.47,21.47v143.53c0,11.84-9.63,21.47-21.47,21.47ZM21.47,441.29c-11.17,0-20.25,9.08-20.25,20.25v143.53c0,11.17,9.08,20.25,20.25,20.25h357.09c11.17,0,20.25-9.08,20.25-20.25v-143.53c0-11.17-9.08-20.25-20.25-20.25H21.47Z"/>
      </g>
      <rect x="46.34" y="406.67" width="173.25" height="253.25" rx="17.77" ry="17.77" transform="translate(666.26 400.34) rotate(90)" fill="#d0d9e3"/>
      <rect x="180.18" y="406.67" width="173.25" height="253.25" rx="17.77" ry="17.77" transform="translate(800.1 266.49) rotate(90)" fill="#fff"/>
      <g>
        <path d="M178.81,558.72l-9.52,24.59h3.86l2.32-6.11h10.29l2.32,6.11h4.04l-9.45-24.59h-3.86ZM176.87,573.54l1.87-4.92c.14-.4.32-.9.53-1.49.21-.6.43-1.23.65-1.91.22-.68.43-1.32.63-1.93.04-.11.07-.2.1-.3,0,.03.01.05.02.07.21.64.45,1.35.7,2.12.26.77.49,1.48.68,2.11.2.63.33,1.03.4,1.19l1.92,5.06h-7.51Z" fill="#000d3d"/>
        <path d="M209.29,567.4c-.24-.31-.51-.6-.84-.88-.45-.38-.95-.72-1.51-1.04-.56-.32-1.17-.56-1.83-.74-.66-.17-1.33-.26-2.04-.26-1.71,0-3.25.42-4.62,1.25-1.37.83-2.45,1.97-3.23,3.41-.79,1.44-1.18,3.09-1.18,4.94s.4,3.49,1.19,4.93c.79,1.44,1.88,2.58,3.25,3.41,1.37.83,2.93,1.25,4.69,1.25,1.01,0,1.99-.21,2.95-.63s1.76-.97,2.41-1.63c.32-.33.57-.66.75-1v2.21c0,1.22-.22,2.24-.67,3.06-.45.82-1.1,1.44-1.97,1.86-.87.42-1.94.63-3.23.63-.68,0-1.37-.08-2.07-.23-.7-.15-1.37-.36-2-.63-.63-.27-1.18-.58-1.65-.93l-1.33,2.81c.8.66,1.84,1.19,3.14,1.6,1.3.41,2.61.61,3.92.61,1.47,0,2.8-.21,3.97-.61,1.17-.41,2.17-1.01,2.99-1.79s1.45-1.74,1.88-2.88.65-2.44.65-3.92v-17.32h-3.62v2.53ZM208.7,577.3c-.49.94-1.18,1.67-2.07,2.21-.89.54-1.91.81-3.06.81s-2.12-.27-3-.81c-.88-.54-1.57-1.28-2.07-2.23-.5-.95-.75-2.02-.75-3.21s.25-2.27.75-3.21c.5-.95,1.19-1.7,2.07-2.25.88-.55,1.88-.83,3-.83s2.16.27,3.04.81,1.57,1.28,2.07,2.23c.5.95.75,2.03.75,3.25s-.25,2.29-.74,3.23Z" fill="#000d3d"/>
        <path d="M232.28,567.01c-.76-.8-1.66-1.42-2.69-1.88-1.03-.46-2.14-.68-3.34-.68-1.36,0-2.62.24-3.78.72-1.16.48-2.15,1.16-2.99,2.04s-1.48,1.91-1.95,3.11c-.47,1.19-.7,2.52-.7,3.97,0,1.83.42,3.44,1.25,4.85.83,1.4,1.98,2.51,3.44,3.32,1.46.81,3.14,1.21,5.04,1.21.87,0,1.75-.12,2.65-.37s1.76-.58,2.56-1c.81-.42,1.49-.91,2.06-1.48l-1.83-2.56c-.91.8-1.76,1.35-2.55,1.65-.79.3-1.63.46-2.55.46-1.29,0-2.42-.26-3.41-.77-.98-.51-1.74-1.25-2.28-2.2-.41-.72-.66-1.53-.76-2.44h14.11l.04-1.55c.02-1.29-.17-2.48-.58-3.56-.41-1.09-1-2.03-1.76-2.83ZM230.93,572.07h-10.31c.11-.53.27-1.02.48-1.46.44-.92,1.1-1.63,1.97-2.11.87-.48,1.93-.72,3.2-.72.8,0,1.53.18,2.21.53.68.35,1.24.83,1.69,1.44.44.61.7,1.3.77,2.07v.25Z" fill="#000d3d"/>
        <path d="M251.72,565.31c-.94-.55-2.11-.83-3.51-.83-.98,0-1.94.22-2.88.65-.94.43-1.74,1-2.42,1.69-.29.29-.53.6-.74.92v-2.87h-3.62v18.44h3.62v-11.17c0-.61.12-1.18.37-1.7.25-.53.58-.99,1.02-1.39.43-.4.94-.71,1.53-.93.58-.22,1.23-.33,1.93-.33.87-.05,1.59.09,2.18.4.58.32,1.02.82,1.3,1.51.28.69.42,1.56.42,2.62v10.99h3.62v-11.24c0-1.71-.23-3.13-.7-4.25-.47-1.12-1.17-1.96-2.11-2.51Z" fill="#000d3d"/>
        <polygon points="265.35 560.16 261.73 560.16 261.73 564.87 257.91 564.87 257.91 568.38 261.73 568.38 261.73 583.31 265.35 583.31 265.35 568.38 269.64 568.38 269.64 564.87 265.35 564.87 265.35 560.16" fill="#000d3d"/>
        <path d="M284.81,573.65c-.35.91-.65,1.73-.9,2.46s-.46,1.39-.65,2c-.03.1-.06.2-.09.3-.13-.38-.26-.77-.4-1.19-.16-.48-.36-1.01-.58-1.6-.22-.58-.47-1.24-.75-1.97l-5.87-14.93h-4.32l9.83,24.59h3.69l9.91-24.59h-4.43l-5.44,14.93Z" fill="#000d3d"/>
        <path d="M310.26,567.01c-.76-.8-1.66-1.42-2.69-1.88-1.03-.46-2.14-.68-3.34-.68-1.36,0-2.62.24-3.78.72-1.16.48-2.15,1.16-2.99,2.04s-1.48,1.91-1.95,3.11c-.47,1.19-.7,2.52-.7,3.97,0,1.83.42,3.44,1.25,4.85.83,1.4,1.98,2.51,3.44,3.32,1.46.81,3.14,1.21,5.04,1.21.87,0,1.75-.12,2.65-.37s1.76-.58,2.56-1c.81-.42,1.49-.91,2.06-1.48l-1.83-2.56c-.91.8-1.76,1.35-2.55,1.65-.79.3-1.63.46-2.55.46-1.29,0-2.42-.26-3.41-.77-.98-.51-1.74-1.25-2.28-2.2-.41-.72-.66-1.53-.76-2.44h14.11l.04-1.55c.02-1.29-.17-2.48-.58-3.56-.41-1.09-1-2.03-1.76-2.83ZM308.9,572.07h-10.31c.11-.53.27-1.02.48-1.46.44-.92,1.1-1.63,1.97-2.11.87-.48,1.93-.72,3.2-.72.8,0,1.53.18,2.21.53.68.35,1.24.83,1.69,1.44.44.61.7,1.3.77,2.07v.25Z" fill="#000d3d"/>
        <path d="M325.8,564.48c-.87,0-1.7.21-2.51.63s-1.52,1-2.14,1.72c-.4.47-.72.97-.97,1.51v-3.48h-3.65v18.44h3.65v-10.19c0-.68.13-1.3.39-1.88.26-.57.6-1.08,1.04-1.51.43-.43.94-.77,1.51-1.02.57-.25,1.18-.37,1.81-.37.33,0,.66.04,1,.12.34.08.65.18.93.3l.95-3.93c-.21-.09-.5-.18-.86-.25-.36-.07-.74-.11-1.14-.11Z" fill="#000d3d"/>
        <path d="M342.24,574.67c-.45-.47-1.05-.88-1.81-1.25-.76-.36-1.73-.7-2.9-1-.8-.19-1.45-.39-1.97-.6-.52-.21-.9-.41-1.16-.6-.23-.19-.42-.42-.54-.68-.13-.27-.21-.56-.23-.86,0-.35.07-.67.21-.95.14-.28.34-.52.61-.7.27-.19.6-.33,1-.42s.84-.14,1.33-.14c.44,0,.94.09,1.47.28.54.19,1.07.45,1.6.79.53.34,1.01.73,1.46,1.18l2.07-2.28c-.49-.61-1.1-1.14-1.83-1.58-.73-.44-1.52-.78-2.37-1.02-.86-.23-1.72-.35-2.58-.35-.91,0-1.77.13-2.58.39-.81.26-1.51.63-2.11,1.11-.6.48-1.07,1.04-1.4,1.69-.34.64-.51,1.35-.51,2.12,0,.63.08,1.21.25,1.74.16.53.42,1.01.77,1.46.47.56,1.14,1.07,2,1.51.87.45,1.98.84,3.34,1.19.8.21,1.45.42,1.95.61.5.2.87.38,1.11.54.45.38.67.87.67,1.47,0,.35-.07.67-.21.97s-.35.54-.62.75c-.27.21-.58.37-.95.47s-.75.16-1.18.16c-1.05,0-2-.18-2.83-.54s-1.6-.95-2.3-1.77l-2.46,2.11c.82,1.05,1.85,1.85,3.09,2.39,1.24.54,2.63.81,4.18.81,1.24,0,2.36-.23,3.37-.7,1.01-.47,1.81-1.12,2.41-1.95.6-.83.9-1.77.9-2.83,0-.73-.09-1.38-.28-1.97-.19-.58-.52-1.1-.98-1.54Z" fill="#000d3d"/>
        <path d="M364.15,573.4c.02-1.29-.17-2.48-.58-3.56-.41-1.09-1-2.03-1.76-2.83-.76-.8-1.66-1.42-2.69-1.88-1.03-.46-2.14-.68-3.34-.68-1.36,0-2.62.24-3.78.72-1.16.48-2.15,1.16-2.99,2.04s-1.48,1.91-1.95,3.11c-.47,1.19-.7,2.52-.7,3.97,0,1.83.42,3.44,1.25,4.85.83,1.4,1.98,2.51,3.44,3.32,1.46.81,3.14,1.21,5.04,1.21.87,0,1.75-.12,2.65-.37s1.76-.58,2.56-1c.81-.42,1.49-.91,2.06-1.48l-1.83-2.56c-.91.8-1.76,1.35-2.55,1.65-.79.3-1.63.46-2.55.46-1.29,0-2.42-.26-3.41-.77-.98-.51-1.74-1.25-2.28-2.2-.41-.72-.66-1.53-.76-2.44h14.11l.04-1.55ZM360.47,572.07h-10.31c.11-.53.27-1.02.48-1.46.44-.92,1.1-1.63,1.97-2.11.87-.48,1.93-.72,3.2-.72.8,0,1.53.18,2.21.53.68.35,1.24.83,1.69,1.44.44.61.7,1.3.77,2.07v.25Z" fill="#000d3d"/>
      </g>
      <path d="M269.21,504.48c0,2.49-2.02,4.51-4.51,4.51s-4.51-2.02-4.51-4.51,2.02-4.51,4.51-4.51,4.51,2.02,4.51,4.51ZM250.8,504.21c-2.65,0-4.8,2.15-4.8,4.8s2.15,4.8,4.8,4.8,4.8-2.15,4.8-4.8-2.15-4.8-4.8-4.8ZM278.62,504.21c-2.65,0-4.8,2.15-4.8,4.8s2.15,4.8,4.8,4.8,4.8-2.15,4.8-4.8-2.15-4.8-4.8-4.8ZM250.79,490.27c-2.01,0-3.64,1.63-3.64,3.64s1.63,3.64,3.64,3.64,3.64-1.63,3.64-3.64-1.63-3.64-3.64-3.64ZM243.9,480.54c-1.61,0-2.92,1.31-2.92,2.92s1.31,2.92,2.92,2.92,2.92-1.31,2.92-2.92-1.31-2.92-2.92-2.92ZM242.38,516.59c-3.08,0-5.58,2.5-5.58,5.58s2.5,5.58,5.58,5.58,5.58-2.5,5.58-5.58-2.5-5.58-5.58-5.58ZM286.94,516.59c-3.08,0-5.58,2.5-5.58,5.58s2.5,5.58,5.58,5.58,5.58-2.5,5.58-5.58-2.5-5.58-5.58-5.58ZM264.7,516.59c-3.08,0-5.58,2.5-5.58,5.58s2.5,5.58,5.58,5.58,5.58-2.5,5.58-5.58-2.5-5.58-5.58-5.58ZM275.02,493.91c0,2.01,1.63,3.64,3.64,3.64s3.64-1.63,3.64-3.64-1.63-3.64-3.64-3.64-3.64,1.63-3.64,3.64ZM282.69,483.46c0,1.61,1.31,2.92,2.92,2.92s2.92-1.31,2.92-2.92c0-1.61-1.31-2.92-2.92-2.92s-2.92,1.31-2.92,2.92Z" fill="#000d3d"/>
      <g>
        <polygon points="27.63 492 34.16 492 34.16 489.74 27.63 489.74 27.63 485.53 35.14 485.53 35.14 483.28 27.63 483.28 26.33 483.28 25.29 483.28 25.29 498.47 27.63 498.47 27.63 492" fill="#000d3d"/>
        <path d="M39.34,498.12c.6.38,1.31.56,2.12.56.65,0,1.26-.13,1.82-.38.56-.25,1.05-.6,1.46-1.03.19-.2.35-.41.49-.64v1.83h2.23v-11.39h-2.23v6.86c0,.41-.07.78-.22,1.13-.14.35-.34.64-.6.89-.25.25-.55.44-.9.58-.35.14-.73.21-1.15.21-.56,0-1.05-.13-1.44-.39-.4-.26-.7-.63-.91-1.12-.21-.48-.32-1.06-.32-1.72v-6.42h-2.23v7.03c0,.94.16,1.75.49,2.43.33.68.79,1.21,1.39,1.58Z" fill="#000d3d"/>
        <path d="M51.71,498.47h1.11v-6.9c0-.38.08-.73.23-1.05.15-.33.36-.61.63-.86s.58-.44.94-.58c.36-.14.76-.21,1.19-.21.54-.03.98.05,1.34.25.36.2.63.51.8.93.17.43.26.97.26,1.62v6.79h2.24v-6.94c0-1.06-.14-1.93-.43-2.63-.29-.69-.72-1.21-1.3-1.55-.58-.34-1.3-.51-2.17-.51-.61,0-1.2.13-1.78.4-.58.27-1.08.62-1.5,1.04-.18.18-.33.38-.46.58v-1.78h-2.23v11.39h1.13Z" fill="#000d3d"/>
        <path d="M65.5,497.9c.83.52,1.78.78,2.83.78.93,0,1.82-.21,2.68-.63.86-.42,1.52-.96,1.99-1.61l-1.24-1.52c-.3.38-.63.69-.98.96-.35.26-.71.46-1.07.59-.37.13-.75.2-1.14.2-.67,0-1.27-.17-1.82-.52-.55-.35-.99-.81-1.32-1.4s-.5-1.25-.5-1.99.16-1.4.48-2c.32-.59.75-1.06,1.29-1.4.54-.34,1.16-.51,1.86-.51.38,0,.77.08,1.17.24.4.16.79.38,1.15.65.36.27.66.58.89.91l1.24-1.52c-.43-.71-1.07-1.27-1.9-1.68-.83-.41-1.75-.62-2.77-.62s-2,.26-2.83.78-1.49,1.23-1.97,2.13c-.48.9-.73,1.9-.73,3.02s.24,2.12.73,3.02c.48.9,1.14,1.61,1.97,2.13Z" fill="#000d3d"/>
        <polygon points="76.52 498.47 78.75 498.47 78.75 489.24 81.4 489.24 81.4 487.07 78.75 487.07 78.75 484.17 76.52 484.17 76.52 487.07 74.15 487.07 74.15 489.24 76.52 489.24 76.52 498.47" fill="#000d3d"/>
        <rect x="83.81" y="487.07" width="2.23" height="11.39" fill="#000d3d"/>
        <path d="M84.89,484.56c.46,0,.83-.13,1.1-.39.27-.26.4-.6.4-1.02,0-.45-.13-.8-.39-1.04-.26-.25-.63-.37-1.11-.37s-.83.13-1.1.39c-.27.26-.4.6-.4,1.02,0,.45.13.8.39,1.04.26.25.63.37,1.11.37Z" fill="#000d3d"/>
        <path d="M91.61,497.91c.88.51,1.87.77,2.98.77s2.09-.26,2.96-.77c.88-.51,1.57-1.21,2.07-2.1.51-.89.76-1.91.76-3.05s-.25-2.16-.76-3.05c-.51-.89-1.2-1.59-2.07-2.1-.88-.51-1.86-.77-2.96-.77s-2.11.26-2.98.77c-.88.51-1.57,1.21-2.07,2.1-.51.89-.76,1.91-.76,3.05s.25,2.16.76,3.05c.51.89,1.2,1.59,2.07,2.1ZM91.49,490.77c.3-.59.73-1.05,1.27-1.39.54-.34,1.15-.51,1.83-.51s1.29.17,1.82.5.96.79,1.26,1.38.45,1.25.43,2.01c.01.74-.13,1.4-.43,1.99s-.72,1.05-1.26,1.39c-.54.34-1.14.51-1.82.51s-1.29-.17-1.83-.51c-.54-.34-.97-.8-1.27-1.39s-.45-1.25-.43-1.99c-.01-.74.13-1.4.43-1.99Z" fill="#000d3d"/>
        <path d="M110.95,487.35c-.58-.34-1.3-.51-2.17-.51-.61,0-1.2.13-1.78.4-.58.27-1.08.62-1.5,1.04-.18.18-.33.38-.46.58v-1.78h-2.23v11.39h2.23v-6.9c0-.38.08-.73.23-1.05.15-.33.36-.61.63-.86s.58-.44.94-.58c.36-.14.76-.21,1.19-.21.54-.03.98.05,1.34.25.36.2.63.51.8.93.17.43.26.97.26,1.62v6.79h2.24v-6.94c0-1.06-.14-1.93-.43-2.63-.29-.69-.72-1.21-1.3-1.55Z" fill="#000d3d"/>
        <path d="M123.47,494.08c-.12-.36-.32-.68-.61-.96-.27-.29-.65-.55-1.12-.77-.47-.22-1.07-.43-1.79-.62-.49-.12-.9-.24-1.22-.37s-.56-.25-.72-.37c-.14-.12-.26-.26-.34-.42-.08-.17-.13-.34-.14-.53,0-.22.04-.41.13-.59.09-.17.21-.32.38-.43.17-.12.37-.2.62-.26.25-.06.52-.09.82-.09.27,0,.58.06.91.17.33.12.66.28.99.49.33.21.63.45.9.73l1.28-1.41c-.3-.38-.68-.7-1.13-.98s-.94-.48-1.46-.63c-.53-.14-1.06-.22-1.59-.22-.56,0-1.1.08-1.59.24s-.93.39-1.3.68c-.37.3-.66.64-.87,1.04-.21.4-.31.84-.31,1.31,0,.39.05.75.15,1.07.1.33.26.63.48.9.29.35.7.66,1.24.93.53.27,1.22.52,2.06.74.49.13.89.26,1.21.38.31.12.54.24.68.34.27.23.41.54.41.91,0,.22-.04.42-.13.6-.09.18-.21.34-.38.47-.17.13-.36.23-.59.29-.22.06-.47.1-.73.1-.65,0-1.23-.11-1.75-.34-.51-.22-.99-.59-1.42-1.1l-1.52,1.3c.51.65,1.14,1.14,1.91,1.48.77.33,1.63.5,2.58.5.77,0,1.46-.14,2.08-.43s1.12-.69,1.49-1.2c.37-.51.55-1.1.55-1.75,0-.45-.06-.85-.17-1.21Z" fill="#000d3d"/>
        <path d="M32.56,532.9l-4.98-8.1h-2.3v15.19h2.34v-6.23c0-1.4-.03-2.62-.1-3.63-.03-.46-.07-.92-.12-1.38l4.36,6.88h1.43l4.46-6.89c-.05.5-.1,1-.13,1.51-.07,1.04-.1,2.21-.1,3.52v6.23h2.34v-15.19h-2.17l-5.05,8.1Z" fill="#000d3d"/>
        <path d="M43.44,531.21c-.47.89-.71,1.91-.71,3.05s.23,2.14.69,3.04c.46.9,1.08,1.61,1.86,2.13.77.52,1.63.78,2.57.78.55,0,1.07-.09,1.57-.26.5-.17.96-.41,1.37-.69.41-.29.75-.62,1.02-.99,0,0,0-.01.01-.02v1.74h2.26v-11.39h-2.26v1.75c-.23-.37-.51-.71-.86-1-.37-.31-.8-.55-1.29-.73-.49-.17-1.04-.26-1.63-.26-1,0-1.9.25-2.7.76-.8.51-1.44,1.2-1.91,2.09ZM46.67,530.92c.51-.33,1.1-.5,1.77-.5s1.28.17,1.8.5c.52.33.93.79,1.23,1.37.3.58.44,1.24.44,1.97s-.15,1.42-.44,2.01c-.3.59-.71,1.05-1.23,1.38-.52.33-1.12.5-1.8.5s-1.25-.17-1.77-.5c-.51-.33-.92-.79-1.21-1.38-.3-.59-.45-1.25-.45-2.01s.15-1.4.45-1.97c.3-.58.7-1.03,1.21-1.37Z" fill="#000d3d"/>
        <path d="M59.77,523.63c-.26-.25-.63-.37-1.11-.37s-.83.13-1.1.39c-.27.26-.4.6-.4,1.02,0,.45.13.8.39,1.04.26.25.63.37,1.11.37s.83-.13,1.1-.39c.27-.26.4-.6.4-1.02,0-.45-.13-.8-.39-1.04Z" fill="#000d3d"/>
        <rect x="57.57" y="528.6" width="2.23" height="11.39" fill="#000d3d"/>
        <rect x="63.28" y="523.93" width="2.24" height="16.06" fill="#000d3d"/>
        <path d="M79.23,531.21c-.46-.89-1.09-1.59-1.89-2.09-.8-.51-1.71-.76-2.73-.76-.46,0-.92.08-1.37.23-.45.15-.86.36-1.25.61-.38.25-.7.54-.94.85-.05.07-.09.14-.13.2v-6.31h-2.23v15.99h2.23v-1.45c.26.31.58.6.97.86.4.27.84.48,1.32.64.48.16.97.24,1.46.24,1,0,1.89-.26,2.69-.77.79-.51,1.42-1.22,1.88-2.12.46-.9.68-1.92.68-3.06s-.23-2.16-.69-3.05ZM77.32,536.27c-.3.59-.72,1.05-1.24,1.39-.52.34-1.11.51-1.78.51s-1.28-.17-1.8-.51c-.52-.34-.93-.8-1.24-1.39s-.46-1.25-.46-2.01.15-1.4.46-1.99.72-1.04,1.24-1.38c.52-.33,1.12-.5,1.8-.5s1.28.17,1.8.5.93.79,1.23,1.38c.3.59.45,1.25.45,1.99s-.15,1.42-.46,2.01Z" fill="#000d3d"/>
        <path d="M92.51,537.33c.51-.89.76-1.91.76-3.05s-.25-2.16-.76-3.05c-.51-.89-1.2-1.59-2.07-2.1-.88-.51-1.86-.77-2.96-.77s-2.11.26-2.98.77c-.88.51-1.57,1.21-2.07,2.1-.51.89-.76,1.91-.76,3.05s.25,2.16.76,3.05c.51.89,1.2,1.59,2.07,2.1.88.51,1.87.77,2.98.77s2.09-.26,2.96-.77c.88-.51,1.57-1.21,2.07-2.1ZM90.56,536.27c-.3.59-.72,1.05-1.26,1.39-.54.34-1.14.51-1.82.51s-1.29-.17-1.83-.51c-.54-.34-.97-.8-1.27-1.39s-.45-1.25-.43-1.99c-.01-.74.13-1.4.43-1.99s.73-1.05,1.27-1.39c.54-.34,1.15-.51,1.83-.51s1.29.17,1.82.5.96.79,1.26,1.38.45,1.25.43,2.01c.01.74-.13,1.4-.43,1.99Z" fill="#000d3d"/>
        <polygon points="105.18 528.6 102.53 528.6 99.93 532.62 96.85 528.6 94.03 528.6 98.43 534.27 94.05 539.99 96.7 539.99 99.71 535.92 102.84 539.99 105.57 539.99 101.16 534.22 105.18 528.6" fill="#000d3d"/>
        <polygon points="35.2 572.07 27.63 572.07 27.63 565.58 25.29 565.58 25.29 580.77 27.63 580.77 27.63 574.33 35.2 574.33 35.2 580.77 37.55 580.77 37.55 565.58 35.2 565.58 35.2 572.07" fill="#000d3d"/>
        <path d="M49.32,569.91c-.88-.51-1.86-.77-2.96-.77s-2.11.26-2.98.77c-.88.51-1.57,1.21-2.07,2.1-.51.89-.76,1.91-.76,3.05s.25,2.16.76,3.05c.51.89,1.2,1.59,2.07,2.1.88.51,1.87.77,2.98.77s2.09-.26,2.96-.77c.88-.51,1.57-1.21,2.07-2.1.51-.89.76-1.91.76-3.05s-.25-2.16-.76-3.05c-.51-.89-1.2-1.59-2.07-2.1ZM49.44,577.05c-.3.59-.72,1.05-1.26,1.39-.54.34-1.14.51-1.82.51s-1.29-.17-1.83-.51c-.54-.34-.97-.8-1.27-1.39s-.45-1.25-.43-1.99c-.01-.74.13-1.4.43-1.99s.73-1.05,1.27-1.39c.54-.34,1.15-.51,1.83-.51s1.29.17,1.82.5.96.79,1.26,1.38.45,1.25.43,2.01c.01.74-.13,1.4-.43,1.99Z" fill="#000d3d"/>
        <path d="M61.72,575.44c-.27-.29-.65-.55-1.12-.77-.47-.22-1.07-.43-1.79-.62-.49-.12-.9-.24-1.22-.37s-.56-.25-.72-.37c-.14-.12-.26-.26-.34-.42-.08-.17-.13-.34-.14-.53,0-.22.04-.41.13-.59.09-.17.21-.32.38-.43.17-.12.37-.2.62-.26.25-.06.52-.09.82-.09.27,0,.58.06.91.17.33.12.66.28.99.49.33.21.63.45.9.73l1.28-1.41c-.3-.38-.68-.7-1.13-.98s-.94-.48-1.46-.63c-.53-.14-1.06-.22-1.59-.22-.56,0-1.1.08-1.59.24s-.93.39-1.3.68c-.37.3-.66.64-.87,1.04-.21.4-.31.84-.31,1.31,0,.39.05.75.15,1.07.1.33.26.63.48.9.29.35.7.66,1.24.93.53.27,1.22.52,2.06.74.49.13.89.26,1.21.38.31.12.54.24.68.34.27.23.41.54.41.91,0,.22-.04.42-.13.6-.09.18-.21.34-.38.47-.17.13-.36.23-.59.29-.22.06-.47.1-.73.1-.65,0-1.23-.11-1.75-.34-.51-.22-.99-.59-1.42-1.1l-1.52,1.3c.51.65,1.14,1.14,1.91,1.48.77.33,1.63.5,2.58.5.77,0,1.46-.14,2.08-.43s1.12-.69,1.49-1.2c.37-.51.55-1.1.55-1.75,0-.45-.06-.85-.17-1.21-.12-.36-.32-.68-.61-.96Z" fill="#000d3d"/>
        <polygon points="68.62 566.47 66.38 566.47 66.38 569.38 64.02 569.38 64.02 571.55 66.38 571.55 66.38 580.77 68.62 580.77 68.62 571.55 71.27 571.55 71.27 569.38 68.62 569.38 68.62 566.47" fill="#000d3d"/>
        <path d="M74.76,564.04c-.46,0-.83.13-1.1.39-.27.26-.4.6-.4,1.02,0,.45.13.8.39,1.04.26.25.63.37,1.11.37s.83-.13,1.1-.39c.27-.26.4-.6.4-1.02,0-.45-.13-.8-.39-1.04-.26-.25-.63-.37-1.11-.37Z" fill="#000d3d"/>
        <rect x="73.67" y="569.38" width="2.23" height="11.39" fill="#000d3d"/>
        <path d="M87.47,569.65c-.58-.34-1.3-.51-2.17-.51-.61,0-1.2.13-1.78.4-.58.27-1.08.62-1.5,1.04-.18.18-.33.38-.46.58v-1.78h-2.23v11.39h2.23v-6.9c0-.38.08-.73.23-1.05.15-.33.36-.61.63-.86s.58-.44.94-.58c.36-.14.76-.21,1.19-.21.54-.03.98.05,1.34.25.36.2.63.51.8.93.17.43.26.97.26,1.62v6.79h2.24v-6.94c0-1.06-.14-1.93-.43-2.63-.29-.69-.72-1.21-1.3-1.55Z" fill="#000d3d"/>
        <path d="M100.97,570.94c-.15-.19-.32-.37-.52-.54-.28-.23-.59-.45-.93-.64-.35-.2-.72-.35-1.13-.46s-.82-.16-1.26-.16c-1.06,0-2.01.26-2.85.77-.85.51-1.51,1.21-2,2.1s-.73,1.91-.73,3.05.25,2.16.74,3.05c.49.89,1.16,1.59,2.01,2.1.85.51,1.81.77,2.9.77.62,0,1.23-.13,1.82-.39.59-.26,1.09-.6,1.49-1.01.2-.2.35-.41.47-.62v1.37c0,.75-.14,1.38-.41,1.89-.28.51-.68.89-1.21,1.15-.54.26-1.2.39-2,.39-.42,0-.85-.05-1.28-.14-.43-.09-.85-.22-1.24-.39-.39-.17-.73-.36-1.02-.58l-.83,1.74c.49.4,1.14.73,1.94.99.8.25,1.61.38,2.42.38.91,0,1.73-.13,2.45-.38.72-.25,1.34-.62,1.84-1.11.51-.49.89-1.08,1.16-1.78.27-.7.4-1.51.4-2.42v-10.7h-2.24v1.56ZM99.32,578.43c-.55.33-1.18.5-1.89.5s-1.31-.17-1.85-.5c-.54-.33-.97-.79-1.28-1.38-.31-.59-.47-1.25-.47-1.99s.16-1.4.47-1.99c.31-.59.74-1.05,1.28-1.39.54-.34,1.16-.51,1.85-.51s1.33.17,1.88.5c.54.33.97.79,1.28,1.38.31.59.47,1.25.47,2.01s-.15,1.42-.46,2c-.3.58-.73,1.04-1.28,1.37Z" fill="#000d3d"/>
      </g>
      <rect x="6.5" y="482.45" width="4.12" height="17.89" rx="2.06" ry="2.06" fill="#000d3d"/>
      <rect x="6.5" y="523.53" width="4.12" height="17.89" rx="2.06" ry="2.06" fill="#000d3d"/>
      <rect x="6.5" y="564.46" width="4.12" height="17.89" rx="2.06" ry="2.06" fill="#000d3d"/>
      <g>
        <rect x="526.61" y="311.87" width="321.57" height="429.34" rx="19.57" ry="19.57" fill="#e8ecf1"/>
        <path d="M828.61,741.71h-282.43c-11.07,0-20.07-9-20.07-20.07v-390.2c0-11.07,9-20.07,20.07-20.07h282.43c11.07,0,20.07,9,20.07,20.07v390.2c0,11.07-9,20.07-20.07,20.07ZM546.18,312.37c-10.52,0-19.07,8.55-19.07,19.07v390.2c0,10.52,8.55,19.07,19.07,19.07h282.43c10.52,0,19.07-8.55,19.07-19.07v-390.2c0-10.52-8.55-19.07-19.07-19.07h-282.43Z"/>
      </g>
      <rect x="507.88" y="400.47" width="359.03" height="309.57" rx="13.57" ry="13.57" transform="translate(1242.65 -132.14) rotate(90)" fill="#d0d9e3"/>
      <rect x="507.88" y="342.6" width="359.03" height="309.57" rx="13.57" ry="13.57" transform="translate(1184.78 -190) rotate(90)" fill="#fff"/>
      <g>
        <rect x="547.18" y="451.11" width="283.14" height="91.82" rx="14.69" ry="14.69" fill="#fff"/>
        <path d="M815.63,543.53h-253.75c-8.43,0-15.29-6.86-15.29-15.29v-62.43c0-8.43,6.86-15.29,15.29-15.29h253.75c8.43,0,15.29,6.86,15.29,15.29v62.43c0,8.43-6.86,15.29-15.29,15.29ZM561.88,451.71c-7.77,0-14.1,6.32-14.1,14.09v62.43c0,7.77,6.32,14.09,14.1,14.09h253.75c7.77,0,14.09-6.32,14.09-14.09v-62.43c0-7.77-6.32-14.09-14.09-14.09h-253.75Z"/>
      </g>
      <path d="M657.54,361.45h62.43c4.8,0,8.69,3.9,8.69,8.69v253.75c0,4.8-3.9,8.69-8.69,8.69h-62.43c-4.8,0-8.69-3.9-8.69-8.69v-253.75c0-4.8,3.89-8.69,8.69-8.69Z" transform="translate(1185.77 -191.73) rotate(90)" fill="#efebff"/>
      <g>
        <path d="M612.33,483.63l-9.59,24.59h4.57l2.13-5.62h9.83l2.12,5.62h4.74l-9.52-24.59h-4.29ZM610.95,498.62l1.63-4.29c.16-.47.35-.99.54-1.58.2-.58.4-1.19.61-1.83.21-.63.41-1.24.6-1.83.02-.05.03-.1.05-.15.18.61.39,1.26.62,1.96.23.71.45,1.38.65,1.98.2.61.36,1.05.47,1.33l1.65,4.39h-6.83Z" fill="#5f38fb"/>
        <polygon points="629.26 487.67 633.3 487.67 633.3 504.17 629.26 504.17 629.26 508.21 641.9 508.21 641.9 504.17 637.86 504.17 637.86 487.67 641.9 487.67 641.9 483.63 629.26 483.63 629.26 487.67" fill="#5f38fb"/>
        <polygon points="662.55 497.68 672.35 497.68 672.35 493.6 662.55 493.6 662.55 487.77 674.15 487.77 674.15 483.63 658.06 483.63 658.06 508.21 674.29 508.21 674.29 504.07 662.55 504.07 662.55 497.68" fill="#5f38fb"/>
        <path d="M692.92,490.16c-.95-.56-2.12-.84-3.53-.84-.98,0-1.94.21-2.88.63-.94.42-1.75.98-2.42,1.67-.22.22-.41.46-.58.7l-.05-2.62h-4.21v18.51h4.32v-11.17c0-.56.11-1.08.33-1.55.22-.47.53-.88.91-1.25.39-.36.84-.64,1.37-.84.53-.2,1.11-.3,1.74-.3.77-.02,1.43.11,1.97.4.54.29.94.75,1.19,1.37s.39,1.4.39,2.34v10.99h4.32v-11.31c0-1.69-.24-3.09-.72-4.21-.48-1.12-1.19-1.97-2.14-2.53Z" fill="#5f38fb"/>
        <path d="M714.39,492.03c-.22-.26-.45-.51-.74-.74-.45-.37-.94-.71-1.49-1.02-.55-.3-1.15-.54-1.81-.7s-1.33-.25-2.04-.25c-1.69,0-3.2.42-4.55,1.25-1.35.83-2.41,1.97-3.18,3.41-.77,1.44-1.16,3.08-1.16,4.93s.39,3.48,1.18,4.9c.78,1.42,1.85,2.54,3.2,3.35,1.35.82,2.9,1.23,4.65,1.23,1.01,0,1.99-.21,2.95-.61.96-.41,1.76-.94,2.39-1.6.2-.21.37-.43.53-.65v1.74c0,1.17-.21,2.15-.63,2.93-.42.78-1.05,1.37-1.88,1.76-.83.39-1.87.58-3.11.58-.68,0-1.36-.07-2.05-.21-.69-.14-1.34-.34-1.95-.6-.61-.26-1.16-.56-1.65-.91l-1.54,3.2c.84.68,1.95,1.23,3.32,1.65,1.37.42,2.75.63,4.13.63,1.52,0,2.88-.21,4.07-.62,1.19-.41,2.21-1.02,3.06-1.83s1.49-1.79,1.93-2.93c.44-1.15.67-2.47.67-3.97v-17.25h-4.25l-.04,2.32ZM711.92,503.96c-.81.49-1.74.74-2.79.74s-1.98-.25-2.78-.74c-.8-.49-1.42-1.18-1.88-2.05s-.68-1.87-.68-2.97.23-2.12.68-3,1.08-1.57,1.88-2.07c.8-.5,1.72-.75,2.78-.75s1.98.25,2.77.74c.8.49,1.42,1.18,1.88,2.05.46.88.68,1.89.68,3.04s-.22,2.12-.67,2.99c-.45.87-1.07,1.55-1.88,2.04Z" fill="#5f38fb"/>
        <path d="M726.27,480.75c-.84,0-1.51.23-2,.7-.49.47-.74,1.08-.74,1.83,0,.8.24,1.41.72,1.84.48.43,1.15.65,2.02.65s1.55-.23,2.04-.7c.49-.47.74-1.07.74-1.79,0-.82-.24-1.45-.72-1.88-.48-.43-1.17-.65-2.05-.65Z" fill="#5f38fb"/>
        <rect x="724.16" y="489.7" width="4.32" height="18.51" fill="#5f38fb"/>
        <path d="M747.64,490.16c-.95-.56-2.12-.84-3.53-.84-.98,0-1.94.21-2.88.63-.94.42-1.75.98-2.42,1.67-.22.22-.41.46-.58.7l-.05-2.62h-4.21v18.51h4.32v-11.17c0-.56.11-1.08.33-1.55.22-.47.53-.88.91-1.25.39-.36.84-.64,1.37-.84.53-.2,1.11-.3,1.74-.3.77-.02,1.43.11,1.97.4.54.29.94.75,1.19,1.37s.39,1.4.39,2.34v10.99h4.32v-11.31c0-1.69-.24-3.09-.72-4.21-.48-1.12-1.19-1.97-2.14-2.53Z" fill="#5f38fb"/>
        <path d="M772.11,498.41c.02-1.31-.17-2.52-.58-3.64s-1-2.07-1.77-2.88c-.77-.81-1.69-1.45-2.74-1.91-1.05-.47-2.19-.7-3.41-.7-1.38,0-2.65.24-3.81.72-1.16.48-2.15,1.16-2.99,2.04-.83.88-1.48,1.91-1.95,3.11-.47,1.19-.7,2.52-.7,3.97,0,1.83.42,3.45,1.25,4.86.83,1.42,1.99,2.54,3.48,3.35,1.49.82,3.2,1.23,5.15,1.23.87,0,1.74-.12,2.63-.35.89-.23,1.74-.56,2.55-.97.81-.41,1.53-.91,2.16-1.49l-2.14-2.99c-.84.73-1.63,1.23-2.35,1.51-.73.28-1.52.42-2.39.42-1.24,0-2.32-.24-3.25-.72-.92-.48-1.64-1.16-2.14-2.05-.34-.6-.55-1.27-.66-2h13.64l.04-1.51ZM760.71,493.78c.78-.44,1.75-.67,2.9-.67.75,0,1.43.16,2.05.47.62.32,1.13.75,1.53,1.3.4.55.63,1.19.7,1.91v.18h-9.37c.1-.47.23-.9.42-1.28.4-.83.99-1.47,1.77-1.91Z" fill="#5f38fb"/>
      </g>
      <g>
        <path d="M815.63,330.24h-140.68c-8.11,0-14.69,6.58-14.69,14.69v26.47h-35.34v-26.47c0-8.11-6.58-14.69-14.69-14.69h-51.45c-8.11,0-14.69,6.58-14.69,14.69v62.43c0,8.11,6.58,14.69,14.69,14.69h51.45c8.11,0,14.69-6.58,14.69-14.69v-26.47h35.34v26.47c0,8.11,6.58,14.69,14.69,14.69h140.68c8.11,0,14.69-6.58,14.69-14.69v-62.43c0-8.11-6.58-14.69-14.69-14.69Z" fill="#fff"/>
        <path d="M815.63,422.66h-140.68c-8.43,0-15.29-6.86-15.29-15.29v-25.87h-34.14v25.87c0,8.43-6.86,15.29-15.29,15.29h-51.45c-8.43,0-15.29-6.86-15.29-15.29v-62.43c0-8.43,6.86-15.29,15.29-15.29h51.45c8.43,0,15.29,6.86,15.29,15.29v25.87h34.14v-25.87c0-8.43,6.86-15.29,15.29-15.29h140.68c8.43,0,15.29,6.86,15.29,15.29v62.43c0,8.43-6.86,15.29-15.29,15.29ZM624.33,380.3h36.53v27.07c0,7.77,6.32,14.1,14.1,14.1h140.68c7.77,0,14.09-6.32,14.09-14.1v-62.43c0-7.77-6.32-14.1-14.09-14.1h-140.68c-7.77,0-14.1,6.32-14.1,14.1v27.07h-36.53v-27.07c0-7.77-6.32-14.09-14.1-14.09h-51.45c-7.77,0-14.09,6.32-14.09,14.09v62.43c0,7.77,6.32,14.1,14.09,14.1h51.45c7.77,0,14.1-6.32,14.1-14.1v-27.07Z"/>
      </g>
      <path d="M553.29,341.73h62.43c4.8,0,8.69,3.9,8.69,8.69v51.45c0,4.8-3.9,8.69-8.69,8.69h-62.43c-4.8,0-8.69-3.89-8.69-8.69v-51.45c0-4.8,3.9-8.69,8.69-8.69Z" transform="translate(960.66 -208.36) rotate(90)" fill="#e8ecf1"/>
      <path d="M714.08,297.12h62.43c4.8,0,8.69,3.9,8.69,8.69v140.68c0,4.8-3.9,8.69-8.69,8.69h-62.43c-4.8,0-8.69-3.89-8.69-8.69v-140.68c0-4.8,3.9-8.69,8.69-8.69Z" transform="translate(1121.45 -369.14) rotate(90)" fill="#e8ecf1"/>
      <rect x="555.36" y="344.01" width="16.49" height="16.49" rx="4.86" ry="4.86" fill="#d0d9e3"/>
      <path d="M567.28,361.1h-6.77c-3.01,0-5.46-2.45-5.46-5.46v-6.77c0-3.01,2.45-5.46,5.46-5.46.33,0,.6.27.6.6s-.27.6-.6.6c-2.35,0-4.26,1.91-4.26,4.26v6.77c0,2.35,1.91,4.26,4.26,4.26h6.77c2.35,0,4.26-1.91,4.26-4.26,0-.33.27-.6.6-.6s.6.27.6.6c0,3.01-2.45,5.46-5.46,5.46Z"/>
      <path d="M572.14,349.47c-.33,0-.6-.27-.6-.6,0-2.35-1.91-4.26-4.26-4.26-.33,0-.6-.27-.6-.6s.27-.6.6-.6c3.01,0,5.46,2.45,5.46,5.46,0,.33-.27.6-.6.6Z"/>
      <rect x="674.32" y="344.01" width="16.49" height="16.49" rx="4.86" ry="4.86" fill="#d0d9e3"/>
      <path d="M686.25,361.1h-6.77c-3.01,0-5.46-2.45-5.46-5.46v-6.77c0-3.01,2.45-5.46,5.46-5.46.33,0,.6.27.6.6s-.27.6-.6.6c-2.35,0-4.26,1.91-4.26,4.26v6.77c0,2.35,1.91,4.26,4.26,4.26h6.77c2.35,0,4.26-1.91,4.26-4.26,0-.33.27-.6.6-.6s.6.27.6.6c0,3.01-2.45,5.46-5.46,5.46Z"/>
      <path d="M691.11,349.47c-.33,0-.6-.27-.6-.6,0-2.35-1.91-4.26-4.26-4.26-.33,0-.6-.27-.6-.6s.27-.6.6-.6c3.01,0,5.46,2.45,5.46,5.46,0,.33-.27.6-.6.6Z"/>
      <rect x="800.36" y="344.01" width="16.49" height="16.49" rx="4.86" ry="4.86" fill="#d0d9e3"/>
      <path d="M812.29,361.1h-6.77c-3.01,0-5.46-2.45-5.46-5.46v-6.77c0-3.01,2.45-5.46,5.46-5.46.33,0,.6.27.6.6s-.27.6-.6.6c-2.35,0-4.26,1.91-4.26,4.26v6.77c0,2.35,1.91,4.26,4.26,4.26h6.77c2.35,0,4.26-1.91,4.26-4.26,0-.33.27-.6.6-.6s.6.27.6.6c0,3.01-2.45,5.46-5.46,5.46Z"/>
      <path d="M817.15,349.47c-.33,0-.6-.27-.6-.6,0-2.35-1.91-4.26-4.26-4.26-.33,0-.6-.27-.6-.6s.27-.6.6-.6c3.01,0,5.46,2.45,5.46,5.46,0,.33-.27.6-.6.6Z"/>
      <rect x="800.36" y="392.3" width="16.49" height="16.49" rx="4.86" ry="4.86" fill="#d0d9e3"/>
      <path d="M812.29,409.39h-6.77c-3.01,0-5.46-2.45-5.46-5.46v-6.77c0-3.01,2.45-5.46,5.46-5.46.33,0,.6.27.6.6s-.27.6-.6.6c-2.35,0-4.26,1.91-4.26,4.26v6.77c0,2.35,1.91,4.26,4.26,4.26h6.77c2.35,0,4.26-1.91,4.26-4.26,0-.33.27-.6.6-.6s.6.27.6.6c0,3.01-2.45,5.46-5.46,5.46Z"/>
      <path d="M817.15,397.76c-.33,0-.6-.27-.6-.6,0-2.35-1.91-4.26-4.26-4.26-.33,0-.6-.27-.6-.6s.27-.6.6-.6c3.01,0,5.46,2.45,5.46,5.46,0,.33-.27.6-.6.6Z"/>
      <rect x="674.62" y="392.3" width="16.49" height="16.49" rx="4.86" ry="4.86" fill="#d0d9e3"/>
      <path d="M686.55,409.39h-6.77c-3.01,0-5.46-2.45-5.46-5.46v-6.77c0-3.01,2.45-5.46,5.46-5.46.33,0,.6.27.6.6s-.27.6-.6.6c-2.35,0-4.26,1.91-4.26,4.26v6.77c0,2.35,1.91,4.26,4.26,4.26h6.77c2.35,0,4.26-1.91,4.26-4.26,0-.33.27-.6.6-.6s.6.27.6.6c0,3.01-2.45,5.46-5.46,5.46Z"/>
      <path d="M691.4,397.76c-.33,0-.6-.27-.6-.6,0-2.35-1.91-4.26-4.26-4.26-.33,0-.6-.27-.6-.6s.27-.6.6-.6c3.01,0,5.46,2.45,5.46,5.46,0,.33-.27.6-.6.6Z"/>
      <rect x="596.73" y="344.01" width="16.49" height="16.49" rx="4.86" ry="4.86" fill="#d0d9e3"/>
      <rect x="555.36" y="392.89" width="16.49" height="16.49" rx="4.86" ry="4.86" fill="#d0d9e3"/>
      <rect x="596.73" y="392.89" width="16.49" height="16.49" rx="4.86" ry="4.86" fill="#d0d9e3"/>
      <path d="M608.29,361.1h-6.77c-3.01,0-5.46-2.45-5.46-5.46v-6.77c0-3.01,2.45-5.46,5.46-5.46.33,0,.6.27.6.6s-.27.6-.6.6c-2.35,0-4.26,1.91-4.26,4.26v6.77c0,2.35,1.91,4.26,4.26,4.26h6.77c2.35,0,4.26-1.91,4.26-4.26,0-.33.27-.6.6-.6s.6.27.6.6c0,3.01-2.45,5.46-5.46,5.46Z"/>
      <path d="M613.15,349.47c-.33,0-.6-.27-.6-.6,0-2.35-1.91-4.26-4.26-4.26-.33,0-.6-.27-.6-.6s.27-.6.6-.6c3.01,0,5.46,2.45,5.46,5.46,0,.33-.27.6-.6.6Z"/>
      <path d="M608.29,410.13h-6.77c-3.01,0-5.46-2.45-5.46-5.46v-6.77c0-3.01,2.45-5.46,5.46-5.46.33,0,.6.27.6.6s-.27.6-.6.6c-2.35,0-4.26,1.91-4.26,4.26v6.77c0,2.35,1.91,4.26,4.26,4.26h6.77c2.35,0,4.26-1.91,4.26-4.26,0-.33.27-.6.6-.6s.6.27.6.6c0,3.01-2.45,5.46-5.46,5.46Z"/>
      <path d="M613.15,398.5c-.33,0-.6-.27-.6-.6,0-2.35-1.91-4.26-4.26-4.26-.33,0-.6-.27-.6-.6s.27-.6.6-.6c3.01,0,5.46,2.45,5.46,5.46,0,.33-.27.6-.6.6Z"/>
      <path d="M567.13,410.13h-6.77c-3.01,0-5.46-2.45-5.46-5.46v-6.77c0-3.01,2.45-5.46,5.46-5.46.33,0,.6.27.6.6s-.27.6-.6.6c-2.35,0-4.26,1.91-4.26,4.26v6.77c0,2.35,1.91,4.26,4.26,4.26h6.77c2.35,0,4.26-1.91,4.26-4.26,0-.33.27-.6.6-.6s.6.27.6.6c0,3.01-2.45,5.46-5.46,5.46Z"/>
      <path d="M571.99,398.5c-.33,0-.6-.27-.6-.6,0-2.35-1.91-4.26-4.26-4.26-.33,0-.6-.27-.6-.6s.27-.6.6-.6c3.01,0,5.46,2.45,5.46,5.46,0,.33-.27.6-.6.6Z"/>
      <g>
        <path d="M558.78,570.1h140.68c8.11,0,14.69,6.58,14.69,14.69v26.47s35.34,0,35.34,0v-26.47c0-8.11,6.58-14.69,14.69-14.69h51.45c8.11,0,14.69,6.58,14.69,14.69v62.43c0,8.11-6.58,14.69-14.69,14.69h-51.45c-8.11,0-14.69-6.58-14.69-14.69v-26.47s-35.34,0-35.34,0v26.47c0,8.11-6.58,14.69-14.69,14.69h-140.68c-8.11,0-14.69-6.58-14.69-14.69v-62.43c0-8.11,6.58-14.69,14.69-14.69Z" fill="#fff"/>
        <path d="M815.63,662.51h-51.45c-8.43,0-15.29-6.86-15.29-15.29v-25.87h-34.14v25.87c0,8.43-6.86,15.29-15.29,15.29h-140.68c-8.43,0-15.29-6.86-15.29-15.29v-62.43c0-8.43,6.86-15.29,15.29-15.29h140.68c8.43,0,15.29,6.86,15.29,15.29v25.87h34.14v-25.87c0-8.43,6.86-15.29,15.29-15.29h51.45c8.43,0,15.29,6.86,15.29,15.29v62.43c0,8.43-6.86,15.29-15.29,15.29ZM713.55,620.16h36.53v27.07c0,7.77,6.32,14.1,14.1,14.1h51.45c7.77,0,14.09-6.32,14.09-14.1v-62.43c0-7.77-6.32-14.1-14.09-14.1h-51.45c-7.77,0-14.1,6.32-14.1,14.1v27.07h-36.53v-27.07c0-7.77-6.32-14.1-14.09-14.1h-140.68c-7.77,0-14.09,6.32-14.09,14.1v62.43c0,7.77,6.32,14.1,14.09,14.1h140.68c7.77,0,14.09-6.32,14.09-14.1v-27.07Z"/>
      </g>
      <path d="M758.69,581.59h62.43c4.8,0,8.69,3.9,8.69,8.69v51.45c0,4.8-3.9,8.69-8.69,8.69h-62.43c-4.8,0-8.69-3.89-8.69-8.69v-51.45c0-4.8,3.9-8.69,8.69-8.69Z" transform="translate(1405.91 -173.9) rotate(90)" fill="#e8ecf1"/>
      <rect x="589.21" y="536.97" width="79.82" height="158.06" rx="8.69" ry="8.69" transform="translate(1245.13 -13.12) rotate(90)" fill="#e8ecf1"/>
      <rect x="802.57" y="583.86" width="16.49" height="16.49" rx="4.86" ry="4.86" transform="translate(1621.63 1184.22) rotate(-180)" fill="#d0d9e3"/>
      <path d="M813.91,600.95h-6.77c-3.01,0-5.46-2.45-5.46-5.46,0-.33.27-.6.6-.6s.6.27.6.6c0,2.35,1.91,4.26,4.26,4.26h6.77c2.35,0,4.26-1.91,4.26-4.26v-6.77c0-2.35-1.91-4.26-4.26-4.26-.33,0-.6-.27-.6-.6s.27-.6.6-.6c3.01,0,5.46,2.45,5.46,5.46v6.77c0,3.01-2.45,5.46-5.46,5.46Z"/>
      <path d="M802.28,589.32c-.33,0-.6-.27-.6-.6,0-3.01,2.45-5.46,5.46-5.46.33,0,.6.27.6.6s-.27.6-.6.6c-2.35,0-4.26,1.91-4.26,4.26,0,.33-.27.6-.6.6Z"/>
      <rect x="683.6" y="583.86" width="16.49" height="16.49" rx="4.86" ry="4.86" transform="translate(1383.69 1184.22) rotate(-180)" fill="#d0d9e3"/>
      <path d="M694.94,600.95h-6.77c-3.01,0-5.46-2.45-5.46-5.46,0-.33.27-.6.6-.6s.6.27.6.6c0,2.35,1.91,4.26,4.26,4.26h6.77c2.35,0,4.26-1.91,4.26-4.26v-6.77c0-2.35-1.91-4.26-4.26-4.26-.33,0-.6-.27-.6-.6s.27-.6.6-.6c3.01,0,5.46,2.45,5.46,5.46v6.77c0,3.01-2.45,5.46-5.46,5.46Z"/>
      <path d="M683.31,589.32c-.33,0-.6-.27-.6-.6,0-3.01,2.45-5.46,5.46-5.46.33,0,.6.27.6.6s-.27.6-.6.6c-2.35,0-4.26,1.91-4.26,4.26,0,.33-.27.6-.6.6Z"/>
      <rect x="557.56" y="583.86" width="16.49" height="16.49" rx="4.86" ry="4.86" transform="translate(1131.62 1184.22) rotate(-180)" fill="#d0d9e3"/>
      <path d="M568.9,600.95h-6.77c-3.01,0-5.46-2.45-5.46-5.46,0-.33.27-.6.6-.6s.6.27.6.6c0,2.35,1.91,4.26,4.26,4.26h6.77c2.35,0,4.26-1.91,4.26-4.26v-6.77c0-2.35-1.91-4.26-4.26-4.26-.33,0-.6-.27-.6-.6s.27-.6.6-.6c3.01,0,5.46,2.45,5.46,5.46v6.77c0,3.01-2.45,5.46-5.46,5.46Z"/>
      <path d="M557.27,589.32c-.33,0-.6-.27-.6-.6,0-3.01,2.45-5.46,5.46-5.46.33,0,.6.27.6.6s-.27.6-.6.6c-2.35,0-4.26,1.91-4.26,4.26,0,.33-.27.6-.6.6Z"/>
      <rect x="557.56" y="632.16" width="16.49" height="16.49" rx="4.86" ry="4.86" transform="translate(1131.62 1280.8) rotate(-180)" fill="#d0d9e3"/>
      <path d="M568.9,649.25h-6.77c-3.01,0-5.46-2.45-5.46-5.46,0-.33.27-.6.6-.6s.6.27.6.6c0,2.35,1.91,4.26,4.26,4.26h6.77c2.35,0,4.26-1.91,4.26-4.26v-6.77c0-2.35-1.91-4.26-4.26-4.26-.33,0-.6-.27-.6-.6s.27-.6.6-.6c3.01,0,5.46,2.45,5.46,5.46v6.77c0,3.01-2.45,5.46-5.46,5.46Z"/>
      <path d="M557.27,637.61c-.33,0-.6-.27-.6-.6,0-3.01,2.45-5.46,5.46-5.46.33,0,.6.27.6.6s-.27.6-.6.6c-2.35,0-4.26,1.91-4.26,4.26,0,.33-.27.6-.6.6Z"/>
      <rect x="683.31" y="632.16" width="16.49" height="16.49" rx="4.86" ry="4.86" transform="translate(1383.1 1280.8) rotate(-180)" fill="#d0d9e3"/>
      <path d="M694.64,649.25h-6.77c-3.01,0-5.46-2.45-5.46-5.46,0-.33.27-.6.6-.6s.6.27.6.6c0,2.35,1.91,4.26,4.26,4.26h6.77c2.35,0,4.26-1.91,4.26-4.26v-6.77c0-2.35-1.91-4.26-4.26-4.26-.33,0-.6-.27-.6-.6s.27-.6.6-.6c3.01,0,5.46,2.45,5.46,5.46v6.77c0,3.01-2.45,5.46-5.46,5.46Z"/>
      <path d="M683.01,637.61c-.33,0-.6-.27-.6-.6,0-3.01,2.45-5.46,5.46-5.46.33,0,.6.27.6.6s-.27.6-.6.6c-2.35,0-4.26,1.91-4.26,4.26,0,.33-.27.6-.6.6Z"/>
      <rect x="761.2" y="583.86" width="16.49" height="16.49" rx="4.86" ry="4.86" transform="translate(1538.88 1184.22) rotate(-180)" fill="#d0d9e3"/>
      <rect x="802.57" y="632.75" width="16.49" height="16.49" rx="4.86" ry="4.86" transform="translate(1621.63 1281.98) rotate(-180)" fill="#d0d9e3"/>
      <rect x="761.2" y="632.75" width="16.49" height="16.49" rx="4.86" ry="4.86" transform="translate(1538.88 1281.98) rotate(-180)" fill="#d0d9e3"/>
      <path d="M772.9,600.95h-6.77c-3.01,0-5.46-2.45-5.46-5.46,0-.33.27-.6.6-.6s.6.27.6.6c0,2.35,1.91,4.26,4.26,4.26h6.77c2.35,0,4.26-1.91,4.26-4.26v-6.77c0-2.35-1.91-4.26-4.26-4.26-.33,0-.6-.27-.6-.6s.27-.6.6-.6c3.01,0,5.46,2.45,5.46,5.46v6.77c0,3.01-2.45,5.46-5.46,5.46Z"/>
      <path d="M761.27,589.32c-.33,0-.6-.27-.6-.6,0-3.01,2.45-5.46,5.46-5.46.33,0,.6.27.6.6s-.27.6-.6.6c-2.35,0-4.26,1.91-4.26,4.26,0,.33-.27.6-.6.6Z"/>
      <path d="M772.9,649.98h-6.77c-3.01,0-5.46-2.45-5.46-5.46,0-.33.27-.6.6-.6s.6.27.6.6c0,2.35,1.91,4.26,4.26,4.26h6.77c2.35,0,4.26-1.91,4.26-4.26v-6.77c0-2.35-1.91-4.26-4.26-4.26-.33,0-.6-.27-.6-.6s.27-.6.6-.6c3.01,0,5.46,2.45,5.46,5.46v6.77c0,3.01-2.45,5.46-5.46,5.46Z"/>
      <path d="M761.27,638.35c-.33,0-.6-.27-.6-.6,0-3.01,2.45-5.46,5.46-5.46.33,0,.6.27.6.6s-.27.6-.6.6c-2.35,0-4.26,1.91-4.26,4.26,0,.33-.27.6-.6.6Z"/>
      <path d="M814.05,649.98h-6.77c-3.01,0-5.46-2.45-5.46-5.46,0-.33.27-.6.6-.6s.6.27.6.6c0,2.35,1.91,4.26,4.26,4.26h6.77c2.35,0,4.26-1.91,4.26-4.26v-6.77c0-2.35-1.91-4.26-4.26-4.26-.33,0-.6-.27-.6-.6s.27-.6.6-.6c3.01,0,5.46,2.45,5.46,5.46v6.77c0,3.01-2.45,5.46-5.46,5.46Z"/>
      <path d="M802.42,638.35c-.33,0-.6-.27-.6-.6,0-3.01,2.45-5.46,5.46-5.46.33,0,.6.27.6.6s-.27.6-.6.6c-2.35,0-4.26,1.91-4.26,4.26,0,.33-.27.6-.6.6Z"/>
      <g>
        <path d="M597.27,697.47c-.67-.41-1.42-.62-2.25-.62h-6.18v15.19h2.34v-5.82h3.84c.83,0,1.57-.21,2.25-.64s1.21-1,1.62-1.7c.41-.71.61-1.5.61-2.37s-.2-1.66-.61-2.37c-.41-.71-.94-1.27-1.62-1.68ZM596.82,702.74c-.2.37-.45.67-.77.89-.32.22-.67.34-1.06.34h-3.8v-4.86h3.8c.39,0,.75.11,1.06.33.32.22.57.51.77.87.2.36.29.77.29,1.21s-.1.86-.29,1.23Z" fill="#000d3d"/>
        <path d="M607.76,700.41c-.54,0-1.05.13-1.55.39s-.94.62-1.32,1.06c-.25.3-.44.62-.6.97v-2.18h-2.26v11.39h2.26v-6.29c0-.42.08-.81.24-1.16.16-.35.37-.67.64-.93.27-.27.58-.48.93-.63.35-.15.73-.23,1.12-.23.2,0,.41.03.62.08.21.05.4.11.57.18l.59-2.43c-.13-.06-.31-.11-.53-.15-.22-.04-.46-.07-.71-.07Z" fill="#000d3d"/>
        <path d="M618.39,701.18c-.88-.51-1.86-.77-2.96-.77s-2.11.26-2.98.77c-.88.51-1.57,1.21-2.07,2.1-.51.89-.76,1.91-.76,3.05s.25,2.16.76,3.05c.51.89,1.2,1.59,2.07,2.1.88.51,1.87.77,2.98.77s2.09-.26,2.96-.77c.88-.51,1.57-1.21,2.07-2.1.51-.89.76-1.91.76-3.05s-.25-2.16-.76-3.05c-.51-.89-1.2-1.59-2.07-2.1ZM618.51,708.31c-.3.59-.72,1.05-1.26,1.39-.54.34-1.14.51-1.82.51s-1.29-.17-1.83-.51c-.54-.34-.97-.8-1.27-1.39s-.45-1.25-.43-1.99c-.01-.74.13-1.4.43-1.99s.73-1.05,1.27-1.39c.54-.34,1.15-.51,1.83-.51s1.29.17,1.82.5.96.79,1.26,1.38.45,1.25.43,2.01c.01.74-.13,1.4-.43,1.99Z" fill="#000d3d"/>
        <path d="M638.96,700.97c-.56-.35-1.26-.52-2.12-.52-.39,0-.79.06-1.19.2-.4.13-.79.31-1.15.54-.36.23-.68.5-.97.79-.27.28-.47.58-.63.89-.14-.42-.31-.8-.53-1.11-.32-.43-.72-.76-1.21-.98-.49-.22-1.06-.33-1.71-.33-.45,0-.89.08-1.31.24s-.82.37-1.19.64c-.37.27-.68.58-.93.92-.05.07-.09.15-.14.23v-1.83h-2.26v11.39h2.26v-6.86c0-.38.07-.73.22-1.05s.35-.61.61-.85c.26-.24.56-.43.91-.56.35-.14.72-.21,1.13-.21.48,0,.88.11,1.22.33.33.22.59.53.76.94.17.41.26.92.26,1.51v6.75h2.26v-6.81c0-.39.07-.75.22-1.07s.35-.61.61-.86c.26-.25.57-.44.92-.57s.73-.21,1.14-.21c.52,0,.95.1,1.28.3.33.2.58.51.75.92.17.41.25.94.25,1.59v6.71h2.26v-6.83c0-1.06-.14-1.94-.42-2.65s-.7-1.24-1.26-1.58Z" fill="#000d3d"/>
        <path d="M652.31,701.21c-.8-.51-1.71-.76-2.73-.76-.62,0-1.23.13-1.81.38-.59.25-1.08.58-1.49.98-.16.15-.28.31-.39.47v-1.63h-2.26v16.17h2.26v-6.27c.07.09.15.17.24.26.43.42.96.76,1.58,1.03s1.27.4,1.93.4c1,0,1.89-.26,2.69-.77.79-.51,1.42-1.21,1.88-2.1s.68-1.9.68-3.03-.23-2.16-.69-3.04c-.46-.88-1.09-1.58-1.89-2.08ZM652.29,708.3c-.3.58-.72,1.03-1.24,1.37s-1.11.5-1.78.5-1.28-.17-1.8-.5c-.52-.33-.93-.79-1.24-1.37-.3-.58-.46-1.24-.46-1.97s.15-1.4.46-1.97c.3-.58.72-1.03,1.24-1.36.52-.33,1.12-.49,1.8-.49s1.28.17,1.8.5c.52.33.93.78,1.23,1.36.3.57.44,1.23.44,1.96s-.15,1.4-.46,1.97Z" fill="#000d3d"/>
        <polygon points="660.97 697.74 658.74 697.74 658.74 700.65 656.37 700.65 656.37 702.81 658.74 702.81 658.74 712.04 660.97 712.04 660.97 702.81 663.62 702.81 663.62 700.65 660.97 700.65 660.97 697.74" fill="#000d3d"/>
        <polygon points="672.3 712.04 681.87 712.04 681.87 709.78 674.64 709.78 674.64 705.38 680.67 705.38 680.67 703.12 674.64 703.12 674.64 699.1 681.87 699.1 681.87 696.85 672.3 696.85 672.3 712.04" fill="#000d3d"/>
        <path d="M693.19,700.92c-.58-.34-1.3-.51-2.17-.51-.61,0-1.2.13-1.78.4-.58.27-1.08.62-1.5,1.04-.18.18-.33.38-.46.58v-1.78h-2.23v11.39h2.23v-6.9c0-.38.08-.73.23-1.05.15-.33.36-.61.63-.86s.58-.44.94-.58c.36-.14.76-.21,1.19-.21.54-.03.98.05,1.34.25.36.2.63.51.8.93.17.43.26.97.26,1.62v6.79h2.24v-6.94c0-1.06-.14-1.93-.43-2.63-.29-.69-.72-1.21-1.3-1.55Z" fill="#000d3d"/>
        <path d="M706.69,702.21c-.15-.19-.32-.37-.52-.54-.28-.23-.59-.45-.93-.64-.35-.2-.72-.35-1.13-.46s-.82-.16-1.26-.16c-1.06,0-2.01.26-2.85.77-.85.51-1.51,1.21-2,2.1s-.73,1.91-.73,3.05.25,2.16.74,3.05c.49.89,1.16,1.59,2.01,2.1.85.51,1.81.77,2.9.77.62,0,1.23-.13,1.82-.39.59-.26,1.09-.6,1.49-1.01.2-.2.35-.41.47-.62v1.37c0,.75-.14,1.38-.41,1.89-.28.51-.68.89-1.21,1.15-.54.26-1.2.39-2,.39-.42,0-.85-.05-1.28-.14-.43-.09-.85-.22-1.24-.39-.39-.17-.73-.36-1.02-.58l-.83,1.74c.49.4,1.14.73,1.94.99.8.25,1.61.38,2.42.38.91,0,1.73-.13,2.45-.38.72-.25,1.34-.62,1.84-1.11.51-.49.89-1.08,1.16-1.78.27-.7.4-1.51.4-2.42v-10.7h-2.24v1.56ZM705.04,709.69c-.55.33-1.18.5-1.89.5s-1.31-.17-1.85-.5c-.54-.33-.97-.79-1.28-1.38-.31-.59-.47-1.25-.47-1.99s.16-1.4.47-1.99c.31-.59.74-1.05,1.28-1.39.54-.34,1.16-.51,1.85-.51s1.33.17,1.88.5c.54.33.97.79,1.28,1.38.31.59.47,1.25.47,2.01s-.15,1.42-.46,2c-.3.58-.73,1.04-1.28,1.37Z" fill="#000d3d"/>
        <path d="M713.5,695.31c-.46,0-.83.13-1.1.39-.27.26-.4.6-.4,1.02,0,.45.13.8.39,1.04.26.25.63.37,1.11.37s.83-.13,1.1-.39c.27-.26.4-.6.4-1.02,0-.45-.13-.8-.39-1.04-.26-.25-.63-.37-1.11-.37Z" fill="#000d3d"/>
        <rect x="712.42" y="700.65" width="2.23" height="11.39" fill="#000d3d"/>
        <path d="M726.22,700.92c-.58-.34-1.3-.51-2.17-.51-.61,0-1.2.13-1.78.4-.58.27-1.08.62-1.5,1.04-.18.18-.33.38-.46.58v-1.78h-2.23v11.39h2.23v-6.9c0-.38.08-.73.23-1.05.15-.33.36-.61.63-.86s.58-.44.94-.58c.36-.14.76-.21,1.19-.21.54-.03.98.05,1.34.25.36.2.63.51.8.93.17.43.26.97.26,1.62v6.79h2.24v-6.94c0-1.06-.14-1.93-.43-2.63-.29-.69-.72-1.21-1.3-1.55Z" fill="#000d3d"/>
        <path d="M739.83,701.97c-.47-.49-1.02-.88-1.66-1.16-.64-.28-1.32-.42-2.06-.42-.84,0-1.62.15-2.33.44-.72.3-1.33.72-1.84,1.26-.51.54-.92,1.18-1.2,1.92-.29.74-.43,1.55-.43,2.45,0,1.13.26,2.13.77,3,.51.87,1.22,1.55,2.13,2.05s1.94.75,3.11.75c.54,0,1.08-.08,1.64-.23.56-.15,1.08-.36,1.58-.62.5-.26.92-.56,1.27-.91l-1.13-1.58c-.56.49-1.09.83-1.57,1.02-.49.19-1.01.28-1.57.28-.8,0-1.5-.16-2.1-.48-.61-.32-1.08-.77-1.41-1.36-.25-.44-.41-.95-.47-1.51h8.71l.02-.96c.01-.79-.11-1.53-.36-2.2s-.61-1.25-1.08-1.75ZM734.14,702.89c.54-.3,1.19-.44,1.97-.44.49,0,.95.11,1.37.33.42.22.77.51,1.04.89.27.38.43.8.48,1.28v.15h-6.37c.07-.33.16-.63.29-.9.28-.57.68-1.01,1.22-1.3Z" fill="#000d3d"/>
        <path d="M752.55,701.97c-.47-.49-1.02-.88-1.66-1.16-.64-.28-1.32-.42-2.06-.42-.84,0-1.62.15-2.33.44-.72.3-1.33.72-1.84,1.26-.51.54-.92,1.18-1.2,1.92-.29.74-.43,1.55-.43,2.45,0,1.13.26,2.13.77,3,.51.87,1.22,1.55,2.13,2.05s1.94.75,3.11.75c.54,0,1.08-.08,1.64-.23.56-.15,1.08-.36,1.58-.62.5-.26.92-.56,1.27-.91l-1.13-1.58c-.56.49-1.09.83-1.57,1.02-.49.19-1.01.28-1.57.28-.8,0-1.5-.16-2.1-.48-.61-.32-1.08-.77-1.41-1.36-.25-.44-.41-.95-.47-1.51h8.71l.02-.96c.01-.79-.11-1.53-.36-2.2s-.61-1.25-1.08-1.75ZM746.85,702.89c.54-.3,1.19-.44,1.97-.44.49,0,.95.11,1.37.33.42.22.77.51,1.04.89.27.38.43.8.48,1.28v.15h-6.37c.07-.33.16-.63.29-.9.28-.57.68-1.01,1.22-1.3Z" fill="#000d3d"/>
        <path d="M762.15,700.41c-.54,0-1.05.13-1.55.39s-.94.62-1.32,1.06c-.25.3-.44.62-.6.97v-2.18h-2.26v11.39h2.26v-6.29c0-.42.08-.81.24-1.16.16-.35.37-.67.64-.93.27-.27.58-.48.93-.63.35-.15.73-.23,1.12-.23.2,0,.41.03.62.08.21.05.4.11.57.18l.59-2.43c-.13-.06-.31-.11-.53-.15-.22-.04-.46-.07-.71-.07Z" fill="#000d3d"/>
        <path d="M766.62,695.31c-.46,0-.83.13-1.1.39-.27.26-.4.6-.4,1.02,0,.45.13.8.39,1.04.26.25.63.37,1.11.37s.83-.13,1.1-.39c.27-.26.4-.6.4-1.02,0-.45-.13-.8-.39-1.04-.26-.25-.63-.37-1.11-.37Z" fill="#000d3d"/>
        <rect x="765.54" y="700.65" width="2.23" height="11.39" fill="#000d3d"/>
        <path d="M779.34,700.92c-.58-.34-1.3-.51-2.17-.51-.61,0-1.2.13-1.78.4-.58.27-1.08.62-1.5,1.04-.18.18-.33.38-.46.58v-1.78h-2.23v11.39h2.23v-6.9c0-.38.08-.73.23-1.05.15-.33.36-.61.63-.86s.58-.44.94-.58c.36-.14.76-.21,1.19-.21.54-.03.98.05,1.34.25.36.2.63.51.8.93.17.43.26.97.26,1.62v6.79h2.24v-6.94c0-1.06-.14-1.93-.43-2.63-.29-.69-.72-1.21-1.3-1.55Z" fill="#000d3d"/>
        <path d="M792.83,700.65v1.56c-.15-.19-.32-.37-.52-.54-.28-.23-.59-.45-.93-.64-.35-.2-.72-.35-1.13-.46s-.82-.16-1.26-.16c-1.06,0-2.01.26-2.85.77-.85.51-1.51,1.21-2,2.1s-.73,1.91-.73,3.05.25,2.16.74,3.05c.49.89,1.16,1.59,2.01,2.1.85.51,1.81.77,2.9.77.62,0,1.23-.13,1.82-.39.59-.26,1.09-.6,1.49-1.01.2-.2.35-.41.47-.62v1.37c0,.75-.14,1.38-.41,1.89-.28.51-.68.89-1.21,1.15-.54.26-1.2.39-2,.39-.42,0-.85-.05-1.28-.14-.43-.09-.85-.22-1.24-.39-.39-.17-.73-.36-1.02-.58l-.83,1.74c.49.4,1.14.73,1.94.99.8.25,1.61.38,2.42.38.91,0,1.73-.13,2.45-.38.72-.25,1.34-.62,1.84-1.11.51-.49.89-1.08,1.16-1.78.27-.7.4-1.51.4-2.42v-10.7h-2.24ZM791.19,709.69c-.55.33-1.18.5-1.89.5s-1.31-.17-1.85-.5c-.54-.33-.97-.79-1.28-1.38-.31-.59-.47-1.25-.47-1.99s.16-1.4.47-1.99c.31-.59.74-1.05,1.28-1.39.54-.34,1.16-.51,1.85-.51s1.33.17,1.88.5c.54.33.97.79,1.28,1.38.31.59.47,1.25.47,2.01s-.15,1.42-.46,2c-.3.58-.73,1.04-1.28,1.37Z" fill="#000d3d"/>
      </g>
      <rect x="971.86" y="311.87" width="139.31" height="429.34" rx="19.33" ry="19.33" fill="#d0d9e3"/>
      <g>
        <rect x="986.71" y="328.7" width="108.74" height="108.74" rx="20.77" ry="20.77" transform="translate(1424.14 -658.01) rotate(90)" fill="#e8ecf1"/>
        <path d="M1074.67,437.93h-67.19c-11.73,0-21.27-9.54-21.27-21.27v-67.19c0-11.73,9.54-21.27,21.27-21.27h67.19c11.73,0,21.27,9.54,21.27,21.27v67.19c0,11.73-9.54,21.27-21.27,21.27ZM1007.48,329.2c-11.18,0-20.27,9.09-20.27,20.27v67.19c0,11.18,9.09,20.27,20.27,20.27h67.19c11.18,0,20.27-9.09,20.27-20.27v-67.19c0-11.18-9.09-20.27-20.27-20.27h-67.19Z"/>
      </g>
      <rect x="992.71" y="334.7" width="96.74" height="96.74" rx="14.77" ry="14.77" fill="#5f38fb"/>
      <g>
        <path d="M1045.74,420.9h-10.12c-16.66,0-30.24-13.04-30.91-29.68-.02-.41-.03-.83-.03-1.26v-15.01c0-17.06,13.88-30.94,30.94-30.94h10.12c17.06,0,30.94,13.88,30.94,30.94v15.01c0,.42-.02.84-.03,1.26-.67,16.64-14.24,29.68-30.91,29.68ZM1035.61,345.21c-16.4,0-29.74,13.34-29.74,29.75v15.01c0,.4.01.81.03,1.21.64,16,13.69,28.54,29.71,28.54h10.12c16.02,0,29.07-12.53,29.71-28.54.02-.4.03-.81.03-1.21v-15.01c0-16.4-13.35-29.75-29.75-29.75h-10.12Z"/>
        <path d="M1045.73,344.61h-10.12c-16.75,0-30.34,13.58-30.34,30.34v15.01c0,.41.01.82.03,1.23.65,16.19,13.97,29.11,30.31,29.11h10.12c16.34,0,29.66-12.92,30.31-29.11.02-.41.03-.82.03-1.23v-15.01c0-16.76-13.59-30.34-30.35-30.34Z" fill="#fff"/>
        <path d="M1047.52,419.77c7.04-.93,13.85-2.76,19.31-7.62,1.24-1.31,2.45-2.71,3.73-4.18.69-.95,1.33-1.95,1.92-2.95.03-.12.05-.23.1-.35,1.38-3.3,3.15-6.35,3.68-9.85.01-.34,0-.67-.04-.97-.12-.81-.06-1.56.13-2.24-.26-.11-.51-.23-.74-.39-.21,3.49-1.5,6.84-3.7,9.57-5.8,7.23-14.71,11.87-24.7,11.87h-13.06c-9.99,0-18.9-4.63-24.7-11.87-2.4-2.99-3.73-6.72-3.74-10.55v-.41c-.49,1.61-.76,3.19-.41,5.28.23,1.37.55,2.72.91,4.06.22.3.41.64.58,1.04,1.52,3.58,3.4,5.89,5.7,8.94,1.7,2.25,2.92,4.47,5.26,6.16,5.3,3.82,13,4.89,19.35,5.12,2.64.1,5.48.16,8.33.06.6-.36,1.29-.61,2.09-.72Z" fill="url(#linear-gradient)"/>
        <rect x="1010.69" y="349.82" width="60.38" height="51.18" rx="24.73" ry="24.73" fill="#010e3e"/>
        <path d="M1029.88,374.74h-6.11v-6.11h6.11v6.11ZM1023.76,374.74h-6.11v6.11h6.11v-6.11ZM1035.99,374.74h-6.11v6.11h6.11v-6.11ZM1057.92,368.63h-6.11v6.11h6.11v-6.11ZM1051.81,374.74h-6.11v6.11h6.11v-6.11ZM1064.03,374.74h-6.11v6.11h6.11v-6.11Z" fill="#fff"/>
        <path d="M1045.74,420.9h-10.12c-16.66,0-30.24-13.04-30.91-29.68-.02-.41-.03-.83-.03-1.26v-15.01c0-17.06,13.88-30.94,30.94-30.94h10.12c17.06,0,30.94,13.88,30.94,30.94v15.01c0,.42-.02.84-.03,1.26-.67,16.64-14.24,29.68-30.91,29.68ZM1035.61,345.21c-16.4,0-29.74,13.34-29.74,29.75v15.01c0,.4.01.81.03,1.21.64,16,13.69,28.54,29.71,28.54h10.12c16.02,0,29.07-12.53,29.71-28.54.02-.4.03-.81.03-1.21v-15.01c0-16.4-13.35-29.75-29.75-29.75h-10.12Z"/>
      </g>
      <g>
        <rect x="986.71" y="474.02" width="108.74" height="108.74" rx="20.77" ry="20.77" transform="translate(1569.47 -512.69) rotate(90)" fill="#e8ecf1"/>
        <path d="M1074.67,583.26h-67.19c-11.73,0-21.27-9.54-21.27-21.27v-67.19c0-11.73,9.54-21.27,21.27-21.27h67.19c11.73,0,21.27,9.54,21.27,21.27v67.19c0,11.73-9.54,21.27-21.27,21.27ZM1007.48,474.52c-11.18,0-20.27,9.09-20.27,20.27v67.19c0,11.18,9.09,20.27,20.27,20.27h67.19c11.18,0,20.27-9.09,20.27-20.27v-67.19c0-11.18-9.09-20.27-20.27-20.27h-67.19Z"/>
      </g>
      <rect x="992.71" y="480.02" width="96.74" height="96.74" rx="14.77" ry="14.77" fill="#5f38fb"/>
      <g>
        <path d="M1045.74,566.23h-10.12c-16.66,0-30.24-13.04-30.91-29.68-.02-.41-.03-.83-.03-1.26v-15.01c0-17.06,13.88-30.94,30.94-30.94h10.12c17.06,0,30.94,13.88,30.94,30.94v15.01c0,.42-.02.84-.03,1.26-.67,16.64-14.24,29.68-30.91,29.68ZM1035.61,490.53c-16.4,0-29.74,13.34-29.74,29.75v15.01c0,.4.01.81.03,1.21.64,16,13.69,28.54,29.71,28.54h10.12c16.02,0,29.07-12.53,29.71-28.54.02-.4.03-.81.03-1.21v-15.01c0-16.4-13.35-29.75-29.75-29.75h-10.12Z"/>
        <path d="M1045.73,489.94h-10.12c-16.75,0-30.34,13.58-30.34,30.34v15.01c0,.41.01.82.03,1.23.65,16.19,13.97,29.11,30.31,29.11h10.12c16.34,0,29.66-12.92,30.31-29.11.02-.41.03-.82.03-1.23v-15.01c0-16.76-13.59-30.34-30.35-30.34Z" fill="#fff"/>
        <path d="M1047.52,565.1c7.04-.93,13.85-2.76,19.31-7.62,1.24-1.31,2.45-2.71,3.73-4.18.69-.95,1.33-1.95,1.92-2.95.03-.12.05-.23.1-.35,1.38-3.3,3.15-6.35,3.68-9.85.01-.34,0-.67-.04-.97-.12-.81-.06-1.56.13-2.24-.26-.11-.51-.23-.74-.39-.21,3.49-1.5,6.84-3.7,9.57-5.8,7.23-14.71,11.87-24.7,11.87h-13.06c-9.99,0-18.9-4.63-24.7-11.87-2.4-2.99-3.73-6.72-3.74-10.55v-.41c-.49,1.61-.76,3.19-.41,5.28.23,1.37.55,2.72.91,4.06.22.3.41.64.58,1.04,1.52,3.58,3.4,5.89,5.7,8.94,1.7,2.25,2.92,4.47,5.26,6.16,5.3,3.82,13,4.89,19.35,5.12,2.64.1,5.48.16,8.33.06.6-.36,1.29-.61,2.09-.72Z" fill="url(#linear-gradient-2)"/>
        <rect x="1010.69" y="495.15" width="60.38" height="51.18" rx="24.73" ry="24.73" fill="#010e3e"/>
        <path d="M1029.88,520.07h-6.11v-6.11h6.11v6.11ZM1023.76,520.07h-6.11v6.11h6.11v-6.11ZM1035.99,520.07h-6.11v6.11h6.11v-6.11ZM1057.92,513.96h-6.11v6.11h6.11v-6.11ZM1051.81,520.07h-6.11v6.11h6.11v-6.11ZM1064.03,520.07h-6.11v6.11h6.11v-6.11Z" fill="#fff"/>
        <path d="M1045.74,566.23h-10.12c-16.66,0-30.24-13.04-30.91-29.68-.02-.41-.03-.83-.03-1.26v-15.01c0-17.06,13.88-30.94,30.94-30.94h10.12c17.06,0,30.94,13.88,30.94,30.94v15.01c0,.42-.02.84-.03,1.26-.67,16.64-14.24,29.68-30.91,29.68ZM1035.61,490.53c-16.4,0-29.74,13.34-29.74,29.75v15.01c0,.4.01.81.03,1.21.64,16,13.69,28.54,29.71,28.54h10.12c16.02,0,29.07-12.53,29.71-28.54.02-.4.03-.81.03-1.21v-15.01c0-16.4-13.35-29.75-29.75-29.75h-10.12Z"/>
      </g>
      <g>
        <rect x="986.71" y="618.02" width="108.74" height="108.74" rx="20.77" ry="20.77" transform="translate(1713.47 -368.69) rotate(90)" fill="#e8ecf1"/>
        <path d="M1074.67,727.26h-67.19c-11.73,0-21.27-9.54-21.27-21.27v-67.19c0-11.73,9.54-21.27,21.27-21.27h67.19c11.73,0,21.27,9.54,21.27,21.27v67.19c0,11.73-9.54,21.27-21.27,21.27ZM1007.48,618.52c-11.18,0-20.27,9.09-20.27,20.27v67.19c0,11.18,9.09,20.27,20.27,20.27h67.19c11.18,0,20.27-9.09,20.27-20.27v-67.19c0-11.18-9.09-20.27-20.27-20.27h-67.19Z"/>
      </g>
      <rect x="992.71" y="624.02" width="96.74" height="96.74" rx="14.77" ry="14.77" fill="#5f38fb"/>
      <g>
        <path d="M1045.74,710.23h-10.12c-16.66,0-30.24-13.04-30.91-29.68-.02-.41-.03-.83-.03-1.26v-15.01c0-17.06,13.88-30.94,30.94-30.94h10.12c17.06,0,30.94,13.88,30.94,30.94v15.01c0,.42-.02.84-.03,1.26-.67,16.64-14.24,29.68-30.91,29.68ZM1035.61,634.53c-16.4,0-29.74,13.34-29.74,29.75v15.01c0,.4.01.81.03,1.21.64,16,13.69,28.54,29.71,28.54h10.12c16.02,0,29.07-12.53,29.71-28.54.02-.4.03-.81.03-1.21v-15.01c0-16.4-13.35-29.75-29.75-29.75h-10.12Z"/>
        <path d="M1045.73,633.94h-10.12c-16.75,0-30.34,13.58-30.34,30.34v15.01c0,.41.01.82.03,1.23.65,16.19,13.97,29.11,30.31,29.11h10.12c16.34,0,29.66-12.92,30.31-29.11.02-.41.03-.82.03-1.23v-15.01c0-16.76-13.59-30.34-30.35-30.34Z" fill="#fff"/>
        <path d="M1047.52,709.1c7.04-.93,13.85-2.76,19.31-7.62,1.24-1.31,2.45-2.71,3.73-4.18.69-.95,1.33-1.95,1.92-2.95.03-.12.05-.23.1-.35,1.38-3.3,3.15-6.35,3.68-9.85.01-.34,0-.67-.04-.97-.12-.81-.06-1.56.13-2.24-.26-.11-.51-.23-.74-.39-.21,3.49-1.5,6.84-3.7,9.57-5.8,7.23-14.71,11.87-24.7,11.87h-13.06c-9.99,0-18.9-4.63-24.7-11.87-2.4-2.99-3.73-6.72-3.74-10.55v-.41c-.49,1.61-.76,3.19-.41,5.28.23,1.37.55,2.72.91,4.06.22.3.41.64.58,1.04,1.52,3.58,3.4,5.89,5.7,8.94,1.7,2.25,2.92,4.47,5.26,6.16,5.3,3.82,13,4.89,19.35,5.12,2.64.1,5.48.16,8.33.06.6-.36,1.29-.61,2.09-.72Z" fill="url(#linear-gradient-3)"/>
        <rect x="1010.69" y="639.15" width="60.38" height="51.18" rx="24.73" ry="24.73" fill="#010e3e"/>
        <path d="M1029.88,664.07h-6.11v-6.11h6.11v6.11ZM1023.76,664.07h-6.11v6.11h6.11v-6.11ZM1035.99,664.07h-6.11v6.11h6.11v-6.11ZM1057.92,657.96h-6.11v6.11h6.11v-6.11ZM1051.81,664.07h-6.11v6.11h6.11v-6.11ZM1064.03,664.07h-6.11v6.11h6.11v-6.11Z" fill="#fff"/>
        <path d="M1045.74,710.23h-10.12c-16.66,0-30.24-13.04-30.91-29.68-.02-.41-.03-.83-.03-1.26v-15.01c0-17.06,13.88-30.94,30.94-30.94h10.12c17.06,0,30.94,13.88,30.94,30.94v15.01c0,.42-.02.84-.03,1.26-.67,16.64-14.24,29.68-30.91,29.68ZM1035.61,634.53c-16.4,0-29.74,13.34-29.74,29.75v15.01c0,.4.01.81.03,1.21.64,16,13.69,28.54,29.71,28.54h10.12c16.02,0,29.07-12.53,29.71-28.54.02-.4.03-.81.03-1.21v-15.01c0-16.4-13.35-29.75-29.75-29.75h-10.12Z"/>
      </g>
      <g>
        <rect x="1165.31" y="548.67" width="108.74" height="108.74" rx="20.77" ry="20.77" transform="translate(1822.72 -616.64) rotate(90)" fill="#e8ecf1"/>
        <path d="M1253.28,657.91h-67.19c-11.73,0-21.27-9.54-21.27-21.27v-67.19c0-11.73,9.54-21.27,21.27-21.27h67.19c11.73,0,21.27,9.54,21.27,21.27v67.19c0,11.73-9.54,21.27-21.27,21.27ZM1186.08,549.17c-11.18,0-20.27,9.09-20.27,20.27v67.19c0,11.18,9.09,20.27,20.27,20.27h67.19c11.18,0,20.27-9.09,20.27-20.27v-67.19c0-11.18-9.09-20.27-20.27-20.27h-67.19Z"/>
      </g>
      <rect x="1171.31" y="554.67" width="96.74" height="96.74" rx="14.77" ry="14.77" fill="#fff"/>
      <g>
        <path d="M1224.34,640.88h-10.12c-16.66,0-30.24-13.04-30.91-29.68-.02-.41-.03-.83-.03-1.26v-15.01c0-17.06,13.88-30.94,30.93-30.94h10.12c17.06,0,30.94,13.88,30.94,30.94v15.01c0,.42-.01.84-.03,1.26-.67,16.64-14.24,29.68-30.91,29.68ZM1214.21,565.19c-16.4,0-29.74,13.34-29.74,29.75v15.01c0,.4.01.81.03,1.21.64,16.01,13.69,28.54,29.71,28.54h10.12c16.02,0,29.07-12.53,29.71-28.54.02-.4.03-.81.03-1.21v-15.01c0-16.4-13.35-29.75-29.75-29.75h-10.12Z"/>
        <path d="M1224.33,564.59h-10.12c-16.75,0-30.34,13.58-30.34,30.34v15.01c0,.41.01.82.03,1.23.65,16.19,13.97,29.11,30.31,29.11h10.12c16.34,0,29.66-12.92,30.31-29.11.02-.41.03-.82.03-1.23v-15.01c0-16.76-13.59-30.34-30.35-30.34Z" fill="#fff"/>
        <path d="M1226.12,639.75c7.04-.93,13.85-2.76,19.31-7.62,1.24-1.31,2.45-2.71,3.73-4.18.69-.95,1.33-1.95,1.92-2.95.03-.12.05-.23.1-.35,1.38-3.3,3.15-6.35,3.68-9.85.01-.34,0-.67-.04-.97-.12-.81-.06-1.56.13-2.24-.26-.11-.51-.23-.74-.39-.21,3.49-1.5,6.84-3.7,9.57-5.8,7.23-14.71,11.87-24.7,11.87h-13.06c-9.99,0-18.9-4.63-24.7-11.87-2.4-2.99-3.73-6.72-3.74-10.55v-.41c-.49,1.61-.76,3.19-.41,5.28.23,1.37.55,2.72.91,4.06.22.3.41.64.58,1.04,1.52,3.58,3.4,5.89,5.7,8.94,1.7,2.25,2.92,4.47,5.26,6.16,5.3,3.82,13,4.89,19.35,5.12,2.64.1,5.48.16,8.33.06.6-.36,1.29-.61,2.09-.72Z" fill="url(#linear-gradient-4)"/>
        <rect x="1189.29" y="569.8" width="60.38" height="51.18" rx="24.73" ry="24.73" fill="#010e3e"/>
        <path d="M1208.48,594.72h-6.11v-6.11h6.11v6.11ZM1202.37,594.72h-6.11v6.11h6.11v-6.11ZM1214.59,594.72h-6.11v6.11h6.11v-6.11ZM1236.52,588.61h-6.11v6.11h6.11v-6.11ZM1230.41,594.72h-6.11v6.11h6.11v-6.11ZM1242.64,594.72h-6.11v6.11h6.11v-6.11Z" fill="#fff"/>
        <path d="M1224.34,640.88h-10.12c-16.66,0-30.24-13.04-30.91-29.68-.02-.41-.03-.83-.03-1.26v-15.01c0-17.06,13.88-30.94,30.93-30.94h10.12c17.06,0,30.94,13.88,30.94,30.94v15.01c0,.42-.01.84-.03,1.26-.67,16.64-14.24,29.68-30.91,29.68ZM1214.21,565.19c-16.4,0-29.74,13.34-29.74,29.75v15.01c0,.4.01.81.03,1.21.64,16.01,13.69,28.54,29.71,28.54h10.12c16.02,0,29.07-12.53,29.71-28.54.02-.4.03-.81.03-1.21v-15.01c0-16.4-13.35-29.75-29.75-29.75h-10.12Z"/>
      </g>
      <g>
        <rect x="1165.31" y="398.49" width="108.74" height="108.74" rx="20.77" ry="20.77" transform="translate(1672.54 -766.82) rotate(90)" fill="#e8ecf1"/>
        <path d="M1253.28,507.72h-67.19c-11.73,0-21.27-9.54-21.27-21.27v-67.19c0-11.73,9.54-21.27,21.27-21.27h67.19c11.73,0,21.27,9.54,21.27,21.27v67.19c0,11.73-9.54,21.27-21.27,21.27ZM1186.08,398.99c-11.18,0-20.27,9.09-20.27,20.27v67.19c0,11.18,9.09,20.27,20.27,20.27h67.19c11.18,0,20.27-9.09,20.27-20.27v-67.19c0-11.18-9.09-20.27-20.27-20.27h-67.19Z"/>
      </g>
      <rect x="1171.31" y="404.49" width="96.74" height="96.74" rx="14.77" ry="14.77" fill="#fff"/>
      <g>
        <path d="M1224.34,490.69h-10.12c-16.66,0-30.24-13.04-30.91-29.68-.02-.42-.03-.84-.03-1.26v-15.01c0-17.06,13.88-30.94,30.93-30.94h10.12c17.06,0,30.94,13.88,30.94,30.94v15.01c0,.42-.01.84-.03,1.26-.67,16.64-14.24,29.68-30.91,29.68ZM1214.21,415c-16.4,0-29.74,13.34-29.74,29.75v15.01c0,.4.01.81.03,1.21.64,16.01,13.69,28.54,29.71,28.54h10.12c16.02,0,29.07-12.53,29.71-28.54.02-.4.03-.81.03-1.21v-15.01c0-16.4-13.35-29.75-29.75-29.75h-10.12Z"/>
        <path d="M1224.33,414.4h-10.12c-16.75,0-30.34,13.58-30.34,30.34v15.01c0,.41.01.82.03,1.23.65,16.19,13.97,29.11,30.31,29.11h10.12c16.34,0,29.66-12.92,30.31-29.11.02-.41.03-.82.03-1.23v-15.01c0-16.76-13.59-30.34-30.35-30.34Z" fill="#fff"/>
        <path d="M1226.12,489.56c7.04-.93,13.85-2.76,19.31-7.62,1.24-1.31,2.45-2.71,3.73-4.18.69-.95,1.33-1.95,1.92-2.95.03-.12.05-.23.1-.35,1.38-3.3,3.15-6.35,3.68-9.85.01-.34,0-.67-.04-.97-.12-.81-.06-1.56.13-2.24-.26-.11-.51-.23-.74-.39-.21,3.49-1.5,6.84-3.7,9.57-5.8,7.23-14.71,11.87-24.7,11.87h-13.06c-9.99,0-18.9-4.63-24.7-11.87-2.4-2.99-3.73-6.72-3.74-10.55v-.41c-.49,1.61-.76,3.19-.41,5.28.23,1.37.55,2.72.91,4.06.22.3.41.64.58,1.04,1.52,3.58,3.4,5.89,5.7,8.94,1.7,2.25,2.92,4.47,5.26,6.16,5.3,3.82,13,4.89,19.35,5.12,2.64.1,5.48.16,8.33.06.6-.36,1.29-.61,2.09-.72Z" fill="url(#linear-gradient-5)"/>
        <rect x="1189.29" y="419.61" width="60.38" height="51.18" rx="24.73" ry="24.73" fill="#010e3e"/>
        <path d="M1208.48,444.53h-6.11v-6.11h6.11v6.11ZM1202.37,444.53h-6.11v6.11h6.11v-6.11ZM1214.59,444.53h-6.11v6.11h6.11v-6.11ZM1236.52,438.42h-6.11v6.11h6.11v-6.11ZM1230.41,444.53h-6.11v6.11h6.11v-6.11ZM1242.64,444.53h-6.11v6.11h6.11v-6.11Z" fill="#fff"/>
        <path d="M1224.34,490.69h-10.12c-16.66,0-30.24-13.04-30.91-29.68-.02-.42-.03-.84-.03-1.26v-15.01c0-17.06,13.88-30.94,30.93-30.94h10.12c17.06,0,30.94,13.88,30.94,30.94v15.01c0,.42-.01.84-.03,1.26-.67,16.64-14.24,29.68-30.91,29.68ZM1214.21,415c-16.4,0-29.74,13.34-29.74,29.75v15.01c0,.4.01.81.03,1.21.64,16.01,13.69,28.54,29.71,28.54h10.12c16.02,0,29.07-12.53,29.71-28.54.02-.4.03-.81.03-1.21v-15.01c0-16.4-13.35-29.75-29.75-29.75h-10.12Z"/>
      </g>
      <rect x="1039.41" y="437.69" width="2.6" height="36.66" fill="#010e3e"/>
      <rect x="1039.41" y="582.65" width="2.6" height="35.56" fill="#010e3e"/>
      <path d="M1107.85,676.78h-12.81v-2.6h12.81c12.03,0,21.82-9.79,21.82-21.82v-25.03c0-13.46,10.95-24.42,24.42-24.42h11.04v2.6h-11.04c-12.03,0-21.82,9.79-21.82,21.82v25.03c0,13.46-10.95,24.42-24.42,24.42Z" fill="#010e3e"/>
      <path d="M1165.13,455.92h-11.04c-13.46,0-24.42-10.95-24.42-24.42v-25.03c0-12.03-9.79-21.82-21.82-21.82h-12.81v-2.6h12.81c13.46,0,24.42,10.95,24.42,24.42v25.03c0,12.03,9.79,21.82,21.82,21.82h11.04v2.6Z" fill="#010e3e"/>
      <path d="M1013.73,845.02H291.78c-17.04,0-30.89-13.86-30.89-30.89v-171.66h2.6v171.66c0,15.6,12.69,28.29,28.29,28.29h721.95c15.6,0,28.29-12.69,28.29-28.29v-56.88h2.6v56.88c0,17.04-13.86,30.89-30.89,30.89Z" fill="#010e3e"/>
      <rect x="415.09" y="536.29" width="110.43" height="2.6" fill="#010e3e"/>
      <g>
        <path d="M409.16,528.39h0c6.88,0,12.47,5.59,12.47,12.47v5.86h-24.95v-5.86c0-6.88,5.59-12.47,12.47-12.47Z" transform="translate(946.72 128.4) rotate(90)" fill="#010e3e"/>
        <polygon points="409.98 542.63 404.77 537.41 409.98 532.2 410.9 533.12 406.61 537.41 410.9 541.71 409.98 542.63" fill="#fff"/>
      </g>
      <g>
        <path d="M262.14,625.75h0c6.88,0,12.47,5.59,12.47,12.47v5.86h-24.95v-5.86c0-6.88,5.59-12.47,12.47-12.47Z" transform="translate(524.28 1269.84) rotate(180)" fill="#010e3e"/>
        <polygon points="266.58 636.66 262.28 632.37 257.99 636.66 257.07 635.74 262.28 630.53 267.5 635.74 266.58 636.66" fill="#fff"/>
      </g>
      <g>
        <path d="M1042.66,741.04h0c6.88,0,12.47,5.59,12.47,12.47v5.86h-24.95v-5.86c0-6.88,5.59-12.47,12.47-12.47Z" transform="translate(2085.31 1500.41) rotate(180)" fill="#010e3e"/>
        <polygon points="1047.09 751.95 1042.8 747.66 1038.51 751.95 1037.59 751.03 1042.8 745.82 1048.01 751.03 1047.09 751.95" fill="#fff"/>
      </g>
      <g>
        <path d="M517.97,528.39h0c6.88,0,12.47,5.59,12.47,12.47v5.86h-24.95v-5.86c0-6.88,5.59-12.47,12.47-12.47Z" transform="translate(-19.59 1055.53) rotate(-90)" fill="#010e3e"/>
        <polygon points="517.15 542.91 516.23 541.99 520.52 537.7 516.23 533.4 517.15 532.48 522.36 537.7 517.15 542.91" fill="#fff"/>
      </g>
      <rect x="689.12" y="186.94" width="2.6" height="110.43" fill="#010e3e"/>
      <g>
        <path d="M690.39,294.13h0c6.88,0,12.47,5.59,12.47,12.47v5.86h-24.95v-5.86c0-6.88,5.59-12.47,12.47-12.47Z" fill="#010e3e"/>
        <polygon points="690.24 307.69 685.03 302.48 685.95 301.56 690.24 305.85 694.54 301.56 695.46 302.48 690.24 307.69" fill="#fff"/>
      </g>
      <g>
        <path d="M690.39,185.32h0c6.88,0,12.47,5.59,12.47,12.47v5.86h-24.95v-5.86c0-6.88,5.59-12.47,12.47-12.47Z" transform="translate(1380.77 388.98) rotate(180)" fill="#010e3e"/>
        <polygon points="686.24 196.23 685.32 195.31 690.53 190.1 695.74 195.31 694.82 196.23 690.53 191.94 686.24 196.23" fill="#fff"/>
      </g>
      <rect x="863.58" y="536.29" width="107.67" height="2.6" fill="#010e3e"/>
      <g>
        <path d="M857.65,528.39h0c6.88,0,12.47,5.59,12.47,12.47v5.86h-24.95v-5.86c0-6.88,5.59-12.47,12.47-12.47Z" transform="translate(1395.21 -320.09) rotate(90)" fill="#010e3e"/>
        <polygon points="858.47 542.63 853.26 537.41 858.47 532.2 859.39 533.12 855.1 537.41 859.39 541.71 858.47 542.63" fill="#fff"/>
      </g>
      <g>
        <path d="M963.22,528.39h0c6.88,0,12.47,5.59,12.47,12.47v5.86h-24.95v-5.86c0-6.88,5.59-12.47,12.47-12.47Z" transform="translate(425.67 1500.78) rotate(-90)" fill="#010e3e"/>
        <polygon points="962.4 542.91 961.48 541.99 965.77 537.7 961.48 533.4 962.4 532.48 967.61 537.7 962.4 542.91" fill="#fff"/>
      </g>
    </g>
  </g>
</svg>