<svg width="304" height="284" viewBox="0 0 304 284" fill="none" xmlns="http://www.w3.org/2000/svg">
<g filter="url(#filter0_b_14_971)">
<g clip-path="url(#clip0_14_971)">
<rect width="304" height="284" rx="16" fill="#F3F5F8"/>
<path d="M154.211 135.046L188.347 154.303" stroke="#DCE2EA" stroke-width="2" stroke-miterlimit="10"/>
<path d="M82.4615 176.167L116.597 195.423" stroke="#DCE2EA" stroke-width="2" stroke-miterlimit="10"/>
<path d="M87.6137 173.051C89.3125 173.995 89.3447 175.577 87.6942 176.578L83.4031 179.177C81.7446 180.177 79.0315 180.226 77.3327 179.282L72.9289 176.828C71.2302 175.884 71.198 174.31 72.8565 173.301L77.1476 170.702C78.8061 169.702 81.5192 169.653 83.2179 170.597L87.6218 173.051H87.6137Z" fill="#DCE2EA"/>
<path d="M159.364 131.931C161.063 132.876 161.095 134.457 159.444 135.458L155.153 138.057C153.495 139.058 150.782 139.106 149.083 138.162L144.679 135.708C142.98 134.764 142.948 133.19 144.607 132.182L148.898 129.583C150.556 128.582 153.269 128.534 154.968 129.478L159.372 131.931H159.364Z" fill="#DCE2EA"/>
<path d="M131.167 122.372L151.164 133.088" stroke="#DCE2EA" stroke-width="2" stroke-miterlimit="10"/>
<path d="M136.319 119.257C138.017 120.201 138.05 121.783 136.399 122.783L132.108 125.382C130.449 126.383 127.736 126.431 126.038 125.487L121.634 123.034C119.935 122.089 119.903 120.516 121.561 119.507L125.852 116.908C127.511 115.907 130.224 115.859 131.923 116.803L136.327 119.257H136.319Z" fill="#DCE2EA"/>
<path d="M385.797 201.055C391.435 204.313 391.465 209.587 385.858 212.845L199.037 321.41C193.43 324.668 184.322 324.668 178.685 321.41L38.114 240.274C32.4766 237.016 32.4463 231.742 38.0534 228.484L224.875 119.904C230.482 116.646 239.589 116.646 245.227 119.904L385.797 201.055Z" fill="#F3F5F8" stroke="#0B1742" stroke-width="0.8" stroke-linejoin="round"/>
<path d="M363.742 201.665C363.742 201.665 363.742 201.727 363.712 201.757C363.619 202.003 363.497 202.233 363.343 202.479C363.312 202.525 363.281 202.556 363.251 202.602C363.082 202.833 362.882 203.063 362.636 203.278C362.483 203.416 362.283 203.539 362.099 203.678C361.945 203.785 361.807 203.908 361.622 204.016L342.035 215.399C341.574 215.66 341.052 215.875 340.514 216.06C340.33 216.121 340.13 216.183 339.93 216.244C339.669 216.321 339.423 216.382 339.162 216.444C338.855 216.505 338.548 216.567 338.225 216.598C338.148 216.598 338.071 216.628 337.995 216.628C337.565 216.674 337.134 216.69 336.704 216.705C336.627 216.705 336.566 216.705 336.489 216.705C336.059 216.705 335.629 216.674 335.214 216.628C335.153 216.628 335.091 216.628 335.014 216.613C334.6 216.567 334.185 216.49 333.77 216.398C333.693 216.382 333.616 216.367 333.555 216.336C333.186 216.244 332.833 216.137 332.48 216.014C332.418 215.998 332.357 215.968 332.295 215.952C331.88 215.799 331.481 215.614 331.128 215.399L208.012 144.301C207.628 144.086 207.305 143.84 207.013 143.594C206.153 142.842 205.738 141.981 205.738 141.121L205.707 153.642C205.707 154.794 206.46 155.946 207.981 156.822L331.112 227.904C331.466 228.104 331.834 228.288 332.218 228.442C332.234 228.442 332.264 228.442 332.28 228.457C332.341 228.488 332.403 228.504 332.464 228.519C332.695 228.596 332.91 228.688 333.14 228.749C333.263 228.78 333.401 228.811 333.524 228.841C333.601 228.857 333.662 228.872 333.739 228.903C333.801 228.903 333.862 228.934 333.939 228.949C334.185 228.995 334.446 229.041 334.707 229.087C334.799 229.087 334.891 229.103 334.984 229.118C335.045 229.118 335.106 229.118 335.183 229.133C335.275 229.133 335.368 229.164 335.46 229.164C335.706 229.179 335.967 229.195 336.228 229.21C336.305 229.21 336.382 229.21 336.458 229.21C336.535 229.21 336.597 229.21 336.673 229.21C336.781 229.21 336.904 229.21 337.011 229.21C337.303 229.21 337.58 229.179 337.872 229.149C337.902 229.149 337.933 229.149 337.964 229.149C338.041 229.149 338.118 229.133 338.194 229.118C338.409 229.087 338.64 229.072 338.855 229.026C338.947 229.01 339.039 228.98 339.132 228.964C339.393 228.903 339.654 228.841 339.9 228.765C340.038 228.734 340.176 228.703 340.314 228.657C340.376 228.642 340.422 228.596 340.483 228.58C341.021 228.396 341.543 228.181 342.004 227.92L361.592 216.536C361.592 216.536 361.653 216.505 361.684 216.475C361.837 216.382 361.93 216.29 362.068 216.198C362.252 216.06 362.452 215.937 362.606 215.799C362.606 215.799 362.636 215.768 362.652 215.768C362.836 215.599 362.99 215.43 363.128 215.261C363.159 215.215 363.174 215.184 363.205 215.138C363.235 215.092 363.266 215.061 363.297 215.015C363.343 214.938 363.404 214.877 363.435 214.8C363.512 214.662 363.589 214.508 363.635 214.37C363.635 214.355 363.635 214.324 363.65 214.308C363.65 214.278 363.666 214.247 363.681 214.232C363.712 214.139 363.742 214.047 363.758 213.955C363.788 213.802 363.804 213.663 363.804 213.51C363.804 213.494 363.804 213.464 363.804 213.448L363.835 200.928C363.835 201.189 363.788 201.45 363.696 201.711L363.742 201.665Z" fill="#F9FAFB" stroke="#0B1742" stroke-width="0.8" stroke-linejoin="round"/>
<path d="M361.591 197.702C364.618 199.453 364.633 202.264 361.638 204.016L342.05 215.399C339.055 217.151 334.154 217.151 331.143 215.399L208.012 144.301C204.985 142.55 204.97 139.723 207.981 137.987L227.568 126.604C230.564 124.852 235.449 124.868 238.476 126.604L361.607 197.686L361.591 197.702Z" fill="white" stroke="#0B1742" stroke-width="0.8" stroke-linejoin="round"/>
<path d="M327.951 221.846C327.951 221.846 327.951 221.907 327.921 221.938C327.828 222.184 327.706 222.414 327.552 222.66C327.521 222.706 327.49 222.737 327.46 222.783C327.291 223.014 327.091 223.244 326.845 223.459C326.692 223.597 326.492 223.72 326.307 223.858C326.154 223.966 326.016 224.089 325.831 224.196L306.244 235.58C305.783 235.841 305.261 236.056 304.723 236.241C304.539 236.302 304.339 236.364 304.139 236.425C303.878 236.502 303.632 236.563 303.371 236.625C303.064 236.686 302.757 236.748 302.434 236.778C302.357 236.778 302.28 236.809 302.204 236.809C301.773 236.855 301.343 236.871 300.913 236.886C300.836 236.886 300.775 236.886 300.698 236.886C300.268 236.886 299.838 236.855 299.423 236.809C299.362 236.809 299.3 236.809 299.223 236.794C298.808 236.748 298.394 236.671 297.979 236.579C297.902 236.563 297.825 236.548 297.764 236.517C297.395 236.425 297.042 236.318 296.688 236.195C296.627 236.179 296.566 236.149 296.504 236.133C296.089 235.98 295.69 235.795 295.337 235.58L172.221 164.467C171.837 164.252 171.514 164.006 171.222 163.76C170.362 163.007 169.947 162.147 169.947 161.287L169.916 173.807C169.916 174.959 170.669 176.112 172.19 176.987L295.321 248.07C295.674 248.27 296.043 248.454 296.427 248.608C296.443 248.608 296.473 248.608 296.489 248.623C296.55 248.654 296.612 248.669 296.673 248.684C296.904 248.761 297.119 248.853 297.349 248.915C297.472 248.946 297.61 248.976 297.733 249.007C297.81 249.022 297.871 249.038 297.948 249.068C298.01 249.068 298.071 249.099 298.148 249.115C298.394 249.161 298.655 249.207 298.916 249.253C299.008 249.253 299.1 249.268 299.193 249.284C299.254 249.284 299.315 249.284 299.392 249.299C299.484 249.299 299.577 249.33 299.669 249.33C299.915 249.345 300.176 249.36 300.437 249.376C300.514 249.376 300.591 249.376 300.667 249.376C300.744 249.376 300.806 249.376 300.882 249.376C300.99 249.376 301.113 249.376 301.22 249.376C301.512 249.376 301.789 249.345 302.081 249.314C302.111 249.314 302.142 249.314 302.173 249.314C302.25 249.314 302.326 249.299 302.403 249.284C302.618 249.253 302.849 249.237 303.064 249.191C303.156 249.176 303.248 249.145 303.34 249.13C303.602 249.068 303.863 249.007 304.109 248.93C304.247 248.899 304.385 248.869 304.523 248.823C304.585 248.807 304.631 248.761 304.692 248.746C305.23 248.561 305.752 248.346 306.213 248.085L325.801 236.702C325.801 236.702 325.862 236.671 325.893 236.64C326.046 236.548 326.139 236.456 326.277 236.364C326.461 236.225 326.661 236.102 326.814 235.964C326.814 235.964 326.845 235.933 326.861 235.933C327.045 235.764 327.199 235.595 327.337 235.426C327.368 235.38 327.383 235.35 327.414 235.304C327.444 235.257 327.475 235.227 327.506 235.181C327.552 235.104 327.613 235.042 327.644 234.966C327.721 234.827 327.798 234.674 327.844 234.535C327.844 234.52 327.844 234.489 327.859 234.474C327.859 234.443 327.874 234.413 327.89 234.397C327.921 234.305 327.951 234.213 327.967 234.121C327.997 233.967 328.013 233.829 328.013 233.675C328.013 233.66 328.013 233.629 328.013 233.614L328.043 221.093C328.043 221.354 327.997 221.616 327.905 221.877L327.951 221.846Z" fill="#F9FAFB" stroke="#0B1742" stroke-width="0.8" stroke-linejoin="round"/>
<path d="M325.801 217.867C328.827 219.619 328.842 222.43 325.847 224.181L306.259 235.565C303.264 237.316 298.363 237.316 295.352 235.565L172.221 164.467C169.194 162.716 169.179 159.889 172.19 158.153L191.777 146.769C194.773 145.018 199.658 145.033 202.685 146.769L325.816 217.852L325.801 217.867Z" fill="white" stroke="#0B1742" stroke-width="0.8" stroke-linejoin="round"/>
<path d="M291.48 242.756C291.48 242.756 291.48 242.818 291.449 242.849C291.357 243.094 291.234 243.325 291.08 243.571C291.05 243.617 291.019 243.647 290.988 243.693C290.819 243.924 290.619 244.154 290.374 244.369C290.22 244.508 290.02 244.631 289.836 244.769C289.682 244.876 289.544 244.999 289.36 245.107L269.772 256.491C269.311 256.752 268.789 256.967 268.251 257.151C268.067 257.213 267.867 257.274 267.668 257.335C267.407 257.412 267.161 257.474 266.9 257.535C266.592 257.597 266.285 257.658 265.962 257.689C265.886 257.689 265.809 257.72 265.732 257.72C265.302 257.766 264.872 257.781 264.442 257.796C264.365 257.796 264.303 257.796 264.226 257.796C263.796 257.796 263.366 257.766 262.951 257.72C262.89 257.72 262.828 257.72 262.752 257.704C262.337 257.658 261.922 257.581 261.507 257.489C261.431 257.474 261.354 257.458 261.292 257.428C260.924 257.335 260.57 257.228 260.217 257.105C260.155 257.09 260.094 257.059 260.032 257.044C259.618 256.89 259.218 256.706 258.865 256.491L135.749 185.392C135.365 185.177 135.042 184.932 134.751 184.686C133.89 183.933 133.475 183.073 133.475 182.212L133.445 194.733C133.445 195.885 134.198 197.037 135.718 197.913L258.85 268.996C259.203 269.195 259.572 269.38 259.956 269.533C259.971 269.533 260.002 269.533 260.017 269.549C260.079 269.579 260.14 269.595 260.201 269.61C260.432 269.687 260.647 269.779 260.877 269.841C261 269.871 261.139 269.902 261.262 269.933C261.338 269.948 261.4 269.964 261.477 269.994C261.538 269.994 261.599 270.025 261.676 270.04C261.922 270.086 262.183 270.133 262.444 270.179C262.537 270.179 262.629 270.194 262.721 270.209C262.782 270.209 262.844 270.209 262.921 270.225C263.013 270.225 263.105 270.255 263.197 270.255C263.443 270.271 263.704 270.286 263.965 270.301C264.042 270.301 264.119 270.301 264.196 270.301C264.273 270.301 264.334 270.301 264.411 270.301C264.518 270.301 264.641 270.301 264.749 270.301C265.041 270.301 265.317 270.271 265.609 270.24C265.64 270.24 265.671 270.24 265.701 270.24C265.778 270.24 265.855 270.225 265.932 270.209C266.147 270.179 266.377 270.163 266.592 270.117C266.685 270.102 266.777 270.071 266.869 270.056C267.13 269.994 267.391 269.933 267.637 269.856C267.775 269.825 267.914 269.795 268.052 269.748C268.113 269.733 268.159 269.687 268.221 269.672C268.758 269.487 269.281 269.272 269.742 269.011L289.329 257.627C289.329 257.627 289.39 257.597 289.421 257.566C289.575 257.474 289.667 257.382 289.805 257.289C289.99 257.151 290.189 257.028 290.343 256.89C290.343 256.89 290.374 256.859 290.389 256.859C290.573 256.69 290.727 256.521 290.865 256.352C290.896 256.306 290.911 256.275 290.942 256.229C290.973 256.183 291.003 256.153 291.034 256.106C291.08 256.03 291.142 255.968 291.172 255.891C291.249 255.753 291.326 255.599 291.372 255.461C291.372 255.446 291.372 255.415 291.388 255.4C291.388 255.369 291.403 255.338 291.418 255.323C291.449 255.231 291.48 255.139 291.495 255.046C291.526 254.893 291.541 254.755 291.541 254.601C291.541 254.586 291.541 254.555 291.541 254.539L291.572 242.019C291.572 242.28 291.526 242.541 291.434 242.802L291.48 242.756Z" fill="#F9FAFB" stroke="#0B1742" stroke-width="0.8" stroke-linejoin="round"/>
<path d="M289.329 238.777C292.355 240.529 292.371 243.34 289.375 245.091L269.788 256.475C266.792 258.226 261.891 258.226 258.88 256.475L135.749 185.392C132.723 183.641 132.707 180.814 135.719 179.078L155.306 167.694C158.302 165.943 163.187 165.958 166.213 167.694L289.344 238.777H289.329Z" fill="white" stroke="#0B1742" stroke-width="0.8" stroke-linejoin="round"/>
<path d="M255.387 265.401C255.387 265.401 255.387 265.462 255.357 265.493C255.264 265.739 255.142 265.969 254.988 266.215C254.957 266.261 254.926 266.292 254.896 266.338C254.727 266.568 254.527 266.799 254.281 267.014C254.128 267.152 253.928 267.275 253.744 267.413C253.59 267.521 253.452 267.644 253.267 267.751L233.68 279.135C233.219 279.396 232.697 279.611 232.159 279.796C231.975 279.857 231.775 279.919 231.575 279.98C231.314 280.057 231.068 280.118 230.807 280.18C230.5 280.241 230.193 280.303 229.87 280.333C229.793 280.333 229.716 280.364 229.64 280.364C229.209 280.41 228.779 280.426 228.349 280.441C228.272 280.441 228.211 280.441 228.134 280.441C227.704 280.441 227.274 280.41 226.859 280.364C226.798 280.364 226.736 280.364 226.659 280.349C226.244 280.303 225.83 280.226 225.415 280.134C225.338 280.118 225.261 280.103 225.2 280.072C224.831 279.98 224.478 279.872 224.124 279.75C224.063 279.734 224.002 279.703 223.94 279.688C223.525 279.534 223.126 279.35 222.773 279.135L99.6567 208.037C99.2727 207.822 98.9501 207.576 98.6582 207.33C97.7979 206.578 97.3831 205.717 97.3831 204.857L97.3524 217.377C97.3524 218.53 98.1051 219.682 99.626 220.558L222.757 291.64C223.111 291.84 223.479 292.024 223.863 292.178C223.879 292.178 223.909 292.178 223.925 292.193C223.986 292.224 224.048 292.239 224.109 292.255C224.34 292.332 224.555 292.424 224.785 292.485C224.908 292.516 225.046 292.547 225.169 292.577C225.246 292.593 225.307 292.608 225.384 292.639C225.446 292.639 225.507 292.67 225.584 292.685C225.83 292.731 226.091 292.777 226.352 292.823C226.444 292.823 226.536 292.838 226.629 292.854C226.69 292.854 226.751 292.854 226.828 292.869C226.92 292.869 227.013 292.9 227.105 292.9C227.351 292.915 227.612 292.931 227.873 292.946C227.95 292.946 228.027 292.946 228.103 292.946C228.18 292.946 228.242 292.946 228.318 292.946C228.426 292.946 228.549 292.946 228.656 292.946C228.948 292.946 229.225 292.915 229.517 292.885C229.547 292.885 229.578 292.885 229.609 292.885C229.686 292.885 229.763 292.869 229.839 292.854C230.054 292.823 230.285 292.808 230.5 292.762C230.592 292.746 230.684 292.716 230.776 292.7C231.038 292.639 231.299 292.577 231.545 292.501C231.683 292.47 231.821 292.439 231.959 292.393C232.021 292.378 232.067 292.332 232.128 292.316C232.666 292.132 233.188 291.917 233.649 291.656L253.237 280.272C253.237 280.272 253.298 280.241 253.329 280.21C253.482 280.118 253.575 280.026 253.713 279.934C253.897 279.796 254.097 279.673 254.251 279.534C254.251 279.534 254.281 279.504 254.297 279.504C254.481 279.335 254.635 279.166 254.773 278.997C254.804 278.951 254.819 278.92 254.85 278.874C254.88 278.828 254.911 278.797 254.942 278.751C254.988 278.674 255.049 278.613 255.08 278.536C255.157 278.398 255.234 278.244 255.28 278.106C255.28 278.09 255.28 278.06 255.295 278.044C255.295 278.014 255.311 277.983 255.326 277.968C255.357 277.875 255.387 277.783 255.403 277.691C255.433 277.537 255.449 277.399 255.449 277.245C255.449 277.23 255.449 277.199 255.449 277.184L255.48 264.664C255.48 264.925 255.433 265.186 255.341 265.447L255.387 265.401Z" fill="#F9FAFB" stroke="#0B1742" stroke-width="0.8" stroke-linejoin="round"/>
<path d="M253.236 261.422C256.263 263.173 256.278 265.984 253.283 267.736L233.695 279.119C230.699 280.871 225.799 280.871 222.788 279.119L99.6566 208.037C96.6302 206.285 96.6148 203.459 99.6259 201.723L119.213 190.339C122.209 188.588 127.094 188.603 130.121 190.339L253.252 261.422H253.236Z" fill="white" stroke="#0B1742" stroke-width="0.8" stroke-linejoin="round"/>
<path d="M218.073 286.935C218.073 286.935 218.073 286.997 218.042 287.027C217.95 287.273 217.827 287.503 217.673 287.749C217.643 287.795 217.612 287.826 217.581 287.872C217.412 288.103 217.212 288.333 216.967 288.548C216.813 288.686 216.613 288.809 216.429 288.948C216.275 289.055 216.137 289.178 215.953 289.286L196.365 300.669C195.904 300.93 195.382 301.145 194.844 301.33C194.66 301.391 194.46 301.453 194.261 301.514C194 301.591 193.754 301.652 193.493 301.714C193.185 301.775 192.878 301.837 192.555 301.868C192.479 301.868 192.402 301.898 192.325 301.898C191.895 301.944 191.465 301.96 191.035 301.975C190.958 301.975 190.896 301.975 190.819 301.975C190.389 301.975 189.959 301.944 189.544 301.898C189.483 301.898 189.421 301.898 189.345 301.883C188.93 301.837 188.515 301.76 188.1 301.668C188.023 301.652 187.947 301.637 187.885 301.606C187.517 301.514 187.163 301.407 186.81 301.284C186.748 301.268 186.687 301.238 186.625 301.222C186.211 301.069 185.811 300.884 185.458 300.669L62.3421 229.571C61.958 229.356 61.6354 229.11 61.3435 228.864C60.4832 228.112 60.0684 227.251 60.0684 226.391L60.0377 238.912C60.0377 240.064 60.7905 241.216 62.3114 242.092L185.443 313.174C185.796 313.374 186.165 313.558 186.549 313.712C186.564 313.712 186.595 313.712 186.61 313.727C186.672 313.758 186.733 313.774 186.794 313.789C187.025 313.866 187.24 313.958 187.47 314.019C187.593 314.05 187.732 314.081 187.854 314.111C187.931 314.127 187.993 314.142 188.07 314.173C188.131 314.173 188.192 314.204 188.269 314.219C188.515 314.265 188.776 314.311 189.037 314.357C189.13 314.357 189.222 314.373 189.314 314.388C189.375 314.388 189.437 314.388 189.514 314.403C189.606 314.403 189.698 314.434 189.79 314.434C190.036 314.449 190.297 314.465 190.558 314.48C190.635 314.48 190.712 314.48 190.789 314.48C190.866 314.48 190.927 314.48 191.004 314.48C191.111 314.48 191.234 314.48 191.342 314.48C191.634 314.48 191.91 314.449 192.202 314.419C192.233 314.419 192.264 314.419 192.294 314.419C192.371 314.419 192.448 314.403 192.525 314.388C192.74 314.357 192.97 314.342 193.185 314.296C193.277 314.28 193.37 314.25 193.462 314.234C193.723 314.173 193.984 314.112 194.23 314.035C194.368 314.004 194.506 313.973 194.645 313.927C194.706 313.912 194.752 313.866 194.814 313.85C195.351 313.666 195.874 313.451 196.335 313.19L215.922 301.806C215.922 301.806 215.983 301.775 216.014 301.745C216.168 301.652 216.26 301.56 216.398 301.468C216.583 301.33 216.782 301.207 216.936 301.069C216.936 301.069 216.967 301.038 216.982 301.038C217.166 300.869 217.32 300.7 217.458 300.531C217.489 300.485 217.504 300.454 217.535 300.408C217.566 300.362 217.596 300.331 217.627 300.285C217.673 300.208 217.735 300.147 217.765 300.07C217.842 299.932 217.919 299.778 217.965 299.64C217.965 299.625 217.965 299.594 217.981 299.578C217.981 299.548 217.996 299.517 218.011 299.502C218.042 299.41 218.073 299.317 218.088 299.225C218.119 299.072 218.134 298.933 218.134 298.78C218.134 298.764 218.134 298.734 218.134 298.718L218.165 286.198C218.165 286.459 218.119 286.72 218.027 286.981L218.073 286.935Z" fill="#F9FAFB" stroke="#0B1742" stroke-width="0.8" stroke-linejoin="round"/>
<path d="M215.922 282.956C218.948 284.707 218.964 287.519 215.968 289.27L196.381 300.654C193.385 302.405 188.484 302.405 185.473 300.654L62.342 229.571C59.3155 227.82 59.3002 224.993 62.3112 223.257L81.8985 211.873C84.8942 210.122 89.7795 210.137 92.806 211.873L215.937 282.956H215.922Z" fill="white" stroke="#0B1742" stroke-width="0.8" stroke-linejoin="round"/>
<path d="M256.878 149.079L255.572 149.847L254.112 148.987L247.599 152.766L249.074 153.611L247.768 154.379L243.405 151.86L244.711 151.092L246.185 151.952L252.699 148.173L251.209 147.312L252.515 146.56L256.878 149.079Z" fill="#010C35"/>
<path d="M250.425 145.361L244.818 148.618C244.142 149.017 243.358 149.279 242.498 149.417C241.638 149.54 240.778 149.54 239.917 149.402C239.042 149.263 238.273 148.987 237.567 148.572C236.86 148.157 236.369 147.712 236.123 147.205C235.862 146.713 235.862 146.206 236.077 145.715C236.307 145.223 236.768 144.762 237.444 144.378L243.051 141.121L244.465 141.935L238.965 145.131C238.519 145.392 238.227 145.668 238.089 146.006C237.951 146.329 237.935 146.652 238.089 146.974C238.227 147.297 238.504 147.573 238.919 147.819C239.333 148.065 239.856 148.234 240.409 148.311C240.962 148.403 241.53 148.403 242.083 148.311C242.652 148.234 243.143 148.05 243.589 147.804L249.089 144.608L250.441 145.392L250.425 145.361Z" fill="#010C35"/>
<path d="M212.009 163.04L206.433 170.353L204.927 169.492L206.325 167.68L202.484 165.467L199.366 166.282L197.937 165.452L210.565 162.21L212.009 163.04ZM204.359 164.976L207.155 166.589L208.322 165.099C208.322 165.099 208.46 164.93 208.614 164.745C208.783 164.576 208.937 164.377 209.136 164.146C209.321 163.931 209.505 163.731 209.659 163.547H209.674L209.52 163.562C209.213 163.655 208.891 163.747 208.568 163.839C208.23 163.931 207.907 164.023 207.615 164.1C207.308 164.192 207.062 164.254 206.863 164.315L204.343 164.976" fill="#010C35"/>
<path d="M231.074 174.055L229.784 174.808L228.294 173.948L221.795 177.727L223.285 178.587L221.98 179.34L217.617 176.805L218.907 176.052L220.382 176.913L226.88 173.133L225.405 172.288L226.696 171.536L231.074 174.055Z" fill="#010C35"/>
<path d="M221.165 168.325L219.86 169.077L218.385 168.232L211.886 172.012L213.361 172.857L212.071 173.609L207.708 171.09L208.998 170.337L210.473 171.182L216.971 167.418L215.497 166.558L216.802 165.805L221.165 168.325Z" fill="#010C35"/>
<path d="M242.396 181.214L240.66 182.213L242.258 183.15L240.952 183.903L239.354 182.981L233.839 186.192L232.503 185.408L238.018 182.197L236.589 181.383L237.895 180.615L239.324 181.445L241.06 180.431L242.396 181.214Z" fill="#010C35"/>
<path d="M255.255 187.42L245.638 192.997L244.286 192.213L253.903 186.637L255.255 187.42Z" fill="#010C35"/>
<path d="M258.527 189.31L248.925 194.886L247.574 194.118L257.175 188.526L258.527 189.31Z" fill="#010C35"/>
<path d="M246.467 189.218L245.884 189.54L240.645 186.514C240.353 186.729 240.123 186.959 240 187.19C239.862 187.512 239.877 187.835 240.046 188.158C240.23 188.48 240.553 188.772 241.029 189.049C241.367 189.248 241.751 189.387 242.151 189.494C242.565 189.602 243.088 189.663 243.718 189.694L243.441 190.646C243.026 190.646 242.596 190.6 242.135 190.524C241.674 190.431 241.244 190.324 240.814 190.186C240.384 190.032 240.015 189.878 239.693 189.694C238.986 189.279 238.51 188.834 238.264 188.357C238.018 187.866 237.987 187.374 238.202 186.898C238.417 186.406 238.863 185.976 239.539 185.592C240.092 185.27 240.645 185.039 241.26 184.885C241.874 184.732 242.504 184.655 243.134 184.64C243.764 184.64 244.393 184.701 245.008 184.855C245.622 184.993 246.176 185.208 246.683 185.5C247.128 185.761 247.451 186.038 247.681 186.36C247.881 186.683 248.004 187.005 247.973 187.343C247.958 187.666 247.835 188.004 247.574 188.327C247.328 188.649 246.959 188.941 246.467 189.218ZM245.576 188.142L245.669 188.081C245.914 187.897 246.083 187.697 246.145 187.482C246.206 187.251 246.176 187.036 246.053 186.806C245.93 186.575 245.715 186.391 245.423 186.222C244.947 185.945 244.455 185.776 243.963 185.684C243.472 185.607 242.965 185.623 242.458 185.715C242.212 185.761 241.982 185.838 241.736 185.93L245.576 188.142Z" fill="#010C35"/>
<path d="M234.408 178.449C234.93 178.756 235.268 179.063 235.422 179.386C235.56 179.708 235.514 180.031 235.268 180.369C235.022 180.707 234.592 181.076 233.947 181.444L229.799 183.856L228.462 183.073L232.533 180.707C232.918 180.476 233.179 180.261 233.348 180.062C233.501 179.847 233.532 179.647 233.424 179.447C233.332 179.278 233.163 179.124 232.902 178.971C232.856 178.94 232.81 178.925 232.764 178.894C232.503 178.74 232.226 178.633 231.919 178.556C231.627 178.479 231.32 178.433 231.013 178.433C230.705 178.433 230.398 178.449 230.106 178.51C229.814 178.571 229.568 178.664 229.338 178.787L225.206 181.183L224.545 180.799L224.207 180.599L223.869 180.4L230.69 176.436L232.026 177.204L230.951 177.834C231.151 177.819 231.351 177.788 231.581 177.788C232.088 177.788 232.595 177.834 233.102 177.942C233.593 178.049 234.039 178.218 234.408 178.418V178.449Z" fill="#010C35"/>
<path d="M261.722 190.677C262.014 190.846 262.152 191.015 262.168 191.2C262.183 191.384 262.045 191.538 261.784 191.691C261.538 191.845 261.246 191.906 260.939 191.906C260.616 191.906 260.324 191.814 260.032 191.661C259.741 191.507 259.602 191.323 259.587 191.138C259.587 190.969 259.71 190.8 259.971 190.647C260.232 190.493 260.509 190.432 260.831 190.432C261.139 190.432 261.446 190.524 261.722 190.677Z" fill="#010C35"/>
<path d="M295.259 217.393L294.66 217.715L289.437 214.704C289.145 214.919 288.914 215.15 288.791 215.38C288.638 215.703 288.653 216.01 288.822 216.333C289.006 216.655 289.329 216.963 289.821 217.239C290.159 217.439 290.543 217.577 290.927 217.685C291.342 217.792 291.864 217.854 292.494 217.884L292.217 218.837C291.802 218.837 291.372 218.791 290.911 218.714C290.466 218.637 290.02 218.514 289.59 218.376C289.175 218.238 288.791 218.069 288.469 217.884C287.777 217.485 287.301 217.024 287.04 216.548C286.81 216.056 286.779 215.58 286.994 215.104C287.209 214.612 287.639 214.182 288.315 213.783C288.868 213.46 289.437 213.23 290.051 213.076C290.666 212.922 291.295 212.83 291.925 212.83C292.555 212.83 293.17 212.892 293.784 213.03C294.399 213.168 294.967 213.398 295.474 213.69C295.92 213.952 296.242 214.228 296.457 214.551C296.657 214.873 296.78 215.196 296.749 215.534C296.749 215.872 296.611 216.194 296.365 216.517C296.119 216.84 295.751 217.132 295.259 217.408V217.393ZM294.368 216.317L294.46 216.256C294.706 216.072 294.875 215.872 294.936 215.657C294.998 215.426 294.967 215.196 294.844 214.981C294.721 214.766 294.506 214.566 294.214 214.397C293.738 214.121 293.247 213.952 292.755 213.859C292.263 213.767 291.741 213.783 291.234 213.89C291.004 213.952 290.773 214.013 290.527 214.105L294.368 216.317Z" fill="#010C35"/>
<path d="M288.269 209.543C288.884 209.896 289.314 210.28 289.56 210.726C289.821 211.156 289.867 211.571 289.698 211.97L288.039 212.062C288.1 211.862 288.1 211.663 288.054 211.432C288.008 211.202 287.9 211.002 287.747 210.802C287.593 210.603 287.409 210.449 287.178 210.311C286.764 210.08 286.287 209.911 285.765 209.835C285.243 209.773 284.705 209.773 284.152 209.881C283.599 209.973 283.123 210.157 282.662 210.418C282.201 210.679 281.924 210.956 281.771 211.279C281.632 211.601 281.617 211.908 281.74 212.231C281.863 212.538 282.124 212.815 282.523 213.045C282.754 213.184 283.03 213.291 283.322 213.368C283.63 213.46 283.952 213.506 284.336 213.537C284.705 213.568 285.089 213.568 285.488 213.537L285.335 214.505C284.659 214.566 283.937 214.52 283.169 214.382C282.401 214.228 281.725 213.998 281.172 213.675C280.542 213.306 280.127 212.892 279.927 212.415C279.743 211.939 279.758 211.463 280.004 210.987C280.25 210.51 280.711 210.08 281.371 209.696C282.032 209.312 282.8 209.036 283.614 208.897C284.444 208.759 285.258 208.744 286.072 208.851C286.886 208.959 287.608 209.189 288.254 209.558L288.269 209.543Z" fill="#010C35"/>
<path d="M281.172 205.456C281.694 205.763 282.032 206.071 282.17 206.378C282.324 206.7 282.262 207.023 282.032 207.376C281.786 207.714 281.356 208.083 280.711 208.452L276.563 210.864L275.211 210.08L279.282 207.714C279.666 207.484 279.943 207.269 280.096 207.069C280.265 206.854 280.281 206.654 280.188 206.47C280.096 206.301 279.927 206.147 279.666 205.994C279.62 205.963 279.574 205.948 279.528 205.917C279.267 205.763 278.99 205.656 278.683 205.579C278.391 205.502 278.068 205.456 277.776 205.456C277.469 205.456 277.177 205.471 276.87 205.533C276.594 205.594 276.332 205.687 276.102 205.809L271.969 208.206L271.309 207.822L270.971 207.622L270.633 207.423L277.454 203.459L278.79 204.242L277.715 204.872C277.915 204.857 278.114 204.826 278.345 204.826C278.852 204.826 279.359 204.888 279.866 204.98C280.373 205.087 280.803 205.256 281.172 205.471V205.456Z" fill="#010C35"/>
<path d="M272.814 204.442L272.23 204.765L266.992 201.738C266.7 201.953 266.469 202.184 266.346 202.414C266.193 202.737 266.208 203.044 266.377 203.367C266.562 203.689 266.884 203.997 267.376 204.273C267.714 204.473 268.098 204.611 268.497 204.719C268.897 204.811 269.419 204.872 270.049 204.903L269.788 205.855C269.373 205.855 268.927 205.809 268.482 205.733C268.021 205.64 267.575 205.533 267.145 205.395C266.731 205.256 266.346 205.087 266.024 204.903C265.333 204.503 264.856 204.043 264.595 203.566C264.365 203.075 264.334 202.599 264.549 202.122C264.764 201.631 265.194 201.201 265.87 200.801C266.423 200.478 266.992 200.248 267.606 200.094C268.221 199.941 268.851 199.849 269.48 199.849C270.11 199.849 270.725 199.91 271.339 200.048C271.954 200.187 272.522 200.417 273.029 200.709C273.475 200.97 273.797 201.247 274.012 201.569C274.212 201.892 274.335 202.214 274.304 202.552C274.304 202.89 274.166 203.213 273.92 203.536C273.674 203.858 273.306 204.15 272.814 204.427V204.442ZM271.938 203.367L272.031 203.305C272.276 203.121 272.445 202.921 272.507 202.706C272.568 202.476 272.538 202.245 272.415 202.03C272.292 201.815 272.077 201.615 271.785 201.446C271.309 201.17 270.817 201.001 270.325 200.909C269.834 200.816 269.311 200.832 268.804 200.939C268.574 201.001 268.328 201.062 268.098 201.154L271.938 203.367Z" fill="#010C35"/>
<path d="M266.546 197.16L267.883 197.944L261.477 201.677C260.924 202 260.37 202.23 259.787 202.368C259.218 202.522 258.619 202.599 258.02 202.583C257.436 202.583 256.837 202.491 256.253 202.322C255.67 202.153 255.101 201.907 254.548 201.6C254.056 201.324 253.657 201.001 253.304 200.632C252.981 200.264 252.781 199.926 252.735 199.618L254.272 199.296C254.318 199.48 254.41 199.664 254.533 199.849C254.671 200.049 254.855 200.233 255.04 200.417C255.255 200.602 255.485 200.755 255.731 200.909C256.207 201.185 256.699 201.37 257.175 201.462C257.651 201.554 258.112 201.569 258.588 201.477C259.065 201.385 259.526 201.231 259.971 200.97L260.801 200.494C260.601 200.525 260.386 200.54 260.14 200.556C259.648 200.556 259.157 200.509 258.65 200.387C258.128 200.264 257.697 200.11 257.313 199.88C256.668 199.511 256.238 199.081 256.038 198.604C255.823 198.128 255.839 197.652 256.084 197.176C256.33 196.699 256.776 196.254 257.467 195.855C258.158 195.455 258.911 195.179 259.725 195.04C260.539 194.902 261.369 194.887 262.183 195.01C262.998 195.117 263.735 195.378 264.365 195.747C264.626 195.901 264.841 196.054 265.025 196.239C265.21 196.408 265.333 196.607 265.425 196.792C265.517 196.991 265.578 197.16 265.609 197.345C265.624 197.483 265.609 197.606 265.578 197.729L266.531 197.176L266.546 197.16ZM261.722 199.711C262.245 199.618 262.736 199.434 263.182 199.173C263.627 198.912 263.935 198.62 264.104 198.313C264.273 198.005 264.288 197.698 264.15 197.391C264.027 197.084 263.75 196.807 263.32 196.561C262.89 196.315 262.429 196.162 261.907 196.085C261.384 196.024 260.847 196.039 260.309 196.131C259.756 196.223 259.28 196.392 258.834 196.653C258.389 196.915 258.081 197.191 257.928 197.514C257.759 197.821 257.743 198.128 257.882 198.435C258.005 198.743 258.281 199.019 258.696 199.25C259.111 199.48 259.602 199.664 260.14 199.726C260.662 199.803 261.2 199.787 261.738 199.695" fill="#010C35"/>
<path d="M259.218 192.936L252.397 196.899L251.061 196.116L257.882 192.152L259.218 192.936Z" fill="#010C35"/>
<path d="M190.886 197.182C190.641 197.643 190.18 198.089 189.488 198.473C188.797 198.857 188.06 199.133 187.261 199.287C186.447 199.441 185.648 199.456 184.849 199.364C184.065 199.256 183.374 199.041 182.775 198.703C182.376 198.473 182.053 198.196 181.853 197.889C181.638 197.582 181.531 197.29 181.515 196.983L181.546 196.798L177.782 198.995L176.43 198.212L186.109 192.589L187.461 193.372L186.477 193.941C186.646 193.925 186.815 193.91 187 193.91C187.476 193.91 187.983 193.971 188.49 194.094C188.981 194.202 189.427 194.371 189.796 194.586C190.41 194.939 190.81 195.339 190.979 195.8C191.163 196.245 191.117 196.706 190.871 197.182H190.886ZM186.738 198.273C187.261 198.165 187.752 197.997 188.198 197.735C188.643 197.474 188.935 197.198 189.089 196.89C189.258 196.583 189.289 196.291 189.166 195.984C189.043 195.692 188.782 195.431 188.367 195.185C187.952 194.939 187.507 194.801 187 194.74C186.493 194.678 185.97 194.678 185.433 194.77C184.91 194.863 184.434 195.047 183.989 195.308C183.543 195.569 183.236 195.846 183.067 196.153C182.913 196.46 182.898 196.767 183.005 197.059C183.128 197.351 183.374 197.612 183.789 197.858C184.204 198.104 184.649 198.242 185.156 198.304C185.678 198.365 186.185 198.35 186.723 198.258" fill="#010C35"/>
<path d="M181.484 193.572L180.901 193.895L175.662 190.869C175.37 191.084 175.14 191.299 175.032 191.545C174.894 191.867 174.894 192.19 175.063 192.512C175.247 192.835 175.57 193.127 176.046 193.403C176.384 193.603 176.768 193.741 177.168 193.849C177.582 193.956 178.105 194.018 178.735 194.049L178.473 194.986C178.043 194.986 177.628 194.94 177.168 194.863C176.707 194.771 176.261 194.663 175.846 194.525C175.401 194.387 175.048 194.218 174.725 194.033C174.018 193.619 173.542 193.173 173.296 192.697C173.035 192.205 173.02 191.729 173.235 191.237C173.434 190.761 173.88 190.331 174.571 189.931C175.109 189.624 175.677 189.378 176.292 189.225C176.922 189.071 177.536 188.994 178.166 188.979C178.811 188.979 179.426 189.025 180.04 189.179C180.639 189.317 181.193 189.547 181.7 189.839C182.145 190.1 182.468 190.377 182.683 190.7C182.913 191.022 183.005 191.345 182.99 191.683C182.99 192.021 182.852 192.343 182.591 192.681C182.345 193.004 181.976 193.296 181.484 193.572ZM180.609 192.497L180.701 192.451C180.947 192.267 181.131 192.067 181.193 191.836C181.254 191.606 181.223 191.391 181.085 191.176C180.962 190.945 180.747 190.761 180.455 190.592C179.979 190.316 179.487 190.147 178.996 190.054C178.504 189.978 177.997 189.993 177.49 190.085C177.26 190.131 177.014 190.208 176.783 190.3L180.624 192.512" fill="#010C35"/>
<path d="M176.154 187.335C175.8 187.765 175.278 188.18 174.602 188.579C173.926 188.979 173.204 189.271 172.451 189.486C171.683 189.701 170.915 189.808 170.147 189.824C169.363 189.839 168.611 189.762 167.858 189.593C167.12 189.409 166.414 189.132 165.769 188.748L162.189 186.674L171.284 181.39L174.863 183.464C175.524 183.848 176 184.247 176.323 184.677C176.63 185.107 176.768 185.538 176.737 185.998C176.707 186.444 176.507 186.889 176.154 187.335ZM171.637 188.41C172.159 188.257 172.682 188.026 173.173 187.734C173.665 187.443 174.034 187.151 174.31 186.843C174.571 186.536 174.725 186.229 174.74 185.922C174.756 185.614 174.663 185.322 174.464 185.031C174.249 184.739 173.911 184.447 173.45 184.186L171.345 182.972L164.954 186.69L167.059 187.903C167.52 188.165 167.996 188.364 168.503 188.487C169.025 188.61 169.532 188.656 170.055 188.656C170.577 188.641 171.084 188.549 171.622 188.395" fill="#010C35"/>
<path d="M202.055 203.62C201.824 204.111 201.379 204.541 200.688 204.941C199.996 205.34 199.228 205.601 198.399 205.74C197.569 205.862 196.739 205.878 195.894 205.74C195.065 205.617 194.312 205.355 193.652 204.971C192.991 204.587 192.53 204.142 192.315 203.666C192.1 203.174 192.1 202.698 192.315 202.206C192.545 201.715 193.006 201.284 193.698 200.885C194.389 200.486 195.126 200.224 195.971 200.086C196.816 199.948 197.646 199.948 198.491 200.086C199.32 200.209 200.073 200.455 200.749 200.854C201.425 201.254 201.855 201.668 202.07 202.16C202.301 202.636 202.285 203.128 202.07 203.604L202.055 203.62ZM197.861 204.695C198.399 204.603 198.875 204.418 199.32 204.157C199.781 203.896 200.088 203.62 200.257 203.312C200.426 203.005 200.457 202.698 200.334 202.391C200.211 202.083 199.935 201.822 199.535 201.592C199.136 201.361 198.66 201.208 198.122 201.131C197.6 201.069 197.062 201.069 196.524 201.177C195.987 201.269 195.51 201.453 195.08 201.715C194.619 201.976 194.312 202.237 194.143 202.559C193.974 202.867 193.943 203.189 194.066 203.481C194.205 203.789 194.466 204.065 194.865 204.295C195.265 204.526 195.741 204.68 196.263 204.756C196.786 204.818 197.323 204.802 197.861 204.71" fill="#010C35"/>
<path d="M198.537 196.522L188.92 202.114L187.568 201.33L197.185 195.738L198.537 196.522Z" fill="#010C35"/>
<path d="M227.972 220.411L227.388 220.733L222.149 217.707C221.857 217.922 221.627 218.137 221.519 218.383C221.381 218.706 221.381 219.028 221.55 219.351C221.735 219.673 222.057 219.965 222.533 220.242C222.871 220.442 223.255 220.58 223.655 220.687C224.07 220.795 224.592 220.856 225.222 220.887L224.961 221.824C224.531 221.824 224.116 221.778 223.655 221.701C223.194 221.609 222.748 221.502 222.334 221.363C221.888 221.225 221.535 221.056 221.212 220.872C220.506 220.457 220.029 220.011 219.784 219.535C219.522 219.044 219.507 218.567 219.722 218.076C219.922 217.599 220.367 217.169 221.059 216.77C221.596 216.463 222.165 216.217 222.779 216.063C223.409 215.91 224.024 215.833 224.653 215.817C225.299 215.817 225.913 215.863 226.528 216.017C227.127 216.155 227.68 216.386 228.187 216.678C228.632 216.939 228.955 217.215 229.185 217.538C229.4 217.861 229.508 218.183 229.493 218.521C229.477 218.844 229.354 219.182 229.093 219.504C228.847 219.827 228.479 220.119 227.987 220.395L227.972 220.411ZM227.096 219.335L227.188 219.289C227.434 219.105 227.618 218.905 227.68 218.675C227.741 218.444 227.711 218.229 227.572 217.999C227.449 217.768 227.234 217.584 226.942 217.415C226.466 217.139 225.975 216.97 225.483 216.877C224.991 216.801 224.484 216.816 223.977 216.908C223.747 216.954 223.501 217.031 223.271 217.123L227.111 219.335" fill="#010C35"/>
<path d="M220.966 212.576C221.473 212.868 221.796 213.175 221.934 213.498C222.057 213.805 221.996 214.143 221.75 214.481C221.504 214.834 221.043 215.188 220.413 215.556L216.327 217.937L214.975 217.154L218.985 214.819C219.369 214.588 219.63 214.373 219.784 214.174C219.922 213.974 219.968 213.79 219.891 213.59C219.814 213.405 219.615 213.221 219.307 213.052C219.062 212.914 218.785 212.791 218.508 212.73C218.201 212.653 217.909 212.607 217.602 212.607C217.295 212.607 217.003 212.622 216.726 212.699C216.45 212.76 216.173 212.852 215.943 212.991L211.856 215.357L210.505 214.573L214.545 212.223C214.898 212.023 215.144 211.808 215.282 211.608C215.421 211.393 215.451 211.193 215.39 211.009C215.313 210.809 215.144 210.64 214.852 210.471C214.606 210.333 214.345 210.225 214.053 210.149C213.761 210.087 213.47 210.041 213.162 210.026C212.855 210.026 212.563 210.041 212.287 210.118C212.01 210.179 211.749 210.272 211.519 210.41L207.417 212.791L206.065 212.007L212.886 208.044L214.238 208.827L213.132 209.473L213.362 209.442C213.731 209.396 214.099 209.411 214.483 209.442C214.868 209.473 215.236 209.534 215.59 209.642C215.943 209.734 216.25 209.857 216.527 210.01C216.926 210.241 217.187 210.471 217.372 210.717C217.541 210.963 217.587 211.209 217.51 211.47C217.464 211.654 217.341 211.854 217.157 212.054C217.433 212.007 217.74 211.961 218.078 211.961C218.416 211.961 218.785 211.961 219.138 212.023C219.492 212.069 219.83 212.146 220.152 212.238C220.46 212.33 220.751 212.453 220.982 212.576H220.966Z" fill="#010C35"/>
<path d="M211.887 207.46L202.255 209.795L198.091 210.855L196.647 210.01L200.473 209.134L204.436 203.143L206.003 204.049L203.13 208.213C203.13 208.213 203.007 208.397 202.9 208.535L202.854 208.581C203.115 208.52 203.345 208.443 203.591 208.366L210.305 206.538L211.887 207.46Z" fill="#010C35"/>
<path d="M244.333 224.175L242.582 225.189L244.164 226.11L242.874 226.863L241.291 225.941L235.761 229.152L234.409 228.369L239.939 225.158L238.511 224.344L239.801 223.591L241.23 224.405L242.966 223.391L244.333 224.175Z" fill="#010C35"/>
<path d="M236.344 221.425C236.867 221.732 237.205 222.039 237.343 222.362C237.497 222.669 237.451 223.007 237.205 223.36C236.959 223.698 236.529 224.052 235.884 224.42L231.72 226.832L230.384 226.064L234.455 223.698C234.839 223.468 235.131 223.253 235.269 223.038C235.407 222.823 235.438 222.623 235.346 222.439C235.254 222.27 235.085 222.116 234.824 221.962C234.777 221.932 234.731 221.916 234.685 221.886C234.424 221.732 234.148 221.624 233.856 221.548C233.548 221.471 233.241 221.425 232.934 221.425C232.627 221.425 232.335 221.425 232.043 221.501C231.751 221.578 231.49 221.655 231.275 221.793L227.142 224.19L226.482 223.806L226.144 223.606L225.806 223.406L232.627 219.443L233.963 220.226L232.888 220.856C233.088 220.826 233.303 220.81 233.518 220.81C234.025 220.81 234.532 220.856 235.039 220.964C235.546 221.071 235.991 221.225 236.344 221.44V221.425Z" fill="#010C35"/>
<path d="M134.58 203.724L126.852 208.226L131.139 210.699L129.771 211.482L124.072 208.195L133.166 202.91L134.58 203.724Z" fill="#0B1742"/>
<path d="M139.957 209.47L133.136 213.434L131.784 212.65L138.605 208.687L139.957 209.47Z" fill="#0B1742"/>
<path d="M142.461 207.212C142.753 207.381 142.891 207.55 142.906 207.734C142.906 207.903 142.783 208.072 142.522 208.226C142.277 208.379 142 208.441 141.677 208.441C141.37 208.441 141.063 208.349 140.786 208.195C140.51 208.041 140.341 207.857 140.341 207.688C140.341 207.519 140.464 207.35 140.725 207.197C140.986 207.043 141.263 206.981 141.585 206.981C141.892 206.981 142.2 207.074 142.476 207.227L142.461 207.212Z" fill="#0B1742"/>
<path d="M146.808 215.231C146.563 215.707 146.086 216.138 145.41 216.537C144.734 216.936 143.982 217.213 143.168 217.367C142.353 217.52 141.539 217.551 140.771 217.459C139.972 217.367 139.296 217.136 138.682 216.783C138.39 216.614 138.129 216.414 137.929 216.199C137.729 215.969 137.591 215.753 137.529 215.508C137.453 215.277 137.422 215.078 137.468 214.878L136.592 215.385L135.24 214.601L144.827 209.04L146.179 209.824L142.399 212.02H142.599C142.937 211.974 143.29 211.974 143.674 212.02C144.059 212.066 144.427 212.143 144.796 212.235C145.165 212.343 145.487 212.466 145.764 212.635C146.378 212.988 146.778 213.403 146.947 213.849C147.131 214.294 147.085 214.77 146.824 215.231H146.808ZM142.645 216.337C143.183 216.245 143.674 216.061 144.12 215.8C144.566 215.538 144.873 215.262 145.042 214.955C145.211 214.647 145.241 214.34 145.119 214.048C144.996 213.756 144.734 213.495 144.335 213.249C143.936 213.004 143.459 212.865 142.952 212.789C142.43 212.727 141.923 212.742 141.385 212.835C140.848 212.927 140.356 213.111 139.926 213.372C139.496 213.633 139.173 213.91 139.004 214.233C138.835 214.54 138.805 214.847 138.912 215.154C139.02 215.462 139.281 215.723 139.696 215.953C140.11 216.184 140.556 216.337 141.063 216.399C141.585 216.46 142.107 216.445 142.645 216.337Z" fill="#0B1742"/>
<path d="M153.86 217.32C154.014 217.412 154.136 217.505 154.259 217.597C154.352 217.689 154.444 217.766 154.474 217.827L152.677 218.472C152.616 218.396 152.539 218.303 152.447 218.211C152.354 218.119 152.247 218.042 152.124 217.965C151.894 217.827 151.617 217.735 151.31 217.658C151.003 217.581 150.695 217.551 150.373 217.551C150.05 217.551 149.743 217.581 149.436 217.658C149.128 217.72 148.836 217.827 148.591 217.981L144.827 220.178L143.459 219.394L150.28 215.431L151.648 216.214L150.342 216.967C150.634 216.905 150.941 216.859 151.279 216.844C151.771 216.813 152.262 216.844 152.723 216.936C153.184 217.028 153.568 217.151 153.891 217.336L153.86 217.32Z" fill="#0B1742"/>
<path d="M175.383 229.917L165.735 232.253L161.572 233.313L160.128 232.468L163.953 231.592L167.917 225.601L169.484 226.507L166.611 230.67C166.611 230.67 166.488 230.855 166.381 230.993L166.334 231.039C166.596 230.977 166.826 230.901 167.072 230.824L173.785 228.996L175.383 229.917Z" fill="#0B1742"/>
<path d="M167.118 224.971C167.272 225.063 167.395 225.155 167.517 225.247C167.61 225.339 167.702 225.416 167.732 225.478L165.92 226.123C165.858 226.046 165.781 225.954 165.689 225.862C165.597 225.77 165.49 225.693 165.367 225.616C165.136 225.478 164.86 225.385 164.552 225.309C164.245 225.232 163.938 225.201 163.615 225.201C163.293 225.201 162.985 225.232 162.678 225.309C162.371 225.37 162.079 225.478 161.833 225.631L158.069 227.828L156.702 227.045L163.523 223.081L164.89 223.865L163.585 224.617C163.876 224.556 164.184 224.51 164.522 224.494C165.013 224.464 165.505 224.494 165.966 224.587C166.427 224.679 166.811 224.802 167.133 224.986L167.118 224.971Z" fill="#0B1742"/>
<path d="M160.281 221.207L161.633 221.99L154.812 225.954L153.46 225.17L154.505 224.571C154.09 224.602 153.706 224.602 153.276 224.571C152.861 224.525 152.446 224.448 152.047 224.341C151.648 224.233 151.279 224.08 150.956 223.895C150.388 223.573 150.019 223.173 149.881 222.728C149.727 222.282 149.773 221.821 150.035 221.345C150.28 220.869 150.757 220.439 151.433 220.039C152.109 219.64 152.861 219.363 153.675 219.225C154.49 219.071 155.304 219.056 156.087 219.164C156.871 219.271 157.562 219.486 158.177 219.84C158.53 220.039 158.791 220.27 159.006 220.5C159.191 220.731 159.298 220.961 159.344 221.207C159.375 221.422 159.344 221.637 159.267 221.852L160.327 221.238L160.281 221.207ZM155.473 223.742C155.995 223.634 156.487 223.465 156.932 223.204C157.378 222.943 157.685 222.666 157.854 222.359C158.023 222.052 158.054 221.744 157.931 221.453C157.823 221.145 157.562 220.884 157.147 220.654C156.733 220.423 156.287 220.27 155.78 220.208C155.273 220.147 154.751 220.162 154.229 220.254C153.706 220.346 153.23 220.531 152.784 220.792C152.339 221.053 152.032 221.33 151.847 221.637C151.678 221.944 151.632 222.251 151.755 222.543C151.847 222.835 152.124 223.096 152.523 223.342C152.923 223.588 153.384 223.726 153.906 223.788C154.413 223.849 154.935 223.834 155.473 223.742Z" fill="#0B1742"/>
<path d="M104.96 229.971L95.8649 235.256L94.5744 234.503L96.1721 227.39C95.8495 227.605 95.573 227.805 95.3118 227.974C94.9738 228.204 94.6973 228.404 94.4669 228.558C94.2211 228.727 94.0367 228.85 93.8985 228.942C93.7448 229.049 93.6219 229.111 93.5144 229.188C93.4069 229.249 93.33 229.311 93.2532 229.357L89.474 231.554L88.0607 230.739L97.1553 225.455L98.4151 226.192L96.6637 233.382L96.8634 233.228C97.0939 233.059 97.3397 232.89 97.6162 232.706C97.8774 232.521 98.1693 232.337 98.4765 232.137C98.7838 231.938 99.1217 231.738 99.4597 231.538C99.8131 231.323 100.166 231.108 100.566 230.893L103.546 229.157L104.96 229.971Z" fill="#0B1742"/>
<path d="M132.412 250.281C132.182 250.772 131.736 251.202 131.045 251.617C130.354 252.032 129.601 252.278 128.756 252.416C127.927 252.539 127.082 252.554 126.252 252.416C125.407 252.293 124.67 252.032 124.009 251.648C123.348 251.264 122.888 250.834 122.657 250.342C122.442 249.866 122.442 249.374 122.657 248.898C122.888 248.406 123.348 247.976 124.024 247.577C124.7 247.177 125.469 246.901 126.313 246.778C127.158 246.64 127.988 246.64 128.818 246.778C129.663 246.901 130.415 247.162 131.091 247.546C131.767 247.93 132.197 248.36 132.412 248.852C132.643 249.328 132.627 249.82 132.412 250.296V250.281ZM128.218 251.341C128.756 251.249 129.232 251.064 129.663 250.803C130.123 250.542 130.446 250.265 130.6 249.943C130.769 249.635 130.799 249.328 130.676 249.021C130.554 248.714 130.277 248.453 129.878 248.222C129.478 247.992 129.002 247.838 128.464 247.761C127.942 247.7 127.404 247.7 126.867 247.807C126.329 247.899 125.853 248.084 125.407 248.345C124.962 248.606 124.654 248.867 124.485 249.19C124.316 249.497 124.286 249.82 124.408 250.112C124.531 250.419 124.808 250.695 125.207 250.926C125.607 251.156 126.083 251.31 126.605 251.387C127.128 251.448 127.665 251.433 128.203 251.341" fill="#0B1742"/>
<path d="M139.51 252.37C139.664 252.462 139.787 252.554 139.909 252.647C140.002 252.739 140.094 252.816 140.125 252.877L138.327 253.522C138.266 253.445 138.189 253.353 138.097 253.261C138.004 253.169 137.897 253.092 137.774 253.015C137.544 252.877 137.267 252.785 136.96 252.708C136.653 252.631 136.345 252.601 136.023 252.601C135.7 252.601 135.393 252.631 135.086 252.708C134.778 252.77 134.486 252.877 134.241 253.031L130.477 255.228L129.11 254.444L135.931 250.48L137.298 251.264L135.992 252.017C136.284 251.955 136.591 251.909 136.929 251.894C137.421 251.863 137.897 251.894 138.373 251.986C138.834 252.078 139.218 252.201 139.541 252.385L139.51 252.37Z" fill="#0B1742"/>
<path d="M145.332 252.662L139.464 256.072L145.624 256.088L147.437 257.132L141.231 257.009L140.724 261.142L138.988 260.159L139.387 256.979L137.943 256.948L135.7 258.254L134.364 257.486L143.981 251.894L145.332 252.662Z" fill="#0B1742"/>
<path d="M107.955 237.99L107.372 238.313L102.133 235.287C101.841 235.502 101.611 235.732 101.503 235.963C101.365 236.285 101.365 236.608 101.534 236.93C101.718 237.253 102.041 237.545 102.517 237.821C102.855 238.021 103.239 238.159 103.639 238.267C104.053 238.374 104.576 238.436 105.206 238.467L104.944 239.404C104.514 239.404 104.099 239.358 103.639 239.281C103.178 239.189 102.732 239.081 102.317 238.943C101.872 238.805 101.519 238.636 101.196 238.451C100.489 238.036 100.013 237.591 99.7672 237.115C99.506 236.623 99.4907 236.147 99.7057 235.655C99.9054 235.179 100.351 234.749 101.042 234.349C101.58 234.042 102.148 233.796 102.763 233.643C103.393 233.489 104.007 233.412 104.637 233.397C105.267 233.397 105.881 233.458 106.511 233.597C107.11 233.735 107.664 233.965 108.171 234.257C108.616 234.518 108.939 234.795 109.169 235.118C109.384 235.44 109.492 235.763 109.476 236.101C109.446 236.439 109.338 236.761 109.077 237.084C108.831 237.407 108.462 237.698 107.971 237.975L107.955 237.99ZM107.08 236.9L107.172 236.854C107.418 236.669 107.587 236.469 107.664 236.239C107.725 236.009 107.694 235.794 107.556 235.563C107.433 235.333 107.218 235.148 106.926 234.979C106.45 234.703 105.958 234.534 105.467 234.442C104.975 234.365 104.468 234.38 103.961 234.472C103.715 234.518 103.485 234.595 103.254 234.687L107.095 236.9" fill="#0B1742"/>
<path d="M116.528 237.253L114.776 238.267L116.374 239.188L115.068 239.941L113.486 239.019L107.955 242.23L106.603 241.447L112.134 238.236L110.705 237.422L112.011 236.669L113.424 237.483L115.176 236.469L116.528 237.253Z" fill="#0B1742"/>
<path d="M118.325 240.31L115.161 243.921L120.415 242.784L121.229 243.245L119.293 246.256L125.469 244.443L126.836 245.226L117.695 247.853L116.774 247.316L118.986 244.013L113.379 245.365L112.472 244.842L116.943 239.527L118.325 240.31Z" fill="#0B1742"/>
<g clip-path="url(#clip1_14_971)">
<path d="M234.124 135.219C236.159 136.568 236.175 138.753 234.156 140.101C232.136 141.45 228.849 141.45 226.822 140.101C224.795 138.753 224.779 136.568 226.799 135.219C228.818 133.87 232.105 133.87 234.132 135.219H234.124Z" fill="#EFEBFF"/>
</g>
<g clip-path="url(#clip2_14_971)">
<path d="M197.183 156.413C199.218 157.762 199.233 159.947 197.214 161.296C195.195 162.644 191.908 162.644 189.881 161.296C187.853 159.947 187.838 157.762 189.857 156.413C191.876 155.065 195.163 155.065 197.191 156.413H197.183Z" fill="#EFEBFF"/>
</g>
<g clip-path="url(#clip3_14_971)">
<path d="M197.183 156.413C199.218 157.762 199.233 159.947 197.214 161.296C195.195 162.644 191.908 162.644 189.881 161.296C187.853 159.947 187.838 157.762 189.857 156.413C191.876 155.065 195.163 155.065 197.191 156.413H197.183Z" fill="#DFD7FE"/>
</g>
<g clip-path="url(#clip4_14_971)">
<path d="M161.517 176.9C163.551 178.248 163.567 180.433 161.548 181.782C159.529 183.131 156.241 183.131 154.214 181.782C152.187 180.433 152.172 178.248 154.191 176.9C156.21 175.551 159.497 175.551 161.524 176.9H161.517Z" fill="#BFAFFD"/>
</g>
<g clip-path="url(#clip5_14_971)">
<path d="M124.393 197.679C126.428 199.028 126.443 201.213 124.424 202.561C122.405 203.91 119.118 203.91 117.09 202.561C115.063 201.213 115.048 199.028 117.067 197.679C119.086 196.33 122.373 196.33 124.4 197.679H124.393Z" fill="#EFEBFF"/>
</g>
<g clip-path="url(#clip6_14_971)">
<path d="M124.393 197.679C126.428 199.028 126.443 201.213 124.424 202.561C122.405 203.91 119.118 203.91 117.09 202.561C115.063 201.213 115.048 199.028 117.067 197.679C119.086 196.33 122.373 196.33 124.4 197.679H124.393Z" fill="#9F88FD"/>
</g>
<g clip-path="url(#clip7_14_971)">
<path d="M86.6054 219.686C88.6403 221.035 88.656 223.22 86.6367 224.569C84.6174 225.917 81.3303 225.917 79.3032 224.569C77.2761 223.22 77.2605 221.035 79.2797 219.686C81.299 218.338 84.5861 218.338 86.6132 219.686H86.6054Z" fill="#5F38FB"/>
</g>
</g>
</g>
<defs>
<filter id="filter0_b_14_971" x="-70" y="-70" width="444" height="424" filterUnits="userSpaceOnUse" color-interpolation-filters="sRGB">
<feFlood flood-opacity="0" result="BackgroundImageFix"/>
<feGaussianBlur in="BackgroundImageFix" stdDeviation="35"/>
<feComposite in2="SourceAlpha" operator="in" result="effect1_backgroundBlur_14_971"/>
<feBlend mode="normal" in="SourceGraphic" in2="effect1_backgroundBlur_14_971" result="shape"/>
</filter>
<clipPath id="clip0_14_971">
<rect width="304" height="284" rx="16" fill="white"/>
</clipPath>
<clipPath id="clip1_14_971">
<rect width="10.3702" height="6.91348" fill="white" transform="translate(225.288 134.208)"/>
</clipPath>
<clipPath id="clip2_14_971">
<rect width="10.3702" height="6.91348" fill="white" transform="translate(188.347 155.402)"/>
</clipPath>
<clipPath id="clip3_14_971">
<rect width="10.3702" height="6.91348" fill="white" transform="translate(188.347 155.402)"/>
</clipPath>
<clipPath id="clip4_14_971">
<rect width="10.3702" height="6.91348" fill="white" transform="translate(152.68 175.889)"/>
</clipPath>
<clipPath id="clip5_14_971">
<rect width="10.3702" height="6.91348" fill="white" transform="translate(115.557 196.668)"/>
</clipPath>
<clipPath id="clip6_14_971">
<rect width="10.3702" height="6.91348" fill="white" transform="translate(115.557 196.668)"/>
</clipPath>
<clipPath id="clip7_14_971">
<rect width="10.3702" height="6.91348" fill="white" transform="translate(77.7693 218.675)"/>
</clipPath>
</defs>
</svg>
