<svg width="24" height="24" viewBox="0 0 24 24" fill="none" xmlns="http://www.w3.org/2000/svg">
<path d="M11.8594 7.60938C11.8242 7.57422 11.7539 7.57422 11.7539 7.53906C11.7539 7.53906 11.7539 7.50391 11.7891 7.50391C11.8242 7.46875 11.8945 7.46875 11.9648 7.50391C12 7.53906 12.0703 7.57422 12.0703 7.60938C12.0703 7.64453 12 7.64453 11.9648 7.64453C11.9297 7.64453 11.8945 7.60938 11.8594 7.60938ZM11.0859 7.64453C11.0508 7.67969 11.0156 7.64453 11.0156 7.60938C10.9805 7.57422 11.0859 7.53906 11.1211 7.50391C11.1914 7.46875 11.2617 7.46875 11.2969 7.50391C11.332 7.50391 11.332 7.53906 11.332 7.53906C11.332 7.57422 11.2617 7.57422 11.1914 7.60938C11.1562 7.60938 11.1562 7.64453 11.0859 7.64453ZM18.8906 17.4531C19.2773 17.9102 19.418 18.2266 19.418 18.5078C19.418 18.7891 19.207 19 18.9258 19.1406C18.3984 19.457 17.625 19.7031 17.1328 20.2656C16.6406 20.8633 16.043 21.2148 15.4453 21.25C14.8477 21.3203 14.3203 21.0391 14.0391 20.4414C14.0039 20.3711 13.9688 20.3008 13.9336 20.2305C13.1953 20.2656 12.5273 20.0195 12 20.0547C11.2266 20.125 10.7344 20.3008 10.3125 20.3008C10.1367 20.6875 9.78516 20.9336 9.39844 21.0039C8.83594 21.1445 8.13281 21.0039 7.42969 20.6523C6.76172 20.3008 5.95312 20.3359 5.35547 20.1953C5.03906 20.1602 4.75781 20.0195 4.65234 19.7734C4.51172 19.5273 4.54688 19.1758 4.72266 18.6484C4.75781 18.4727 4.72266 18.2266 4.6875 17.9453C4.65234 17.8047 4.65234 17.6641 4.65234 17.5234C4.65234 17.3477 4.65234 17.207 4.75781 17.0664C4.89844 16.7852 5.14453 16.6445 5.39062 16.5742C5.63672 16.4688 5.84766 16.4336 5.98828 16.293C6.16406 16.082 6.33984 15.7656 6.58594 15.5547C6.48047 14.957 6.58594 14.3242 6.79688 13.6914C7.21875 12.3555 8.16797 11.0898 8.83594 10.2812C9.39844 9.47266 9.57422 8.83984 9.60938 8.03125C9.67969 6.90625 8.76562 3.25 12.3516 3.25C15.1992 3.28516 15.0586 6.27344 15.0234 7.89062C15.0234 8.94531 15.5859 9.64844 16.2188 10.4219C16.7461 11.0547 17.4492 11.9688 17.8359 13.0234C18.1523 13.9023 18.293 14.8516 17.9766 15.8008C18.0117 15.8359 18.082 15.8359 18.1172 15.8711C18.1523 15.9062 18.2227 15.9414 18.2578 15.9766C18.4688 16.1875 18.5742 16.4688 18.6094 16.7852C18.6797 17.0664 18.75 17.3125 18.8906 17.4531ZM11.9648 6.34375C11.8594 6.58984 11.8242 6.87109 11.8594 7.11719C12 7.11719 12.1758 7.1875 12.3164 7.25781C12.2461 6.83594 12.4922 6.41406 12.7383 6.44922C13.0547 6.44922 13.2305 6.97656 13.0547 7.39844C13.0195 7.46875 12.9492 7.53906 12.9141 7.57422C13.1602 7.64453 13.3008 7.71484 13.3711 7.75C13.6523 7.39844 13.7578 6.83594 13.5117 6.30859C13.1602 5.57031 12.3164 5.57031 11.9648 6.34375ZM10.5586 5.92188C9.89062 5.92188 9.71484 7.25781 10.2422 7.75C10.5234 7.57422 10.4883 7.60938 10.4531 7.57422C10.1719 7.32812 10.207 6.58984 10.5234 6.58984C10.7344 6.55469 10.9102 6.94141 10.8398 7.25781C10.9805 7.1875 11.0859 7.15234 11.2266 7.11719C11.2617 6.41406 10.9102 5.92188 10.5586 5.92188ZM10.0664 8.06641C9.92578 8.17188 9.85547 8.3125 9.92578 8.48828C9.96094 8.66406 10.1367 8.875 10.418 9.05078C10.6992 9.19141 10.8398 9.4375 11.1211 9.57812C11.2266 9.61328 11.332 9.61328 11.4727 9.64844C12.1055 9.68359 12.4219 9.22656 12.8086 9.12109C13.2305 8.98047 13.5117 8.73438 13.6172 8.48828C13.7227 8.17188 13.5469 7.96094 13.2305 7.82031C12.8438 7.67969 12.668 7.64453 12.457 7.50391C12.1055 7.29297 11.7891 7.1875 11.543 7.1875C11.0508 7.1875 10.7344 7.53906 10.5586 7.67969C10.5586 7.71484 10.2773 7.89062 10.0664 8.06641ZM10.1719 19.8086C10.2422 19.0703 9.08203 18.0859 8.73047 17.3828L8.0625 16.1172C7.81641 15.8008 7.57031 15.625 7.28906 15.5547C7.00781 15.5195 6.83203 15.625 6.65625 15.8008C6.48047 15.9766 6.33984 16.2578 6.16406 16.4336C5.88281 16.6797 5.8125 16.6797 5.46094 16.7852C5.25 16.8555 5.07422 16.9609 4.93359 17.207C4.86328 17.3828 4.86328 17.6289 4.89844 17.9102C4.96875 18.1562 5.00391 18.4727 4.93359 18.7188V18.7539C4.75781 19.2109 4.75781 19.4922 4.82812 19.668C5.10938 20.1953 6.48047 19.8789 7.53516 20.4414C8.625 21.0039 10.1016 21.0391 10.1719 19.8086ZM10.1367 18.8945C11.4375 19.8086 13.0195 19.457 14.1445 18.6484C14.25 18.2617 14.3555 17.9102 14.3906 17.6289C14.4258 17.1016 14.4609 16.6094 14.5312 16.2227C14.6367 15.7656 14.8828 15.4141 15.3047 15.2734C15.375 14.5352 15.9375 14.5352 16.6406 14.8164C17.3086 15.1328 17.5547 15.3789 17.4492 15.7305C17.4844 15.7305 17.5195 15.7305 17.5898 15.7305C17.7656 15.1328 17.0977 14.7461 16.5 14.5C16.6055 14.0781 16.6055 13.6562 16.5 13.2695C16.2891 12.3555 15.6914 11.582 15.2695 11.1953C15.1641 11.1953 15.1992 11.2656 15.3398 11.4062C15.7617 11.793 16.6406 13.1289 16.1836 14.3945C16.043 14.3594 15.9023 14.3594 15.7969 14.3594C15.5859 13.3398 15.1641 12.4961 14.9531 12.0742C14.5664 11.3359 13.9336 9.78906 13.6523 8.69922C13.4766 8.94531 13.2305 9.12109 12.8789 9.22656C12.7031 9.29688 12.5273 9.4375 12.3164 9.54297C11.8242 9.82422 11.2617 9.85938 10.8047 9.50781C10.6641 9.40234 10.5234 9.26172 10.3828 9.15625C10.3125 9.12109 10.207 9.05078 10.1719 9.01562C10.1016 10.3516 9.1875 12.0039 8.76562 12.9883C8.48438 13.6562 8.30859 14.3945 8.27344 15.1328C7.53516 14.1133 8.09766 12.8125 8.37891 12.25C8.73047 11.6172 8.76562 11.4414 8.69531 11.5117C8.37891 12.0039 7.92188 12.7773 7.74609 13.5859C7.64062 14.0078 7.60547 14.4297 7.74609 14.8164C7.85156 15.2031 8.13281 15.5898 8.58984 15.8711C8.58984 15.8711 9.46875 16.3633 9.96094 17.0312C10.207 17.3828 10.2773 17.6641 10.207 17.9102C10.1367 18.1211 9.89062 18.1914 9.60938 18.1914C9.78516 18.4023 9.99609 18.6484 10.1367 18.8945ZM19.1719 18.5078C19.207 18.2969 19.0664 18.0508 18.7148 17.6289C18.3633 17.2422 18.4336 16.4688 18.082 16.1523C17.8711 15.9414 17.625 15.9766 17.3086 15.9766C17.0273 16.293 16.3945 16.6797 15.9375 16.5742C15.5508 16.4688 15.3047 15.9766 15.3047 15.5195C15.2695 15.5195 15.2695 15.5195 15.2695 15.5547C15.0234 15.6602 14.8828 15.9062 14.7773 16.293C14.6719 16.6445 14.6719 17.1016 14.6367 17.6289C14.6016 18.0508 14.4258 18.5781 14.2852 19.0703C14.1445 19.5273 14.0742 19.9492 14.25 20.3359C14.4961 20.8633 14.918 21.0742 15.4102 21.0391C15.9375 20.9688 16.5 20.6875 16.957 20.125C17.7305 19.1758 19.1367 19.0703 19.1719 18.5078ZM10.207 8.48828C10.0664 8.38281 10.1016 8.27734 10.1367 8.27734C10.2422 8.27734 10.2422 8.38281 10.2773 8.45312C10.3477 8.48828 10.4531 8.59375 10.5586 8.66406C10.7695 8.83984 11.0859 9.01562 11.4375 9.01562C11.7891 9.01562 12.2461 8.80469 12.4922 8.66406C12.6328 8.59375 12.8086 8.41797 12.9844 8.3125C13.0898 8.24219 13.0898 8.13672 13.1953 8.13672C13.3008 8.13672 13.2305 8.24219 13.0898 8.38281C12.9492 8.48828 12.7383 8.62891 12.5625 8.73438C12.2461 8.91016 11.8594 9.12109 11.4375 9.12109C11.0508 9.12109 10.6992 8.91016 10.4883 8.73438C10.3828 8.66406 10.2773 8.55859 10.207 8.48828Z" fill="#8A9FB8"/>
</svg>
