<svg xmlns="http://www.w3.org/2000/svg" width="32" height="32" viewBox="0 0 32 32" fill="none">
  <path d="M24.4822 8.82349H7.78725C6.59172 8.82349 5.62256 9.79265 5.62256 10.9882V24.4496C5.62256 25.6451 6.59172 26.6143 7.78725 26.6143H24.4822C25.6777 26.6143 26.6469 25.6451 26.6469 24.4496V10.9882C26.6469 9.79265 25.6777 8.82349 24.4822 8.82349Z" fill="#B9C5D4"/>
  <g filter="url(#filter0_b_3575_3883)">
    <path d="M23.021 16.1162C19.1477 16.1162 15.9966 12.9649 15.9966 9.09177C15.9966 5.21868 19.1477 2.06738 23.021 2.06738C26.8943 2.06738 30.0454 5.21868 30.0454 9.09177C30.0454 12.9649 26.8943 16.1162 23.021 16.1162ZM23.021 5.57958C21.0844 5.57958 19.5088 7.15504 19.5088 9.09177C19.5088 11.0285 21.0844 12.604 23.021 12.604C24.9575 12.604 26.5332 11.0285 26.5332 9.09177C26.5332 7.15504 24.9575 5.57958 23.021 5.57958Z" fill="#5F38FB"/>
  </g>
  <path d="M20.8142 12.1417H4.11928C2.92375 12.1417 1.95459 13.1109 1.95459 14.3064V27.7678C1.95459 28.9634 2.92375 29.9325 4.11928 29.9325H20.8142C22.0097 29.9325 22.9789 28.9634 22.9789 27.7678V14.3064C22.9789 13.1109 22.0097 12.1417 20.8142 12.1417Z" fill="#DCE2EA"/>
  <path d="M17.8497 18.3921H17.8497C16.5159 18.3921 15.4346 19.4734 15.4346 20.8072V20.8072C15.4346 22.1411 16.5159 23.2224 17.8497 23.2224H17.8497C19.1836 23.2224 20.2649 22.1411 20.2649 20.8072V20.8072C20.2649 19.4734 19.1836 18.3921 17.8497 18.3921Z" fill="#9DBEBE"/>
  <defs>
    <filter id="filter0_b_3575_3883" x="14.4356" y="0.506407" width="17.1708" height="17.1708" filterUnits="userSpaceOnUse" color-interpolation-filters="sRGB">
      <feFlood flood-opacity="0" result="BackgroundImageFix"/>
      <feGaussianBlur in="BackgroundImageFix" stdDeviation="0.780488"/>
      <feComposite in2="SourceAlpha" operator="in" result="effect1_backgroundBlur_3575_3883"/>
      <feBlend mode="normal" in="SourceGraphic" in2="effect1_backgroundBlur_3575_3883" result="shape"/>
    </filter>
  </defs>
</svg>