<svg width="54" height="57" viewBox="0 0 54 57" fill="none" xmlns="http://www.w3.org/2000/svg">
<rect width="54" height="54" rx="8" fill="#EAFCF1"/>
<path d="M35.4819 19.8235H18.787C17.5915 19.8235 16.6223 20.7927 16.6223 21.9882V35.4496C16.6223 36.6451 17.5915 37.6143 18.787 37.6143H35.4819C36.6774 37.6143 37.6466 36.6451 37.6466 35.4496V21.9882C37.6466 20.7927 36.6774 19.8235 35.4819 19.8235Z" fill="#C9F8DC"/>
<g filter="url(#filter0_b_3308_1387)">
<path d="M34.0212 27.1162C30.1479 27.1162 26.9968 23.9649 26.9968 20.0918C26.9968 16.2187 30.1479 13.0674 34.0212 13.0674C37.8944 13.0674 41.0455 16.2187 41.0455 20.0918C41.0455 23.9649 37.8944 27.1162 34.0212 27.1162ZM34.0212 16.5796C32.0846 16.5796 30.509 18.155 30.509 20.0918C30.509 22.0285 32.0846 23.604 34.0212 23.604C35.9577 23.604 37.5334 22.0285 37.5334 20.0918C37.5334 18.155 35.9577 16.5796 34.0212 16.5796Z" fill="url(#paint0_linear_3308_1387)"/>
<path d="M34.0212 26.921C30.2556 26.921 27.1919 23.8571 27.1919 20.0918C27.1919 16.3264 30.2556 13.2625 34.0212 13.2625C37.7867 13.2625 40.8504 16.3264 40.8504 20.0918C40.8504 23.8571 37.7867 26.921 34.0212 26.921ZM34.0212 16.3845C31.9769 16.3845 30.3138 18.0473 30.3138 20.0918C30.3138 22.1363 31.9769 23.7991 34.0212 23.7991C36.0655 23.7991 37.7285 22.1363 37.7285 20.0918C37.7285 18.0473 36.0655 16.3845 34.0212 16.3845Z" stroke="url(#paint1_linear_3308_1387)" stroke-width="0.390244"/>
</g>
<g filter="url(#filter1_bd_3308_1387)">
<path d="M31.8141 23.1417H15.1192C13.9237 23.1417 12.9545 24.1109 12.9545 25.3064V38.7678C12.9545 39.9634 13.9237 40.9325 15.1192 40.9325H31.8141C33.0097 40.9325 33.9788 39.9634 33.9788 38.7678V25.3064C33.9788 24.1109 33.0097 23.1417 31.8141 23.1417Z" fill="url(#paint2_linear_3308_1387)" shape-rendering="crispEdges"/>
<path d="M15.1192 23.3368H31.8141C32.9019 23.3368 33.7837 24.2187 33.7837 25.3064V38.7678C33.7837 39.8556 32.9019 40.7374 31.8141 40.7374H15.1192C14.0315 40.7374 13.1497 39.8556 13.1497 38.7678V25.3064C13.1497 24.2187 14.0315 23.3368 15.1192 23.3368Z" stroke="url(#paint3_linear_3308_1387)" stroke-width="0.390244" shape-rendering="crispEdges"/>
</g>
<path d="M28.8497 29.3921H28.8497C27.5159 29.3921 26.4346 30.4734 26.4346 31.8072V31.8072C26.4346 33.1411 27.5159 34.2224 28.8497 34.2224H28.8497C30.1836 34.2224 31.2649 33.1411 31.2649 31.8072V31.8072C31.2649 30.4734 30.1836 29.3921 28.8497 29.3921Z" fill="#D2F9E2"/>
<defs>
<filter id="filter0_b_3308_1387" x="25.4358" y="11.5064" width="17.1707" height="17.1708" filterUnits="userSpaceOnUse" color-interpolation-filters="sRGB">
<feFlood flood-opacity="0" result="BackgroundImageFix"/>
<feGaussianBlur in="BackgroundImageFix" stdDeviation="0.780488"/>
<feComposite in2="SourceAlpha" operator="in" result="effect1_backgroundBlur_3308_1387"/>
<feBlend mode="normal" in="SourceGraphic" in2="effect1_backgroundBlur_3308_1387" result="shape"/>
</filter>
<filter id="filter1_bd_3308_1387" x="5.14965" y="15.3368" width="44.4389" height="41.2054" filterUnits="userSpaceOnUse" color-interpolation-filters="sRGB">
<feFlood flood-opacity="0" result="BackgroundImageFix"/>
<feGaussianBlur in="BackgroundImageFix" stdDeviation="3.90244"/>
<feComposite in2="SourceAlpha" operator="in" result="effect1_backgroundBlur_3308_1387"/>
<feColorMatrix in="SourceAlpha" type="matrix" values="0 0 0 0 0 0 0 0 0 0 0 0 0 0 0 0 0 0 127 0" result="hardAlpha"/>
<feOffset dx="3.90244" dy="3.90244"/>
<feGaussianBlur stdDeviation="5.85366"/>
<feComposite in2="hardAlpha" operator="out"/>
<feColorMatrix type="matrix" values="0 0 0 0 0.0196078 0 0 0 0 0.6 0 0 0 0 0.290196 0 0 0 0.3 0"/>
<feBlend mode="normal" in2="effect1_backgroundBlur_3308_1387" result="effect2_dropShadow_3308_1387"/>
<feBlend mode="normal" in="SourceGraphic" in2="effect2_dropShadow_3308_1387" result="shape"/>
</filter>
<linearGradient id="paint0_linear_3308_1387" x1="36.8655" y1="37.5661" x2="29.1899" y2="6.45609" gradientUnits="userSpaceOnUse">
<stop offset="0.0822725" stop-color="#8566FF" stop-opacity="0.3"/>
<stop offset="0.423605" stop-color="#5F38FB" stop-opacity="0.5"/>
<stop offset="0.762303" stop-color="#5F38FB" stop-opacity="0.7"/>
</linearGradient>
<linearGradient id="paint1_linear_3308_1387" x1="34.0212" y1="43.8361" x2="32.1848" y2="2.11662" gradientUnits="userSpaceOnUse">
<stop offset="0.137498" stop-color="#AF9BFD"/>
<stop offset="0.410212" stop-color="#5F38FB" stop-opacity="0"/>
<stop offset="0.835001" stop-color="#5F38FB"/>
</linearGradient>
<linearGradient id="paint2_linear_3308_1387" x1="13.3613" y1="23.1417" x2="31.8766" y2="45.9181" gradientUnits="userSpaceOnUse">
<stop offset="0.182224" stop-color="#2DE376" stop-opacity="0.5"/>
<stop offset="0.640234" stop-color="#2DE376" stop-opacity="0.9"/>
</linearGradient>
<linearGradient id="paint3_linear_3308_1387" x1="12.9545" y1="21.0716" x2="29.5541" y2="44.4208" gradientUnits="userSpaceOnUse">
<stop offset="0.249921" stop-color="#2DE376"/>
<stop offset="0.470896" stop-color="#2DE376" stop-opacity="0"/>
<stop offset="0.816545" stop-color="#35C168"/>
</linearGradient>
</defs>
</svg>
