<svg width="54" height="55" viewBox="0 0 54 55" fill="none" xmlns="http://www.w3.org/2000/svg">
<rect y="0.529297" width="54" height="54" rx="8" fill="#F3F5F8"/>
<path d="M35.4822 20.3525H18.7872C17.5917 20.3525 16.6226 21.3217 16.6226 22.5172V35.9787C16.6226 37.1742 17.5917 38.1434 18.7872 38.1434H35.4822C36.6777 38.1434 37.6469 37.1742 37.6469 35.9787V22.5172C37.6469 21.3217 36.6777 20.3525 35.4822 20.3525Z" fill="#B9C5D4"/>
<g filter="url(#filter0_b_3542_1409)">
<path d="M34.021 27.6455C30.1477 27.6455 26.9966 24.4942 26.9966 20.6211C26.9966 16.748 30.1477 13.5967 34.021 13.5967C37.8943 13.5967 41.0454 16.748 41.0454 20.6211C41.0454 24.4942 37.8943 27.6455 34.021 27.6455ZM34.021 17.1089C32.0844 17.1089 30.5088 18.6843 30.5088 20.6211C30.5088 22.5578 32.0844 24.1333 34.021 24.1333C35.9575 24.1333 37.5332 22.5578 37.5332 20.6211C37.5332 18.6843 35.9575 17.1089 34.021 17.1089Z" fill="#5F38FB"/>
</g>
<path d="M31.8142 23.6709H15.1193C13.9238 23.6709 12.9546 24.6401 12.9546 25.8356V39.297C12.9546 40.4925 13.9238 41.4617 15.1193 41.4617H31.8142C33.0097 41.4617 33.9789 40.4925 33.9789 39.297V25.8356C33.9789 24.6401 33.0097 23.6709 31.8142 23.6709Z" fill="#DCE2EA"/>
<path d="M28.8497 29.9219H28.8497C27.5159 29.9219 26.4346 31.0032 26.4346 32.337V32.337C26.4346 33.6709 27.5159 34.7522 28.8497 34.7522H28.8497C30.1836 34.7522 31.2649 33.6709 31.2649 32.337V32.337C31.2649 31.0032 30.1836 29.9219 28.8497 29.9219Z" fill="#9DBEBE"/>
<defs>
<filter id="filter0_b_3542_1409" x="25.4356" y="12.0357" width="17.1708" height="17.1708" filterUnits="userSpaceOnUse" color-interpolation-filters="sRGB">
<feFlood flood-opacity="0" result="BackgroundImageFix"/>
<feGaussianBlur in="BackgroundImageFix" stdDeviation="0.780488"/>
<feComposite in2="SourceAlpha" operator="in" result="effect1_backgroundBlur_3542_1409"/>
<feBlend mode="normal" in="SourceGraphic" in2="effect1_backgroundBlur_3542_1409" result="shape"/>
</filter>
</defs>
</svg>
