<svg width="32" height="32" viewBox="0 0 32 32" fill="none" xmlns="http://www.w3.org/2000/svg">
<path d="M4.125 0.5H21.375C21.9844 0.5 22.5 1.01562 22.5 1.625C22.5 2.28125 21.9844 2.75 21.375 2.75H4.125C3.04688 2.75 2.25 3.59375 2.25 4.625V17.375C2.25 18.4531 3.04688 19.25 4.125 19.25H19.875C20.9062 19.25 21.75 18.4531 21.75 17.375V9.125C21.75 8.09375 20.9062 7.25 19.875 7.25H5.625C4.96875 7.25 4.5 6.78125 4.5 6.125C4.5 5.51562 4.96875 5 5.625 5H19.875C22.125 5 24 6.875 24 9.125V17.375C24 19.6719 22.125 21.5 19.875 21.5H4.125C1.82812 21.5 0 19.6719 0 17.375V4.625C0 2.375 1.82812 0.5 4.125 0.5ZM18 14.75C17.1562 14.75 16.5 14.0938 16.5 13.25C16.5 12.4531 17.1562 11.75 18 11.75C18.7969 11.75 19.5 12.4531 19.5 13.25C19.5 14.0938 18.7969 14.75 18 14.75Z" fill="#000D3D"/>
</svg>
