<svg width="976" height="660" viewBox="0 0 976 660" fill="none" xmlns="http://www.w3.org/2000/svg">
<path d="M0 8.77509C0 4.36993 3.57108 0.798828 7.97624 0.798828H968.024C972.429 0.798828 976 4.36991 976 8.77507V651.623C976 656.028 972.429 659.599 968.024 659.599H7.97626C3.5711 659.599 0 656.028 0 651.623V8.77509Z" fill="white" fill-opacity="0.05"/>
<path d="M261.7 272.117H364.544C374.644 272.117 382.831 263.93 382.831 253.83C382.831 243.73 374.644 235.543 364.544 235.543H261.7C251.6 235.543 243.412 243.73 243.412 253.83C243.412 263.93 251.6 272.117 261.7 272.117Z" fill="#262E38"/>
<path d="M261.023 258.627C263.882 258.627 266.201 256.308 266.201 253.449C266.201 250.589 263.882 248.271 261.023 248.271C258.163 248.271 255.845 250.589 255.845 253.449C255.845 256.308 258.163 258.627 261.023 258.627Z" fill="#9F88FD" stroke="#BFAFFD" stroke-width="1.2" stroke-linecap="round" stroke-linejoin="round"/>
<path d="M276.118 258.785C275.571 258.785 275.068 258.718 274.611 258.583C274.153 258.44 273.74 258.229 273.372 257.951C273.005 257.672 272.677 257.336 272.39 256.941L273.534 255.649C273.974 256.259 274.404 256.681 274.826 256.914C275.248 257.148 275.723 257.264 276.252 257.264C276.557 257.264 276.836 257.219 277.087 257.13C277.338 257.031 277.535 256.901 277.679 256.739C277.822 256.569 277.894 256.376 277.894 256.161C277.894 256.008 277.863 255.869 277.8 255.744C277.746 255.609 277.661 255.492 277.544 255.394C277.428 255.286 277.284 255.187 277.114 255.098C276.943 255.008 276.75 254.932 276.535 254.869C276.32 254.806 276.082 254.748 275.822 254.694C275.328 254.595 274.898 254.465 274.53 254.304C274.162 254.133 273.852 253.927 273.601 253.685C273.35 253.433 273.166 253.155 273.05 252.85C272.933 252.536 272.875 252.182 272.875 251.787C272.875 251.392 272.96 251.029 273.13 250.697C273.31 250.365 273.552 250.078 273.857 249.836C274.162 249.593 274.516 249.405 274.92 249.27C275.324 249.136 275.759 249.069 276.225 249.069C276.755 249.069 277.226 249.131 277.639 249.257C278.06 249.383 278.428 249.571 278.742 249.822C279.065 250.064 279.33 250.361 279.536 250.71L278.379 251.854C278.199 251.576 277.997 251.347 277.773 251.168C277.549 250.98 277.307 250.841 277.046 250.751C276.786 250.652 276.513 250.603 276.225 250.603C275.903 250.603 275.62 250.648 275.378 250.737C275.144 250.827 274.96 250.957 274.826 251.128C274.691 251.289 274.624 251.486 274.624 251.72C274.624 251.899 274.664 252.061 274.745 252.204C274.826 252.339 274.938 252.46 275.082 252.568C275.234 252.675 275.427 252.769 275.66 252.85C275.894 252.931 276.158 253.003 276.454 253.065C276.948 253.164 277.392 253.299 277.787 253.469C278.181 253.631 278.518 253.828 278.796 254.061C279.074 254.286 279.285 254.546 279.428 254.842C279.572 255.129 279.644 255.452 279.644 255.811C279.644 256.43 279.496 256.964 279.2 257.412C278.913 257.852 278.504 258.193 277.975 258.435C277.446 258.668 276.827 258.785 276.118 258.785ZM281.245 258.65V251.558H282.873L282.9 252.985L282.631 253.092C282.711 252.859 282.833 252.644 282.994 252.446C283.156 252.24 283.348 252.065 283.573 251.922C283.797 251.769 284.035 251.652 284.286 251.572C284.537 251.482 284.793 251.437 285.053 251.437C285.439 251.437 285.78 251.5 286.076 251.626C286.381 251.742 286.632 251.931 286.829 252.191C287.036 252.451 287.188 252.783 287.287 253.187L287.031 253.133L287.139 252.917C287.238 252.702 287.377 252.509 287.556 252.339C287.736 252.159 287.937 252.002 288.162 251.868C288.386 251.724 288.619 251.617 288.862 251.545C289.113 251.473 289.359 251.437 289.602 251.437C290.14 251.437 290.589 251.545 290.947 251.76C291.306 251.975 291.575 252.303 291.755 252.743C291.934 253.182 292.024 253.725 292.024 254.371V258.65H290.355V254.479C290.355 254.12 290.306 253.824 290.207 253.59C290.118 253.357 289.974 253.187 289.777 253.079C289.588 252.962 289.35 252.904 289.063 252.904C288.839 252.904 288.624 252.944 288.417 253.025C288.22 253.097 288.05 253.205 287.906 253.348C287.762 253.483 287.65 253.64 287.57 253.819C287.489 253.999 287.448 254.196 287.448 254.411V258.65H285.78V254.465C285.78 254.124 285.73 253.842 285.632 253.617C285.533 253.384 285.389 253.209 285.201 253.092C285.013 252.967 284.784 252.904 284.515 252.904C284.29 252.904 284.08 252.944 283.882 253.025C283.685 253.097 283.514 253.2 283.371 253.335C283.227 253.469 283.115 253.626 283.034 253.806C282.954 253.985 282.913 254.182 282.913 254.398V258.65H281.245ZM296.54 258.785C295.957 258.785 295.427 258.623 294.952 258.3C294.476 257.978 294.095 257.538 293.808 256.982C293.521 256.425 293.377 255.793 293.377 255.084C293.377 254.375 293.521 253.743 293.808 253.187C294.095 252.63 294.485 252.195 294.979 251.881C295.472 251.567 296.028 251.41 296.647 251.41C297.006 251.41 297.334 251.464 297.63 251.572C297.926 251.67 298.186 251.814 298.41 252.002C298.635 252.191 298.819 252.406 298.962 252.648C299.115 252.891 299.218 253.151 299.272 253.429L298.908 253.335V251.558H300.577V258.65H298.895V256.955L299.285 256.887C299.222 257.13 299.106 257.367 298.935 257.601C298.774 257.825 298.567 258.027 298.316 258.206C298.074 258.377 297.8 258.516 297.495 258.623C297.199 258.731 296.881 258.785 296.54 258.785ZM296.997 257.318C297.383 257.318 297.724 257.224 298.02 257.035C298.316 256.847 298.545 256.587 298.706 256.255C298.877 255.914 298.962 255.524 298.962 255.084C298.962 254.653 298.877 254.272 298.706 253.94C298.545 253.608 298.316 253.348 298.02 253.16C297.724 252.971 297.383 252.877 296.997 252.877C296.611 252.877 296.271 252.971 295.974 253.16C295.687 253.348 295.463 253.608 295.302 253.94C295.14 254.272 295.059 254.653 295.059 255.084C295.059 255.524 295.14 255.914 295.302 256.255C295.463 256.587 295.687 256.847 295.974 257.035C296.271 257.224 296.611 257.318 296.997 257.318ZM302.51 258.65V248.692H304.178V258.65H302.51ZM306.137 258.65V248.692H307.806V258.65H306.137ZM314.002 258.65V249.23H318.013C318.632 249.23 319.152 249.32 319.574 249.499C320.004 249.679 320.327 249.948 320.543 250.307C320.767 250.657 320.879 251.083 320.879 251.585C320.879 252.106 320.74 252.545 320.462 252.904C320.184 253.263 319.794 253.51 319.291 253.644L319.278 253.375C319.699 253.465 320.067 253.626 320.381 253.859C320.695 254.084 320.938 254.366 321.108 254.707C321.287 255.039 321.377 255.421 321.377 255.851C321.377 256.309 321.301 256.712 321.148 257.062C321.005 257.412 320.79 257.704 320.502 257.937C320.215 258.17 319.874 258.35 319.48 258.475C319.085 258.592 318.641 258.65 318.147 258.65H314.002ZM315.712 257.076H318.067C318.399 257.076 318.677 257.027 318.901 256.928C319.134 256.829 319.309 256.686 319.426 256.497C319.551 256.3 319.614 256.067 319.614 255.797C319.614 255.546 319.547 255.331 319.412 255.151C319.287 254.972 319.103 254.837 318.861 254.748C318.618 254.649 318.331 254.6 317.999 254.6H315.712V257.076ZM315.712 253.092H317.851C318.111 253.092 318.336 253.043 318.524 252.944C318.722 252.846 318.874 252.711 318.982 252.541C319.089 252.37 319.143 252.173 319.143 251.949C319.143 251.59 319.022 251.312 318.78 251.114C318.538 250.908 318.183 250.805 317.717 250.805H315.712V253.092ZM325.434 258.785C324.923 258.785 324.479 258.673 324.102 258.449C323.725 258.215 323.438 257.888 323.241 257.466C323.043 257.035 322.945 256.524 322.945 255.932V251.558H324.6V255.582C324.6 255.959 324.658 256.282 324.775 256.551C324.892 256.811 325.062 257.013 325.286 257.157C325.511 257.3 325.78 257.372 326.094 257.372C326.327 257.372 326.538 257.336 326.726 257.264C326.924 257.184 327.094 257.076 327.238 256.941C327.381 256.798 327.493 256.632 327.574 256.443C327.655 256.246 327.695 256.035 327.695 255.811V251.558H329.35V258.65H327.736L327.709 257.17L328.005 257.009C327.897 257.349 327.713 257.655 327.453 257.924C327.202 258.184 326.901 258.395 326.551 258.556C326.201 258.709 325.829 258.785 325.434 258.785ZM333.659 258.785C333.031 258.785 332.466 258.682 331.963 258.475C331.47 258.26 331.066 257.955 330.752 257.56L331.829 256.632C332.098 256.937 332.399 257.157 332.731 257.291C333.062 257.426 333.412 257.493 333.78 257.493C333.933 257.493 334.067 257.475 334.184 257.439C334.31 257.403 334.417 257.349 334.507 257.278C334.597 257.206 334.664 257.125 334.709 257.035C334.763 256.937 334.79 256.829 334.79 256.712C334.79 256.497 334.709 256.327 334.547 256.201C334.458 256.138 334.314 256.071 334.117 255.999C333.928 255.927 333.682 255.856 333.376 255.784C332.892 255.658 332.488 255.515 332.165 255.353C331.842 255.183 331.591 254.994 331.412 254.788C331.259 254.618 331.143 254.425 331.062 254.209C330.99 253.994 330.954 253.761 330.954 253.51C330.954 253.196 331.021 252.913 331.156 252.662C331.3 252.402 331.492 252.177 331.735 251.989C331.977 251.8 332.26 251.657 332.582 251.558C332.905 251.46 333.242 251.41 333.592 251.41C333.951 251.41 334.296 251.455 334.628 251.545C334.969 251.635 335.283 251.765 335.57 251.935C335.866 252.097 336.117 252.294 336.324 252.527L335.409 253.537C335.238 253.375 335.05 253.231 334.843 253.106C334.646 252.98 334.444 252.882 334.238 252.81C334.031 252.729 333.839 252.689 333.659 252.689C333.489 252.689 333.336 252.707 333.202 252.743C333.067 252.769 332.955 252.814 332.865 252.877C332.775 252.94 332.704 253.021 332.65 253.119C332.605 253.209 332.582 253.317 332.582 253.442C332.591 253.55 332.618 253.653 332.663 253.752C332.717 253.842 332.789 253.918 332.879 253.981C332.977 254.043 333.125 254.115 333.323 254.196C333.52 254.277 333.776 254.353 334.09 254.425C334.529 254.541 334.897 254.671 335.193 254.815C335.489 254.959 335.723 255.125 335.893 255.313C336.064 255.474 336.185 255.663 336.256 255.878C336.328 256.093 336.364 256.331 336.364 256.591C336.364 257.013 336.243 257.39 336.001 257.722C335.767 258.054 335.444 258.314 335.032 258.502C334.628 258.691 334.17 258.785 333.659 258.785ZM338.011 258.65V251.558H339.666V258.65H338.011ZM338.818 250.051C338.486 250.051 338.226 249.97 338.038 249.809C337.858 249.638 337.768 249.401 337.768 249.096C337.768 248.808 337.863 248.575 338.051 248.396C338.239 248.216 338.495 248.127 338.818 248.127C339.159 248.127 339.419 248.212 339.599 248.382C339.787 248.544 339.881 248.781 339.881 249.096C339.881 249.374 339.787 249.602 339.599 249.782C339.41 249.961 339.15 250.051 338.818 250.051ZM341.765 258.65V251.558H343.38L343.407 253.012L343.097 253.173C343.187 252.85 343.362 252.559 343.622 252.298C343.882 252.029 344.192 251.814 344.551 251.652C344.909 251.491 345.277 251.41 345.654 251.41C346.192 251.41 346.641 251.518 347 251.733C347.368 251.949 347.641 252.271 347.821 252.702C348.009 253.133 348.103 253.671 348.103 254.317V258.65H346.448V254.438C346.448 254.079 346.399 253.783 346.3 253.55C346.201 253.308 346.049 253.133 345.843 253.025C345.636 252.908 345.385 252.855 345.089 252.864C344.847 252.864 344.622 252.904 344.416 252.985C344.219 253.057 344.044 253.164 343.891 253.308C343.748 253.442 343.631 253.599 343.541 253.779C343.461 253.958 343.42 254.156 343.42 254.371V258.65H342.599C342.438 258.65 342.285 258.65 342.142 258.65C342.007 258.65 341.882 258.65 341.765 258.65ZM353.29 258.785C352.545 258.785 351.886 258.628 351.311 258.314C350.746 258 350.302 257.574 349.979 257.035C349.665 256.488 349.508 255.865 349.508 255.165C349.508 254.609 349.598 254.102 349.777 253.644C349.957 253.187 350.203 252.792 350.517 252.46C350.84 252.119 351.222 251.859 351.661 251.679C352.11 251.491 352.599 251.397 353.128 251.397C353.595 251.397 354.03 251.486 354.434 251.666C354.837 251.845 355.187 252.092 355.483 252.406C355.779 252.711 356.004 253.079 356.156 253.51C356.318 253.931 356.394 254.393 356.385 254.896L356.371 255.474H350.625L350.315 254.344H354.985L354.77 254.573V254.277C354.743 253.999 354.653 253.756 354.501 253.55C354.348 253.335 354.151 253.169 353.909 253.052C353.675 252.926 353.415 252.864 353.128 252.864C352.689 252.864 352.316 252.949 352.011 253.119C351.715 253.29 351.491 253.537 351.338 253.859C351.186 254.174 351.109 254.568 351.109 255.044C351.109 255.501 351.204 255.901 351.392 256.241C351.589 256.582 351.863 256.847 352.213 257.035C352.572 257.215 352.989 257.305 353.465 257.305C353.797 257.305 354.102 257.251 354.38 257.143C354.658 257.035 354.958 256.843 355.281 256.564L356.102 257.708C355.86 257.933 355.582 258.126 355.268 258.287C354.963 258.44 354.64 258.561 354.299 258.65C353.958 258.74 353.622 258.785 353.29 258.785ZM360.219 258.785C359.591 258.785 359.026 258.682 358.524 258.475C358.03 258.26 357.627 257.955 357.313 257.56L358.389 256.632C358.658 256.937 358.959 257.157 359.291 257.291C359.623 257.426 359.973 257.493 360.341 257.493C360.493 257.493 360.628 257.475 360.744 257.439C360.87 257.403 360.978 257.349 361.067 257.278C361.157 257.206 361.224 257.125 361.269 257.035C361.323 256.937 361.35 256.829 361.35 256.712C361.35 256.497 361.269 256.327 361.108 256.201C361.018 256.138 360.874 256.071 360.677 255.999C360.489 255.927 360.242 255.856 359.937 255.784C359.452 255.658 359.049 255.515 358.726 255.353C358.403 255.183 358.151 254.994 357.972 254.788C357.82 254.618 357.703 254.425 357.622 254.209C357.55 253.994 357.514 253.761 357.514 253.51C357.514 253.196 357.582 252.913 357.716 252.662C357.86 252.402 358.053 252.177 358.295 251.989C358.537 251.8 358.82 251.657 359.143 251.558C359.466 251.46 359.802 251.41 360.152 251.41C360.511 251.41 360.856 251.455 361.188 251.545C361.529 251.635 361.843 251.765 362.13 251.935C362.426 252.097 362.678 252.294 362.884 252.527L361.969 253.537C361.798 253.375 361.61 253.231 361.404 253.106C361.206 252.98 361.004 252.882 360.798 252.81C360.592 252.729 360.399 252.689 360.219 252.689C360.049 252.689 359.896 252.707 359.762 252.743C359.627 252.769 359.515 252.814 359.425 252.877C359.336 252.94 359.264 253.021 359.21 253.119C359.165 253.209 359.143 253.317 359.143 253.442C359.152 253.55 359.179 253.653 359.224 253.752C359.277 253.842 359.349 253.918 359.439 253.981C359.538 254.043 359.686 254.115 359.883 254.196C360.08 254.277 360.336 254.353 360.65 254.425C361.09 254.541 361.458 254.671 361.754 254.815C362.05 254.959 362.283 255.125 362.453 255.313C362.624 255.474 362.745 255.663 362.817 255.878C362.889 256.093 362.924 256.331 362.924 256.591C362.924 257.013 362.803 257.39 362.561 257.722C362.328 258.054 362.005 258.314 361.592 258.502C361.188 258.691 360.731 258.785 360.219 258.785ZM366.751 258.785C366.123 258.785 365.558 258.682 365.055 258.475C364.562 258.26 364.158 257.955 363.844 257.56L364.921 256.632C365.19 256.937 365.491 257.157 365.823 257.291C366.154 257.426 366.504 257.493 366.872 257.493C367.025 257.493 367.159 257.475 367.276 257.439C367.402 257.403 367.509 257.349 367.599 257.278C367.689 257.206 367.756 257.125 367.801 257.035C367.855 256.937 367.882 256.829 367.882 256.712C367.882 256.497 367.801 256.327 367.639 256.201C367.55 256.138 367.406 256.071 367.209 255.999C367.02 255.927 366.774 255.856 366.468 255.784C365.984 255.658 365.58 255.515 365.257 255.353C364.934 255.183 364.683 254.994 364.504 254.788C364.351 254.618 364.235 254.425 364.154 254.209C364.082 253.994 364.046 253.761 364.046 253.51C364.046 253.196 364.113 252.913 364.248 252.662C364.392 252.402 364.584 252.177 364.827 251.989C365.069 251.8 365.352 251.657 365.674 251.558C365.997 251.46 366.334 251.41 366.684 251.41C367.043 251.41 367.388 251.455 367.72 251.545C368.061 251.635 368.375 251.765 368.662 251.935C368.958 252.097 369.209 252.294 369.416 252.527L368.501 253.537C368.33 253.375 368.142 253.231 367.935 253.106C367.738 252.98 367.536 252.882 367.33 252.81C367.123 252.729 366.931 252.689 366.751 252.689C366.581 252.689 366.428 252.707 366.294 252.743C366.159 252.769 366.047 252.814 365.957 252.877C365.867 252.94 365.796 253.021 365.742 253.119C365.697 253.209 365.674 253.317 365.674 253.442C365.683 253.55 365.71 253.653 365.755 253.752C365.809 253.842 365.881 253.918 365.971 253.981C366.069 254.043 366.217 254.115 366.415 254.196C366.612 254.277 366.868 254.353 367.182 254.425C367.621 254.541 367.989 254.671 368.285 254.815C368.581 254.959 368.815 255.125 368.985 255.313C369.156 255.474 369.277 255.663 369.348 255.878C369.42 256.093 369.456 256.331 369.456 256.591C369.456 257.013 369.335 257.39 369.093 257.722C368.859 258.054 368.536 258.314 368.124 258.502C367.72 258.691 367.262 258.785 366.751 258.785Z" fill="white"/>
<path d="M342.531 131.01H283.273C273.173 131.01 264.985 139.197 264.985 149.297C264.985 159.397 273.173 167.584 283.273 167.584H342.531C352.631 167.584 360.818 159.397 360.818 149.297C360.818 139.197 352.631 131.01 342.531 131.01Z" fill="#262E38"/>
<path d="M284.291 153.601C287.151 153.601 289.469 151.283 289.469 148.423C289.469 145.563 287.151 143.245 284.291 143.245C281.431 143.245 279.113 145.563 279.113 148.423C279.113 151.283 281.431 153.601 284.291 153.601Z" fill="#9F88FD" stroke="#BFAFFD" stroke-width="1.2" stroke-linecap="round" stroke-linejoin="round"/>
<path d="M296.786 153.435V144.014H300.796C301.415 144.014 301.936 144.104 302.357 144.283C302.788 144.463 303.111 144.732 303.326 145.091C303.551 145.441 303.663 145.867 303.663 146.369C303.663 146.89 303.524 147.329 303.246 147.688C302.968 148.047 302.577 148.294 302.075 148.428L302.061 148.159C302.483 148.249 302.851 148.41 303.165 148.644C303.479 148.868 303.721 149.151 303.892 149.491C304.071 149.823 304.161 150.205 304.161 150.635C304.161 151.093 304.085 151.497 303.932 151.847C303.788 152.196 303.573 152.488 303.286 152.721C302.999 152.955 302.658 153.134 302.263 153.26C301.868 153.376 301.424 153.435 300.931 153.435H296.786ZM298.495 151.86H300.85C301.182 151.86 301.46 151.811 301.685 151.712C301.918 151.613 302.093 151.47 302.209 151.281C302.335 151.084 302.398 150.851 302.398 150.582C302.398 150.33 302.331 150.115 302.196 149.936C302.07 149.756 301.886 149.622 301.644 149.532C301.402 149.433 301.115 149.384 300.783 149.384H298.495V151.86ZM298.495 147.877H300.635C300.895 147.877 301.119 147.827 301.308 147.729C301.505 147.63 301.658 147.495 301.765 147.325C301.873 147.154 301.927 146.957 301.927 146.733C301.927 146.374 301.806 146.096 301.563 145.898C301.321 145.692 300.967 145.589 300.5 145.589H298.495V147.877ZM308.218 153.569C307.707 153.569 307.262 153.457 306.886 153.233C306.509 152.999 306.222 152.672 306.024 152.25C305.827 151.82 305.728 151.308 305.728 150.716V146.342H307.384V150.366C307.384 150.743 307.442 151.066 307.558 151.335C307.675 151.595 307.846 151.797 308.07 151.941C308.294 152.084 308.563 152.156 308.877 152.156C309.111 152.156 309.321 152.12 309.51 152.048C309.707 151.968 309.878 151.86 310.021 151.725C310.165 151.582 310.277 151.416 310.358 151.228C310.438 151.03 310.479 150.819 310.479 150.595V146.342H312.134V153.435H310.519L310.492 151.954L310.788 151.793C310.681 152.134 310.497 152.439 310.237 152.708C309.985 152.968 309.685 153.179 309.335 153.34C308.985 153.493 308.613 153.569 308.218 153.569ZM314.074 153.435V146.342H315.703L315.729 148.603L315.501 148.092C315.599 147.733 315.77 147.41 316.012 147.123C316.254 146.836 316.532 146.612 316.846 146.45C317.169 146.28 317.506 146.194 317.856 146.194C318.008 146.194 318.152 146.208 318.286 146.235C318.43 146.262 318.547 146.293 318.636 146.329L318.192 148.146C318.094 148.092 317.972 148.047 317.829 148.011C317.685 147.975 317.542 147.957 317.398 147.957C317.174 147.957 316.959 148.002 316.752 148.092C316.555 148.173 316.38 148.289 316.227 148.442C316.075 148.594 315.954 148.774 315.864 148.98C315.783 149.177 315.743 149.402 315.743 149.653V153.435H314.074ZM322.731 156.53C322.201 156.53 321.672 156.449 321.143 156.288C320.622 156.126 320.201 155.915 319.878 155.655L320.47 154.43C320.658 154.565 320.869 154.682 321.102 154.78C321.336 154.879 321.582 154.955 321.843 155.009C322.112 155.063 322.376 155.09 322.637 155.09C323.112 155.09 323.507 155.014 323.821 154.861C324.144 154.718 324.386 154.493 324.548 154.188C324.709 153.892 324.79 153.52 324.79 153.071V151.766L325.032 151.86C324.978 152.138 324.83 152.403 324.588 152.654C324.346 152.905 324.041 153.112 323.673 153.273C323.305 153.426 322.928 153.502 322.542 153.502C321.869 153.502 321.273 153.345 320.752 153.031C320.241 152.717 319.833 152.291 319.528 151.752C319.232 151.205 319.084 150.577 319.084 149.868C319.084 149.16 319.232 148.532 319.528 147.984C319.824 147.428 320.228 146.993 320.739 146.679C321.259 146.356 321.843 146.194 322.489 146.194C322.758 146.194 323.018 146.226 323.269 146.289C323.52 146.351 323.749 146.441 323.955 146.558C324.171 146.674 324.364 146.804 324.534 146.948C324.705 147.092 324.844 147.244 324.951 147.406C325.059 147.567 325.126 147.724 325.153 147.877L324.803 147.984L324.83 146.342H326.459V152.95C326.459 153.524 326.373 154.031 326.203 154.471C326.032 154.91 325.786 155.283 325.463 155.588C325.14 155.902 324.749 156.135 324.292 156.288C323.834 156.449 323.314 156.53 322.731 156.53ZM322.798 152.089C323.202 152.089 323.556 151.995 323.861 151.806C324.175 151.618 324.417 151.358 324.588 151.026C324.758 150.694 324.844 150.312 324.844 149.882C324.844 149.442 324.754 149.056 324.574 148.724C324.404 148.383 324.166 148.119 323.861 147.93C323.556 147.742 323.202 147.648 322.798 147.648C322.394 147.648 322.04 147.746 321.735 147.944C321.43 148.132 321.188 148.397 321.008 148.738C320.838 149.07 320.752 149.451 320.752 149.882C320.752 150.303 320.838 150.685 321.008 151.026C321.188 151.358 321.43 151.618 321.735 151.806C322.04 151.995 322.394 152.089 322.798 152.089ZM331.697 153.569C330.952 153.569 330.293 153.412 329.719 153.098C329.153 152.784 328.709 152.358 328.386 151.82C328.072 151.272 327.915 150.649 327.915 149.949C327.915 149.393 328.005 148.886 328.184 148.428C328.364 147.971 328.611 147.576 328.925 147.244C329.248 146.903 329.629 146.643 330.069 146.464C330.517 146.275 331.006 146.181 331.535 146.181C332.002 146.181 332.437 146.271 332.841 146.45C333.245 146.63 333.594 146.876 333.89 147.19C334.187 147.495 334.411 147.863 334.563 148.294C334.725 148.715 334.801 149.177 334.792 149.68L334.779 150.259H329.032L328.723 149.128H333.393L333.177 149.357V149.061C333.15 148.783 333.061 148.54 332.908 148.334C332.756 148.119 332.558 147.953 332.316 147.836C332.083 147.711 331.822 147.648 331.535 147.648C331.096 147.648 330.723 147.733 330.418 147.904C330.122 148.074 329.898 148.321 329.746 148.644C329.593 148.958 329.517 149.352 329.517 149.828C329.517 150.285 329.611 150.685 329.799 151.026C329.997 151.367 330.27 151.631 330.62 151.82C330.979 151.999 331.396 152.089 331.872 152.089C332.204 152.089 332.509 152.035 332.787 151.927C333.065 151.82 333.366 151.627 333.689 151.349L334.51 152.493C334.267 152.717 333.989 152.91 333.675 153.071C333.37 153.224 333.047 153.345 332.706 153.435C332.365 153.524 332.029 153.569 331.697 153.569ZM336.258 153.435V146.342H337.887L337.913 148.603L337.685 148.092C337.783 147.733 337.954 147.41 338.196 147.123C338.438 146.836 338.716 146.612 339.03 146.45C339.353 146.28 339.69 146.194 340.04 146.194C340.192 146.194 340.336 146.208 340.47 146.235C340.614 146.262 340.731 146.293 340.82 146.329L340.376 148.146C340.277 148.092 340.156 148.047 340.013 148.011C339.869 147.975 339.726 147.957 339.582 147.957C339.358 147.957 339.143 148.002 338.936 148.092C338.739 148.173 338.564 148.289 338.411 148.442C338.259 148.594 338.138 148.774 338.048 148.98C337.967 149.177 337.927 149.402 337.927 149.653V153.435H336.258Z" fill="white"/>
<path d="M706.247 173.17V147.398L679.713 132.074L656.615 145.407L633.524 132.074L610.427 145.414L587.336 132.074L560.796 147.398V173.393L537.081 187.087V217.728L560.796 231.429V257.267L587.336 272.584L610.427 259.251L616.039 262.589L625.311 268.299H640.95L650.038 263.049L656.615 259.251L679.713 272.584L706.247 257.267V231.652L730.356 217.728V187.087L706.247 173.17Z" fill="#262E38"/>
<path d="M355.298 224.076V179.918C355.298 168.752 346.246 159.699 335.079 159.699H290.015C278.848 159.699 269.795 168.752 269.795 179.918V224.076C269.795 235.243 278.848 244.295 290.015 244.295H335.079C346.246 244.295 355.298 235.243 355.298 224.076Z" fill="#262E38"/>
<path d="M563.372 179.787L543.409 191.319V214.371L563.372 225.903L583.341 214.371V191.319L563.372 179.787Z" fill="#556578"/>
<path d="M587.093 140.098L567.13 151.63V174.681L587.093 186.214L607.063 174.681V151.63L587.093 140.098Z" fill="#556578"/>
<path d="M633.282 140.098L613.312 151.63V174.681L633.282 186.214L653.245 174.681V151.63L633.282 140.098Z" fill="#536375" stroke="#6D8198" stroke-width="1.2" stroke-miterlimit="10"/>
<path d="M679.47 140.098L659.5 151.63V174.681L679.47 186.214L699.432 174.681V151.63L679.47 140.098Z" fill="#3E4C5C"/>
<path d="M587.093 219.325L567.13 230.851V253.909L587.093 265.435L607.063 253.909V230.851L587.093 219.325Z" fill="#3E4C5C"/>
<path d="M633.282 219.325L613.312 230.851V253.909L633.282 265.435L653.245 253.909V230.851L633.282 219.325Z" fill="#556578"/>
<path d="M679.47 219.325L659.5 230.851V253.909L679.47 265.435L699.432 253.909V230.851L679.47 219.325Z" fill="#3E4C5C"/>
<path d="M610.112 179.787L590.143 191.319V214.371L610.112 225.903L630.075 214.371V191.319L610.112 179.787Z" fill="#3E4C5C"/>
<path d="M656.845 179.787L636.876 191.319V214.371L656.845 225.903L676.808 214.371V191.319L656.845 179.787Z" fill="#556578"/>
<path d="M703.579 179.787L683.609 191.319V214.371L703.579 225.903L723.548 214.371V191.319L703.579 179.787Z" fill="#536375" stroke="#6D8198" stroke-width="1.2" stroke-miterlimit="10"/>
<path d="M655.935 194.786C655.937 194.788 655.938 194.79 655.938 194.793V213.516C655.938 215.994 653.928 218.004 651.45 218.004H613.351C610.874 218.004 608.863 215.994 608.863 213.516V194.789C608.863 192.312 610.874 190.301 613.351 190.301H651.45C653.926 190.301 655.929 192.309 655.932 194.778C655.932 194.781 655.933 194.783 655.935 194.786Z" fill="#9F88FD" stroke="#BFAFFD" stroke-width="1.2" stroke-linecap="round" stroke-linejoin="round"/>
<path d="M619.689 209.019V199.598H621.439V207.404H625.786V209.019H619.689ZM627.785 209.019V199.598H629.534V207.404H633.881V209.019H627.785ZM635.88 209.019V199.598H637.536L640.967 205.183L639.999 205.17L643.471 199.598H645.045V209.019H643.309V205.479C643.309 204.672 643.327 203.945 643.363 203.299C643.408 202.653 643.48 202.012 643.578 201.375L643.794 201.953L640.873 206.462H639.985L637.159 201.994L637.347 201.375C637.446 201.976 637.513 202.595 637.549 203.232C637.594 203.86 637.617 204.609 637.617 205.479V209.019H635.88Z" fill="#270E8D"/>
<path d="M348.727 224.076V179.919C348.727 172.381 342.617 166.271 335.079 166.271H290.014C282.477 166.271 276.366 172.381 276.366 179.919V224.076C276.366 231.614 282.477 237.725 290.014 237.725H335.079C342.617 237.725 348.727 231.614 348.727 224.076Z" fill="#3E4C5C" stroke="#262E38" stroke-width="1.2" stroke-miterlimit="10"/>
<path d="M335.079 170.213H290.015C284.654 170.213 280.309 174.558 280.309 179.918V224.076C280.309 229.436 284.654 233.782 290.015 233.782H335.079C340.439 233.782 344.785 229.436 344.785 224.076V179.918C344.785 174.558 340.439 170.213 335.079 170.213Z" fill="#536375" stroke="#6D8198" stroke-width="1.2" stroke-miterlimit="10"/>
<path d="M298.21 209.239L304.51 193.085H307.326L313.58 209.239H310.464L307.003 200.054C306.926 199.87 306.818 199.577 306.68 199.177C306.556 198.777 306.418 198.347 306.264 197.885C306.11 197.408 305.972 196.97 305.849 196.57C305.726 196.154 305.633 195.854 305.572 195.67L306.149 195.647C306.056 195.954 305.949 196.3 305.826 196.685C305.703 197.07 305.572 197.47 305.433 197.885C305.295 198.3 305.156 198.7 305.018 199.085C304.895 199.47 304.78 199.816 304.672 200.124L301.21 209.239H298.21ZM301.072 205.547L302.11 202.939H309.472L310.58 205.547H301.072ZM315.639 209.239V206.585H318.293V195.739H315.639V193.085H323.947V195.739H321.293V206.585H323.947V209.239H315.639Z" fill="white"/>
<path d="M556.373 337.546H401.115C395.173 337.546 390.356 342.362 390.356 348.304V467.022C390.356 472.963 395.173 477.78 401.115 477.78H556.373C562.314 477.78 567.131 472.963 567.131 467.022V348.304C567.131 342.362 562.314 337.546 556.373 337.546Z" fill="#262E38"/>
<path d="M563.833 466.961V348.726C563.833 344.606 560.493 341.267 556.373 341.267H401.115C396.995 341.267 393.655 344.606 393.655 348.726V466.961C393.655 471.081 396.995 474.421 401.115 474.421H556.373C560.493 474.421 563.833 471.081 563.833 466.961Z" fill="#3E4C5C" stroke="#262E38" stroke-width="1.2" stroke-miterlimit="10"/>
<path d="M549.237 350.294H409.74C405.28 350.294 401.665 353.909 401.665 358.369V392.694C401.665 397.154 405.28 400.769 409.74 400.769H549.237C553.697 400.769 557.313 397.154 557.313 392.694V358.369C557.313 353.909 553.697 350.294 549.237 350.294Z" fill="#536375" stroke="#6D8198" stroke-width="1.2" stroke-miterlimit="10"/>
<path d="M554.014 358.375V392.694C554.014 395.333 551.87 397.471 549.237 397.471H409.745C407.106 397.471 404.968 395.327 404.968 392.694V358.375C404.968 355.736 407.111 353.598 409.745 353.598H549.237C551.875 353.598 554.014 355.736 554.014 358.375Z" fill="#1E2022"/>
<path d="M432.382 381.377L437.614 367.863H439.737L444.931 381.377H442.71L439.621 373.23C439.583 373.14 439.506 372.921 439.39 372.573C439.287 372.226 439.165 371.84 439.023 371.415C438.881 370.99 438.753 370.604 438.637 370.257C438.521 369.896 438.444 369.664 438.405 369.562L438.849 369.542C438.772 369.761 438.675 370.038 438.56 370.372C438.457 370.707 438.341 371.061 438.212 371.434C438.096 371.807 437.98 372.161 437.865 372.496C437.749 372.818 437.652 373.088 437.575 373.307L434.505 381.377H432.382ZM434.698 378.018L435.471 376.01H441.61L442.498 378.018H434.698ZM446.807 381.377V379.446H448.989V369.793H446.807V367.863H453.255V369.793H451.074V379.446H453.255V381.377H446.807ZM461.94 381.377V367.863H470.454V369.87H464.025V379.369H470.454V381.377H461.94ZM462.886 375.45V373.442H469.392V375.45H462.886ZM473.297 381.377V371.241H475.285V373.326L474.938 373.558C475.066 373.107 475.317 372.696 475.691 372.322C476.064 371.936 476.508 371.627 477.023 371.396C477.538 371.151 478.065 371.029 478.606 371.029C479.378 371.029 480.022 371.183 480.536 371.492C481.051 371.788 481.437 372.245 481.695 372.863C481.952 373.481 482.081 374.259 482.081 375.199V381.377H480.092V375.334C480.092 374.755 480.015 374.279 479.861 373.905C479.706 373.519 479.468 373.243 479.146 373.075C478.825 372.895 478.426 372.818 477.949 372.844C477.563 372.844 477.209 372.908 476.888 373.037C476.566 373.152 476.283 373.32 476.038 373.539C475.806 373.757 475.62 374.015 475.478 374.311C475.35 374.594 475.285 374.903 475.285 375.238V381.377H474.301C474.133 381.377 473.966 381.377 473.799 381.377C473.631 381.377 473.464 381.377 473.297 381.377ZM489.316 385.817C488.595 385.817 487.874 385.702 487.153 385.47C486.445 385.251 485.873 384.961 485.435 384.601L486.169 383.057C486.426 383.25 486.728 383.417 487.076 383.559C487.424 383.713 487.79 383.829 488.176 383.906C488.563 383.996 488.942 384.041 489.316 384.041C490.023 384.041 490.615 383.925 491.092 383.694C491.568 383.462 491.928 383.121 492.173 382.67C492.417 382.22 492.54 381.66 492.54 380.991V379.041L492.752 379.176C492.688 379.575 492.475 379.961 492.115 380.334C491.767 380.695 491.33 380.991 490.802 381.223C490.274 381.454 489.734 381.57 489.18 381.57C488.215 381.57 487.353 381.345 486.593 380.894C485.847 380.431 485.255 379.807 484.817 379.022C484.38 378.224 484.161 377.316 484.161 376.299C484.161 375.283 484.373 374.382 484.798 373.597C485.235 372.799 485.828 372.174 486.574 371.724C487.333 371.26 488.183 371.029 489.122 371.029C489.509 371.029 489.882 371.08 490.242 371.183C490.603 371.273 490.937 371.408 491.246 371.589C491.555 371.756 491.832 371.943 492.076 372.149C492.321 372.355 492.52 372.573 492.675 372.805C492.829 373.037 492.926 373.255 492.964 373.461L492.54 373.616V371.241H494.528V380.759C494.528 381.57 494.406 382.284 494.161 382.902C493.93 383.533 493.589 384.061 493.138 384.485C492.688 384.923 492.141 385.251 491.497 385.47C490.854 385.702 490.126 385.817 489.316 385.817ZM489.393 379.736C490.023 379.736 490.583 379.588 491.072 379.292C491.561 378.996 491.941 378.59 492.211 378.076C492.482 377.561 492.617 376.969 492.617 376.299C492.617 375.63 492.475 375.038 492.192 374.523C491.922 373.996 491.542 373.584 491.053 373.288C490.577 372.992 490.023 372.844 489.393 372.844C488.775 372.844 488.222 372.998 487.732 373.307C487.256 373.603 486.877 374.015 486.593 374.543C486.323 375.057 486.188 375.643 486.188 376.299C486.188 376.956 486.323 377.548 486.593 378.076C486.877 378.59 487.256 378.996 487.732 379.292C488.222 379.588 488.775 379.736 489.393 379.736ZM497.645 381.377V371.241H499.633V381.377H497.645ZM498.61 369.002C498.185 369.002 497.857 368.892 497.625 368.673C497.394 368.455 497.278 368.146 497.278 367.747C497.278 367.373 497.394 367.071 497.625 366.839C497.87 366.608 498.198 366.492 498.61 366.492C499.035 366.492 499.363 366.601 499.594 366.82C499.826 367.039 499.942 367.348 499.942 367.747C499.942 368.12 499.82 368.422 499.575 368.654C499.343 368.886 499.022 369.002 498.61 369.002ZM502.69 381.377V371.241H504.678V373.326L504.331 373.558C504.459 373.107 504.71 372.696 505.084 372.322C505.457 371.936 505.901 371.627 506.416 371.396C506.931 371.151 507.458 371.029 507.999 371.029C508.771 371.029 509.415 371.183 509.929 371.492C510.444 371.788 510.83 372.245 511.088 372.863C511.345 373.481 511.474 374.259 511.474 375.199V381.377H509.485V375.334C509.485 374.755 509.408 374.279 509.254 373.905C509.099 373.519 508.861 373.243 508.539 373.075C508.218 372.895 507.819 372.818 507.342 372.844C506.956 372.844 506.602 372.908 506.281 373.037C505.959 373.152 505.676 373.32 505.431 373.539C505.199 373.757 505.013 374.015 504.871 374.311C504.743 374.594 504.678 374.903 504.678 375.238V381.377H503.694C503.526 381.377 503.359 381.377 503.192 381.377C503.024 381.377 502.857 381.377 502.69 381.377ZM518.902 381.57C517.859 381.57 516.932 381.351 516.121 380.914C515.324 380.463 514.693 379.852 514.229 379.08C513.779 378.307 513.554 377.419 513.554 376.415C513.554 375.617 513.682 374.89 513.94 374.234C514.197 373.577 514.551 373.011 515.002 372.535C515.465 372.046 516.012 371.672 516.643 371.415C517.286 371.145 517.981 371.01 518.728 371.01C519.384 371.01 519.996 371.138 520.562 371.396C521.128 371.64 521.617 371.981 522.029 372.419C522.454 372.856 522.776 373.378 522.995 373.983C523.226 374.575 523.336 375.225 523.323 375.933L523.303 376.782H515.021L514.577 375.199H521.585L521.296 375.527V375.064C521.257 374.639 521.115 374.259 520.871 373.925C520.626 373.59 520.317 373.326 519.944 373.133C519.571 372.94 519.165 372.844 518.728 372.844C518.033 372.844 517.447 372.979 516.971 373.249C516.495 373.506 516.134 373.893 515.89 374.407C515.645 374.909 515.523 375.534 515.523 376.28C515.523 376.988 515.671 377.606 515.967 378.134C516.263 378.648 516.681 379.047 517.222 379.33C517.763 379.614 518.387 379.755 519.095 379.755C519.597 379.755 520.06 379.672 520.485 379.504C520.922 379.337 521.392 379.034 521.894 378.597L522.898 380.006C522.589 380.315 522.209 380.585 521.759 380.817C521.321 381.049 520.852 381.235 520.35 381.377C519.86 381.506 519.378 381.57 518.902 381.57Z" fill="white"/>
<path d="M408.041 417.326H485.376C489.834 417.326 493.451 420.943 493.451 425.402V439.953H512.878V425.402C512.878 420.943 516.496 417.326 520.954 417.326H549.237C553.695 417.326 557.312 420.943 557.312 425.402V459.721C557.312 464.179 553.695 467.796 549.237 467.796H520.954C516.496 467.796 512.878 464.179 512.878 459.721V445.17H493.451V459.721C493.451 464.179 489.834 467.796 485.376 467.796H408.041C403.583 467.796 399.966 464.179 399.966 459.721V425.402C399.966 420.943 403.583 417.326 408.041 417.326Z" fill="#536375" stroke="#6D8198" stroke-width="1.2" stroke-miterlimit="10"/>
<path d="M544.723 424.896H548.445C549.921 424.896 551.117 426.093 551.117 427.568V431.29C551.117 432.765 549.921 433.961 548.445 433.961H544.723C543.248 433.961 542.052 432.765 542.052 431.29V427.568C542.052 426.093 543.248 424.896 544.723 424.896Z" fill="#9F88FD" stroke="#BFAFFD" stroke-width="1.2" stroke-linecap="round" stroke-linejoin="round"/>
<path d="M479.329 424.896H483.051C484.527 424.896 485.723 426.093 485.723 427.568V431.29C485.723 432.765 484.527 433.961 483.051 433.961H479.329C477.854 433.961 476.658 432.765 476.658 431.29V427.568C476.658 426.093 477.854 424.896 479.329 424.896Z" fill="#3E4C5C" stroke="#262E38" stroke-width="1.2" stroke-linecap="round" stroke-linejoin="round"/>
<path d="M410.042 424.896H413.763C415.239 424.896 416.435 426.093 416.435 427.568V431.29C416.435 432.765 415.239 433.961 413.763 433.961H410.042C408.566 433.961 407.37 432.765 407.37 431.29V427.568C407.37 426.093 408.566 424.896 410.042 424.896Z" fill="#3E4C5C" stroke="#262E38" stroke-width="1.2" stroke-linecap="round" stroke-linejoin="round"/>
<path d="M410.042 451.442H413.763C415.239 451.442 416.435 452.639 416.435 454.114V457.836C416.435 459.311 415.239 460.507 413.763 460.507H410.042C408.566 460.507 407.37 459.311 407.37 457.836V454.114C407.37 452.639 408.566 451.442 410.042 451.442Z" fill="#9F88FD" stroke="#BFAFFD" stroke-width="1.2" stroke-linecap="round" stroke-linejoin="round"/>
<path d="M479.163 451.442H482.885C484.361 451.442 485.557 452.639 485.557 454.114V457.836C485.557 459.311 484.361 460.507 482.885 460.507H479.163C477.688 460.507 476.492 459.311 476.492 457.836V454.114C476.492 452.639 477.688 451.442 479.163 451.442Z" fill="#798BA0" stroke="#8A9FB8" stroke-width="1.2" stroke-miterlimit="10"/>
<path d="M521.982 424.896H525.703C527.179 424.896 528.375 426.093 528.375 427.568V431.29C528.375 432.765 527.179 433.961 525.703 433.961H521.982C520.506 433.961 519.31 432.765 519.31 431.29V427.568C519.31 426.093 520.506 424.896 521.982 424.896Z" fill="#798BA0" stroke="#8A9FB8" stroke-width="1.2" stroke-miterlimit="10"/>
<path d="M544.723 451.767H548.445C549.921 451.767 551.117 452.963 551.117 454.438V458.16C551.117 459.635 549.921 460.832 548.445 460.832H544.723C543.248 460.832 542.052 459.635 542.052 458.16V454.438C542.052 452.963 543.248 451.767 544.723 451.767Z" fill="#3E4C5C" stroke="#262E38" stroke-width="1.2" stroke-linecap="round" stroke-linejoin="round"/>
<path d="M521.982 451.767H525.703C527.179 451.767 528.375 452.963 528.375 454.438V458.16C528.375 459.635 527.179 460.832 525.703 460.832H521.982C520.506 460.832 519.31 459.635 519.31 458.16V454.438C519.31 452.963 520.506 451.767 521.982 451.767Z" fill="#3E4C5C" stroke="#262E38" stroke-width="1.2" stroke-linecap="round" stroke-linejoin="round"/>
<path d="M577.239 410.471C577.239 414.253 574.156 417.326 570.362 417.326L567.13 417.326L567.13 403.61L570.362 403.61C574.156 403.61 577.239 406.683 577.239 410.465L577.239 410.471Z" fill="white"/>
<path d="M570.269 407.777L572.889 410.389L570.269 413" fill="white"/>
<path d="M570.269 407.777L572.889 410.389L570.269 413" stroke="#101418" stroke-width="1.2" stroke-miterlimit="10"/>
<path d="M575.796 410.738H623.387C628.91 410.738 633.387 406.261 633.387 400.738V275.947" stroke="white" stroke-width="2" stroke-linecap="round" stroke-linejoin="round"/>
<path d="M633.275 278.53C629.493 278.53 626.42 275.457 626.42 271.675V268.454H640.136V271.675C640.136 275.457 637.063 278.53 633.281 278.53H633.275Z" fill="white"/>
<path d="M635.969 271.582L633.358 274.193L630.746 271.582" fill="white"/>
<path d="M635.969 271.582L633.358 274.193L630.746 271.582" stroke="#101418" stroke-width="1.2" stroke-miterlimit="10"/>
<path d="M365.856 202.848C365.856 206.63 362.783 209.703 359.001 209.703L355.78 209.703L355.78 195.987L359.001 195.987C362.783 195.987 365.856 199.06 365.856 202.842L365.856 202.848Z" fill="white"/>
<path d="M358.908 200.154L361.519 202.765L358.908 205.377" fill="white"/>
<path d="M358.908 200.154L361.519 202.765L358.908 205.377" stroke="#101418" stroke-width="1.2" stroke-miterlimit="10"/>
<path d="M527.004 202.843C527.004 199.06 530.077 195.988 533.859 195.988L537.081 195.988L537.081 209.703L533.859 209.703C530.077 209.703 527.004 206.63 527.004 202.848L527.004 202.843Z" fill="white"/>
<path d="M533.952 205.536L531.341 202.925L533.952 200.314" fill="white"/>
<path d="M533.952 205.536L531.341 202.925L533.952 200.314" stroke="#101418" stroke-width="1.2" stroke-miterlimit="10"/>
<path d="M529.002 203.124H365.105" stroke="white" stroke-width="2" stroke-linecap="round" stroke-linejoin="round"/>
<path d="M261.772 387.395H245.644C244.341 387.395 243.286 388.45 243.286 389.753C243.286 391.055 244.341 392.111 245.644 392.111H261.772C263.075 392.111 264.131 391.055 264.131 389.753C264.131 388.45 263.075 387.395 261.772 387.395Z" fill="#5F38FB"/>
<path d="M459.939 134.719H443.811C442.508 134.719 441.453 135.775 441.453 137.077C441.453 138.379 442.508 139.435 443.811 139.435H459.939C461.242 139.435 462.298 138.379 462.298 137.077C462.298 135.775 461.242 134.719 459.939 134.719Z" fill="#5F38FB"/>
<path d="M727.998 421.365L727.998 437.493C727.998 438.796 729.054 439.852 730.356 439.852C731.659 439.852 732.714 438.796 732.714 437.493L732.714 421.365C732.714 420.062 731.659 419.007 730.356 419.007C729.054 419.007 727.998 420.062 727.998 421.365Z" fill="#5F38FB"/>
<path d="M276.402 370.644H260.273C258.971 370.644 257.915 371.699 257.915 373.002C257.915 374.304 258.971 375.36 260.273 375.36H276.402C277.704 375.36 278.76 374.304 278.76 373.002C278.76 371.699 277.704 370.644 276.402 370.644Z" fill="#2D3642"/>
<path d="M696.786 319.122H692.345C690.883 319.122 689.698 320.307 689.698 321.769V326.21C689.698 327.672 690.883 328.857 692.345 328.857H696.786C698.248 328.857 699.433 327.672 699.433 326.21V321.769C699.433 320.307 698.248 319.122 696.786 319.122Z" fill="#2D3642"/>
<path d="M524.358 113.523H519.916C518.455 113.523 517.27 114.708 517.27 116.17V120.612C517.27 122.073 518.455 123.258 519.916 123.258H524.358C525.819 123.258 527.004 122.073 527.004 120.612V116.17C527.004 114.708 525.819 113.523 524.358 113.523Z" fill="#2D3642"/>
<path d="M501.221 537.139H496.78C495.318 537.139 494.133 538.324 494.133 539.786V544.227C494.133 545.689 495.318 546.874 496.78 546.874H501.221C502.683 546.874 503.868 545.689 503.868 544.227V539.786C503.868 538.324 502.683 537.139 501.221 537.139Z" fill="#2D3642"/>
</svg>
