<svg width="976" height="659" viewBox="0 0 976 659" fill="none" xmlns="http://www.w3.org/2000/svg">
<path d="M0 8.17548C0 3.77032 3.57108 0.199219 7.97624 0.199219H968.024C972.429 0.199219 976 3.7703 976 8.17546V651.023C976 655.428 972.429 658.999 968.024 658.999H7.97626C3.5711 658.999 0 655.428 0 651.023V8.17548Z" fill="white" fill-opacity="0.05"/>
<path d="M560.265 112.315H405.007C399.065 112.315 394.249 117.132 394.249 123.073V241.791C394.249 247.733 399.065 252.549 405.007 252.549H560.265C566.206 252.549 571.023 247.733 571.023 241.791V123.073C571.023 117.132 566.206 112.315 560.265 112.315Z" fill="#262E38"/>
<path d="M567.725 241.731V123.496C567.725 119.376 564.385 116.037 560.265 116.037L405.007 116.037C400.887 116.037 397.547 119.376 397.547 123.496V241.731C397.547 245.851 400.887 249.191 405.007 249.191H560.265C564.385 249.191 567.725 245.851 567.725 241.731Z" fill="#3E4C5C" stroke="#262E38" stroke-width="1.2" stroke-miterlimit="10"/>
<path d="M553.13 125.063H413.632C409.172 125.063 405.557 128.678 405.557 133.138V167.463C405.557 171.923 409.172 175.538 413.632 175.538H553.13C557.589 175.538 561.205 171.923 561.205 167.463V133.138C561.205 128.678 557.589 125.063 553.13 125.063Z" fill="#536375" stroke="#6D8198" stroke-width="1.2" stroke-miterlimit="10"/>
<path d="M557.906 133.144V167.463C557.906 170.102 555.762 172.241 553.129 172.241H413.637C410.999 172.241 408.86 170.097 408.86 167.463V133.144C408.86 130.506 411.004 128.367 413.637 128.367H553.129C555.768 128.367 557.906 130.506 557.906 133.144Z" fill="#1E2022"/>
<path d="M436.274 156.146L441.506 142.632H443.629L448.823 156.146H446.603L443.514 147.999C443.475 147.909 443.398 147.69 443.282 147.343C443.179 146.995 443.057 146.609 442.915 146.184C442.773 145.76 442.645 145.374 442.529 145.026C442.413 144.666 442.336 144.434 442.297 144.331L442.741 144.312C442.664 144.531 442.568 144.807 442.452 145.142C442.349 145.477 442.233 145.831 442.104 146.204C441.988 146.577 441.872 146.931 441.757 147.266C441.641 147.587 441.544 147.858 441.467 148.076L438.397 156.146H436.274ZM438.59 152.787L439.363 150.779H445.502L446.39 152.787H438.59ZM450.699 156.146V154.216H452.881V144.563H450.699V142.632H457.147V144.563H454.966V154.216H457.147V156.146H450.699ZM465.832 156.146V142.632H474.346V144.64H467.917V154.139H474.346V156.146H465.832ZM466.778 150.219V148.212H473.284V150.219H466.778ZM477.189 156.146V146.011H479.177V148.096L478.83 148.327C478.958 147.877 479.209 147.465 479.583 147.092C479.956 146.706 480.4 146.397 480.915 146.165C481.43 145.921 481.957 145.798 482.498 145.798C483.27 145.798 483.914 145.953 484.429 146.262C484.943 146.558 485.33 147.015 485.587 147.632C485.844 148.25 485.973 149.029 485.973 149.968V156.146H483.985V150.104C483.985 149.524 483.907 149.048 483.753 148.675C483.598 148.289 483.36 148.012 483.039 147.845C482.717 147.665 482.318 147.587 481.842 147.613C481.455 147.613 481.101 147.677 480.78 147.806C480.458 147.922 480.175 148.089 479.93 148.308C479.699 148.527 479.512 148.784 479.37 149.08C479.242 149.364 479.177 149.672 479.177 150.007V156.146H478.193C478.025 156.146 477.858 156.146 477.691 156.146C477.523 156.146 477.356 156.146 477.189 156.146ZM493.208 160.587C492.487 160.587 491.766 160.471 491.045 160.239C490.337 160.021 489.765 159.731 489.327 159.371L490.061 157.826C490.318 158.019 490.621 158.187 490.968 158.328C491.316 158.483 491.682 158.598 492.069 158.676C492.455 158.766 492.834 158.811 493.208 158.811C493.916 158.811 494.508 158.695 494.984 158.463C495.46 158.232 495.82 157.89 496.065 157.44C496.309 156.99 496.432 156.43 496.432 155.76V153.81L496.644 153.946C496.58 154.345 496.367 154.731 496.007 155.104C495.66 155.464 495.222 155.76 494.694 155.992C494.167 156.224 493.626 156.34 493.072 156.34C492.107 156.34 491.245 156.114 490.485 155.664C489.739 155.2 489.147 154.576 488.709 153.791C488.272 152.993 488.053 152.086 488.053 151.069C488.053 150.052 488.265 149.151 488.69 148.366C489.128 147.568 489.72 146.944 490.466 146.493C491.226 146.03 492.075 145.798 493.015 145.798C493.401 145.798 493.774 145.85 494.134 145.953C494.495 146.043 494.829 146.178 495.138 146.358C495.447 146.526 495.724 146.712 495.968 146.918C496.213 147.124 496.412 147.343 496.567 147.575C496.721 147.806 496.818 148.025 496.857 148.231L496.432 148.385V146.011H498.42V155.529C498.42 156.34 498.298 157.054 498.053 157.672C497.822 158.302 497.481 158.83 497.03 159.255C496.58 159.692 496.033 160.021 495.389 160.239C494.746 160.471 494.018 160.587 493.208 160.587ZM493.285 154.505C493.916 154.505 494.475 154.357 494.964 154.061C495.454 153.765 495.833 153.36 496.104 152.845C496.374 152.33 496.509 151.738 496.509 151.069C496.509 150.4 496.367 149.808 496.084 149.293C495.814 148.765 495.434 148.353 494.945 148.057C494.469 147.761 493.916 147.613 493.285 147.613C492.667 147.613 492.114 147.768 491.625 148.076C491.148 148.373 490.769 148.784 490.485 149.312C490.215 149.827 490.08 150.413 490.08 151.069C490.08 151.725 490.215 152.317 490.485 152.845C490.769 153.36 491.148 153.765 491.625 154.061C492.114 154.357 492.667 154.505 493.285 154.505ZM501.537 156.146V146.011H503.525V156.146H501.537ZM502.502 143.771C502.077 143.771 501.749 143.662 501.517 143.443C501.286 143.224 501.17 142.915 501.17 142.516C501.17 142.143 501.286 141.841 501.517 141.609C501.762 141.377 502.09 141.261 502.502 141.261C502.927 141.261 503.255 141.371 503.487 141.59C503.718 141.808 503.834 142.117 503.834 142.516C503.834 142.89 503.712 143.192 503.467 143.424C503.236 143.655 502.914 143.771 502.502 143.771ZM506.582 156.146V146.011H508.57V148.096L508.223 148.327C508.351 147.877 508.602 147.465 508.976 147.092C509.349 146.706 509.793 146.397 510.308 146.165C510.823 145.921 511.35 145.798 511.891 145.798C512.663 145.798 513.307 145.953 513.822 146.262C514.336 146.558 514.723 147.015 514.98 147.632C515.237 148.25 515.366 149.029 515.366 149.968V156.146H513.378V150.104C513.378 149.524 513.3 149.048 513.146 148.675C512.991 148.289 512.753 148.012 512.432 147.845C512.11 147.665 511.711 147.587 511.235 147.613C510.848 147.613 510.494 147.677 510.173 147.806C509.851 147.922 509.568 148.089 509.323 148.308C509.092 148.527 508.905 148.784 508.763 149.08C508.635 149.364 508.57 149.672 508.57 150.007V156.146H507.586C507.418 156.146 507.251 156.146 507.084 156.146C506.916 156.146 506.749 156.146 506.582 156.146ZM522.794 156.34C521.751 156.34 520.824 156.121 520.014 155.683C519.216 155.233 518.585 154.621 518.122 153.849C517.671 153.077 517.446 152.189 517.446 151.185C517.446 150.387 517.575 149.66 517.832 149.003C518.089 148.347 518.443 147.78 518.894 147.304C519.357 146.815 519.904 146.442 520.535 146.184C521.178 145.914 521.873 145.779 522.62 145.779C523.276 145.779 523.888 145.908 524.454 146.165C525.02 146.41 525.509 146.751 525.921 147.188C526.346 147.626 526.668 148.147 526.887 148.752C527.118 149.344 527.228 149.994 527.215 150.702L527.196 151.552H518.913L518.469 149.968H525.477L525.188 150.297V149.833C525.149 149.409 525.007 149.029 524.763 148.694C524.518 148.36 524.209 148.096 523.836 147.903C523.463 147.71 523.058 147.613 522.62 147.613C521.925 147.613 521.339 147.748 520.863 148.019C520.387 148.276 520.026 148.662 519.782 149.177C519.537 149.679 519.415 150.303 519.415 151.05C519.415 151.758 519.563 152.375 519.859 152.903C520.155 153.418 520.573 153.817 521.114 154.1C521.655 154.383 522.279 154.525 522.987 154.525C523.489 154.525 523.952 154.441 524.377 154.274C524.814 154.106 525.284 153.804 525.786 153.366L526.79 154.776C526.481 155.085 526.101 155.355 525.651 155.587C525.213 155.818 524.744 156.005 524.242 156.146C523.753 156.275 523.27 156.34 522.794 156.34Z" fill="white"/>
<path d="M411.933 192.096H489.268C493.726 192.096 497.343 195.713 497.343 200.172V214.723H516.771V200.172C516.771 195.713 520.388 192.096 524.846 192.096H553.129C557.587 192.096 561.205 195.713 561.205 200.172V234.491C561.205 238.949 557.587 242.566 553.129 242.566H524.846C520.388 242.566 516.771 238.949 516.771 234.491V219.94H497.343V234.491C497.343 238.949 493.726 242.566 489.268 242.566H411.933C407.475 242.566 403.858 238.949 403.858 234.491V200.172C403.858 195.713 407.475 192.096 411.933 192.096Z" fill="#536375" stroke="#6D8198" stroke-width="1.2" stroke-miterlimit="10"/>
<path d="M548.616 199.666H552.337C553.813 199.666 555.009 200.862 555.009 202.337V206.059C555.009 207.534 553.813 208.73 552.337 208.73H548.616C547.14 208.73 545.944 207.534 545.944 206.059V202.337C545.944 200.862 547.14 199.666 548.616 199.666Z" fill="#9F88FD" stroke="#BFAFFD" stroke-width="1.2" stroke-linecap="round" stroke-linejoin="round"/>
<path d="M483.221 199.666H486.943C488.418 199.666 489.614 200.862 489.614 202.337V206.059C489.614 207.534 488.418 208.73 486.943 208.73H483.221C481.745 208.73 480.549 207.534 480.549 206.059V202.337C480.549 200.862 481.745 199.666 483.221 199.666Z" fill="#3E4C5C" stroke="#262E38" stroke-width="1.2" stroke-linecap="round" stroke-linejoin="round"/>
<path d="M413.934 199.666H417.656C419.131 199.666 420.327 200.862 420.327 202.337V206.059C420.327 207.534 419.131 208.73 417.656 208.73H413.934C412.458 208.73 411.262 207.534 411.262 206.059V202.337C411.262 200.862 412.458 199.666 413.934 199.666Z" fill="#3E4C5C" stroke="#262E38" stroke-width="1.2" stroke-linecap="round" stroke-linejoin="round"/>
<path d="M413.934 226.212H417.656C419.131 226.212 420.327 227.408 420.327 228.884V232.605C420.327 234.081 419.131 235.277 417.656 235.277H413.934C412.458 235.277 411.262 234.081 411.262 232.605V228.884C411.262 227.408 412.458 226.212 413.934 226.212Z" fill="#9F88FD" stroke="#BFAFFD" stroke-width="1.2" stroke-linecap="round" stroke-linejoin="round"/>
<path d="M483.055 226.212H486.777C488.253 226.212 489.449 227.408 489.449 228.884V232.605C489.449 234.081 488.253 235.277 486.777 235.277H483.055C481.58 235.277 480.384 234.081 480.384 232.605V228.884C480.384 227.408 481.58 226.212 483.055 226.212Z" fill="#798BA0" stroke="#8A9FB8" stroke-width="1.2" stroke-miterlimit="10"/>
<path d="M525.874 199.666H529.595C531.071 199.666 532.267 200.862 532.267 202.337V206.059C532.267 207.534 531.071 208.73 529.595 208.73H525.874C524.398 208.73 523.202 207.534 523.202 206.059V202.337C523.202 200.862 524.398 199.666 525.874 199.666Z" fill="#798BA0" stroke="#8A9FB8" stroke-width="1.2" stroke-miterlimit="10"/>
<path d="M548.616 226.536H552.337C553.813 226.536 555.009 227.732 555.009 229.208V232.929C555.009 234.405 553.813 235.601 552.337 235.601H548.616C547.14 235.601 545.944 234.405 545.944 232.929V229.208C545.944 227.732 547.14 226.536 548.616 226.536Z" fill="#3E4C5C" stroke="#262E38" stroke-width="1.2" stroke-linecap="round" stroke-linejoin="round"/>
<path d="M525.874 226.536H529.595C531.071 226.536 532.267 227.732 532.267 229.208V232.929C532.267 234.405 531.071 235.601 529.595 235.601H525.874C524.398 235.601 523.202 234.405 523.202 232.929V229.208C523.202 227.732 524.398 226.536 525.874 226.536Z" fill="#3E4C5C" stroke="#262E38" stroke-width="1.2" stroke-linecap="round" stroke-linejoin="round"/>
<rect x="367.803" y="310.427" width="229.672" height="194.463" rx="8" fill="#262E38"/>
<path d="M587.546 314.725H377.726C374.609 314.725 372.083 317.252 372.083 320.368V352.751C372.083 355.867 374.609 358.394 377.726 358.394H587.546C590.663 358.394 593.189 355.867 593.189 352.751V320.368C593.189 317.252 590.663 314.725 587.546 314.725Z" fill="#3E4C5C" stroke="#262E38" stroke-width="1.2" stroke-miterlimit="10"/>
<path d="M588.428 323.205V349.981C588.428 351.877 586.892 353.412 584.996 353.412H380.783C378.887 353.412 377.351 351.877 377.351 349.981V323.205C377.351 321.309 378.887 319.773 380.783 319.773H584.996C586.892 319.773 588.428 321.309 588.428 323.205Z" fill="#536375" stroke="#6D8198" stroke-width="1.2" stroke-miterlimit="10"/>
<path d="M422.594 341.56V331.748H426.771C427.332 331.748 427.846 331.888 428.313 332.168C428.79 332.439 429.168 332.813 429.448 333.289C429.729 333.757 429.869 334.285 429.869 334.873C429.869 335.406 429.729 335.901 429.448 336.359C429.168 336.817 428.794 337.186 428.327 337.467C427.86 337.738 427.341 337.873 426.771 337.873H424.108V341.56H422.594ZM428.425 341.56L425.93 337.13L427.486 336.78L430.261 341.574L428.425 341.56ZM424.108 336.415H426.911C427.182 336.415 427.425 336.35 427.64 336.219C427.855 336.079 428.023 335.892 428.145 335.658C428.266 335.415 428.327 335.149 428.327 334.859C428.327 334.532 428.248 334.247 428.089 334.004C427.939 333.752 427.724 333.556 427.444 333.416C427.173 333.275 426.864 333.205 426.519 333.205H424.108V336.415ZM435.136 341.7C434.379 341.7 433.706 341.541 433.118 341.223C432.538 340.896 432.08 340.452 431.744 339.892C431.417 339.331 431.253 338.686 431.253 337.957C431.253 337.378 431.347 336.85 431.534 336.373C431.721 335.897 431.978 335.485 432.305 335.14C432.641 334.785 433.038 334.514 433.496 334.327C433.963 334.13 434.468 334.032 435.01 334.032C435.487 334.032 435.931 334.126 436.342 334.313C436.753 334.49 437.108 334.738 437.407 335.056C437.715 335.373 437.949 335.752 438.108 336.191C438.276 336.621 438.356 337.093 438.346 337.607L438.332 338.223H432.319L431.996 337.074H437.085L436.874 337.312V336.976C436.846 336.668 436.744 336.392 436.566 336.149C436.388 335.906 436.164 335.714 435.893 335.574C435.622 335.434 435.328 335.364 435.01 335.364C434.505 335.364 434.08 335.462 433.735 335.658C433.389 335.845 433.127 336.126 432.95 336.499C432.772 336.864 432.683 337.317 432.683 337.859C432.683 338.373 432.791 338.822 433.006 339.205C433.221 339.578 433.524 339.868 433.917 340.074C434.309 340.279 434.762 340.382 435.276 340.382C435.641 340.382 435.977 340.321 436.286 340.2C436.603 340.078 436.944 339.859 437.309 339.541L438.038 340.564C437.814 340.789 437.538 340.985 437.211 341.153C436.893 341.321 436.552 341.457 436.188 341.56C435.832 341.653 435.482 341.7 435.136 341.7ZM442.368 341.7C441.751 341.7 441.195 341.592 440.7 341.377C440.205 341.162 439.794 340.845 439.467 340.424L440.448 339.583C440.728 339.91 441.032 340.149 441.359 340.298C441.695 340.438 442.074 340.508 442.494 340.508C442.663 340.508 442.817 340.49 442.957 340.452C443.106 340.405 443.233 340.34 443.335 340.256C443.448 340.172 443.532 340.074 443.588 339.962C443.644 339.84 443.672 339.709 443.672 339.569C443.672 339.326 443.583 339.13 443.406 338.98C443.312 338.915 443.163 338.845 442.957 338.77C442.761 338.686 442.504 338.602 442.186 338.518C441.644 338.378 441.2 338.219 440.854 338.041C440.509 337.864 440.242 337.663 440.055 337.439C439.915 337.261 439.812 337.069 439.747 336.864C439.682 336.649 439.649 336.415 439.649 336.163C439.649 335.855 439.714 335.574 439.845 335.322C439.985 335.06 440.172 334.836 440.406 334.649C440.649 334.453 440.929 334.303 441.247 334.201C441.574 334.098 441.92 334.046 442.284 334.046C442.63 334.046 442.971 334.093 443.307 334.187C443.653 334.28 443.971 334.415 444.261 334.593C444.55 334.771 444.793 334.981 444.989 335.224L444.162 336.135C443.985 335.957 443.789 335.803 443.574 335.672C443.368 335.532 443.158 335.425 442.943 335.35C442.728 335.275 442.532 335.238 442.354 335.238C442.158 335.238 441.98 335.256 441.822 335.294C441.663 335.331 441.527 335.387 441.415 335.462C441.312 335.537 441.233 335.63 441.177 335.742C441.121 335.855 441.093 335.981 441.093 336.121C441.102 336.242 441.13 336.359 441.177 336.471C441.233 336.574 441.308 336.663 441.401 336.738C441.504 336.812 441.658 336.892 441.864 336.976C442.069 337.06 442.331 337.139 442.649 337.214C443.116 337.336 443.499 337.471 443.798 337.621C444.106 337.761 444.349 337.924 444.527 338.111C444.714 338.289 444.845 338.494 444.919 338.728C444.994 338.962 445.032 339.223 445.032 339.513C445.032 339.934 444.91 340.312 444.667 340.648C444.433 340.976 444.116 341.233 443.714 341.419C443.312 341.606 442.864 341.7 442.368 341.7ZM447.534 341.56V332.322H448.978V341.56H447.534ZM446.006 335.602V334.201H450.688V335.602H446.006ZM454.765 341.7C454.158 341.7 453.602 341.532 453.097 341.195C452.602 340.859 452.205 340.401 451.906 339.821C451.607 339.242 451.457 338.588 451.457 337.859C451.457 337.121 451.607 336.467 451.906 335.897C452.214 335.317 452.625 334.864 453.139 334.537C453.663 334.21 454.247 334.046 454.892 334.046C455.275 334.046 455.625 334.102 455.943 334.215C456.261 334.327 456.536 334.486 456.77 334.691C457.013 334.887 457.209 335.116 457.359 335.378C457.517 335.64 457.616 335.92 457.653 336.219L457.331 336.107V334.201H458.788V341.56H457.331V339.807L457.667 339.709C457.611 339.962 457.494 340.209 457.317 340.452C457.148 340.686 456.929 340.896 456.658 341.083C456.396 341.27 456.102 341.419 455.775 341.532C455.457 341.644 455.12 341.7 454.765 341.7ZM455.144 340.368C455.583 340.368 455.971 340.261 456.307 340.046C456.644 339.831 456.905 339.536 457.092 339.163C457.288 338.779 457.387 338.345 457.387 337.859C457.387 337.382 457.288 336.957 457.092 336.583C456.905 336.21 456.644 335.915 456.307 335.7C455.971 335.485 455.583 335.378 455.144 335.378C454.714 335.378 454.331 335.485 453.994 335.7C453.667 335.915 453.406 336.21 453.209 336.583C453.023 336.957 452.929 337.382 452.929 337.859C452.929 338.345 453.023 338.779 453.209 339.163C453.406 339.536 453.667 339.831 453.994 340.046C454.331 340.261 454.714 340.368 455.144 340.368ZM463.246 341.7C462.723 341.7 462.265 341.578 461.873 341.335C461.49 341.092 461.191 340.751 460.976 340.312C460.77 339.873 460.667 339.35 460.667 338.742V334.201H462.111V338.35C462.111 338.779 462.176 339.153 462.307 339.471C462.447 339.779 462.644 340.018 462.896 340.186C463.158 340.354 463.471 340.438 463.835 340.438C464.106 340.438 464.354 340.396 464.578 340.312C464.802 340.219 464.994 340.092 465.153 339.934C465.321 339.775 465.452 339.583 465.545 339.359C465.639 339.135 465.685 338.892 465.685 338.63V334.201H467.129V341.56H465.685V340.018L465.938 339.849C465.826 340.195 465.634 340.508 465.363 340.789C465.101 341.069 464.788 341.293 464.424 341.461C464.059 341.62 463.667 341.7 463.246 341.7ZM469.154 341.56V334.201H470.612V336.513L470.472 335.953C470.575 335.598 470.748 335.275 470.991 334.985C471.243 334.696 471.528 334.467 471.846 334.299C472.173 334.13 472.509 334.046 472.855 334.046C473.014 334.046 473.163 334.06 473.303 334.088C473.453 334.116 473.57 334.149 473.654 334.187L473.275 335.756C473.163 335.71 473.037 335.672 472.897 335.644C472.766 335.607 472.635 335.588 472.504 335.588C472.252 335.588 472.009 335.64 471.775 335.742C471.551 335.836 471.35 335.971 471.173 336.149C471.005 336.317 470.869 336.518 470.766 336.752C470.663 336.976 470.612 337.224 470.612 337.495V341.56H469.154ZM477.324 341.7C476.717 341.7 476.161 341.532 475.656 341.195C475.161 340.859 474.764 340.401 474.465 339.821C474.166 339.242 474.016 338.588 474.016 337.859C474.016 337.121 474.166 336.467 474.465 335.897C474.773 335.317 475.184 334.864 475.698 334.537C476.222 334.21 476.806 334.046 477.45 334.046C477.834 334.046 478.184 334.102 478.502 334.215C478.82 334.327 479.095 334.486 479.329 334.691C479.572 334.887 479.768 335.116 479.918 335.378C480.076 335.64 480.175 335.92 480.212 336.219L479.889 336.107V334.201H481.347V341.56H479.889V339.807L480.226 339.709C480.17 339.962 480.053 340.209 479.875 340.452C479.707 340.686 479.488 340.896 479.217 341.083C478.955 341.27 478.661 341.419 478.334 341.532C478.016 341.644 477.679 341.7 477.324 341.7ZM477.703 340.368C478.142 340.368 478.53 340.261 478.866 340.046C479.203 339.831 479.464 339.536 479.651 339.163C479.847 338.779 479.946 338.345 479.946 337.859C479.946 337.382 479.847 336.957 479.651 336.583C479.464 336.21 479.203 335.915 478.866 335.7C478.53 335.485 478.142 335.378 477.703 335.378C477.273 335.378 476.89 335.485 476.553 335.7C476.226 335.915 475.965 336.21 475.768 336.583C475.582 336.957 475.488 337.382 475.488 337.859C475.488 338.345 475.582 338.779 475.768 339.163C475.965 339.536 476.226 339.831 476.553 340.046C476.89 340.261 477.273 340.368 477.703 340.368ZM483.363 341.56V334.201H484.807V335.714L484.555 335.883C484.648 335.556 484.83 335.256 485.101 334.985C485.372 334.705 485.695 334.481 486.068 334.313C486.442 334.135 486.825 334.046 487.218 334.046C487.779 334.046 488.246 334.158 488.62 334.383C488.993 334.598 489.274 334.929 489.461 335.378C489.648 335.827 489.741 336.392 489.741 337.074V341.56H488.297V337.172C488.297 336.752 488.241 336.406 488.129 336.135C488.017 335.855 487.844 335.654 487.61 335.532C487.377 335.401 487.087 335.345 486.741 335.364C486.461 335.364 486.204 335.411 485.97 335.504C485.737 335.588 485.531 335.71 485.354 335.869C485.185 336.027 485.05 336.214 484.947 336.429C484.854 336.635 484.807 336.859 484.807 337.102V341.56H484.092C483.971 341.56 483.849 341.56 483.728 341.56C483.606 341.56 483.485 341.56 483.363 341.56ZM492.611 341.56V332.322H494.054V341.56H492.611ZM491.083 335.602V334.201H495.765V335.602H491.083ZM500.629 338.266V337.004H507.652V338.266H500.629ZM503.391 340.971V334.201H504.863V340.971H503.391ZM513.218 344.643V334.201H514.676V335.883L514.452 335.756C514.508 335.476 514.667 335.21 514.928 334.957C515.19 334.696 515.508 334.486 515.881 334.327C516.265 334.158 516.657 334.074 517.059 334.074C517.722 334.074 518.311 334.238 518.825 334.565C519.339 334.892 519.746 335.341 520.045 335.911C520.344 336.481 520.493 337.135 520.493 337.873C520.493 338.602 520.344 339.256 520.045 339.835C519.755 340.405 519.353 340.859 518.839 341.195C518.325 341.522 517.746 341.686 517.101 341.686C516.671 341.686 516.255 341.602 515.853 341.433C515.452 341.256 515.11 341.032 514.83 340.761C514.55 340.49 514.377 340.209 514.311 339.92L514.676 339.723V344.643H513.218ZM516.863 340.354C517.292 340.354 517.676 340.247 518.012 340.032C518.348 339.817 518.615 339.522 518.811 339.149C519.007 338.775 519.105 338.35 519.105 337.873C519.105 337.396 519.007 336.976 518.811 336.611C518.624 336.238 518.362 335.943 518.026 335.728C517.69 335.513 517.302 335.406 516.863 335.406C516.423 335.406 516.036 335.513 515.699 335.728C515.363 335.934 515.096 336.224 514.9 336.597C514.704 336.971 514.606 337.396 514.606 337.873C514.606 338.35 514.704 338.775 514.9 339.149C515.096 339.522 515.363 339.817 515.699 340.032C516.036 340.247 516.423 340.354 516.863 340.354ZM522.299 341.56V334.201H523.743V341.56H522.299ZM523 332.575C522.692 332.575 522.454 332.495 522.285 332.336C522.117 332.177 522.033 331.953 522.033 331.663C522.033 331.392 522.117 331.173 522.285 331.005C522.463 330.836 522.701 330.752 523 330.752C523.309 330.752 523.547 330.832 523.715 330.991C523.883 331.149 523.967 331.374 523.967 331.663C523.967 331.934 523.879 332.154 523.701 332.322C523.533 332.49 523.299 332.575 523 332.575ZM525.654 341.56V340.354L529.453 335.28V335.448H525.654V334.201H531.023V335.378L527.28 340.382L527.224 340.312H531.107V341.56H525.654ZM532.444 341.56V340.354L536.242 335.28V335.448H532.444V334.201H537.812V335.378L534.07 340.382L534.013 340.312H537.896V341.56H532.444ZM542.236 341.7C541.629 341.7 541.073 341.532 540.568 341.195C540.073 340.859 539.676 340.401 539.377 339.821C539.078 339.242 538.928 338.588 538.928 337.859C538.928 337.121 539.078 336.467 539.377 335.897C539.685 335.317 540.096 334.864 540.61 334.537C541.133 334.21 541.717 334.046 542.362 334.046C542.745 334.046 543.096 334.102 543.414 334.215C543.731 334.327 544.007 334.486 544.241 334.691C544.484 334.887 544.68 335.116 544.829 335.378C544.988 335.64 545.086 335.92 545.124 336.219L544.801 336.107V334.201H546.259V341.56H544.801V339.807L545.138 339.709C545.082 339.962 544.965 340.209 544.787 340.452C544.619 340.686 544.399 340.896 544.128 341.083C543.867 341.27 543.572 341.419 543.245 341.532C542.928 341.644 542.591 341.7 542.236 341.7ZM542.615 340.368C543.054 340.368 543.442 340.261 543.778 340.046C544.114 339.831 544.376 339.536 544.563 339.163C544.759 338.779 544.857 338.345 544.857 337.859C544.857 337.382 544.759 336.957 544.563 336.583C544.376 336.21 544.114 335.915 543.778 335.7C543.442 335.485 543.054 335.378 542.615 335.378C542.185 335.378 541.802 335.485 541.465 335.7C541.138 335.915 540.876 336.21 540.68 336.583C540.493 336.957 540.4 337.382 540.4 337.859C540.4 338.345 540.493 338.779 540.68 339.163C540.876 339.536 541.138 339.831 541.465 340.046C541.802 340.261 542.185 340.368 542.615 340.368Z" fill="white"/>
<path d="M587.546 386.779H377.726C374.609 386.779 372.083 389.306 372.083 392.423V424.805C372.083 427.921 374.609 430.448 377.726 430.448H587.546C590.663 430.448 593.189 427.921 593.189 424.805V392.423C593.189 389.306 590.663 386.779 587.546 386.779Z" fill="#3E4C5C" stroke="#262E38" stroke-width="1.2" stroke-miterlimit="10"/>
<path d="M588.428 395.266V422.042C588.428 423.938 586.892 425.474 584.996 425.474H380.783C378.887 425.474 377.351 423.938 377.351 422.042V395.266C377.351 393.371 378.887 391.835 380.783 391.835H584.996C586.892 391.835 588.428 393.371 588.428 395.266Z" fill="#536375" stroke="#6D8198" stroke-width="1.2" stroke-miterlimit="10"/>
<path d="M447.622 412.382C447.089 412.382 446.594 412.312 446.136 412.172C445.687 412.032 445.276 411.822 444.902 411.541C444.538 411.252 444.211 410.897 443.921 410.476L444.958 409.285C445.416 409.939 445.855 410.392 446.276 410.644C446.696 410.897 447.196 411.023 447.776 411.023C448.131 411.023 448.453 410.967 448.743 410.854C449.033 410.742 449.262 410.588 449.43 410.392C449.598 410.196 449.682 409.971 449.682 409.719C449.682 409.551 449.654 409.392 449.598 409.243C449.542 409.093 449.453 408.957 449.332 408.836C449.22 408.715 449.07 408.602 448.883 408.5C448.706 408.397 448.495 408.308 448.252 408.233C448.009 408.149 447.729 408.079 447.411 408.023C446.907 407.92 446.468 407.785 446.094 407.617C445.72 407.448 445.407 407.238 445.155 406.986C444.902 406.733 444.715 406.448 444.594 406.131C444.472 405.804 444.412 405.439 444.412 405.037C444.412 404.645 444.496 404.28 444.664 403.944C444.842 403.608 445.08 403.318 445.379 403.075C445.687 402.823 446.047 402.631 446.458 402.5C446.869 402.36 447.313 402.29 447.79 402.29C448.294 402.29 448.757 402.355 449.178 402.486C449.598 402.617 449.972 402.813 450.299 403.075C450.626 403.327 450.897 403.64 451.112 404.014L450.047 405.065C449.86 404.757 449.649 404.5 449.416 404.294C449.182 404.079 448.925 403.921 448.645 403.818C448.365 403.706 448.065 403.65 447.748 403.65C447.383 403.65 447.066 403.706 446.795 403.818C446.524 403.93 446.309 404.089 446.15 404.294C446 404.491 445.926 404.724 445.926 404.995C445.926 405.192 445.963 405.374 446.038 405.542C446.112 405.701 446.225 405.846 446.374 405.976C446.533 406.098 446.743 406.21 447.005 406.313C447.267 406.406 447.58 406.49 447.944 406.565C448.458 406.677 448.916 406.822 449.318 407C449.72 407.168 450.061 407.369 450.341 407.602C450.621 407.836 450.832 408.098 450.972 408.387C451.121 408.677 451.196 408.99 451.196 409.327C451.196 409.953 451.051 410.495 450.761 410.953C450.472 411.41 450.061 411.766 449.528 412.018C448.995 412.261 448.36 412.382 447.622 412.382ZM452.948 412.242V404.883H454.406V406.453L454.14 406.621C454.215 406.378 454.332 406.145 454.49 405.92C454.659 405.696 454.86 405.5 455.093 405.332C455.336 405.154 455.593 405.014 455.864 404.911C456.144 404.808 456.429 404.757 456.719 404.757C457.14 404.757 457.509 404.827 457.826 404.967C458.144 405.107 458.406 405.318 458.611 405.598C458.817 405.878 458.967 406.229 459.06 406.649L458.836 406.593L458.934 406.355C459.037 406.14 459.177 405.939 459.354 405.752C459.541 405.556 459.752 405.383 459.985 405.234C460.219 405.084 460.466 404.967 460.728 404.883C460.99 404.799 461.247 404.757 461.499 404.757C462.05 404.757 462.504 404.869 462.859 405.093C463.223 405.318 463.494 405.659 463.672 406.117C463.859 406.575 463.952 407.145 463.952 407.827V412.242H462.494V407.911C462.494 407.49 462.438 407.149 462.326 406.888C462.223 406.617 462.064 406.416 461.849 406.285C461.634 406.154 461.359 406.089 461.022 406.089C460.761 406.089 460.513 406.135 460.279 406.229C460.055 406.313 459.859 406.434 459.691 406.593C459.523 406.752 459.392 406.939 459.298 407.154C459.205 407.36 459.158 407.588 459.158 407.841V412.242H457.7V407.883C457.7 407.5 457.644 407.177 457.532 406.916C457.42 406.645 457.256 406.439 457.042 406.299C456.827 406.159 456.565 406.089 456.257 406.089C455.995 406.089 455.752 406.135 455.528 406.229C455.303 406.313 455.107 406.434 454.939 406.593C454.771 406.743 454.64 406.925 454.546 407.14C454.453 407.346 454.406 407.57 454.406 407.813V412.242H452.948ZM468.716 412.382C468.109 412.382 467.553 412.214 467.048 411.878C466.553 411.541 466.156 411.083 465.857 410.504C465.558 409.925 465.408 409.271 465.408 408.542C465.408 407.803 465.558 407.149 465.857 406.579C466.165 406 466.576 405.547 467.09 405.22C467.614 404.892 468.198 404.729 468.843 404.729C469.226 404.729 469.576 404.785 469.894 404.897C470.212 405.009 470.487 405.168 470.721 405.374C470.964 405.57 471.16 405.799 471.31 406.061C471.468 406.322 471.567 406.603 471.604 406.902L471.282 406.789V404.883H472.739V412.242H471.282V410.49L471.618 410.392C471.562 410.644 471.445 410.892 471.268 411.135C471.099 411.368 470.88 411.579 470.609 411.766C470.347 411.952 470.053 412.102 469.726 412.214C469.408 412.326 469.072 412.382 468.716 412.382ZM469.095 411.051C469.534 411.051 469.922 410.943 470.258 410.728C470.595 410.513 470.856 410.219 471.043 409.845C471.24 409.462 471.338 409.028 471.338 408.542C471.338 408.065 471.24 407.64 471.043 407.266C470.856 406.892 470.595 406.598 470.258 406.383C469.922 406.168 469.534 406.061 469.095 406.061C468.665 406.061 468.282 406.168 467.945 406.383C467.618 406.598 467.357 406.892 467.161 407.266C466.974 407.64 466.88 408.065 466.88 408.542C466.88 409.028 466.974 409.462 467.161 409.845C467.357 410.219 467.618 410.513 467.945 410.728C468.282 410.943 468.665 411.051 469.095 411.051ZM474.783 412.242V401.869H476.227V412.242H474.783ZM478.301 412.242V401.869H479.745V412.242H478.301ZM488.131 412.242L485.019 404.883H486.575L488.818 410.392L488.551 410.518L490.948 404.883H492.434L489.168 412.242H488.131ZM496.984 412.382C496.227 412.382 495.554 412.223 494.966 411.906C494.386 411.579 493.928 411.135 493.592 410.574C493.265 410.013 493.101 409.369 493.101 408.64C493.101 408.06 493.195 407.532 493.382 407.056C493.568 406.579 493.825 406.168 494.153 405.822C494.489 405.467 494.886 405.196 495.344 405.009C495.811 404.813 496.316 404.715 496.858 404.715C497.334 404.715 497.778 404.808 498.189 404.995C498.601 405.173 498.956 405.42 499.255 405.738C499.563 406.056 499.797 406.434 499.956 406.874C500.124 407.303 500.203 407.775 500.194 408.289L500.18 408.906H494.167L493.844 407.757H498.932L498.722 407.995V407.659C498.694 407.35 498.591 407.075 498.414 406.832C498.236 406.589 498.012 406.397 497.741 406.257C497.47 406.117 497.176 406.047 496.858 406.047C496.353 406.047 495.928 406.145 495.582 406.341C495.237 406.528 494.975 406.808 494.797 407.182C494.62 407.546 494.531 408 494.531 408.542C494.531 409.056 494.638 409.504 494.853 409.887C495.068 410.261 495.372 410.551 495.765 410.756C496.157 410.962 496.61 411.065 497.124 411.065C497.489 411.065 497.825 411.004 498.133 410.883C498.451 410.761 498.792 410.541 499.157 410.224L499.886 411.247C499.661 411.471 499.386 411.667 499.059 411.836C498.741 412.004 498.4 412.139 498.035 412.242C497.68 412.336 497.33 412.382 496.984 412.382ZM501.763 412.242V404.883H503.207V406.397L502.954 406.565C503.048 406.238 503.23 405.939 503.501 405.668C503.772 405.388 504.095 405.163 504.468 404.995C504.842 404.818 505.225 404.729 505.618 404.729C506.178 404.729 506.646 404.841 507.019 405.065C507.393 405.28 507.674 405.612 507.86 406.061C508.047 406.509 508.141 407.075 508.141 407.757V412.242H506.697V407.855C506.697 407.434 506.641 407.089 506.529 406.818C506.417 406.537 506.244 406.336 506.01 406.215C505.777 406.084 505.487 406.028 505.141 406.047C504.861 406.047 504.604 406.093 504.37 406.187C504.137 406.271 503.931 406.392 503.753 406.551C503.585 406.71 503.45 406.897 503.347 407.112C503.254 407.317 503.207 407.542 503.207 407.785V412.242H502.492C502.37 412.242 502.249 412.242 502.127 412.242C502.006 412.242 501.884 412.242 501.763 412.242ZM512.679 412.382C512.155 412.382 511.697 412.261 511.305 412.018C510.922 411.775 510.623 411.434 510.408 410.995C510.202 410.555 510.099 410.032 510.099 409.425V404.883H511.543V409.032C511.543 409.462 511.609 409.836 511.739 410.154C511.88 410.462 512.076 410.7 512.328 410.869C512.59 411.037 512.903 411.121 513.267 411.121C513.538 411.121 513.786 411.079 514.01 410.995C514.234 410.901 514.426 410.775 514.585 410.616C514.753 410.457 514.884 410.266 514.977 410.041C515.071 409.817 515.118 409.574 515.118 409.313V404.883H516.561V412.242H515.118V410.7L515.37 410.532C515.258 410.878 515.066 411.191 514.795 411.471C514.534 411.752 514.22 411.976 513.856 412.144C513.492 412.303 513.099 412.382 512.679 412.382ZM522.021 412.382C521.264 412.382 520.591 412.223 520.002 411.906C519.423 411.579 518.965 411.135 518.628 410.574C518.301 410.013 518.138 409.369 518.138 408.64C518.138 408.06 518.231 407.532 518.418 407.056C518.605 406.579 518.862 406.168 519.189 405.822C519.526 405.467 519.923 405.196 520.381 405.009C520.848 404.813 521.352 404.715 521.894 404.715C522.371 404.715 522.815 404.808 523.226 404.995C523.637 405.173 523.992 405.42 524.291 405.738C524.6 406.056 524.833 406.434 524.992 406.874C525.16 407.303 525.24 407.775 525.231 408.289L525.217 408.906H519.203L518.881 407.757H523.969L523.759 407.995V407.659C523.731 407.35 523.628 407.075 523.45 406.832C523.273 406.589 523.049 406.397 522.778 406.257C522.507 406.117 522.212 406.047 521.894 406.047C521.39 406.047 520.965 406.145 520.619 406.341C520.273 406.528 520.011 406.808 519.834 407.182C519.656 407.546 519.568 408 519.568 408.542C519.568 409.056 519.675 409.504 519.89 409.887C520.105 410.261 520.409 410.551 520.801 410.756C521.194 410.962 521.647 411.065 522.161 411.065C522.525 411.065 522.862 411.004 523.17 410.883C523.488 410.761 523.829 410.541 524.193 410.224L524.922 411.247C524.698 411.471 524.422 411.667 524.095 411.836C523.777 412.004 523.436 412.139 523.072 412.242C522.717 412.336 522.366 412.382 522.021 412.382Z" fill="white"/>
<path d="M587.546 456.673H377.726C374.609 456.673 372.083 459.199 372.083 462.316V494.698C372.083 497.815 374.609 500.342 377.726 500.342H587.546C590.663 500.342 593.189 497.815 593.189 494.698V462.316C593.189 459.199 590.663 456.673 587.546 456.673Z" fill="#3E4C5C" stroke="#262E38" stroke-width="1.2" stroke-miterlimit="10"/>
<path d="M588.428 465.152V491.928C588.428 493.824 586.892 495.36 584.996 495.36H380.783C378.887 495.36 377.351 493.824 377.351 491.928V465.152C377.351 463.256 378.887 461.721 380.783 461.721H584.996C586.892 461.721 588.428 463.256 588.428 465.152Z" fill="#536375" stroke="#6D8198" stroke-width="1.2" stroke-miterlimit="10"/>
<path d="M458.664 482.276C457.972 482.276 457.37 482.117 456.856 481.799C456.351 481.482 455.874 480.949 455.426 480.201L456.603 479.458C456.837 479.804 457.066 480.089 457.29 480.314C457.524 480.528 457.762 480.687 458.005 480.79C458.248 480.893 458.505 480.944 458.776 480.944C459.103 480.944 459.407 480.865 459.687 480.706C459.967 480.538 460.192 480.309 460.36 480.019C460.528 479.729 460.612 479.402 460.612 479.038C460.612 478.673 460.547 478.365 460.416 478.113C460.285 477.851 460.094 477.655 459.841 477.524C459.589 477.384 459.29 477.314 458.944 477.314C458.785 477.314 458.617 477.333 458.44 477.37C458.271 477.398 458.089 477.445 457.893 477.51C457.697 477.566 457.482 477.641 457.248 477.734L456.828 476.627L459.855 473.291L460.15 473.725H455.973V472.324H461.593L461.874 472.884L458.664 476.445L458.313 476.08C458.388 476.043 458.51 476.01 458.678 475.982C458.855 475.945 459 475.926 459.112 475.926C459.524 475.926 459.907 476.006 460.262 476.164C460.626 476.314 460.939 476.529 461.201 476.809C461.472 477.08 461.682 477.403 461.832 477.776C461.991 478.141 462.07 478.533 462.07 478.954C462.07 479.589 461.916 480.159 461.607 480.664C461.308 481.159 460.902 481.552 460.388 481.841C459.874 482.131 459.299 482.276 458.664 482.276ZM467.503 485.22V474.777H468.96V476.459L468.736 476.333C468.792 476.052 468.951 475.786 469.213 475.534C469.474 475.272 469.792 475.062 470.166 474.903C470.549 474.735 470.942 474.651 471.343 474.651C472.007 474.651 472.596 474.814 473.11 475.141C473.624 475.468 474.03 475.917 474.329 476.487C474.628 477.057 474.778 477.711 474.778 478.449C474.778 479.178 474.628 479.832 474.329 480.412C474.039 480.982 473.638 481.435 473.124 481.771C472.61 482.098 472.03 482.262 471.385 482.262C470.956 482.262 470.54 482.178 470.138 482.01C469.736 481.832 469.395 481.608 469.115 481.337C468.834 481.066 468.661 480.785 468.596 480.496L468.96 480.299V485.22H467.503ZM471.147 480.93C471.577 480.93 471.96 480.823 472.297 480.608C472.633 480.393 472.899 480.099 473.096 479.725C473.292 479.351 473.39 478.926 473.39 478.449C473.39 477.973 473.292 477.552 473.096 477.188C472.909 476.814 472.647 476.52 472.311 476.305C471.974 476.09 471.586 475.982 471.147 475.982C470.708 475.982 470.32 476.09 469.984 476.305C469.647 476.51 469.381 476.8 469.185 477.174C468.988 477.547 468.89 477.973 468.89 478.449C468.89 478.926 468.988 479.351 469.185 479.725C469.381 480.099 469.647 480.393 469.984 480.608C470.32 480.823 470.708 480.93 471.147 480.93ZM479.78 482.276C479.023 482.276 478.35 482.117 477.761 481.799C477.182 481.472 476.724 481.028 476.388 480.468C476.061 479.907 475.897 479.262 475.897 478.533C475.897 477.954 475.99 477.426 476.177 476.949C476.364 476.473 476.621 476.062 476.948 475.716C477.285 475.361 477.682 475.09 478.14 474.903C478.607 474.707 479.112 474.608 479.654 474.608C480.13 474.608 480.574 474.702 480.985 474.889C481.396 475.066 481.752 475.314 482.051 475.632C482.359 475.949 482.593 476.328 482.751 476.767C482.92 477.197 482.999 477.669 482.99 478.183L482.976 478.8H476.962L476.64 477.65H481.728L481.518 477.889V477.552C481.49 477.244 481.387 476.968 481.21 476.725C481.032 476.482 480.808 476.291 480.537 476.15C480.266 476.01 479.971 475.94 479.654 475.94C479.149 475.94 478.724 476.038 478.378 476.234C478.032 476.421 477.771 476.702 477.593 477.076C477.416 477.44 477.327 477.893 477.327 478.435C477.327 478.949 477.434 479.398 477.649 479.781C477.864 480.155 478.168 480.444 478.56 480.65C478.953 480.856 479.406 480.958 479.92 480.958C480.284 480.958 480.621 480.898 480.929 480.776C481.247 480.655 481.588 480.435 481.952 480.117L482.681 481.141C482.457 481.365 482.181 481.561 481.854 481.729C481.537 481.897 481.196 482.033 480.831 482.136C480.476 482.229 480.126 482.276 479.78 482.276ZM487.867 482.276C487.147 482.276 486.502 482.112 485.932 481.785C485.372 481.449 484.928 480.996 484.601 480.426C484.274 479.846 484.11 479.187 484.11 478.449C484.11 477.711 484.274 477.057 484.601 476.487C484.928 475.907 485.372 475.454 485.932 475.127C486.502 474.791 487.147 474.623 487.867 474.623C488.577 474.623 489.212 474.791 489.773 475.127C490.343 475.454 490.792 475.907 491.119 476.487C491.446 477.057 491.609 477.711 491.609 478.449C491.609 479.187 491.446 479.846 491.119 480.426C490.792 480.996 490.343 481.449 489.773 481.785C489.212 482.112 488.577 482.276 487.867 482.276ZM487.867 480.958C488.306 480.958 488.699 480.851 489.044 480.636C489.39 480.412 489.661 480.113 489.857 479.739C490.054 479.356 490.147 478.926 490.138 478.449C490.147 477.963 490.054 477.533 489.857 477.16C489.661 476.776 489.39 476.477 489.044 476.263C488.699 476.048 488.306 475.94 487.867 475.94C487.428 475.94 487.03 476.052 486.675 476.277C486.33 476.491 486.059 476.791 485.862 477.174C485.666 477.547 485.573 477.973 485.582 478.449C485.573 478.926 485.666 479.356 485.862 479.739C486.059 480.113 486.33 480.412 486.675 480.636C487.03 480.851 487.428 480.958 487.867 480.958ZM493.183 485.22V474.777H494.64V476.459L494.416 476.333C494.472 476.052 494.631 475.786 494.893 475.534C495.154 475.272 495.472 475.062 495.846 474.903C496.229 474.735 496.622 474.651 497.023 474.651C497.687 474.651 498.276 474.814 498.79 475.141C499.303 475.468 499.71 475.917 500.009 476.487C500.308 477.057 500.458 477.711 500.458 478.449C500.458 479.178 500.308 479.832 500.009 480.412C499.719 480.982 499.318 481.435 498.804 481.771C498.29 482.098 497.71 482.262 497.065 482.262C496.636 482.262 496.22 482.178 495.818 482.01C495.416 481.832 495.075 481.608 494.795 481.337C494.514 481.066 494.341 480.785 494.276 480.496L494.64 480.299V485.22H493.183ZM496.827 480.93C497.257 480.93 497.64 480.823 497.977 480.608C498.313 480.393 498.579 480.099 498.776 479.725C498.972 479.351 499.07 478.926 499.07 478.449C499.07 477.973 498.972 477.552 498.776 477.188C498.589 476.814 498.327 476.52 497.991 476.305C497.654 476.09 497.266 475.982 496.827 475.982C496.388 475.982 496 476.09 495.664 476.305C495.327 476.51 495.061 476.8 494.865 477.174C494.668 477.547 494.57 477.973 494.57 478.449C494.57 478.926 494.668 479.351 494.865 479.725C495.061 480.099 495.327 480.393 495.664 480.608C496 480.823 496.388 480.93 496.827 480.93ZM502.054 482.136V471.763H503.497V482.136H502.054ZM508.841 482.276C508.084 482.276 507.411 482.117 506.822 481.799C506.243 481.472 505.785 481.028 505.449 480.468C505.122 479.907 504.958 479.262 504.958 478.533C504.958 477.954 505.052 477.426 505.238 476.949C505.425 476.473 505.682 476.062 506.009 475.716C506.346 475.361 506.743 475.09 507.201 474.903C507.668 474.707 508.173 474.608 508.715 474.608C509.191 474.608 509.635 474.702 510.046 474.889C510.458 475.066 510.813 475.314 511.112 475.632C511.42 475.949 511.654 476.328 511.813 476.767C511.981 477.197 512.06 477.669 512.051 478.183L512.037 478.8H506.023L505.701 477.65H510.789L510.579 477.889V477.552C510.551 477.244 510.448 476.968 510.271 476.725C510.093 476.482 509.869 476.291 509.598 476.15C509.327 476.01 509.032 475.94 508.715 475.94C508.21 475.94 507.785 476.038 507.439 476.234C507.093 476.421 506.832 476.702 506.654 477.076C506.477 477.44 506.388 477.893 506.388 478.435C506.388 478.949 506.495 479.398 506.71 479.781C506.925 480.155 507.229 480.444 507.621 480.65C508.014 480.856 508.467 480.958 508.981 480.958C509.345 480.958 509.682 480.898 509.99 480.776C510.308 480.655 510.649 480.435 511.014 480.117L511.742 481.141C511.518 481.365 511.242 481.561 510.915 481.729C510.598 481.897 510.257 482.033 509.892 482.136C509.537 482.229 509.187 482.276 508.841 482.276Z" fill="white"/>
<path d="M492.404 443.689C492.404 448.283 488.68 452.007 484.087 452.007C479.493 452.007 475.769 448.283 475.769 443.689C475.769 439.095 479.493 435.371 484.087 435.371C488.68 435.371 492.404 439.095 492.404 443.689Z" fill="white" stroke="#2F3945" stroke-width="0.734793"/>
<path d="M484.086 439.75V447.62" stroke="#2F3945" stroke-width="1.4" stroke-miterlimit="10"/>
<path d="M480.155 443.689H488.025" stroke="#2F3945" stroke-width="1.4" stroke-miterlimit="10"/>
<path d="M492.464 372.069C492.464 376.663 488.74 380.387 484.146 380.387C479.552 380.387 475.828 376.663 475.828 372.069C475.828 367.475 479.552 363.751 484.146 363.751C488.74 363.751 492.464 367.475 492.464 372.069Z" fill="white" stroke="#2F3945" stroke-width="0.734793"/>
<path d="M484.146 368.13V376" stroke="#2F3945" stroke-width="1.4" stroke-miterlimit="10"/>
<path d="M480.207 372.069H488.077" stroke="#2F3945" stroke-width="1.4" stroke-miterlimit="10"/>
<path d="M481.164 262.625C477.382 262.625 474.309 259.553 474.309 255.77V252.549H488.025V255.77C488.025 259.553 484.952 262.625 481.17 262.625H481.164Z" fill="white"/>
<path d="M483.858 255.677L481.247 258.289L478.636 255.677" fill="white"/>
<path d="M483.858 255.677L481.247 258.289L478.636 255.677" stroke="#101418" stroke-width="1.2" stroke-miterlimit="10"/>
<path d="M481.249 261.476V301.356" stroke="white" stroke-width="2" stroke-linecap="round" stroke-linejoin="round"/>
<path d="M481.171 300.351C484.953 300.351 488.026 303.424 488.026 307.206L488.026 310.427L474.31 310.427L474.31 307.206C474.31 303.424 477.383 300.351 481.165 300.351L481.171 300.351Z" fill="white"/>
<path d="M478.477 304.688L481.088 307.299L483.699 304.688" fill="white"/>
<path d="M478.477 304.688L481.088 307.299L483.699 304.688" stroke="#101418" stroke-width="1.2" stroke-miterlimit="10"/>
<path d="M671.65 273.352L671.65 289.48C671.65 290.783 672.706 291.838 674.008 291.838C675.31 291.838 676.366 290.783 676.366 289.48L676.366 273.352C676.366 272.049 675.31 270.993 674.008 270.993C672.706 270.993 671.65 272.049 671.65 273.352Z" fill="#5F38FB"/>
<path d="M284.68 413.884H268.551C267.249 413.884 266.193 414.94 266.193 416.242C266.193 417.545 267.249 418.601 268.551 418.601H284.68C285.982 418.601 287.038 417.545 287.038 416.242C287.038 414.94 285.982 413.884 284.68 413.884Z" fill="#5F38FB"/>
<path d="M284.391 229.721H279.95C278.488 229.721 277.303 230.906 277.303 232.368V236.809C277.303 238.271 278.488 239.456 279.95 239.456H284.391C285.853 239.456 287.038 238.271 287.038 236.809V232.368C287.038 230.906 285.853 229.721 284.391 229.721Z" fill="#2D3642"/>
<path d="M331.874 102.581H327.432C325.971 102.581 324.786 103.766 324.786 105.227V109.669C324.786 111.13 325.971 112.316 327.432 112.316H331.874C333.336 112.316 334.521 111.13 334.521 109.669V105.227C334.521 103.766 333.336 102.581 331.874 102.581Z" fill="#2D3642"/>
<path d="M648.939 137.146H644.497C643.036 137.146 641.851 138.332 641.851 139.793V144.235C641.851 145.696 643.036 146.881 644.497 146.881H648.939C650.401 146.881 651.586 145.696 651.586 144.235V139.793C651.586 138.332 650.401 137.146 648.939 137.146Z" fill="#2D3642"/>
<path d="M708.121 420.606H703.68C702.218 420.606 701.033 421.791 701.033 423.253V427.695C701.033 429.156 702.218 430.341 703.68 430.341H708.121C709.583 430.341 710.768 429.156 710.768 427.695V423.253C710.768 421.791 709.583 420.606 708.121 420.606Z" fill="#2D3642"/>
<path d="M438.012 546.883H433.571C432.109 546.883 430.924 548.068 430.924 549.53V553.971C430.924 555.433 432.109 556.618 433.571 556.618H438.012C439.474 556.618 440.659 555.433 440.659 553.971V549.53C440.659 548.068 439.474 546.883 438.012 546.883Z" fill="#2D3642"/>
<path d="M272.32 239.456H267.878C266.416 239.456 265.231 240.641 265.231 242.103V246.544C265.231 248.006 266.416 249.191 267.878 249.191H272.32C273.781 249.191 274.966 248.006 274.966 246.544V242.103C274.966 240.641 273.781 239.456 272.32 239.456Z" fill="#2D3642"/>
</svg>
