<svg width="1200" height="863" viewBox="0 0 1200 863" fill="none" xmlns="http://www.w3.org/2000/svg">
<g clip-path="url(#clip0_34_834)">
<rect width="1200" height="862.192" fill="white"/>
<rect x="34.4836" y="32.9738" width="1131.03" height="796.245" rx="19.6346" fill="url(#paint0_linear_34_834)" stroke="url(#paint1_linear_34_834)" stroke-width="0.730827"/>
<g opacity="0.3" filter="url(#filter0_f_34_834)">
<ellipse cx="457.072" cy="165.926" rx="153.284" ry="131.638" fill="#2DE376"/>
</g>
<g filter="url(#filter1_bd_34_834)">
<rect x="388.257" y="86.0161" width="137.629" height="168.771" rx="20" fill="url(#paint2_linear_34_834)" shape-rendering="crispEdges"/>
<rect x="388.757" y="86.5161" width="136.629" height="167.771" rx="19.5" stroke="url(#paint3_linear_34_834)" shape-rendering="crispEdges"/>
</g>
<rect x="411.188" y="158.911" width="91.7684" height="14.0308" rx="7.01539" fill="white" fill-opacity="0.5"/>
<rect x="411.188" y="186.884" width="91.7684" height="14.0308" rx="7.01539" fill="white" fill-opacity="0.5"/>
<rect x="411.188" y="214.858" width="91.7684" height="14.0308" rx="7.01539" fill="white" fill-opacity="0.5"/>
<path d="M407.76 128.874L413.702 113.526H416.114L422.011 128.874H419.49L415.982 119.621C415.938 119.519 415.851 119.27 415.719 118.876C415.602 118.481 415.463 118.043 415.302 117.56C415.142 117.078 414.995 116.639 414.864 116.245C414.732 115.836 414.645 115.572 414.601 115.456L415.105 115.434C415.017 115.682 414.908 115.996 414.776 116.376C414.659 116.756 414.528 117.158 414.382 117.582C414.25 118.006 414.118 118.408 413.987 118.788C413.855 119.154 413.746 119.46 413.658 119.709L410.172 128.874H407.76ZM410.391 125.059L411.268 122.778H418.24L419.249 125.059H410.391ZM423.485 128.874V126.681H425.962V115.719H423.485V113.526H430.808V115.719H428.33V126.681H430.808V128.874H423.485ZM439.354 128.874V113.526H449.023V115.806H441.722V126.593H449.023V128.874H439.354ZM440.428 122.143V119.862H447.817V122.143H440.428ZM451.594 128.874V117.363H453.852V119.731L453.457 119.994C453.604 119.482 453.889 119.015 454.312 118.591C454.736 118.152 455.241 117.802 455.825 117.538C456.41 117.261 457.009 117.122 457.623 117.122C458.5 117.122 459.231 117.297 459.816 117.648C460.4 117.984 460.839 118.503 461.131 119.205C461.423 119.906 461.57 120.791 461.57 121.858V128.874H459.311V122.011C459.311 121.353 459.224 120.813 459.048 120.389C458.873 119.95 458.602 119.636 458.237 119.446C457.872 119.241 457.418 119.154 456.878 119.183C456.439 119.183 456.037 119.256 455.672 119.402C455.306 119.534 454.985 119.724 454.707 119.972C454.444 120.221 454.232 120.513 454.071 120.849C453.925 121.171 453.852 121.521 453.852 121.901V128.874H452.734C452.544 128.874 452.354 128.874 452.164 128.874C451.974 128.874 451.784 128.874 451.594 128.874ZM469.128 133.916C468.309 133.916 467.491 133.785 466.672 133.522C465.868 133.273 465.218 132.944 464.721 132.535L465.554 130.781C465.846 131 466.19 131.19 466.584 131.351C466.979 131.526 467.396 131.658 467.834 131.746C468.273 131.848 468.704 131.899 469.128 131.899C469.932 131.899 470.604 131.768 471.145 131.505C471.686 131.241 472.095 130.854 472.372 130.342C472.65 129.831 472.789 129.195 472.789 128.435V126.221L473.03 126.374C472.957 126.827 472.716 127.266 472.307 127.69C471.912 128.099 471.415 128.435 470.816 128.698C470.217 128.961 469.603 129.093 468.974 129.093C467.878 129.093 466.899 128.837 466.036 128.325C465.188 127.799 464.516 127.09 464.019 126.199C463.522 125.292 463.274 124.262 463.274 123.107C463.274 121.953 463.515 120.929 463.997 120.038C464.494 119.132 465.167 118.423 466.014 117.911C466.877 117.385 467.841 117.122 468.908 117.122C469.347 117.122 469.771 117.18 470.18 117.297C470.589 117.4 470.969 117.553 471.32 117.758C471.671 117.948 471.985 118.16 472.263 118.393C472.541 118.627 472.767 118.876 472.943 119.139C473.118 119.402 473.228 119.651 473.271 119.884L472.789 120.06V117.363H475.047V128.172C475.047 129.093 474.908 129.904 474.631 130.606C474.368 131.322 473.98 131.921 473.469 132.403C472.957 132.9 472.336 133.273 471.605 133.522C470.874 133.785 470.048 133.916 469.128 133.916ZM469.215 127.01C469.932 127.01 470.567 126.842 471.123 126.506C471.678 126.169 472.109 125.709 472.416 125.124C472.723 124.54 472.877 123.867 472.877 123.107C472.877 122.347 472.716 121.675 472.394 121.09C472.087 120.491 471.656 120.023 471.101 119.687C470.56 119.351 469.932 119.183 469.215 119.183C468.514 119.183 467.885 119.358 467.33 119.709C466.789 120.045 466.358 120.513 466.036 121.112C465.729 121.697 465.576 122.362 465.576 123.107C465.576 123.853 465.729 124.525 466.036 125.124C466.358 125.709 466.789 126.169 467.33 126.506C467.885 126.842 468.514 127.01 469.215 127.01ZM477.929 128.874V117.363H480.187V128.874H477.929ZM479.025 114.82C478.542 114.82 478.17 114.695 477.907 114.447C477.644 114.199 477.512 113.848 477.512 113.395C477.512 112.971 477.644 112.627 477.907 112.364C478.184 112.101 478.557 111.97 479.025 111.97C479.507 111.97 479.88 112.094 480.143 112.342C480.406 112.591 480.538 112.942 480.538 113.395C480.538 113.819 480.399 114.162 480.121 114.425C479.858 114.688 479.492 114.82 479.025 114.82ZM483 128.874V117.363H485.258V119.731L484.864 119.994C485.01 119.482 485.295 119.015 485.719 118.591C486.143 118.152 486.647 117.802 487.232 117.538C487.816 117.261 488.416 117.122 489.03 117.122C489.906 117.122 490.637 117.297 491.222 117.648C491.807 117.984 492.245 118.503 492.537 119.205C492.83 119.906 492.976 120.791 492.976 121.858V128.874H490.718V122.011C490.718 121.353 490.63 120.813 490.455 120.389C490.279 119.95 490.009 119.636 489.643 119.446C489.278 119.241 488.825 119.154 488.284 119.183C487.846 119.183 487.444 119.256 487.078 119.402C486.713 119.534 486.391 119.724 486.114 119.972C485.85 120.221 485.638 120.513 485.478 120.849C485.332 121.171 485.258 121.521 485.258 121.901V128.874H484.14C483.95 128.874 483.76 128.874 483.57 128.874C483.38 128.874 483.19 128.874 483 128.874ZM500.753 129.093C499.569 129.093 498.517 128.844 497.596 128.347C496.69 127.836 495.974 127.141 495.447 126.264C494.936 125.387 494.68 124.379 494.68 123.239C494.68 122.333 494.826 121.507 495.119 120.761C495.411 120.016 495.813 119.373 496.324 118.832C496.851 118.277 497.472 117.853 498.188 117.56C498.919 117.253 499.708 117.1 500.556 117.1C501.301 117.1 501.996 117.246 502.639 117.538C503.282 117.816 503.837 118.203 504.305 118.7C504.787 119.197 505.153 119.789 505.401 120.476C505.664 121.149 505.789 121.887 505.774 122.691L505.752 123.655H496.346L495.842 121.858H503.801L503.472 122.23V121.704C503.428 121.222 503.267 120.791 502.99 120.411C502.712 120.031 502.361 119.731 501.937 119.512C501.513 119.292 501.053 119.183 500.556 119.183C499.767 119.183 499.102 119.336 498.561 119.643C498.02 119.936 497.611 120.374 497.333 120.959C497.055 121.529 496.916 122.238 496.916 123.085C496.916 123.889 497.085 124.591 497.421 125.19C497.757 125.775 498.232 126.228 498.846 126.55C499.46 126.871 500.169 127.032 500.973 127.032C501.543 127.032 502.069 126.937 502.551 126.747C503.048 126.557 503.582 126.213 504.152 125.716L505.292 127.317C504.941 127.668 504.51 127.975 503.998 128.238C503.501 128.501 502.968 128.713 502.398 128.874C501.842 129.02 501.294 129.093 500.753 129.093Z" fill="#010E3E"/>
<g opacity="0.3" filter="url(#filter2_f_34_834)">
<ellipse cx="550.666" cy="566.62" rx="153.284" ry="131.638" fill="#2DE376"/>
</g>
<g opacity="0.4" filter="url(#filter3_f_34_834)">
<ellipse cx="765.889" cy="193.899" rx="104.688" ry="99.9487" fill="#5F38FB"/>
</g>
<g filter="url(#filter4_b_34_834)">
<rect x="696.951" y="86.0161" width="137.63" height="168.77" rx="20" fill="url(#paint4_linear_34_834)"/>
<rect x="697.951" y="87.0161" width="135.63" height="166.77" rx="19" stroke="url(#paint5_linear_34_834)" stroke-width="2"/>
</g>
<rect x="719.882" y="186.884" width="33.7621" height="14.0308" rx="7.01539" fill="white" fill-opacity="0.5"/>
<rect x="761.644" y="186.884" width="50.2526" height="14.0308" rx="7.01539" fill="white" fill-opacity="0.5"/>
<rect x="719.882" y="214.858" width="50.2526" height="14.0308" rx="7.01539" fill="white" fill-opacity="0.5"/>
<rect x="778.134" y="214.858" width="33.7621" height="14.0308" rx="7.01539" fill="white" fill-opacity="0.5"/>
<rect x="719.882" y="158.911" width="50.2526" height="14.0308" rx="7.01539" fill="white" fill-opacity="0.5"/>
<rect x="778.134" y="158.911" width="33.7621" height="14.0308" rx="7.01539" fill="white" fill-opacity="0.5"/>
<path d="M721.504 129.375L727.446 114.027H729.858L735.756 129.375H733.234L729.726 120.122C729.682 120.02 729.595 119.771 729.463 119.377C729.346 118.982 729.207 118.544 729.047 118.061C728.886 117.579 728.74 117.14 728.608 116.746C728.477 116.337 728.389 116.073 728.345 115.957L728.849 115.935C728.762 116.183 728.652 116.497 728.52 116.877C728.403 117.257 728.272 117.659 728.126 118.083C727.994 118.507 727.863 118.909 727.731 119.289C727.6 119.655 727.49 119.961 727.402 120.21L723.916 129.375H721.504ZM724.135 125.56L725.012 123.279H731.984L732.993 125.56H724.135ZM737.273 129.375V113.15H739.531V129.375H737.273ZM742.03 129.375V117.864H744.31V120.32L743.893 120.583C744.01 120.203 744.193 119.837 744.442 119.486C744.705 119.136 745.019 118.829 745.384 118.566C745.764 118.288 746.166 118.069 746.59 117.908C747.029 117.747 747.474 117.667 747.928 117.667C748.585 117.667 749.163 117.776 749.66 117.996C750.157 118.215 750.566 118.544 750.887 118.982C751.209 119.421 751.443 119.969 751.589 120.627L751.238 120.539L751.392 120.166C751.552 119.83 751.772 119.516 752.049 119.223C752.342 118.916 752.671 118.646 753.036 118.412C753.401 118.178 753.789 117.996 754.198 117.864C754.607 117.732 755.009 117.667 755.404 117.667C756.266 117.667 756.975 117.842 757.531 118.193C758.101 118.544 758.525 119.077 758.802 119.793C759.095 120.51 759.241 121.401 759.241 122.468V129.375H756.961V122.6C756.961 121.942 756.873 121.408 756.698 120.999C756.537 120.575 756.288 120.261 755.952 120.056C755.616 119.852 755.185 119.75 754.659 119.75C754.249 119.75 753.862 119.823 753.496 119.969C753.146 120.1 752.839 120.29 752.576 120.539C752.313 120.787 752.108 121.08 751.962 121.416C751.816 121.737 751.743 122.095 751.743 122.49V129.375H749.462V122.556C749.462 121.957 749.375 121.452 749.199 121.043C749.024 120.619 748.768 120.298 748.432 120.078C748.096 119.859 747.686 119.75 747.204 119.75C746.795 119.75 746.415 119.823 746.064 119.969C745.713 120.1 745.406 120.29 745.143 120.539C744.88 120.773 744.675 121.058 744.529 121.394C744.383 121.715 744.31 122.066 744.31 122.446V129.375H742.03ZM766.035 129.594C765.085 129.594 764.215 129.331 763.426 128.804C762.652 128.278 762.03 127.562 761.563 126.656C761.095 125.75 760.861 124.726 760.861 123.586C760.861 122.432 761.095 121.408 761.563 120.517C762.045 119.611 762.688 118.902 763.492 118.39C764.311 117.879 765.224 117.623 766.233 117.623C766.832 117.623 767.38 117.711 767.877 117.886C768.374 118.061 768.805 118.31 769.17 118.631C769.551 118.938 769.857 119.296 770.091 119.706C770.34 120.115 770.493 120.553 770.552 121.021L770.047 120.846V117.864H772.328V129.375H770.047V126.634L770.574 126.48C770.486 126.875 770.303 127.262 770.026 127.642C769.762 128.008 769.419 128.337 768.995 128.629C768.586 128.921 768.125 129.155 767.614 129.331C767.117 129.506 766.591 129.594 766.035 129.594ZM766.627 127.511C767.314 127.511 767.921 127.343 768.447 127.007C768.973 126.67 769.382 126.21 769.675 125.625C769.982 125.026 770.135 124.346 770.135 123.586C770.135 122.841 769.982 122.176 769.675 121.591C769.382 121.007 768.973 120.546 768.447 120.21C767.921 119.874 767.314 119.706 766.627 119.706C765.955 119.706 765.356 119.874 764.829 120.21C764.318 120.546 763.909 121.007 763.602 121.591C763.309 122.176 763.163 122.841 763.163 123.586C763.163 124.346 763.309 125.026 763.602 125.625C763.909 126.21 764.318 126.67 764.829 127.007C765.356 127.343 765.955 127.511 766.627 127.511ZM774.823 129.375V117.864H777.081V120.232L776.687 120.495C776.833 119.983 777.118 119.516 777.542 119.092C777.966 118.653 778.47 118.302 779.054 118.039C779.639 117.762 780.238 117.623 780.852 117.623C781.729 117.623 782.46 117.798 783.045 118.149C783.629 118.485 784.068 119.004 784.36 119.706C784.653 120.407 784.799 121.292 784.799 122.359V129.375H782.541V122.512C782.541 121.854 782.453 121.313 782.277 120.89C782.102 120.451 781.832 120.137 781.466 119.947C781.101 119.742 780.648 119.655 780.107 119.684C779.668 119.684 779.266 119.757 778.901 119.903C778.536 120.035 778.214 120.225 777.936 120.473C777.673 120.722 777.461 121.014 777.3 121.35C777.154 121.672 777.081 122.022 777.081 122.402V129.375H775.963C775.773 129.375 775.583 129.375 775.393 129.375C775.203 129.375 775.013 129.375 774.823 129.375ZM791.633 129.594C790.683 129.594 789.814 129.331 789.024 128.804C788.25 128.278 787.628 127.562 787.161 126.656C786.693 125.75 786.459 124.726 786.459 123.586C786.459 122.432 786.693 121.408 787.161 120.517C787.643 119.611 788.286 118.902 789.09 118.39C789.909 117.879 790.822 117.623 791.831 117.623C792.43 117.623 792.978 117.711 793.475 117.886C793.972 118.061 794.403 118.31 794.769 118.631C795.149 118.938 795.456 119.296 795.689 119.706C795.938 120.115 796.091 120.553 796.15 121.021L795.646 120.846V117.864H797.926V129.375H795.646V126.634L796.172 126.48C796.084 126.875 795.901 127.262 795.624 127.642C795.361 128.008 795.017 128.337 794.593 128.629C794.184 128.921 793.723 129.155 793.212 129.331C792.715 129.506 792.189 129.594 791.633 129.594ZM792.225 127.511C792.912 127.511 793.519 127.343 794.045 127.007C794.571 126.67 794.981 126.21 795.273 125.625C795.58 125.026 795.733 124.346 795.733 123.586C795.733 122.841 795.58 122.176 795.273 121.591C794.981 121.007 794.571 120.546 794.045 120.21C793.519 119.874 792.912 119.706 792.225 119.706C791.553 119.706 790.954 119.874 790.427 120.21C789.916 120.546 789.507 121.007 789.2 121.591C788.907 122.176 788.761 122.841 788.761 123.586C788.761 124.346 788.907 125.026 789.2 125.625C789.507 126.21 789.916 126.67 790.427 127.007C790.954 127.343 791.553 127.511 792.225 127.511ZM805.31 129.594C804.243 129.594 803.286 129.331 802.438 128.804C801.605 128.278 800.94 127.562 800.443 126.656C799.961 125.75 799.719 124.734 799.719 123.608C799.719 122.483 799.961 121.467 800.443 120.561C800.94 119.655 801.605 118.938 802.438 118.412C803.286 117.886 804.243 117.623 805.31 117.623C806.333 117.623 807.262 117.835 808.095 118.259C808.942 118.668 809.586 119.231 810.024 119.947L808.774 121.482C808.541 121.145 808.241 120.838 807.875 120.561C807.51 120.283 807.123 120.064 806.713 119.903C806.304 119.742 805.91 119.662 805.53 119.662C804.828 119.662 804.199 119.837 803.644 120.188C803.103 120.524 802.672 120.992 802.35 121.591C802.029 122.19 801.868 122.863 801.868 123.608C801.868 124.354 802.036 125.026 802.372 125.625C802.709 126.21 803.154 126.678 803.71 127.029C804.265 127.379 804.879 127.555 805.551 127.555C805.946 127.555 806.326 127.489 806.692 127.357C807.072 127.226 807.437 127.029 807.788 126.765C808.139 126.502 808.467 126.181 808.774 125.801L810.024 127.336C809.556 127.993 808.884 128.534 808.007 128.958C807.145 129.382 806.246 129.594 805.31 129.594Z" fill="white"/>
<g opacity="0.3" filter="url(#filter5_f_34_834)">
<ellipse cx="320.078" cy="354.71" rx="104.688" ry="99.9487" fill="#5F38FB"/>
</g>
<g filter="url(#filter6_d_34_834)">
<rect x="305.777" y="345.822" width="147.827" height="200.703" rx="14.5492" fill="white"/>
<rect x="306.132" y="346.177" width="147.118" height="199.994" rx="14.1948" stroke="url(#paint6_linear_34_834)" stroke-width="0.708864"/>
</g>
<g clip-path="url(#clip1_34_834)">
<path d="M387.509 365.091H374.461C352.863 365.091 335.353 382.601 335.353 404.203V423.552C335.353 424.083 335.372 424.614 335.395 425.141C336.231 446.004 353.399 462.664 374.466 462.664H387.514C408.58 462.664 425.748 446.004 426.584 425.141C426.607 424.614 426.626 424.083 426.626 423.552V404.203C426.621 382.601 409.111 365.091 387.509 365.091Z" fill="#EAEFF4"/>
<path d="M387.509 365.091H374.461C352.863 365.091 335.353 382.601 335.353 404.203V423.552C335.353 424.083 335.372 424.614 335.395 425.141C336.231 446.004 353.399 462.664 374.466 462.664H387.514C408.58 462.664 425.748 446.004 426.584 425.141C426.607 424.614 426.626 424.083 426.626 423.552V404.203C426.621 382.601 409.111 365.091 387.509 365.091ZM389.163 451.694H372.807C360.295 451.694 349.141 445.893 341.88 436.835C338.878 433.09 337.206 428.425 337.196 423.626C337.196 423.603 337.196 423.575 337.196 423.552V404.203C337.201 383.622 353.884 366.939 374.466 366.939H387.514C408.095 366.939 424.778 383.622 424.778 404.203V423.552C424.778 423.575 424.778 423.603 424.778 423.626C424.769 428.425 423.097 433.094 420.095 436.835C412.834 445.893 401.68 451.694 389.167 451.694H389.163Z" fill="url(#paint7_radial_34_834)"/>
<path d="M388.302 371.807H374.215C356.611 371.807 342.34 386.077 342.34 403.681V405.903C342.34 423.507 356.611 437.777 374.215 437.777H388.302C405.906 437.777 420.177 423.507 420.177 405.903V403.681C420.177 386.077 405.906 371.807 388.302 371.807Z" fill="#010E3E"/>
<path d="M367.069 403.93H359.189V396.051H367.069V403.93ZM359.189 403.93H351.31V411.81H359.189V403.93ZM374.949 403.93H367.069V411.81H374.949V403.93ZM403.221 396.051H395.341V403.93H403.221V396.051ZM395.341 403.93H387.461V411.81H395.341V403.93ZM411.1 403.93H403.221V411.81H411.1V403.93Z" fill="url(#paint8_linear_34_834)"/>
<path d="M338.704 513.647H338.722C338.616 513.647 338.51 513.637 338.404 513.633C338.505 513.633 338.602 513.647 338.704 513.647Z" fill="white"/>
<path d="M430.248 487.379C416.586 475.878 398.946 469.273 379.695 468.945C360.573 468.622 341.174 477.084 327.516 488.987C338.209 492.963 345.834 502.635 348.98 513.646C352.227 525.018 365.538 535.387 379.695 535.387C393.852 535.387 406.71 526.547 410.382 513.646C413.052 504.266 420.304 493.06 431.892 488.987C431.393 488.428 430.853 487.887 430.248 487.379Z" fill="url(#paint9_radial_34_834)"/>
<path d="M338.401 513.632C338.092 513.627 337.787 513.618 337.487 513.595C337.787 513.618 338.092 513.622 338.401 513.632Z" fill="#B2CDCE"/>
<path d="M327.508 488.986C321.337 495.928 323.36 506.325 330.279 511.092C330.279 511.092 330.288 511.096 330.288 511.101C330.565 511.29 330.852 511.475 331.147 511.646C331.17 511.66 331.194 511.673 331.217 511.687C331.494 511.849 331.78 512.001 332.071 512.145C332.113 512.168 332.159 512.186 332.205 512.205C332.482 512.339 332.764 512.463 333.055 512.579C333.12 512.602 333.184 512.625 333.244 512.653C333.521 512.759 333.799 512.861 334.085 512.948C334.168 512.976 334.256 512.994 334.339 513.022C334.611 513.101 334.884 513.179 335.166 513.244C335.277 513.267 335.387 513.29 335.498 513.313C335.762 513.369 336.025 513.424 336.297 513.466C336.445 513.489 336.602 513.503 336.755 513.521C336.995 513.549 337.235 513.586 337.48 513.604C337.78 513.627 338.085 513.632 338.394 513.641C338.5 513.641 338.607 513.655 338.713 513.655H348.967C346.135 502.431 338.062 493.295 327.503 488.995L327.508 488.986Z" fill="url(#paint10_linear_34_834)"/>
<path d="M431.871 488.986C438.041 495.928 436.018 506.325 429.099 511.092C429.099 511.092 429.09 511.096 429.09 511.101C428.813 511.29 428.526 511.475 428.231 511.646C428.208 511.66 428.185 511.673 428.162 511.687C427.884 511.849 427.598 512.001 427.307 512.145C427.266 512.168 427.219 512.186 427.173 512.205C426.896 512.339 426.614 512.463 426.323 512.579C426.259 512.602 426.194 512.625 426.134 512.653C425.857 512.759 425.58 512.861 425.293 512.948C425.21 512.976 425.122 512.994 425.039 513.022C424.767 513.101 424.494 513.179 424.213 513.244C424.102 513.267 423.991 513.29 423.88 513.313C423.617 513.369 423.353 513.424 423.081 513.466C422.933 513.489 422.776 513.503 422.624 513.521C422.383 513.549 422.143 513.586 421.898 513.604C421.598 513.627 421.293 513.632 420.984 513.641C420.878 513.641 420.772 513.655 420.665 513.655H410.411C413.243 502.431 421.317 493.295 431.875 488.995L431.871 488.986Z" fill="url(#paint11_linear_34_834)"/>
<path d="M379.692 528.407C393.809 528.407 405.253 516.963 405.253 502.847C405.253 488.73 393.809 477.286 379.692 477.286C365.576 477.286 354.132 488.73 354.132 502.847C354.132 516.963 365.576 528.407 379.692 528.407Z" fill="#CFDBE2"/>
<path d="M379.692 523.379C391.031 523.379 400.223 514.187 400.223 502.848C400.223 491.509 391.031 482.317 379.692 482.317C368.354 482.317 359.162 491.509 359.162 502.848C359.162 514.187 368.354 523.379 379.692 523.379Z" fill="url(#paint12_linear_34_834)"/>
<path d="M369.7 503.73V506.14C369.7 506.77 370.22 507.29 370.85 507.29C371.48 507.29 372 506.77 372 506.14V503.73C372 503.1 371.48 502.58 370.85 502.58C370.22 502.58 369.7 503.1 369.7 503.73Z" fill="white"/>
<path d="M374.211 501.32V506.13C374.211 506.76 374.731 507.28 375.361 507.28C375.991 507.28 376.511 506.76 376.511 506.13V501.32C376.511 500.69 375.991 500.17 375.361 500.17C374.731 500.17 374.211 500.69 374.211 501.32Z" fill="white"/>
<path d="M389.16 500.84C389.83 499.87 390.23 498.69 390.23 497.42C390.23 494.11 387.54 491.42 384.23 491.42C380.92 491.42 378.23 494.11 378.23 497.42C378.23 498.27 378.41 499.07 378.73 499.8V506.13C378.73 506.76 379.25 507.28 379.88 507.28C380.51 507.28 381.03 506.76 381.03 506.13V502.48C381.96 503.07 383.06 503.42 384.24 503.42C385.42 503.42 386.58 503.06 387.52 502.44L390 504.92C390.22 505.14 390.52 505.26 390.81 505.26C391.1 505.26 391.4 505.15 391.62 504.92C392.07 504.47 392.07 503.74 391.62 503.29L389.16 500.83V500.84ZM384.23 501.13C382.19 501.13 380.53 499.47 380.53 497.43C380.53 495.39 382.19 493.73 384.23 493.73C386.27 493.73 387.93 495.39 387.93 497.43C387.93 499.47 386.27 501.13 384.23 501.13Z" fill="white"/>
<path d="M382.2 508.92H368.6C367.97 508.92 367.45 509.44 367.45 510.07C367.45 510.7 367.97 511.22 368.6 511.22H382.2C382.83 511.22 383.35 510.7 383.35 510.07C383.35 509.44 382.83 508.92 382.2 508.92Z" fill="white"/>
</g>
<g filter="url(#filter7_d_34_834)">
<rect x="462.53" y="345.822" width="147.827" height="200.703" rx="14.5492" fill="white"/>
<rect x="462.884" y="346.177" width="147.118" height="199.994" rx="14.1948" stroke="url(#paint13_linear_34_834)" stroke-width="0.708864"/>
</g>
<g clip-path="url(#clip2_34_834)">
<path d="M544.262 365.091H531.214C509.618 365.091 492.108 382.6 492.108 404.201V423.549C492.108 424.08 492.127 424.611 492.15 425.138C492.986 446 510.153 462.659 531.219 462.659H544.267C565.332 462.659 582.5 446 583.336 425.138C583.359 424.611 583.377 424.08 583.377 423.549V404.201C583.372 382.6 565.863 365.091 544.262 365.091Z" fill="#EAEFF4"/>
<path d="M544.262 365.091H531.214C509.618 365.091 492.108 382.6 492.108 404.201V423.549C492.108 424.08 492.127 424.611 492.15 425.138C492.986 446 510.153 462.659 531.219 462.659H544.267C565.332 462.659 582.5 446 583.336 425.138C583.359 424.611 583.377 424.08 583.377 423.549V404.201C583.372 382.6 565.863 365.091 544.262 365.091ZM545.915 451.69H529.561C517.049 451.69 505.895 445.889 498.635 436.832C495.632 433.086 493.96 428.421 493.951 423.623C493.951 423.6 493.951 423.572 493.951 423.549V404.201C493.956 383.621 510.638 366.938 531.219 366.938H544.267C564.847 366.938 581.53 383.621 581.53 404.201V423.549C581.53 423.572 581.53 423.6 581.53 423.623C581.52 428.421 579.848 433.091 576.846 436.832C569.586 445.889 558.432 451.69 545.92 451.69H545.915Z" fill="url(#paint14_radial_34_834)"/>
<path d="M545.055 371.806H530.968C513.365 371.806 499.095 386.076 499.095 403.679V405.901C499.095 423.504 513.365 437.774 530.968 437.774H545.055C562.658 437.774 576.928 423.504 576.928 405.901V403.679C576.928 386.076 562.658 371.806 545.055 371.806Z" fill="#010E3E"/>
<path d="M523.823 403.929H515.944V396.049H523.823V403.929ZM515.944 403.929H508.064V411.808H515.944V403.929ZM531.703 403.929H523.823V411.808H531.703V403.929ZM559.973 396.049H552.094V403.929H559.973V396.049ZM552.094 403.929H544.214V411.808H552.094V403.929ZM567.853 403.929H559.973V411.808H567.853V403.929Z" fill="url(#paint15_linear_34_834)"/>
<path d="M495.459 513.64H495.477C495.371 513.64 495.265 513.631 495.159 513.626C495.26 513.626 495.357 513.64 495.459 513.64Z" fill="white"/>
<path d="M586.999 487.374C573.337 475.874 555.698 469.269 536.448 468.941C517.327 468.618 497.929 477.079 484.271 488.981C494.963 492.958 502.589 502.629 505.734 513.64C508.981 525.011 522.292 535.38 536.448 535.38C550.604 535.38 563.462 526.54 567.134 513.64C569.804 504.26 577.055 493.055 588.643 488.981C588.144 488.422 587.604 487.882 586.999 487.374Z" fill="url(#paint16_radial_34_834)"/>
<path d="M495.156 513.625C494.846 513.62 494.541 513.611 494.241 513.588C494.541 513.611 494.846 513.616 495.156 513.625Z" fill="#B2CDCE"/>
<path d="M484.263 488.98C478.093 495.922 480.116 506.318 487.034 511.085C487.034 511.085 487.044 511.089 487.044 511.094C487.321 511.283 487.607 511.468 487.903 511.639C487.926 511.653 487.949 511.667 487.972 511.681C488.249 511.842 488.535 511.995 488.826 512.138C488.868 512.161 488.914 512.179 488.96 512.198C489.237 512.332 489.519 512.456 489.81 512.572C489.875 512.595 489.939 512.618 489.999 512.646C490.277 512.752 490.554 512.854 490.84 512.941C490.923 512.969 491.011 512.988 491.094 513.015C491.367 513.094 491.639 513.172 491.921 513.237C492.032 513.26 492.143 513.283 492.253 513.306C492.517 513.362 492.78 513.417 493.052 513.459C493.2 513.482 493.357 513.496 493.51 513.514C493.75 513.542 493.99 513.579 494.235 513.597C494.535 513.62 494.84 513.625 495.149 513.634C495.255 513.634 495.362 513.648 495.468 513.648H505.721C502.89 502.425 494.817 493.289 484.259 488.989L484.263 488.98Z" fill="url(#paint17_linear_34_834)"/>
<path d="M588.621 488.98C594.792 495.922 592.769 506.318 585.85 511.085C585.85 511.085 585.841 511.089 585.841 511.094C585.564 511.283 585.277 511.468 584.982 511.639C584.959 511.653 584.936 511.667 584.913 511.681C584.635 511.842 584.349 511.995 584.058 512.138C584.017 512.161 583.97 512.179 583.924 512.198C583.647 512.332 583.365 512.456 583.074 512.572C583.01 512.595 582.945 512.618 582.885 512.646C582.608 512.752 582.331 512.854 582.044 512.941C581.961 512.969 581.874 512.988 581.79 513.015C581.518 513.094 581.245 513.172 580.964 513.237C580.853 513.26 580.742 513.283 580.631 513.306C580.368 513.362 580.105 513.417 579.832 513.459C579.684 513.482 579.527 513.496 579.375 513.514C579.135 513.542 578.895 513.579 578.65 513.597C578.35 513.62 578.045 513.625 577.735 513.634C577.629 513.634 577.523 513.648 577.417 513.648H567.163C569.994 502.425 578.068 493.289 588.626 488.989L588.621 488.98Z" fill="url(#paint18_linear_34_834)"/>
<path d="M536.445 528.4C550.561 528.4 562.004 516.957 562.004 502.841C562.004 488.725 550.561 477.281 536.445 477.281C522.329 477.281 510.885 488.725 510.885 502.841C510.885 516.957 522.329 528.4 536.445 528.4Z" fill="#CFDBE2"/>
<path d="M536.446 523.372C547.784 523.372 556.976 514.18 556.976 502.842C556.976 491.504 547.784 482.312 536.446 482.312C525.108 482.312 515.916 491.504 515.916 502.842C515.916 514.18 525.108 523.372 536.446 523.372Z" fill="url(#paint19_linear_34_834)"/>
<path d="M540.433 510.622L546.072 504.983V507.666C546.072 508.262 546.557 508.747 547.153 508.747C547.749 508.747 548.234 508.262 548.234 507.666V502.373C548.234 501.777 547.749 501.292 547.153 501.292H541.86C541.264 501.292 540.779 501.777 540.779 502.373C540.779 502.969 541.264 503.454 541.86 503.454H544.543L539.671 508.331L537.315 505.976C536.895 505.555 536.211 505.555 535.786 505.976L531.422 510.34C531.001 510.761 531.001 511.444 531.422 511.869C531.634 512.082 531.911 512.188 532.184 512.188C532.456 512.188 532.738 512.082 532.946 511.869L536.548 508.267L538.904 510.622C539.31 511.029 540.026 511.029 540.433 510.622Z" fill="white"/>
<path d="M531.962 502.638C532.11 503.04 532.493 503.307 532.923 503.307H532.978C533.703 503.307 534.198 502.578 533.934 501.908L531.195 494.939C530.983 494.403 530.47 494.052 529.893 494.052C529.316 494.052 528.803 494.403 528.591 494.934L525.833 501.903C525.565 502.578 526.064 503.307 526.789 503.307C527.219 503.307 527.602 503.04 527.75 502.638L528.161 501.534H531.551L531.962 502.638ZM528.794 499.839L529.246 498.624C529.316 498.403 529.394 498.19 529.473 497.982C529.551 497.774 529.625 497.567 529.69 497.359C529.75 497.174 529.81 496.985 529.865 496.8C529.921 496.985 529.981 497.169 530.041 497.359C530.11 497.585 530.184 497.802 530.253 498.015C530.323 498.227 530.396 498.426 530.466 498.61L530.923 499.839H528.794Z" fill="white"/>
<path d="M536.926 503.307C537.545 503.307 538.048 502.804 538.048 502.185V495.174C538.048 494.555 537.545 494.052 536.926 494.052C536.307 494.052 535.804 494.555 535.804 495.174V502.185C535.804 502.804 536.307 503.307 536.926 503.307Z" fill="white"/>
</g>
<g filter="url(#filter8_d_34_834)">
<rect x="464.098" y="581.971" width="147.827" height="200.703" rx="14.5492" fill="white"/>
<rect x="464.453" y="582.326" width="147.118" height="199.994" rx="14.1948" stroke="url(#paint20_linear_34_834)" stroke-width="0.708864"/>
</g>
<g clip-path="url(#clip3_34_834)">
<path d="M545.83 601.24H532.782C511.184 601.24 493.674 618.75 493.674 640.352V659.701C493.674 660.232 493.693 660.763 493.716 661.289C494.552 682.153 511.72 698.813 532.786 698.813H545.835C566.901 698.813 584.069 682.153 584.905 661.289C584.928 660.763 584.947 660.232 584.947 659.701V640.352C584.942 618.75 567.432 601.24 545.83 601.24Z" fill="#EAEFF4"/>
<path d="M545.83 601.24H532.782C511.184 601.24 493.674 618.75 493.674 640.352V659.701C493.674 660.232 493.693 660.763 493.716 661.289C494.552 682.153 511.72 698.813 532.786 698.813H545.835C566.901 698.813 584.069 682.153 584.905 661.289C584.928 660.763 584.947 660.232 584.947 659.701V640.352C584.942 618.75 567.432 601.24 545.83 601.24ZM547.484 687.843H531.128C518.616 687.843 507.461 682.042 500.201 672.984C497.198 669.238 495.526 664.573 495.517 659.775C495.517 659.751 495.517 659.724 495.517 659.701V640.352C495.522 619.771 512.205 603.088 532.786 603.088H545.835C566.416 603.088 583.099 619.771 583.099 640.352V659.701C583.099 659.724 583.099 659.751 583.099 659.775C583.09 664.573 581.418 669.243 578.416 672.984C571.155 682.042 560.001 687.843 547.488 687.843H547.484Z" fill="url(#paint21_radial_34_834)"/>
<path d="M546.623 607.956H532.536C514.932 607.956 500.661 622.226 500.661 639.83V642.052C500.661 659.655 514.932 673.926 532.536 673.926H546.623C564.227 673.926 578.498 659.655 578.498 642.052V639.83C578.498 622.226 564.227 607.956 546.623 607.956Z" fill="#010E3E"/>
<path d="M525.39 640.079H517.51V632.2H525.39V640.079ZM517.51 640.079H509.631V647.959H517.51V640.079ZM533.27 640.079H525.39V647.959H533.27V640.079ZM561.542 632.2H553.662V640.079H561.542V632.2ZM553.662 640.079H545.782V647.959H553.662V640.079ZM569.421 640.079H561.542V647.959H569.421V640.079Z" fill="url(#paint22_linear_34_834)"/>
<path d="M497.025 749.796H497.043C496.937 749.796 496.831 749.786 496.724 749.782C496.826 749.782 496.923 749.796 497.025 749.796Z" fill="white"/>
<path d="M588.569 723.528C574.906 712.027 557.267 705.422 538.016 705.094C518.894 704.771 499.495 713.233 485.837 725.135C496.53 729.112 504.155 738.784 507.301 749.795C510.548 761.167 523.859 771.536 538.016 771.536C552.173 771.536 565.031 762.696 568.703 749.795C571.373 740.415 578.625 729.209 590.213 725.135C589.714 724.577 589.174 724.036 588.569 723.528Z" fill="url(#paint23_radial_34_834)"/>
<path d="M496.722 749.781C496.413 749.776 496.108 749.767 495.808 749.744C496.108 749.767 496.413 749.771 496.722 749.781Z" fill="#B2CDCE"/>
<path d="M485.829 725.135C479.658 732.077 481.681 742.474 488.6 747.24C488.6 747.24 488.609 747.245 488.609 747.25C488.886 747.439 489.173 747.624 489.468 747.795C489.491 747.809 489.514 747.822 489.538 747.836C489.815 747.998 490.101 748.15 490.392 748.294C490.434 748.317 490.48 748.335 490.526 748.354C490.803 748.488 491.085 748.612 491.376 748.728C491.44 748.751 491.505 748.774 491.565 748.802C491.842 748.908 492.119 749.009 492.406 749.097C492.489 749.125 492.577 749.143 492.66 749.171C492.932 749.25 493.205 749.328 493.487 749.393C493.597 749.416 493.708 749.439 493.819 749.462C494.082 749.518 494.346 749.573 494.618 749.615C494.766 749.638 494.923 749.651 495.075 749.67C495.316 749.698 495.556 749.735 495.801 749.753C496.101 749.776 496.406 749.781 496.715 749.79C496.821 749.79 496.928 749.804 497.034 749.804H507.288C504.456 738.58 496.383 729.444 485.824 725.144L485.829 725.135Z" fill="url(#paint24_linear_34_834)"/>
<path d="M590.191 725.135C596.362 732.077 594.339 742.474 587.42 747.24C587.42 747.24 587.411 747.245 587.411 747.25C587.134 747.439 586.847 747.624 586.552 747.795C586.529 747.809 586.506 747.822 586.483 747.836C586.205 747.998 585.919 748.15 585.628 748.294C585.586 748.317 585.54 748.335 585.494 748.354C585.217 748.488 584.935 748.612 584.644 748.728C584.58 748.751 584.515 748.774 584.455 748.802C584.178 748.908 583.901 749.009 583.614 749.097C583.531 749.125 583.443 749.143 583.36 749.171C583.088 749.25 582.815 749.328 582.533 749.393C582.423 749.416 582.312 749.439 582.201 749.462C581.938 749.518 581.674 749.573 581.402 749.615C581.254 749.638 581.097 749.651 580.945 749.67C580.704 749.698 580.464 749.735 580.219 749.753C579.919 749.776 579.614 749.781 579.305 749.79C579.199 749.79 579.092 749.804 578.986 749.804H568.732C571.564 738.58 579.637 729.444 590.196 725.144L590.191 725.135Z" fill="url(#paint25_linear_34_834)"/>
<path d="M538.013 764.556C552.13 764.556 563.574 753.112 563.574 738.996C563.574 724.879 552.13 713.435 538.013 713.435C523.896 713.435 512.453 724.879 512.453 738.996C512.453 753.112 523.896 764.556 538.013 764.556Z" fill="#CFDBE2"/>
<path d="M538.013 759.528C549.352 759.528 558.544 750.336 558.544 738.997C558.544 727.658 549.352 718.466 538.013 718.466C526.675 718.466 517.483 727.658 517.483 738.997C517.483 750.336 526.675 759.528 538.013 759.528Z" fill="url(#paint26_linear_34_834)"/>
</g>
<path d="M534.07 732.118V734.023M544.62 737.982C546.785 737.982 548.543 739.74 548.543 741.905C548.543 744.07 546.785 745.829 544.62 745.829M539.397 727.485C537.31 730.031 541.233 731.296 538.981 734.154M544.152 745.014V737.982H530.078V745.014C530.078 745.014 530.078 745.049 530.078 745.058C530.096 747.344 532.062 749.137 534.348 749.137H539.882C542.169 749.137 544.135 747.344 544.152 745.058C544.152 745.04 544.152 745.023 544.152 745.014Z" stroke="white" stroke-width="1.99198" stroke-linecap="round" stroke-linejoin="round"/>
<circle cx="10.3457" cy="10.3457" r="10.3457" transform="matrix(-4.37114e-08 1 1 4.37114e-08 446.585 243.849)" fill="#010E3E"/>
<path d="M452.263 252.517L456.931 257.006L461.599 252.517" stroke="white" stroke-width="1.79537" stroke-linecap="round" stroke-linejoin="round"/>
<circle cx="10.3457" cy="10.3457" r="10.3457" transform="matrix(-4.37114e-08 1 1 4.37114e-08 369.345 336.74)" fill="#010E3E"/>
<path d="M375.022 345.409L379.69 349.897L384.358 345.409" stroke="white" stroke-width="1.79537" stroke-linecap="round" stroke-linejoin="round"/>
<circle cx="10.3457" cy="10.3457" r="10.3457" transform="matrix(-4.37114e-08 1 1 4.37114e-08 526.097 336.74)" fill="#010E3E"/>
<path d="M531.775 345.409L536.443 349.897L541.111 345.409" stroke="white" stroke-width="1.79537" stroke-linecap="round" stroke-linejoin="round"/>
<path d="M512.84 552.205L512.84 575.706" stroke="#010E3E" stroke-width="1.6" stroke-dasharray="4 4"/>
<path d="M561.593 552.205L561.593 575.706" stroke="#010E3E" stroke-width="1.6" stroke-dasharray="4 4"/>
<path d="M457.219 260.838V299.794C457.219 310.84 448.264 319.794 437.219 319.794H399.131C388.086 319.794 379.131 328.749 379.131 339.794L379.131 343.859" stroke="#010E3E" stroke-width="1.6" stroke-dasharray="4 4"/>
<path d="M457.219 260.838V299.794C457.219 310.84 466.173 319.794 477.219 319.794H515.836C526.882 319.794 535.836 328.749 535.836 339.794L535.836 343.859" stroke="#010E3E" stroke-width="1.6" stroke-dasharray="4 4"/>
<path d="M337.981 347.391V332.129C337.981 312.246 354.099 296.128 373.981 296.129L390.842 296.129C407.41 296.129 420.842 282.697 420.842 266.129V260.839" stroke="#010E3E" stroke-width="1.6" stroke-dasharray="4 4"/>
<path d="M575.162 347.391V332.129C575.162 312.246 559.045 296.128 539.162 296.129L522.302 296.129C505.733 296.129 492.302 282.697 492.302 266.129V260.839" stroke="#010E3E" stroke-width="1.6" stroke-dasharray="4 4"/>
<circle cx="10.3457" cy="10.3457" r="10.3457" transform="matrix(-4.37114e-08 -1 -1 4.37114e-08 430.443 264.54)" fill="#010E3E"/>
<path d="M424.766 255.871L420.098 251.383L415.43 255.871" stroke="white" stroke-width="1.79537" stroke-linecap="round" stroke-linejoin="round"/>
<circle cx="10.3457" cy="10.3457" r="10.3457" transform="matrix(-4.37114e-08 1 1 4.37114e-08 502.494 571.625)" fill="#010E3E"/>
<path d="M508.172 580.294L512.84 584.783L517.508 580.294" stroke="white" stroke-width="1.79537" stroke-linecap="round" stroke-linejoin="round"/>
<circle cx="10.3457" cy="10.3457" r="10.3457" transform="matrix(-4.37114e-08 1 1 4.37114e-08 502.494 536.18)" fill="#010E3E"/>
<path d="M508.172 544.848L512.84 549.337L517.508 544.848" stroke="white" stroke-width="1.79537" stroke-linecap="round" stroke-linejoin="round"/>
<circle cx="561.012" cy="546.525" r="10.3457" transform="rotate(-90 561.012 546.525)" fill="#010E3E"/>
<path d="M556.344 548.202L561.012 543.714L565.68 548.202" stroke="white" stroke-width="1.79537" stroke-linecap="round" stroke-linejoin="round"/>
<circle cx="561.012" cy="581.971" r="10.3457" transform="rotate(-90 561.012 581.971)" fill="#010E3E"/>
<path d="M556.344 583.648L561.012 579.16L565.68 583.648" stroke="white" stroke-width="1.79537" stroke-linecap="round" stroke-linejoin="round"/>
<circle cx="492.888" cy="254.194" r="10.3457" transform="rotate(-90 492.888 254.194)" fill="#010E3E"/>
<path d="M488.22 255.871L492.888 251.383L497.556 255.871" stroke="white" stroke-width="1.79537" stroke-linecap="round" stroke-linejoin="round"/>
<circle cx="525.458" cy="172.942" r="10.3457" fill="#010E3E"/>
<path d="M523.781 168.274L528.269 172.942L523.781 177.61" stroke="white" stroke-width="1.79537" stroke-linecap="round" stroke-linejoin="round"/>
<circle cx="696.951" cy="172.942" r="10.3457" fill="#010E3E"/>
<path d="M695.274 168.274L699.763 172.942L695.274 177.61" stroke="white" stroke-width="1.79537" stroke-linecap="round" stroke-linejoin="round"/>
<path d="M533.574 172.942H691.326" stroke="#010E3E" stroke-width="1.6"/>
<rect x="427.072" y="275" width="60" height="32" rx="16" fill="#010E3E"/>
<path d="M444.829 297L444.301 295.688L447.725 291.832C447.906 291.64 448.093 291.421 448.285 291.176C448.487 290.92 448.679 290.659 448.861 290.392C449.042 290.125 449.186 289.864 449.293 289.608C449.41 289.341 449.469 289.091 449.469 288.856C449.469 288.515 449.399 288.227 449.261 287.992C449.133 287.747 448.941 287.56 448.685 287.432C448.439 287.304 448.141 287.24 447.789 287.24C447.479 287.24 447.175 287.331 446.877 287.512C446.578 287.693 446.306 287.949 446.061 288.28C445.815 288.611 445.623 288.995 445.485 289.432L444.157 288.6C444.338 287.981 444.61 287.453 444.973 287.016C445.346 286.568 445.789 286.227 446.301 285.992C446.823 285.757 447.389 285.64 447.997 285.64C448.626 285.64 449.186 285.773 449.677 286.04C450.167 286.296 450.551 286.659 450.829 287.128C451.106 287.587 451.245 288.12 451.245 288.728C451.245 288.973 451.218 289.224 451.165 289.48C451.111 289.736 451.026 290.003 450.909 290.28C450.791 290.547 450.642 290.829 450.461 291.128C450.279 291.416 450.061 291.72 449.805 292.04C449.559 292.36 449.277 292.696 448.957 293.048L446.413 295.816L446.093 295.336H451.597V297H444.829ZM452.778 297V288.6H454.426V290.328L454.138 290.52C454.245 290.147 454.453 289.805 454.762 289.496C455.072 289.176 455.44 288.92 455.866 288.728C456.293 288.525 456.73 288.424 457.178 288.424C457.818 288.424 458.352 288.552 458.778 288.808C459.205 289.053 459.525 289.432 459.738 289.944C459.952 290.456 460.058 291.101 460.058 291.88V297H458.41V291.992C458.41 291.512 458.346 291.117 458.218 290.808C458.09 290.488 457.893 290.259 457.626 290.12C457.36 289.971 457.029 289.907 456.634 289.928C456.314 289.928 456.021 289.981 455.754 290.088C455.488 290.184 455.253 290.323 455.05 290.504C454.858 290.685 454.704 290.899 454.586 291.144C454.48 291.379 454.426 291.635 454.426 291.912V297H453.61C453.472 297 453.333 297 453.194 297C453.056 297 452.917 297 452.778 297ZM465.318 297.16C464.55 297.16 463.862 296.973 463.254 296.6C462.657 296.216 462.182 295.699 461.83 295.048C461.478 294.387 461.302 293.635 461.302 292.792C461.302 291.949 461.473 291.203 461.814 290.552C462.166 289.891 462.641 289.373 463.238 289C463.835 288.616 464.513 288.424 465.27 288.424C465.686 288.424 466.086 288.493 466.47 288.632C466.865 288.76 467.217 288.941 467.526 289.176C467.835 289.4 468.075 289.651 468.246 289.928C468.427 290.195 468.518 290.467 468.518 290.744L468.038 290.776V285.16H469.686V297H468.038V295H468.358C468.358 295.256 468.273 295.512 468.102 295.768C467.931 296.013 467.702 296.243 467.414 296.456C467.137 296.669 466.811 296.84 466.438 296.968C466.075 297.096 465.702 297.16 465.318 297.16ZM465.542 295.736C466.043 295.736 466.486 295.608 466.87 295.352C467.254 295.096 467.553 294.749 467.766 294.312C467.99 293.864 468.102 293.357 468.102 292.792C468.102 292.227 467.99 291.725 467.766 291.288C467.553 290.84 467.254 290.488 466.87 290.232C466.486 289.976 466.043 289.848 465.542 289.848C465.041 289.848 464.598 289.976 464.214 290.232C463.83 290.488 463.526 290.84 463.302 291.288C463.089 291.725 462.982 292.227 462.982 292.792C462.982 293.357 463.089 293.864 463.302 294.312C463.526 294.749 463.83 295.096 464.214 295.352C464.598 295.608 465.041 295.736 465.542 295.736Z" fill="white"/>
<rect x="581.925" y="156.942" width="60" height="32" rx="16" fill="#010E3E"/>
<path d="M604.978 178.158V169.07L605.57 169.518L603.362 170.686L602.898 169.182L605.89 167.582H606.722V178.158H604.978ZM603.202 178.942V177.278H608.546V178.942H603.202ZM612.978 179.102C612.274 179.102 611.64 178.979 611.074 178.734C610.509 178.489 610.04 178.126 609.666 177.646L610.786 176.686C611.106 177.059 611.453 177.331 611.826 177.502C612.21 177.662 612.642 177.742 613.122 177.742C613.314 177.742 613.49 177.721 613.65 177.678C613.821 177.625 613.965 177.55 614.082 177.454C614.21 177.358 614.306 177.246 614.37 177.118C614.434 176.979 614.466 176.83 614.466 176.67C614.466 176.393 614.365 176.169 614.162 175.998C614.056 175.923 613.885 175.843 613.65 175.758C613.426 175.662 613.133 175.566 612.77 175.47C612.152 175.31 611.645 175.129 611.25 174.926C610.856 174.723 610.552 174.494 610.338 174.238C610.178 174.035 610.061 173.817 609.986 173.582C609.912 173.337 609.874 173.07 609.874 172.782C609.874 172.43 609.949 172.11 610.098 171.822C610.258 171.523 610.472 171.267 610.738 171.054C611.016 170.83 611.336 170.659 611.698 170.542C612.072 170.425 612.466 170.366 612.882 170.366C613.277 170.366 613.666 170.419 614.05 170.526C614.445 170.633 614.808 170.787 615.138 170.99C615.469 171.193 615.746 171.433 615.97 171.71L615.026 172.75C614.824 172.547 614.6 172.371 614.354 172.222C614.12 172.062 613.88 171.939 613.634 171.854C613.389 171.769 613.165 171.726 612.962 171.726C612.738 171.726 612.536 171.747 612.354 171.79C612.173 171.833 612.018 171.897 611.89 171.982C611.773 172.067 611.682 172.174 611.618 172.302C611.554 172.43 611.522 172.574 611.522 172.734C611.533 172.873 611.565 173.006 611.618 173.134C611.682 173.251 611.768 173.353 611.874 173.438C611.992 173.523 612.168 173.614 612.402 173.71C612.637 173.806 612.936 173.897 613.298 173.982C613.832 174.121 614.269 174.275 614.61 174.446C614.962 174.606 615.24 174.793 615.442 175.006C615.656 175.209 615.805 175.443 615.89 175.71C615.976 175.977 616.018 176.275 616.018 176.606C616.018 177.086 615.88 177.518 615.602 177.902C615.336 178.275 614.973 178.569 614.514 178.782C614.056 178.995 613.544 179.102 612.978 179.102ZM618.395 178.942V168.398H620.043V178.942H618.395ZM616.651 172.142V170.542H621.995V172.142H616.651Z" fill="white"/>
<circle cx="337.862" cy="347.085" r="10.3457" transform="rotate(-90 337.862 347.085)" fill="#010E3E"/>
<path d="M333.194 348.762L337.862 344.274L342.53 348.762" stroke="white" stroke-width="1.79537" stroke-linecap="round" stroke-linejoin="round"/>
<circle cx="10.3457" cy="10.3457" r="10.3457" transform="matrix(4.37114e-08 -1 -1 -4.37114e-08 585.47 357.431)" fill="#010E3E"/>
<path d="M579.792 348.762L575.124 344.274L570.456 348.762" stroke="white" stroke-width="1.79537" stroke-linecap="round" stroke-linejoin="round"/>
</g>
<defs>
<filter id="filter0_f_34_834" x="91.7888" y="-177.71" width="730.567" height="687.274" filterUnits="userSpaceOnUse" color-interpolation-filters="sRGB">
<feFlood flood-opacity="0" result="BackgroundImageFix"/>
<feBlend mode="normal" in="SourceGraphic" in2="BackgroundImageFix" result="shape"/>
<feGaussianBlur stdDeviation="106" result="effect1_foregroundBlur_34_834"/>
</filter>
<filter id="filter1_bd_34_834" x="368.257" y="66.0161" width="197.629" height="228.771" filterUnits="userSpaceOnUse" color-interpolation-filters="sRGB">
<feFlood flood-opacity="0" result="BackgroundImageFix"/>
<feGaussianBlur in="BackgroundImageFix" stdDeviation="10"/>
<feComposite in2="SourceAlpha" operator="in" result="effect1_backgroundBlur_34_834"/>
<feColorMatrix in="SourceAlpha" type="matrix" values="0 0 0 0 0 0 0 0 0 0 0 0 0 0 0 0 0 0 127 0" result="hardAlpha"/>
<feOffset dx="10" dy="10"/>
<feGaussianBlur stdDeviation="15"/>
<feComposite in2="hardAlpha" operator="out"/>
<feColorMatrix type="matrix" values="0 0 0 0 0.0196078 0 0 0 0 0.6 0 0 0 0 0.290196 0 0 0 0.3 0"/>
<feBlend mode="normal" in2="effect1_backgroundBlur_34_834" result="effect2_dropShadow_34_834"/>
<feBlend mode="normal" in="SourceGraphic" in2="effect2_dropShadow_34_834" result="shape"/>
</filter>
<filter id="filter2_f_34_834" x="185.383" y="222.983" width="730.567" height="687.274" filterUnits="userSpaceOnUse" color-interpolation-filters="sRGB">
<feFlood flood-opacity="0" result="BackgroundImageFix"/>
<feBlend mode="normal" in="SourceGraphic" in2="BackgroundImageFix" result="shape"/>
<feGaussianBlur stdDeviation="106" result="effect1_foregroundBlur_34_834"/>
</filter>
<filter id="filter3_f_34_834" x="449.203" y="-118.048" width="633.373" height="623.896" filterUnits="userSpaceOnUse" color-interpolation-filters="sRGB">
<feFlood flood-opacity="0" result="BackgroundImageFix"/>
<feBlend mode="normal" in="SourceGraphic" in2="BackgroundImageFix" result="shape"/>
<feGaussianBlur stdDeviation="106" result="effect1_foregroundBlur_34_834"/>
</filter>
<filter id="filter4_b_34_834" x="676.951" y="66.0161" width="177.63" height="208.77" filterUnits="userSpaceOnUse" color-interpolation-filters="sRGB">
<feFlood flood-opacity="0" result="BackgroundImageFix"/>
<feGaussianBlur in="BackgroundImageFix" stdDeviation="10"/>
<feComposite in2="SourceAlpha" operator="in" result="effect1_backgroundBlur_34_834"/>
<feBlend mode="normal" in="SourceGraphic" in2="effect1_backgroundBlur_34_834" result="shape"/>
</filter>
<filter id="filter5_f_34_834" x="3.39174" y="42.7626" width="633.373" height="623.896" filterUnits="userSpaceOnUse" color-interpolation-filters="sRGB">
<feFlood flood-opacity="0" result="BackgroundImageFix"/>
<feBlend mode="normal" in="SourceGraphic" in2="BackgroundImageFix" result="shape"/>
<feGaussianBlur stdDeviation="106" result="effect1_foregroundBlur_34_834"/>
</filter>
<filter id="filter6_d_34_834" x="294.651" y="334.696" width="179.616" height="232.492" filterUnits="userSpaceOnUse" color-interpolation-filters="sRGB">
<feFlood flood-opacity="0" result="BackgroundImageFix"/>
<feColorMatrix in="SourceAlpha" type="matrix" values="0 0 0 0 0 0 0 0 0 0 0 0 0 0 0 0 0 0 127 0" result="hardAlpha"/>
<feOffset dx="4.76832" dy="4.76832"/>
<feGaussianBlur stdDeviation="7.94719"/>
<feComposite in2="hardAlpha" operator="out"/>
<feColorMatrix type="matrix" values="0 0 0 0 0.00392157 0 0 0 0 0.054902 0 0 0 0 0.243137 0 0 0 0.14 0"/>
<feBlend mode="normal" in2="BackgroundImageFix" result="effect1_dropShadow_34_834"/>
<feBlend mode="normal" in="SourceGraphic" in2="effect1_dropShadow_34_834" result="shape"/>
</filter>
<filter id="filter7_d_34_834" x="451.404" y="334.696" width="179.616" height="232.492" filterUnits="userSpaceOnUse" color-interpolation-filters="sRGB">
<feFlood flood-opacity="0" result="BackgroundImageFix"/>
<feColorMatrix in="SourceAlpha" type="matrix" values="0 0 0 0 0 0 0 0 0 0 0 0 0 0 0 0 0 0 127 0" result="hardAlpha"/>
<feOffset dx="4.76832" dy="4.76832"/>
<feGaussianBlur stdDeviation="7.94719"/>
<feComposite in2="hardAlpha" operator="out"/>
<feColorMatrix type="matrix" values="0 0 0 0 0.00392157 0 0 0 0 0.054902 0 0 0 0 0.243137 0 0 0 0.14 0"/>
<feBlend mode="normal" in2="BackgroundImageFix" result="effect1_dropShadow_34_834"/>
<feBlend mode="normal" in="SourceGraphic" in2="effect1_dropShadow_34_834" result="shape"/>
</filter>
<filter id="filter8_d_34_834" x="452.972" y="570.845" width="179.616" height="232.492" filterUnits="userSpaceOnUse" color-interpolation-filters="sRGB">
<feFlood flood-opacity="0" result="BackgroundImageFix"/>
<feColorMatrix in="SourceAlpha" type="matrix" values="0 0 0 0 0 0 0 0 0 0 0 0 0 0 0 0 0 0 127 0" result="hardAlpha"/>
<feOffset dx="4.76832" dy="4.76832"/>
<feGaussianBlur stdDeviation="7.94719"/>
<feComposite in2="hardAlpha" operator="out"/>
<feColorMatrix type="matrix" values="0 0 0 0 0.00392157 0 0 0 0 0.054902 0 0 0 0 0.243137 0 0 0 0.14 0"/>
<feBlend mode="normal" in2="BackgroundImageFix" result="effect1_dropShadow_34_834"/>
<feBlend mode="normal" in="SourceGraphic" in2="effect1_dropShadow_34_834" result="shape"/>
</filter>
<linearGradient id="paint0_linear_34_834" x1="-618.973" y1="1352.6" x2="1489.02" y2="977.527" gradientUnits="userSpaceOnUse">
<stop offset="0.247206" stop-color="#E9F0F2"/>
<stop offset="0.52907" stop-color="#E9F0F2" stop-opacity="0"/>
<stop offset="0.812916" stop-color="#E9F0F2" stop-opacity="0.878652"/>
</linearGradient>
<linearGradient id="paint1_linear_34_834" x1="-146.235" y1="-64.229" x2="524.46" y2="1420.15" gradientUnits="userSpaceOnUse">
<stop stop-color="#D2E0E4"/>
<stop offset="0.660436" stop-color="#D2E0E4" stop-opacity="0"/>
</linearGradient>
<linearGradient id="paint2_linear_34_834" x1="390.92" y1="86.0161" x2="567.963" y2="236.303" gradientUnits="userSpaceOnUse">
<stop offset="0.182224" stop-color="#2DE376" stop-opacity="0.5"/>
<stop offset="0.640234" stop-color="#2DE376" stop-opacity="0.9"/>
</linearGradient>
<linearGradient id="paint3_linear_34_834" x1="388.257" y1="66.3778" x2="554.908" y2="228.138" gradientUnits="userSpaceOnUse">
<stop offset="0.249921" stop-color="#2DE376"/>
<stop offset="0.470896" stop-color="#2DE376" stop-opacity="0"/>
<stop offset="0.816545" stop-color="#35C168"/>
</linearGradient>
<linearGradient id="paint4_linear_34_834" x1="690.206" y1="50.5594" x2="926.536" y2="313.034" gradientUnits="userSpaceOnUse">
<stop offset="0.240123" stop-color="#8566FF" stop-opacity="0.7"/>
<stop offset="0.620436" stop-color="#5D34FF" stop-opacity="0.7"/>
<stop offset="0.932669" stop-color="#5D34FF" stop-opacity="0.5"/>
</linearGradient>
<linearGradient id="paint5_linear_34_834" x1="684.717" y1="69.6749" x2="870.945" y2="246.148" gradientUnits="userSpaceOnUse">
<stop offset="0.260545" stop-color="#AF9BFD"/>
<stop offset="0.507722" stop-color="#5F38FB" stop-opacity="0.1"/>
<stop offset="0.82414" stop-color="#6C47FF"/>
</linearGradient>
<linearGradient id="paint6_linear_34_834" x1="282.22" y1="321.436" x2="505.16" y2="577.351" gradientUnits="userSpaceOnUse">
<stop stop-color="#D2E0E4"/>
<stop offset="0.660436" stop-color="#D2E0E4" stop-opacity="0"/>
</linearGradient>
<radialGradient id="paint7_radial_34_834" cx="0" cy="0" r="1" gradientUnits="userSpaceOnUse" gradientTransform="translate(381.094 364.108) scale(109.203 109.203)">
<stop offset="0.11" stop-color="#EAEFF4"/>
<stop offset="0.62" stop-color="#EAEFF4"/>
<stop offset="0.66" stop-color="#EAEFF4"/>
<stop offset="0.72" stop-color="#E4EAF0"/>
<stop offset="0.79" stop-color="#D4DDE6"/>
<stop offset="0.87" stop-color="#BAC7D6"/>
<stop offset="0.94" stop-color="#A1B2C6"/>
</radialGradient>
<linearGradient id="paint8_linear_34_834" x1="351.31" y1="403.93" x2="411.1" y2="403.93" gradientUnits="userSpaceOnUse">
<stop offset="0.24" stop-color="#008EFF"/>
<stop offset="0.78" stop-color="#2EE276"/>
</linearGradient>
<radialGradient id="paint9_radial_34_834" cx="0" cy="0" r="1" gradientUnits="userSpaceOnUse" gradientTransform="translate(379.704 502.159) scale(43.7448 43.7448)">
<stop offset="0.14" stop-color="white"/>
<stop offset="0.42" stop-color="#FBFCFD"/>
<stop offset="0.66" stop-color="#F1F4F7"/>
<stop offset="0.77" stop-color="#EAEFF4"/>
</radialGradient>
<linearGradient id="paint10_linear_34_834" x1="323.826" y1="501.313" x2="348.976" y2="501.313" gradientUnits="userSpaceOnUse">
<stop offset="0.15" stop-color="#D9E5ED"/>
<stop offset="0.37" stop-color="#C9D6E0"/>
<stop offset="0.76" stop-color="#B2C1CE"/>
</linearGradient>
<linearGradient id="paint11_linear_34_834" x1="410.407" y1="501.313" x2="435.552" y2="501.313" gradientUnits="userSpaceOnUse">
<stop offset="0.24" stop-color="#B2C1CE"/>
<stop offset="0.63" stop-color="#C9D6E0"/>
<stop offset="0.85" stop-color="#D9E5ED"/>
</linearGradient>
<linearGradient id="paint12_linear_34_834" x1="357.633" y1="524.908" x2="403.535" y2="479.006" gradientUnits="userSpaceOnUse">
<stop offset="0.12" stop-color="#5F38FB"/>
<stop offset="0.35" stop-color="#4F64D2"/>
<stop offset="0.76" stop-color="#31B986"/>
</linearGradient>
<linearGradient id="paint13_linear_34_834" x1="438.973" y1="321.436" x2="661.913" y2="577.351" gradientUnits="userSpaceOnUse">
<stop stop-color="#D2E0E4"/>
<stop offset="0.660436" stop-color="#D2E0E4" stop-opacity="0"/>
</linearGradient>
<radialGradient id="paint14_radial_34_834" cx="0" cy="0" r="1" gradientUnits="userSpaceOnUse" gradientTransform="translate(537.847 364.107) scale(109.198 109.198)">
<stop offset="0.11" stop-color="#EAEFF4"/>
<stop offset="0.62" stop-color="#EAEFF4"/>
<stop offset="0.66" stop-color="#EAEFF4"/>
<stop offset="0.72" stop-color="#E4EAF0"/>
<stop offset="0.79" stop-color="#D4DDE6"/>
<stop offset="0.87" stop-color="#BAC7D6"/>
<stop offset="0.94" stop-color="#A1B2C6"/>
</radialGradient>
<linearGradient id="paint15_linear_34_834" x1="508.064" y1="403.929" x2="567.853" y2="403.929" gradientUnits="userSpaceOnUse">
<stop offset="0.24" stop-color="#008EFF"/>
<stop offset="0.78" stop-color="#2EE276"/>
</linearGradient>
<radialGradient id="paint16_radial_34_834" cx="0" cy="0" r="1" gradientUnits="userSpaceOnUse" gradientTransform="translate(536.457 502.154) scale(43.743)">
<stop offset="0.14" stop-color="white"/>
<stop offset="0.42" stop-color="#FBFCFD"/>
<stop offset="0.66" stop-color="#F1F4F7"/>
<stop offset="0.77" stop-color="#EAEFF4"/>
</radialGradient>
<linearGradient id="paint17_linear_34_834" x1="480.582" y1="501.307" x2="505.731" y2="501.307" gradientUnits="userSpaceOnUse">
<stop offset="0.15" stop-color="#D9E5ED"/>
<stop offset="0.37" stop-color="#C9D6E0"/>
<stop offset="0.76" stop-color="#B2C1CE"/>
</linearGradient>
<linearGradient id="paint18_linear_34_834" x1="567.159" y1="501.307" x2="592.302" y2="501.307" gradientUnits="userSpaceOnUse">
<stop offset="0.24" stop-color="#B2C1CE"/>
<stop offset="0.63" stop-color="#C9D6E0"/>
<stop offset="0.85" stop-color="#D9E5ED"/>
</linearGradient>
<linearGradient id="paint19_linear_34_834" x1="514.387" y1="524.9" x2="560.287" y2="479" gradientUnits="userSpaceOnUse">
<stop offset="0.12" stop-color="#5F38FB"/>
<stop offset="0.35" stop-color="#4F64D2"/>
<stop offset="0.76" stop-color="#31B986"/>
</linearGradient>
<linearGradient id="paint20_linear_34_834" x1="440.541" y1="557.585" x2="663.481" y2="813.5" gradientUnits="userSpaceOnUse">
<stop stop-color="#D2E0E4"/>
<stop offset="0.660436" stop-color="#D2E0E4" stop-opacity="0"/>
</linearGradient>
<radialGradient id="paint21_radial_34_834" cx="0" cy="0" r="1" gradientUnits="userSpaceOnUse" gradientTransform="translate(539.414 600.256) scale(109.203 109.203)">
<stop offset="0.11" stop-color="#EAEFF4"/>
<stop offset="0.62" stop-color="#EAEFF4"/>
<stop offset="0.66" stop-color="#EAEFF4"/>
<stop offset="0.72" stop-color="#E4EAF0"/>
<stop offset="0.79" stop-color="#D4DDE6"/>
<stop offset="0.87" stop-color="#BAC7D6"/>
<stop offset="0.94" stop-color="#A1B2C6"/>
</radialGradient>
<linearGradient id="paint22_linear_34_834" x1="509.631" y1="640.079" x2="569.421" y2="640.079" gradientUnits="userSpaceOnUse">
<stop offset="0.24" stop-color="#008EFF"/>
<stop offset="0.78" stop-color="#2EE276"/>
</linearGradient>
<radialGradient id="paint23_radial_34_834" cx="0" cy="0" r="1" gradientUnits="userSpaceOnUse" gradientTransform="translate(538.025 738.308) scale(43.7448 43.7448)">
<stop offset="0.14" stop-color="white"/>
<stop offset="0.42" stop-color="#FBFCFD"/>
<stop offset="0.66" stop-color="#F1F4F7"/>
<stop offset="0.77" stop-color="#EAEFF4"/>
</radialGradient>
<linearGradient id="paint24_linear_34_834" x1="482.147" y1="737.462" x2="507.297" y2="737.462" gradientUnits="userSpaceOnUse">
<stop offset="0.15" stop-color="#D9E5ED"/>
<stop offset="0.37" stop-color="#C9D6E0"/>
<stop offset="0.76" stop-color="#B2C1CE"/>
</linearGradient>
<linearGradient id="paint25_linear_34_834" x1="568.728" y1="737.462" x2="593.873" y2="737.462" gradientUnits="userSpaceOnUse">
<stop offset="0.24" stop-color="#B2C1CE"/>
<stop offset="0.63" stop-color="#C9D6E0"/>
<stop offset="0.85" stop-color="#D9E5ED"/>
</linearGradient>
<linearGradient id="paint26_linear_34_834" x1="515.954" y1="761.056" x2="561.856" y2="715.155" gradientUnits="userSpaceOnUse">
<stop offset="0.12" stop-color="#5F38FB"/>
<stop offset="0.35" stop-color="#4F64D2"/>
<stop offset="0.76" stop-color="#31B986"/>
</linearGradient>
<clipPath id="clip0_34_834">
<rect width="1200" height="862.192" fill="white"/>
</clipPath>
<clipPath id="clip1_34_834">
<rect width="111.725" height="170.296" fill="white" transform="translate(323.828 365.091)"/>
</clipPath>
<clipPath id="clip2_34_834">
<rect width="111.72" height="170.289" fill="white" transform="translate(480.583 365.091)"/>
</clipPath>
<clipPath id="clip3_34_834">
<rect width="111.725" height="170.296" fill="white" transform="translate(482.149 601.24)"/>
</clipPath>
</defs>
</svg>
