<svg width="426" height="615" viewBox="0 0 426 615" fill="none" xmlns="http://www.w3.org/2000/svg">
<g opacity="0.15" filter="url(#filter0_f_2507_6475)">
<circle cx="307.727" cy="307.5" r="157.5" fill="#6FECA1"/>
</g>
<g filter="url(#filter1_bd_2507_6475)">
<mask id="path-2-inside-1_2507_6475" fill="white">
<path fill-rule="evenodd" clip-rule="evenodd" d="M504.224 315.487C503.784 384.35 447.464 439.816 378.43 439.375C309.396 438.934 253.789 382.753 254.229 313.891C254.669 245.028 310.989 189.562 380.023 190.003C449.057 190.444 504.664 246.625 504.224 315.487ZM444.334 314.918C444.106 350.581 414.938 379.307 379.186 379.079C343.434 378.85 314.635 349.754 314.863 314.091C315.091 278.428 344.259 249.702 380.011 249.93C415.763 250.159 444.562 279.255 444.334 314.918Z"/>
</mask>
<path fill-rule="evenodd" clip-rule="evenodd" d="M504.224 315.487C503.784 384.35 447.464 439.816 378.43 439.375C309.396 438.934 253.789 382.753 254.229 313.891C254.669 245.028 310.989 189.562 380.023 190.003C449.057 190.444 504.664 246.625 504.224 315.487ZM444.334 314.918C444.106 350.581 414.938 379.307 379.186 379.079C343.434 378.85 314.635 349.754 314.863 314.091C315.091 278.428 344.259 249.702 380.011 249.93C415.763 250.159 444.562 279.255 444.334 314.918Z" fill="url(#paint0_linear_2507_6475)" shape-rendering="crispEdges"/>
<path d="M378.43 439.375L378.443 437.375L378.43 439.375ZM504.224 315.487L502.224 315.475L504.224 315.487ZM254.229 313.891L256.229 313.903L254.229 313.891ZM380.023 190.003L380.01 192.003L380.023 190.003ZM379.186 379.079L379.199 377.079L379.186 379.079ZM444.334 314.918L442.334 314.905L444.334 314.918ZM314.863 314.091L316.863 314.104L314.863 314.091ZM380.011 249.93L379.998 251.93L380.011 249.93ZM378.417 441.375C448.551 441.823 505.777 385.472 506.224 315.5L502.224 315.475C501.791 383.228 446.377 437.809 378.443 437.375L378.417 441.375ZM252.229 313.878C251.782 383.849 308.283 440.927 378.417 441.375L378.443 437.375C310.509 436.942 255.796 381.656 256.229 313.903L252.229 313.878ZM380.036 188.003C309.902 187.555 252.676 243.906 252.229 313.878L256.229 313.903C256.662 246.15 312.076 191.569 380.01 192.003L380.036 188.003ZM506.224 315.5C506.671 245.529 450.17 188.451 380.036 188.003L380.01 192.003C447.945 192.437 502.657 247.722 502.224 315.475L506.224 315.5ZM379.173 381.079C416.025 381.314 446.099 351.703 446.334 314.931L442.334 314.905C442.113 349.459 413.851 377.3 379.199 377.079L379.173 381.079ZM312.863 314.078C312.628 350.851 342.321 380.843 379.173 381.079L379.199 377.079C344.546 376.857 316.642 348.658 316.863 314.104L312.863 314.078ZM380.024 247.93C343.172 247.695 313.098 277.306 312.863 314.078L316.863 314.104C317.084 279.55 345.346 251.709 379.998 251.93L380.024 247.93ZM446.334 314.931C446.569 278.158 416.876 248.166 380.024 247.93L379.998 251.93C414.651 252.151 442.555 280.351 442.334 314.905L446.334 314.931Z" fill="url(#paint1_linear_2507_6475)" mask="url(#path-2-inside-1_2507_6475)"/>
</g>
<defs>
<filter id="filter0_f_2507_6475" x="0.226578" y="1.52588e-05" width="615" height="615" filterUnits="userSpaceOnUse" color-interpolation-filters="sRGB">
<feFlood flood-opacity="0" result="BackgroundImageFix"/>
<feBlend mode="normal" in="SourceGraphic" in2="BackgroundImageFix" result="shape"/>
<feGaussianBlur stdDeviation="75" result="effect1_foregroundBlur_2507_6475"/>
</filter>
<filter id="filter1_bd_2507_6475" x="234.227" y="170" width="310" height="309.379" filterUnits="userSpaceOnUse" color-interpolation-filters="sRGB">
<feFlood flood-opacity="0" result="BackgroundImageFix"/>
<feGaussianBlur in="BackgroundImageFix" stdDeviation="10"/>
<feComposite in2="SourceAlpha" operator="in" result="effect1_backgroundBlur_2507_6475"/>
<feColorMatrix in="SourceAlpha" type="matrix" values="0 0 0 0 0 0 0 0 0 0 0 0 0 0 0 0 0 0 127 0" result="hardAlpha"/>
<feOffset dx="10" dy="10"/>
<feGaussianBlur stdDeviation="15"/>
<feComposite in2="hardAlpha" operator="out"/>
<feColorMatrix type="matrix" values="0 0 0 0 0.0196078 0 0 0 0 0.6 0 0 0 0 0.290196 0 0 0 0.3 0"/>
<feBlend mode="normal" in2="effect1_backgroundBlur_2507_6475" result="effect2_dropShadow_2507_6475"/>
<feBlend mode="normal" in="SourceGraphic" in2="effect2_dropShadow_2507_6475" result="shape"/>
</filter>
<linearGradient id="paint0_linear_2507_6475" x1="259.063" y1="190" x2="523.944" y2="466.414" gradientUnits="userSpaceOnUse">
<stop offset="0.182224" stop-color="#2DE376" stop-opacity="0.5"/>
<stop offset="0.640234" stop-color="#2DE376" stop-opacity="0.9"/>
</linearGradient>
<linearGradient id="paint1_linear_2507_6475" x1="254.227" y1="160.982" x2="496.786" y2="450.417" gradientUnits="userSpaceOnUse">
<stop offset="0.249921" stop-color="#2DE376"/>
<stop offset="0.470896" stop-color="#2DE376" stop-opacity="0"/>
<stop offset="0.816545" stop-color="#35C168"/>
</linearGradient>
</defs>
</svg>
